<?xml version="1.0" encoding="utf-8"?>
<!-- Generator: Adobe Illustrator 23.0.2, SVG Export Plug-In . SVG Version: 6.00 Build 0)  -->
<svg version="1.1" id="chat_2_" xmlns="http://www.w3.org/2000/svg" xmlns:xlink="http://www.w3.org/1999/xlink" x="0px" y="0px"
	 viewBox="0 0 4004.16 3061.44" style="enable-background:new 0 0 4004.16 3061.44;" xml:space="preserve">
<style type="text/css">
	.st0{fill:#7FCFF5;}
	.st1{fill:#BFDBF7;}
</style>
<g id="couleur_xA0_Image_1_">
	<g>
		<path class="st0" d="M68.84,972.95c1.61,0.21,3.2,0.23,4.7-0.48c1.44-0.69,2.88-1.39,4.28-2.16c7.01-3.84,14.01-7.7,21-11.58
			c4.19-2.32,8.36-4.69,12.55-7.03c9.77-5.46,19.53-10.92,29.31-16.36c6.14-3.42,12.28-6.85,18.46-10.23
			c9.54-5.21,19.13-10.33,28.65-15.58c8.67-4.79,17.26-9.73,25.92-14.56c6.7-3.74,13.43-7.42,20.16-11.1
			c9.54-5.21,19.14-10.32,28.65-15.59c13.97-7.76,27.87-15.66,41.83-23.43c7.82-4.36,15.73-8.56,23.56-12.89
			c10.63-5.88,21.23-11.81,31.85-17.71c6.15-3.41,12.29-6.83,18.47-10.2c9.54-5.21,19.13-10.33,28.65-15.58
			c8.4-4.63,16.72-9.4,25.09-14.08c6.7-3.74,13.41-7.46,20.14-11.15c8.41-4.61,16.87-9.14,25.25-13.8
			c15.37-8.53,30.69-17.16,46.06-25.69c8.39-4.65,16.76-9.34,25.28-13.74c8.61-4.44,16.35-9.98,23.17-16.82
			c12.28-12.33,26.55-21.96,41.3-31.03c12.89-7.93,26.77-13.65,40.87-18.81c7.47-2.74,15.32-4.45,23.07-6.35
			c3.14-0.77,6.15-1.71,8.97-3.25c5.61-3.06,11.22-6.14,16.81-9.23c6.72-3.7,13.42-7.43,20.15-11.13
			c14.29-7.86,28.57-15.71,42.88-23.53c2.26-1.23,4.34-2.65,6.28-4.35c13.98-12.29,28.94-23.13,45.67-31.46
			c3.99-1.99,7.9-4.28,11.45-6.96c8.45-6.38,17.3-12.06,26.7-16.91c5.1-2.63,9.88-5.91,15.41-7.72c2.46-0.81,4.41-2.48,6.34-4.22
			c15.79-14.17,33.12-26.09,52.23-35.38c6.05-2.94,11.81-6.2,17.22-10.33c9.92-7.58,20.65-14.02,31.8-19.59
			c6.34-3.17,12.13-6.95,17.93-10.94c14.27-9.82,29.56-17.82,45.84-23.82c4.48-1.65,8.86-3.58,13.56-4.74
			c3.03-0.75,5.95-2.39,8.61-4.12c9.67-6.3,19.73-11.85,30.17-16.74c1.45-0.68,2.83-1.56,4.34-2.03c6.83-2.13,12.58-6.1,18.35-10.17
			c11.25-7.95,23.02-15.04,35.6-20.71c0.58-0.26,1.12-0.66,1.72-0.84c8.42-2.53,15.49-7.54,22.5-12.55
			c7.57-5.42,15.76-9.79,23.88-14.23c5.86-3.21,12.18-5.62,18.42-8.1c5.08-2.02,9.88-4.42,14.36-7.58
			c9.94-7.02,20.32-13.33,31.32-18.55c17.38-8.25,35.35-14.8,54.34-18.29c0.63-0.12,1.24-0.35,1.87-0.43
			c6.73-0.91,12.77-3.35,18.65-6.91c9.28-5.64,19.07-10.43,28.59-15.69c8.4-4.63,16.71-9.41,25.07-14.1
			c6.13-3.44,12.27-6.88,18.44-10.26c8.69-4.76,17.44-9.43,26.11-14.22c9.52-5.25,18.98-10.6,28.47-15.89
			c6.14-3.43,12.28-6.87,18.44-10.25c8.97-4.92,18-9.74,26.96-14.68c9.24-5.1,18.41-10.29,27.62-15.44
			c6.14-3.43,12.28-6.86,18.44-10.24c8.41-4.61,16.87-9.14,25.26-13.78c10.07-5.57,20.09-11.23,30.14-16.84
			c5.86-3.27,11.74-6.52,17.63-9.74c8.41-4.61,16.87-9.14,25.26-13.78c9.79-5.41,19.53-10.93,29.32-16.34
			c3.64-2.01,7.36-3.88,11.06-5.76c1.64-0.84,2.52-0.58,3.77,1.48c0.85,1.41,1.73,2.64,3.23,3.39c0.85,0.43,1.7,0.89,2.49,1.43
			c1.95,1.33,3.2,3.11,3.3,5.55c0.09,2.24,0.2,4.48,0.2,6.72c-0.01,9.28-0.11,18.55-0.07,27.83c0.03,6.07,0.14,12.14,1.14,18.16
			c0.15,0.93,0.36,1.96,0.11,2.82c-0.91,3.18-0.96,6.29,0,9.46c0.18,0.59,0.21,1.29,0.08,1.89c-1.53,7.29-0.55,14.66-0.76,21.98
			c-0.16,5.44-0.33,10.87-0.52,16.31c-0.03,0.96,0.05,1.99-0.28,2.85c-1.89,4.94-1.35,10.11-1.46,15.2
			c-0.15,6.39-0.12,12.8,0.06,19.19c0.14,4.77-0.27,9.61,1.41,14.26c0.42,1.16,0.33,2.53,0.36,3.8c0.09,5.12,0.3,10.18,1.4,15.25
			c0.8,3.7,0.74,7.65,0.62,11.48c-0.22,7.11,1.31,14.01,2.55,20.89c0.84,4.67,1.04,9.49,2.73,14.08c0.84,2.29,0.51,5.06,0.54,7.61
			c0.04,3.2,0.09,6.36,0.98,9.5c0.51,1.81,0.55,3.78,0.62,5.69c0.12,3.51,0.1,7.03,0.14,10.55c0.03,2.88,0.11,5.74-0.79,8.56
			c-0.38,1.18-0.71,2.62-0.39,3.75c1.76,6.31-0.35,11.96-2.67,17.6c-0.36,0.89-0.91,1.72-1.13,2.64c-0.21,0.9-0.32,1.93-0.1,2.81
			c1.11,4.32,2.18,8.66,3.58,12.89c1.01,3.06,1.77,6.1,1.94,9.34c0.1,1.88,0.61,3.77,1.14,5.59c1.25,4.3,2.56,8.57,2.28,13.15
			c-0.08,1.24,0.16,2.6,0.61,3.76c1.2,3.07,1.25,6.25,1.27,9.45c0.01,1.28-0.09,2.61,0.24,3.82c2.46,9.09,1.76,18.4,1.94,27.64
			c0.14,7.03-0.05,14.07,0,21.11c0.04,5.12-0.2,10.15-1.26,15.24c-0.96,4.65-0.78,9.54-1.07,14.33c-0.1,1.6,0.17,3.27-0.23,4.78
			c-2.16,8.19-1.31,16.53-1.37,24.81c-0.08,12.15-0.05,24.31-0.09,36.46c-0.02,6.4-0.16,12.79-0.1,19.19
			c0.05,4.8-0.18,9.49-1.14,14.27c-0.99,4.96-0.7,10.19-0.84,15.3c-0.1,3.83,0.04,7.65-1.15,11.4c-0.47,1.47-0.28,3.17-0.32,4.76
			c-0.15,6.08-0.22,12.15-0.43,18.23c-0.07,1.9-0.22,3.87-0.79,5.66c-2.74,8.58-3.75,17.44-4.57,26.34c-0.18,1.9-0.3,3.87-0.9,5.66
			c-1.14,3.43-1.12,6.95-1.14,10.45c-0.06,15.67-0.06,31.35,0.06,47.02c0.04,5.09-0.29,10.22,1.35,15.22
			c0.57,1.75,0.29,3.8,0.32,5.72c0.06,4.48,0.09,8.95,0.09,13.43c0,2.57,0.18,5.08,0.9,7.59c0.52,1.82,0.76,3.76,0.8,5.66
			c0.11,4.16,0.09,8.3,1.4,12.34c0.7,2.16,0.46,4.44-0.26,6.62c-0.62,1.89-0.52,3.74,0.06,5.64c1.14,3.77,1.03,7.57-0.03,11.35
			c-0.26,0.92-0.7,1.87-0.67,2.78c0.25,6.45-1.39,12.64-2.28,18.95c-0.5,3.52-1.23,6.93-2.33,10.25c-1.31,3.94-2.76,7.8-3.64,11.9
			c-0.59,2.75-2.14,5.31-3.38,7.89c-1.13,2.35-1.8,4.75-1.79,7.38c0.01,8-0.1,15.99-0.07,23.99c0.03,9.61-0.36,19.16-2.93,28.52
			c-1.2,4.37-1.08,8.82-0.21,13.29c0.49,2.49,0.72,5.05,0.79,7.59c0.11,3.83-0.03,7.67-0.06,11.51c-0.01,0.96,0.14,1.97-0.12,2.87
			c-2.22,7.82-1.02,15.91-1.89,23.83c-0.17,1.59,0.06,3.26-0.36,4.77c-1.91,6.93-1.23,13.96-1.22,20.99
			c0.01,10.55,0.28,21.14-0.49,31.65c-0.54,7.3-1.26,14.61-1.84,21.92c-0.43,5.37-1.76,10.67-2.63,16.01
			c-0.3,1.88-0.54,3.8-0.57,5.7c-0.22,14.07-0.5,28.15-0.54,42.22c-0.07,20.47,0.02,40.95,0.09,61.42
			c0.02,5.76,0.12,11.52,0.26,17.27c0.21,8.95,0.56,17.89-1.58,26.72c-0.52,2.14-0.2,4.46-0.4,6.69c-0.33,3.81,0.02,7.7-1.34,11.39
			c-0.22,0.59-0.27,1.25-0.36,1.88c-0.42,3.29-0.09,25.34,0.74,28.72c0.85,3.47,0.94,6.96,0.99,10.48
			c0.05,4.16,0.09,8.32,0.19,12.48c0.05,2.24-0.24,4.63,0.44,6.67c1.47,4.4,1.05,8.87,1.18,13.32c0.14,4.8,0.09,9.6,0.19,14.4
			c0.1,4.79,0,9.57,1.28,14.29c0.57,2.11,0.3,4.45,0.47,6.68c0.37,4.76-0.1,9.58,1.39,14.28c0.56,1.77,0.33,3.8,0.38,5.72
			c0.14,5.44,0.17,10.88,0.36,16.31c0.08,2.22,0.46,4.43,0.7,6.65c0.28,2.53,0.66,5.06,0.8,7.59c0.25,4.79,0.41,9.59,0.51,14.39
			c0.1,4.49,1.91,8.7,1.9,13.25c-0.01,2.81,1.14,5.61,1.49,8.45c0.65,5.41,0.65,10.84,0.31,16.29c-0.52,8.3-0.39,16.55,1.37,24.79
			c1.26,5.91,1.58,12.01,2.53,17.99c1.25,7.87,2.47,15.77,4.57,23.47c0.86,3.16,1.29,6.28,1.06,9.47c-0.34,4.76-0.35,9.51-1.18,14.3
			c-0.92,5.29-0.74,10.86-0.36,16.25c0.27,3.77,1.4,7.66,4.22,10.49c2.73,2.74,3.61,5.92,3.28,9.61c-0.06,0.63,0.06,1.28,0.02,1.92
			c-0.5,9.01,1.19,17.76,2.9,26.55c1.28,6.55,2.04,13.26,2.35,19.94c0.36,7.66-0.04,15.35-0.11,23.02
			c-1.71,6.58-1.54,13.3-1.58,20.01c-0.01,0.96,0.04,1.97-0.23,2.86c-1.71,5.61-1.44,11.39-1.45,17.13
			c-0.02,48.31-0.03,96.62-0.04,144.93c0,14.72-0.02,29.44,0.03,44.15c0.03,8.3-0.32,16.63,1.5,24.84c0.41,1.84,0.18,3.82,0.18,5.74
			c0.01,29.43,0.01,58.87,0.01,88.3c0,0.96-0.05,1.92-0.05,2.88c0,4.74,1.04,6.8,6.74,7.5c5.65,0.69,11.38,1.29,17.12-0.52
			c4.93-1.55,10.15-1.17,15.21-0.26c2.26,0.41,4.36,0.6,6.58-0.04c1.21-0.35,2.52-0.45,3.79-0.46c9.59-0.1,19.19-0.14,28.78-0.23
			c5.44-0.05,10.89,0.07,16.3-0.35c3.47-0.27,6.93-1.17,10.3-2.13c4.75-1.34,9.47-1.44,14.2-0.2c2.55,0.67,5.03,0.9,7.54,0.01
			c2.47-0.87,5.04-1,7.59-0.78c3.16,0.27,6.3,1.18,9.45,1.2c2.83,0.02,5.65-1.05,8.49-1.16c2.84-0.11,5.75,0.16,8.55,0.68
			c2.24,0.42,4.34,0.69,6.6,0.09c4.72-1.25,9.46-1.29,14.19,0.15c2.44,0.74,4.94,1.31,7.42,1.87c1.55,0.35,3.12,0.72,4.7,0.79
			c3.2,0.14,6.34,0.28,9.49,1.16c2.1,0.59,4.43,0.53,6.65,0.5c7.03-0.09,14.09-0.57,20.9,1.84c6.07,0.16,12.14,0.43,18.22,0.47
			c12.15,0.08,24.3,0.03,36.45,0.03c8.63,0,17.27,0.01,25.9-0.03c10.55-0.04,21.11-0.16,31.66-0.19c11.51-0.03,23.02-0.03,34.53,0
			c10.55,0.03,21.11,0.15,31.66,0.18c4.16,0.01,8.31-0.22,12.47-0.2c10.23,0.05,20.46,0.26,30.7,0.27
			c9.27,0.01,18.55-0.17,27.82-0.22c7.68-0.05,15.35-0.07,23.03-0.05c10.24,0.02,20.47,0.13,30.71,0.14
			c6.4,0.01,12.8-0.07,19.19-0.16c1.27-0.02,2.63-0.03,3.79-0.46c4.65-1.71,9.45-1.39,14.24-1.39c3.83,0,7.67-0.2,11.5-0.24
			c3.84-0.04,7.68,0.02,11.51,0.03c1.6,0.01,3.33,0.41,4.77-0.06c6.53-2.12,13.46-0.47,19.95-2.18c6.04-1.59,11.99-1.66,18.03-0.65
			c1.6,0.27,3.1,0.34,4.72,0.08c2.82-0.46,5.7-0.82,8.55-0.82c9.91,0,19.82,0.24,29.74,0.25c9.59,0.01,19.18-0.16,28.78-0.26
			c4.48-0.05,8.96-0.19,13.33,1.07c4.07-0.93,8.2-1.37,12.37-1.07c3.17,0.23,6.35,1.12,9.48,0.94c2.83-0.17,5.63-1.01,8.53-0.98
			c9.91,0.11,19.82,0.22,29.74,0.26c3.84,0.01,7.68-0.09,11.51-0.26c3.87-0.17,7.64,1.01,11.4,0.96c3.45-0.04,6.92-0.94,10.45-1
			c3.55-0.06,7,1.09,10.44,1.02c3.46-0.07,6.9-1.02,10.45-1.02c3.55,0,6.99,0.99,10.45,1.02c3.45,0.03,6.89-1.07,10.44-1
			c9.91,0.2,19.82,0.28,29.74,0.33c3.2,0.02,6.39-0.19,9.59-0.29c3.85-0.12,7.63,0.67,11.42,0.91c3.73,0.24,7.54-1.25,11.4-0.91
			c3.49,0.3,6.99,1.14,10.44,0.96c3.15-0.16,6.27-1.04,9.49-0.99c9.91,0.14,19.82,0.28,29.74,0.29c9.59,0.01,19.18-0.15,28.78-0.21
			c4.15-0.03,8.31-0.34,12.41,0.74c1.17,0.31,2.51,0.1,3.76,0c2.86-0.22,5.71-0.73,8.57-0.76c10.87-0.12,21.74-0.09,32.61-0.15
			c1.59-0.01,3.29,0.09,4.76-0.41c4.05-1.37,8.19-1.21,12.35-1.22c4.48-0.01,8.94-0.16,13.33-1.3c1.82-0.47,3.94-0.83,5.68-0.36
			c3.89,1.07,7.53,0.14,11.32-0.3c3.79-0.44,7.67-0.27,11.5-0.26c2.57,0.01,5.07-0.11,7.59-0.8c2.13-0.59,4.4-0.88,6.61-0.91
			c6.72-0.1,13.44-0.14,20.15,0.05c5.15,0.14,10.1,1.49,14.8,3.61c2.04,0.92,4.01,1.99,6.02,2.98c1.5,0.73,3.11,0.93,4.65,0.33
			c3.69-1.42,7.52-1.35,11.36-1.37c13.11-0.07,26.22-0.44,39.32-0.14c11.19,0.26,22.39-0.65,33.57,0.4
			c2.85,0.27,5.75-0.07,8.63-0.02c2.23,0.04,4.59-0.16,6.66,0.49c4.09,1.27,8.18,1.15,12.35,1.15c10.55,0,21.1,0.23,31.66,0.24
			c9.59,0.01,19.18-0.17,28.77-0.22c8.95-0.05,17.91-0.04,26.86-0.04c0.96,0,1.94-0.03,2.87,0.13c2.51,0.43,5,1.3,7.51,1.34
			c2.51,0.05,5.03-0.92,7.56-1.02c2.2-0.09,4.49,0.17,6.63,0.69c3.45,0.85,6.91,1.25,10.45,1.18c4.16-0.08,8.29-0.16,12.36,1.11
			c1.45,0.45,3.26,0.41,4.72-0.01c4.75-1.37,9.4-1.57,14.16-0.12c2.49,0.76,5.07,0.7,7.58-0.04c4.42-1.31,8.76-1.24,13.23-0.05
			c2.1,0.56,4.42,0.32,6.64,0.45c1.02,0.1,1.78-0.35,2.37-1.15c4.16-0.3,8.29-0.54,12.35,0.83c2.18,0.73,4.41,0.4,6.61-0.22
			c4.4-1.25,8.87-1.28,13.25-0.03c2.84,0.81,5.68,0.66,8.56,0.65c4.79-0.01,9.71-0.51,14.35,0.39c5.69,1.1,11.43,1.05,17.07,1.85
			c7.27,1.03,14.53,1.71,21.83,2.36c2.57,0.23,4.94,0.35,7.52-0.03c5.05-0.75,10.22-1.06,15.22,0.49c2.83,0.88,5.67,0.78,8.55,0.79
			c5.1,0.01,10.22-0.39,15.23,1.22c1.42,0.46,3.19,0.29,4.69-0.07c2.88-0.69,5.65-0.79,8.51,0.04c4.09,1.19,8.25,1.06,12.33,0.05
			c2.86-0.71,5.65-0.99,8.5-0.08c3.11,0.99,6.31,0.85,9.51,0.75c3.52-0.11,7.04-0.16,10.55-0.12c1.91,0.02,3.94-0.07,5.71,0.51
			c4.66,1.52,9.4,1.63,14.21,1.62c1.91-0.01,3.96-0.08,5.7,0.56c4.04,1.49,8.16,1.41,12.32,1.38c0.96-0.01,1.94-0.11,2.87,0.06
			c5.36,1,10.69,0.92,16.1,0.23c2.46-0.32,5.11,0.19,7.57,0.76c2.57,0.6,5,0.69,7.55-0.01c4.4-1.21,8.84-1.15,13.27-0.03
			c0.62,0.16,1.22,0.41,1.85,0.51c1.58,0.25,3.2,0.75,4.75,0.6c7.42-0.71,14.54,1.97,21.91,1.71c6.71-0.24,13.43-0.64,19.95,1.66
			c1.16,0.41,2.54,0.39,3.8,0.29c5.51-0.41,10.84,0.6,16.07,2.12c3.41,0.99,6.81,1.67,10.38,1.52c3.57-0.15,7,0.59,10.3,1.92
			c3.6,1.45,7.31,2.27,11.22,2.12c2.95-0.11,5.66,0.96,8.38,1.88c3.36,1.14,6.75,1.81,10.34,1.73c3.84-0.08,7.67,0.24,11.3,1.76
			c0.86,0.36,1.87,0.49,2.82,0.51c7.39,0.12,14.53,1.98,21.79,2.98c2.52,0.35,5.09,0.47,7.65,0.5c7.68,0.08,15.36,0.23,23.03,0.01
			c5.75-0.17,10.82,1.16,14.84,5.36c2.2,2.29,4.8,2.94,7.8,2.98c3.18,0.04,6.37-0.31,9.54,0.62c1.13,0.34,2.5-0.15,3.76-0.19
			c1.57-0.05,3.23-0.33,4.71,0.04c2.25,0.56,4.35,0.64,6.61,0.06c1.17-0.3,2.55-0.17,3.75,0.11c1.93,0.46,3.74,0.36,5.66-0.08
			c1.51-0.35,3.14-0.25,4.71-0.21c1.26,0.03,2.55,0.52,3.77,0.37c13.71-1.66,27.46-0.3,41.18-0.76c4.95,1.67,10.14-0.68,15.1,0.87
			c3.46-0.59,6.9-1.04,10.38,0.13c0.82,0.28,1.88-0.11,2.82-0.26c0.94-0.15,1.96-0.74,2.79-0.54c4.78,1.16,9.49-0.28,14.24-0.19
			c4.16,0.08,8.29-0.18,12.36-1.28c2.12-0.57,4.42-0.56,6.64-0.67c3.83-0.18,7.62-0.3,11.37-1.47c3.57-1.11,14.44-0.82,18.09,0
			c1.24,0.28,2.45,0.76,3.69,1.01c2.25,0.44,4.46,0.25,6.54-0.82c1.7-0.88,3.4-1.78,5.08-2.72c3.18-1.77,6.58-2.29,10.18-2.18
			c2.62,0.08,5.07,0.63,7.36,1.87c6.65,3.62,10.51,9.13,11.33,16.7c0.24,2.19-2.07,4.34-4.31,3.97c-0.62-0.1-1.22-0.38-1.82-0.61
			c-1.61-0.6-3.14-0.47-4.54,0.53c-0.78,0.56-1.51,1.19-2.21,1.83c-2.53,2.32-5.45,3.24-8.84,2.53c-3.06-0.64-5.58,0.37-8.01,2.23
			c-6.89,5.3-14.6,9.02-22.69,12.23c-7.41,2.94-14.42,6.88-21.61,10.38c-2.65,1.29-4.73,3.25-6.61,5.46
			c-3.39,3.97-7.28,7.17-12.5,8.45c-0.91,0.22-1.76,0.74-2.59,1.22c-9.67,5.58-19.58,10.73-29.39,16.05
			c-4.48,2.43-8.74,5.21-13.37,7.41c-4.1,1.95-8.09,3.67-12.68,3.91c-1.89,0.1-3.83,0.42-5.63,1.03c-4.84,1.63-9.67,3.33-14.41,5.23
			c-5.03,2.02-9.96,4.3-14.94,6.46c-0.29,0.13-0.57,0.29-0.86,0.42c-4.9,2.19-10.27,2.99-14.88,6.25c-4.38,3.1-9.59,5.07-14.51,7.39
			c-5.76,2.72-11.55,5.37-17.4,7.89c-5.04,2.17-9.67,4.85-13.73,8.61c-5.16,4.77-10.85,8.8-16.87,12.51
			c-6.01,3.71-12.31,6.69-18.66,9.7c-9.2,4.36-18.47,8.68-27.1,14.12c-3.03,1.91-6.15,3.45-9.52,4.35c-2.61,0.7-4.68,1.95-6.43,3.9
			c-5.01,5.58-10.9,9.85-18.16,12.02c-1.91,0.57-3.41,1.68-4.89,2.92c-3.99,3.33-8.6,5.46-13.54,6.99
			c-3.66,1.13-7.38,2.18-10.37,4.79c-0.24,0.21-0.54,0.34-0.84,0.47c-3.53,1.49-7.16,2.78-10.56,4.51c-3.4,1.74-6.51,4.04-9.87,5.86
			c-2.24,1.21-4.7,1.98-7.06,2.98c-2.05,0.87-4.27,1.5-6.08,2.73c-3.76,2.57-7.89,4.17-12.2,5.43c-3.68,1.08-7.23,2.38-10.49,4.55
			c-3.76,2.5-8.18,3.52-12.52,4.65c-1.84,0.48-3.69,1.04-5.39,1.85c-4.04,1.93-7.99,3.96-12.52,4.67c-1.81,0.29-3.64,1.32-5.17,2.42
			c-3.99,2.87-8.41,4.49-13.16,5.5c-3.44,0.73-6.71,2.02-9.8,3.78c-1.94,1.1-4,2.1-6.13,2.7c-3.14,0.87-5.93,2.29-8.59,4.12
			c-1.84,1.26-3.76,2.56-5.85,3.24c-4.6,1.51-8.79,3.66-12.8,6.38c-4.27,2.89-9.11,4.74-14.16,5.68c-5.52,1.03-10.12,3.73-14.57,6.9
			c-2.07,1.48-4.12,3.07-6.37,4.24c-5.39,2.78-11.07,5.02-15.53,9.36c-0.66,0.65-1.62,1.02-2.49,1.42
			c-5.79,2.73-11.32,5.81-16.39,9.84c-3.51,2.8-8.01,3.99-12.41,4.84c-2.9,0.56-5.49,1.62-7.96,3.15c-0.27,0.17-0.54,0.34-0.8,0.52
			c-3.75,2.6-8.55,2.79-12.33,5.15c-3.54,2.21-6.98,4.59-10.9,5.98c-3.9,1.38-8.05,2.03-11.95,3.41c-3.9,1.38-7.56,3.44-11.44,4.88
			c-3.59,1.33-7.41,2.05-10.51,4.5c-0.25,0.2-0.54,0.37-0.84,0.46c-8.27,2.56-16.06,6.24-23.8,10.05c-1.13,0.56-2.4,0.95-3.65,1.16
			c-6.07,1.02-11.44,3.85-17.05,6.17c-5.68,2.36-10.73,5.63-15.61,9.18c-4.15,3.01-8.17,6.11-13.13,7.75
			c-1.5,0.5-3.08,1.16-4.23,2.19c-3.38,3.01-7.25,5.21-11.17,7.38c-1.37,0.76-2.57,1.93-3.61,3.12c-3.47,3.93-7.84,6.56-12.53,8.68
			c-3.82,1.72-7.33,3.78-10.54,6.53c-3.17,2.71-7.01,4.49-11,5.71c-3.41,1.04-6.5,2.57-9.4,4.65c-1.8,1.29-3.87,2.26-5.91,3.17
			c-3.79,1.69-7.66,3.17-10.69,6.2c-0.88,0.88-2.1,1.48-3.25,2.01c-5.53,2.56-10.72,5.65-15.59,9.34c-1.77,1.34-3.76,2.56-5.84,3.25
			c-5.52,1.83-10.28,5.04-15.36,7.69c-3.66,1.92-7.7,3.12-11.41,4.97c-3.42,1.7-6.58,3.92-9.93,5.77c-1.67,0.92-3.47,1.66-5.28,2.28
			c-2.13,0.72-4.13,1.57-5.99,2.92c-4.99,3.63-10.68,5.7-16.62,7.17c-0.93,0.23-2.08,0.07-2.8,0.56
			c-5.58,3.83-12.47,4.93-18.02,8.79c-0.79,0.55-1.55,1.14-2.36,1.65c-4.09,2.58-8.74,3.88-13.13,5.78
			c-4.08,1.77-7.3,5.22-11.73,6.43c-3.77,1.03-7,3.03-10.1,5.35c-1.78,1.34-3.65,2.87-5.73,3.45c-6.86,1.93-12.76,5.76-18.98,8.97
			c-1.41,0.72-2.96,1.2-4.47,1.71c-2.74,0.93-5.37,2.02-7.69,3.82c-1.25,0.97-2.66,1.79-4.1,2.46c-4.1,1.9-7.83,4.27-11.04,7.5
			c-3.23,3.24-7.35,5.2-11.58,6.61c-2.81,0.94-5.22,2.33-7.6,3.94c-3.97,2.68-7.97,5.28-12.71,6.58c-1.79,0.49-3.53,1.6-4.97,2.81
			c-2.98,2.52-6.28,4.33-9.93,5.67c-3.31,1.21-6.33,2.95-9.27,4.94c-3.15,2.14-6.63,3.87-10.14,5.38c-3.82,1.63-7.4,3.65-11.07,5.56
			c-6.25,3.27-11.96,7.37-18.03,10.83c-6.92,3.94-14.05,7.54-20.91,11.64c-3.25,1.94-7.14,2.76-10.56,4.46
			c-3.42,1.7-6.55,3.97-9.93,5.76c-2.55,1.35-5.06,2.66-7.26,4.59c-3.87,3.39-8.16,6.12-13.16,7.64c-4.99,1.51-8.74,5.29-13.36,7.46
			c-4.61,2.17-9.73,3.21-13.92,6.33c-3.1,2.31-6.5,4-10.24,5.11c-1.8,0.53-3.57,1.49-5.1,2.6c-4.44,3.23-9.23,5.62-14.47,7.31
			c-3,0.97-5.77,2.71-8.6,4.18c-1.42,0.73-2.65,1.98-4.14,2.38c-6.24,1.71-11.76,4.88-17.27,8.1c-0.83,0.48-1.69,0.96-2.6,1.22
			c-7.42,2.07-14.3,5.44-21.25,8.66c-1.99,0.92-4.25,1.42-6.44,1.67c-7.74,0.89-14.85,3.37-21.5,7.44
			c-4.62,2.83-9.33,5.61-14.89,6.38c-0.93,0.13-1.88,0.46-2.72,0.9c-3.67,1.93-7.15,4.38-11,5.78c-3.68,1.34-6.88,3.24-10.1,5.35
			c-2.65,1.74-5.57,3.2-8.55,4.3c-3.3,1.22-6.68,2.15-9.53,4.36c-2.55,1.97-5.45,3.3-8.54,4.25c-5.47,1.67-11.1,2.97-15.85,6.41
			c-6.85,1.89-12.39,6.59-19.09,8.82c-1.18,0.39-2.23,1.24-3.27,1.96c-4.47,3.09-8.77,6.44-14.16,7.9
			c-1.18,0.32-2.23,1.23-3.27,1.95c-3.94,2.73-7.8,5.55-12.22,7.55c-1.7,0.77-3.13,2.17-4.64,3.35c-4.03,3.17-8.21,6.09-12.98,8.09
			c-2.66,1.11-5.05,2.68-7.39,4.39c-2.82,2.06-5.64,4.14-9.04,5.36c-1.72,0.62-3.29,1.98-4.6,3.33c-3.39,3.51-7.28,6.21-11.71,8.21
			c-2.65,1.2-4.96,2.86-7.02,4.93c-3.65,3.68-8.02,6.28-12.82,8.21c-1.46,0.59-2.87,1.39-4.17,2.29c-3.68,2.54-7.3,5.16-11.32,7.2
			c-1.67,0.84-3.18,2.16-4.48,3.53c-3.59,3.78-7.77,6.62-12.53,8.68c-2.36,1.02-4.45,2.4-6.44,4.08c-2.68,2.25-5.51,4.48-8.62,6.02
			c-4.62,2.28-8.76,5.22-12.96,8.13c-3.96,2.75-8.17,5-12.94,6.04c-1.23,0.27-2.49,0.64-3.59,1.23c-3.66,1.96-7.29,3.98-10.85,6.12
			c-1.63,0.98-3.19,2.14-4.55,3.46c-3.03,2.95-6.53,5.11-10.36,6.83c-2.92,1.31-5.57,2.98-8.05,5.1c-4.17,3.55-9.14,5.92-14.32,7.62
			c-3.08,1.01-6.01,2.13-8.61,4.08c-0.77,0.57-1.54,1.25-2.42,1.54c-7.76,2.55-13.44,8.47-20.31,12.45
			c-0.52,0.3-0.83,0.94-1.24,1.42c-716.63,0-1433.27,0-2149.9,0c-0.17-0.15-0.43-0.28-0.48-0.47c-0.08-0.3-0.02-0.63-0.02-0.95
			C68.84,2303.2,68.84,1638.07,68.84,972.95z"/>
		<path class="st1" d="M3189.07,2048.62c-0.59,0.8-1.35,1.24-2.37,1.15C3187.27,2048.93,3188.01,2048.44,3189.07,2048.62z"/>
	</g>
</g>
<g id="chat_xA0_Image_1_">
	<g>
		<path d="M68.84,960.22c2.23-0.38,4.32-1.1,6.28-2.25c6.89-4.05,13.8-8.09,20.7-12.12c2.48-1.45,4.99-2.87,7.48-4.32
			c3.59-2.09,7.18-4.18,10.76-6.27c0.55-0.32,1.05-0.73,1.6-1.06c14-8.37,27.9-16.91,42.05-25.02c7.76-4.45,15.95-8.15,23.94-12.19
			c17.99-9.11,35.68-18.72,52.86-29.31c9.79-6.03,19.55-12.17,29.94-17.21c7.48-3.63,14.86-7.48,22.11-11.55
			c5.85-3.28,11.58-6.82,17.11-10.62c7.66-5.25,15.38-10.37,23.64-14.65c2.27-1.17,4.51-2.45,6.62-3.89
			c6.63-4.52,13.67-8.31,20.89-11.76c6.95-3.31,13.59-7.14,20.09-11.24c9.47-5.98,19.03-11.79,29.15-16.65
			c3.74-1.79,7.24-4.1,10.88-6.09c7.01-3.84,14.05-7.63,21.07-11.46c3.09-1.68,6.16-3.4,9.21-5.14c6.67-3.8,13.27-7.73,20-11.42
			c7.58-4.16,15.04-8.47,22.26-13.25c9.06-6.01,18.34-11.68,27.55-17.46c1.89-1.19,3.85-2.3,5.86-3.27
			c10.08-4.87,20.19-9.68,30.29-14.5c14.44-6.88,28.92-13.66,43.32-20.64c6.33-3.07,12.38-6.72,18.72-9.76
			c11.85-5.67,23.02-12.55,34.45-18.96c11.17-6.25,22.54-12.16,33.51-18.73c8.79-5.27,17.8-10.11,26.8-14.99
			c5.06-2.75,10.19-5.34,15.34-7.92c8.89-4.45,16.66-10.75,25.42-15.4c3.39-1.8,6.62-3.93,10.11-5.5c7.36-3.33,13.9-7.85,20.1-12.94
			c1.47-1.21,3.05-2.34,4.73-3.22c8.76-4.61,17.18-9.82,25.82-14.65c6.97-3.9,14.13-7.46,21.24-11.1c2.29-1.17,4.57-2.29,6.31-4.27
			c0.41-0.47,0.94-0.92,1.5-1.18c9.88-4.62,18.46-11.45,28.02-16.6c3.93-2.12,8.02-3.96,11.89-6.18c4.44-2.54,8.61-5.55,13.08-8.01
			c5.34-2.94,10.52-6.06,15.1-10.1c8.6-4.3,15.6-11.15,24.3-15.31c2.29-1.09,4.4-2.62,6.46-4.13c8.75-6.45,17.97-12.19,27.15-17.98
			c4.61-2.91,9.46-5.36,14.46-7.52c4.4-1.9,8.62-4.18,12.95-6.19c7.28-3.37,13.83-7.95,20.94-11.57c2.56-1.3,5.05-2.69,7.72-3.77
			c1.76-0.71,3.65-1.49,5.01-2.75c2.65-2.45,5.78-3.89,8.93-5.47c6-3.01,11.9-6.22,17.75-9.5c3.61-2.02,6.74-4.8,10.43-6.78
			c4.23-2.27,8.46-4.49,12.92-6.28c5.64-2.26,11.09-4.87,16.18-8.29c3.7-2.49,7.71-4.55,11.65-6.66
			c9.59-5.12,19.27-10.05,28.81-15.26c4.47-2.44,8.66-5.38,12.99-8.06c2.71-1.68,5.48-3.27,8.2-4.94c5.17-3.16,11.09-4.97,15.8-8.99
			c1.16-0.99,2.88-1.32,4.35-1.92c5.33-2.17,10.7-4.24,15.99-6.5c3.82-1.63,7.65-3.3,10.33-6.76c0.77-0.99,1.8-1.9,2.9-2.47
			c7.12-3.63,13.5-8.55,20.93-11.65c10.05-4.19,19.37-9.81,28.94-14.95c5.61-3.01,11.18-6.12,17.42-7.87
			c3.03-0.85,5.91-2.46,8.64-4.07c7.45-4.41,15.17-8.24,23.22-11.42c5.08-2,9.89-4.46,14.19-7.93c1.71-1.38,3.74-2.52,5.81-3.27
			c4.56-1.64,8.71-3.93,12.7-6.66c3.16-2.17,6.55-4,9.87-5.92c1.66-0.96,3.31-2.04,5.11-2.61c8.03-2.54,14.93-7.19,22.07-11.43
			c4.39-2.61,9-4.85,13.47-7.32c9.23-5.11,18.59-10,27.84-15.06c8.39-4.6,16.89-9.09,24.78-14.6c8.41-5.88,17.75-10.16,26.77-14.98
			c4.8-2.56,9.52-5.25,14.28-7.88c1.4-0.77,2.75-1.68,4.21-2.28c10.98-4.52,21.05-10.72,31.26-16.68c1.37-0.8,2.87-1.39,4.32-2.05
			c1.75-0.79,3.72-1.27,5.22-2.39c6.73-5.01,14.71-7.73,21.76-12.14c4.37-2.74,9.39-4.07,14.33-5.4c3.51-0.95,6.6-2.27,8.91-5.21
			c0.77-0.98,1.81-2.06,2.94-2.4c4.96-1.5,8.84-5.06,13.66-6.8c3.32-1.2,6.47-2.75,9.15-5.13c0.95-0.84,2.01-1.6,3.12-2.22
			c10.61-5.89,21.23-11.79,31.89-17.6c5.6-3.05,10.93-6.64,17.11-8.59c1.48-0.47,2.73-1.63,4.11-2.41c2.22-1.26,4.45-2.51,6.72-3.68
			c1.13-0.59,2.44-0.85,3.52-1.5c4.37-2.64,8.51-5.75,13.08-7.99c4.58-2.24,9.44-3.92,13.71-6.82c1.58-1.08,3.27-2,4.92-2.98
			c3.66-2.16,7.5-3.21,11.86-2.94c10.86,0.66,21.73,0.52,32.53-1.09c0.94-0.14,1.93-0.19,2.87-0.05
			c14.31,2.17,28.73,0.73,43.09,1.44c7.29-0.81,14.67-0.22,21.93-1.86c4.7-1.07,9.63-0.74,14.27,0.56
			c4.79,1.34,9.45,1.38,14.21,0.25c4.12-0.98,8.24-1.11,12.36-0.12c2.52,0.6,5.03,0.77,7.61,0.49c8.59-0.93,17.18-1.3,25.81-0.41
			c2.49,0.26,5.09-0.3,7.61-0.69c5.44-0.85,10.82-1.05,16.14,0.66c1.87,0.6,3.79,0.79,5.65,0.11c3.45-1.24,6.95-0.9,10.44-0.45
			c4.77,0.62,9.54,0.85,14.35,0.89c2.89,0.02,5.7,0.32,8.48-0.87c1.13-0.49,2.49-0.56,3.75-0.61c3.83-0.13,7.7-0.54,11.48-0.15
			c6.73,0.7,13.4-0.2,20.09-0.21c6.72-0.01,13.43,0.5,20.15,0.55c5.74,0.04,11.45,1.37,17.22,0.36c0.9-0.16,1.95,0.03,2.84,0.31
			c4.99,1.61,10.17,0.9,15.25,1.3c2.92,0.23,5.72-0.44,8.46-1.41c3.09-1.09,6.27-1.17,9.48-0.71c13.67,1.96,27.42,1.89,41.18,1.85
			c7.99-0.02,15.98,0.33,23.97,0.32c6.07-0.01,12.14-0.36,18.22-0.48c3.51-0.07,7.06-0.32,10.5,0.66c3.82,1.09,7.6,0.76,11.4-0.06
			c1.56-0.33,3.17-0.54,4.68-1.04c2.84-0.93,5.63-1.03,8.49-0.17c1.22,0.37,2.5,0.55,3.74,0.85c2.52,0.62,5.05,0.76,7.61,0.29
			c4.81-0.88,9.55-0.59,14.26,0.69c4.37,1.19,8.83,1.3,13.33,1.23c11.19-0.18,22.39-0.31,33.59-0.27c4.14,0.01,8.3,0.96,12.42,0.76
			c4.14-0.21,8.25-0.92,12.43-0.58c0.32,0.03,0.65,0.06,0.96,0c10.16-1.87,19.68,1.21,29.1,4.15c4.89,1.53,9.57,1.8,14.01-0.18
			c4.04-1.81,7.95-2.07,12.13-1.44c3.48,0.52,6.98,0.89,10.44,1.48c2.57,0.44,5.09,0.66,7.54-0.39c2.42-1.03,4.93-1.15,7.52-1.13
			c8.32,0.05,16.63-0.08,24.95-0.02c2.21,0.02,4.49,0.2,6.62,0.77c6.29,1.67,12.57,1.71,19.01,0.97c8.88-1.02,17.79-1.82,26.76-0.94
			c1.87,0.18,3.82-0.21,5.7-0.51c3.54-0.57,6.99-0.67,10.32,0.98c0.85,0.42,1.85,0.88,2.73,0.81c5.12-0.4,10.15,1.08,15.3,0.5
			c3.79-0.43,7.65-0.32,11.48-0.41c1.6-0.04,3.24,0.24,4.79-0.03c5.1-0.89,10.18-0.35,15.29-0.19c9.91,0.32,19.83,0.22,29.74,0.32
			c3.2,0.03,6.41-0.02,9.59,0.28c3.53,0.33,6.99,0.36,10.51-0.16c2.17-0.32,4.5-0.31,6.66,0.08c4.73,0.85,9.48,1.27,14.28,1.57
			c5.73,0.36,11.42,1.36,17.14,2.01c2.54,0.29,5.09,0.53,7.64,0.57c5.75,0.1,11.51,0.24,17.26,0.04c4.52-0.16,8.87-0.07,13.15,1.77
			c2.73,1.17,5.64,0.81,8.3-0.78c1.98-1.19,4.12-1.62,6.45-1.37c1.58,0.17,3.22,0.33,4.78,0.11c3.58-0.49,7.08-0.04,10.42,1.08
			c6.24,2.09,12.67,2.07,18.98,1.39c8.93-0.96,17.82-1.49,26.8-1.16c6.7,0.24,13.39,0.13,20.07,1.07c4.4,0.62,8.93,0.33,13.41,0.47
			c1.91,0.06,3.82,0.19,5.74,0.27c2.55,0.11,5.09,0.24,7.64,0.31c1.28,0.03,2.61-0.32,3.82-0.07c6.36,1.36,12.76,0.35,19.13,0.52
			c10.54,0.27,21.1,0.21,31.61,1.41c2.52,0.29,5.13,0.26,7.64-0.06c3.86-0.48,7.63-0.2,11.46,0.23c6.03,0.68,12.09,1.29,18.15,1.37
			c8.61,0.11,17.24,1.22,25.86-0.15c1.56-0.25,3.2,0.02,4.79-0.1c5.18-0.37,10.23,0.14,15.12,1.94c2.79,1.03,5.59,1.2,8.47,0.33
			c5.33-1.61,10.75-1.54,16.16-0.6c4.15,0.72,8.23,0.8,12.39,0.01c3.22-0.62,13.09,0.08,18.1,1.12c2.55,0.53,5.01,0.6,7.6,0.45
			c5.09-0.3,10.22-0.87,15.27,0.5c0.61,0.16,1.3,0.29,1.9,0.16c6.66-1.44,13.39-0.14,20.09-0.41c8.26-0.33,16.56-0.81,24.88,0.53
			c4.66,0.75,9.55,0.03,14.34-0.05c1.92-0.03,3.9-0.48,5.73-0.12c6.97,1.4,14.02,0.63,21.03,1.03c2.23,0.13,4.47,0.22,6.68,0.54
			c2.25,0.33,4.47,0.46,6.67-0.09c3.81-0.96,7.61-0.73,11.43-0.08c3.15,0.53,6.3,1.04,9.46,1.5c5.39,0.79,10.8,1.02,16.11-0.32
			c2.25-0.57,4.39-0.8,6.6-0.16c4.39,1.26,8.81,1.45,13.3,0.6c1.24-0.24,2.61-0.52,3.8-0.24c5.93,1.39,12.16,0.7,17.98,2.77
			c3.11,1.1,6.27,0.92,9.45,0.05c7.2-1.98,14.53-2.09,21.89-1.3c5.73,0.62,11.43,1.45,17.21,0.62c0.94-0.14,1.93-0.08,2.87,0.08
			c4.8,0.83,9.56,0.48,14.32-0.32c2.85-0.48,5.71-0.72,8.54,0.24c0.89,0.3,1.97,0.64,2.81,0.41c4.3-1.21,8.1-0.42,11.66,2.21
			c0.69,0.51,1.86,0.58,2.78,0.49c2.23-0.22,4.47-0.47,6.63-1.03c3.12-0.8,6.2-1.55,9.46-1.2c0.63,0.07,1.28,0.03,1.92-0.04
			c18.69-1.93,25.11-2.19,42.98-1.76c1.92,0.05,3.84-0.03,5.75-0.17c3.85-0.28,7.62-0.28,11.32,1.22c2.72,1.1,5.66,0.73,8.55,0.63
			c3.83-0.13,7.66-0.07,11.49-0.13c2.23-0.03,4.57,0.27,6.68-0.27c4.88-1.24,9.57-0.73,14.11,1.03c2.8,1.09,5.48,1.52,8.42,0.98
			c1.55-0.28,3.21-0.4,4.77-0.21c5.73,0.7,11.43,1.18,17.2,0.25c3.18-0.51,6.2,1.64,9.47,0.86c2.8-0.67,5.58-1.56,8.42-1.82
			c3.17-0.28,6.44-0.29,9.57,0.19c8.27,1.27,16.58,1.13,24.87,0.82c9.61-0.37,19.17,0.46,28.76,0.63c4.46,0.08,8.92,0.37,13.39,0.79
			c5.36,0.51,10.86,0.31,16.23-0.27c3.9-0.42,7.63-0.37,11.4,0.54c1.56,0.37,3.14,0.64,4.69,1.03c2.84,0.71,5.73,0.96,8.55,0.16
			c5.34-1.52,10.81-0.86,16.22-1.3c2.63-0.21,5.11,0.26,7.4,1.56c3.16,1.81,6.54,2.33,10.16,2.22c5.75-0.17,11.51-0.06,17.27-0.13
			c1.59-0.02,3.24-0.03,4.76-0.43c3.78-0.99,7.48-1.35,11.37-0.45c1.42,0.33,3.23-0.09,4.63-0.71c2.79-1.23,5.49-1.34,8.42-0.7
			c1.85,0.4,3.82,0.37,5.72,0.31c4.17-0.12,8.31-0.14,12.4,0.88c1.23,0.3,2.53,0.42,3.8,0.39c5.41-0.12,10.83-0.27,16.24-0.53
			c2.6-0.12,5.1,0.23,7.58,0.9c5,1.36,9.96,1.76,15.16,0.68c3.72-0.77,7.64-0.47,11.4-1.41c0.91-0.23,1.94-0.33,2.86-0.18
			c5.07,0.86,10.24,0.37,15.3,1c5.76,0.72,11.5,0.74,17.24,0.51c6.81-0.27,13.39,0.42,19.79,2.9c1.75,0.68,3.73,1.23,5.56,1.14
			c7.99-0.42,15.97-0.19,23.95-0.01c3.83,0.09,7.65-0.09,11.44-1.02c3.77-0.93,7.62-0.97,11.42-0.04c2.55,0.63,5.01,0.42,7.58,0.03
			c2.49-0.38,5.09-0.19,7.63-0.08c4.56,0.19,8.93-0.36,12.99-2.62c1.11-0.62,2.27-1.19,3.47-1.64c3.67-1.39,7.39-1.76,11.28-0.77
			c4.02,1.02,8.11,1.84,12.21,2.48c3.18,0.49,6.25,0.93,9,2.9c1.21,0.87,2.98,1.25,4.52,1.33c4.47,0.23,8.97,0.49,13.42,0.21
			c9.61-0.61,19.18-0.2,28.76,0.38c2.55,0.16,5.12,0.4,7.65,0.2c3.85-0.3,7.64-0.46,11.44,0.52c1.19,0.31,2.66,0.42,3.78,0.01
			c4.36-1.57,8.86-1,13.31-1.11c4.48-0.11,8.96-0.06,13.44,0c3.33,0.05,5.39,1.7,6.19,4.88c0.31,1.23,0.64,2.51,0.61,3.76
			c-0.11,5.43-0.34,10.85-0.53,16.27c1.7,4.87,2.49,9.95,2.79,15.04c0.72,12.12,1.25,24.23,0.52,36.41
			c-0.57,9.54-0.5,19.14-0.82,28.72c-0.21,6.34-0.41,12.81,1.59,19.05c0.37,1.15,0.24,2.55,0,3.77c-1.31,6.67-0.53,13.39-0.41,20.07
			c0.06,3.22,0.16,6.36-0.56,9.51c-0.28,1.24-0.54,2.56-0.39,3.8c0.37,3.16,1.26,6.29,1.41,9.45c0.15,3.15-1.2,6.31-0.22,9.51
			c1,3.25-0.82,6.31-0.6,9.5c0.22,3.18,0.68,6.35,0.78,9.53c0.05,1.57-0.27,3.21-0.74,4.72c-2.31,7.45-2.86,15.05-1.97,22.76
			c0.56,4.85-1.18,9.56-0.95,14.3c0.23,4.79,0.97,9.52-0.15,14.3c-0.36,1.53-0.44,3.19-0.33,4.77c0.22,3.18,0.92,6.34,0.94,9.51
			c0.02,2.83-1.17,5.58-0.5,8.54c0.34,1.49-0.08,3.15-0.15,4.73c-0.09,1.9-0.41,3.84-0.19,5.7c0.34,2.9,0,5.72-0.26,8.59
			c-0.56,6.03-1.24,12.1,0.24,18.12c0.08,0.31,0.13,0.64,0.12,0.95c-0.29,6.42,0.06,12.75,2.02,18.96c0.35,1.1,0.07,2.62-0.41,3.72
			c-1.47,3.32-1.68,6.77-1.69,10.32c-0.02,4.48-0.26,8.95-0.39,13.42c-0.03,0.96-0.12,1.95,0.08,2.87c2.3,10.5,1.42,21.05-0.03,31.5
			c-1.32,9.52-1.68,19.09-2.46,28.63c-0.47,5.71-0.53,11.53,1.21,17.15c0.49,1.58,0.36,3.13-0.01,4.72
			c-0.43,1.86-1.39,3.95-0.91,5.59c1.48,5.12,0.59,10.1,0.11,15.16c-0.25,2.59,0.39,5.09,1.66,7.39c1.12,2.03,1.39,4.19,1.11,6.49
			c-0.89,7.32-1.12,14.66-0.77,22.03c0.05,0.96,0.2,1.95,0,2.87c-1.26,6.02-0.99,12.07-0.62,18.14c0.12,1.91,0.22,3.92-0.26,5.73
			c-1.51,5.69-0.64,11.46-0.94,17.19c-0.07,1.26-0.07,2.62,0.3,3.8c1.2,3.8,0.78,7.6,0.38,11.42c-0.47,4.45-1.13,8.88-0.74,13.39
			c0.22,2.6-0.48,5.07-1.51,7.45c-0.8,1.84-0.88,3.79-0.13,5.61c1.93,4.68,1.5,9.44,0.54,14.17c-0.58,2.87-1.06,5.62-0.05,8.48
			c0.87,2.49,0.69,5.1,0.23,7.61c-0.64,3.48-0.7,6.98-1.01,10.48c-0.26,2.92-0.46,5.72,0.72,8.47c0.25,0.58,0.48,1.22,0.49,1.84
			c0.12,6.06,0.49,12.14,0.16,18.18c-0.16,2.88-0.53,5.65,0.19,8.51c0.64,2.54,0.35,5.07-0.83,7.48c-1.18,2.4-1.42,4.95-0.63,7.48
			c2.35,7.5,1.84,15.19,1.48,22.83c-0.21,4.48-0.84,8.89,0.22,13.35c0.36,1.51,0.28,3.22,0.03,4.77c-0.71,4.43-0.71,8.89-1.06,13.33
			c-0.18,2.24-0.45,4.36,0.05,6.61c0.83,3.77,0.65,7.54-0.05,11.4c-0.85,4.68-1.09,9.48-1.43,14.24c-0.25,3.51-0.19,7.03-0.34,10.55
			c-0.11,2.57-0.15,5.14,0.8,7.58c0.97,2.5,1.01,4.98,0.3,7.52c-0.09,0.31-0.16,0.63-0.16,0.94c-0.25,11.8-1.6,23.59,0.47,35.39
			c1.05,5.97,1.4,12.07,2.04,18.12c0.34,3.22,0.04,6.38-0.74,9.52c-1.8,7.23-2.12,14.47-0.72,21.85c0.65,3.42,1.05,7.08,0.56,10.49
			c-1.36,9.55-0.83,19.14-1.17,28.71c-0.23,6.38-0.41,12.79-0.04,19.16c0.28,4.75,1.43,9.46,2.26,14.17
			c0.22,1.25,0.77,2.45,0.98,3.7c0.62,3.77-1.44,7.58,0.22,11.38c1.63,3.71,0.29,7.6,0.38,11.41c0.04,1.87-0.63,3.76-0.9,5.65
			c-0.46,3.16-1.09,6.32-1.22,9.49c-0.27,6.38-0.67,12.81-0.26,19.16c0.39,6.03,1.72,12.01,2.67,18c0.35,2.21,1.2,4.41,1.13,6.59
			c-0.29,8.3-0.28,16.61-0.76,24.89c-0.65,11.5-0.79,22.98,0.18,34.46c0.13,1.58,0.44,3.24,0.12,4.75c-0.66,3.2-0.72,6.26,0.2,9.45
			c0.42,1.44,0.23,3.2-0.13,4.7c-1.23,5.12-0.57,10.18,0.2,15.25c0.24,1.57,1.21,3.25,0.87,4.64c-0.87,3.59,0.69,6.94,0.48,10.46
			c-0.32,5.39-0.26,10.83-0.05,16.23c0.1,2.51,0.81,5.04,1.52,7.48c0.74,2.54,0.99,5.05,0.21,7.55c-1.36,4.37-1.23,8.81-1.07,13.31
			c0.17,4.79,0.03,9.59-0.09,14.39c-0.08,3.54-0.12,7.07,1.13,10.43c1.39,3.72,1.59,7.58,1.06,11.36
			c-1.09,7.69,0.22,15.3,0.23,22.94c0,2.87,0.31,5.78-0.05,8.61c-1.25,9.61-0.39,19.15,0.61,28.7c0.1,0.95,0.23,1.91,0.37,2.86
			c0.52,3.51,0.68,6.97-0.39,10.45c-0.45,1.48-0.77,3.26-0.39,4.7c0.92,3.49,0.52,6.93,0.48,10.44c-0.06,4.78,0.08,9.65,0.89,14.35
			c1.27,7.35,0.61,14.67,0.59,22.01c0,0.64-0.13,1.27-0.17,1.91c-0.32,5.08-1.57,10.1-0.96,15.24c0.57,4.75,1.09,9.51,1.65,14.26
			c0.11,0.95,0.53,1.92,0.41,2.83c-1.46,10.89,0.82,21.61,1.44,32.41c0.15,2.62-0.26,5.08-1.08,7.53c-0.53,1.57-0.53,3.19,0.13,4.69
			c1.2,2.75,1.56,5.51,0.63,8.4c-0.71,2.23-0.32,4.4,0.36,6.59c1.45,4.66,1.78,9.34,0.78,14.19c-0.64,3.1-0.61,6.34-0.99,9.51
			c-0.36,2.96,0.45,5.73,1.34,8.46c0.72,2.19,1,4.29,0.38,6.56c-0.33,1.2-0.31,2.53-0.24,3.79c0.27,4.78,0.53,9.57,0.98,14.33
			c0.3,3.21,0.54,6.29-1.03,9.32c-0.55,1.06-0.63,2.5-0.55,3.74c0.32,4.72-0.58,9.58,1.9,14.09c0.7,1.28,0.48,3.13,0.49,4.71
			c0.04,6.4,0.02,12.8-0.01,19.19c-0.02,3.85,0.07,7.64,1.25,11.39c0.66,2.1,0.82,4.4,0.9,6.62c0.14,3.83,0.07,7.67,0.03,11.51
			c-0.01,1.27,0.12,2.68-0.35,3.8c-1.84,4.32-0.66,8.86-1.18,13.27c-0.18,1.53,0.18,3.17,0.56,4.69c0.4,1.6,0.66,3.15,0.06,4.7
			c-0.86,2.23-0.81,4.36,0.35,6.46c0.98,1.75,1.1,3.58,0.74,5.56c-0.39,2.18-0.48,4.42-0.68,6.64c-0.11,1.26,0.18,2.68-0.3,3.77
			c-1.78,4.04-1.82,8.03-0.5,12.17c0.27,0.86,0.06,1.89-0.02,2.83c-0.25,2.86-0.75,5.71-0.79,8.56c-0.12,9.91-0.09,19.82-0.12,29.73
			c0,0.96-0.07,1.93,0.03,2.88c0.4,4.13,1.29,8.28,1.14,12.39c-0.15,4.11-1.35,8.18-2.03,12.28c-0.16,0.94-0.27,1.94-0.12,2.87
			c1.44,8.59,0.67,17.24,0.82,25.86c0.19,10.87,0.48,21.74,0.05,32.62c-0.28,7.02,0.53,14.07,0.25,21.09
			c-0.52,12.77-0.38,25.57-1.54,38.32c-0.23,2.53,0.04,5.11-0.02,7.67c-0.24,10.53-0.57,21.05-0.77,31.58
			c-0.09,4.79,0.23,9.56,0.04,14.37c-0.53,13.41-0.35,26.85-1.02,40.24c-0.37,7.34-0.66,14.65-0.65,22c0,2.21-0.62,4.41-0.92,6.62
			c-0.88,6.31-2.05,12.54-0.54,19.02c1.18,5.08,0.19,10.15-2.49,14.81c-1.3,2.26-2.82,4.3-4.92,5.8c-2.34,1.67-4.74,3.28-7.26,4.65
			c-9.27,5.04-18.59,9.98-27.91,14.92c-2.26,1.2-4.53,2.45-6.93,3.27c-5.47,1.86-10.61,4.43-15.91,6.67
			c-8.85,3.74-17.41,8.07-25.99,12.36c-1.14,0.57-2.28,1.24-3.5,1.57c-7.2,1.96-13.27,6.23-19.77,9.6
			c-10.5,5.44-20.96,10.97-31.44,16.45c-3.4,1.78-6.97,3.29-10.17,5.37c-6.2,4.03-12.97,6.82-19.62,9.92
			c-6.95,3.24-13.6,7.14-20.57,10.32c-13.96,6.37-27.56,13.5-41.61,19.7c-7.58,3.34-15.14,6.83-22.39,10.9
			c-2.78,1.56-5.77,2.76-8.64,4.16c-3.16,1.54-6.3,3.12-9.44,4.7c-3.99,2.01-7.98,4.05-11.97,6.07c-2.28,1.16-4.72,2.08-6.82,3.51
			c-8.25,5.62-17.51,9.24-26.45,13.49c-3.76,1.79-7.53,3.47-10.92,5.97c-1.79,1.32-3.82,2.35-5.86,3.25
			c-4.41,1.93-8.67,4.02-12.4,7.18c-1.66,1.4-3.87,2.21-5.92,3.07c-5.91,2.48-11.64,5.21-16.94,8.91c-3.38,2.36-7.27,4-10.91,5.99
			c-9.82,5.36-19.51,10.99-29.48,16.06c-12.26,6.23-24.79,11.89-37.66,16.78c-3.58,1.36-7.13,2.85-10.59,4.51
			c-14.71,7.04-29.41,14.11-44.05,21.31c-3.71,1.83-7.04,4.43-10.76,6.24c-3.43,1.67-7.19,2.66-10.72,4.15
			c-2.05,0.86-3.9,2.19-5.9,3.19c-5.13,2.59-10.34,5-15.59,7.35c-9.06,4.06-18.23,7.69-27.67,10.71c-1.52,0.49-3.01,1.1-4.44,1.8
			c-10.63,5.19-21.11,10.7-31.91,15.53c-7.31,3.27-14.18,7.25-21.23,10.98c-7.62,4.04-15.47,7.66-23.34,11.22
			c-13.41,6.06-26.48,12.8-39.53,19.56c-7.09,3.67-13.81,8.04-21.05,11.46c-6.36,3-12.74,5.98-19.08,9.03
			c-2.87,1.38-5.62,3.01-8.49,4.4c-8.33,4.03-16.38,8.6-24.78,12.53c-6.94,3.24-13.47,7.35-20.23,10.97
			c-9.02,4.84-17.99,9.77-27.16,14.31c-6.01,2.98-12.32,5.35-18.49,7.99c-2.05,0.88-4.22,1.55-6.12,2.68
			c-6.88,4.09-14.28,7.12-21.29,10.95c-1.68,0.92-3.41,1.77-5,2.82c-4.28,2.82-8.69,5.35-13.44,7.36
			c-3.51,1.48-6.76,3.59-10.18,5.31c-4.28,2.15-8.63,4.17-12.94,6.26c-0.86,0.42-1.76,0.8-2.57,1.3
			c-7.88,4.92-16.48,8.41-24.71,12.64c-2.28,1.17-4.45,2.54-6.7,3.74c-3.95,2.1-7.8,4.47-11.94,6.13
			c-8.02,3.22-15.49,7.61-23.59,10.65c-2.65,0.99-5,2.8-7.44,4.31c-6.52,4.04-12.76,8.51-19.5,12.22
			c-6.73,3.7-13.41,7.42-20.71,9.96c-3.3,1.15-6.4,2.88-9.59,4.36c-1.45,0.68-2.81,1.64-4.33,2.04c-6.26,1.66-11.71,5.08-17.52,7.73
			c-1.45,0.66-2.95,1.29-4.25,2.19c-5.82,4.04-12.2,6.98-18.6,9.93c-4.64,2.14-9.32,4.14-13.63,7c-2.89,1.92-6.25,3.36-9.6,4.29
			c-3.78,1.05-7.16,2.71-10.41,4.75c-5.16,3.23-10.52,5.88-16.38,7.75c-4.21,1.34-8.08,3.81-12,5.94
			c-8.69,4.73-17.19,9.83-26.17,14.03c-1.73,0.81-3.54,1.64-4.95,2.87c-2.73,2.39-5.8,3.83-9.27,4.78
			c-5.89,1.63-11.32,4.39-16.75,7.14c-5.13,2.6-10.25,5.22-15.4,7.78c-5.72,2.85-11.41,5.72-16.93,8.99
			c-6.58,3.91-13.46,7.4-20.45,10.52c-4.11,1.83-8.02,3.93-11.89,6.15c-4.43,2.55-8.83,5.11-13.59,7.09
			c-3.5,1.46-6.62,3.82-9.86,5.86c-1.62,1.02-3.02,2.45-4.72,3.27c-8.1,3.87-15.5,8.94-23.27,13.38
			c-5.56,3.18-11.31,5.96-17.18,8.54c-8.19,3.6-16.39,7.22-23.78,12.41c-1.82,1.28-3.97,2.06-5.91,3.17
			c-3.87,2.21-8.12,3.85-11.22,7.26c-8.1,4.45-15.15,10.77-24.17,13.59c-0.9,0.28-1.79,0.74-2.55,1.31
			c-5.41,4.07-11.56,6.76-17.6,9.7c-3.73,1.82-7.29,3.98-10.92,6c-1.4,0.78-2.72,1.69-4.16,2.39c-8.37,4.03-16.2,8.97-24.09,13.86
			c-5.15,3.19-10.77,5.62-16.09,8.55c-32.5,17.92-64.98,35.89-97.47,53.83c-43.41,23.98-86.83,47.96-130.24,71.93
			c-3.36,1.86-6.86,3.5-9.63,6.27c-10.24,0-20.48,0-30.72,0c0.13-2.1,1.19-3.45,3.06-4.48c11.49-6.32,22.92-12.77,34.4-19.11
			c42.28-23.37,84.57-46.72,126.87-70.06c30.25-16.69,60.52-33.35,90.77-50.04c2.52-1.39,5.04-2.8,7.41-4.42
			c4.75-3.25,9.53-6.31,14.86-8.65c4.94-2.16,9.41-5.38,14.07-8.16c2.19-1.31,4.37-2.64,6.5-4.05c6.97-4.63,14.67-7.78,22.28-11.09
			c3.53-1.53,6.92-3.23,10.18-5.31c6.45-4.11,13.17-7.79,19.49-12.13c2.88-1.98,6.1-3.5,9.23-5.11c5.98-3.07,11.88-6.26,17.47-10.01
			c7.44-5,15.5-8.93,23.41-13.11c1.68-0.89,3.58-1.35,5.37-2.03c3.87-1.46,8-2.44,10.87-5.79c5.7-2.89,11.37-5.84,17.11-8.63
			c2.88-1.4,5.65-2.84,8.3-4.71c4.68-3.3,9.66-6.22,14.67-9.03c5.58-3.13,11.33-5.92,16.57-9.63c1.54-1.09,3.35-1.84,5.09-2.6
			c9.41-4.08,18.09-9.49,26.94-14.59c2.76-1.59,5.54-3.16,8.33-4.7c1.68-0.92,3.61-1.52,5.08-2.69c4.88-3.9,10.58-5.82,16.45-7.52
			c9.26-2.68,17.89-6.8,26.32-11.47c10.34-5.73,20.7-11.49,31.38-16.54c12.72-6.01,25.45-11.99,38.11-18.15
			c8.05-3.91,16.27-7.46,24.41-11.18c1.16-0.53,2.42-0.96,3.42-1.71c7.21-5.43,15.63-8.67,23.53-12.81
			c8.18-4.3,16.4-8.66,25.12-11.88c0.6-0.22,1.22-0.42,1.78-0.72c7.62-4.04,15.23-8.11,22.85-12.15c6.77-3.6,13.54-7.21,20.34-10.75
			c5.1-2.65,10.09-5.44,15.47-7.58c5-1.99,9.66-4.93,14.33-7.68c4.42-2.6,8.87-5.07,13.63-7c2.36-0.96,4.81-1.93,6.84-3.41
			c3.9-2.86,8.2-4.88,12.5-7.01c10.88-5.38,21.7-10.89,32.44-16.56c7.05-3.73,13.86-7.92,20.88-11.72
			c9.55-5.17,19.4-9.73,29.4-13.96c8.54-3.61,16.89-7.6,25.18-11.77c8.89-4.48,17.19-9.82,25.6-15.05
			c4.06-2.52,8.32-4.68,12.88-6.34c5.08-1.86,9.98-4.15,14.61-7.13c5.36-3.44,11.05-6.43,16.82-9.12
			c7.25-3.38,14.31-7.08,21.19-11.15c3.29-1.95,6.75-3.67,10.27-5.17c8.83-3.76,17.32-8.24,26.04-12.18
			c8.75-3.95,17.24-8.41,25.87-12.57c2.91-1.4,5.64-2.94,8.11-5.02c3.95-3.33,8.47-5.71,13.19-7.75c2.64-1.14,5.3-2.27,7.79-3.7
			c5.29-3.03,10.6-5.92,16.55-7.5c1.83-0.48,3.58-1.4,5.24-2.36c2.79-1.62,5.67-2.93,8.86-3.55c2.56-0.5,4.75-1.81,6.96-3.13
			c4.12-2.46,8.27-4.88,12.5-7.14c2.53-1.35,5.2-2.47,7.87-3.51c10.13-3.94,20.23-7.89,30.01-12.73
			c9.73-4.82,19.52-9.55,29.29-14.29c3.45-1.67,7.06-3,10.51-4.65c4.9-2.34,9.79-4.71,14.57-7.29c7.62-4.12,15.84-6.82,23.7-10.37
			c10.49-4.74,21.16-9.07,31.74-13.6c1.76-0.75,3.62-1.41,5.18-2.49c6.58-4.57,13.99-7.68,20.74-11.96
			c2.15-1.36,4.58-2.26,6.86-3.42c6.56-3.32,13.22-6.47,19.64-10.04c8.37-4.67,16.5-9.77,24.82-14.52
			c8.05-4.59,16.32-8.79,25.03-12.05c1.49-0.56,2.97-1.18,4.36-1.95c7.82-4.36,15.66-8.66,23.38-13.19
			c6.34-3.72,12.88-6.86,19.77-9.53c6.81-2.63,13.12-6.57,19.66-9.92c8.25-4.23,16.32-8.86,24.79-12.57
			c14.36-6.29,28.49-13.05,42.65-19.76c8.37-3.97,16.58-8.28,25.08-11.99c3.18-1.39,5.94-3.73,9.04-5.36
			c11.86-6.24,23.72-12.49,35.93-18.06c2.61-1.19,5.18-2.48,7.64-3.95c4.99-2.97,10.59-4.49,15.8-6.91
			c5.2-2.41,9.51-6.49,15.05-8.35c9.41-3.17,18.15-7.92,27.33-11.63c0.28-0.11,0.58-0.33,0.74-0.58c0.34-0.52,0.96-1.22,0.81-1.61
			c-0.31-0.81-0.89-1.72-1.61-2.13c-0.77-0.44-1.87-0.57-2.77-0.46c-14.95,1.86-29.99,1.59-45,2.16c-6.07,0.23-12.14,0.6-18.21,0.84
			c-8.3,0.33-16.61,0.62-24.92,0.86c-2.23,0.06-4.51,0.07-6.71-0.27c-8.89-1.37-17.88-0.97-26.79-1.73
			c-10.54-0.9-21.05-1.11-31.59-0.46c-1.27,0.08-2.6,0.19-3.83-0.07c-6.62-1.4-13.37-0.81-20.03-1.48
			c-6.36-0.64-12.73-1.33-19.11-1.8c-13.06-0.98-26.05-3-39.2-2.52c-9.85-1.17-19.81-0.43-29.67-1.81
			c-5.37-0.75-10.84-0.73-16.26-1.15c-2.22-0.17-4.43-0.63-6.64-0.92c-3.17-0.42-6.33-0.82-9.5-1.19c-0.95-0.11-2,0.14-2.86-0.18
			c-7.35-2.76-15.23-1.48-22.73-3.06c-0.93-0.2-1.92-0.36-2.86-0.28c-10.28,0.98-20.33-1.53-30.5-2.02
			c-7.01-0.34-13.94-1.83-21.03-1.25c-2.52,0.21-5.1-0.33-7.65-0.56c-7.01-0.61-13.97-1.8-21.04-1.59
			c-0.95,0.03-1.94-0.05-2.85-0.31c-6.22-1.74-12.63-1.8-19-2.32c-6.69-0.54-13.3-1.92-20.04-1.93c-5.11-0.01-10.23,0.02-15.34-0.21
			c-4.14-0.19-8.27-0.72-12.4-1.13c-2.23-0.22-4.44-0.66-6.67-0.74c-8.95-0.33-17.86-1.01-26.7-2.5c-0.94-0.16-1.92-0.28-2.86-0.23
			c-7.38,0.38-14.63-0.5-21.94-1.59c-7.25-1.08-14.62-1.52-21.93-2.18c-9.86-0.9-19.61-2.98-29.56-2.87
			c-1.59,0.02-3.21-0.14-4.77-0.47c-5.98-1.25-12-1.82-18.12-1.66c-2.21,0.06-4.43-0.49-6.65-0.79c-7.3-1-14.6-1.74-21.99-1.59
			c-8.31,0.16-16.62,0.06-24.91-0.84c-1.89-0.21-3.83-0.02-5.74,0.12c-8.62,0.61-17.22,0.78-25.88,0.23
			c-9.56-0.62-19.17-0.48-28.76-0.67c-2.24-0.04-4.5,0.14-6.7-0.17c-7.01-0.97-14.03-0.83-21.07-0.76
			c-9.27,0.09-18.55-0.48-27.82-0.28c-14.08,0.31-28.14-0.01-42.18-0.88c-7.68-0.47-15.31-0.82-22.97-0.08
			c-1.59,0.15-3.23,0.24-4.79,0.01c-8.28-1.2-16.62-0.34-24.92-0.74c-4.47-0.21-8.95-0.34-13.42-0.44c-2.55-0.06-5.16-0.3-7.65,0.12
			c-4.16,0.69-8.22,0.48-12.39,0.14c-6.36-0.52-12.78-0.53-19.17-0.54c-18.23-0.02-36.47-0.07-54.7,0.15
			c-20.14,0.24-40.27-0.27-60.4-0.4c-15.34-0.1-30.69,0.14-46.04,0.14c-5.75,0-11.51-0.19-17.26-0.38
			c-8.31-0.27-16.61-0.66-24.93-0.31c-3.18,0.14-6.39-0.23-9.57-0.57c-6.37-0.68-12.74-1.08-19.15-0.47
			c-2.22,0.21-4.48,0.18-6.7,0.02c-10.21-0.72-20.42-1.06-30.68-0.94c-11.49,0.14-22.99-0.31-34.49-0.36
			c-6.07-0.03-12.14,0.32-18.21,0.33c-7.67,0.02-15.35-0.16-23.02-0.21c-4.15-0.02-8.31,0.19-12.46,0.06
			c-6.39-0.2-12.78-0.52-19.15-0.94c-3.84-0.25-7.56,0.89-11.47,0.44c-3.76-0.43-7.66,0.46-11.46,0.19
			c-3.52-0.25-6.99-0.6-10.5,0.04c-0.62,0.11-1.28,0.14-1.91,0.09c-10.87-0.78-21.73,0.12-32.59,0.34
			c-3.19,0.06-6.44,0.09-9.58-0.39c-11.46-1.76-22.97-1.27-34.48-1.1c-5.43,0.08-10.87,0.07-16.3,0.02
			c-21.74-0.22-43.49-0.54-65.23-0.69c-11.19-0.07-22.39,0.21-33.58,0.23c-10.55,0.02-21.11-0.13-31.66-0.11
			c-6.07,0.01-12.14,0.17-18.2,0.34c-6.07,0.17-12.14,0.46-18.21,0.65c-4.47,0.14-8.93,0.14-13.34,1.14
			c-1.83,0.42-3.82,0.2-5.73,0.2c-18.55-0.03-37.11-0.05-55.66-0.12c-4.48-0.02-8.95-0.17-13.43-0.26
			c-1.28-0.03-2.58-0.21-3.83-0.04c-7.33,0.98-14.7,0.43-22.04,0.65c-4.48,0.13-8.98,0.01-13.42,0.48
			c-6.7,0.71-13.4,0.79-20.12,0.91c-5.45,0.1-10.86,0.03-16.27-0.81c-2.52-0.39-5.1-0.59-7.65-0.53
			c-10.57,0.22-21.09-0.6-31.63-1.02c-6.38-0.25-12.79-0.01-19.18,0c-2.24,0-4.51,0.17-6.71-0.14c-4.14-0.58-8.23-1.01-12.39-0.19
			c-1.22,0.24-2.56,0.09-3.81-0.12c-3.85-0.64-7.65-0.35-11.47,0.21c-3.18,0.47-6.36,0.33-9.57,0.13
			c-3.49-0.23-7.03-0.24-10.52,0.03c-15.98,1.23-31.95,1.22-47.92-0.25c-5.11-0.47-10.21-0.88-15.29,0.23
			c-0.62,0.14-1.27,0.22-1.91,0.19c-10.54-0.48-21.08-0.37-31.61,0.08c-0.95,0.04-1.92-0.3-2.87-0.21
			c-8.28,0.75-16.55,0.95-24.87,0.58c-4.77-0.22-9.58,0.43-14.37,0.45c-16.95,0.04-33.9-0.2-50.85,0.02
			c-11.83,0.15-23.65,0.41-35.48,0.28c-10.23-0.11-20.47-0.28-30.7-0.32c-6.08-0.03-12.15,0.13-18.23,0.21
			c-2.57,0.03-5.15,0.08-7.56-0.94c-3.29-1.39-6.3-0.5-9.19,1.05c-3.1,1.66-6.24,3.3-9.12,5.29c-3.44,2.38-7.12,4.26-10.82,6.17
			c-13.05,6.77-26.22,13.32-38.8,20.95c-1.64,1-3.27,2.03-4.99,2.86c-10.07,4.85-19.62,10.65-29.55,15.76
			c-2.54,1.31-4.87,3.04-7.33,4.52c-2.19,1.31-4.4,2.59-6.64,3.78c-2.25,1.2-4.53,2.36-6.86,3.41
			c-10.52,4.71-19.91,11.5-30.41,16.24c-1.74,0.79-3.38,1.83-5.13,2.58c-5.88,2.54-11.66,5.25-16.87,9.05
			c-1.03,0.75-2.18,1.36-3.33,1.9c-8.71,4.06-16.63,9.49-24.89,14.35c-7.15,4.21-14.21,8.6-21.9,11.85
			c-2.93,1.24-5.66,2.95-8.49,4.43c-2.54,1.33-5.07,2.69-7.64,3.97c-8.29,4.13-16.11,9.11-24.54,13c-4.33,2-8.34,4.73-12.32,7.41
			c-6.39,4.3-13.3,7.65-20.02,11.34c-1.4,0.77-2.92,1.36-4.24,2.23c-8,5.29-16.28,10.05-24.82,14.44
			c-7.66,3.93-15.03,8.4-22.94,11.85c-2.05,0.89-4.06,1.9-5.98,3.04c-5.22,3.1-10.38,6.32-15.98,8.71
			c-6.12,4.73-13.41,7.39-20.03,11.24c-3.3,1.92-6.96,3.23-10.29,5.11c-6.11,3.43-12.81,5.74-18.44,10.09
			c-5.39,4.16-11.85,6.26-18.14,8.57c-3.61,1.33-7.1,2.8-10.51,4.63c-10.42,5.59-21.02,10.84-31.41,16.47
			c-7.3,3.96-14.32,8.4-21.55,12.49c-4.44,2.51-8.92,5.01-13.58,7.06c-11.14,4.9-21.84,10.62-32.32,16.77
			c-6.33,3.72-12.33,8.03-19.24,10.72c-1.17,0.46-2.19,1.31-3.28,1.97c-5.17,3.17-10.2,6.61-15.57,9.4
			c-4.23,2.2-8.81,3.79-13.34,5.3c-4.58,1.53-9,3.22-13,6c-2.09,1.45-4.48,2.46-6.72,3.69c-1.4,0.77-3,1.33-4.14,2.39
			c-5.76,5.35-12.99,8.14-19.89,11.41c-3.79,1.79-7.39,3.74-10.77,6.2c-2.06,1.5-4.16,2.99-6.39,4.23
			c-5.02,2.79-10.27,5.17-14.97,8.54c-0.26,0.19-0.54,0.35-0.83,0.47c-3.22,1.36-6.54,2.52-9.65,4.12c-3.11,1.6-6.03,3.48-9.3,4.87
			c-4.08,1.73-7.95,4.14-11.57,6.73c-7.06,5.03-14.77,8.95-22.13,13.46c-1.08,0.66-2.25,1.28-3.47,1.6
			c-6.01,1.57-11.17,4.92-16.07,8.42c-7.03,5.02-14.45,9.42-21.56,14.28c-3.7,2.52-7.58,4.76-11.78,6.4
			c-1.77,0.69-3.47,1.64-5.08,2.66c-12.68,8.04-25.33,16.12-37.99,24.18c-1.08,0.69-2.1,1.51-3.27,1.99
			c-6.22,2.57-11.47,6.97-17.82,9.31c-1.47,0.54-2.78,1.57-4.09,2.48c-2.1,1.46-4.12,3.04-6.2,4.52c-2.34,1.67-4.56,3.61-7.1,4.87
			c-7.15,3.54-13.91,7.8-21.08,11.32c-3.73,1.83-7.49,3.61-11.08,5.7c-3.59,2.08-7.08,4.23-11.12,5.42
			c-2.82,0.83-5.1,2.54-6.41,5.39c-1.39,3.02-3.91,4.94-6.72,6.62c-6.04,3.6-11.98,7.38-18,11.02c-1.91,1.16-3.9,2.2-5.91,3.19
			c-8.9,4.39-17.45,9.34-25.75,14.83c-6.65,4.4-13.63,8.42-20.82,11.85c-9.84,4.69-19.28,10.07-28.74,15.42
			c-13.09,7.4-26.21,14.73-39.32,22.09c-0.84,0.47-1.73,0.85-2.53,1.37c-10.76,6.97-22.3,12.54-33.59,18.54
			c-11.58,6.15-23.51,11.63-35.29,17.38c-4.6,2.25-9.21,4.47-13.84,6.66c-10.12,4.78-20.26,9.52-30.39,14.29
			c-11.31,5.33-21.95,11.79-32.39,18.67c-10.14,6.68-20.23,13.46-31.06,19.08c-7.94,4.12-15.51,8.95-23.28,13.4
			c-3.6,2.06-7.29,3.99-10.96,5.93c-3.96,2.09-7.98,4.05-11.91,6.2c-7.3,3.99-14.59,7.98-21.8,12.13
			c-10.26,5.9-20.47,11.89-30.63,17.96c-5.77,3.45-11.68,6.62-17.73,9.56c-4.59,2.23-8.98,4.89-13.42,7.43
			c-3.61,2.06-7.1,4.34-10.74,6.33c-7.32,3.98-14.43,8.27-21.14,13.22c-6.19,4.56-12.7,8.62-19.55,12.14
			c-5.97,3.07-11.83,6.38-17.88,9.29c-13.58,6.55-26.22,14.69-39.05,22.52c-2.18,1.33-4.35,2.71-6.59,3.94
			c-13.48,7.34-26.83,14.9-40.57,21.79c-15.99,8.02-32.15,15.83-46.92,26.12c-3.14,2.19-6.59,3.93-9.9,5.88
			c-3.85,2.27-7.71,4.54-11.56,6.84c-1.65,0.98-3.22,2.09-4.89,3.04c-11.38,6.52-22.83,12.92-34.13,19.57
			c-4.67,2.75-9.08,5.96-13.55,9.04c-0.75,0.52-1.22,1.45-1.82,2.19c-2.56,0-5.12,0-7.68,0c0-7.04,0-14.08,0-21.12
			c1.62,0.55,3.1,0.23,4.57-0.61c6.66-3.83,13.49-7.36,19.97-11.48c9.45-6.01,19.64-10.75,28.89-17.08c2.37-1.62,5.01-2.83,7.49-4.3
			c4.96-2.93,10-5.73,14.8-8.9c9.63-6.37,19.64-11.99,30.02-17.04c18.99-9.25,37.63-19.17,55.91-29.74
			c7.75-4.48,15.31-9.29,22.96-13.95c2.19-1.33,4.31-2.78,6.57-3.97c9.9-5.22,19.81-10.43,29.78-15.51
			c6.86-3.5,13.44-7.42,19.68-11.93c7.54-5.44,15.35-10.42,23.6-14.7c2.27-1.18,4.51-2.44,6.62-3.88
			c6.63-4.53,13.68-8.29,20.89-11.75c7.23-3.46,14.12-7.49,20.9-11.75c8.93-5.62,17.92-11.16,27.49-15.69
			c3.46-1.64,6.71-3.72,10.08-5.56c7.85-4.3,15.73-8.56,23.58-12.86c2.8-1.53,5.58-3.11,8.36-4.7c6.67-3.8,13.29-7.69,19.99-11.42
			c7.27-4.04,14.49-8.14,21.44-12.74c9.33-6.18,18.87-12.03,28.35-17.98c1.89-1.19,3.84-2.31,5.86-3.28
			c10.08-4.87,20.19-9.67,30.29-14.5c2.6-1.24,5.19-2.5,7.78-3.75c6.63-3.19,13.18-6.56,19.91-9.52
			c11.14-4.91,21.85-10.66,32.65-16.24c4.26-2.2,8.56-4.33,12.83-6.51c1.99-1.02,3.98-2.05,5.93-3.16
			c9.46-5.37,18.9-10.76,28.34-16.16c9.99-5.72,19.93-11.54,29.97-17.18c7.53-4.23,15.07-8.46,22.8-12.3
			c9.47-4.7,18.62-9.85,27.47-15.66c6.93-4.55,14.33-8.45,21.73-12.22c6.32-3.22,12.09-7.15,17.66-11.47
			c1.51-1.17,2.89-2.6,4.56-3.46c12.77-6.58,24.81-14.5,37.8-20.7c4.03-1.93,7.89-4.23,11.82-6.37c0.56-0.3,1.24-0.48,1.68-0.91
			c4.15-4.15,9.71-6.04,14.53-9.13c4.84-3.1,9.68-6.22,14.63-9.14c3.29-1.95,6.79-3.55,10.17-5.36c2.25-1.2,4.53-2.38,6.68-3.76
			c5.64-3.63,11.31-7.22,17.28-10.3c1.13-0.58,2.22-1.29,3.2-2.1c4.44-3.7,9.2-6.91,14.29-9.64c8.92-7.34,19.62-11.94,28.81-18.94
			c7.09-5.4,14.82-9.97,22.5-14.56c2.2-1.31,4.38-2.7,6.72-3.71c8.8-3.81,17.31-8.2,25.92-12.42c1.43-0.7,2.88-1.4,4.19-2.3
			c5.81-3.99,11.96-7.33,18.49-9.96c0.89-0.36,1.88-0.68,2.55-1.31c4.76-4.45,10.85-6.67,16.43-9.7c7.58-4.11,14.93-8.6,22.31-13.03
			c4.09-2.45,8.5-4.41,12.87-6.35c5.55-2.48,11.06-4.95,16.16-8.34c4.25-2.82,8.82-5.17,13.34-7.56
			c9.31-4.94,18.74-9.67,27.99-14.72c4.19-2.28,8.19-4.95,12.07-7.74c4.71-3.38,9.89-5.85,15.01-8.46c1.7-0.87,3.61-1.5,5.05-2.69
			c3.27-2.73,7.08-4.26,10.98-5.75c4.78-1.83,9.5-3.8,14.21-5.8c3.54-1.51,6.96-3.22,9.48-6.33c0.79-0.98,1.76-1.96,2.87-2.51
			c6.87-3.42,12.95-8.22,20.06-11.23c10.32-4.37,19.99-10.03,29.81-15.38c5.6-3.05,11.25-6,17.41-7.9c3.02-0.93,5.91-2.46,8.66-4.05
			c7.49-4.34,15.16-8.26,23.22-11.42c5.07-1.99,9.97-4.33,14.17-7.93c2.21-1.9,4.85-3.06,7.6-4c3.35-1.14,6.4-2.82,9.34-4.83
			c3.43-2.34,7.03-4.44,10.6-6.55c1.92-1.14,3.86-2.38,5.95-3.07c8.3-2.72,15.55-7.35,22.87-11.94c4.32-2.71,9.05-4.75,13.51-7.24
			c8.93-5,18-9.73,27.01-14.57c9.84-5.29,19.45-11.07,28.84-17.13c7.56-4.88,15.77-8.46,23.54-12.9c4.44-2.54,8.95-4.97,13.43-7.44
			c1.68-0.93,3.3-2,5.07-2.7c10.45-4.15,19.85-10.24,29.57-15.75c0.28-0.16,0.52-0.41,0.81-0.51c7.96-2.69,14.46-8.15,22.03-11.56
			c2.04-0.92,4.17-1.77,5.98-3.04c5.35-3.74,11.43-5.74,17.6-7.41c3.52-0.95,6.62-2.21,8.95-5.12c0.79-0.98,1.77-2.08,2.89-2.46
			c4.88-1.64,8.89-4.94,13.65-6.79c2.37-0.92,4.9-1.85,6.83-3.42c4.03-3.27,8.73-5.28,13.11-7.89c9.88-5.89,20.01-11.34,30.05-16.95
			c0.84-0.47,1.59-1.11,2.45-1.5c3.78-1.71,7.82-2.99,11.34-5.13c3.56-2.17,7.09-4.32,10.98-5.83c0.3-0.12,0.58-0.26,0.88-0.39
			c4.39-2.01,8.11-5.11,12.22-7.57c4.1-2.45,8.94-3.42,12.94-6.21c2.61-1.82,5.58-3.12,8.23-4.89c2.38-1.59,4.6-3.44,6.79-5.28
			c1.57-1.32,2.2-3.21,2.04-5.17c-0.42-5.09-0.92-10.19-1.57-15.25c-0.37-2.87-1.04-5.72-0.12-8.55c1.15-3.52,1.04-6.83-0.64-10.2
			c-0.51-1.03-0.32-2.5-0.19-3.74c0.61-5.74,0.72-11.45,0.23-17.23c-0.34-4.11-0.19-8.32,0.26-12.44c0.38-3.53,0.3-6.98,0.09-10.5
			c-0.39-6.38-0.39-12.78-0.57-19.17c-0.05-1.92,0.07-3.88-0.3-5.74c-1.24-6.38-0.22-12.76-0.1-19.14c0.03-1.9,0.56-3.79,0.85-5.68
			c0.88-5.7,1.25-11.36,0.16-17.12c-1.08-5.68-0.67-11.48,0.05-17.19c0.32-2.57,0.55-5.02-0.02-7.59c-0.49-2.17-0.75-4.42-0.83-6.64
			c-0.3-8.29-0.81-16.56-0.44-24.9c0.43-9.89-0.01-19.81-0.09-29.72c-0.01-0.96-0.32-1.94-0.17-2.86
			c1.09-6.43,0.03-12.74-0.81-19.09c-0.37-2.84-0.48-5.75-0.4-8.62c0.32-11.51-1.07-22.98-0.94-34.48c0.04-3.19-0.18-6.39-0.06-9.58
			c0.39-10.89-0.69-21.7-1.38-32.54c-0.59-9.25-1.04-18.51-1.49-27.78c-0.08-1.58,0.09-3.2,0.32-4.78c0.56-3.85,0.47-7.68-0.3-11.46
			c-0.72-3.5-0.62-6.98-0.42-10.5c0.21-3.51,0.32-7.03,0.39-10.54c0.03-1.26,0.26-2.83-0.37-3.73c-2.42-3.48-1.7-7.44-2.05-11.19
			c-0.59-6.36-1-12.75-1.07-19.13c-0.05-4.45,0.44-8.92,0.96-13.34c0.3-2.59,0.3-5.02-0.51-7.55c-0.67-2.11-1.05-4.35-1.21-6.56
			c-0.61-8.61-1.06-17.23-1.62-25.84c-0.13-1.91-0.55-3.79-0.74-5.7c-0.34-3.5-0.71-7-0.87-10.51c-0.22-4.78-0.32-9.56-0.75-14.35
			c-0.54-6.02-0.15-12.13,0.04-18.2c0.17-5.76,0.08-11.45-0.72-17.21c-0.87-6.31-0.77-12.76-0.96-19.15
			c-0.25-8.31-0.37-16.63-0.56-24.94c-0.08-3.51-0.24-7.01,0.29-10.53c0.33-2.17,0.24-4.49-0.1-6.67
			c-0.77-5.04-0.35-10.25-2.29-15.12c-0.34-0.85-0.26-1.89-0.24-2.85c0.15-5.43,0.4-10.85,0.48-16.27c0.03-1.9-0.21-3.82-0.49-5.7
			c-0.73-4.78-0.91-9.57-0.22-14.34c0.6-4.17,0.51-8.28-0.11-12.42c-0.67-4.42-1.53-8.84-0.5-13.34c0.14-0.61,0.18-1.32,0-1.9
			c-2.16-7.3-0.17-14.62-0.02-21.92c0.12-5.75,0.54-11.43-0.57-17.19c-0.72-3.7-0.45-7.64-0.32-11.46
			c0.19-5.42,0.76-10.83,0.97-16.26c0.1-2.54-0.11-5.12-0.43-7.65c-0.29-2.25-0.46-4.44,0.1-6.66c0.56-2.21,0.58-4.44-0.05-6.64
			c-0.63-2.2-0.44-4.34-0.16-6.61c0.67-5.37,1.33-10.76,0.52-16.24c-0.37-2.47,0.33-5.08,0.33-7.62
			c-0.01-5.43-0.38-10.87,0.94-16.23c0.22-0.9,0.13-1.92,0-2.86c-1.14-8.29-0.02-16.61-0.4-24.91c-0.03-0.64-0.03-1.3,0.11-1.91
			c2.42-10.39,0.69-21.04,2.01-31.51c0.2-1.56-0.16-3.18-0.16-4.78c0.02-3.51,0.08-7.02,0.18-10.53c0.04-1.27,0.55-2.6,0.33-3.81
			c-1.07-5.81,0.03-11.45,1.01-17.13c0.21-1.25,0.3-2.58,0.13-3.82c-1.18-8.94,0.03-17.85,0.4-26.76c0.17-4.14,0.69-8.26,1.04-12.39
			c0.32-3.82,0.64-7.64,0.92-11.47c0.16-2.23,0.18-4.46,0.36-6.68c0.39-4.77-0.06-9.61,1.25-14.3c0.25-0.91,0.49-1.93,0.35-2.84
			c-0.87-5.48,0.92-10.81,0.76-16.25c-0.04-1.26,0.06-2.6,0.45-3.79c1.5-4.68,1.43-9.5,1.06-14.27c-0.28-3.57-0.01-7.02,0.67-10.48
			c0.74-3.78,1.4-7.52,0.78-11.42c-0.24-1.53-0.09-3.22,0.32-4.72c0.86-3.15,1.14-6.36,0.75-9.51c-0.71-5.74-0.46-11.49-0.37-17.22
			c0.13-7.98,0.66-15.95,1.01-23.92c0.08-1.91,0.05-3.82,0.18-5.73c0.28-4.13,0.76-8.25,0.92-12.39c0.16-4.15-0.12-8.31,0.05-12.46
			c0.19-4.47,0.65-8.92,1.08-13.37c0.12-1.26,0.34-2.57,0.85-3.71c1.63-3.65,1.58-7.42,1.38-11.3c-0.19-3.5,0.1-7.02,0.17-10.53
			c0.06-2.87,0.17-5.75,0.13-8.62c-0.1-7.98-0.53-15.96,0.43-23.93c0.11-0.94,0.16-1.93,0.01-2.86c-1.43-8.87-0.58-17.84-1.29-26.75
			c-0.23-2.86-0.22-5.75-0.3-8.62c-0.05-1.92-0.39-3.9-0.03-5.74c1.12-5.74,0.82-11.44,0.28-17.19c-0.21-2.2,0.26-4.46,0.27-6.7
			c0.02-5.11-0.45-10.26,0.04-15.32c0.47-4.79,0.6-9.55,0.61-14.34c0.01-7.34-0.46-14.71,1.72-21.91c0.54-1.78,0.4-3.81,0.35-5.71
			c-0.16-5.43-0.44-10.86-0.66-16.3c-0.09-2.24-0.27-4.48-0.2-6.71c0.33-10.21,0.29-20.44,1.2-30.64c0.49-5.4,0.69-10.85,0.62-16.28
			c-0.05-3.87-0.05-7.62,1.23-11.35c0.49-1.44,0.33-3.15,0.27-4.73c-0.15-3.51-0.54-7-0.62-10.51c-0.12-4.8-0.09-9.59-1.06-14.33
			c-0.65-3.18-0.56-6.35,0.7-9.43c1.12-2.73,1.03-5.59,1.02-8.5c-0.03-4.78,0.37-9.57,0.43-14.36c0.07-5.75-0.01-11.5-0.04-17.25
			c-0.02-5.11-0.18-10.23-0.05-15.34c0.16-6.08,0.37-12.14-0.72-18.17c-0.39-2.19-0.21-4.48-0.57-6.68
			c-0.53-3.25-0.43-6.37,0.99-9.38c1.76-3.71,1.64-7.53,0.17-11.2c-1.37-3.41-1.59-6.69-0.87-10.29c1.2-6.01,0.97-12.12,0.02-18.15
			c-0.85-5.41-0.77-10.8-0.67-16.24c0.11-6.36-0.47-12.74-0.81-19.1c-0.09-1.59-0.79-3.22-0.57-4.73
			c1.29-8.92-0.64-17.89,0.57-26.82c0.52-3.82,0.13-7.64-0.75-11.44c-0.5-2.16-1.03-4.51-0.68-6.63c1.23-7.35-0.17-14.68,0.18-22.01
			c0.29-6.07,0.19-12.16,0.68-18.21c0.57-7.03,0.59-14.05,0.52-21.09c-0.02-1.9,0.06-3.98-0.64-5.67c-1.66-3.98-1.64-8.07-1.8-12.23
			c-0.22-5.74-0.47-11.48-2.33-17.05c-0.68-2.05-0.57-4.4-0.59-6.62c-0.03-3.51,0.26-7.02,0.21-10.53
			c-0.1-7.67,0.09-15.33,0.7-22.98c0.15-1.89-0.11-3.81-0.19-5.71c-0.04-0.95-0.46-2.04-0.13-2.83c1.73-4.13,0.44-8.13-0.03-12.24
			c-0.43-3.79-0.15-7.66-0.21-11.5c-0.08-5.43-0.17-10.87-0.27-16.3c-0.02-1.28-0.35-2.62-0.07-3.82c1.19-5.15,0.27-10.14-0.6-15.2
			c-0.6-3.46-0.84-6.99-0.97-10.5c-0.27-7.36-0.91-14.67-2.31-21.92c-0.48-2.48-0.8-5.21-0.25-7.62c1.03-4.56,0.38-8.81-0.61-13.24
			c-0.76-3.39-0.59-6.98-0.87-10.48c-0.09-1.13-1.8-2.08-2.89-1.66c-0.89,0.35-1.8,0.66-2.66,1.08c-3.16,1.55-6.34,3.05-9.43,4.72
			c-11.53,6.23-23.19,12.2-34.56,18.75c-8.84,5.09-17.79,10.05-26.94,14.59c-4.88,2.42-9.67,4.91-14.03,8.21
			c-1.27,0.96-2.64,1.83-4.07,2.52c-5.45,2.66-10.95,5.22-16.43,7.83c-0.86,0.41-1.76,0.79-2.54,1.32
			c-9.82,6.69-20.59,11.58-31.29,16.62c-1.16,0.54-2.38,0.97-3.47,1.63c-5.75,3.45-11.42,6.98-17.51,9.89
			c-5.74,2.73-10.97,6.54-16.41,9.9c-8.16,5.04-16.4,9.93-25.24,13.71c-1.47,0.63-3.01,1.2-4.3,2.11
			c-4.74,3.32-10.09,5.52-15.12,8.29c-3.91,2.16-8.2,3.63-11.69,6.55c-0.48,0.4-1.09,0.67-1.68,0.9
			c-7.79,3.07-14.55,7.96-21.68,12.21c-5.77,3.43-11.78,6.44-17.62,9.75c-3.89,2.2-7.69,4.57-11.49,6.92
			c-1.63,1.01-3.03,2.49-4.77,3.19c-7.46,2.98-14.18,7.36-21.19,11.16c-8.98,4.86-18.68,8.35-27.08,14.31
			c-1.54,1.1-3.4,1.75-5.12,2.6c-2.86,1.42-5.8,2.65-8.3,4.75c-1.2,1.01-2.71,1.66-4.12,2.41c-4.52,2.39-9.06,4.76-13.59,7.13
			c-1.7,0.89-3.31,2.06-5.12,2.59c-4.36,1.29-7.89,4.18-12.03,5.85c-3.9,1.57-7.21,4.08-10.64,6.43
			c-5.05,3.47-10.82,5.54-16.53,7.58c-4.24,1.52-8.28,3.32-12.25,5.43c-9.59,5.11-19.33,9.94-28.88,15.12
			c-7.3,3.95-14.51,8.1-21.58,12.45c-5.46,3.36-11.13,6.23-17,8.79c-9.67,4.22-18.97,9.2-28.06,14.56
			c-7.15,4.22-14.15,8.66-21.7,12.25c-4.86,2.31-9.38,5.47-13.96,8.35c-5.5,3.46-11.27,6.02-17.39,7.9
			c-4.94,1.52-9.62,3.41-13.87,6.39c-1.82,1.27-3.92,2.16-5.89,3.22c-1.41,0.76-3.02,1.28-4.18,2.32
			c-6.32,5.67-14.06,8.8-21.61,12.24c-3.24,1.48-6.16,3.36-9.06,5.36c-2.89,1.99-5.8,3.99-8.88,5.67
			c-3.64,1.99-7.49,3.58-10.79,6.19c-0.74,0.59-1.62,1.05-2.5,1.41c-5.9,2.41-11.68,5.07-17.14,8.38c-5.1,1.28-9.26,4.39-13.4,7.33
			c-7.07,5.02-14.75,8.99-22.12,13.47c-1.08,0.66-2.24,1.27-3.44,1.66c-7.41,2.4-13.57,6.94-20.04,11.08
			c-10.2,6.53-19.73,14.23-31.15,18.77c-1.18,0.47-2.29,1.13-3.37,1.82c-12.67,8.05-25.33,16.13-37.99,24.19
			c-1.62,1.03-3.19,2.19-4.95,2.91c-5.93,2.44-10.85,6.76-16.97,8.87c-1.75,0.6-3.22,2.04-4.78,3.16c-3.12,2.23-6.2,4.51-9.32,6.74
			c-1.04,0.74-2.05,1.61-3.22,2.08c-7.73,3.13-14.38,8.3-22,11.62c-2.05,0.89-4.05,1.89-6.01,2.97c-5.3,2.91-10.35,6.3-16.22,8.13
			c-1.83,0.57-3.45,1.75-4.31,3.61c-1.98,4.32-5.6,6.78-9.59,9.03c-5.01,2.83-9.8,6.03-14.71,9.04c-1.91,1.17-3.81,2.38-5.82,3.34
			c-9.54,4.56-18.53,10.01-27.45,15.69c-7.52,4.79-15.17,9.5-23.41,13.11c-9.4,4.11-18.07,9.6-26.98,14.65
			c-12.53,7.09-25.1,14.09-37.66,21.12c-0.84,0.47-1.72,0.86-2.53,1.38c-10.76,6.96-22.29,12.56-33.58,18.54
			c-11.87,6.29-24.08,11.92-36.15,17.82c-4.31,2.11-8.64,4.17-12.98,6.22c-9.83,4.64-19.67,9.28-29.52,13.88
			c-11.91,5.57-23.11,12.32-34.07,19.58c-10.12,6.7-20.24,13.43-31.1,19c-7.67,3.93-14.95,8.65-22.44,12.95
			c-3.6,2.07-7.27,4.02-10.94,5.96c-3.68,1.94-7.44,3.71-11.09,5.71c-8.42,4.6-16.85,9.18-25.17,13.97
			c-9.98,5.74-19.8,11.76-29.77,17.53c-4.98,2.88-10.05,5.61-15.21,8.16c-5.17,2.56-10.23,5.26-15.09,8.38
			c-3.5,2.24-7.1,4.33-10.74,6.33c-7.02,3.85-13.86,7.97-20.32,12.72c-6.45,4.75-13.23,8.99-20.36,12.65
			c-7.96,4.1-15.94,8.17-23.88,12.31c-3.4,1.77-6.79,3.58-10.08,5.55c-8.51,5.1-16.85,10.47-25.44,15.41
			c-14.13,8.14-28.37,16.07-42.98,23.38c-16,8.01-32.18,15.77-47,25.97c-3.68,2.53-7.69,4.58-11.54,6.86
			c-3.58,2.12-7.15,4.23-10.71,6.38c-1.64,0.99-3.22,2.09-4.88,3.05c-9.42,5.44-18.84,10.87-28.29,16.26
			c-5.84,3.32-11.81,6.42-17.16,10.53c-1.86,1.43-3.97,2.01-6.32,1.59C68.84,974.3,68.84,967.26,68.84,960.22z M1798.42,72.1
			c0,0.02,0,0.03,0,0.05c-2.88,0-5.76-0.12-8.63,0.02c-13.1,0.62-26.17,0.89-39.27-0.27c-8.61-0.76-17.27-0.12-25.88,0.64
			c-1.25,0.11-2.51,0.48-3.7,0.9c-2.47,0.86-4.19,3.31-4.22,5.85c-0.01,0.96-0.07,1.93,0.09,2.87c0.84,5.1,0.63,10.14,0.06,15.28
			c-0.63,5.72-0.44,11.5,1.58,17.07c0.54,1.49,0.89,3.08,1.07,4.66c0.59,5.08,1.09,10.17,1.57,15.26c0.87,9.23,2.1,18.47,1.54,27.76
			c-0.25,4.16-0.31,8.29-0.2,12.45c0.33,13.42,0.16,26.84,0.13,40.25c-0.02,7.98-0.3,15.98-0.26,23.97
			c0.02,4.17,0.29,8.29,1.41,12.35c0.59,2.12,0.65,4.4,0.88,6.61c0.24,2.22,0.16,4.5,0.62,6.66c2.28,10.74,2.19,21.62,1.78,32.47
			c-0.31,8.28,0.29,16.62-1.25,24.85c-0.29,1.54-0.12,3.2,0.01,4.79c1.05,13.06,1.49,26.15,1.43,39.25
			c-0.02,3.84,0.26,7.68,0.07,11.51c-0.64,13.13,0.18,26.25,0.97,39.32c1.04,17.27,1.22,34.53,0.98,51.8
			c-0.11,7.66-1.03,15.3,0.46,22.92c0.24,1.24,0.18,2.55,0.18,3.83c-0.02,6.72-0.03,13.44-0.12,20.15
			c-0.15,12.15-0.51,24.31-0.48,36.46c0.03,9.91-1.04,19.81-0.16,29.73c0.17,1.89-0.26,3.82-0.38,5.74
			c-0.27,4.15-0.67,8.3-0.74,12.45c-0.3,17.91-0.53,35.83-0.72,53.74c-0.16,14.39-0.7,28.76-1.44,43.14
			c-0.56,10.86-0.89,21.73-1.07,32.61c-0.21,13.11-0.15,26.23-0.2,39.34c-0.03,8.64-0.03,17.27-0.09,25.91
			c-0.05,7.34-0.52,14.69-0.18,22c0.8,17.62-1.19,35.13-1.65,52.7c-0.02,0.64-0.17,1.27-0.19,1.91c-0.26,6.39-0.53,12.78-0.75,19.17
			c-0.09,2.55,0.2,5.15-0.13,7.66c-0.98,7.63-1.02,15.31-1.62,22.96c-0.63,7.98-0.88,15.96-0.74,23.97
			c0.08,4.78,0.41,9.58-0.91,14.31c-0.42,1.49-0.3,3.18-0.22,4.76c0.24,4.82-0.08,9.58-0.92,14.33c-0.39,2.19-0.56,4.46-0.53,6.68
			c0.26,19.88-2.29,39.59-3.94,59.33c-1.23,14.66-1.71,29.38-3.29,44.01c-1.31,12.1,0.19,24.3-1.29,36.4
			c-0.15,1.26,0.03,2.56,0.07,3.83c0.25,7.99,0.18,15.98-0.58,23.95c-0.27,2.86-0.47,5.74-0.53,8.62
			c-0.24,12.15-0.32,24.3-0.65,36.45c-0.33,12.46-1.15,24.9-1.1,37.37c0.03,7.99,0.02,15.98,0.01,23.98c0,3.51-0.3,7.05-0.03,10.54
			c1.08,14.05,1.28,28.1,0.79,42.18c-0.1,2.87-0.09,5.76,0.19,8.61c0.41,4.16,0.58,8.29,0.14,12.45c-0.2,1.9-0.24,3.83-0.23,5.75
			c0.11,12.47,0.17,24.95,0.41,37.42c0.19,9.58-0.06,19.2,1.57,28.71c0.43,2.51,0.54,5.09,0.61,7.65c0.3,12.15,0.52,24.3,0.78,36.45
			c0.18,8.63,0.35,17.25,0.58,25.88c0.05,1.92,0.19,3.85,0.51,5.73c0.72,4.12,0.9,8.25,0.93,12.42c0.08,8.63,0.14,17.24,1.54,25.81
			c0.62,3.76,0.57,7.65,0.65,11.49c0.32,14.08,0.72,28.15,2.8,42.11c0.28,1.89,0.53,3.84,0.38,5.73
			c-1.11,14.42,0.39,28.74,1.38,43.09c0.38,5.52,2.34,7.31,7.89,7.41c5.43,0.1,10.88-0.3,16.12,1.72c1.15,0.44,2.53,0.48,3.79,0.44
			c6.44-0.22,12.75,0.95,19.11,1.56c2.86,0.27,5.75,0.81,8.6,0.67c7.39-0.35,14.69,0.6,22.01,1.22c1.59,0.13,3.2,0.46,4.78,0.36
			c9.63-0.61,19.13,1.23,28.72,1.43c5.07,0.1,10.08,1.55,15.23,0.33c1.5-0.35,3.18,0.08,4.77,0.14c5.75,0.22,11.5,0.47,17.25,0.65
			c4.17,0.13,8.33,0.34,12.25,1.92c2.75,1.11,5.53,1.47,8.45,1.02c1.26-0.2,2.63-0.55,3.8-0.25c5.74,1.46,11.45,0.29,17.17,0.04
			c2.24-0.1,4.53-0.4,6.7-0.03c5.12,0.86,10.23,0.46,15.33,0.29c10.57-0.35,21.1,0.09,31.63,0.99c10.51,0.9,21.02,1.68,31.62,1.2
			c7.31-0.33,14.67-0.34,22.04,0.36c5.35,0.51,10.82,1.35,16.24,0.54c3.53-0.53,6.99-0.5,10.51-0.04c3.81,0.5,7.58,0.29,11.44-0.15
			c7.38-0.85,19-1.13,24.65,1.63c3.32,1.62,6.7,1.81,10.14-0.03c1.06-0.57,2.48-0.59,3.74-0.64c8.32-0.31,16.66-0.45,24.91,0.76
			c4.16,0.61,8.23,0.56,12.41,0.35c13.09-0.65,26.19-1.4,39.29,0.29c3.45,0.45,7.01,0.07,10.52,0c1.59-0.03,3.19-0.39,4.78-0.36
			c11.18,0.21,22.34,1.35,33.54,1.04c7.58,1.7,15.28,0.92,22.93,1.21c10.22,0.39,20.46,0.23,30.66,1.27
			c2.54,0.26,5.11,0.25,7.66,0.26c8,0.03,16,0.03,23.99,0.01c2.9-0.01,5.77,0.13,8.48,1.28c2.46,1.04,4.89,1.21,7.45,0.25
			c4.3-1.6,8.78-1.42,13.28-1.16c7.02,0.4,14.06,0.67,21.09,1.01c2.55,0.12,5.12,0.18,7.66,0.45c5.74,0.62,11.46,0.97,17.18-0.26
			c1.22-0.26,2.56-0.27,3.79-0.08c8.22,1.28,16.47,1.76,24.78,1.12c1.59-0.12,3.19,0.04,4.79,0.06c4.79,0.05,9.59,0.19,14.38,0.12
			c5.45-0.08,10.89-0.08,16.2,1.38c3.12,0.86,6.26,0.98,9.5,0.77c5.09-0.33,10.21-0.48,15.31-0.44c11.51,0.09,23.02,0.35,34.52,0.51
			c2.56,0.03,5.12-0.01,7.67-0.14c7.37-0.39,14.69-0.19,22.02,0.8c5.37,0.72,10.8,1.43,16.2-0.1c0.88-0.25,1.97-0.22,2.83,0.06
			c4.68,1.56,9.57,0.43,14.29,1.27c3.88,0.69,7.64-0.62,11.45-0.53c4.14,0.09,8.27,0.79,12.41,1.1c1.25,0.09,2.54-0.29,3.81-0.37
			c4.17-0.26,8.28-0.2,12.36,1.04c4.03,1.22,8.17,1.49,12.33,0.48c2.22-0.54,4.42-0.35,6.66,0.09c1.55,0.31,3.17,0.38,4.76,0.38
			c8.63-0.04,17.26-0.23,25.89-0.21c9.27,0.03,18.54,0.25,27.82,0.36c4.47,0.05,8.94-0.36,13.35,0.91c1.49,0.43,3.17,0.22,4.77,0.24
			c3.83,0.06,7.66,0.06,11.49,0.12c8.64,0.14,17.27,0.48,25.91,0.41c7.05-0.05,14.08-0.07,21.08,0.78c3.19,0.38,6.34,0.3,9.56,0.03
			c6.37-0.54,12.77-0.83,19.06,0.84c2.86,0.76,5.6,0.51,8.5-0.14c4.37-0.98,8.86-0.98,13.36-0.65c7.96,0.57,15.88,1.88,23.91,1.14
			c1.56-0.14,3.21,0.11,4.76,0.46c10.03,2.25,20.29,1.62,30.43,2.58c1.88,0.18,3.9,0.03,5.71-0.48c3.52-0.98,6.92-0.8,10.42-0.02
			c1.86,0.41,3.81,0.39,5.72,0.53c5.1,0.37,10.27,0.33,15.29,1.18c7.37,1.25,14.66,0.94,21.99,0.1c10.26-1.18,20.38-0.76,30.51,1.52
			c8.14,1.84,16.41,2.28,24.58-0.36c1.18-0.38,2.52-0.38,3.78-0.36c2.23,0.02,4.48,0.38,6.7,0.25c4.84-0.28,9.58,0.15,14.28,1.28
			c3.11,0.74,6.28,1.22,9.36,2.07c3.19,0.88,6.29,0.89,9.45,0.01c2.46-0.69,4.99-1.16,7.45-1.85c3.22-0.9,6.34-0.59,9.43,0.49
			c1.2,0.42,2.37,0.97,3.54,1.48c1.85,0.8,3.77,1.07,5.54,0.03c4.68-2.73,9.75-2.87,14.87-2.19c2.56,0.34,5.07,0.48,7.64,0.32
			c2.22-0.13,4.5-0.18,6.69,0.14c4.75,0.69,9.6-0.31,14.32,1.05c1.1,0.32,2.5-0.26,3.73-0.52c13.61-2.86,27.24-3.52,40.87-0.22
			c5.31,1.29,10.63,1.85,16.14,1.81c7.01-0.05,14.09,0.14,21.01,1.53c3.21,0.64,6.3,0.78,9.5,0.23c1.89-0.32,3.82-0.47,5.73-0.49
			c3.86-0.06,7.66-0.3,11.29-1.84c2.11-0.89,4.44-1.08,6.59-0.34c4.65,1.6,9.43,1.51,14.22,1.67c2.54,0.08,5.08,0.47,7.59,0.91
			c1.92,0.34,3.79,0.52,5.7,0.06c6.64-1.58,13.33-1.13,19.97-0.27c4.77,0.62,9.49,1.24,14.32,0.8c7.4-0.68,14.69,0.23,21.86,2.07
			c2.82,0.72,5.64,1.04,8.54,0.94c8.39-0.28,16.49,1.62,24.57,3.51c2.87,0.67,5.65,1.05,8.52,0.41c2.5-0.55,4.97-1.15,7.58-0.65
			c6.28,1.19,12.75,0.8,18.98,2.59c3.37,0.97,6.96,0.81,10.49,0.35c1.89-0.25,3.82-0.48,5.71-0.34c9.87,0.73,19.74,1.62,29.61,2.38
			c2.89,0.22,5.8,0.45,8.43,1.68c4.53,2.12,9.22,2.34,14.08,1.85c9.57-0.97,19.17-0.16,28.75-0.4c4.13-0.1,8.28,0.37,12.37,1.39
			c2.45,0.61,5.05,0.77,7.59,0.88c8.29,0.36,16.62,0,24.83,1.87c2.44,0.56,5.1,0.11,7.65,0.2c3.2,0.11,6.51-0.21,9.56,0.54
			c8.12,1.98,16.36,2.62,24.65,3.33c8.27,0.71,16.65,0.11,24.83,1.9c0.61,0.13,1.28,0.08,1.92,0.04c9.63-0.62,19.15,1.09,28.74,1.26
			c1.27,0.02,2.58,0.11,3.81,0.41c5.64,1.35,11.37,1.72,17.14,1.74c3.89,0.02,7.66,0.57,11.1,2.55c2.4,1.38,4.76,1.7,7.21,0.1
			c1.37-0.9,2.95-1.32,4.58-1.06c4.46,0.7,8.93,0.48,13.41,0.48c2.53-0.01,5.15,0.28,7.56,1.01c4.09,1.23,8.2,1.53,12.34,0.97
			c5.13-0.7,10.2-0.49,15.31-0.02c5.1,0.46,10.2,0.87,15.31,1.2c1.9,0.12,3.85,0.18,5.73-0.09c5.77-0.84,11.47-0.19,17.21,0.33
			c8.28,0.76,16.58,1.29,24.88,1.84c1.25,0.08,2.54-0.19,3.8-0.38c1.82-0.28,3.46-2.31,3.14-4.2c-0.83-4.8-0.74-9.5,0.58-14.23
			c0.5-1.78,0.48-3.85,0.15-5.68c-0.69-3.84-0.45-7.62-0.11-11.46c0.42-4.76,1.12-9.53-0.1-14.32c-0.3-1.19,0-2.54,0.05-3.82
			c0.31-8.63,0.63-17.26,0.94-25.89c0.03-0.96,0.16-1.95-0.02-2.87c-1-5.09-0.32-10.21-0.24-15.31c0.08-5.12,0.75-10.26,0.38-15.34
			c-0.61-8.54,0.53-17.28-2.69-25.56c-0.45-1.16-0.55-2.51-0.6-3.78c-0.16-4.47-0.38-8.95-0.29-13.41c0.09-4.5,0.11-8.97-1.24-13.31
			c-0.98-3.12-1.13-6.25-0.67-9.47c1.32-9.18,0.76-18.49,1.86-27.72c0.49-4.07,0.1-8.27,0.74-12.4c0.19-1.23,0.22-2.7-0.29-3.78
			c-1.9-4.02-1.28-8.08-0.81-12.22c0.32-2.85,0.06-5.76,0.34-8.62c0.35-3.55-0.09-6.98-0.52-10.49c-0.61-5.06-1.13-10.22-0.82-15.28
			c0.43-7.01-0.08-14.09,1.39-21.05c0.32-1.52,0.02-3.18-0.05-4.77c-0.12-2.87-0.25-5.73-0.45-8.59c-0.16-2.23-0.32-4.47-0.7-6.67
			c-0.59-3.47-1.19-6.91-0.9-10.48c0.13-1.56-0.14-3.21-0.53-4.74c-1.06-4.11-0.81-8.17-0.45-12.36c0.61-6.99,0.95-14-1.18-20.93
			c-1.13-3.68-1.02-7.61,0.1-11.38c0.65-2.19,0.66-4.38,0.46-6.64c-0.2-2.21-0.14-4.46-0.05-6.69c0.19-4.79,0.52-9.57,0.69-14.36
			c0.06-1.58,0.19-3.31-0.34-4.75c-1.71-4.66-1.46-9.43-1.41-14.23c0.07-6.08-0.1-12.11-0.98-18.17
			c-0.73-5.02-1.05-10.26-0.47-15.28c0.74-6.36,0.94-12.75,1.53-19.11c0.23-2.52,0.15-5.11-0.18-7.62
			c-1.07-8.22-2.34-16.42-3.48-24.64c-0.17-1.25-0.33-2.59-0.06-3.79c1.52-6.7,0.42-13.38-0.14-20.04c-0.21-2.57-0.35-5.06,0-7.63
			c1.03-7.62,1.42-15.28,1.21-22.97c-0.07-2.56-0.07-5.14-1.12-7.54c-1.47-3.37-1.49-6.82-0.76-10.35c0.78-3.8,0.61-7.53,0.02-11.41
			c-0.81-5.33-1.58-10.76-0.56-16.22c0.23-1.23,0.05-2.54,0-3.82c-0.28-7.33-1.03-14.68,1.75-21.79c0.71-1.82,0.26-3.78-0.14-5.68
			c-0.59-2.81-1.55-5.64-1.56-8.46c-0.01-6.07-0.91-12.14-0.02-18.2c0.29-1.95,0.22-3.86-0.63-5.64c-2.19-4.6-1.84-9.3-0.83-14.08
			c0.46-2.18,0.93-4.41,1.01-6.62c0.24-6.07,0.24-12.15,0.4-18.22c0.06-2.28-0.17-4.49-1.19-6.53c-0.92-1.83-1.14-3.61-0.22-5.49
			c1.01-2.05,1.32-4.24,1.42-6.51c0.09-1.91,0.18-3.88,0.73-5.69c0.97-3.21,0.64-6.3,0.01-9.48c-0.49-2.5-1.13-5.03-1.14-7.56
			c-0.04-7.03-0.25-14.07,0.05-21.07c0.28-6.71,0.28-13.4,0.29-20.11c0-4.47-0.45-8.96,0.74-13.37c0.24-0.9,0.29-1.96,0.06-2.85
			c-1.17-4.47-0.63-8.86,0.22-13.29c0.36-1.85,0.16-3.82,0.17-5.74c0.01-3.2,0.04-6.39-0.06-9.58c-0.06-1.9-0.1-3.87-0.59-5.69
			c-0.86-3.23-0.93-6.28,0.63-9.32c1.51-2.92,1.64-5.98,1.51-9.29c-0.31-7.96-1.18-15.92-0.46-23.9c0.23-2.56,0.07-5.08-0.49-7.62
			c-0.33-1.51-0.23-3.17-0.03-4.73c1.45-11.18,1.02-22.31-0.78-33.42c-0.35-2.18-0.63-4.49-0.3-6.65c0.79-5.16,0.11-10.2-0.62-15.27
			c-0.23-1.58-0.77-3.15-0.77-4.72c0.01-7.35,0.15-14.69,0.27-22.04c0.13-8,0.33-15.99,0.43-23.99c0.02-1.58-0.21-3.19-0.47-4.76
			c-1.04-6.3-2.5-12.59-0.18-18.92c-0.88-7.02,2.36-13.89,0.72-20.96c-0.2-0.87,0.02-1.96,0.36-2.82c1.47-3.74-0.47-7.88,0.9-11.34
			c1.77-4.47-0.21-8.04-1.25-11.94c-0.08-0.3-0.09-0.64-0.08-0.95c0.08-5.75-0.9-11.52,0.15-17.24c0.6-3.27-0.73-6.36-0.55-9.53
			c0.2-3.5,0.76-6.97,1.14-10.46c0.03-0.31-0.03-0.64-0.07-0.96c-0.57-4.14-0.7-8.27-0.26-12.44c0.16-1.54-0.12-3.2-0.53-4.72
			c-0.86-3.21-0.94-6.28,0.52-9.35c1.42-2.97,1.4-6.1,1.25-9.37c-0.39-7.97-0.95-15.94-0.68-23.93c0.09-2.52-0.44-5.07-0.65-7.6
			c-0.1-1.26-0.36-2.56-0.16-3.78c1.56-9.58,0.86-19.18-0.18-28.69c-0.63-5.71-1.99-11.27-1-17.09c0.31-1.82-0.17-3.83-0.53-5.71
			c-1.13-5.98-1.6-12-1.44-18.08c0.02-0.64-0.03-1.28-0.1-1.92c-0.41-3.83-0.01-7.66-0.02-11.48c-0.04-11.47,1.21-23.01-1.31-34.4
			c-0.27-1.25-0.5-2.52-0.58-3.79c-0.09-1.58-0.35-3.28,0.09-4.74c1.24-4.09,0.67-8.26,0.98-12.38c0.33-4.43,1.67-8.78,0.44-13.31
			c-0.31-1.13,0.34-2.5,0.46-3.77c0.19-1.9,0.66-3.85,0.39-5.7c-0.38-2.64,0.22-5.03,0.76-7.54c0.95-4.38,1.31-8.83,0.92-13.34
			c-0.44-5.09-0.58-10.22-1.08-15.3c-0.41-4.19-0.22-8.27,0.77-12.37c0.43-1.82,0.81-4,0.2-5.65c-1.75-4.78-0.97-9.41-0.27-14.18
			c1.11-7.59,2.16-15.18,1.56-22.92c-0.27-3.47,0.06-7.05,0.59-10.5c1.27-8.29,0.99-16.57,0.2-24.86c-0.12-1.27-0.53-2.51-0.63-3.78
			c-0.14-1.9-0.47-3.88-0.1-5.7c0.91-4.49,0.57-8.87-0.14-13.34c-0.9-5.7-1.03-11.47-0.32-17.21c0.31-2.52,1.41-5.01,1.39-7.51
			c-0.07-7.66,2.73-15.15,1.19-22.88c-0.24-1.19,0.23-2.53,0.38-3.8c0.22-1.91,0.54-3.81,0.65-5.72c0.23-3.83,0.16-7.65,1.46-11.37
			c0.86-2.48,0.62-5.18-0.47-7.52c-2.29-4.93-0.75-10.12-1.33-15.15c-0.1-0.88,0.23-1.97,0.71-2.74c1.88-2.97,1.15-6.17,1.16-9.34
			c0.01-3.45-1.49-4.43-4.66-4.77c-2.53-0.27-5.11-0.38-7.66-0.25c-8.65,0.45-17.27-0.04-25.89-0.67
			c-9.25-0.67-18.47-1.76-27.77-1.49c-3.19,0.09-6.39,0.07-9.59,0.05c-2.24-0.01-4.59,0.33-6.68-0.25
			c-6.32-1.76-12.64-1.55-19.05-0.89c-1.89,0.19-3.83-0.1-5.74-0.17c-8.95-0.32-17.92-1.19-26.85-0.83
			c-16.95,0.68-33.89-0.82-50.82,0.26c-1.27,0.08-2.56-0.11-3.83-0.15c-2.87-0.11-5.74-0.23-8.61-0.3
			c-6.07-0.17-12.22,0.25-18.2-0.6c-9.25-1.31-18.49-1.26-27.76-1.28c-9.59-0.02-19.18,0.04-28.77-0.03
			c-2.22-0.02-4.56-0.06-6.62-0.75c-5.32-1.78-10.73-1.88-16.14-1.26c-8,0.92-15.96,0.6-23.96,0.14
			c-7.35-0.43-14.68-0.36-22.03,0.52c-3.78,0.45-7.73,0.55-11.47-0.01c-5.43-0.81-10.85-1.01-16.27-0.7
			c-9.62,0.54-19.14-0.81-28.68-1.35c-9.26-0.53-18.5-1.21-27.78-1.05c-10.87,0.2-21.76-0.5-32.59,0.98
			c-1.88,0.26-3.84,0.12-5.74-0.1c-3.53-0.41-6.99-0.29-10.51,0.25c-2.83,0.44-5.73,0.55-8.6,0.49c-9.6-0.2-19.18,0.08-28.77,0.73
			c-5.73,0.39-11.55,0.61-17.24,0.04c-7.01-0.7-14.03-0.91-21.03-1.56c-8.64-0.8-17.26-0.5-25.84,0.69
			c-7.68,1.07-15.29,0.77-22.92-0.44c-2.83-0.45-5.72-0.58-8.59-0.61c-7.35-0.07-14.69-0.02-22.04-0.2
			c-10.23-0.24-20.42-0.99-30.58-2.03c-6.7-0.68-13.39-0.85-20.1-1.05c-9.25-0.27-18.46-0.46-27.73,0.01
			c-10.84,0.55-21.74,0.01-32.62-0.13c-2.87-0.04-5.81,0.05-8.58-0.57c-8.27-1.85-16.57,0.33-24.82-0.45
			c-0.31-0.03-0.63,0.08-0.94,0.17c-6.95,1.99-13.94,1.52-20.92,0.25c-2.24-0.41-4.42-0.44-6.65,0.01
			c-5.72,1.16-11.48,0.96-17.14-0.28c-3.81-0.83-7.59-0.83-11.44-0.84c-6.69-0.01-13.43,0.94-20.06-0.74
			c-6.39,0.24-12.76-0.1-19.09-1.03c-5.39,1.62-10.73,0.18-16.09-0.24c-2.23-0.18-4.48-0.23-6.71-0.21
			c-7.68,0.08-15.35,0.33-23.01-0.45c-1.58-0.16-3.22-0.12-4.79,0.08c-7.66,1-15.33-0.17-23,0.21c-1.57,0.08-3.2-0.22-4.74-0.61
			c-3.17-0.81-6.3-0.59-9.52-0.37c-8.3,0.57-16.6,0.96-24.88-0.47c-2.18-0.38-4.45-0.24-6.68-0.27c-2.87-0.03-5.75-0.03-8.62,0.03
			c-9.28,0.18-18.48-1.85-27.78-1.04c-0.93,0.08-1.93-0.09-2.84-0.35c-3.15-0.89-6.3-0.62-9.52-0.4
			c-7.03,0.49-14.16,0.72-21.03-0.75c-6.37-1.37-12.74-1.56-19.08-1.23c-8.36,0.43-16.62-0.05-24.89-0.95
			c-3.52-0.38-6.99-0.3-10.52,0.03c-5.4,0.51-10.85,0.95-16.27,0.89c-3.8-0.04-7.58-1.37-11.38-1.37c-4.12,0-8.25,1.22-12.41,0.69
			c-9.51-1.22-19.18-0.53-28.64-2.52c-2.47-0.52-5.09-0.34-7.65-0.39c-9.92-0.16-19.83-0.2-29.75-0.45
			c-9.25-0.23-18.47-1.32-27.77-0.76c-5.41,0.33-10.87-0.24-16.31-0.32c-9.6-0.13-19.2-0.13-28.79-0.29
			c-7.99-0.13-15.98-0.51-23.97-0.58c-12.8-0.11-25.6,0.03-38.39-0.11c-6.39-0.07-12.81-0.27-19.17-0.85
			c-4.8-0.43-9.53-0.72-14.35-0.31c-2.83,0.24-5.8,0.18-8.57-0.39c-3.84-0.79-7.61-0.74-11.45-0.43c-2.55,0.21-5.12,0.29-7.67,0.24
			c-14.07-0.26-28.13-0.55-42.2-0.87c-9.26-0.21-18.49-1.14-27.77-1.34c-10.23-0.22-20.44-0.67-30.68-0.13
			c-6.06,0.32-12.2,0.77-18.19,0.09c-9.6-1.08-19.15-0.91-28.75-0.5c-1.92,0.08-3.84,0.19-5.76,0.14
			c-15.98-0.37-31.98-0.51-47.91-2.15c-2.22-0.23-4.48-0.37-6.71-0.29c-5.1,0.18-10.17,1-15.29-0.17c-1.46-0.33-3.14,0.38-4.72,0.52
			c-4.13,0.38-8.28,1.06-12.41,0.98c-6.05-0.11-12.09-0.87-18.15-1.17c-6.7-0.34-13.4-0.57-20.11-0.67
			c-4.15-0.06-8.3,0.28-12.45,0.33c-19.51,0.25-39.01-0.8-58.53-0.23c-7.62,0.22-15.35,0.28-22.94-1.3
			c-4.1-0.85-8.34-0.91-12.42-0.13c-6.38,1.22-12.78,0.74-19.14,0.63c-4.45-0.08-8.9-0.34-13.37-0.4
			c-7.97-0.11-15.92-1.15-23.91-0.06c-1.53,0.21-3.16-0.35-4.75-0.45c-8.26-0.48-16.51-2.4-24.8-0.15c-0.9,0.25-1.91,0.15-2.86,0.15
			c-7.99-0.02-15.98-0.11-23.96-0.06C1828.49,71.79,1813.46,71.96,1798.42,72.1z M1725.7,2013.4c-0.33,3.81-0.67,7.61-0.98,11.42
			c-0.09,1.1,1.06,2.56,2.18,2.81c2.18,0.47,4.42,0.72,6.52,1.41c2.79,0.93,5.6,1.21,8.5,1.22c9.6,0.05,19.19,0.15,28.79,0.28
			c2.55,0.03,5.1,0.32,7.65,0.36c6.38,0.11,12.79,0.52,19.15,0.09c5.77-0.39,11.48-0.64,17.23-0.09c1.9,0.18,3.84,0.25,5.74,0.08
			c2.6-0.23,5.11-0.06,7.56,0.83c2.18,0.79,4.34,0.7,6.6,0.22c6.88-1.44,13.78-2.79,20.88-1.45c1.2,0.22,2.52-0.22,3.78-0.34
			c1.9-0.17,3.79-0.37,5.69-0.48c6.67-0.37,13.33-1.54,20.03-0.01c1.18,0.27,2.53-0.26,3.8-0.35c1.27-0.09,2.58-0.3,3.82-0.1
			c6.4,1,12.77-0.04,19.14-0.28c3.87-0.14,7.63-0.3,11.41,0.66c1.84,0.46,3.79,0.79,5.68,0.73c7.66-0.25,15.32-0.71,22.98-1
			c2.55-0.1,5.12-0.07,7.66,0.17c4.46,0.42,8.93,0.83,13.32,1.67c4.59,0.87,8.88,0.63,13.04-1.56c2.36-1.24,4.86-1.3,7.47-0.85
			c7.25,1.25,14.53,2.23,21.93,1.59c0.32-0.03,0.64,0.06,0.96,0.05c9.26-0.14,18.52-0.02,27.76-0.74c1.57-0.12,3.27-0.19,4.74,0.27
			c4.47,1.38,8.81,1.02,13.23-0.14c2.16-0.57,4.39-0.91,6.61-1.15c1.89-0.21,3.86-0.43,5.71-0.13c5.35,0.86,10.84,1.16,15.94,3.26
			c2.47,1.02,4.94,1.2,7.46,0.19c2.45-0.98,4.89-0.96,7.5-0.4c11.42,2.45,22.83,2.54,34.15-0.77c1.2-0.35,2.58-0.68,3.76-0.43
			c4.15,0.87,8.28,0.48,12.43,0.25c2.26-0.12,4.48,0.08,6.58,1.01c2.45,1.08,4.93,1.14,7.49,0.41c3.5-1,6.94-0.53,10.4,0.45
			c1.81,0.51,3.8,0.9,5.64,0.7c7.67-0.83,15.34-0.28,23.01-0.27c3.26,0,6.31-0.28,9.31-1.72c1.67-0.8,3.67-1.19,5.53-1.23
			c3.51-0.08,7.02,0.21,10.53,0.39c4.77,0.24,9.51,1.12,14.34,0.18c1.81-0.35,3.82,0.02,5.7,0.33c3.84,0.62,7.64,0.61,11.45-0.16
			c4.4-0.89,8.78-1.69,13.28-0.42c1.16,0.33,2.56,0.13,3.79-0.13c2.87-0.63,5.69-0.47,8.57-0.08c2.2,0.3,4.49,0.42,6.69,0.19
			c5.13-0.52,10.24-0.28,15.33,0.18c3.23,0.3,6.43,0.28,9.53-0.51c4.77-1.21,9.46-1.35,14.2-0.03c0.92,0.26,1.9,0.24,2.85,0.41
			c4.78,0.84,9.53,0.87,14.29-0.26c2.17-0.51,4.4-0.94,6.62-1.05c7.34-0.35,14.69-0.54,22.03-0.85c9.24-0.4,18.52,0.22,27.75-0.94
			c0.94-0.12,1.92-0.01,2.87,0.09c10.21,1.07,20.44,0.76,30.68,0.7c8.3-0.05,16.61,0.53,24.92,0.94c1.56,0.08,3.2,0.46,4.63,1.1
			c2.8,1.25,5.47,1.58,8.29,0.14c2.08-1.06,4.31-1.19,6.5-0.29c3.35,1.38,6.77,1.67,10.35,1.2c1.56-0.2,3.18,0.25,4.77,0.21
			c6.01-0.15,12.03,1.47,18.05-0.55c1.67-0.56,3.83-0.03,5.67,0.4c5.74,1.32,11.45,1.17,17.14-0.03c2.87-0.6,5.68-0.56,8.57-0.31
			c5.43,0.47,10.86,0.5,16.26-0.46c4.14-0.74,8.27-0.76,12.34,0.53c2.17,0.69,4.39,0.83,6.63,0.35c5.68-1.22,11.4-1.24,17.18-0.91
			c4.13,0.24,8.3,0.6,12.42-0.49c1.21-0.32,2.55-0.32,3.81-0.2c5.11,0.47,10.21,0.09,15.31,0.13c7.96,0.06,15.93,0.69,23.9,0.95
			c6.06,0.2,12.14,0.32,18.13-0.11c7.42-0.54,14.67-0.16,21.97,0.91c1.88,0.27,3.89,0.75,5.66,0.35c3.28-0.73,6.34-0.16,9.49,0.45
			c2.18,0.42,4.46,0.99,6.61,0.75c8.89-0.98,17.78-1.9,26.72-2.18c0.32-0.01,0.64-0.06,0.95-0.11c6.45-0.95,12.75-0.64,18.83,1.99
			c2.4,1.04,4.89,1.27,7.5,0.63c6.85-1.68,13.83-2.34,20.87-2.8c14.09-0.92,28.12-1.07,42.05,1.7c1.24,0.25,2.54,0.35,3.81,0.36
			c15.02,0.15,30.04,0.92,45.07,0.45c2.55-0.08,5.11,0.15,7.67,0.28c6.06,0.32,12.11,1.01,18.2,0.26c1.25-0.15,2.55-0.01,3.82,0.1
			c8.6,0.76,17.19,1.51,25.84,0.57c1.56-0.17,3.19,0.1,4.76,0.35c2.84,0.46,5.66,1.03,8.48,1.62c2.86,0.59,5.75,0.89,8.55,0.01
			c5.93-1.87,11.99-1.65,18.07-1.52c2.54,0.05,5.21,0.16,7.6-0.52c4.16-1.18,8.14-1.31,12.24,0.05c3.47,1.15,6.89,0.8,10.31-0.55
			c1.74-0.69,3.7-1.06,5.57-1.1c8.95-0.18,17.9-0.24,26.86-0.25c1.9,0,3.91,0.02,5.69,0.6c5.36,1.72,10.64,1.54,16.09,0.47
			c4.05-0.8,8.3-1.48,12.37-1.17c12.45,0.95,24.91,1.06,37.37,1.51c2.56,0.09,5.11,0.27,7.66,0.43c5.1,0.33,10.2,0.8,15.31,1
			c5.1,0.2,10.24,0.48,15.32,0.12c6.09-0.44,12.14-0.03,18.21-0.01c3.83,0.01,7.69-0.06,11.48,0.36c5.07,0.57,10.12,1.45,15.13,2.45
			c3.2,0.64,6.31,1,9.45-0.07c2.86-0.97,5.69-0.74,8.45,0.35c4.25,1.68,8.5,2.55,13.08,1.16c1.78-0.54,3.81-0.31,5.72-0.32
			c3.21-0.01,6.39-0.12,9.49-1.13c4.08-1.33,8.25-1.21,12.32-0.16c4.63,1.19,9.41,1.76,13.93,3.49c3.01,1.15,6.15,1.41,9.43,0.67
			c4.09-0.92,8.25-0.86,12.38,0.07c1.24,0.28,2.57,0.74,3.77,0.55c4.86-0.74,9.53,0.56,14.28,1.02c4.77,0.46,9.57,0.56,14.35,0.87
			c1.9,0.12,3.86,0.16,5.67,0.66c3.45,0.94,6.93,1.04,10.46,1.07c7.05,0.06,14.02,0.63,20.92,2.37c4.63,1.16,9.4,1.81,14.23,1.97
			c2.85,0.09,5.7,0.66,8.5,1.27c2.88,0.63,5.69,0.9,8.49-0.17c4.96-1.9,10.03-1.72,15.13-0.8c6.63,1.19,13.3,1.79,20.04,1.88
			c2.23,0.03,4.48,0.18,6.67,0.56c8.5,1.47,16.98,2.82,25.68,2.11c2.5-0.2,5.07,0.51,7.61,0.81c3.17,0.38,6.34,0.94,9.52,1.14
			c4.01,0.25,7.42-2.97,7.54-7.07c0.12-4.15-0.03-8.31,0.05-12.46c0.04-1.9,0.01-3.93,0.65-5.67c1.73-4.65,1.62-9.37,1.42-14.2
			c-0.32-7.34-0.74-14.71,1.31-21.93c0.72-2.53,0.61-5.06-0.15-7.57c-0.83-2.78-1.2-5.62-1.1-8.53c0.11-3.51,0.12-7.03,0.24-10.54
			c0.04-1.27,0.07-2.61,0.46-3.79c1.35-4.01,1.37-8.17,1.73-12.31c0.23-2.54,0.18-5.29,1.15-7.56c2.25-5.26,1.89-10.6,1.54-16.02
			c-0.14-2.23-0.34-4.48-0.2-6.71c0.16-2.54,0.26-5.2,1.1-7.55c1.78-4.95,2.38-9.89,1.5-15.08c-0.27-1.56-0.19-3.19-0.13-4.78
			c0.25-6.39,0.5-12.78,0.85-19.17c0.14-2.55,0.21-5.18,0.9-7.6c3.4-11.81,3.33-24.02,4.3-36.1c0.28-3.54,0.49-6.94,1.8-10.27
			c1.06-2.7,1.31-5.49,0.67-8.46c-1.08-5.03-0.97-10.17-0.73-15.29c0.15-3.2,0.54-6.4,0.42-9.58c-0.15-3.88-0.24-7.64,1.67-11.22
			c0.57-1.06,0.79-2.51,0.64-3.72c-0.54-4.52,0.51-8.93,0.75-13.39c0.12-2.23,0.46-4.54,0.03-6.68c-0.84-4.13-0.58-8.27-0.86-12.41
			c-0.23-3.27-0.01-6.32,1.58-9.28c0.57-1.07,0.98-2.58,0.69-3.68c-0.86-3.2-0.17-6.36-0.26-9.53c-0.11-3.78-3.24-7.51-7.02-8.09
			c-3.46-0.54-6.99-0.68-10.5-0.93c-2.87-0.21-5.75-0.25-8.61-0.49c-4.14-0.34-8.27-0.85-12.42-1.18
			c-5.41-0.43-10.86-0.58-16.25-1.18c-7.63-0.84-15.22-1.84-22.93-1.78c-2.85,0.02-5.79-0.28-8.55-0.99
			c-4.09-1.04-8.19-1.23-12.36-1.2c-6.4,0.05-12.79-0.18-19.08-1.61c-1.86-0.42-3.81-0.6-5.71-0.61c-8-0.04-15.98-0.34-23.88-1.76
			c-0.94-0.17-1.91-0.12-2.87-0.14c-7.35-0.15-14.7-0.27-22.04-0.46c-1.59-0.04-3.17-0.41-4.76-0.56
			c-6.69-0.62-13.37-1.54-20.07-1.7c-5.47-0.13-10.85-0.56-16.21-1.55c-3.16-0.59-6.31-0.98-9.54-0.64
			c-1.58,0.17-3.19,0.1-4.79,0.05c-5.11-0.15-10.22-0.34-15.33-0.52c-7.03-0.25-14.06-0.29-21.04-1.49
			c-3.13-0.53-6.38-0.67-9.56-0.55c-11.51,0.43-23.01-0.54-34.52-0.31c-2.23,0.05-4.48-0.07-6.71-0.25
			c-19.45-1.57-38.96-1.69-58.45-2.36c-7.34-0.25-14.68-0.41-22.02-0.9c-6.38-0.42-12.8-0.74-19.18-0.49
			c-10.23,0.4-20.45-0.59-30.67,0.19c-0.95,0.07-1.92-0.09-2.88-0.11c-10.55-0.22-21.1-0.45-31.65-0.64
			c-1.59-0.03-3.19,0.2-4.79,0.2c-3.83,0.01-7.66,0.02-11.49-0.07c-3.51-0.08-7.03-0.31-10.54-0.46
			c-5.43-0.23-10.86-0.42-16.29-0.66c-1.59-0.07-3.18-0.35-4.78-0.37c-11.18-0.13-22.37-0.16-33.55-0.32
			c-12.15-0.18-24.29-0.5-36.44-0.71c-7.36-0.13-14.69-0.42-22-1.32c-3.79-0.47-7.66-0.42-11.49-0.51
			c-2.23-0.05-4.47,0.14-6.71,0.11c-14.71-0.17-29.38-1.71-44.11-1.29c-1.27,0.04-2.55-0.17-3.83-0.25
			c-11.17-0.63-22.34-1.19-33.54-0.49c-1.91,0.12-3.87,0.24-5.73-0.09c-6.04-1.07-12.11-0.9-18.19-0.72c-2.24,0.07-4.49,0.19-6.71,0
			c-9.87-0.84-19.75-1.39-29.67-1.02c-2.23,0.08-4.47-0.22-6.71-0.32c-3.52-0.17-7.04-0.52-10.54-0.44
			c-19.19,0.45-38.33-1.21-57.51-0.96c-1.27,0.02-2.54-0.33-3.81-0.38c-2.86-0.12-5.73-0.2-8.6-0.23c-1.92-0.01-3.83,0.2-5.75,0.14
			c-5.43-0.18-10.86-0.53-16.29-0.64c-4.15-0.09-8.31,0.27-12.46,0.1c-9.27-0.38-18.52-0.98-27.78-1.46
			c-4.79-0.25-9.59-0.61-14.38-0.65c-23.99-0.19-47.98-0.31-71.97-0.4c-8.63-0.03-17.23-0.18-25.79-1.46
			c-2.52-0.38-5.12-0.64-7.65-0.49c-6.41,0.39-12.78-0.19-19.18-0.26c-10.54-0.12-21.11,0.54-31.6-1.05
			c-9.28,0.64-18.46-1.82-27.75-0.82c-15.02-0.77-30.04-0.42-45.07-0.53c-18.22-0.13-36.45-0.33-54.67-0.51
			c-1.28-0.01-2.57-0.02-3.83-0.21c-8.23-1.24-16.54-1.1-24.82-1.38c-11.81-0.4-23.62,0.04-35.44-0.76
			c-7.62-0.51-15.29-0.37-22.96-0.8c-7.61-0.42-15.34-0.75-23,0.24c-1.57,0.2-3.19,0.04-4.79-0.05
			c-19.82-1.14-39.66-0.86-59.49-1.05c-3.83-0.04-7.66-0.28-11.49-0.43c-7.97-0.32-15.95-0.65-23.92-0.96
			c-0.96-0.04-1.92,0.14-2.87,0.14c-5.75-0.01-11.51-0.02-17.26-0.08c-2.55-0.02-5.11-0.19-7.66-0.21c-4.8-0.03-9.6,0.07-14.39-0.01
			c-14.71-0.23-29.41-1.05-44.12-0.31c-0.96,0.05-1.93,0.13-2.88,0.06c-7.97-0.65-15.96-0.32-23.94-0.48
			c-7.67-0.15-15.32-0.98-22.99-1.31c-8.94-0.38-17.89-0.53-26.84-0.82c-6.07-0.2-12.14-0.39-18.21-0.71
			c-16.61-0.86-33.19-2.06-49.85-2.05c-8.61,0.01-17.3,0.2-25.82-1.61c-8.16-1.74-16.49-1.62-24.74-2.41
			c-1.91-0.18-3.84-0.28-5.75-0.17c-3.86,0.22-7.65,0.17-11.38-1.09c-1.18-0.4-2.6-0.65-3.77-0.39c-4.45,1-8.93-0.22-13.39,0.35
			c-1.54,0.2-3.23,0.1-4.73-0.29c-8.76-2.29-17.72-2.25-26.66-2.43c-2.62-0.05-4.91,1.86-5.27,4.61c-0.29,2.2-0.57,4.48-0.34,6.67
			c1.13,10.84,1.25,21.7,1.17,32.58c-0.07,9.6-0.03,19.2,0.05,28.79c0.04,4.8,0.17,9.59,1.23,14.31c0.41,1.85,0.45,3.8,0.56,5.71
			c0.21,3.83,0.25,7.67,0.53,11.5c0.99,13.07,1.33,26.16,1.35,39.27c0.02,9.27-0.35,18.54,0.54,27.81c0.52,5.4,0.47,10.86,0.51,16.3
			c0.1,12.14-0.18,24.28,0.79,36.41c0.13,1.58-0.24,3.19-0.22,4.78c0.09,5.42-0.87,10.85,0.01,16.26c0.58,3.6,0.13,6.95-1.28,10.3
			c-1.28,3.02-1.53,6.19-0.49,9.38c1.21,3.71,1.59,7.62,1.18,11.39c-1.04,9.56,1.44,19.16-0.52,28.68c-0.12,0.61-0.05,1.29,0.1,1.91
			c0.74,3.18,0.1,6.34,0.08,9.52c-0.02,3.14,1.15,6.28,1.36,9.44c0.19,2.85-0.1,5.75-0.4,8.6c-0.23,2.22-0.77,4.41-1.25,6.6
			c-0.48,2.21-0.75,4.4-0.31,6.65C1726.64,2002.55,1726.27,2007.98,1725.7,2013.4z M3922.08,150.4c0-5.99,0.18-10.48-0.05-14.94
			c-0.27-5.42-0.79-10.82-1.37-16.22c-0.31-2.84-2.29-4.59-4.85-5.39c-1.79-0.56-3.77-0.72-5.67-0.77
			c-6.07-0.14-12.15-0.11-18.23-0.21c-6.39-0.11-12.8,0.13-19.14-1.02c-1.25-0.23-2.55-0.24-3.83-0.23
			c-6.72,0.04-13.43,0.12-20.15,0.2c-8.63,0.1-17.27,0.43-25.9,0.25c-7.02-0.14-14.03-0.84-21.07-0.5c-2.54,0.12-5.12-0.13-7.64-0.5
			c-6.37-0.95-12.77-0.57-19.16-0.72c-0.95-0.02-1.91,0.2-2.86,0.34c-1.1,0.16-2.53,1.5-2.4,2.58c0.41,3.33-0.56,6.32-1.99,9.22
			c-0.42,0.86-0.99,1.65-1.37,2.53c-0.54,1.22-0.63,2.51,0.12,3.66c1.49,2.26,1.93,4.57,1.23,7.28c-0.55,2.13-0.68,4.43-0.64,6.64
			c0.14,8.6-1.22,17.24,0.48,25.81c0.06,0.31,0.05,0.64,0.02,0.96c-0.92,8.89-0.17,17.92-2.27,26.72c-0.51,2.15-0.54,4.44-0.56,6.67
			c-0.06,6.07-0.01,12.15,0.01,18.22c0.01,3.51-0.35,7.08,0.19,10.51c1,6.39,0.67,12.76,0.61,19.15c-0.04,3.84-0.15,7.67-0.18,11.51
			c-0.05,6.08-0.55,12.2,0.04,18.22c0.64,6.51-0.65,12.72-1.37,19.04c-0.14,1.27-0.22,2.55-0.24,3.83
			c-0.18,13.42-0.5,26.83,0.15,40.26c0.28,5.7,0.46,11.49-1.44,17.09c-0.48,1.43-0.19,3.15-0.13,4.72
			c0.15,3.83,0.89,7.71,0.47,11.47c-1,8.95-1.13,17.86-0.52,26.82c0.09,1.26-0.16,2.55-0.2,3.82c-0.1,2.86,0.26,5.81-0.36,8.55
			c-0.76,3.33,0.42,6.32,0.6,9.47c0.31,5.42,0.73,10.9,0.22,16.28c-0.33,3.52-0.84,6.89-0.13,10.42c0.3,1.51,0.16,3.23-0.23,4.74
			c-0.98,3.85-0.66,7.59,0.22,11.39c0.43,1.86,1.01,3.86,0.74,5.68c-0.9,6.1,0.36,12.11,0.28,18.17c-0.02,1.28,0.27,2.63-0.04,3.82
			c-1.54,5.85,0.02,11.41,1.31,17.02c0.5,2.17,1.17,4.36,1.22,6.56c0.1,4.14-0.32,8.29-0.28,12.44c0.04,4.47,1.17,8.84,0.89,13.38
			c-0.29,4.78,0,9.59,0.05,14.38c0.07,7.35,0.2,14.7,0.17,22.05c-0.01,1.55-0.43,3.17-0.97,4.64c-1.04,2.8-1.06,5.62-0.68,8.51
			c0.33,2.53,0.91,5.09,0.78,7.61c-0.16,3.19-0.71,6.29,0.6,9.43c0.43,1.04,0.17,2.56-0.22,3.71c-0.87,2.54-0.63,4.9-0.02,7.5
			c2.52,10.67,2.4,14.3,0.05,25.5c-0.32,1.53-0.26,3.16-0.23,4.73c0.07,4.15,0.75,8.36,0.24,12.43c-1.05,8.29-1.27,16.57-0.94,24.89
			c0.08,1.9-0.22,3.82-0.3,5.73c-0.18,4.45-0.86,8.96-0.35,13.33c0.64,5.43,0.86,10.87,0.74,16.27c-0.13,5.7-1.35,11.37-0.54,17.12
			c0.09,0.61-0.1,1.28-0.27,1.89c-1.09,3.81-0.76,7.6,0.07,11.39c0.69,3.16,0.99,6.31-0.1,9.47c-0.64,1.87-0.45,3.76-0.09,5.68
			c1.01,5.38,1.26,10.75,0.25,16.19c-0.34,1.84-0.18,3.83,0.1,5.7c0.42,2.84,1.18,5.63,1.74,8.45c0.37,1.87,0.7,3.76,0.93,5.65
			c0.47,3.85-0.42,7.65-0.46,11.47c-0.05,4.14,0.7,8.28,0.68,12.42c-0.07,11.5-0.56,23.01-0.46,34.51c0.03,3.58,0.11,6.94-1.4,10.27
			c-0.94,2.07-0.68,4.39-0.33,6.63c0.58,3.79,1.09,7.53,0.44,11.43c-0.34,2.07,0.91,4.36,0.86,6.54c-0.06,2.51-0.82,4.99-1.19,7.5
			c-0.09,0.61,0.07,1.28,0.23,1.89c0.6,2.24-0.01,4.39-0.21,6.61c-0.63,6.96-1.77,13.95,0.08,20.93c0.31,1.18,0.27,2.56,0.01,3.76
			c-0.47,2.21-0.89,4.4-0.5,6.65c0.45,2.57,0.19,5.06-0.31,7.61c-0.36,1.85-0.12,3.81-0.22,5.71c-0.38,7.02,0.79,14.03,0.05,21.06
			c-0.53,5.1-0.67,10.22,0.73,15.24c0.44,1.59,0.49,3.2-0.18,4.7c-1.92,4.31-1.74,8.68-0.79,13.17c0.67,3.13,1.34,6.36,0.39,9.5
			c-1.07,3.54-0.47,6.95,0,10.44c0.34,2.52,0.86,5.15,0.48,7.6c-0.98,6.39,0.23,12.79-0.51,19.16c-0.18,1.54,0.3,3.17,0.55,4.74
			c0.92,5.68,1.48,11.37,0.8,17.14c-0.48,4.12-0.77,8.27-1.01,12.42c-0.15,2.54-0.46,5.18,0.04,7.62c0.59,2.88,0.56,5.66,0.47,8.55
			c-0.16,5.41,0.58,10.83-0.15,16.25c-0.08,0.61,0.04,1.29,0.2,1.9c0.69,2.53,0.55,4.94-0.08,7.54c-0.58,2.42-0.49,5.08-0.29,7.6
			c0.28,3.49,0.85,6.97,1.46,10.43c0.34,1.92,0.4,3.75,0.03,5.68c-0.89,4.73,0.05,9.51-0.12,14.27c1.32,3.08,1.06,6.16,0.37,9.37
			c-0.46,2.15-0.47,4.46-0.3,6.67c0.2,2.6,0.1,5.02-1,7.47c-1.66,3.69-1.27,7.48,0.12,11.21c0.89,2.39,1.56,4.89,2.61,7.21
			c1.8,3.97,2.07,8.2,1.27,12.24c-1.63,8.23-1.34,16.52-1.61,24.79c-0.05,1.59-0.32,3.32,0.17,4.76c1.48,4.37,1.18,8.86,1.1,13.3
			c-0.06,3.27,0.23,6.37,1.65,9.33c1.74,3.64,1.65,7.44,0.93,11.28c-0.24,1.25-0.64,2.48-0.98,3.71c-1.04,3.81-1.14,7.57,0.54,11.26
			c1.25,2.74,1.2,5.6,0.58,8.47c-0.27,1.25-0.6,2.49-0.99,3.71c-1.01,3.2-0.79,6.26,0.6,9.33c1.75,3.85,2.22,7.93,2.09,12.17
			c-0.1,3.5,0.35,7.02,0.57,10.53c0.26,4.14,0.54,8.29,0.79,12.43c0.12,1.91,0.08,3.85,0.32,5.74c0.52,4.14,0.91,8.24,0.02,12.41
			c-0.32,1.51-0.16,3.22,0.15,4.76c0.73,3.57,0.46,6.93-0.88,10.34c-0.55,1.4-0.35,3.13-0.32,4.71c0.24,10.22,2.01,20.36,1.61,30.62
			c-0.04,0.94,0.1,1.95,0.43,2.83c1.41,3.69,1.25,7.56,1.33,11.38c0.22,10.22,0.29,20.45,0.49,30.67c0.09,4.5-0.04,8.96-1.46,13.29
			c-0.72,2.19-0.79,4.44-0.05,6.61c0.9,2.63,0.42,5.01-0.78,7.39c-1.19,2.37-1.38,4.88-0.81,7.48c0.7,3.18,0.4,6.33-0.14,9.52
			c-0.58,3.46-0.95,6.93-0.64,10.5c0.57,6.68,1.11,13.39,1.01,20.07c-0.06,3.9,0.2,7.64,1.21,11.36c0.69,2.54,0.65,5.03-0.19,7.55
			c-0.82,2.49-0.86,5.09,0.03,7.55c1.57,4.33,1.36,8.8,1.34,13.27c-0.01,1.91-0.47,3.99,0.12,5.7c1.34,3.84,0.59,7.49,0.21,11.32
			c-0.53,5.39-0.82,10.88-0.47,16.28c0.6,9.31-0.76,18.53-0.67,27.8c0.01,0.63-0.13,1.27-0.21,1.91c-0.75,6.02-1.44,12.06-2.3,18.07
			c-0.33,2.29-0.22,4.45,0.58,6.59c0.93,2.48,1.01,5.01,0.21,7.53c-1.54,4.85-0.37,9.59,0.93,14.16c1.37,4.82,4.27,6.55,8.41,6.41
			c7.34-0.26,14.68-0.58,22-1.12c2.89-0.22,5.75-0.44,8.6,0.08c10.77,1.97,21.73,0.32,32.53,1.82c0.62,0.09,1.27-0.07,1.91-0.16
			c10.82-1.55,21.7-0.15,32.55-0.59c3.21-0.13,6.4,0.09,9.44-1.07c2.85-1.08,5.62-0.88,8.43,0.1c3.71,1.29,7.62,1.41,11.4,1
			c5.39-0.58,10.71-1.77,16.04-2.82c2.2-0.43,3.98-2.93,3.49-5.05c-0.8-3.47-0.96-6.95-0.95-10.48c0.01-4.45,0.42-8.96-1.94-13.12
			c-0.59-1.03-0.57-2.49-0.6-3.75c-0.09-4.47-0.43-8.98-0.01-13.41c0.48-5.16,0.41-10.26-0.49-15.3
			c-1.42-7.96-1.25-15.97-0.79-23.92c0.41-7.08,0.05-14.04-0.51-21.06c-0.36-4.46-0.53-8.94-0.42-13.41c0.08-3.53,0-7.01-0.48-10.52
			c-0.52-3.8-0.92-7.62-1.16-11.45c-0.54-8.64-0.76-17.26,2.81-25.46c0.25-0.58,0.37-1.22,0.5-1.85c0.7-3.52,0.93-6.85-1.48-10.05
			c-2.49-3.32-2.27-7.22-1.1-11.03c0.56-1.83,1.53-3.54,2.05-5.37c0.33-1.18,0.58-2.66,0.16-3.73c-1.79-4.57-2.43-9.11-1.71-14.05
			c0.35-2.4-0.73-4.97-0.09-7.57c0.28-1.13-0.04-2.58-0.53-3.7c-1.06-2.4-1.32-4.89-1.6-7.45c-0.8-7.3-2.13-14.56-0.65-21.92
			c-0.88-5.74-0.48-11.44,0.04-17.2c0.31-3.41-0.93-6.94-1.11-10.43c-0.18-3.49,1-6.99,0.2-10.51c-0.93-4.1-1.31-8.17-0.18-12.33
			c0.31-1.14-0.16-2.51-0.34-3.77c-0.23-1.58-0.75-3.14-0.78-4.72c-0.16-7.67-0.27-15.34-0.27-23.01c0-5.75,0.47-11.52,0.24-17.26
			c-0.51-12.8,0.05-25.59,0.23-38.38c0.06-4.47-0.13-9.08,0.87-13.37c1.64-6.99,1.67-13.92,1.12-20.96
			c-0.4-5.09-0.94-10.19,0.09-15.29c0.33-1.62,0.04-3.26-0.85-4.62c-1.7-2.6-1.77-5.42-1.44-8.32c0.25-2.22,0.4-4.48,0.94-6.63
			c0.63-2.55,0.79-4.96,0.02-7.53c-1.5-5.01-1.35-10.22-0.29-15.19c0.82-3.85,0.86-7.6,0.68-11.42c-0.23-4.79-0.48-9.58-0.87-14.36
			c-0.13-1.56-0.37-3.3-1.18-4.57c-1.83-2.85-2.23-5.91-2.28-9.15c-0.04-2.23-0.13-4.49-0.52-6.68c-0.47-2.57-0.48-5.02,0.17-7.58
			c1.03-4.08,1.04-8.18,0.08-12.34c-1.66-7.18-1.26-14.58-1.89-21.87c-0.36-4.13-0.58-8.36-0.06-12.45
			c0.61-4.84,0.21-9.56-0.1-14.34c-0.18-2.87-0.22-5.75-0.18-8.63c0.04-3.5-0.23-7.03,1.28-10.39c0.67-1.49,0.32-3.14-0.16-4.7
			c-1.85-5.89,0.97-12.12-1.31-17.99c-0.21-0.55-0.07-1.27,0.02-1.9c0.18-1.27,0.38-2.53,0.66-3.78c0.35-1.56,0.75-3.11,1.19-4.65
			c0.72-2.54,0.79-5.05-0.16-7.54c-1.31-3.42-1.43-6.88-0.34-10.35c1-3.15,0.84-6.27,0.35-9.48c-0.28-1.85-0.33-3.9,0.15-5.69
			c1.19-4.43,1.02-8.88,0.72-13.35c-0.42-6.06-1.14-12.1-1.37-18.16c-0.17-4.46-0.09-8.87-0.83-13.34
			c-1.56-9.48-2.22-19.04,0.17-28.54c0.65-2.57,0.59-5.08-0.6-7.49c-0.9-1.82-0.86-3.58-0.37-5.56c0.92-3.71,1.51-7.51,2.29-11.26
			c0.47-2.25,0.42-4.45-0.42-6.6c-1.07-2.72-1.74-5.55-1.3-8.45c1.12-7.32,0.03-14.67,0.4-21.99c0.08-1.58,0.05-3.27-0.39-4.76
			c-1.67-5.65-0.07-11.5-1.21-17.16c-0.12-0.61-0.06-1.3,0.11-1.9c1.61-5.94,1.15-12.08,1.88-18.1c0.33-2.69,0.02-5.08-1.46-7.31
			c-1.68-2.52-2.33-5.31-1.68-8.24c1.46-6.56,1.76-13.28,2.89-19.88c0.39-2.27,0.49-4.41-0.24-6.61c-1.51-4.6-2.39-9.25-1.53-14.14
			c0.21-1.21-0.05-2.53-0.27-3.77c-0.91-5.09-0.75-10.12,0.12-15.24c0.96-5.68,1.2-11.47-0.39-17.11
			c-1.28-4.53-0.97-8.84,1.19-13.01c1.09-2.1,1.3-4.33,0.6-6.52c-1.22-3.81-1.07-7.52,0.14-11.3c0.48-1.51,0.58-3.14,0.93-4.7
			c0.64-2.88,0.61-5.69-0.47-8.49c-0.94-2.43-1.28-4.94-0.71-7.53c0.5-2.28,0.18-4.46-0.94-6.5c-1.12-2.06-1.4-4.18-0.92-6.48
			c0.45-2.19,0.56-4.45,1.08-6.61c0.47-1.96,0.53-3.77-0.45-5.56c-1.45-2.66-1.48-5.51-1.04-8.41c0.53-3.48,1.12-6.94,1.53-10.43
			c0.14-1.23,0.15-2.65-0.32-3.75c-1.58-3.7-1.47-7.32-0.83-11.25c0.86-5.31,1.23-10.66,0.17-16.17c-0.9-4.65-0.28-9.58,2.33-13.92
			c1.03-1.71,1.53-3.59,0.99-5.52c-0.98-3.55-0.82-6.92,0.8-10.27c0.87-1.79,0.96-3.8,0.07-5.59c-2.12-4.25-1.2-8.77-1.4-13.2
			c1.65-5.47,0.2-10.75-1.02-16.04c-0.29-1.24-0.51-2.51-0.93-3.72c-0.97-2.83-0.86-5.65-0.24-8.52c0.89-4.08,1.31-8.19,1.35-12.38
			c0.03-2.87,0.28-5.77,0.84-8.58c0.58-2.89,0.9-5.63-0.21-8.47c-0.62-1.59,0.09-3.14,0.87-4.56c0.94-1.72,1.69-3.54,1.25-5.49
			c-0.88-3.82-0.38-7.64-0.26-11.47c0.12-4.14,0.53-8.33-1.51-12.23c-0.43-0.82-0.61-1.84-0.65-2.78
			c-0.33-8.6-1.77-17.23,0.84-25.74c0.58-1.89,0.42-3.79,0.04-5.69c-0.37-1.88-0.77-3.77-0.99-5.67c-0.15-1.25-0.37-2.69,0.08-3.78
			c1.4-3.34,1.22-6.84,1.73-10.28c0.53-3.64,0.78-6.87-1.29-10.1c-0.64-0.99-0.72-2.44-0.77-3.69c-0.15-3.83-0.26-7.67-0.21-11.5
			c0.06-4.16,0.27-8.29-0.64-12.42c-0.76-3.46-0.58-6.98-0.02-10.49c0.25-1.54,0.57-3.33,0.04-4.7c-1.94-5.06-0.98-10.17-0.36-15.17
			c1.01-8.24,1.76-16.48,1.94-24.78c0.05-2.21,0.15-4.53,0.84-6.6c1.16-3.47,1.12-6.98,0.72-10.44c-0.48-4.17-0.82-8.2,0.66-12.27
			c0.51-1.42,0.25-3.16,0.2-4.75c-0.08-2.56-0.38-5.11-0.41-7.66c-0.09-7.02-0.74-14.07,1.22-20.97c0.55-1.93,0.23-3.81-0.26-5.67
			c-1.82-7-1.65-13.93,0.8-20.76c1.02-2.83,1.02-5.63,0.16-8.47c-0.83-2.76-1.87-5.53-1.48-8.45c0.47-3.56-0.17-7.01-0.54-10.5
			c-0.2-1.9-0.68-3.95-0.21-5.71c1.1-4.16,0.66-8.22,0.24-12.35c-0.16-1.56,0.18-3.18,0.38-4.76c0.21-1.58,0.88-3.18,0.75-4.71
			c-0.51-5.79,1-11.41,1.23-17.14c0.15-3.79,0.26-7.66,1.9-11.28c0.5-1.1,0.63-2.57,0.4-3.77
			C3921.04,159.72,3922.44,154.3,3922.08,150.4z M3552.38,1715c-5.03-0.26-8.85-0.49-12.68-0.66c-1.59-0.07-3.2-0.14-4.78-0.04
			c-2.94,0.19-5.35,2.26-6.32,5.1c-1.15,3.39-1.36,6.88-1.33,10.41c0.08,10.23,0.13,20.46,0.24,30.69
			c0.04,3.53-0.11,7.03-1.05,10.46c-0.94,3.42-0.99,6.92-1.23,10.44c-0.79,11.79,0.46,23.64-1.23,35.42
			c-0.4,2.81-0.65,5.68-1.01,8.53c-0.35,2.84-0.59,5.72-0.51,8.58c0.07,2.6-0.09,5.11-1.01,7.54c-1.14,3.03-1.72,6.15-1.83,9.37
			c-0.23,6.39-0.45,12.75-2.05,19.02c-0.62,2.41-0.31,5.08-0.31,7.64c-0.01,9.27,0.3,18.59-1.45,27.73
			c-1.51,7.89-0.6,15.98-2.47,23.81c-0.22,0.91-0.19,1.92-0.05,2.86c0.83,5.48-0.19,10.8-0.94,16.2c-1.01,7.27-1.77,14.6-2.17,21.93
			c-0.21,3.87-0.55,7.66-1.76,11.3c-0.75,2.25-1.02,4.31,0,6.48c1.2,2.53,0.99,4.91-0.62,7.23c-1.43,2.04-1.31,4.22-0.15,6.35
			c1.11,2.04,1.3,4.22,1.28,6.49c-0.03,3.22-0.44,6.36-1.3,9.47c-1.56,5.58-2.4,11.21-1.36,17.04c0.39,2.18,0.2,4.46,0.22,6.7
			c0.04,5.11,0.03,10.22,0.09,15.33c0.02,1.42,0.97,2.58,2.12,2.96c3.93,1.29,7.89,3.09,12.1,2.37c4.24-0.73,8.3-0.07,12.36,0.74
			c3.15,0.62,6.27,1.03,9.48,1.2c8.96,0.48,17.82,1.6,26.3,4.84c2.68,1.03,5.44,1.85,8.18,2.75c2.46,0.81,4.94,1.06,7.55,0.63
			c2.51-0.41,5.08-0.7,7.61-0.64c10.2,0.23,20.38,1.11,30.59-0.07c2.83-0.33,5.78-0.11,8.61,0.29c3.53,0.51,6.97,0.43,10.49-0.01
			c4.14-0.52,8.28-0.15,12.41,0.59c3.45,0.62,6.97,0.85,10.43,1.43c3.76,0.63,7.41,1.87,11.34,1.09c1.15-0.23,2.51,0.34,3.73,0.7
			c3.37,0.99,6.78,1.88,9.81,3.78c1.71,1.07,3.6,1.39,5.47,0.43c2.06-1.05,4.21-1.34,6.49-1.28c2.55,0.06,5.11-0.09,7.67-0.18
			c4.24-0.15,8.27,0.35,11.84,2.99c2.21,1.63,4.72,1.72,7.31,0.78c1.8-0.66,3.62-1.3,5.49-1.72c4.07-0.92,8.23-1.76,12.35-0.85
			c4.78,1.06,9.51,0.84,14.31,0.61c3.51-0.16,7.03-0.04,10.54,0.02c7.67,0.14,15.35,0.52,23.02,0.39c4.12-0.07,8.22-1.34,12.34-1.41
			c4.11-0.07,8.15,1.28,12.37,0.89c3.8-0.35,7.67-0.11,11.5-0.01c2.87,0.07,5.76,0.23,8.42,1.57c2.05,1.03,4.23,1.26,6.53,1.08
			c8.27-0.66,16.6-0.31,24.85-1.47c1.58-0.22,3.21-0.46,4.78-0.3c3.88,0.39,7.67-0.95,11.43-0.72c4.36,0.26,8.11-1.13,12.09-2.3
			c2.07-0.61,4.44-0.43,6.65-0.29c5.2,0.32,10.17-0.99,15.17-1.98c2.3-0.46,3.94-2.12,4.88-4.26c0.64-1.45,1.38-2.99,1.49-4.53
			c0.49-6.92,2.73-13.9-0.72-20.73c-0.53-1.06-0.44-2.51-0.38-3.77c0.08-1.91,0.17-3.86,0.64-5.71c1.41-5.62,0.06-11.52,1.89-17.07
			c-1.02-4.43,0.06-8.86,0-13.25c-0.08-5.68,0.88-11.54-1.32-17.1c-0.6-1.53-0.42-3.16,0.11-4.7c1.07-3.16,0.71-6.21-0.09-9.41
			c-1.1-4.39-1.21-8.83,0.89-13.12c0.69-1.41,1.18-3.03,1.29-4.59c0.28-3.78,0.43-7.58,0.34-11.37c-0.04-1.58-0.47-3.12,0-4.72
			c0.66-2.22,0.62-4.45-0.34-6.57c-1.53-3.37-1.36-6.81-0.78-10.34c0.41-2.51,0.94-5.12,0.65-7.6c-0.39-3.24-0.37-6.31,0.57-9.45
			c1.12-3.76,0.96-7.53-0.25-11.33c-0.57-1.78-0.79-3.78-0.67-5.64c0.43-6.67,0.93-13.27-0.2-19.98c-0.68-4.05-0.12-8.29-0.24-12.45
			c-0.15-5.45-0.37-10.86,2-16.02c0.65-1.42,0.62-3.13,1.07-4.66c0.68-2.27,0.64-4.45-0.65-6.46c-1.7-2.65-1.44-5.45-1-8.35
			c0.62-4.08,1.85-8.1,0.73-12.34c-0.29-1.09,0.1-2.6,0.68-3.64c1.48-2.64,2.01-5.3,1.42-8.29c-0.3-1.54-0.48-3.24-0.17-4.75
			c0.94-4.53,0.49-8.85-0.94-13.21c-1.01-3.09-1.25-6.49,0.22-9.4c2.02-3.97,1.79-8.03,1.58-12.18c-0.1-1.92-0.52-3.87-0.28-5.74
			c0.79-6.2-0.93-12.05-2.07-18c-0.61-3.22-2.71-5.4-6.58-6.01c-1.88-0.3-3.82-0.22-5.73-0.2c-3.2,0.03-6.39,0.28-9.59,0.19
			c-17.27-0.45-34.52,0.05-51.77,1.13c-4.14,0.26-8.31,0.11-12.46,0.04c-10.22-0.18-20.37-1.68-30.62-1.32
			c-6.07,0.21-12.15-0.13-18.21,0.2c-3.2,0.17-6.37,0.33-9.56,0.08c-2.23-0.17-4.47-0.31-6.7-0.3c-11.18,0.06-22.36,0.26-33.54,0.22
			c-6.38-0.02-12.85,0.47-19.13-0.87c-5.06-1.08-10.11-1.43-15.23-1.51c-4.47-0.08-8.98,0.01-13.35-1.16
			c-3.44-0.92-6.9-1.08-10.45-1c-6.71,0.15-13.45,0.41-20.13-0.08c-7-0.52-14.01-0.96-21-1.93c-14.55-2.02-29.3-2.35-43.83-4.71
			c-1.25-0.2-2.55-0.17-3.83-0.18c-4.48-0.05-8.95-0.1-13.43-0.1c-5.43,0-10.85,0.17-16.16-1.51c-1.78-0.57-3.79-0.53-5.7-0.57
			C3559.5,1714.95,3555.34,1715,3552.38,1715z"/>
	</g>
</g>
</svg>
