<?xml version="1.0" encoding="utf-8"?>
<!-- Generator: Adobe Illustrator 23.0.2, SVG Export Plug-In . SVG Version: 6.00 Build 0)  -->
<svg version="1.1" id="contenu_2_" xmlns="http://www.w3.org/2000/svg" xmlns:xlink="http://www.w3.org/1999/xlink" x="0px" y="0px"
	 viewBox="0 0 3159.36 2805.36" style="enable-background:new 0 0 3159.36 2805.36;" xml:space="preserve">
<style type="text/css">
	.st0{fill:#FFA500;}
	.st1{fill:#FFAF1C;}
</style>
<g id="couleur_xA0_Image_1_">
	<g>
		<path class="st0" d="M36.72,965.64c3.47-0.77,3.48-0.77,3.63-3.27c0.04-0.64-0.07-1.28-0.06-1.92c0.01-0.64,0.05-1.28,0.16-1.91
			c0.47-2.73,2-4.99,4.51-5.8c9.3-2.99,17-8.8,24.97-14.04c16.33-10.73,33.11-20.62,50.57-29.36c5.74-2.88,11.25-6.12,16.41-9.9
			c19.41-14.2,40.14-26.21,61.45-37.25c13.07-6.77,25.51-14.63,38.41-21.69c10.54-7.82,22.43-13.59,32.79-21.7
			c3.77-2.95,7.85-5.51,11.8-8.23c11.08-7.63,21.3-16.37,31.75-24.81c17.67-14.27,35.97-27.7,54.69-40.56
			c12.44-8.56,25.91-15.19,39.71-21.2c3.79-1.65,7.84-2.74,11.79-4.02c11.26-3.64,22.43-7.48,32.91-13.08
			c0.56-0.3,1.16-0.55,1.75-0.77c9.08-3.35,17-8.83,25.15-13.84c5.18-3.18,9.92-6.96,14.49-11.02c7.4-6.6,14.43-13.62,22.42-19.54
			c1.03-0.76,1.95-1.68,3.01-2.38c13.62-8.97,26.6-18.91,40.84-26.91c7.23-4.06,14.57-7.97,22.47-10.71
			c4.22-1.46,8.2-3.61,12.41-5.09c3.25-1.14,4.46-3.02,4.25-6.44c-0.22-3.52,1.63-6.15,4.89-7.54c7.41-3.16,13.67-8.25,20.56-12.27
			c4.14-2.41,8.17-5.03,12.37-7.33c10.65-5.83,21.31-11.65,32.25-16.94c11.55-5.59,23.33-10.46,35.96-12.98
			c2.64-0.53,4.76-1.78,6.81-3.31c6.41-4.78,12.79-9.6,19.16-14.43c5.11-3.87,10.41-7.41,16.06-10.46c3.36-1.81,6.61-3.93,9.61-6.28
			c8.07-6.3,15.99-12.79,23.94-19.23c7.47-6.04,15.31-11.56,23.43-16.69c2.99-1.89,6.04-3.61,9.77-3.51
			c1.48,0.04,2.13-1.01,2.69-2.26c1.32-2.91,2.71-5.78,4.18-8.61c1.2-2.31,2.89-4.2,5.18-5.53c6.08-3.53,12-7.38,18.26-10.55
			c8.83-4.47,17.81-8.7,27.3-11.7c2.43-0.77,4.75-1.88,7.11-2.84c3.01-1.23,5.52-3.12,7.75-5.5c8.63-9.19,18.75-16.4,29.89-22.21
			c10.19-5.32,20.43-10.55,30.65-15.81c4.88-2.51,9.93-4.37,15.56-4.01c1.37,0.09,2.47-0.61,3.19-1.74c1.85-2.9,4.51-4.34,7.86-4.89
			c4.16-0.69,7.77-2.66,11.34-4.9c39.53-24.85,79.11-49.62,118.67-74.42c56.9-35.67,113.8-71.34,170.7-107.01
			c13.28-8.32,26.58-16.6,39.82-24.98c2.96-1.88,5.78-4.02,8.47-6.27c4.21-3.52,8.72-6.52,13.78-8.59c3.6-1.47,6.8-3.44,9.73-6
			c3.63-3.16,7.75-5.6,12.1-7.7c3.73-1.8,7.41-3.78,10.92-5.97c43.1-26.97,86.17-54,129.25-81.01c3.25-2.04,6.46-4.15,9.78-6.06
			c1.64-0.94,3.47-2.02,5.27-2.12c2.71-0.15,4.83-1.34,7.14-2.42c2.75-1.29,5.6-1.02,8.24,0.64c0.94,0.59,1.92,2.34,1.62,3.25
			c-2.93,8.96-8.39,17.63-3.98,26.01c0.78,4.39-0.99,8.65-0.83,13.2c0.52,14.37,0.13,28.72,0.06,43.11
			c-0.03,7.44-0.11,14.62-2.37,21.7c-2.52,7.91,3.79,15.78,3.08,24.16c-0.21,2.52-0.95,5.04-1.78,7.45
			c-1.16,3.35-1.7,6.79-2.39,10.24c-0.71,3.53-0.79,6.84-0.07,10.4c1.22,5.99,1.24,12.13-0.24,18.1c-1.02,4.14-1.06,8.2-0.41,12.35
			c0.39,2.52,0.47,5.09,0.86,7.62c0.34,2.19,0.63,4.46,1.44,6.5c3.16,7.92,3.88,16.14,3.22,24.52c-0.33,4.19-0.22,8.24,0.88,12.35
			c1.16,4.36,0.97,8.9,0.71,13.37c-0.21,3.56,0.03,6.98,1.04,10.43c1.64,5.61,1.57,11.4,1.16,17.15c-0.34,4.81-0.3,9.51,0.78,14.28
			c1.29,5.66,1.19,11.46-0.09,17.15c-0.72,3.2-0.73,6.28-0.03,9.48c1.39,6.34,1.23,12.7-0.27,19.03c-0.89,3.76-1.06,7.54-0.75,11.42
			c0.49,6.07,0.46,12.15-1.31,18.09c-0.75,2.49-0.48,5.06-0.29,7.63c0.52,7.04,0.56,14.05-1.43,20.95
			c-0.43,1.48-0.48,3.23-0.17,4.74c1.62,7.75,0.56,15.31-1.47,22.77c-1.32,4.86-1.11,9.44,1.03,13.99c1.91,4.06,3.28,8.29,4.2,12.71
			c1.33,6.35,1.73,12.66,0.32,19.03c-0.7,3.16-0.98,6.34-0.17,9.51c1.95,7.69,0.99,15.31-0.93,22.78
			c-0.97,3.79-1.37,7.47-1.24,11.34c0.17,5.12,0.1,10.25-1.48,15.21c-0.69,2.18-0.74,4.4-0.51,6.65c0.53,5.11,0.23,10.21-0.07,15.33
			c-0.28,4.78-0.18,9.6-0.02,14.39c0.07,2.21,0.57,4.42,1.03,6.6c1.52,7.23,2.73,14.46,1.16,21.86c-0.54,2.54-0.18,5.05,0.4,7.59
			c1.75,7.59,1.81,15.25,0.07,22.83c-0.73,3.2-0.85,6.3-0.46,9.5c0.28,2.22,0.89,4.54,0.53,6.67c-1.03,6.14,0,12.04,1.15,18.01
			c0.55,2.81,1.25,5.81,0.82,8.56c-1.12,7.1,0.08,13.95,1.1,20.89c0.75,5.08,0.42,10.23-0.28,15.32c-0.4,2.88-0.4,5.71,0,8.59
			c0.83,6.05,0.87,12.13,0.03,18.19c-0.44,3.2-0.38,6.35,0.04,9.54c0.75,5.74,0.75,11.5,0,17.23c-0.42,3.19-0.49,6.34-0.04,9.55
			c0.85,6.05,0.79,12.13-0.03,18.19c-0.39,2.88-0.4,5.71,0,8.59c0.84,6.05,0.83,12.13,0.04,18.19c-0.38,2.88-0.3,5.7-0.04,8.59
			c0.4,4.45,0.54,8.94,0.53,13.4c-0.01,2.6,0.32,5.04,1.02,7.54c2.35,8.42,3.16,16.95,1.26,25.62c-0.33,1.5-0.27,3.21,0.08,4.71
			c1.62,6.97,1.45,13.98,0.64,21c-0.3,2.57-0.37,5.05,0.03,7.61c0.91,5.71,1.08,11.48,0.42,17.23c-0.45,3.87-0.34,7.67,0.47,11.45
			c1.3,6.04,1.31,12.04-0.05,18.08c-0.85,3.77-0.93,7.57-0.51,11.44c0.58,5.42,0.48,10.88-0.39,16.27
			c-0.42,2.57-0.27,5.06,0.08,7.62c0.87,6.37,0.88,12.77-0.03,19.14c-0.36,2.56-0.43,5.04-0.03,7.61c0.85,5.4,0.9,10.85,0.37,16.28
			c-0.34,3.55-3.19,7.03-2.37,10.48c1.59,6.66,0.57,13.31-0.98,19.97c-0.6,2.55-1.49,5.05-0.92,7.6c1.5,6.66,1.41,13.32-0.18,19.97
			c-0.75,3.14,0.23,6.31,0.5,9.53c0.62,7.36,4.57,14.67,2.49,21.89c-0.6,2.08-0.41,4.44-0.29,6.66c0.45,8.06-0.06,15.97-2.82,23.66
			c-0.63,1.75-0.86,3.75-0.83,5.63c0.13,7.1-0.37,14.08-3,20.76c-0.85,2.15-0.91,4.35-0.87,6.6c0.1,5.78-0.18,11.51-2.03,17.07
			c-0.82,2.46-0.7,5.03-0.55,7.61c0.29,5.13,0.1,10.22-1.22,15.24c-0.82,3.11-0.86,6.28-0.59,9.52c0.55,6.39,0.56,12.78-1.3,19.04
			c-0.83,2.78-0.69,5.67-0.61,8.56c0.12,4.47,0.41,9.04-0.4,13.38c-0.8,4.25-0.73,8.09,0.79,12.11c2.42,6.4,2.75,13.13,2.35,19.87
			c-0.23,3.86,0,7.57,0.68,11.41c1.18,6.63,1.17,13.38-0.54,20c-0.73,2.82-0.99,5.64-0.78,8.55c0.51,7.04,0.62,14.04-1.27,20.97
			c-0.48,1.75-0.18,3.82,0.15,5.68c0.92,5.11,0.95,10.18-0.14,15.25c-0.82,3.81-0.84,7.62-0.02,11.43
			c1.15,5.4,1.12,10.79-0.06,16.19c-0.76,3.49-0.77,7,0,10.48c1.27,5.72,1.05,11.41-0.02,17.15c-1,5.35-1.25,10.71-0.67,16.2
			c0.64,6.04,0.54,12.15-1.26,18.09c-0.28,0.91-0.49,1.88-0.5,2.83c-0.1,7.99-0.18,15.97-0.17,23.96c0,2.23,0.51,4.47,0.43,6.7
			c-0.15,4.54,0.55,8.87,2.1,13.15c2.09,5.78,2.8,11.85,2.56,17.94c-0.11,2.94,0.03,5.72,1,8.47c2.18,6.14,2.73,12.51,2.35,18.93
			c-0.25,4.21,0.24,8.21,1.21,12.3c1.69,7.2,2.44,14.51,0.54,21.86c-0.73,2.84-0.54,5.73,0.07,8.57c1.31,6.04,1.37,12.05-0.03,18.08
			c-0.74,3.18-0.56,6.36,0.12,9.52c1.23,5.72,1.24,11.42-0.04,17.13c-0.71,3.17-0.72,6.35-0.02,9.52
			c1.26,5.71,1.38,11.42,0.09,17.13c-0.79,3.49-0.79,6.98,0,10.47c1.07,4.74,1.2,9.52,0.44,14.3c-0.31,1.96-0.09,3.78,0.42,5.66
			c1.87,6.84,2.63,13.79,2.07,20.9c-0.17,2.19,0.01,4.53,0.64,6.63c1.96,6.57,2.06,13.25,1.66,19.98c-0.19,3.21-0.47,6.4,0.48,9.52
			c1.7,5.63,1.47,11.39,1.27,17.15c-0.07,1.91-0.22,3.82-0.28,5.73c-0.04,1.27,1.19,2.82,2.22,2.64c4.19-0.72,8.23,0.53,12.35,0.75
			c6.38,0.35,12.78,0.44,19.18,0.49c2.89,0.02,5.68,0.45,8.53,0.83c8.84,1.19,17.59,3.04,26.52,3.66c8.61,0.6,17.21,1.13,25.84,1.04
			c6.71-0.07,13.43,0.08,20.14,0.13c0.96,0.01,1.97-0.16,2.87,0.09c7.22,2.03,14.62,1.39,21.94,1.4
			c28.14,0.06,56.27-0.13,84.41-0.08c13.43,0.02,26.85,0.41,40.27,0.54c12.45,0.12,24.91,0.14,37.37,0.15
			c15.01,0.02,30.02-0.01,45.04-0.03c3.19,0,6.39,0.01,9.58-0.03c10.87-0.13,21.67,1.19,32.5,1.84c7.97,0.48,15.9,1.32,23.9,0.96
			c0.32-0.01,0.64-0.04,0.96,0c13.06,1.59,26.19,0.66,39.28,1.09c0.32,0.01,0.65-0.05,0.96,0.01c12.36,2.46,24.87,0.85,37.3,1.31
			c7.34,0.27,14.75,0.2,22,1.23c8.62,1.23,17.23,1.05,25.84,1.16c10.87,0.14,21.74-0.05,32.6-0.09c0.96,0,1.97-0.15,2.87,0.09
			c7.22,1.97,14.63,1.44,21.94,1.36c12.84-0.14,25.48,1.57,38.14,3.27c6,0.81,11.96,1.96,17.98,2.5c5.03,0.45,9.27,2.2,12.86,5.68
			c0.69,0.67,1.36,1.36,1.97,2.1c1.36,1.63,3.2,2.02,5.16,1.97c3.2-0.07,6.49,0.24,9.57-0.42c6.65-1.43,13.36-0.88,20.04-1.28
			c5.09-0.31,10.24,0.05,15.28-1.14c1.52-0.36,3.17-0.2,4.77-0.23c8.91-0.17,17.84-0.09,26.74,0.07c8.26,0.15,16.52,0.04,24.77,0.13
			c7.63,0.09,15.29-0.08,22.94-0.14c5.4-0.04,10.81,0.17,16.21,0.18c2.54,0.01,5.1-0.42,7.62-0.24c2.54,0.18,5.02,0.78,7.61,0.27
			c1.21-0.24,2.56-0.07,3.8,0.14c7.61,1.27,15.3,1.08,22.96,1.18c12.14,0.16,24.29,0.11,36.43-0.11c8.3-0.15,16.6-0.52,24.87-1.21
			c3.84-0.32,7.57,0.49,11.45,0.02c4.68-0.56,9.51,0.3,14.26,0.15c10.54-0.33,21.02,0.97,31.54,1.11
			c10.55,0.14,21.09,0.02,31.64,0.02c23.97-0.01,47.94-0.05,71.9,0.03c3.17,0.01,6.33,0.83,9.51,0.95
			c9.26,0.35,18.53,0.57,27.8,0.78c7.01,0.16,14.03-0.3,21,1.19c3.08,0.66,6.37,0.37,9.57,0.41c5.76,0.07,11.46,0.63,17.19,1.23
			c10.49,1.1,21.03,1.41,31.58,1.36c10.86-0.06,21.71-0.06,32.57-0.07c0.96,0,1.96-0.05,2.86,0.2c5.33,1.48,10.75,1.22,16.19,1.22
			c19.18,0,38.36,0.22,57.54,0.17c5.47-0.02,10.84,0.68,16.24,1.2c3.18,0.31,6.37,0.87,9.54,0.79c10.57-0.29,21.06,0.58,31.52,1.82
			c7.6,0.9,15.25,1.02,22.87,1.74c6.34,0.61,12.78,0.23,19.17,0.28c1.6,0.01,3.27-0.32,4.78,0.04c8.5,2.04,17.22,0.77,25.77,1.9
			c2.52,0.33,5.05,0.63,7.58,0.95c1.27,0.16,2.53,0.48,3.8,0.48c8.94,0.01,17.87,1.15,26.84,0.26c2.52-0.25,5.31-0.57,7.61,0.23
			c4.59,1.58,8.66,0.54,13.02-0.74c12.52-3.69,25.18,5.88,25.19,18.82c0.01,8.07-8.2,12.66-15.99,15.41c-4.2,1.48-5.6,5.37-9.86,6.7
			c-8.83,2.75-17.99,4.37-26.64,7.71c-6.84,2.64-13.62,5.44-20.39,8.23c-0.5,0.21-0.96,0.9-1.13,1.46
			c-0.47,1.52-0.63,3.14-1.16,4.64c-2.4,6.78-6.83,11.74-13.99,13.2c-9.94,2.03-18.37,7.27-26.97,12.07
			c-6.4,3.57-12.38,7.87-18.57,11.82c-1.34,0.86-2.72,1.69-4.16,2.35c-9.89,4.52-19.33,9.93-28.52,15.67
			c-11.39,7.11-23.15,13.39-35.25,19.18c-14.96,7.15-30.09,13.96-44.93,21.36c-8.86,4.42-17.85,8.51-26.75,12.81
			c-1.14,0.55-2.26,1.18-3.3,1.89c-3.16,2.17-6.15,4.61-9.44,6.55c-10.44,6.16-20.72,12.66-31.55,18.06
			c-18.6,9.27-36.58,19.49-53.84,31.05c-7.96,5.33-15.53,11.17-23.32,16.71c-6.49,4.62-13.42,8.61-20.11,12.95
			c-6.17,4-12.77,7.19-19.27,10.58c-3.95,2.07-7.97,4.08-11.68,6.53c-9.34,6.16-19.21,11.39-28.86,17.01
			c-4.11,2.4-8.62,4.1-12.92,6.19c-6.6,3.21-13.33,6.21-19.71,9.81c-8.08,4.55-16.59,8.2-24.85,12.35
			c-4.55,2.29-9.09,4.6-13.97,6.25c-4.22,1.43-8.1,3.8-11.71,6.48c-14.6,10.83-33.52,18.25-47.72,29.63
			c-8.73,6.99-17.5,11.47-27.16,17.06c-10.77,6.22-21.44,13.62-32.31,19.66c-6.96,3.87-11.17,10.31-18.36,13.78
			c-1.67,0.81-3.66,1.23-5.53,1.3c-2.53,0.1-5.12-0.11-7.62-0.54c-2.03-0.35-3.79,0.03-5.55,0.87c-1.73,0.82-3.41,1.76-5.17,2.52
			c-2.37,1.02-4.5,2.27-6.4,4.1c-5.35,5.17-11.57,9.06-18.54,11.67c-2.13,0.8-4.03,1.83-5.73,3.35c-5.55,4.96-11.76,8.8-18.9,11.05
			c-2.47,0.78-4.62,2.13-6.6,3.81c-4.92,4.19-10.47,7.33-16.61,9.36c-2.48,0.82-4.63,2.09-6.61,3.78
			c-5.67,4.85-12.15,8.22-19.29,10.35c-2.76,0.82-5.36,1.94-7.7,3.75c-5.38,4.16-11.47,6.98-18.03,8.67
			c-2.57,0.66-4.71,1.84-6.77,3.39c-4.61,3.46-9.32,6.72-14.74,8.88c-1.72,0.69-3.32,1.94-4.68,3.25
			c-5.61,5.39-11.93,9.61-19.22,12.38c-2.1,0.8-3.93,2.05-5.59,3.63c-4.2,4-8.97,7.2-14.35,9.44c-2.71,1.13-4.9,2.91-7,4.93
			c-6.33,6.09-13.7,10.48-22.19,12.84c-3.43,0.95-6.54,2.41-9.4,4.55c-3.34,2.51-7.1,4.38-11.01,5.77c-2.49,0.89-4.59,2.16-6.5,3.91
			c-6.01,5.49-13.02,9.26-20.79,11.52c-2.21,0.64-4.17,1.55-5.96,2.92c-5.92,4.5-12.41,7.84-19.68,9.61
			c-2.49,0.61-4.79,1.7-6.89,3.25c-4.41,3.25-9.3,5.64-14.5,7.31c-1.89,0.61-3.5,1.54-4.97,2.78c-5.2,4.35-10.97,7.74-17.36,10
			c-2.45,0.87-4.55,2.19-6.55,3.85c-8.34,6.9-17.89,11.09-28.68,12.24c-2.42,0.26-4.13,1.34-5.71,3.06
			c-1.51,1.65-3.16,3.18-4.88,4.61c-5.21,4.35-10.99,7.74-17.5,9.71c-3.13,0.94-5.92,2.27-8.35,4.48c-4.3,3.91-9.27,6.82-14.66,8.95
			c-2.42,0.96-4.54,2.26-6.42,4.08c-4.65,4.5-10.06,7.9-16.05,10.3c-2.73,1.09-5.06,2.58-7.18,4.63c-3.95,3.8-8.55,6.78-13.53,8.98
			c-4.45,1.97-8.31,4.64-12.07,7.68c-5.73,4.64-12.17,8.25-18.75,11.55c-3.14,1.57-6.51,2.59-9.98,3.31
			c-3.45,0.72-6.6,2.07-9.54,4.24c-3.06,2.26-6.54,3.98-9.97,5.68c-2.32,1.15-4.43,2.44-6.27,4.29
			c-5.28,5.28-11.53,9.14-18.49,11.74c-2.45,0.91-4.65,2.01-6.6,3.74c-5.84,5.15-12.51,8.88-19.93,11.19
			c-2.5,0.78-4.67,1.91-6.73,3.51c-5.36,4.14-11.22,7.37-17.84,9.04c-2.85,0.72-5.23,2.25-7.63,3.89c-2.89,1.98-5.86,3.98-9.05,5.35
			c-5.03,2.15-9.67,4.92-14.37,7.64c-1.38,0.8-2.79,1.58-4.09,2.5c-4.96,3.55-11.3,4.42-16.05,8.47c-4.43,3.78-9.9,5.77-15.11,8.22
			c-3.46,1.63-6.75,3.64-10,5.67c-1.6,1-3.06,2.32-4.35,3.71c-5.55,5.96-12.14,10.38-19.62,13.48c-2.13,0.88-3.91,2.11-5.57,3.64
			c-4.74,4.36-9.92,8.06-15.95,10.48c-2.42,0.97-4.36,2.58-6.23,4.37c-6.09,5.85-13.13,10.2-21.26,12.58
			c-2.84,0.83-5.27,2.22-7.58,3.98c-6.19,4.72-13.09,7.9-20.69,9.64c-2.15,0.49-4.4,1.19-6.2,2.39c-6.77,4.52-14.17,7.32-22.11,8.84
			c-2.58,0.49-4.77,1.82-6.74,3.45c-0.67,0.55-0.94,1.59-1.4,2.41c-1.28,0-2.56,0-3.84,0c-0.74-1.13-1.75-1.84-3.13-1.86
			c-3.2-0.04-6.4-0.06-9.6-0.06c-491.76,0-983.52,0-1475.28,0C36.72,2166.28,36.72,1565.96,36.72,965.64z"/>
		<path class="st1" d="M36.72,2766.6c491.76,0,983.52,0,1475.28,0c3.2,0,6.4,0.02,9.6,0.06c1.38,0.02,2.39,0.73,3.13,1.86
			c-494.72,0-989.44,0-1484.16,0c-0.96,0-1.92-0.05-2.88,0.01C35.75,2768.66,37.14,2767.19,36.72,2766.6z"/>
	</g>
</g>
<g id="contenu_xA0_Image_1_">
	<g>
		<path d="M1517.04,2765.4c1.58-2.17,4.07-3.04,6.27-4.28c17.87-10,35.77-19.95,53.65-29.92c29.35-16.36,58.68-32.74,88.04-49.07
			c24.05-13.37,48.15-26.65,72.19-40.03c20.69-11.51,41.31-23.14,61.99-34.67c26.27-14.65,52.56-29.25,78.84-43.87
			c19.85-11.04,39.71-22.08,59.55-33.15c27.39-15.27,54.76-30.56,82.14-45.84c29.34-16.37,58.65-32.79,88.01-49.12
			c39.7-22.1,79.46-44.08,119.13-66.22c26.82-14.96,53.54-30.11,80.32-45.16c8.37-4.7,16.85-9.21,25.11-14.09
			c4.45-2.63,9.66-3.67,13.83-6.57c4.22-2.93,8.51-5.65,13.1-7.94c3.73-1.86,7.37-3.84,10.61-6.5c1.23-1.01,2.61-1.85,3.98-2.66
			c9.91-5.89,19.32-12.49,28.33-19.67c2.48-1.98,5.29-3.59,8.06-5.16c6.4-3.62,12.76-7.24,18.68-11.69
			c4.06-3.05,8.71-5.33,13.16-7.85c3.62-2.05,7.21-4.1,10.62-6.5c4.44-3.13,9.16-5.79,14.32-7.7c3.88-1.44,7.56-3.45,11.23-5.39
			c7.62-4.04,15-8.57,22.8-12.22c8.71-4.08,16.89-9.07,25.27-13.71c14.26-7.88,28.6-15.62,42.5-24.12
			c9.26-5.66,18.74-10.92,28.46-15.76c3.13-1.56,5.95-3.74,8.99-5.48c4.15-2.38,8.39-4.61,12.57-6.93c2.51-1.4,5.17-2.62,7.46-4.33
			c7.45-5.57,15.7-9.85,23.52-14.8c0.81-0.51,1.62-1.06,2.5-1.41c9.25-3.75,17.34-9.51,25.73-14.77c1.62-1.01,3.32-1.9,5.05-2.72
			c4.33-2.05,8.73-3.97,13.03-6.07c1.71-0.83,3.23-2.05,4.86-3.04c3.82-2.33,7.48-5.02,11.53-6.86c8.19-3.73,15.81-8.34,23.27-13.32
			c4.24-2.83,8.59-5.51,13.36-7.47c2.64-1.08,5.06-2.72,7.59-4.1c3.08-1.69,6.1-3.52,9.28-5.01c6.38-2.98,12.29-6.7,18.25-10.43
			c8.38-5.25,17.19-9.82,25.84-14.64c1.11-0.62,2.39-0.95,3.49-1.58c10.28-5.84,20.54-11.72,30.8-17.59
			c4.44-2.54,8.87-5.1,13.29-7.66c3.88-2.24,7.74-4.51,11.62-6.74c8.59-4.95,17.39-9.48,26.28-13.87c4.01-1.98,7.9-4.22,11.67-6.61
			c10.79-6.87,21.95-13.09,33.08-19.38c0.28-0.16,0.58-0.29,0.82-0.49c6.33-5.04,13.69-8.16,21.02-11.34
			c4.72-2.05,9.11-4.69,13.22-7.74c2.08-1.55,4.19-3.09,6.59-3.83c6.53-2,12.11-5.81,17.88-9.17c7.75-4.51,15.45-9.04,23.88-12.2
			c1.78-0.67,3.56-1.53,5.05-2.69c4.58-3.54,9.5-6.49,14.63-9.13c0.27-0.14,0.48-0.4,0.74-0.58c0.88-0.62,0.83-2.81-0.15-3.37
			c-0.81-0.47-1.69-1.11-2.55-1.14c-9.25-0.31-18.48-0.72-27.64-2.26c-2.49-0.42-5.11-0.2-7.67-0.06
			c-4.83,0.27-9.59,0.07-14.27-1.27c-2.17-0.62-4.43-1.12-6.63-0.47c-3.2,0.94-6.3,0.25-9.48,0.05c-6.05-0.39-12.13-0.53-18.2-0.51
			c-9.27,0.04-18.56,0.68-27.81,0.36c-5.77-0.2-11.44,0.75-17.2,0.39c-5.41-0.35-10.89,0.32-16.3-0.05
			c-10.23-0.7-20.46-0.55-30.69-0.41c-0.32,0-0.64,0.03-0.96,0c-3.48-0.4-6.96-0.95-10.45-1.17c-3.18-0.2-6.41,0.21-9.56-0.13
			c-6.71-0.71-13.41-0.81-20.13-0.54c-6.43,0.26-12.8-0.3-19.1-1.43c-3.18-0.57-6.33-0.72-9.53-0.83
			c-5.75-0.19-11.49-0.6-17.23-0.92c-2.87-0.16-5.74-0.38-8.62-0.51c-8.94-0.4-17.89-0.76-26.83-1.16
			c-4.15-0.19-8.18-1.47-12.39-1.18c-2.86,0.2-5.74,0.19-8.61,0.11c-5.42-0.15-10.86-0.23-16.25-0.7c-8.3-0.72-16.58-0.6-24.88-0.13
			c-1.58,0.09-3.18-0.14-4.77-0.19c-4.79-0.17-9.59-0.33-14.38-0.49c-0.96-0.03-1.93,0.05-2.88-0.09
			c-7.28-1.06-14.57-2.06-21.94-0.96c-8.23-1.54-16.58-0.65-24.85-1.21c-3.51-0.24-6.99-0.72-10.49-1.09
			c-0.95-0.1-1.96-0.45-2.85-0.27c-5.77,1.2-11.44,0.05-17.17-0.44c-3.17-0.27-6.39,0.07-9.58,0.19c-3.84,0.14-7.63,0.15-11.43-0.8
			c-2.43-0.61-5.07-0.5-7.61-0.55c-2.56-0.05-5.11,0.09-7.67,0.18c-1.28,0.04-2.59,0.36-3.82,0.17c-8.6-1.34-17.25-0.49-25.87-0.79
			c-0.64-0.02-1.32-0.02-1.9-0.23c-5.27-1.92-10.69-1.63-16.13-1.17c-1.27,0.11-2.57,0.22-3.84,0.11
			c-13.39-1.09-26.88,0.15-40.23-1.88c-0.95-0.14-1.97-0.39-2.86-0.18c-5.38,1.26-10.81-0.03-16.22,0.53
			c-5.08,0.53-10.21,0.55-15.29-0.55c-1.54-0.33-3.22-0.48-4.75-0.23c-3.23,0.53-6.29,0.18-9.47-0.49
			c-2.11-0.45-4.46-0.12-6.64,0.21c-3.8,0.59-7.53,0.66-11.41,0.46c-9.24-0.48-18.52-1.44-27.76,0.04
			c-6.69-0.51-13.41,0.45-20.09-0.45c-4.14-0.56-8.27-0.82-12.41,0.13c-1.23,0.28-2.56,0.41-3.8,0.26
			c-7.64-0.94-15.34-0.36-22.96-0.91c-7.38-0.53-14.67,0.02-22,0.08c-11.83,0.1-23.65-0.04-35.48-0.1
			c-1.92-0.01-3.85-0.06-5.74-0.29c-10.82-1.3-21.65-1.97-32.54-0.83c-2.21,0.23-4.49,0.21-6.71,0.02
			c-7.96-0.67-15.91-1.46-23.87-2.2c-0.95-0.09-1.98-0.36-2.85-0.12c-6.38,1.78-12.71,0.13-19.05-0.12
			c-3.51-0.14-7.02-0.24-10.53-0.32c-1.28-0.03-2.59,0.24-3.83,0.05c-5.06-0.77-10.11-1.48-15.24-0.85
			c-5.33-1.33-10.82-0.81-16.22-1.34c-3.5-0.35-6.99-0.35-10.41-1.44c-1.46-0.46-3.22-0.56-4.72-0.24
			c-4.8,1.04-9.57,0.52-14.33-0.03c-5.73-0.66-11.45-0.94-17.23-0.68c-4.13,0.19-8.29-0.35-12.44-0.58
			c-7.02-0.39-14.05-0.79-21.07-1.19c-1.28-0.07-2.65,0.09-3.81-0.34c-6.51-2.42-13.22-1.31-19.89-1.49
			c-9.85-0.26-19.79,1-29.57-1.35c-1.52-0.37-3.18-0.31-4.76-0.26c-3.2,0.1-6.4,0.25-9.58,0.54c-3.22,0.3-6.35,0.23-9.51-0.61
			c-4.98-1.33-9.99-1.69-15.19-0.97c-4.09,0.56-8.31,0.31-12.39-0.75c-2.19-0.56-4.36-0.82-6.63-0.29c-6.97,1.63-14.03,1-20.98,0.1
			c-7.01-0.91-13.91-1.69-20.98-0.34c-2.76,0.53-5.73,0.01-8.59-0.14c-3.51-0.19-7.01-0.63-10.52-0.71
			c-7.02-0.16-14.02,0.04-21.05-0.86c-5.98-0.76-12.1-0.39-18.17-0.31c-8.31,0.1-16.62-0.39-24.93-0.64
			c-0.64-0.02-1.27-0.18-1.91-0.17c-9.93,0.02-19.81-0.54-29.63-2.08c-1.56-0.25-3.19,0-4.79-0.06c-3.2-0.12-6.45,0.03-9.57-0.51
			c-8.88-1.54-17.83-1.41-26.77-1.66c-7.03-0.19-14.09-0.06-21.01-1.66c-0.92-0.21-1.91-0.28-2.86-0.23
			c-12.79,0.68-25.55-1.17-38.36-0.32c-8.95,0.59-17.89,0.21-26.82-0.97c-8.57-1.14-17.23-0.65-25.85-0.77
			c-1.6-0.02-3.25,0.29-4.78-0.01c-6.12-1.17-12.08-0.44-18.04,1.06c-1.17,0.3-2.53,0.28-3.72,0.03c-9.7-2.04-21.4-3.4-30.4-3.59
			c-2.22-0.05-4.51-0.19-6.62-0.82c-4.06-1.21-7.4-0.14-10.88,2c-12.79,7.9-25.76,15.52-38.57,23.4
			c-19.08,11.73-38.07,23.61-57.12,35.37c-23.42,14.45-46.87,28.83-70.3,43.26c-29.42,18.12-58.82,36.28-88.24,54.4
			c-39.22,24.17-78.45,48.34-117.69,72.48c-38.7,23.8-77.44,47.53-116.13,71.35c-35.96,22.15-71.85,44.41-107.8,66.58
			c-28.05,17.3-56.14,34.53-84.19,51.82c-27.78,17.13-55.53,34.31-83.3,51.44c-19.6,12.1-39.25,24.13-58.84,36.25
			c-18.23,11.28-36.39,22.67-54.63,33.94c-20.41,12.62-40.88,25.14-61.3,37.74c-27.77,17.14-55.51,34.33-83.29,51.45
			c-27.78,17.13-55.6,34.19-83.39,51.31c-18.25,11.24-36.48,22.53-54.71,33.79c-19.33,11.94-38.65,23.88-57.99,35.8
			c-19.34,11.92-38.7,23.8-58.03,35.72c-23.97,14.77-47.92,29.57-71.88,44.35c-28.32,17.47-56.64,34.95-84.96,52.41
			c-15.52,9.57-31.08,19.09-46.58,28.7c-2.67,1.66-5.78,2.8-7.58,5.66c-1.28,0-2.56,0-3.84,0c0-7.04,0-14.08,0-21.12
			c1.25,0.36,2.51,0.53,3.72-0.12c1.4-0.76,2.8-1.54,4.16-2.37c20.7-12.76,41.39-25.53,62.08-38.29
			c19.34-11.92,38.69-23.81,58.02-35.74c19.33-11.92,38.65-23.88,57.98-35.8c19.61-12.09,39.23-24.14,58.84-36.23
			c19.33-11.92,38.65-23.87,57.98-35.8c23.14-14.28,46.29-28.54,69.44-42.81c28.32-17.46,56.64-34.93,84.96-52.38
			c32.68-20.14,65.38-40.26,98.07-60.39c22.06-13.59,44.14-27.16,66.18-40.79c34.01-21.03,67.99-42.11,101.99-63.15
			c28.02-17.34,56.04-34.68,84.09-51.97c27.78-17.12,55.61-34.16,83.39-51.28c27.51-16.95,54.96-34,82.47-50.94
			c25.88-15.93,51.82-31.77,77.71-47.68c20.99-12.9,41.95-25.84,62.92-38.75c19.61-12.08,39.23-24.15,58.83-36.24
			c19.33-11.92,38.65-23.87,57.98-35.8c18.24-11.26,36.48-22.52,54.73-33.76c19.61-12.08,39.23-24.15,58.84-36.23
			c20.43-12.58,40.87-25.15,61.29-37.75c5.16-3.19,10.49-6.16,14.5-10.92c1.9-2.26,4.62-3.44,7.21-4.65
			c18.63-8.66,35.67-20.04,53.05-30.85c0.81-0.51,1.59-1.08,2.33-1.68c1.57-1.28,2.58-2.93,2.33-4.99c-0.49-4.13-1-8.26-1.75-12.34
			c-0.53-2.86-0.88-5.66-0.43-8.56c0.24-1.57,0.39-3.21,0.24-4.78c-1.45-14.66,0.04-29.38-0.81-44.07
			c-0.33-5.71-0.27-11.47-0.61-17.21c-0.25-4.11,0.42-8.29,0.84-12.42c0.23-2.26,0.49-4.54-0.37-6.64c-1.28-3.15-0.88-6.28-0.4-9.45
			c1.42-9.22,0.48-18.5,0.49-27.75c0.01-3.78-0.95-7.49-0.09-11.38c0.53-2.41,0.38-5.22-0.32-7.61c-2.22-7.56-1.69-15.21-1.28-22.87
			c0.1-1.94,0.32-3.9-0.57-5.64c-1.7-3.33-1.77-6.81-1.05-10.3c0.85-4.12,1.3-8.16,0.23-12.34c-0.38-1.47,0.06-3.15,0.19-4.74
			c0.24-2.86,0.87-5.74,0.73-8.58c-0.35-7,0.83-14.07-0.87-21c0.57-9.28-1.06-18.46-1.19-27.72c-0.13-9.3,0.82-18.53,1.02-27.79
			c0.05-2.23,0.09-4.46,0.09-6.69c0-3.83-0.01-7.66-0.09-11.49c-0.06-3.19-0.71-6.45-0.2-9.53c0.7-4.23,0.27-8.18-0.59-12.3
			c-1.33-6.35-0.37-12.79,0.62-19.08c0.7-4.46,1.23-8.75,0.58-13.3c-0.54-3.75-0.2-7.64-0.02-11.46c0.24-5.09,0.64-10.12-0.5-15.22
			c-0.53-2.37,0.19-5.09,0.64-7.59c0.63-3.5,0.81-6.96,0.24-10.49c-0.3-1.87-0.4-3.83-0.21-5.72c0.95-9.61-0.38-19.15-0.67-28.73
			c-0.06-1.91-0.31-3.82-0.18-5.71c0.35-5.1,0.89-10.18,1.3-15.28c0.1-1.27,0.24-2.61-0.04-3.82c-1.18-5.11-0.34-10.18-0.07-15.29
			c0.3-5.74,0.74-11.54,0.3-17.25c-0.58-7.4,0.19-14.68,0.59-22.01c0.07-1.27,0.43-2.6,0.16-3.8c-1.29-5.72-0.45-11.48-0.56-17.22
			c-0.14-7.99-0.46-15.97-0.71-23.96c-0.12-3.83-0.41-7.66,0.43-11.47c0.27-1.23,0.16-2.55,0.15-3.83
			c-0.08-11.19-0.48-22.39-0.18-33.57c0.23-8.3-0.53-16.63,0.66-24.91c0.14-0.95,0.27-1.93,0.15-2.87
			c-0.91-7.05,0.15-14.05,0.38-21.08c0.07-2.23,0.19-4.49-0.03-6.71c-0.41-4.15-0.41-8.29-0.22-12.45c0.12-2.54-0.05-5.12-0.39-7.64
			c-0.43-3.23-0.34-6.41,0.56-9.51c1.27-4.37,1.47-8.85,1.27-13.32c-0.53-11.83,0.31-23.65,0.19-35.48
			c-0.1-9.59-0.21-19.18-0.22-28.78c0-2.54,0.01-5.17,0.66-7.59c1.45-5.43,0.9-10.79,0.05-16.15c-0.35-2.22-0.98-4.4-0.5-6.63
			c1.44-6.67,0.6-13.39,0.6-20.09c0-2.55-0.19-5.11-0.06-7.66c0.33-6.36,0.92-12.63-0.49-19.05c-1.01-4.61-0.91-9.53,0.29-14.3
			c0.38-1.51,0.53-3.22,0.26-4.74c-0.92-5.15,0.04-10.2,0.67-15.25c0.32-2.56,0.4-5.07,0.28-7.63c-0.2-4.46-0.38-8.95-0.17-13.41
			c0.18-3.82,0.86-7.61,0.16-11.46c-0.17-0.91-0.02-1.94,0.23-2.84c0.79-2.85,0.58-5.68,0.28-8.57c-0.43-4.13-0.65-8.26-0.04-12.43
			c0.32-2.16-0.06-4.45-0.35-6.65c-0.6-4.43-1.67-8.82-0.74-13.33c-0.76-7.97-0.59-15.93-0.2-23.93c0.19-3.81-0.57-7.65,0.96-11.35
			c0.24-0.57,0.35-1.28,0.25-1.89c-0.96-6.35,0.59-12.8-0.73-19.12c-0.67-3.2-0.5-6.35,0.18-9.52c1.01-4.71,1.36-9.45,1.01-14.29
			c-0.4-5.4,0.22-10.86-0.89-16.25c-0.31-1.51-0.02-3.18,0.16-4.76c0.25-2.26,0.02-4.44-0.45-6.66c-1.41-6.63-1.71-13.29-0.35-19.99
			c0.31-1.55,0.63-3.26,0.29-4.75c-1.68-7.26-0.5-14.7-1.53-21.99c-0.18-1.26-0.2-2.57-0.04-3.83c0.93-7.66,0.11-15.34,0.28-23.01
			c0.03-1.28-0.18-2.57-0.07-3.84c0.82-9.61-0.09-19.13-1.32-28.65c-0.2-1.57-0.4-3.27-0.03-4.77c2.02-8.18,1.38-16.54,1.97-24.82
			c0.07-0.96-0.13-1.99,0.17-2.86c2.14-6.21,1.3-12.69,1.8-19.04c0.2-2.52,0.17-5.18-0.39-7.63c-1.71-7.52-2.5-15.09-2.33-22.78
			c0.03-1.26-0.13-2.57-0.48-3.78c-0.66-2.24-0.31-4.38-0.01-6.62c0.82-6.06,0.89-12.13-0.7-18.1c-0.84-3.14-1.02-6.29-0.71-9.51
			c0.76-7.99,0.25-15.97-0.24-23.94c-0.27-4.48-0.63-8.92,1.35-13.21c0.48-1.04,0.24-2.52,0.04-3.74c-0.31-1.88-1.22-3.71-1.25-5.57
			c-0.11-6.7,0.06-13.4,0.1-20.11c0.01-2.24,0.08-4.48-0.07-6.71c-0.32-4.83-0.02-9.61,1.13-14.3c1.39-5.67,1.78-11.22,0.48-17.06
			c-1.03-4.64-1.14-9.53-1.24-14.31c-0.15-7.67,0.12-15.34,0.1-23.01c-0.02-7.03-0.24-14.06-0.28-21.09
			c-0.08-12.47,0.11-24.94,1.37-37.36c0.29-2.84,0.16-5.73,0.14-8.6c-0.03-2.88-0.35-5.76-0.23-8.63
			c0.44-11.17,1.04-22.33,1.49-33.49c0.06-1.56-0.1-3.22-0.61-4.68c-1.63-4.65-1.75-9.43-1.4-14.22c0.44-6.07,0.5-12.13,0.19-18.21
			c-0.16-3.18-0.07-6.41,0.3-9.57c0.56-4.8,0.65-9.57,0.11-14.36c-0.43-3.84-0.48-7.65,0.03-11.48c0.21-1.58,0.54-3.21,0.38-4.77
			c-0.88-8.31,0.33-16.59,0.2-24.89c-0.17-10.23-0.01-20.47,0.09-30.71c0.05-4.77-0.67-9.55,0.65-14.3
			c0.49-1.78,0.15-3.82,0.07-5.73c-0.15-3.49-0.8-6.95,0.58-10.4c0.42-1.06,0.15-2.58-0.25-3.73c-0.91-2.6-0.73-4.99,0.49-7.41
			c1.04-2.07,1.05-4.3,0.92-6.57c-0.23-3.84-0.15-7.64,1.09-11.39c0.48-1.45,0.7-3.26,0.27-4.68c-0.99-3.25-0.48-6.29,0.33-9.42
			c0.23-0.9,0.1-1.9,0.11-2.85c0.02-1.27-1.59-2.43-2.64-1.88c-1.69,0.89-3.42,1.74-5.04,2.74c-26.95,16.64-53.87,33.33-80.82,49.95
			c-27.78,17.13-55.6,34.17-83.38,51.29c-19.88,12.25-39.71,24.59-59.58,36.85c-22.6,13.94-45.23,27.82-67.84,41.76
			c-32.68,20.15-65.33,40.33-98.01,60.47c-19.61,12.09-39.26,24.11-58.86,36.2c-27.5,16.96-54.96,33.99-82.47,50.95
			c-28.32,17.46-56.69,34.84-85.01,52.3c-19.61,12.09-39.15,24.27-58.75,36.37c-22.32,13.78-44.69,27.49-67.02,41.26
			c-32.95,20.32-65.87,40.68-98.82,60.99c-28.05,17.29-56.15,34.5-84.2,51.79c-27.5,16.95-54.97,33.98-82.47,50.94
			c-20.15,12.43-40.34,24.79-60.49,37.21c-22.06,13.59-44.09,27.23-66.15,40.83c-33.77,20.82-67.55,41.61-101.31,62.44
			c-36.21,22.34-72.38,44.75-108.6,67.08c-27.78,17.13-55.6,34.17-83.39,51.27c-14.17,8.72-28.3,17.5-42.46,26.23
			c-1.9,1.17-3.85,2.27-5.82,3.33c-1.21,0.65-2.47,0.41-3.69-0.11c0-6.4,0-12.8,0-19.2c2.75,0.2,4.9-1.24,7.08-2.59
			c13.34-8.24,26.67-16.49,40.02-24.71c19.34-11.92,38.69-23.82,58.03-35.74c19.07-11.75,38.13-23.51,57.19-35.26
			c27.78-17.13,55.57-34.24,83.34-51.38c19.88-12.27,39.72-24.59,59.61-36.84c20.16-12.42,40.37-24.75,60.53-37.16
			c22.06-13.59,44.08-27.27,66.14-40.87c33.77-20.82,67.58-41.59,101.34-62.42c36.22-22.34,72.4-44.75,108.62-67.08
			c36.49-22.5,73.04-44.92,109.53-67.42c27.78-17.13,55.5-34.36,83.28-51.48c45.21-27.87,90.46-55.67,135.67-83.55
			c40.85-25.19,81.66-50.45,122.51-75.63c28.05-17.3,56.16-34.5,84.21-51.8c27.51-16.96,54.97-34,82.47-50.96
			c28.05-17.3,56.13-34.54,84.19-51.82c22.34-13.76,44.67-27.53,66.99-41.33c4.08-2.52,8.16-5.05,11.29-8.83
			c1.88-2.28,4.56-3.52,7.16-4.72c16.04-7.38,30.74-17.08,45.85-26.07c4.67-2.78,9.37-5.52,14.02-8.35
			c3.64-2.21,7.45-3.37,11.81-3.31c5.74,0.08,11.51-0.72,17.24-0.49c5.77,0.22,11.48,0.19,17.2-0.48
			c6.68,1.56,13.36-0.37,20.06,0.05c6.38,0.4,12.79,0.21,19.17,0.62c9.56,0.62,19.13,0.93,28.7,1.38c4.17,0.2,8.29,0.27,12.45-0.14
			c2.2-0.22,4.55-0.3,6.65,0.25c3.5,0.92,6.9,1.07,10.43,0.49c4.13-0.68,8.31-0.53,12.44,0.06c9.88,1.41,19.8,0.69,29.71,0.75
			c1.27,0.01,2.59-0.45,3.81-0.24c6.06,1.08,12.08,1.1,18.1-0.28c5.05,1.04,10.19,0.59,15.29,0.87c0.96,0.05,1.93,0.3,2.87,0.21
			c3.8-0.35,7.6-1.17,11.39-1.11c3.47,0.06,6.89,1.12,10.47,0.89c4.78-0.29,9.58,0.1,14.36-0.73c1.85-0.32,3.81,0.08,5.73,0.08
			c1.59-0.01,3.3,0.23,4.74-0.27c5.02-1.76,10.16-1.27,15.22-0.9c7.04,0.5,14.03,0.69,21.07,0.05c2.84-0.26,5.83-0.22,8.59,0.41
			c5.74,1.33,11.45,0.9,17.14,0.34c12.12-1.19,24.25-1.37,36.4-0.92c4.5,0.17,9,0.2,13.35-0.9c5.68-1.44,11.39-1.67,17.13-1.03
			c5.12,0.58,10.18,0.35,15.3-0.1c6.36-0.56,12.77-0.71,19.15-1c2.55-0.12,5.1-0.18,7.65-0.2c1.91-0.01,3.86-0.17,5.71,0.17
			c6.34,1.17,12.71,1.25,19.12,1.04c2.23-0.07,4.47-0.07,6.7,0.02c5.12,0.2,10.18,0.04,15.29-0.77c4.7-0.74,9.51-1.22,14.31-0.22
			c1.54,0.32,3.17,0.26,4.76,0.25c5.76-0.02,11.52-0.2,17.27-0.11c4.15,0.06,8.29,0.43,12.44,0.69c3.51,0.21,7.02,0.67,10.53,0.63
			c4.18-0.05,8.29,0.09,12.38,1.05c1.52,0.35,3.25,0.5,4.73,0.13c3.52-0.88,6.94-0.56,10.46-0.18c4.13,0.44,8.3,0.47,12.45,0.73
			c2.55,0.16,5.15,0.13,7.63,0.65c6.97,1.46,13.99,1.48,21.03,0.98c6.73-0.48,13.42,0.15,20.12,0.41c2.85,0.11,5.7,0.75,8.52,1.32
			c2.54,0.51,5.07,0.82,7.62,0.29c7.39-1.54,14.67-0.1,21.91,0.93c4.76,0.68,9.43,1.68,14.27,0.87c1.24-0.21,2.57-0.2,3.82,0
			c7,1.12,14.06,0.38,21.08,0.8c3.19,0.19,6.4,0.3,9.54,0.8c5.39,0.86,10.81,1.15,16.25,1.26c2.88,0.06,5.77-0.03,8.63,0.26
			c7.64,0.77,15.26,1.41,22.94,0.64c1.26-0.13,2.58-0.12,3.83,0.07c13.99,2.04,28.11,0.95,42.15,1.86c2.86,0.19,5.75-0.18,8.63-0.3
			c4.15-0.19,8.26-0.56,12.31,1.05c1.71,0.68,3.8,0.75,5.67,0.61c3.95-0.28,7.48,1.83,11.33,1.76c3.51-0.06,7.05-0.76,10.51-0.46
			c6.36,0.54,12.72,1.02,19.07,1.99c6.25,0.96,12.54,2.12,18.99,1.85c5.08-0.22,10.19,0.5,15.29,0.78c3.83,0.22,7.66,0.4,11.49,0.62
			c1.91,0.11,3.92-0.07,5.72,0.45c7.24,2.06,14.64,1.45,21.93,1.07c4.81-0.25,9.58-0.15,14.36-0.07c4.15,0.07,8.3,0.4,12.45,0.53
			c5.11,0.15,10.21,0.1,15.21,1.61c2.09,0.63,4.43,0.41,6.66,0.57c2.23,0.16,4.51,0.07,6.68,0.54c3.21,0.69,6.27,0.65,9.44-0.26
			c1.46-0.42,3.24-0.36,4.72,0.04c7.21,1.91,14.56,2.21,21.92,1.95c6.5-0.23,12.76,0.79,18.9,2.63c2.49,0.74,4.93,1.24,7.51,1.25
			c4.15,0.01,8.31-0.07,12.36,1.25c1.15,0.38,2.54,0.15,3.8,0.02c5.72-0.61,11.42-0.82,17.17-0.15c3.15,0.37,6.38,0.27,9.57,0.14
			c7.05-0.29,14.05,0.55,21.08,0.84c7.02,0.28,14.05,0.57,21.08,0.63c10.56,0.1,21.08,0.68,31.61,1.44
			c1.58,0.11,3.19-0.17,4.78-0.22c1.59-0.05,3.21-0.17,4.79-0.01c3.81,0.39,7.61,1.31,11.41,1.28c3.47-0.03,6.93-1.53,10.38-1.51
			c10.22,0.03,20.43-0.7,30.66,0.15c7.64,0.63,15.34,0.48,23.01,0.62c3.51,0.06,7.02-0.37,10.48,0.74c1.16,0.37,2.55,0.32,3.79,0.14
			c8.23-1.23,16.5-1.09,24.8-1.14c6.71-0.04,13.38,0.68,20.09,0.31c3.18-0.17,6.38,0.23,9.58,0.41c4.15,0.23,8.3,0.49,12.45,0.73
			c1.91,0.11,3.89-0.11,5.71,0.34c3.85,0.94,7.59,0.9,11.37-0.19c2.21-0.64,4.42-0.43,6.64,0.12c1.24,0.31,2.62,0.9,3.75,0.62
			c6.04-1.48,12.06,0.13,18.11-0.17c11.16-0.56,22.37-1.2,33.5,0.69c9-0.69,17.84,1.17,26.77,1.65c7.36,0.4,14.7,0.17,22.05,0.02
			c5.75-0.12,11.51-0.01,17.27,0.01c2.24,0.01,4.5,0.26,6.7,0.02c4.18-0.45,8.29-0.49,12.36,0.71c0.91,0.27,1.9,0.43,2.84,0.38
			c7.99-0.38,15.95,0.37,23.92,0.42c5.11,0.03,10.22-0.01,15.32,0.17c1.18,0.04,2.61,0.59,3.45,1.39c2.53,2.44,5.09,4.82,7.88,6.98
			c0.94,0.73,1.55,2.02,2.02,3.18c0.6,1.47,1.22,3.05,1.29,4.6c0.25,5.74,2.11,11.32,1.55,17.14c-0.15,1.56,0.28,3.16,0.37,4.75
			c0.11,1.9,0.29,3.81,0.19,5.7c-0.56,10.22-1.05,20.44,0.01,30.66c0.13,1.27,0.26,2.61-0.02,3.83c-1.11,4.78-1.03,9.43,0.36,14.2
			c0.8,2.77-0.28,5.7-0.93,8.51c-0.38,1.63-0.21,3.23,0.85,4.55c1.71,2.13,2.2,4.56,2.11,7.19c-0.21,6.07-0.19,12.15-1.37,18.16
			c-0.49,2.48-0.44,5.07-0.55,7.61c-0.12,2.87-0.19,5.75-0.2,8.62c-0.01,1.91-0.13,3.86,0.22,5.72c0.84,4.5,0.59,8.93-0.4,13.34
			c-0.64,2.83-0.82,5.66-0.83,8.56c-0.08,12.47-0.22,24.93-0.53,37.4c-0.09,3.5-0.7,7-1.26,10.46c-0.62,3.82-0.7,7.59-0.21,11.45
			c0.6,4.75,0.84,9.55,1.13,14.34c0.1,1.58,0.22,3.29-0.25,4.76c-1.28,4.07-1.05,8.19-1.16,12.35c-0.2,7.97-0.16,15.97-2.42,23.79
			c-0.87,3-0.78,6.34-0.72,9.52c0.18,9.29-0.28,18.53-1.76,27.72c-0.92,5.67-0.32,11.52-1.87,17.14
			c0.69,11.17-1.34,22.26-0.76,33.46c0.39,7.62-0.58,15.32-0.92,22.98c-0.13,2.87-0.18,5.75-0.24,8.63
			c-0.37,18.22-1.43,36.42-1.14,54.66c0.04,2.23-0.29,4.47-0.45,6.7c-0.46,6.38-0.88,12.75-0.7,19.15
			c0.11,3.82-0.26,7.65-0.38,11.48c-0.28,8.96,0.16,17.89,0.64,26.83c0.46,8.62,0.32,17.27,0.37,25.9
			c0.08,12.15,0.11,24.3,0.12,36.45c0,3.2-0.15,6.39-0.2,9.59c-0.04,2.55-0.06,5.09-0.06,7.64c0,0.96,0.25,1.95,0.09,2.87
			c-1.52,8.64-0.05,17.19,0.9,25.73c0.32,2.88,0.56,5.71,0.36,8.6c-0.13,1.9-0.23,3.88,0.14,5.73c0.7,3.53,0.25,6.94-0.1,10.46
			c-0.51,5.07-0.47,10.21-0.37,15.32c0.09,4.47,0.34,8.96,0.96,13.39c0.77,5.43,0.67,10.83,0.55,16.27
			c-0.08,3.83,0.03,7.67,0.23,11.5c0.4,7.66,0.96,15.31,1.37,22.96c0.1,1.91,0.02,3.84-0.15,5.75c-0.54,6.07-0.39,12.1,0.4,18.15
			c0.37,2.85,0.47,5.74,0.49,8.61c0.06,10.24,0.03,20.48,0.02,30.72c0,0.96-0.15,1.93-0.06,2.87c0.95,9.57,0.53,19.16,0.71,28.74
			c0.03,1.91,0.35,3.82,0.46,5.73c0.33,6.06,0.71,12.12,0.91,18.19c0.18,5.43,0.19,10.87,0.21,16.31c0.02,3.83-0.05,7.67-0.11,11.5
			c-0.02,1.6-0.33,3.22-0.15,4.78c0.91,7.66,0.28,15.34,0.36,23.01c0.11,10.56,0.15,21.1,1.4,31.62c0.37,3.14,0.46,6.47-0.16,9.54
			c-0.91,4.53-0.6,8.96,0.13,13.35c0.69,4.15,0.76,8.23,0.62,12.41c-0.14,4.14,0.22,8.3,0.41,12.45c0.1,2.24,0.63,4.51,0.37,6.69
			c-0.95,8,0.25,15.97,0.17,23.95c-0.05,4.79-0.04,9.59-0.02,14.38c0.01,1.6-0.02,3.21,0.2,4.79c0.56,4.15,0.43,8.21-0.22,12.39
			c-0.69,4.39-0.58,8.96,0.75,13.31c0.94,3.1,1.35,6.21,1.33,9.44c-0.06,15.35-0.04,30.7-0.05,46.06c0,6.08,0.04,12.15,1.29,18.15
			c0.38,1.84,0.53,3.84,0.21,5.67c-0.71,4.16-0.58,8.27-0.22,12.43c0.22,2.55,0.58,5.14,0.32,7.65c-0.74,7,0.25,14.07-0.9,21.05
			c-0.15,0.93,0.02,1.92,0.01,2.87c-0.03,3.53,0.66,6.98,1.05,10.47c0.38,3.45-0.46,7.03-0.15,10.49c0.81,8.95,0.45,17.9,0.57,26.86
			c0.05,3.51,0.21,7.03-0.01,10.53c-0.26,4.13-0.81,8.25-1.35,12.37c-0.21,1.6-0.56,3.19,0.13,4.71c1.24,2.74,1.08,5.57,1,8.47
			c-0.16,5.75,0.23,11.53-0.1,17.27c-0.76,13.08,0.08,26.19-1.15,39.27c-0.6,6.34-0.41,12.77-0.4,19.16
			c0.03,16.62-0.14,33.24,0.26,49.86c0.2,8.29-0.67,16.62-0.43,24.91c0.45,15.35-0.18,30.68,0.07,46.02
			c0.05,2.87-0.12,5.75-0.12,8.63c0,14.39,0.04,28.78,0.04,43.16c0,9.59-0.01,19.17-0.05,28.76c-0.01,1.92-0.02,3.87-0.36,5.74
			c-1.27,6.97-1.11,14.02-1.4,21.05c-0.4,9.58-0.74,19.18-0.71,28.77c0.04,11.8-0.82,23.59-0.28,35.38
			c0.4,8.63,0.52,17.22-0.56,25.81c-0.23,1.88,0.12,3.82,0.2,5.74c0.23,5.11,0.56,10.22,0.66,15.34c0.06,3.18-0.23,6.37-0.38,9.56
			c-0.12,2.55-0.31,5.1-0.4,7.65c-0.04,1.27,0.38,2.64,0.05,3.82c-1.57,5.64-0.27,11.48-1.29,17.16c-0.39,2.16-0.02,4.46-0.03,6.69
			c-0.01,5.11,0.06,10.23-0.09,15.34c-0.3,9.59-0.99,19.18,0.32,28.75c0.62,4.53-0.79,8.88-0.88,13.36
			c-0.06,3.17-0.63,6.31-0.2,9.53c0.21,1.54,0.23,3.34-0.36,4.72c-1.74,4.07-1.16,8.16-0.6,12.27c0.17,1.26,0.6,2.5,0.75,3.76
			c0.43,3.57-1.84,6.95-5.41,8.07c-1.22,0.38-2.47,0.8-3.72,0.88c-3.33,0.22-6.1,1.75-8.89,3.34c-9.17,5.23-18.53,10.06-28.23,14.28
			c-9.37,4.08-18.42,8.89-27.6,13.38c-0.57,0.28-1.15,0.58-1.65,0.97c-6.57,5.17-14.43,8.25-21.24,13.02
			c-1.04,0.73-2.17,1.37-3.31,1.92c-15.56,7.51-30.26,16.58-45.29,25.06c-10.29,5.81-20.63,11.52-30.91,17.35
			c-5,2.84-9.9,5.84-14.83,8.79c-0.82,0.49-1.53,1.19-2.38,1.6c-11.19,5.51-21.77,12.12-32.76,17.99
			c-10.14,5.42-20.48,10.5-30.15,16.77c-1.07,0.69-2.25,1.2-3.39,1.78c-1.43,0.72-3,1.23-4.29,2.15
			c-7.35,5.19-15.65,8.66-23.49,12.97c-3.36,1.85-6.76,3.62-10.15,5.42c-0.56,0.3-1.22,0.47-1.72,0.85
			c-6.65,5.06-14.36,8.28-21.54,12.42c-5.82,3.36-11.44,7.01-17.16,10.51c-4.6,2.81-9.27,5.67-14.55,7.27
			c-2.74,0.83-5.15,2.44-7.51,4.16c-5.42,3.94-11.09,7.39-17.3,10.14c-9.63,4.27-18.66,9.81-27.95,14.81
			c-5.91,3.18-11.6,6.69-17.04,10.62c-2.84,2.05-5.87,3.87-8.93,5.59c-9.47,5.33-19,10.53-28.48,15.85
			c-3.62,2.03-7.21,4.14-10.68,6.41c-4.8,3.15-9.47,6.52-14.22,9.75c-1.31,0.89-2.67,1.81-4.13,2.39
			c-7.47,2.95-14.31,7.17-21.28,11.04c-5.86,3.25-11.59,6.72-17.65,9.61c-0.58,0.28-1.16,0.55-1.7,0.9
			c-12.3,8.08-25.55,14.51-38.2,21.98c-5.27,3.11-11.18,4.67-16.54,7.53c-5.92,3.15-12.11,5.8-18.12,8.81
			c-3.98,2-7.53,4.75-11.46,6.89c-8.98,4.89-17.69,10.26-26.53,15.4c-1.93,1.12-3.96,2.08-5.96,3.07
			c-8.31,4.12-16.49,8.43-23.87,14.15c-3.27,2.53-6.88,4.58-10.86,6.03c-5.42,1.97-10.26,4.96-14.91,8.5
			c-10.18,7.74-20.82,14.84-32.55,20.1c-2.11,0.95-3.84,2.3-5.37,3.94c-3.13,3.33-6.88,5.68-11.05,7.47
			c-4.72,2.03-9.23,4.49-13.37,7.49c-4.43,3.21-9.17,5.83-13.92,8.46c-17.35,9.62-34.68,19.27-51.99,28.96
			c-27.36,15.32-54.66,30.74-82.03,46.03c-33.24,18.57-66.53,37.05-99.79,55.59c-29.06,16.21-58.09,32.48-87.16,48.66
			c-39.7,22.1-79.45,44.09-119.14,66.21c-39.13,21.81-78.18,43.75-117.3,65.57c-24.03,13.4-48.16,26.64-72.19,40.03
			c-26.55,14.79-53.04,29.71-79.59,44.51c-22.36,12.46-44.77,24.82-67.15,37.26c-2.23,1.24-4.33,2.7-6.49,4.06
			C1537.52,2765.4,1527.28,2765.4,1517.04,2765.4z M3092.74,135.43c0.25-11.14,0.13-21.07,0.82-30.94
			c0.48-6.9-1.11-13.29-2.86-19.75c-0.44-1.62-1.82-2.8-3.46-2.99c-4.75-0.56-9.47-1.46-14.31-1.19c-3.18,0.18-6.39-0.05-9.59-0.12
			c-4.79-0.1-9.58-0.16-14.37-0.33c-11.82-0.4-23.68-0.41-35.45-1.43c-7.39-0.64-14.69-0.74-22,0.04
			c-5.18,0.55-10.2,0.23-15.23-0.92c-2.49-0.57-5.06-1.45-7.52-1.26c-3.89,0.3-7.65-0.47-11.48-0.52c-3.84-0.05-7.73-0.35-11.5,0.16
			c-7.33,1-14.68,0.93-22.03,0.95c-5.42,0.02-10.86-0.73-16.24,0.51c-0.61,0.14-1.28,0.08-1.92,0.04
			c-8.93-0.45-17.87-0.73-26.78-1.46c-3.83-0.31-7.64-0.53-11.48-0.55c-3.19-0.01-6.37-0.25-9.56-0.37
			c-1.27-0.05-2.56-0.22-3.82-0.1c-14.04,1.37-28.12,0.45-42.18,0.77c-10.52,0.24-21.07-0.44-31.6-1.41
			c-6.63-0.61-13.36,0.41-20.06-0.2c-2.17-0.2-4.42,0.74-6.65,0.76c-17.27,0.2-34.54,0.33-51.81,0.41
			c-5.75,0.03-11.52,0.25-17.23-0.88c-0.93-0.18-1.97-0.33-2.85-0.1c-4.19,1.14-8.22,0.14-12.32-0.52c-3.14-0.5-6.37-0.55-9.56-0.63
			c-7.35-0.17-14.71-0.08-22.06-0.38c-9.59-0.39-19.16-1.22-28.74-1.54c-14.08-0.46-28.03-2.3-42.05-3.38
			c-8.28-0.64-16.56-1.33-24.83-2.26c-7.93-0.89-15.95-0.92-23.94-1.29c-5.11-0.24-10.26-0.03-15.31-0.71
			c-5.11-0.69-10.18-0.93-15.3-0.83c-2.88,0.06-5.79,0.3-8.63-0.04c-7.92-0.97-15.82-1.99-23.79-2.64
			c-6.68-0.55-13.31-1.53-20.04-1.56c-3.51-0.01-7.03-0.3-10.54-0.48c-9.57-0.49-19.15-0.91-28.69-1.84c-0.63-0.06-1.28,0-1.92-0.05
			c-2.55-0.2-5.1-0.42-7.65-0.65c-4.78-0.44-9.55-0.93-14.32-1.33c-5.42-0.45-10.84-0.83-16.26-1.2c-4.47-0.31-8.93-0.59-13.41-0.83
			c-5.11-0.28-10.28-0.09-15.32-0.85c-6.36-0.96-12.71-1.11-19.09-1.45c-21.4-1.14-42.83-1.5-64.18-3.51
			c-0.95-0.09-1.93-0.16-2.87-0.04c-5.12,0.64-10.17-0.11-15.27-0.47c-11.48-0.79-23.01-1.33-34.52-1.3
			c-7.69,0.02-15.34-0.34-23.01-0.59c-4.79-0.15-9.59-0.06-14.38-0.12c-1.92-0.02-3.86,0.02-5.74-0.27
			c-3.83-0.59-7.61-0.88-11.44-0.01c-0.92,0.21-1.91,0.16-2.87,0.14c-7.03-0.2-14.07-0.37-21.09-0.65c-2.55-0.1-5.13-0.27-7.62-0.79
			c-3.79-0.79-7.59-1-11.44-1.05c-6.39-0.09-12.86,0.24-19.16-0.59c-8.92-1.18-17.87-0.51-26.78-1.29
			c-5.09-0.45-10.23-0.65-15.32-0.45c-4.18,0.17-8.3-0.11-12.45-0.35c-6.38-0.37-12.77-0.64-19.16-0.8
			c-3.19-0.08-6.38,0.17-9.58,0.26c-10.54,0.32-21.11-0.35-31.62,1.04c-2.84,0.37-5.75,0.19-8.63,0.2
			c-7.68,0.03-15.36-0.16-23.03,0.11c-5.45,0.19-10.85,0.12-16.29-0.22c-5.09-0.32-10.31-0.62-15.33,0.09
			c-9.86,1.38-19.76,1.28-29.64,1.69c-3.49,0.14-7.03-0.2-10.5-0.69c-3.19-0.45-6.32-0.68-9.54-0.55
			c-8.92,0.37-17.81,1.99-26.78,0.81c-0.31-0.04-0.64,0.06-0.95,0.08c-6.73,0.57-13.41,0.02-20.09-0.83
			c-1.88-0.24-3.89-0.45-5.69-0.02c-2.55,0.61-5.04,0.59-7.61,0.55c-4.46-0.08-8.93,0-13.39,0.01c-4.5-1.93-8.81,0.48-13.22,0.56
			c-0.64,0.01-1.28-0.09-1.92-0.12c-4.77-0.22-9.57,0.67-14.33-0.55c-1.18-0.3-2.54,0.07-3.81,0.18c-1.91,0.17-3.84,0.7-5.71,0.54
			c-4.2-0.36-8.27,0.67-12.4,0.8c-4.14,0.13-8.29-0.5-12.44-0.73c-1.27-0.07-2.56,0.1-3.83,0.1c-5.74-0.02-11.56,0.5-17.2-0.27
			c-4.81-0.66-9.55-0.49-14.32-0.59c-3.2-0.07-6.36-0.03-9.54-0.68c-2.48-0.5-5.08-0.51-7.63-0.61c-5.75-0.22-11.5-0.34-17.25-0.53
			c-3.2-0.11-6.39-0.43-9.58-0.42c-13.41,0.03-26.8,0.65-40.22,0.45c-8.94-0.14-17.89,0.72-26.83,1.09
			c-2.87,0.12-5.75,0.14-8.63,0.14c-1.92,0-3.84-0.25-5.75-0.17c-6.85,0.28-8.64,2.06-10.12,9.12c-0.32,1.55-0.25,3.18-0.31,4.78
			c-0.34,8.31-0.63,16.61-1.03,24.92c-0.17,3.51-0.79,7.01-0.85,10.51c-0.17,10.21-0.14,20.43-0.22,30.64
			c-0.02,1.91,0.01,3.87-0.38,5.72c-0.54,2.55-0.52,5.03-0.28,7.61c0.3,3.18,0.22,6.39,0.28,9.58c0.11,5.75,0.07,11.48,0.7,17.23
			c0.48,4.4,0.14,8.9,0.02,13.36c-0.09,3.51-0.51,7.01-0.57,10.52c-0.14,8.32-0.18,16.63-0.19,24.95
			c-0.02,10.19-0.89,20.35,0.06,30.58c0.62,6.64-0.02,13.4,0.6,20.11c0.21,2.21-0.08,4.47-0.14,6.71
			c-0.14,5.11-0.33,10.23-0.4,15.34c-0.14,9.91-0.25,19.81-0.28,29.72c-0.01,4.79,0,9.6,0.34,14.37c0.32,4.48,0.39,8.91-0.04,13.4
			c-0.37,3.8-0.31,7.66-0.25,11.49c0.1,6.07,0.42,12.14,0.53,18.22c0.12,6.39-0.28,12.82,0.25,19.17
			c0.56,6.68-0.65,13.44,0.97,20.05c-0.21,5.42,0.48,10.87-0.95,16.24c-0.48,1.81-0.55,3.81-0.43,5.7
			c0.66,9.91,0.23,19.82,0.21,29.73c-0.01,5.75-0.11,11.52-0.45,17.26c-0.44,7.37-0.54,14.69,0.89,21.98
			c0.36,1.86,0.68,3.9,0.28,5.69c-0.85,3.85-0.52,7.58-0.13,11.42c0.32,3.15-0.07,6.37-0.16,9.56c-0.05,1.59-0.33,3.2-0.17,4.77
			c0.44,4.43,0.6,8.96,1.7,13.23c1.17,4.57-0.54,8.91-0.13,13.35c0.17,1.91,0.21,3.84,0.51,5.73c1.43,8.92,1.42,17.82,0.03,26.75
			c-0.64,4.11-0.81,8.26-0.54,12.44c0.39,6.08,0.27,12.15-1.09,18.14c-0.65,2.86-0.65,5.7,0.21,8.53c0.84,2.8,0.63,5.69,0.61,8.57
			c-0.04,5.11,0.09,10.23,0.17,15.34c0.02,1.6,0.16,3.19,0.17,4.79c0.02,20.48-0.14,40.95,0.1,61.43c0.1,8.92-0.97,17.9,0.99,26.77
			c0.27,1.22,0.07,2.55,0.11,3.83c0.11,4.15-0.06,8.33,0.38,12.45c0.92,8.62,0.54,17.26,0.68,25.88
			c0.24,14.39-0.02,28.79-0.09,43.19c-0.04,8.64-0.13,17.27-0.2,25.91c-0.01,0.96-0.1,1.93,0.01,2.88
			c1.04,8.3,0.47,16.61,0.31,24.92c-0.23,12.15-0.04,24.3-0.27,36.45c-0.09,4.46,0.2,8.96-0.29,13.4
			c-0.56,5.12-0.47,10.21-0.3,15.33c0.28,8.31,0.66,16.62,0.76,24.94c0.09,7.35-0.12,14.71-0.24,22.07
			c-0.06,3.83-0.34,7.66-0.29,11.49c0.07,4.81,0,9.62-0.97,14.34c-0.92,4.44-0.96,8.87-0.8,13.37c0.19,5.11,0.1,10.23,0.15,15.34
			c0.02,2.24,0.07,4.48,0.11,6.71c0.05,2.88,0.35,5.78,0.09,8.63c-0.59,6.39-0.23,12.79-0.3,19.18c-0.06,5.44-0.02,10.87-0.08,16.31
			c-0.08,6.71-0.52,13.43,0.33,20.13c0.2,1.57,0,3.19-0.03,4.79c-0.15,8.63-0.38,17.25-0.4,25.88c-0.01,2.9,0.05,5.74-1.15,8.46
			c-0.8,1.81-0.6,3.72-0.45,5.66c0.35,4.45,0.73,8.92,0.73,13.39c0,5.11-0.5,10.22-0.6,15.34c-0.15,7.99-0.19,15.98-0.19,23.97
			c0,4.48,0.16,8.95,0.29,13.43c0.06,2.23-0.03,4.51,0.37,6.69c0.94,5.11,0.56,10.18,0.23,15.3c-0.52,7.97-1.08,15.96-1.17,23.95
			c-0.17,15.03,0.01,30.06,0,45.08c0,3.84-0.22,7.67-0.22,11.51c0.01,11.83,0.08,23.65,0.12,35.48c0.01,1.92-0.16,3.84-0.08,5.75
			c0.46,11.18,1.11,22.35,0.25,33.53c-0.1,1.27-0.08,2.56-0.07,3.84c0.1,10.86,0.31,21.73,0.29,32.59
			c-0.04,13.75-0.19,27.5-0.48,41.25c-0.05,2.5-1.32,4.95-1.46,7.46c-0.15,2.51,1.57,4.8,1.28,7.48
			c-1.03,9.23,1.12,18.54-0.65,27.77c-0.12,0.61,0.08,1.27,0.09,1.91c0.18,6.07,0.45,12.14,0.46,18.2c0.01,2.2-0.4,4.46-1,6.58
			c-0.62,2.22-0.85,4.31-0.34,6.59c1.54,6.89,2.33,13.86,1.73,20.95c-0.16,1.89,0.2,3.83,0.24,5.75c0.06,2.55,0.08,5.1,0.05,7.65
			c-0.05,3.52-0.25,7.03-0.24,10.55c0.01,4.16,0.52,8.33,0.22,12.46c-0.79,10.9,0.16,21.75,0.82,32.58
			c0.29,4.83,0.25,9.55-0.21,14.32c-0.18,1.89-0.36,3.9,0.07,5.71c0.82,3.49,0.85,6.93,0.57,10.47c-0.4,5.07,0.58,10.24-1.06,15.24
			c-0.1,0.29-0.15,0.67-0.06,0.95c1.5,4.72,1.32,9.41,0,14.16c-0.32,1.15,0.14,2.53,0.31,3.79c0.29,2.22,0.57,4.44,0.97,6.64
			c0.53,2.85,0.95,5.63-0.16,8.5c-0.42,1.08-0.09,2.49,0.04,3.74c0.17,1.58,0.67,3.14,0.69,4.72c0.15,8.31,0.29,16.63,0.25,24.94
			c-0.03,8.63-0.53,17.26,0.55,25.86c0.36,2.88,0.22,5.72-0.41,8.58c-0.62,2.83-0.74,5.74-0.07,8.58c1.12,4.74,0.63,9.5,0.42,14.26
			c-0.1,2.42,0.67,3.76,2.6,4.57c3.87,1.63,7.88,2.61,12.07,2.9c1.9,0.13,3.88,0.19,5.66,0.78c3.14,1.04,6.3,1.1,9.49,0.83
			c7.04-0.6,14.03,0.6,21.06,0.54c1.9-0.02,3.84,0.26,5.71,0.66c9.8,2.09,19.69,2.21,29.52,0.76c6.42-0.95,12.71-1.01,19.09-0.07
			c3.47,0.51,7,1.14,10.51,0.46c4.14-0.8,8.22-0.49,12.38-0.19c13.39,0.96,26.84,0.63,40.24,1.67c1.26,0.1,2.54-0.25,3.82-0.3
			c1.27-0.06,2.58-0.18,3.82,0.03c5.71,0.95,11.47,0.83,17.22,1.05c1.9,0.07,3.89,0.17,5.67,0.77c3.08,1.02,6.23,1.34,9.41,1.72
			c6.03,0.73,12.05,1.5,18.03,2.52c2.88,0.49,5.66,0.91,8.52,0.06c1.87-0.56,3.81-0.69,5.68-0.06c4.35,1.46,8.9,1.29,13.32,1.18
			c4.49-0.12,8.93,0.18,13.39,0.25c15.02,0.26,30.04,0.57,45.02,1.82c5.4,0.45,10.87,0.15,16.17,1.8c1.46,0.46,3.16,0.15,4.76,0.16
			c1.92,0.02,3.84-0.05,5.75,0.02c9.27,0.34,18.53,0.81,27.8,1.04c8.62,0.21,17.24,0.69,25.87-0.28c3.45-0.39,7.03-0.08,10.51,0.26
			c8.9,0.87,17.75,1.8,26.77,1.55c10.2-0.28,20.44,0.73,30.67,1.03c9.58,0.28,19.11,1.5,28.72,1.41c3.81-0.04,7.62,0.66,11.44,0.74
			c5.75,0.12,11.5-0.02,17.26-0.01c5.73,0.01,11.42,0.78,17.21,0.38c6.03-0.42,12.13,0.1,18.19,0.38
			c10.51,0.49,21.11-0.48,31.5,2.02c1.22,0.29,2.55,0.11,3.82,0.23c9.88,0.95,19.79,0.44,29.68,0.72
			c10.87,0.31,21.73,0.77,32.59,1.2c3.83,0.15,7.65,0.48,11.48,0.58c6.07,0.16,12.15,0.32,18.23,0.23
			c6.09-0.09,12.11,0.16,18.02,1.76c6.05-0.34,12.1,1.22,18.18-0.06c1.53-0.32,3.19-0.02,4.78,0.01
			c12.15,0.18,24.31,0.37,36.46,0.52c1.6,0.02,3.19-0.16,4.79-0.19c3.83-0.06,7.67-0.16,11.5-0.12c11.81,0.11,23.59,1.39,35.44,0.44
			c6.02-0.49,12.14,0.03,18.2,0.39c3.53,0.21,6.97,0.22,10.49-0.35c3.13-0.51,6.37-0.48,9.56-0.43c5.11,0.09,10.21,0.46,15.34-0.08
			c2.2-0.23,4.54-0.18,6.68,0.31c4.15,0.97,8.15,1.07,12.32,0.05c1.77-0.43,3.81-0.03,5.68,0.25c6.97,1.04,13.95,1.8,21.03,1.5
			c2.23-0.09,4.48,0.05,6.7,0.33c4.16,0.53,8.25,0.49,12.42-0.04c3.47-0.43,7.03-0.32,10.54-0.14c13.4,0.71,26.77,2.22,40.23,1.69
			c1.59-0.06,3.19,0.19,4.79,0.22c4.47,0.1,8.95,0.3,13.41,0.2c6.4-0.13,12.76,0.01,19.15,0.68c6.02,0.63,12.13,0.8,18.18,0.67
			c8-0.17,15.96,0.29,23.93,0.68c10.22,0.5,20.42,1.53,30.67,0.71c3.2-0.25,6.34,0.14,9.54,0.58c11.09,1.52,22.22,2.65,33.45,2.59
			c9.27-0.05,18.54,0.08,27.81,0.16c1.6,0.01,3.32-0.24,4.76,0.27c4.37,1.55,8.87,1.23,13.29,1.05c6.71-0.29,13.4,1,20.11,0.08
			c0.93-0.13,1.91,0.15,2.86,0.2c3.83,0.18,7.66,0.35,11.49,0.51c5.42,0.23,10.81,0.3,16.2,1.46c5.29,1.14,10.75,1.47,16.23,0.96
			c5.11-0.48,10.24-0.46,15.32,0.25c6.64,0.93,13.24,2.08,19.91,2.81c3.23,0.36,6.33,0.7,9.48-0.05c2.22-0.52,4.41-0.48,6.65-0.03
			c1.56,0.31,3.17,0.45,4.76,0.5c17.25,0.48,34.52,0.19,51.77,1.14c1.28,0.07,2.56,0.1,3.84,0.02c4.17-0.25,8.27,0.12,12.42,0.61
			c6.97,0.81,13.97,1.44,20.99-0.25c2.73-0.66,5.75-0.53,8.59-0.27c9.89,0.9,19.78,1.25,29.7,1.01c4.18-0.1,8.26,0.28,12.31,1.55
			c2.4,0.76,5.03,0.96,7.57,1.04c4.47,0.14,8.95,0,13.43-0.05c11.51-0.12,23.03-0.4,34.47,1.35c3.19,0.49,6.35,0.54,9.53-0.2
			c1.53-0.35,3.3-0.77,4.7-0.34c4.76,1.48,9.56,0.32,14.31,0.67c6.15,0.46,12.09-1,18.11-1.64c3.76-0.4,5.68-2.82,5.82-6.45
			c0.06-1.6-0.03-3.2-0.02-4.8c0.04-6.4-0.14-12.81,0.22-19.18c0.4-7.06,0.29-14.05-0.93-21.02c-0.27-1.57-0.72-3.17-0.61-4.72
			c0.51-7.31-0.35-14.71,1.39-21.95c0.3-1.23,0.34-2.55,0.32-3.82c-0.11-7.68,0.22-15.34,0.61-23c0.4-7.66,0.59-15.32,0.91-22.98
			c0.27-6.38,1-12.76,0.02-19.16c-0.24-1.55-0.04-3.19,0.09-4.78c0.62-7.37,0.43-14.72-0.64-22.02c-0.89-6.09-0.85-12.11,0.28-18.13
			c0.6-3.19,0.64-6.37-0.06-9.53c-0.63-2.86-0.64-5.7-0.03-8.56c0.26-1.25,0.41-2.53,0.48-3.8c0.26-4.46,1.01-8.99,0.53-13.38
			c-0.49-4.5,0.07-8.88,0.06-13.31c-0.01-9.27-0.28-18.54-0.08-27.8c0.17-8,0.03-15.97-0.42-23.96c-0.54-9.61,0.69-19.17,1.92-28.66
			c0.46-3.53,0.82-6.93,0.39-10.45c-0.51-4.13-0.98-8.26,0.41-12.35c0.64-1.88,0.2-3.79-0.35-5.65c-0.92-3.11-1.51-6.34-0.56-9.46
			c1.25-4.12,1.18-8.17,0.55-12.34c-0.24-1.56,0.08-3.19,0.03-4.79c-0.26-8.3,1.14-16.58,0.24-24.9c-0.55-5.08-0.23-10.18,0.01-15.3
			c0.39-8.29,0.5-16.63,0.07-24.92c-0.28-5.44-0.39-10.83-0.1-16.26c0.32-6.07,0.31-12.15,0.44-18.23c0.06-2.88-0.22-5.82,0.3-8.62
			c0.7-3.8,1.44-7.43,0-11.25c-0.53-1.42-0.42-3.19-0.21-4.75c0.63-4.8,0.4-9.55-0.19-14.33c-0.39-3.16-0.42-6.37-0.55-9.56
			c-0.05-1.26-0.15-2.6,0.19-3.78c1.27-4.36,2.11-8.63,0.42-13.13c-0.53-1.41-0.19-3.16-0.19-4.76c0.01-3.2,0.15-6.4,0.1-9.6
			c-0.09-5.77,0.03-11.51,1.06-17.21c0.57-3.15,0.69-6.3,0.1-9.53c-0.45-2.48-0.45-5.13-0.15-7.64c0.86-7.03,0.47-14.03,0.01-21.05
			c-0.39-6.05-0.92-12.11-0.95-18.17c-0.08-13.75,0.13-27.5,0.16-41.25c0-1.9-0.12-3.86-0.56-5.7c-1.82-7.58-1.93-15.17-0.72-22.85
			c0.44-2.83,0.53-5.73,0.56-8.59c0.08-8.95-0.02-17.9,0.12-26.84c0.04-2.59-0.21-5.02-0.9-7.54c-1.35-4.93-2.45-9.94-1.67-15.14
			c0.14-0.93-0.04-1.91-0.06-2.87c-0.26-10.21-0.96-20.42,0.02-30.64c0.15-1.55-0.16-3.2-0.53-4.74c-0.93-3.79-0.86-7.6-0.71-11.45
			c0.26-6.71,0.62-13.42,0.6-20.13c-0.01-4.14-0.59-8.28-1.02-12.41c-0.23-2.22-0.9-4.42-0.95-6.64
			c-0.24-10.22-1.44-20.42-0.6-30.66c0.37-4.48,0.28-8.92-0.32-13.4c-0.46-3.47-0.41-7.02-0.42-10.53c-0.04-7.68,0.19-15.36,0-23.03
			c-0.19-7.64,1.18-15.3-0.25-22.93c-0.17-0.92,0.04-1.91,0.04-2.87c0.09-14.07,0.18-28.15,0.26-42.22
			c0.01-1.28-0.07-2.55-0.12-3.83c-0.44-10.84-1.17-21.68-0.18-32.54c0.23-2.5-0.2-5.11-0.6-7.62c-0.81-5.08-1.34-10.14-0.53-15.28
			c0.25-1.56,0.29-3.21,0.11-4.78c-1.27-10.82-1.22-21.7-1.34-32.57c-0.06-5.1-0.55-10.26,0.04-15.29
			c0.61-5.18,0.57-10.23-0.53-15.24c-0.56-2.57-0.78-5.02-0.21-7.56c0.5-2.23,0.3-4.4-0.24-6.63c-0.6-2.46-0.94-5.02-1.13-7.55
			c-0.67-8.95-0.18-17.89,0.1-26.84c0.06-1.9,0.29-3.9-0.19-5.69c-1.01-3.78-1.54-7.48-0.75-11.36c0.25-1.21,0.06-2.56-0.14-3.81
			c-1.85-11.77-0.81-23.6-0.48-35.39c0.25-8.94,0.92-17.87,0.74-26.82c-0.07-3.51-0.2-7.03,0.04-10.52
			c0.25-3.57-0.06-6.98-1.13-10.41c-0.56-1.79-0.97-3.82-0.71-5.63c0.66-4.5,0.52-8.88-0.42-13.32c-0.39-1.83,0.01-3.82-0.07-5.74
			c-0.36-8.3,1.51-16.5,1.04-24.82c-0.25-4.42-0.58-8.93,0.83-13.31c0.37-1.17,0.16-2.53,0.17-3.81c0.03-3.19-0.06-6.39,0.05-9.58
			c0.24-6.71,0.21-13.47,0.98-20.12c0.81-7.05-0.62-13.98-0.21-21.02c0.56-9.55-0.05-19.17-0.15-28.76
			c-0.01-0.64-0.08-1.29,0.02-1.91c1.42-8.22,0.3-16.63,1.94-24.84c0.25-1.23,0.26-2.59,0-3.81c-1.36-6.37-0.94-12.68,0.2-19.03
			c0.34-1.87,0.2-3.83,0.34-5.74c0.14-1.91,0.21-3.84,0.55-5.72c1.56-8.52,2.23-17.11,2.25-25.76c0.02-6.41,0.4-12.76,2-19.02
			c0.63-2.45,1.13-5.1,0.89-7.57c-0.58-6.09,0.25-12.12,0.2-18.18c-0.03-3.52,0.02-7.01,1.05-10.46c0.44-1.49,0.4-3.16,0.38-4.74
			c-0.05-4.15-0.27-8.3-0.29-12.45c-0.02-5.12,0.11-10.21,1.57-15.22c0.61-2.1,0.63-4.42,0.64-6.64
			c0.08-14.71,0.03-29.41,0.15-44.12c0.03-3.51,0.2-7.07,0.88-10.5c1.68-8.52,2.11-17.06,1.67-25.73c-0.36-7.02-0.2-14.07-0.2-21.11
			c0-1.58,0.07-3.24,0.54-4.73c0.7-2.25,0.51-4.32-0.05-6.56c-0.45-1.81-0.3-3.79-0.28-5.69c0.02-1.91,0.52-3.86,0.25-5.72
			C3092.49,152.73,3093.83,143.43,3092.74,135.43z"/>
	</g>
</g>
</svg>
