<?xml version="1.0" encoding="utf-8"?>
<!-- Generator: Adobe Illustrator 23.0.2, SVG Export Plug-In . SVG Version: 6.00 Build 0)  -->
<svg version="1.1" id="pause_xA0_Image_1_" xmlns="http://www.w3.org/2000/svg" xmlns:xlink="http://www.w3.org/1999/xlink" x="0px"
	 y="0px" viewBox="0 0 2196.24 2356.8" style="enable-background:new 0 0 2196.24 2356.8;" xml:space="preserve">
<style type="text/css">
	.st0{fill:#FFFFFF;}
</style>
<g>
	<path d="M938.97,2083.98c-0.8,0-1.6,0.01-2.4,0c-2.6-0.05-4.67,0.92-6.12,3.11c-0.09,0.13-0.2,0.25-0.28,0.39
		c-2.82,5-7.19,5.82-12.38,4.74c-2.49-0.52-5.05-0.84-7.59-1.01c-3.25-0.22-5.96,0.9-7.76,3.8c-0.5,0.81-1.14,1.55-1.76,2.28
		c-1.9,2.25-4.33,3.2-7.26,2.85c-0.16-0.02-0.32-0.02-0.47-0.07c-4.53-1.44-7.84,0.33-10.23,4.09c-2.16,3.4-5.16,4.45-9.02,4.08
		c-9.55-0.91-19.12-1.69-28.68-2.52c-5.58-0.49-11.16-0.92-16.72-1.51c-3.3-0.36-5.97,0.6-8.11,3.12c-0.73,0.85-1.51,1.65-2.28,2.47
		c-2.11,2.27-4.78,3.2-7.8,2.94c-7.97-0.69-15.93-1.47-23.89-2.22c-0.96-0.09-1.91-0.23-2.86-0.36c-4.13-0.56-7.59,0.54-10.11,4.03
		c-0.56,0.77-1.24,1.46-1.89,2.17c-1.37,1.51-3.08,2.24-5.12,2.21c-1.44-0.02-2.89,0.02-4.32-0.11
		c-11.15-1.02-22.29-2.05-33.43-3.11c-4.11-0.39-7.64,0.43-9.98,4.21c-0.42,0.68-0.92,1.31-1.42,1.93
		c-1.27,1.58-2.92,2.49-4.95,2.56c-1.44,0.05-2.88,0.05-4.31-0.03c-2.44-0.14-4.22-1.3-5.3-3.53c-0.63-1.3-1.28-2.58-2.01-3.82
		c-2.5-4.22-6.3-4.47-9.18-0.65c-0.1,0.13-0.2,0.26-0.26,0.4c-2.3,4.94-6.48,5.58-11.28,5.15c-5.25-0.47-10.52-0.82-15.78-1.04
		c-3.55-0.15-6.07-1.58-7.66-4.8c-0.84-1.7-1.79-3.41-2.98-4.88c-1.42-1.73-3.46-1.61-4.97,0.1c-0.74,0.83-1.27,1.84-1.94,2.74
		c-0.66,0.9-1.25,1.88-2.06,2.63c-2.01,1.84-4.72,1.46-6.12-0.91c-0.97-1.64-1.54-3.52-2.47-5.19c-1.21-2.16-3.75-2.65-5.78-1.2
		c-0.64,0.46-1.2,1.06-1.7,1.67c-0.71,0.86-1.33,1.8-1.99,2.71c-1.75,2.39-3.92,3.71-7.02,2.86c-0.76-0.21-1.59-0.16-2.38-0.21
		c-2.77-0.17-4.99,0.9-6.7,3.05c-0.5,0.62-0.99,1.26-1.42,1.93c-2.17,3.34-5.42,4.41-9.15,4.06c-10.67-0.99-21.32-2.11-31.98-3.15
		c-1.75-0.17-3.51-0.2-5.26-0.36c-2.97-0.27-5.29,0.9-7.17,3.12c-0.41,0.49-0.87,0.95-1.24,1.47c-2.52,3.5-6.02,4.5-10.14,4.05
		c-4.45-0.49-8.9-0.95-13.36-1.36c-9.72-0.89-19.44-1.74-29.16-2.6c-0.64-0.06-1.28-0.03-1.92-0.08c-3.64-0.31-6.59,0.92-8.77,3.89
		c-0.38,0.52-0.76,1.03-1.18,1.52c-2.84,3.39-7.19,4.45-11.22,2.74c-1.53-0.65-2.69-1.71-3.57-3.09c-0.95-1.48-1.8-3.03-2.8-4.47
		c-2.13-3.05-5.68-3.27-8.13-0.5c-0.95,1.08-1.73,2.3-2.56,3.47c-3.26,4.62-11.7,4.2-14.34-1.77c-0.39-0.88-0.67-1.81-1.15-2.64
		c-2.31-4-6.45-4.47-9.5-1.07c-0.74,0.82-1.31,1.81-1.9,2.76c-1.19,1.91-2.97,2.88-5.14,3.12c-1.11,0.12-2.24,0.16-3.35,0.07
		c-9.08-0.8-18.15-1.63-27.23-2.48c-1.75-0.16-3.48-0.49-5.23-0.67c-1.59-0.16-3.19-0.32-4.78-0.3c-3.23,0.03-5.58,1.53-6.45,4.7
		c-1.06,3.89-3.73,5.57-7.45,5.43c-4.94-0.19-9.88-0.67-14.8-1.22c-2.38-0.27-3.98-1.97-5.11-3.99c-0.7-1.25-1.36-2.56-1.82-3.91
		c-0.88-2.6-2.76-3.82-5.33-4.19c-1.11-0.16-2.22-0.3-3.34-0.32c-2.44-0.04-4.28-1.17-5.75-3c-0.8-1-1.52-2.06-2.32-3.05
		c-1.29-1.62-2.62-3.2-3.92-4.81c-0.91-1.11-1.87-2.19-2.68-3.37c-1.91-2.76-3.81-5.52-6.43-7.71c-2.53-2.12-3.44-4.93-3.02-8.18
		c0.31-2.38,0.77-4.75,0.94-7.14c0.56-7.82,0.99-15.64,1.53-23.46c0.1-1.42,0.27-2.88,0.74-4.21c0.78-2.22,2.52-3.61,4.62-4.63
		c3.87-1.88,5.67-5.1,5.49-9.32c-0.28-6.58,0.48-13.1,0.93-19.64c0.22-3.19,0.61-6.37,1.02-9.54c0.57-4.34-0.65-7.83-4.31-10.47
		c-3.43-2.47-4.68-5.84-3.86-10.1c1.09-5.67,1.42-11.42,1.34-17.2c-0.01-0.8,0.01-1.6,0.02-2.4c0.04-3.51,1.55-6.12,4.69-7.77
		c1.13-0.59,2.28-1.2,3.25-2.01c2.65-2.23,2.81-4.98,0.46-7.5c-0.75-0.81-1.62-1.57-2.57-2.13c-3.53-2.07-4.46-5.17-3.93-9.02
		c0.61-4.43,1.12-8.88,1.61-13.33c0.28-2.54,0.46-5.1,0.61-7.65c0.22-3.61-0.99-6.55-4.02-8.72c-1.28-0.92-2.59-1.97-3.46-3.25
		c-2.91-4.24-1.29-12.11,2.96-15.08c0.92-0.64,1.88-1.22,2.84-1.8c2.68-1.62,4.05-4.02,4.27-7.1c0.31-4.3,0.64-8.6,0.9-12.91
		c0.2-3.26-0.86-5.97-3.67-7.86c-0.66-0.44-1.31-0.92-1.92-1.44c-1.93-1.64-3.03-3.73-3.07-6.27c-0.03-1.59,0.09-3.2,0.26-4.78
		c0.34-3.08,1.78-5.62,4.65-6.81c5.3-2.21,6.57-6.41,6.66-11.6c0.09-5.11,0.56-10.21,0.87-15.31c0.04-0.64,0.05-1.28,0.15-1.91
		c0.77-4.72-0.54-8.49-4.76-11.11c-3.09-1.91-3.89-4.96-3.56-8.35c0.66-6.84,1.3-13.69,2.16-20.51c0.53-4.21-0.48-7.76-4-10.1
		c-4.16-2.77-5.16-6.32-4.57-11.14c1.01-8.25,1.49-16.56,2.1-24.85c0.87-11.8,1.66-23.61,2.46-35.42c0.16-2.39,0.25-4.79,0.31-7.19
		c0.1-3.79,1.34-6.89,4.99-8.6c0.29-0.14,0.55-0.33,0.83-0.48c5.31-2.73,6.31-7.58,5.48-13.14c-0.56-3.8-2.93-5.8-6.81-6.34
		c-1.74-0.24-3.52-0.26-5.22-0.68c-4.01-1-5.63-3.07-5.73-7.16c-0.04-1.43,0.14-2.87,0.26-4.31c0.85-10.36,1.75-20.71,2.55-31.08
		c0.91-11.8,1.75-23.61,2.59-35.41c0.79-11.17,1.5-22.34,2.32-33.51c0.35-4.78,0.7-9.58,1.4-14.32c0.67-4.56-0.36-8.22-4.27-10.88
		c-0.53-0.36-1.04-0.75-1.53-1.16c-1.54-1.31-2.39-2.99-2.5-5.01c-0.06-1.12-0.06-2.24-0.01-3.36c0.15-3.19,0.37-6.38,0.5-9.57
		c0.15-3.78,1.3-6.88,5.1-8.48c1.02-0.43,1.97-1.07,2.87-1.74c3.06-2.28,3.25-6.08,0.43-8.65c-1.06-0.97-2.26-1.79-3.4-2.66
		c-1.77-1.36-2.66-3.18-2.66-5.39c0-1.75,0.11-3.51,0.24-5.26c0.23-2.87,0.5-5.73,0.79-8.59c0.19-1.91,0.44-3.8,0.67-5.71
		c0.15-1.27,0.36-2.53,0.48-3.8c0.28-3.13-0.71-5.65-3.57-7.28c-0.83-0.47-1.61-1.06-2.31-1.71c-2.92-2.68-2.65-6.37,0.65-8.48
		c1.07-0.69,2.31-1.09,3.43-1.72c3.2-1.81,3.63-4.9,0.99-7.5c-1.02-1-2.33-1.69-3.43-2.6c-3.16-2.6-3.05-5.97,0.3-8.36
		c1.04-0.74,2.24-1.23,3.34-1.89c2.2-1.3,3.58-3.18,3.77-5.78c0.16-2.23,0.23-4.47,0.38-6.7c0.31-4.46,0.65-8.92,0.97-13.38
		c0.1-1.43,0.29-2.87,0.25-4.3c-0.05-2.35-0.99-4.34-2.78-5.9c-0.6-0.52-1.21-1.05-1.87-1.51c-3.27-2.26-4.29-5.41-3.7-9.22
		c0.34-2.21,0.67-4.43,1.01-6.64c0.17-1.11,0.37-2.21,0.54-3.31c0.66-4.35-0.61-7.95-4.37-10.39c-3.72-2.41-4.62-5.92-4.23-10
		c0.88-9.23,1.8-18.45,2.69-27.68c0.09-0.95,0.13-1.91,0.19-2.87c0.22-3.48-1.01-6.47-3.92-8.27c-4.36-2.7-5.16-6.52-4.6-11.16
		c0.61-5.08,1.13-10.17,1.48-15.28c0.49-7.18,0.77-14.37,1.15-21.56c0.05-0.96,0.08-1.92,0.15-2.87c0.23-3.11,1.8-5.4,4.35-7.09
		c0.27-0.18,0.52-0.39,0.82-0.5c4.38-1.63,5.68-5.31,6.27-9.45c0.49-3.45-0.62-6.31-3.28-8.55c-1.1-0.92-2.38-1.64-3.4-2.64
		c-2.65-2.58-2.19-5.69,1.04-7.5c1.25-0.7,2.65-1.18,3.81-2c3.31-2.36,3.51-5.19,0.64-8c-0.91-0.89-1.96-1.65-2.94-2.47
		c-2.67-2.23-3.71-5.07-3.38-8.53c0.7-7.48,1.29-14.97,1.97-22.46c0.2-2.23,0.55-4.44,0.88-6.66c0.64-4.37-0.73-7.94-4.36-10.47
		c-4.53-3.16-4.98-7.49-3.87-12.35c0.48-2.11,1.58-3.81,3.41-5.03c1.33-0.89,2.63-1.82,3.88-2.82c5.79-4.63,5.91-12.59,0.27-17.47
		c-0.36-0.31-0.77-0.58-1.14-0.88c-3.1-2.53-4.43-5.78-3.94-9.76c0.75-6.03,1.51-12.05,2.28-18.08c0.1-0.79,0.3-1.58,0.34-2.37
		c0.17-3.06-0.77-5.66-3.24-7.61c-1.13-0.89-2.28-1.78-3.27-2.81c-2.12-2.22-2.05-4.64,0.15-6.73c0.68-0.65,1.55-1.11,2.37-1.59
		c0.83-0.48,1.77-0.77,2.56-1.31c2.58-1.77,3.05-4.67,1.08-7.06c-0.8-0.96-1.86-1.75-2.9-2.47c-3.57-2.44-4.77-5.71-4.12-9.97
		c0.94-6.16,1.57-12.37,2.43-18.55c0.56-4.02-0.55-7.13-4.03-9.51c-5.76-3.95-5.34-9.43-4.01-14.09c0.56-1.96,2.03-3.22,3.74-4.18
		c1.11-0.62,2.36-1.04,3.4-1.76c2.95-2.06,3.22-5.81,0.59-8.24c-1.05-0.97-2.38-1.62-3.49-2.52c-3.23-2.6-2.9-6.04,0.75-8.13
		c1.38-0.79,2.91-1.36,4.2-2.28c2.15-1.53,2.46-3.78,0.79-5.83c-1-1.23-2.18-2.38-3.49-3.26c-3.21-2.15-3.97-5.05-3.55-8.74
		c0.92-8.1,1.65-16.23,2.33-24.36c0.29-3.5,0.27-7.03,0.39-10.55c0.05-1.44,0.07-2.88,0.1-4.32c0.07-3.84,1.66-6.77,5.08-8.64
		c0.28-0.15,0.55-0.34,0.83-0.49c3.39-1.87,4.97-4.84,5.23-8.61c0.27-3.83,0.55-7.65,0.79-11.48c0.2-3.22-0.64-6.02-3.42-7.98
		c-0.13-0.09-0.26-0.19-0.38-0.29c-3.81-2.86-5.23-6.6-4.57-11.35c0.75-5.38,1.23-10.8,1.75-16.21c0.19-1.9,0.23-3.83,0.24-5.74
		c0.01-2.38-1-4.33-2.8-5.87c-0.73-0.63-1.44-1.28-2.23-1.82c-2.95-2.06-3.85-4.96-3.57-8.39c0.35-4.14,0.72-8.28,1.03-12.42
		c0.27-3.57,2.32-6.12,5.27-7.51c4.64-2.18,5.96-5.84,6.01-10.5c0.03-2.71,0.19-5.44,0.52-8.13c0.55-4.51-0.53-8.3-4.45-10.87
		c-3.71-2.43-4.49-5.82-4.08-9.99c0.91-9.23,1.55-18.48,2.34-27.73c0.3-3.51,0.62-7.01,1.03-10.5c0.55-4.69-0.71-8.51-4.89-11.14
		c-2.85-1.8-3.95-4.55-3.64-7.83c0.28-3.02,0.81-6.03,1.03-9.05c0.58-7.82,1.02-15.64,1.59-23.46c0.43-5.9,0.78-11.82,1.56-17.68
		c0.57-4.26-0.4-7.7-4-10.03c-3.96-2.56-4.69-6.16-4.13-10.43c1.21-9.21,1.85-18.46,1.85-27.75c0-0.32,0.02-0.64,0.02-0.96
		c-0.01-4.22,1.67-7.43,5.54-9.32c4.08-1.99,5.69-5.41,5.7-9.75c0.01-5.61,0.23-11.19,1.12-16.74c0.15-0.94,0.11-1.92,0.22-2.87
		c0.44-3.97-0.67-7.21-4.12-9.57c-3.85-2.63-4.94-6.29-4.27-10.9c0.78-5.37,1.09-10.81,1.52-16.23c0.81-10.04,1.58-20.09,2.31-30.14
		c0.24-3.35,0.52-6.71,0.45-10.06c-0.09-4.21,1.34-7.48,4.95-9.74c0.68-0.42,1.31-0.92,1.96-1.38c2.97-2.08,4.33-4.99,4.58-8.56
		c0.22-3.24-0.71-6-3.06-8.25c-0.81-0.77-1.66-1.5-2.52-2.21c-2.84-2.33-4.03-5.38-3.53-8.95c2.75-19.67,3.38-39.5,4.73-59.28
		c0.5-7.34,1.08-14.68,1.67-22.01c0.11-1.43,0.46-2.84,0.61-4.27c0.18-1.75,0.29-3.5,0.36-5.26c0.08-2.2-0.71-4.07-2.33-5.57
		c-1.05-0.98-2.06-2.01-3.16-2.94c-2.57-2.17-3.5-4.99-2.98-8.18c1.17-7.13,1.51-14.31,1.59-21.51c0.04-3.52,1.68-5.94,4.82-7.66
		c5.65-3.07,7.75-8.56,5.8-14.61c-0.33-1.03-0.98-2.01-1.68-2.84c-0.92-1.09-1.98-2.11-3.1-3c-2.69-2.13-3.35-4.94-2.92-8.15
		c0.11-0.79,0.24-1.58,0.44-2.36c0.8-3.03-0.39-5.32-2.66-7.18c-0.86-0.71-1.88-1.23-2.74-1.94c-3.73-3.04-3.49-6.88,0.56-9.35
		c0.95-0.58,2.03-0.97,2.96-1.59c2.7-1.82,4.14-4.29,4.04-7.68c-0.26-9.13,0.46-18.21,1.62-27.27c0.14-1.11,0.28-2.22,0.42-3.33
		c0.4-3.1-0.57-5.67-2.97-7.69c-0.49-0.41-1.02-0.78-1.5-1.2c-6.31-5.5-5.89-13.86,0.93-18.84c0.9-0.66,1.86-1.27,2.67-2.03
		c4.41-4.16,8.77-8.38,13.19-12.53c1.86-1.75,3.89-3.32,5.75-5.06c1.27-1.19,2.5-2.46,3.57-3.83c2.46-3.18,5.39-4.63,9.58-3.9
		c4.4,0.77,8.9,0.97,13.36,1.39c9.55,0.89,19.11,1.76,28.67,2.63c1.27,0.12,2.55,0.17,3.83,0.31c2.84,0.31,4.96-0.91,6.59-3.12
		c0.57-0.77,1-1.66,1.63-2.37c0.74-0.82,1.55-1.65,2.48-2.2c2.16-1.26,4.47-0.66,5.83,1.47c0.68,1.07,1.1,2.31,1.73,3.42
		c3.17,5.59,10.42,6.69,15.15,2.28c0.93-0.87,1.79-1.84,2.54-2.87c2.14-2.92,5.05-3.72,8.47-3.3c2.69,0.33,5.38,0.76,8.09,0.99
		c14.18,1.2,28.37,2.37,42.56,3.53c17.7,1.43,35.4,2.83,53.09,4.26c6.38,0.52,12.75,1.14,19.12,1.65c2.23,0.18,4.47,0.2,6.71,0.26
		c2.44,0.07,4.31-0.98,5.71-2.94c0.28-0.39,0.55-0.79,0.81-1.19c2.46-3.86,6.03-4.79,10.39-4.29c7.78,0.91,15.58,1.66,23.38,2.33
		c13.86,1.19,27.74,2.26,41.61,3.4c10.68,0.88,21.36,1.78,32.03,2.71c4.32,0.38,7.96-0.58,10.14-4.73c0.15-0.28,0.34-0.54,0.54-0.79
		c2.79-3.42,6.16-3.19,8.53,0.62c0.59,0.95,0.9,2.06,1.52,2.99c0.61,0.92,1.33,1.81,2.18,2.5c1.25,1.02,2.75,0.98,3.94-0.13
		c1.04-0.97,2.02-2.07,2.77-3.28c2.01-3.22,4.92-4.44,8.57-4.1c3.34,0.31,6.67,0.76,10.02,1.03c2.59,0.21,4.55,1.34,6.01,3.44
		c0.82,1.18,1.79,2.27,2.52,3.5c1.61,2.74,4.12,3.91,7.1,4.32c0.79,0.11,1.6,0.08,2.39,0.13c4.47,0.31,8.93,0.63,13.39,0.94
		c1.28,0.09,2.55,0.21,3.83,0.24c3.44,0.1,6.23-1.18,8.29-3.97c0.47-0.64,0.97-1.27,1.47-1.89c1.4-1.71,3.2-2.65,5.42-2.63
		c1.6,0.01,3.2,0.07,4.78,0.28c2.17,0.29,3.89,1.36,5.03,3.3c0.73,1.24,1.52,2.44,2.26,3.68c1.8,3.02,4.55,4.45,7.96,4.56
		c21.44,0.72,42.73,3.29,64.09,4.95c11.16,0.87,22.33,1.65,33.51,2.33c4.67,0.28,8.2,2,10.66,6.15c1.28,2.16,3.04,4.13,4.92,5.82
		c2.63,2.36,3.68,5.13,3.33,8.54c-0.14,1.43-0.26,2.87-0.46,4.29c-0.24,1.74-0.47,3.49-0.84,5.21c-1.07,4.94,0.32,8.8,4.73,11.51
		c2.72,1.67,3.75,4.36,3.6,7.4c-0.13,2.87-0.63,5.72-0.92,8.58c-0.23,2.22-0.48,4.45-0.55,6.68c-0.09,2.58,0.9,4.84,3.16,6.09
		c5.42,3.02,5.94,7.7,5.24,13.2c-0.92,7.13-1.41,14.32-2.11,21.48c-0.2,2.07-0.59,4.12-0.77,6.19c-0.31,3.76,0.6,6.96,4.18,8.97
		c3.29,1.84,4.48,4.84,4.33,8.48c-0.04,0.96-0.01,1.93-0.13,2.87c-1.75,14.14-2.31,28.37-3.27,42.57
		c-0.32,4.79-0.59,9.58-0.96,14.36c-0.16,2.07-0.51,4.12-0.79,6.18c-0.21,1.58-0.47,3.16-0.67,4.75c-0.41,3.27,0.69,5.97,3.16,8.14
		c0.84,0.74,1.64,1.52,2.51,2.23c2.16,1.76,3.01,4.07,2.94,6.78c-0.03,0.96-0.03,1.92-0.16,2.87c-1.78,13.01-1.9,26.15-3.02,39.22
		c-0.77,8.92-1.46,17.86-2.49,26.75c-0.55,4.73,0.37,8.52,4.47,11.28c3.07,2.07,4.24,5.08,4.01,8.71c-0.03,0.48-0.04,0.96-0.09,1.44
		c-1.97,18.93-2.93,37.94-4.55,56.9c-0.64,7.49-0.86,15.01-1.38,22.51c-0.37,5.26-0.95,10.51-1.43,15.76
		c-0.1,1.11-0.19,2.23-0.28,3.35c-0.27,3.46,0.76,6.3,3.87,8.19c0.68,0.41,1.27,0.97,1.89,1.48c1.82,1.52,2.8,3.47,2.83,5.85
		c0.01,0.96,0.06,1.93-0.06,2.87c-1.66,12.38-1.78,24.88-2.9,37.3c-0.33,3.66-0.87,7.31-1.2,10.97c-0.14,1.58-0.15,3.2,0.06,4.76
		c0.28,2.13,1.32,3.92,3.16,5.17c0.79,0.54,1.58,1.09,2.33,1.69c2.13,1.72,3.19,3.97,3.08,6.71c-0.04,1.12-0.07,2.26-0.32,3.34
		c-0.96,4.08-1.03,8.24-1.3,12.39c-0.8,12.29-1.71,24.57-2.57,36.86c-0.79,11.17-1.57,22.34-2.35,33.51
		c-1.01,14.52-1.99,29.04-3.05,43.56c-0.21,2.87-0.63,5.73-1.08,8.57c-0.64,4.01,0.44,7.46,3.74,9.75c4.44,3.09,5.58,7.1,4.47,12.12
		c-1.42,6.44-1.25,13.05-1.74,19.58c-1.58,20.89-2.9,41.8-4.39,62.71c-0.51,7.18-1.2,14.34-1.79,21.51
		c-0.08,0.96-0.08,1.92-0.13,2.87c-0.15,3.12,0.9,5.61,3.61,7.35c1.07,0.69,2.11,1.49,2.95,2.42c2.05,2.26,1.77,5.33-0.63,7.15
		c-1.14,0.86-2.49,1.44-3.7,2.21c-5.89,3.71-6.66,12.68-1.49,17.39c0.12,0.11,0.24,0.22,0.37,0.3c4.57,2.81,5.56,6.93,4.91,12.01
		c-1.16,9.04-1.77,18.14-1.87,27.27c-0.01,0.64-0.06,1.28-0.09,1.92c-0.12,2.98-1.42,5.17-4.23,6.41c-1.16,0.51-2.33,1.09-3.34,1.86
		c-3.35,2.54-3.53,6.06-0.48,8.99c0.8,0.77,1.73,1.42,2.65,2.05c2.82,1.92,3.97,4.68,3.42,7.91c-1.79,10.44-1.47,21.05-2.62,31.54
		c-0.23,2.06-0.51,4.12-0.71,6.19c-0.14,1.43-0.26,2.86-0.28,4.3c-0.03,2.36,0.8,4.38,2.58,5.97c0.84,0.75,1.6,1.58,2.48,2.26
		c2.97,2.32,3.72,5.42,3.36,8.98c-0.45,4.45-0.93,8.9-1.26,13.36c-0.59,7.98-1.04,15.96-1.64,23.94c-0.28,3.82-0.64,7.65-1.18,11.45
		c-0.59,4.17,0.26,7.55,4.05,9.94c3.59,2.27,4.82,5.55,4.41,9.86c-1,10.67-1.66,21.36-2.48,32.05c-0.78,10.21-1.61,20.41-2.39,30.62
		c-0.41,5.42-0.78,10.85-1.14,16.27c-0.71,10.69-1.35,21.39-2.12,32.08c-0.35,4.78-0.95,9.54-1.42,14.32
		c-0.15,1.59-0.4,3.19-0.3,4.77c0.18,2.67,1.16,5.02,3.7,6.33c4.15,2.15,5.31,5.71,4.86,10.06c-0.39,3.82-0.87,7.62-1.16,11.45
		c-1.19,16.11-2.28,32.23-3.5,48.34c-0.47,6.22-1.16,12.42-1.78,18.62c-0.38,3.75,0.35,7,3.73,9.24c0.79,0.53,1.44,1.26,2.16,1.9
		c1.78,1.58,2.68,3.55,2.59,5.95c-0.05,1.28-0.02,2.56-0.12,3.84c-1.19,15.15-2.43,30.29-3.59,45.44
		c-0.53,6.86-0.88,13.73-1.4,20.58c-0.22,2.87-0.42,5.77-1.06,8.56c-1.14,4.99,0,8.84,4.62,11.41c0.69,0.38,1.35,0.89,1.9,1.45
		c2.25,2.26,1.98,6.13-0.6,8.02c-1.02,0.75-2.26,1.2-3.34,1.87c-4.63,2.89-6.64,8.87-4.47,13.84c0.61,1.4,1.69,2.81,2.93,3.7
		c4.66,3.33,5.44,7.8,4.83,13.13c-0.85,7.46-1.27,14.98-1.83,22.47c-0.66,8.77-1.24,17.55-1.92,26.32
		c-0.17,2.23-0.58,4.44-0.94,6.65c-0.7,4.32,0.37,7.91,4.08,10.53c3.62,2.55,4.89,6.05,4.48,10.43c-0.89,9.39-1.63,18.8-2.39,28.2
		c-0.51,6.22-0.94,12.44-1.44,18.66c-0.25,3.03-0.59,6.04-0.89,9.06c-0.09,0.95-0.18,1.91-0.27,2.86c-0.36,3.83,1.04,6.88,4.1,9.18
		c0.51,0.38,1.03,0.76,1.54,1.15c2.07,1.54,3.07,3.64,3.15,6.19c0.03,0.96,0.02,1.92-0.06,2.87c-0.88,10.35-1.86,20.7-2.65,31.06
		c-1.31,17.23-2.49,34.46-3.72,51.69c-0.69,9.57-1.41,19.14-2.07,28.72c-0.48,7.02-0.8,14.05-1.34,21.07
		c-0.32,4.14-0.89,8.27-1.4,12.4c-0.53,4.27,0.33,7.94,4.09,10.56c0.91,0.63,1.64,1.52,2.41,2.33c1.39,1.45,2.08,3.21,2.07,5.22
		c0,1.12,0,2.24-0.11,3.36c-0.55,5.57-1.23,11.12-1.68,16.7c-0.28,3.5-0.37,7.03-0.29,10.55c0.1,4.28-1.41,7.45-5.38,9.32
		c-0.86,0.4-1.68,0.94-2.43,1.53c-3.31,2.57-3.52,5.65-0.56,8.54c0.91,0.89,1.96,1.65,2.97,2.43c2.81,2.15,3.81,4.97,3.37,8.45
		c-2.01,15.72-2.78,31.54-3.88,47.34c-0.99,14.2-1.96,28.4-2.97,42.6c-0.63,8.93-1.34,17.86-1.95,26.8
		c-0.16,2.39-0.06,4.79-0.14,7.18c-0.05,1.59-0.05,3.22-0.35,4.77c-0.86,4.41-3.61,6.55-8.11,6.5
		C940.24,2084.09,939.61,2084.02,938.97,2083.98z M469.75,648.46c0.13-0.03,0.26-0.05,0.39-0.08c-0.46-1.99-0.59-4.14-1.45-5.94
		c-1.66-3.47-5.79-3.83-8.35-0.97c-1.21,1.35-1.94,2.94-2.06,4.75c-0.12,1.75-0.14,3.51-0.23,5.27c-0.33,6.55-0.44,13.11-1.06,19.63
		c-0.62,6.54-0.85,13.08-0.79,19.64c0.02,2.4-0.08,4.8-0.24,7.19c-0.45,6.54-0.93,13.08-1.46,19.61
		c-0.99,12.43-1.98,24.86-3.07,37.28c-0.35,4.02,0.01,7.65,3.49,10.36c3.71,2.89,4.41,6.79,3.7,11.21
		c-0.33,2.04-0.52,4.15-0.38,6.21c0.7,10.59-0.61,21.08-1.49,31.59c-0.57,6.69-1.18,13.37-1.89,20.04
		c-0.37,3.45,0.64,6.29,3.03,8.72c0.45,0.46,0.9,0.91,1.37,1.34c2.24,2.11,3.2,4.75,3.11,7.77c-0.06,2.08-0.23,4.15-0.43,6.22
		c-0.5,5.09-1.04,10.18-1.56,15.26c-0.23,2.27-0.04,4.48,0.92,6.57c0.79,1.71,2.06,2.85,4.02,2.98c1.94,0.12,3.4-0.81,4.42-2.38
		c0.51-0.79,0.93-1.71,1.11-2.63c0.36-1.87,0.61-3.78,0.77-5.68c0.34-4.14,0.6-8.29,0.9-12.43c0.26-3.67,1.02-7.37,0.71-10.99
		c-0.63-7.39-0.14-14.7,0.5-22.03c0.86-9.87,0.99-19.8,2.71-29.6c0.73-4.17,0.13-7.98-3.57-10.75c-0.63-0.47-1.14-1.12-1.62-1.76
		c-1.48-1.97-2.52-4.19-2.21-6.68c0.54-4.31,0.54-8.58,0.02-12.9c-0.36-3,1.17-5.23,3.74-6.7c0.97-0.55,2.08-0.86,3.02-1.45
		c3.37-2.11,3.86-6.21,1.05-8.99c-0.9-0.89-2.02-1.56-3.06-2.29c-2.14-1.5-3.12-3.6-3.15-6.15c-0.02-1.27,0.16-2.55,0.27-3.82
		c0.62-7,1.22-14.01,1.88-21.01c0.45-4.77,0.81-9.56,1.53-14.29c0.7-4.61-0.03-8.6-3.69-11.73c-3.53-3.02-4.29-6.89-3.72-11.29
		c0.58-4.44,1-8.89,1.43-13.35C468.85,658.98,469.28,653.72,469.75,648.46z M783.55,294.66c0.02,4.26,0.37,6.27,2.03,7.64
		c3.26,2.68,5.98,5.73,7.88,9.5c0.14,0.28,0.38,0.52,0.62,0.72c2.9,2.4,4.93,5.4,6.27,8.91c0.73,1.92,2.11,3.16,4.31,3.24
		c2.18,0.08,3.61-0.99,4.59-2.84c0.6-1.12,1.14-2.31,1.93-3.29c1.48-1.86,3.73-2.01,5.44-0.31c0.87,0.87,1.45,2.06,2.08,3.16
		c0.63,1.1,1.03,2.37,1.78,3.37c1.7,2.26,4.31,2.36,6.14,0.24c0.93-1.08,1.57-2.39,2.37-3.59c1.76-2.64,4.23-3.8,7.39-3.4
		c0.95,0.12,1.88,0.43,2.83,0.5c3.74,0.28,6.51-1.64,7.57-5.24c0.27-0.91,0.35-1.88,0.43-2.83c0.3-3.66,0.61-7.32,0.82-10.98
		c0.08-1.43,0.06-2.88-0.16-4.29c-0.42-2.78-2.03-4.72-4.76-5.43c-1.84-0.48-3.77-0.66-5.67-0.82c-2.7-0.22-5.42-0.27-8.13-0.43
		c-4.15-0.25-8.29-0.53-12.43-0.8c-1.59-0.1-3.18-0.22-4.78-0.34c-3.49-0.27-5.97-1.9-7.4-5.21c-0.56-1.3-1.41-2.53-2.36-3.58
		c-2.02-2.22-4.58-2.32-6.76-0.31c-1.04,0.97-1.83,2.21-2.81,3.26c-1.19,1.27-2.26,2.81-3.72,3.64
		C784.91,287.52,783.76,291.27,783.55,294.66z M395.46,382.64c0.2,0.82,0.43,2.58,1.09,4.17c0.79,1.9,2.4,2.99,4.55,2.91
		c1.95-0.07,3.42-1.14,4.05-2.89c0.69-1.92,1.23-3.97,1.4-6c0.8-9.55,1.36-19.11,2.18-28.66c0.63-7.33,1.08-14.65,0.76-22.02
		c-0.1-2.39-0.11-4.8,0.07-7.18c0.74-9.71,2.04-19.38,1.8-29.16c-0.01-0.48,0.04-0.96,0.1-1.43c0.41-3.01,1.63-5.46,4.54-6.87
		c1.28-0.62,2.46-1.48,3.62-2.32c1.22-0.88,1.89-2.14,2.02-3.66c0.23-2.57-1.38-4.85-4.22-5.63c-1.36-0.37-2.84-0.36-4.26-0.5
		c-3.6-0.33-6.39-1.89-8.01-5.24c-0.35-0.72-0.66-1.46-1.09-2.13c-1.1-1.7-2.55-2.94-4.72-2.71c-2.33,0.24-3.66,1.79-4.44,3.86
		c-0.69,1.84-0.65,3.73-0.51,5.67c0.2,2.7,0.38,5.43,0.22,8.13c-0.57,9.41-1.25,18.81-1.97,28.2c-0.27,3.5-0.52,7.03-1.17,10.47
		c-0.85,4.46-0.18,8.23,3.53,11.17c3.18,2.52,4.19,5.89,3.74,9.82c-0.32,2.86-0.66,5.71-0.89,8.58
		c-0.83,10.35-0.72,20.76-2.25,31.05C395.55,380.75,395.55,381.23,395.46,382.64z M590.4,1886.9c0-0.78,0.04-1.26-0.01-1.74
		c-0.32-2.97-2.1-5.14-4.5-5.52c-2.59-0.4-4.7,0.89-5.72,3.99c-0.64,1.93-0.94,4.05-0.98,6.09c-0.13,5.91-0.21,11.83,0.01,17.73
		c0.15,4.01-1.66,6.68-4.77,8.76c-1.06,0.71-2.28,1.2-3.27,1.98c-2.44,1.93-2.65,4.88-0.51,7.1c0.88,0.91,1.97,1.62,2.94,2.46
		c1.67,1.45,2.44,3.32,2.47,5.51c0.02,1.43-0.62,2.49-1.98,2.96c-1.2,0.42-2.49,0.6-3.68,1.04c-2.35,0.86-3.59,2.77-3.47,5.17
		c0.1,2.08,1.34,3.75,3.21,4.3c2.26,0.67,4.44-0.12,5.81-2.23c0.6-0.93,1.04-1.98,1.46-3.01c0.78-1.89,2.09-3.17,4.03-3.83
		c0.6-0.21,1.23-0.37,1.81-0.63c2.39-1.1,3.73-2.94,3.77-5.61c0.02-1.44,0.15-2.9-0.08-4.31c-0.64-3.94,1.24-6.4,4.47-8.17
		c0.84-0.46,1.78-0.78,2.52-1.37c0.86-0.67,1.76-1.45,2.28-2.38c1.62-2.92,1.7-6.08,1.22-9.32c-0.41-2.73-1.87-4.66-4.13-6.15
		c-2.83-1.87-3.77-4.64-3.48-7.9C589.98,1890.09,590.23,1888.35,590.4,1886.9z M728.83,545.91c0.05,0.72,0.04,1.85,0.23,2.94
		c0.47,2.77,2.56,4.67,5.17,4.83c2.39,0.15,4.59-1.3,5.3-3.97c0.57-2.13,0.76-4.39,0.91-6.61c0.26-3.66,0.36-7.34,0.53-11
		c0.26-5.74,0.67-11.48,0.74-17.22c0.08-6.25,0.41-12.44,1.81-18.56c0.38-1.67,0.4-3.49,0.19-5.2c-0.26-2.19-1.46-3.9-3.78-4.44
		c-2.25-0.52-4.25,0.14-5.49,2.03c-1.97,3.01-4.73,5.11-7.4,7.41c-5,4.28-5.26,12.29-0.79,17.15c0.76,0.82,1.55,1.61,2.34,2.4
		c1.8,1.8,2.67,3.95,2.5,6.49c-0.14,2.23-0.3,4.46-0.52,6.68C730.02,534.4,729.44,539.96,728.83,545.91z M393.68,1172.02
		c0.14,0.79,0.19,2.42,0.72,3.88c0.83,2.28,2.61,3.58,5.11,3.65c2.16,0.06,4.03-1.44,4.77-3.98c0.35-1.21,0.48-2.5,0.54-3.77
		c0.52-9.71,1-19.42,1.5-29.13c0.03-0.64,0.07-1.27,0.11-1.91c0.15-2.39,1.26-4.24,3.18-5.63c1.16-0.84,2.39-1.6,3.51-2.49
		c3.51-2.81,3.79-5.84,0.59-8.88c-1.99-1.89-3.87-3.78-4.9-6.38c-0.17-0.44-0.44-0.86-0.75-1.22c-0.51-0.61-1.03-1.23-1.64-1.73
		c-3.18-2.61-7.26-1.46-8.26,2.53c-0.53,2.12-0.32,4.42-0.41,6.64c-0.11,2.7-0.08,5.41-0.31,8.1c-0.26,3.01-0.85,6-1.1,9.02
		c-0.52,6.2-0.88,12.41-1.39,18.6C394.65,1163.29,394.18,1167.25,393.68,1172.02z M764.42,1998.45c-0.12-1.05-0.14-1.86-0.32-2.63
		c-0.92-3.91-4.97-5.37-8.24-2.99c-0.51,0.37-1.04,0.79-1.39,1.31c-2.88,4.3-7.06,7.38-10.43,11.2c-2.59,2.94-5.53,4.1-9.38,3.21
		c-1.36-0.31-2.89-0.36-4.26-0.1c-4.12,0.77-5.61,5.32-2.83,8.49c0.73,0.83,1.69,1.46,2.56,2.15c1.4,1.11,2.53,2.43,3.2,4.11
		c0.3,0.74,0.6,1.49,1.01,2.17c2.11,3.47,5.51,3.86,8.35,0.9c0.77-0.8,1.41-1.74,1.98-2.7c1.64-2.8,4.05-3.91,7.25-3.59
		c1.27,0.13,2.55,0.02,3.83,0.07c3.28,0.11,5.52-1.74,6.48-5.25c0.29-1.06,0.24-2.22,0.38-3.32c0.4-3.16,0.82-6.32,1.24-9.48
		C764.05,2000.73,764.26,1999.48,764.42,1998.45z M848.96,2018.2c0.53-0.2,1.73-0.38,2.53-1.04c1.07-0.89,2.06-2.04,2.68-3.29
		c1.19-2.4,2.74-4.12,5.34-5.12c3.11-1.19,4.67-3.8,4.81-7.1c0.13-3.03,0.01-6.06,0.14-9.09c0.09-2.06,0.32-4.12,0.67-6.15
		c0.38-2.16,1.69-3.73,3.6-4.82c1.1-0.63,2.31-1.17,3.23-2.01c2.95-2.68,2.1-7.13-1.63-8.49c-2.41-0.87-4.95-1.3-7.53-0.96
		c-3.64,0.48-6.28,2.27-7.21,6c-0.38,1.54-0.71,3.11-0.85,4.69c-0.61,6.67-1.3,13.34-1.66,20.02c-0.19,3.61-1.26,6.12-5.03,7.1
		c-1.17,0.3-2.3,1.12-3.22,1.94c-1.62,1.45-2.04,3.85-1.16,5.7C844.6,2017.56,846.33,2018.2,848.96,2018.2z M517.41,2019.11
		c0.04-5.39-2.35-8.33-7.13-9.34c-0.94-0.2-1.88-0.37-2.84-0.45c-3.07-0.26-5.85,0.62-7.63,3.14c-2.09,2.96-4.85,5.06-7.7,7.1
		c-4.31,3.1-5.07,7.52-4.62,12.33c0.11,1.2,0.75,2.46,1.46,3.48c1.58,2.28,4.65,2.59,6.72,0.74c0.82-0.73,1.46-1.68,2.13-2.57
		c2.59-3.4,5.67-5.64,10.26-4.41c0.3,0.08,0.64,0.05,0.95,0.05c3.89-0.05,6.67-2.15,7.68-5.96
		C517.11,2021.68,517.25,2020.08,517.41,2019.11z M701.56,277.33c-1.06,0-1.38-0.03-1.69,0c-2.17,0.21-4.17,0.87-5.02,3.06
		c-0.89,2.28-0.27,4.4,1.46,6.13c0.79,0.79,1.64,1.52,2.52,2.2c2.03,1.58,3.86,3.31,5.01,5.68c0.72,1.49,1.89,2.57,3.51,3.04
		c1.38,0.39,2.76,0.78,4.17,1.04c2.85,0.52,5.5-0.16,7.5-2.2c2.69-2.75,5.62-5.16,8.79-7.32c1.55-1.05,2.35-2.56,2.21-4.49
		c-0.18-2.38-1.88-4.35-4.52-4.91c-1.39-0.3-2.85-0.35-4.27-0.32c-5.76,0.12-11.46-0.39-17.1-1.56
		C703.05,277.46,701.93,277.38,701.56,277.33z M421.02,1072.17c0.14-2.82-0.66-5.27-3.33-6.83c-2.59-1.51-4.36-3.65-5.19-6.58
		c-0.5-1.74-1.6-3.12-3.17-4.05c-2.41-1.43-5.34-0.49-6.42,2.02c-1.01,2.34-0.41,4.92,1.64,6.42c1.02,0.75,2.24,1.21,3.32,1.88
		c2.22,1.38,2.9,3.36,1.85,5.73c-0.44,0.99-1.12,1.95-1.9,2.71c-1.02,0.99-2.2,1.83-3.38,2.64c-4.28,2.98-5.87,8.83-3.64,13.51
		c1.83,3.85,5.71,4.37,8.4,1.12c0.3-0.37,0.57-0.77,0.82-1.18c1.46-2.33,3.18-4.35,5.7-5.64c1.92-0.98,3.09-2.69,3.9-4.68
		C420.54,1076.99,421.15,1074.7,421.02,1072.17z M865.08,800.14c0.22,1.7,0.24,3.17,0.63,4.53c0.77,2.64,3.41,4.44,5.74,4.14
		c2.41-0.31,4.04-2.05,4.41-4.92c0.21-1.58,0.3-3.19,0.27-4.78c-0.07-3.38,1.37-5.77,4.29-7.44c1.23-0.7,2.47-1.55,3.38-2.6
		c2.71-3.14,1.61-7.05-2.34-8.37c-1.49-0.5-3.12-0.7-4.7-0.82c-4.88-0.37-8.52,2.07-9.54,6.81
		C866.25,791.2,865.75,795.81,865.08,800.14z M494.86,270.49c-5.81-0.02-8.51,1.91-9.51,6.64c-0.45,2.13-0.47,4.49-0.09,6.64
		c0.62,3.49,3.04,5.4,6.54,6.12c3.92,0.8,7.7,1.22,10.45-2.49c0.74-1,1.29-2.23,1.6-3.44c0.36-1.37,0.49-2.84,0.5-4.26
		c0.03-4.19-1.86-6.99-5.79-8.42C497.09,270.74,495.47,270.61,494.86,270.49z M796.16,909.22c0.06,0,0.12,0,0.18,0
		c-0.11-1.27-0.08-2.57-0.34-3.81c-0.56-2.69-2.58-4.52-4.84-4.61c-2.12-0.08-4.11,1.36-5.08,3.73c-0.24,0.59-0.46,1.21-0.52,1.84
		c-0.55,5.08-1.12,10.16-1.56,15.26c-0.19,2.14,0.4,4.12,2.03,5.68c2.64,2.51,6.33,2.09,8.14-1.07c0.61-1.07,0.96-2.39,1.07-3.63
		C795.62,918.15,795.86,913.68,796.16,909.22z M854.03,1559.89c0.55-0.23,1.8-0.57,2.8-1.25c0.74-0.5,1.29-1.4,1.73-2.23
		c1.38-2.64,3.19-4.72,6.25-5.44c0.6-0.14,1.19-0.48,1.69-0.85c1.83-1.36,2.57-3.21,2.09-5.44c-0.44-2.04-1.73-3.37-3.79-3.83
		c-2.09-0.46-3.73,0.33-5,1.99c-0.38,0.5-0.79,1.01-1.06,1.58c-1.16,2.41-2.86,4.07-5.57,4.78c-1.15,0.3-2.3,1.15-3.11,2.06
		c-1.5,1.68-1.6,3.77-0.82,5.83C849.93,1558.9,851.41,1559.73,854.03,1559.89z M665.74,449.41c-0.31-1.72-0.4-3.52-0.98-5.14
		c-1.31-3.68-5.25-4.55-8.1-1.92c-0.58,0.54-1.18,1.14-1.5,1.84c-1.84,3.92-2.36,7.93-0.56,12.04c0.91,2.06,2.37,3.41,4.72,3.47
		c2.36,0.05,3.9-1.25,4.86-3.26C665.25,454.24,665.65,451.89,665.74,449.41z M593.84,1849.99c-0.28-1.87-0.36-3.31-0.72-4.68
		c-0.68-2.6-2.24-3.95-4.58-4.18c-2.61-0.26-4.75,0.84-5.81,3.24c-1.76,3.97-1.68,8.04-0.18,12.07c0.66,1.77,2.08,2.75,3.98,2.97
		c2.46,0.28,4.71-0.9,5.69-3.4C593.02,1853.96,593.38,1851.75,593.84,1849.99z M391.42,1201.25c0.12,0.75,0.24,2.35,0.64,3.87
		c0.68,2.6,2.4,4.11,4.54,4.25c2.29,0.15,4.84-1.3,5.56-3.69c0.73-2.4,1.15-4.95,1.31-7.45c0.09-1.34-0.42-2.86-1.07-4.08
		c-1.98-3.75-7.23-3.78-9.35-0.13C391.92,1195.98,391.41,1198.14,391.42,1201.25z M405.95,1004.23c-1.25,0.08-2.22,0.05-3.15,0.22
		c-2.6,0.46-4.46,2.33-4.74,4.66c-0.26,2.17,0.86,4.11,3.28,5.28c2.76,1.34,5.74,1.87,8.78,1.74c2.25-0.1,3.94-1.31,4.67-3.46
		c0.71-2.09,0.43-4.18-1.29-5.69c-1.04-0.91-2.34-1.66-3.64-2.11C408.55,1004.4,407.07,1004.39,405.95,1004.23z M548.79,959.28
		c-0.03,0,1.1,0.02,2.19-0.18c2.45-0.46,4.05-2.15,4.38-4.44c0.38-2.59-0.74-4.79-3.25-5.75c-3.02-1.16-6.2-1.52-9.4-0.86
		c-2.35,0.49-4.06,1.84-4.53,4.34c-0.4,2.11,0.73,4.15,3.01,5.5C543.18,959.07,545.38,959.33,548.79,959.28z M401.47,960.5
		c-0.1-3.08-2.65-5.48-5.59-5.27c-2.72,0.19-4.72,2.61-4.67,5.64c0.06,3.34,2.34,5.75,5.23,5.54
		C399.36,966.21,401.58,963.6,401.47,960.5z M688.77,1648.21c0.07-3.06-2.29-5.53-5.27-5.52c-2.84,0.01-5.02,2.23-5.07,5.18
		c-0.06,3.25,2.11,5.8,4.96,5.83C686.31,1653.74,688.71,1651.29,688.77,1648.21z M742.05,447.56c3.04,0.02,5.13-2.02,5.17-5.02
		c0.04-3.14-2.28-5.67-5.2-5.66c-2.72,0-5.12,2.38-5.23,5.18C736.67,445.2,738.91,447.54,742.05,447.56z M869.49,1209.77
		c3.11,0.07,5.21-1.8,5.38-4.78c0.18-3.29-2.21-5.75-5.55-5.7c-2.83,0.04-4.87,2.3-4.85,5.34
		C864.5,1207.71,866.45,1209.71,869.49,1209.77z M875.15,1712.35c0.08-3.18-2.1-5.35-5.35-5.32c-2.91,0.03-5.15,2.21-5.19,5.06
		c-0.05,3.01,2.35,5.36,5.44,5.35C873.05,1717.43,875.07,1715.41,875.15,1712.35z M693.43,1326.75c0.12-3.21-2.11-5.73-5.08-5.75
		c-2.7-0.02-5.01,2.34-5.14,5.26c-0.13,2.82,2.09,5.25,4.93,5.4C691.09,1331.82,693.32,1329.75,693.43,1326.75z M565.56,998.6
		c-2.94,0.07-4.86,2.16-4.87,5.29c-0.01,3.2,2.26,5.38,5.43,5.21c2.86-0.15,5-2.42,5.02-5.3
		C571.16,1000.83,568.69,998.53,565.56,998.6z M724.57,1080.88c2.85-0.04,4.73-2.2,4.7-5.38c-0.03-3.17-1.94-5.27-4.81-5.32
		c-3.11-0.05-5.27,2.16-5.29,5.4C719.15,1078.71,721.41,1080.92,724.57,1080.88z M568.24,1169.83c0.06-2.91-2.16-5.35-4.88-5.38
		c-2.79-0.03-5.1,2.26-5.17,5.13c-0.07,2.84,2.16,5.27,4.92,5.38C565.85,1175.08,568.17,1172.75,568.24,1169.83z M846.14,1593.74
		c0.08,2.93,2.31,5.25,5.02,5.24c2.56-0.02,4.96-2.6,4.99-5.37c0.04-2.81-2.25-5.05-5.14-5.07
		C848.07,1588.53,846.05,1590.68,846.14,1593.74z M400.46,1025.03c-2.69-0.14-4.65,1.56-4.83,4.19c-0.21,3,1.75,5.43,4.58,5.68
		c2.66,0.23,4.94-1.76,5.16-4.52C405.6,1027.55,403.42,1025.18,400.46,1025.03z"/>
	<path d="M1276.65,194.76c4.03,0.46,9.15,0.82,14.19,1.67c4.54,0.77,8.22-0.19,11.13-3.82c0.5-0.62,1.08-1.18,1.61-1.78
		c3.59-3.95,7.85-3.74,11.86-2.11c1.11,0.45,2.06,1.47,2.91,2.39c0.74,0.81,1.37,1.8,1.82,2.81c2.21,4.99,6.69,5.43,11.24,5.68
		c1.52,0.08,2.8-0.64,3.76-1.81c0.61-0.74,1.08-1.58,1.66-2.34c0.58-0.76,1.17-1.53,1.84-2.21c3.14-3.17,6.09-2.67,7.87,1.31
		c0.39,0.87,0.59,1.83,0.97,2.71c1.53,3.5,4.92,4.26,7.74,1.62c1.04-0.97,1.83-2.21,2.66-3.38c1.73-2.46,4.02-3.45,7.04-3.11
		c6.04,0.68,12.12,1.04,18.13,1.91c3.55,0.51,6.29-0.32,8.57-2.97c0.73-0.85,1.44-1.73,2.25-2.49c2.45-2.28,5.26-3.5,8.71-3.18
		c10.99,1.01,21.99,1.95,32.98,2.9c3.03,0.26,6.07,0.41,9.09,0.72c3.49,0.37,7,0.7,10.45,1.35c4.56,0.85,8.26-0.04,10.71-4.27
		c2.2-3.81,5.7-4.99,9.81-4.62c7.17,0.64,14.32,1.41,21.48,2.13c2.07,0.21,4.14,0.43,6.2,0.67c3.32,0.38,6.21-0.71,7.91-3.5
		c3.18-5.21,7.69-5.91,13.25-5.25c9.84,1.17,19.73,1.93,29.61,2.77c14.18,1.2,28.38,2.29,42.56,3.47c4.78,0.4,9.56,0.83,14.33,1.39
		c4.18,0.49,7.49-0.66,10.04-4.16c2.56-3.51,6.04-4.89,10.49-4.29c5.38,0.72,10.82,1.16,16.24,1.45c3.93,0.21,6.7,1.73,8.22,5.46
		c0.47,1.16,1.24,2.26,2.08,3.19c1.96,2.16,4.62,2.31,6.83,0.39c0.95-0.82,1.81-1.83,2.47-2.91c2-3.26,4.89-4.38,8.57-3.97
		c3.97,0.44,7.95,0.88,11.93,1.22c10.04,0.87,20.08,1.68,30.12,2.53c18.49,1.57,36.97,3.14,55.46,4.71c0.96,0.08,1.91,0.17,2.87,0.2
		c2.71,0.08,5.01-0.85,6.82-2.91c0.95-1.08,1.91-2.15,2.86-3.24c1.57-1.8,3.52-2.78,5.92-2.59c4.14,0.33,8.3,0.59,12.41,1.13
		c2.83,0.37,4.97,2.1,6.49,4.52c0.59,0.95,1.03,2,1.68,2.91c1.57,2.17,3.64,3.61,6.39,3.77c2.71,0.16,5.44,0.34,8.15,0.25
		c4.79-0.16,8.31,1.59,10.56,5.97c1.83,3.57,5.05,5.21,8.98,5.49c5.1,0.37,10.21,0.68,15.32,1.07c1.91,0.15,3.83,0.32,5.71,0.69
		c3.42,0.67,5.33,2.67,5.72,6.17c0.21,1.88,0.04,3.83-0.14,5.74c-0.87,9.39-1.78,18.78-2.72,28.17c-0.38,3.81,0.62,6.96,3.93,9.16
		c0.4,0.26,0.76,0.58,1.13,0.89c2.62,2.23,3.88,4.99,3.48,8.48c-0.51,4.45-1.03,8.9-1.38,13.36c-0.89,11.32-1.7,22.65-2.51,33.98
		c-1.15,16.11-2.28,32.23-3.42,48.34c-0.79,11.17-1.56,22.34-2.36,33.51c-1.12,15.63-2.27,31.27-3.4,46.9
		c-0.45,6.22-0.84,12.45-1.32,18.67c-0.22,2.87-0.6,5.72-0.86,8.59c-0.13,1.43-0.3,2.87-0.22,4.3c0.15,2.5,1.15,4.64,3.2,6.19
		c0.51,0.39,1.05,0.74,1.54,1.14c2.95,2.41,4.26,5.5,3.9,9.31c-0.74,7.8-1.51,15.59-2.15,23.39c-0.89,10.84-1.7,21.68-2.48,32.53
		c-0.66,9.09-1.23,18.19-1.89,27.28c-0.13,1.75-0.47,3.49-0.69,5.23c-0.47,3.75,0.31,7,3.71,9.21c3.74,2.44,4.98,5.88,4.61,10.31
		c-1.28,15.14-2.37,30.29-3.52,45.44c-0.8,10.53-1.59,21.05-2.33,31.58c-0.99,14.2-1.91,28.41-2.9,42.61
		c-0.14,2.07-0.57,4.12-0.71,6.19c-0.12,1.74-0.18,3.52,0.02,5.24c0.23,1.97,1.26,3.6,2.95,4.75c0.79,0.54,1.62,1.04,2.36,1.64
		c2.13,1.7,3.31,3.86,3.12,6.66c-0.09,1.28-0.13,2.56-0.22,3.83c-0.89,11.8-1.75,23.6-2.69,35.4c-0.32,3.98-0.69,7.97-1.34,11.91
		c-0.68,4.16,0.63,7.17,4.23,9.32c1.07,0.64,2.13,1.48,2.88,2.46c1.74,2.28,1.06,5.14-1.42,6.52c-0.83,0.47-1.81,0.68-2.62,1.17
		c-1.08,0.65-2.2,1.34-3.06,2.24c-1.54,1.62-1.66,4.01-0.2,5.69c1.14,1.31,2.49,2.52,3.95,3.45c2.59,1.66,3.58,3.98,3.44,6.91
		c-0.05,1.12-0.15,2.23-0.24,3.35c-0.35,4.62-0.7,9.24-1.04,13.86c-0.14,1.91-0.19,3.83-0.37,5.74c-0.32,3.46-2.05,5.99-5.2,7.52
		c-0.29,0.14-0.57,0.29-0.86,0.42c-2.97,1.28-4.38,3.72-4.69,6.75c-0.48,4.61-0.79,9.23-1.08,13.86c-0.19,2.89,0.92,5.32,3.05,7.27
		c0.71,0.65,1.43,1.29,2.2,1.86c2.84,2.14,3.71,4.97,3.4,8.44c-1.24,14.02-2.42,28.04-3.52,42.07c-0.82,10.53-1.47,21.06-2.2,31.6
		c-0.87,12.45-1.76,24.89-2.64,37.33c-0.4,5.58-0.78,11.17-1.21,16.75c-0.15,1.91-0.4,3.81-0.61,5.72
		c-0.15,1.43-0.32,2.86-0.46,4.29c-0.32,3.15,0.79,5.56,3.46,7.39c1.43,0.98,2.78,2.19,3.85,3.54c1.47,1.85,1.33,3.93-0.36,5.65
		c-1.1,1.12-2.41,2.17-3.83,2.78c-3.61,1.55-4.82,4.39-5.03,8.01c-0.19,3.35-0.37,6.7-0.77,10.02c-0.55,4.54,0.77,8.06,4.59,10.82
		c4.28,3.09,5.54,8.38,3.57,13.24c-0.63,1.56-1.72,2.66-3.17,3.45c-1.54,0.84-3.16,1.59-4.56,2.63c-2.99,2.21-3.17,5.63-0.48,8.24
		c1.14,1.11,2.47,2.02,3.75,2.99c1.93,1.46,2.89,3.37,2.76,5.8c-0.07,1.28-0.12,2.56-0.23,3.83c-0.48,5.41-1.04,10.82-1.46,16.24
		c-0.85,11-1.63,22.01-2.44,33.02c-0.43,5.9-0.88,11.8-1.29,17.71c-1.1,15.8-2.15,31.6-3.29,47.39c-0.23,3.18-0.68,6.36-1.22,9.51
		c-0.74,4.32,0.13,7.91,3.95,10.51c3.52,2.39,4.8,5.75,4.4,9.96c-0.32,3.34-0.34,6.7-0.48,10.06c-0.18,4.32-1.78,7.79-5.95,9.61
		c-5.9,2.58-6.78,10.56-4.88,14.96c0.55,1.27,1.57,2.38,2.52,3.43c0.74,0.82,1.72,1.43,2.58,2.15c2.12,1.76,3.09,4.03,2.91,6.77
		c-0.08,1.28-0.16,2.55-0.28,3.83c-0.46,4.93-1.03,9.86-1.4,14.8c-0.88,11.8-1.67,23.61-2.5,35.42
		c-0.83,11.81-1.64,23.62-2.48,35.42c-0.77,10.69-1.54,21.38-2.36,32.06c-0.43,5.58-0.92,11.15-1.5,16.72
		c-0.42,3.99,0.69,7.18,4,9.65c4.3,3.22,5.61,7.59,4.35,12.77c-0.6,2.47-1.95,4.35-4.29,5.45c-1.15,0.54-2.39,0.99-3.42,1.71
		c-2.85,2.01-3.17,5.33-0.72,7.84c0.99,1.01,2.22,1.81,3.41,2.61c2.17,1.47,3.23,3.49,3.23,6.08c0,1.28-0.03,2.56-0.15,3.83
		c-0.74,7.8-1.67,15.58-2.24,23.39c-1.15,15.79-2.04,31.61-3.15,47.4c-1.14,16.27-2.4,32.54-3.63,48.81
		c-0.13,1.75-0.44,3.49-0.71,5.22c-0.62,4.01,0.37,7.29,4.15,9.36c0.84,0.46,1.66,0.99,2.37,1.63c2.46,2.21,2.5,5.84-0.02,8.01
		c-1.2,1.03-2.63,1.81-4.04,2.56c-3.14,1.67-4.61,4.3-4.73,7.78c-0.02,0.64-0.02,1.28-0.07,1.92c-0.24,3.34,0.99,6.06,3.83,7.74
		c4.37,2.59,5.29,6.51,4.87,11.13c-0.39,4.3-0.75,8.6-1.08,12.91c-1.14,14.83-2.3,29.66-3.38,44.5
		c-0.79,10.85-1.41,21.71-2.19,32.56c-0.37,5.1-0.96,10.19-1.44,15.28c-0.13,1.43-0.34,2.87-0.29,4.29
		c0.08,2.35,1.05,4.32,2.97,5.78c0.89,0.68,1.84,1.29,2.65,2.06c3.88,3.7,4.61,10.01,1.7,14.51c-1.06,1.64-2.52,2.8-4.27,3.74
		c-4.62,2.5-7.02,8.49-5.61,13.51c0.54,1.94,1.63,3.45,3.32,4.54c0.94,0.6,1.96,1.12,2.82,1.82c2.85,2.32,2.67,6.06-0.36,8.09
		c-0.79,0.53-1.71,0.88-2.53,1.37c-0.95,0.58-1.95,1.13-2.77,1.87c-1.95,1.73-2.13,4-0.38,5.93c1.06,1.18,2.36,2.16,3.61,3.15
		c2.6,2.07,3.72,4.73,3.38,8.01c-0.38,3.66-0.84,7.31-1.14,10.97c-0.55,6.53-1.04,13.07-1.49,19.62
		c-1.13,16.28-2.21,32.56-3.36,48.83c-0.18,2.55-0.52,5.1-1.03,7.6c-0.97,4.74,0.37,8.64,4.25,11.41c3.73,2.67,4.82,6.05,4.12,10.44
		c-0.45,2.83-0.52,5.74-0.53,8.61c-0.02,4.26-1.68,7.4-5.58,9.27c-0.86,0.41-1.72,0.87-2.5,1.43c-2.64,1.91-2.92,5.1-0.63,7.47
		c0.77,0.8,1.72,1.43,2.6,2.12c3.16,2.47,4.54,5.49,3.83,9.64c-1.55,9-1.68,18.14-2.33,27.23c-0.54,7.66-1.08,15.32-1.58,22.98
		c-0.24,3.67-0.41,7.35-0.59,11.02c-0.07,1.44-0.16,2.88-0.14,4.32c0.08,5.37-1.64,9.68-6.7,12.3c-1.22,0.64-2.08,1.95-3.15,2.92
		c-2.37,2.14-4.79,4.21-7.13,6.38c-1.16,1.08-2.34,2.19-3.27,3.47c-2.52,3.48-5.76,4.67-10.02,4.05
		c-5.06-0.73-10.18-1.04-15.27-1.54c-2.55-0.25-5.09-0.52-7.64-0.77c-1.43-0.14-2.86-0.27-4.3-0.37c-3.45-0.22-6.27,0.82-8.15,3.94
		c-2.69,4.45-6.8,5.38-11.64,4.66c-2.99-0.45-6.03-0.68-9.05-0.91c-2.56-0.19-4.68,0.78-6.36,2.74c-0.73,0.85-1.58,1.6-2.24,2.5
		c-2.27,3.08-5.41,3.75-8.95,3.37c-1.91-0.21-3.8-0.59-5.7-0.75c-11.15-0.94-22.31-1.84-33.47-2.77c-1.91-0.16-3.81-0.48-5.72-0.63
		c-3.58-0.27-6.69,0.54-8.62,3.94c-0.23,0.41-0.6,0.75-0.88,1.14c-2.47,3.31-5.85,4.44-9.76,3.65c-9.13-1.86-18.5-1.28-27.66-2.79
		c-2.2-0.36-4.11,0.41-5.67,1.98c-1.24,1.25-2.46,2.51-3.62,3.84c-2.18,2.51-4.81,3.33-8.14,2.95c-8.74-0.98-17.5-1.72-26.26-2.53
		c-5.41-0.5-10.83-0.95-16.25-1.42c-1.12-0.1-2.23-0.17-3.35-0.28c-3.1-0.29-5.79,0.57-7.56,3.21c-3.17,4.74-7.55,5.73-12.95,5.18
		c-13.36-1.37-26.76-2.4-40.15-3.56c-7.33-0.64-14.66-1.23-21.99-1.93c-2.82-0.27-5,0.71-6.74,2.84c-0.51,0.62-1.03,1.24-1.4,1.95
		c-2.88,5.55-14.01,5.55-16.85-1.01c-0.57-1.31-1.3-2.59-2.13-3.75c-1.91-2.64-4.67-2.73-6.88-0.26c-0.74,0.83-1.31,1.81-1.95,2.73
		c-2.34,3.34-5.35,4.84-9.52,3.83c-2-0.49-4.11-0.53-6.18-0.73c-2.86-0.28-5.73-0.52-8.59-0.76c-1.11-0.1-2.24-0.13-3.35-0.24
		c-3.17-0.32-5.6,0.93-7.44,3.46c-0.09,0.13-0.23,0.24-0.3,0.38c-2.24,4.45-6.15,5.18-10.57,4.78c-3.66-0.33-7.32-0.71-10.99-1
		c-12.92-1.02-25.83-2.01-38.75-3.04c-1.43-0.11-2.84-0.44-4.27-0.66c-3.26-0.5-6.01,0.38-8.13,2.99c-0.1,0.12-0.22,0.24-0.3,0.37
		c-2.8,4.52-6.93,5.57-11.99,5.09c-11.78-1.13-23.59-1.96-35.38-2.96c-2.71-0.23-5.4-0.64-8.1-0.92c-3.32-0.33-5.92,0.76-7.66,3.79
		c-0.7,1.22-1.65,2.39-2.74,3.29c-2.38,1.98-5.3,1.53-7.09-1.03c-0.72-1.03-1.22-2.25-1.66-3.44c-1.01-2.71-3-4.05-5.76-4.4
		c-1.27-0.16-2.55-0.23-3.82-0.4c-4.31-0.58-6.49-3.02-6.52-7.42c-0.01-1.59,0.22-3.19,0.36-4.78c0.31-3.44-0.66-6.38-3.53-8.43
		c-2.55-1.82-4.36-4.17-5.83-6.89c-0.6-1.11-1.51-2.06-2.33-3.03c-2.37-2.8-5.07-5.32-6.92-8.56c-0.61-1.07-1.69-1.92-2.66-2.73
		c-3.12-2.6-4.2-5.9-3.68-9.85c0.38-2.85,0.78-5.71,1-8.57c1.46-19.3,2.9-38.6,4.3-57.9c0.44-6.06,0.69-12.14,1.13-18.2
		c0.86-11.8,1.8-23.6,2.69-35.4c0.36-4.79,0.67-9.57,1.04-14.36c0.23-3.03,0.54-6.05,0.79-9.08c0.12-1.43,0.19-2.87,0.23-4.31
		c0.07-2.38-0.82-4.37-2.61-5.94c-1.08-0.95-2.15-1.91-3.27-2.82c-1.73-1.4-2.6-3.24-2.68-5.42c-0.06-1.59,0.01-3.2,0.15-4.78
		c0.53-5.89,1.26-11.77,1.65-17.67c0.84-12.77,1.61-25.54,2.19-38.32c0.22-4.77,1.95-8.34,6.2-10.55c2.39-1.24,4.15-2.99,4.85-5.64
		c0.84-3.15,1.06-6.38-0.16-9.43c-0.56-1.39-1.71-2.84-2.99-3.59c-4.98-2.94-5.6-7.23-4.79-12.43c0.74-4.73,1-9.54,1.34-14.32
		c1.15-15.95,2.23-31.91,3.37-47.87c1.09-15.32,2.19-30.63,3.32-45.94c0.38-5.1,0.91-10.19,1.32-15.29
		c0.12-1.43,0.11-2.88,0.09-4.31c-0.05-2.75-1.29-4.9-3.46-6.54c-0.13-0.1-0.25-0.2-0.39-0.28c-4.76-2.57-5.34-6.67-4.48-11.52
		c0.69-3.93,1.1-7.92,1.39-11.9c1.16-15.63,2.22-31.27,3.32-46.91c0.44-6.22,0.94-12.44,1.36-18.66c0.74-11.01,1.4-22.03,2.18-33.04
		c0.76-10.69,1.65-21.37,2.45-32.06c0.4-5.26,0.75-10.53,1.08-15.8c0.47-7.34,0.84-14.69,1.39-22.03c0.29-3.82,0.72-7.65,1.34-11.43
		c0.77-4.74-0.36-8.5-4.59-11.16c-2.83-1.77-3.95-4.51-3.85-7.78c0.03-0.96,0.01-1.93,0.17-2.87c1.36-8.07,1.31-16.25,2.02-24.36
		c0.39-4.46,0.69-8.94,1.36-13.36c0.68-4.48-0.69-7.95-4.41-10.35c-3.26-2.1-4.22-5.08-3.9-8.66c0.37-4.14,0.95-8.26,1.29-12.4
		c0.58-7.17,1.07-14.35,1.57-21.54c1.09-15.96,2.14-31.92,3.24-47.88c1.24-18.03,2.5-36.06,3.8-54.09
		c1.1-15.16,2.28-30.31,3.39-45.46c0.43-5.9,0.74-11.81,1.16-17.72c0.15-2.07,0.47-4.13,0.74-6.19c0.51-3.91-0.18-7.33-3.8-9.64
		c-0.8-0.51-1.46-1.25-2.15-1.9c-1.59-1.5-2.43-3.35-2.43-5.55c0-1.12-0.04-2.25,0.11-3.35c1.57-11.26,1.59-22.65,2.68-33.95
		c0.69-7.16,1.26-14.33,1.85-21.51c0.14-1.75,0.23-3.51,0.24-5.27c0.02-2.93-1.19-5.25-3.6-6.94c-0.26-0.18-0.52-0.38-0.79-0.54
		c-3.49-2.01-4.57-5.19-4.27-8.97c0.74-9.08,1.59-18.16,2.3-27.24c0.85-10.84,1.6-21.69,2.42-32.54c1.21-15.95,1.7-31.95,3.66-47.84
		c0.17-1.41,0.13-2.88-0.06-4.3c-0.26-1.96-1.18-3.63-2.86-4.81c-0.79-0.55-1.6-1.07-2.32-1.69c-2.04-1.77-3.17-3.99-3.14-6.73
		c0.01-0.96,0-1.93,0.11-2.88c1.56-13.19,2.26-26.45,3-39.7c0.09-1.59,0.37-3.17,0.59-4.76c0.2-1.43,0.44-2.84,0.68-4.27
		c0.64-3.91-0.72-6.89-4.15-8.91c-0.69-0.4-1.42-0.77-2.02-1.28c-3.06-2.58-2.65-6.85,0.84-8.77c0.7-0.38,1.47-0.64,2.2-0.97
		c3.26-1.46,4.81-4.12,5.1-7.55c0.36-4.3,0.62-8.61,0.9-12.91c0.17-2.55-0.67-4.72-2.55-6.46c-1.17-1.09-2.35-2.17-3.52-3.26
		c-1.74-1.63-2.53-3.65-2.44-6.02c0.02-0.48,0.01-0.96,0.05-1.44c0.9-10.03,1.68-20.08,2.79-30.09c0.43-3.91-0.32-6.91-3.72-9.11
		c-1.2-0.77-2.34-1.7-3.29-2.76c-1.54-1.74-1.4-4,0.32-5.57c0.93-0.85,2.07-1.49,3.14-2.18c0.81-0.52,1.72-0.88,2.48-1.45
		c2.81-2.14,2.79-4.97-0.04-7.15c-1.01-0.78-2.19-1.35-3.15-2.19c-3.12-2.74-2.82-6.55,0.67-8.85c0.66-0.44,1.41-0.77,2.15-1.05
		c6.22-2.29,6.9-13.05,2.42-16.83c-0.85-0.72-1.75-1.39-2.6-2.12c-3.89-3.32-5.15-9.5-2.64-13.99c0.66-1.17,1.93-2.07,3.06-2.89
		c1.29-0.93,2.84-1.51,4.09-2.48c3.07-2.39,3.1-6.02,0.17-8.63c-0.6-0.53-1.26-0.99-1.93-1.42c-3.01-1.92-4.19-4.7-3.88-8.19
		c0.16-1.75,0.26-3.51,0.5-5.24c0.21-1.58,0.5-3.16,0.88-4.72c0.99-4.06-0.16-7.22-3.72-9.51c-1.07-0.69-2.09-1.5-2.99-2.39
		c-2.36-2.34-2.48-6.21,1.45-7.73c0.89-0.34,1.75-0.8,2.64-1.15c4.23-1.69,4.66-6.68,1.07-9.18c-0.79-0.55-1.58-1.09-2.37-1.63
		c-2.16-1.47-3.19-3.54-3.17-6.12c0.01-1.6,0.08-3.2,0.21-4.79c0.56-6.85,1.21-13.7,1.72-20.56c0.63-8.45,1.11-16.92,1.72-25.37
		c0.2-2.71,0.61-5.4,0.91-8.1c0.14-1.27,0.29-2.54,0.35-3.82c0.14-3.26-0.89-6.1-3.74-7.83c-4.32-2.62-5.2-6.48-4.84-11.13
		c1.24-15.94,2.36-31.89,3.53-47.84c0.07-0.96,0.2-1.91,0.3-2.86c0.26-2.4,1.52-4.16,3.5-5.46c0.4-0.26,0.78-0.6,1.22-0.75
		c4.55-1.54,5.7-5.16,5.94-9.44c0.19-3.35,0.44-6.7,0.88-10.03c0.54-4.09-0.69-7.2-4.34-9.31c-0.96-0.55-1.91-1.23-2.62-2.06
		c-2.14-2.48-1.49-5.68,1.4-7.23c1.12-0.6,2.38-0.98,3.46-1.64c3.48-2.11,4.12-6.05,0.73-8.7c-0.76-0.59-1.51-1.2-2.32-1.7
		c-2.4-1.49-3.52-3.72-3.51-6.44c0-2.06,0.3-4.13,0.54-6.19c0.3-2.54,0.78-5.06,1.01-7.6c0.32-3.65-0.99-6.7-4.15-8.6
		c-4.02-2.42-5.04-5.95-4.4-10.28c1.86-12.53,2.54-25.14,2.7-37.78c0.06-4.85,1.88-8.35,6.32-10.32c2.58-1.15,4.02-3.21,4.61-5.78
		c0.46-1.99,0.6-4.1,0.6-6.16c0-2.7-1.21-4.94-3.33-6.64c-0.87-0.7-1.81-1.32-2.68-2.02c-1.73-1.4-2.62-3.22-2.52-5.45
		c0.06-1.43,0.17-2.88,0.4-4.29c0.54-3.29-0.27-6.15-3.01-8.08c-5.24-3.68-6.07-8.62-4.71-14.42c0.58-2.48,0.98-5.02,1.2-7.56
		c0.27-3.1-0.95-5.6-3.6-7.37c-1.06-0.71-2.12-1.46-3.02-2.36c-2.26-2.26-2.16-5.57,0.29-7.6c1.22-1.01,2.71-1.68,4.07-2.51
		c5.59-3.38,6.36-11.66,1.47-16.04c-1.07-0.96-2.33-1.72-3.32-2.75c-2.82-2.94-2.22-6.81,1.29-8.89c0.14-0.08,0.28-0.16,0.43-0.21
		c5.01-1.58,6.35-5.36,6.17-10.13c-0.13-3.58,1.54-6.11,4.75-7.65c0.43-0.21,0.89-0.38,1.3-0.62c0.55-0.32,1.11-0.65,1.59-1.06
		c2.27-1.97,2.58-4.97,0.58-7.25c-0.93-1.06-2.2-1.83-3.33-2.71c-2.62-2.03-3.97-4.55-3.17-7.94c0.07-0.31,0.1-0.63,0.16-0.95
		c0.86-4.3,0.01-7.83-4.03-10.33c-3.52-2.18-4.54-5.71-3.88-9.63c1.6-9.5,1.85-19.09,2.11-28.68c0.03-0.96,0.12-1.92,0.21-2.87
		c0.25-2.73,1.43-4.92,3.92-6.2c2.93-1.51,5.07-3.79,7.01-6.41c0.92-1.25,2.18-2.39,3.53-3.15c2.17-1.21,3.96-2.8,5.29-4.78
		c2.21-3.28,5.11-4.67,8.99-4.13C1274.61,194.81,1275.1,194.76,1276.65,194.76z M1649.8,419.62c0.18-2.85-0.52-5.51-2.51-7.52
		c-2.61-2.64-4.85-5.5-6.73-8.68c-0.24-0.41-0.56-0.78-0.88-1.14c-1.97-2.14-4.9-2.2-6.62,0.12c-0.91,1.22-1.44,2.83-1.75,4.35
		c-0.28,1.38-0.01,2.86-0.03,4.3c-0.04,3.83,0.18,7.69-0.2,11.49c-1.52,15.26-1.66,30.63-3.68,45.85c-0.44,3.34,0.29,6.36,3.14,8.57
		c0.75,0.58,1.38,1.33,2.04,2.02c1.64,1.69,2.45,3.72,2.43,6.07c-0.01,1.28,0.02,2.56-0.08,3.83c-0.89,11.47-1.81,22.93-2.71,34.4
		c-0.26,3.34-0.63,6.69-0.68,10.04c-0.06,4.47,0.01,8.94-0.66,13.39c-0.23,1.53-0.15,3.25,0.33,4.71c1.2,3.69,4.42,4.87,7.85,5.38
		c3.26,0.48,6.51,0.23,8.7-2.7c3.2-4.27,3.65-11.08-0.64-14.9c-0.83-0.74-1.59-1.57-2.41-2.33c-1.87-1.73-2.77-3.91-2.8-6.4
		c-0.02-1.75,0.16-3.5,0.32-5.25c0.22-2.38,0.58-4.76,0.78-7.14c0.52-6.21,1.03-12.42,1.45-18.64c0.53-7.97,1.46-15.91,1.13-23.93
		c-0.13-3.19,0.06-6.39,0.27-9.58c0.69-10.52,1.41-21.04,2.22-31.55c0.31-3.98,0.93-7.93,1.4-11.89
		C1649.61,421.53,1649.7,420.57,1649.8,419.62z M1348.32,1059.68c0.2,1.66,0.31,3.09,0.55,4.51c0.31,1.79,1.17,3.34,2.63,4.45
		c3.89,2.96,8.2,3.47,12.68,1.67c2.94-1.19,3.54-4.17,1.51-6.71c-0.69-0.86-1.6-1.56-2.41-2.32c-0.7-0.66-1.49-1.23-2.08-1.97
		c-1.94-2.44-1.6-5.24,0.87-7.15c1.01-0.78,2.19-1.33,3.22-2.08c4.86-3.54,6.77-12.1,1.23-16.74c-1.22-1.02-2.41-2.12-3.45-3.32
		c-0.82-0.95-1.73-2.04-1.98-3.21c-1.35-6.22-0.23-9.83,4.22-12.59c0.82-0.51,1.62-1.03,2.41-1.57c0.53-0.36,1.07-0.71,1.54-1.14
		c2.71-2.49,2.29-5.77-1.09-7.36c-1.4-0.66-3.05-0.82-4.6-1.13c-1.4-0.29-2.86-0.34-4.23-0.74c-2.34-0.68-3.82-2.33-4.27-4.72
		c-0.27-1.4-0.28-2.85-0.36-4.28c-0.09-1.59-0.08-3.2-0.19-4.79c-0.18-2.56-1.26-4.76-3.52-5.94c-3.34-1.75-4.35-4.44-4.05-7.94
		c0.08-0.95,0.01-1.92,0.08-2.88c0.27-3.74,1.58-6.84,5.26-8.47c0.44-0.19,0.86-0.43,1.25-0.71c3.18-2.23,3.61-5.08,1.25-8.23
		c-0.38-0.51-0.85-0.96-1.27-1.43c-1.6-1.78-3.19-3.57-4.8-5.33c-0.86-0.94-1.66-1.97-2.65-2.76c-1.79-1.43-4-1.26-5.68,0.27
		c-1.11,1.01-1.82,2.25-1.93,3.75c-0.09,1.27-0.09,2.56-0.03,3.83c0.21,4.18-0.03,8.29-1.07,12.37c-0.55,2.16-0.86,4.4-1.11,6.62
		c-0.51,4.55,0.77,8.28,5.31,10.2c2.59,1.1,3.54,3.08,3.48,5.71c-0.04,1.6-0.22,3.19-0.33,4.78c-0.17,2.55-0.45,5.1-0.49,7.65
		c-0.17,9.92-0.66,19.8-2.19,29.62c-0.12,0.79-0.26,1.59-0.25,2.38c0.04,3.02,1.03,5.64,3.44,7.59c0.62,0.5,1.27,0.97,1.92,1.44
		c2.56,1.89,3.56,4.45,3.14,7.56c-0.28,2.06-0.71,4.09-1.06,6.14C1348.89,1056.42,1348.59,1058.15,1348.32,1059.68z
		 M1626.08,2021.64c-0.31,5.43,2.15,8.3,7.64,8.95c2.54,0.3,5.09,0.42,7.64,0.63c8.76,0.72,17.51,1.42,26.27,2.16
		c1.59,0.13,3.17,0.49,4.76,0.56c3.9,0.19,6.86-1.74,8.05-5.46c0.58-1.8,0.89-3.74,0.93-5.63c0.07-3.18-1.03-5.92-3.75-7.89
		c-1.02-0.74-2.08-1.59-2.76-2.62c-2.79-4.3-5.84-8.37-9.4-12.06c-0.11-0.11-0.18-0.26-0.28-0.39c-3.47-4.57-6.96-9.12-10.39-13.72
		c-1.42-1.91-3.23-3.06-5.58-3.35c-1.42-0.17-2.86-0.41-4.29-0.37c-4.08,0.13-6.53,2.44-6.96,6.47c-0.13,1.27-0.02,2.55-0.06,3.83
		c-0.13,3.6-1.2,6.61-4.98,7.94c-0.3,0.1-0.56,0.31-0.84,0.46c-3.22,1.72-4.97,4.37-5.18,8.05
		C1626.69,2013.36,1626.37,2017.5,1626.08,2021.64z M1350,1165.04c0.09,0.01,0.18,0.02,0.27,0.03c0,1.6-0.06,3.2,0.01,4.79
		c0.18,3.94,2.35,6.54,5.81,8.11c2.71,1.23,5.62,1.3,8.46,0.66c3.35-0.75,4.79-4.02,3.2-7.11c-0.58-1.11-1.5-2.06-2.32-3.03
		c-0.93-1.1-2.03-2.06-2.87-3.22c-2.5-3.47-2.32-7.22-0.67-10.92c1.61-3.61,4.66-4.47,8.36-4.03c1.57,0.19,3.21,0.09,4.78-0.12
		c2.17-0.3,3.8-1.98,4.19-4.07c0.4-2.11-0.39-3.85-2.09-5c-1.02-0.69-2.3-1.05-3.52-1.34c-1.55-0.36-3.15-0.51-4.74-0.73
		c-2.86-0.39-4.64-2.03-5.4-4.75c-0.42-1.53-0.82-3.11-0.91-4.68c-0.25-4.19,1.29-7.54,5.2-9.44c2.41-1.17,4.35-2.72,5.18-5.33
		c0.38-1.2,0.67-2.5,0.67-3.75c0.01-5.95,1.08-11.76,1.99-17.6c0.27-1.72,0.31-3.5,0.26-5.25c-0.03-1.09-0.31-2.22-0.71-3.25
		c-0.74-1.94-2.16-3.15-4.32-3.24c-2.08-0.08-3.91,0.69-4.78,2.57c-0.72,1.54-1,3.33-1.28,5.03c-0.15,0.92,0.26,1.92,0.14,2.86
		c-0.19,1.56-0.34,3.22-0.97,4.63c-1.26,2.84-4.23,3.13-6.13,0.71c-0.69-0.87-1.07-1.98-1.76-2.85c-0.98-1.24-1.95-2.56-3.2-3.49
		c-1.99-1.48-4.53-0.88-5.78,1.27c-0.54,0.93-0.89,2.07-1.01,3.14c-0.18,1.58-0.17,3.2-0.07,4.79c0.35,5.61,0.06,11.18-0.97,16.71
		c-0.84,4.54-0.31,8.52,3.91,11.42c2.67,1.84,3.8,4.72,3.84,7.91c0.04,2.55-0.03,5.11-0.3,7.64
		C1351.73,1151.09,1350.84,1158.06,1350,1165.04z M1475.22,2037.17c0-0.07,0.01-0.14,0.01-0.22c6.7,0.52,13.4,0.98,20.09,1.59
		c3.18,0.29,6.33,0.86,9.5,1.27c2.06,0.27,4.12,0.65,6.19,0.67c2.23,0.02,4.09-1.02,4.92-3.18c0.81-2.09,0.47-4.14-1.15-5.77
		c-1.01-1.02-2.12-1.95-3.29-2.78c-2.44-1.76-3.48-4.07-3.18-7.05c0.13-1.27,0.18-2.55,0.21-3.83c0.1-4.59-1.53-6.72-6.11-7.75
		c-1.7-0.39-3.48-0.49-5.22-0.65c-4.62-0.42-9.23-0.84-13.86-1.18c-1.74-0.13-3.52-0.17-5.26,0.02c-2.64,0.27-4.46,1.8-5.13,4.37
		c-0.44,1.68-0.72,3.46-0.71,5.2c0.02,3.81-1.84,6.3-4.99,8.11c-1.23,0.71-2.54,1.44-3.48,2.47c-2.28,2.52-1.53,6.22,1.56,7.62
		c1.42,0.64,3.06,0.9,4.63,1.06C1471.68,2037.31,1473.46,2037.17,1475.22,2037.17z M1547.51,1711.09c-0.13,6.43,0.55,7.8,5.28,10.74
		c1.6,0.99,2.58,2.24,3.17,3.99c0.5,1.49,1.08,3.05,2.03,4.28c2.09,2.71,6.08,2.23,7.54-0.74c1.08-2.19,0.62-4.97-1.2-6.58
		c-0.7-0.62-1.55-1.13-2.41-1.51c-2.86-1.25-3.96-3.54-4-6.49c-0.01-1.11,0.04-2.23,0.08-3.35c0.14-4.33,1.78-7.73,5.92-9.59
		c2.6-1.17,3.75-3.34,4.16-6.01c0.12-0.79,0.14-1.59,0.19-2.38c0.21-3.18,0.24-6.39,0.68-9.53c0.57-4.12-0.48-7.58-3.47-10.44
		c-1.87-1.79-3.32-3.86-4.53-6.13c-0.37-0.7-0.75-1.42-1.24-2.04c-2.65-3.37-6.71-2.86-8.22,1.19c-0.65,1.74-0.86,3.75-0.79,5.62
		c0.46,11.7-0.47,23.27-2.68,34.76C1547.68,1708.58,1547.6,1710.35,1547.51,1711.09z M1349.92,286.94c0.3-4.66-1.12-6.64-5.63-8.04
		c-0.91-0.28-1.85-0.53-2.79-0.61c-3.88-0.34-7.29,0.54-9.65,3.97c-1.56,2.26-3.53,4.09-5.98,5.39c-2.1,1.12-3.51,2.96-3.76,5.27
		c-0.6,5.38-1.02,10.78-1.33,16.18c-0.11,1.94,0.73,3.73,2.19,5.14c3.48,3.37,10.51,3.58,13.95,0.1c2.81-2.84,5.59-5.64,8.84-7.99
		c1.83-1.33,3.18-3.16,3.34-5.58C1349.38,296.16,1349.64,291.55,1349.92,286.94z M1482.11,1752.49c0.36-3.26-0.65-6.09-3.64-7.64
		c-3.41-1.77-7.06-2.07-10.57-0.18c-1.22,0.66-2.42,1.64-3.19,2.77c-3.14,4.58-2.42,10.56,1.68,14.31c2.16,1.98,3.89,4.19,4.99,6.91
		c0.3,0.73,0.62,1.48,1.07,2.13c2.15,3.11,6.47,2.98,8.28-0.35c0.66-1.21,0.99-2.72,1.05-4.11
		C1482,1761.72,1482.02,1757.1,1482.11,1752.49z M1332.48,893.97c0.04,4.05,1.36,7.27,5.18,9.03c2.33,1.07,3.81,2.73,4.56,5.19
		c0.81,2.63,2.69,4.27,5.32,5.04c1.53,0.45,3.06,0.92,4.61,1.24c0.92,0.19,1.91,0.21,2.84,0.08c2.47-0.35,4.25-2.01,4.66-4.18
		c0.48-2.54-0.51-4.79-2.96-5.92c-1.41-0.65-3.02-0.9-4.57-1.21c-1.71-0.34-3.49-0.39-5.17-0.86c-2.49-0.69-3.44-1.92-3.47-4.5
		c-0.02-1.9,0.37-3.8,0.41-5.71c0.03-1.57,0.13-3.25-0.36-4.7c-1.31-3.87-5.72-4.62-8.35-1.5c-0.7,0.83-1.3,1.85-1.61,2.89
		C1333.07,890.52,1332.83,892.26,1332.48,893.97z M1670.72,767.99c-0.24-0.51-0.69-1.69-1.35-2.73c-0.41-0.65-1.07-1.24-1.75-1.59
		c-2.86-1.48-4.56-3.88-5.72-6.78c-0.18-0.44-0.41-0.86-0.68-1.26c-1.75-2.68-4.97-3.32-7.46-1.5c-2.27,1.66-2.67,4.77-0.71,7.19
		c0.88,1.08,2.06,2.01,3.27,2.71c2.05,1.17,3.43,2.79,4.22,4.98c0.27,0.75,0.54,1.51,0.91,2.21c1.19,2.26,3.19,3.12,5.59,2.47
		C1669.3,773.09,1670.8,771.08,1670.72,767.99z M1734.58,1629.91c0.47,1.98,0.62,4.11,1.48,5.9c1.72,3.56,5.93,3.94,8.07,0.68
		c2.74-4.2,3.35-8.85,1.43-13.61c-0.77-1.91-2.31-3.02-4.39-3.16c-2.14-0.14-3.62,1.01-4.61,2.79
		C1735.3,1624.78,1734.82,1627.26,1734.58,1629.91z M1459.64,1830.83c0.21-3.55-0.18-5.87-1.76-7.86c-2.27-2.85-6.18-2.68-8.02,0.44
		c-2.23,3.79-2.25,7.9-1.36,12.06c0.16,0.74,0.64,1.47,1.12,2.09c1.76,2.29,4.48,2.58,6.72,0.79c1.41-1.13,2.41-2.57,2.79-4.34
		C1459.44,1832.6,1459.59,1831.17,1459.64,1830.83z M1609.26,1295.87c-3,0.1-4.93,2.2-4.88,5.3c0.05,3.24,2.3,5.54,5.33,5.46
		c2.87-0.07,5.17-2.8,4.94-5.87C1614.45,1297.86,1612.14,1295.77,1609.26,1295.87z M1572.57,1766.52c0.12-2.9-2.03-5.33-4.86-5.49
		c-2.93-0.18-5.25,1.87-5.47,4.83c-0.22,3.06,1.7,5.47,4.54,5.7C1569.93,1771.8,1572.45,1769.61,1572.57,1766.52z M1750.43,1674.08
		c-0.1,3.08,2.3,5.59,5.32,5.56c2.84-0.03,5.11-2.37,5.09-5.26c-0.02-3.02-2.11-5.17-5.07-5.22
		C1752.7,1669.11,1750.53,1671.11,1750.43,1674.08z M1645.48,610.69c0.08-2.98-1.99-5.37-4.8-5.53c-3.06-0.18-5.57,2.18-5.6,5.25
		c-0.03,2.96,2.02,5.02,5.11,5.15C1643.29,615.69,1645.4,613.74,1645.48,610.69z M1746.93,1542.46c3.14,0.1,5.44-1.88,5.47-4.69
		c0.03-2.96-2.41-5.33-5.53-5.37c-2.7-0.03-4.78,2.01-4.9,4.79C1741.84,1540.09,1743.99,1542.37,1746.93,1542.46z M1403.4,1459.57
		c-0.02-2.96-2.18-5.33-4.96-5.43c-2.94-0.1-5.08,2.02-5.14,5.09c-0.06,3.2,2.23,5.75,5.16,5.74
		C1401.16,1464.97,1403.41,1462.51,1403.4,1459.57z M1528.8,771.77c-2.91-0.11-4.99,1.98-5.12,5.12c-0.13,3.13,1.79,5.39,4.69,5.51
		c2.84,0.12,4.94-2,5.12-5.16C1533.67,774.11,1531.75,771.88,1528.8,771.77z M1748.47,1512.27c-2.87,0.03-4.9,1.98-4.91,4.71
		c-0.01,2.81,2.28,5.2,5.07,5.27c2.91,0.08,5.17-2.14,5.15-5.06C1753.75,1514.35,1751.47,1512.24,1748.47,1512.27z M1368.73,993.15
		c2.78,0.06,4.9-1.96,4.94-4.71c0.05-3.06-2.35-5.46-5.43-5.43c-2.55,0.03-4.15,1.81-4.26,4.75
		C1363.86,990.93,1365.76,993.08,1368.73,993.15z M1340.39,927.6c-0.01,2.81,1.93,4.89,4.66,5c2.82,0.11,4.91-1.89,4.9-4.66
		c-0.01-2.66-2.07-4.58-4.99-4.66C1342.19,923.2,1340.4,924.89,1340.39,927.6z"/>
	<path class="st0" d="M469.75,648.46c-0.47,5.25-0.9,10.51-1.41,15.76c-0.43,4.45-0.86,8.91-1.43,13.35
		c-0.57,4.4,0.19,8.27,3.72,11.29c3.66,3.14,4.39,7.12,3.69,11.73c-0.72,4.73-1.08,9.52-1.53,14.29c-0.66,7-1.26,14-1.88,21.01
		c-0.11,1.27-0.29,2.55-0.27,3.82c0.03,2.54,1.02,4.65,3.15,6.15c1.04,0.73,2.17,1.4,3.06,2.29c2.81,2.79,2.32,6.88-1.05,8.99
		c-0.94,0.59-2.05,0.9-3.02,1.45c-2.58,1.47-4.1,3.7-3.74,6.7c0.52,4.32,0.53,8.59-0.02,12.9c-0.31,2.48,0.73,4.7,2.21,6.68
		c0.48,0.64,0.99,1.29,1.62,1.76c3.7,2.77,4.3,6.58,3.57,10.75c-1.71,9.79-1.84,19.73-2.71,29.6c-0.64,7.32-1.13,14.64-0.5,22.03
		c0.31,3.62-0.45,7.32-0.71,10.99c-0.3,4.14-0.55,8.29-0.9,12.43c-0.16,1.9-0.4,3.81-0.77,5.68c-0.18,0.92-0.6,1.84-1.11,2.63
		c-1.01,1.57-2.47,2.51-4.42,2.38c-1.96-0.13-3.23-1.27-4.02-2.98c-0.96-2.09-1.15-4.31-0.92-6.57c0.52-5.09,1.07-10.17,1.56-15.26
		c0.2-2.07,0.37-4.14,0.43-6.22c0.09-3.02-0.87-5.66-3.11-7.77c-0.47-0.44-0.92-0.89-1.37-1.34c-2.39-2.42-3.4-5.27-3.03-8.72
		c0.72-6.67,1.33-13.36,1.89-20.04c0.89-10.51,2.19-21,1.49-31.59c-0.14-2.05,0.05-4.17,0.38-6.21c0.72-4.42,0.01-8.32-3.7-11.21
		c-3.48-2.71-3.84-6.34-3.49-10.36c1.08-12.42,2.07-24.85,3.07-37.28c0.52-6.53,1.01-13.07,1.46-19.61
		c0.16-2.39,0.26-4.79,0.24-7.19c-0.07-6.56,0.16-13.09,0.79-19.64c0.62-6.52,0.74-13.09,1.06-19.63c0.09-1.76,0.11-3.52,0.23-5.27
		c0.12-1.81,0.85-3.4,2.06-4.75c2.56-2.86,6.69-2.49,8.35,0.97c0.86,1.8,0.99,3.95,1.45,5.94
		C470.01,648.41,469.88,648.44,469.75,648.46z"/>
	<path class="st0" d="M783.55,294.66c0.2-3.39,1.35-7.14,5.52-9.5c1.46-0.83,2.53-2.37,3.72-3.64c0.98-1.05,1.76-2.29,2.81-3.26
		c2.17-2.02,4.73-1.91,6.76,0.31c0.95,1.05,1.8,2.28,2.36,3.58c1.42,3.3,3.9,4.94,7.4,5.21c1.59,0.12,3.18,0.23,4.78,0.34
		c4.14,0.27,8.29,0.55,12.43,0.8c2.71,0.16,5.43,0.21,8.13,0.43c1.9,0.15,3.83,0.34,5.67,0.82c2.72,0.71,4.34,2.65,4.76,5.43
		c0.21,1.41,0.24,2.87,0.16,4.29c-0.21,3.66-0.52,7.32-0.82,10.98c-0.08,0.95-0.16,1.92-0.43,2.83c-1.06,3.61-3.83,5.52-7.57,5.24
		c-0.95-0.07-1.88-0.38-2.83-0.5c-3.16-0.4-5.63,0.75-7.39,3.4c-0.8,1.19-1.44,2.51-2.37,3.59c-1.83,2.11-4.43,2.01-6.14-0.24
		c-0.76-1-1.15-2.27-1.78-3.37c-0.63-1.09-1.2-2.29-2.08-3.16c-1.7-1.7-3.95-1.55-5.44,0.31c-0.79,0.98-1.33,2.17-1.93,3.29
		c-0.98,1.85-2.41,2.92-4.59,2.84c-2.21-0.08-3.58-1.31-4.31-3.24c-1.34-3.52-3.37-6.51-6.27-8.91c-0.24-0.2-0.49-0.44-0.62-0.72
		c-1.9-3.77-4.62-6.82-7.88-9.5C783.93,300.93,783.58,298.92,783.55,294.66z"/>
	<path class="st0" d="M395.46,382.64c0.09-1.41,0.09-1.89,0.16-2.37c1.53-10.3,1.41-20.71,2.25-31.05c0.23-2.86,0.56-5.72,0.89-8.58
		c0.44-3.93-0.56-7.3-3.74-9.82c-3.72-2.94-4.38-6.72-3.53-11.17c0.65-3.44,0.9-6.97,1.17-10.47c0.71-9.4,1.4-18.8,1.97-28.2
		c0.16-2.7-0.03-5.43-0.22-8.13c-0.14-1.94-0.18-3.83,0.51-5.67c0.78-2.08,2.11-3.62,4.44-3.86c2.16-0.23,3.62,1.02,4.72,2.71
		c0.43,0.67,0.75,1.41,1.09,2.13c1.62,3.35,4.41,4.91,8.01,5.24c1.43,0.13,2.9,0.12,4.26,0.5c2.84,0.78,4.45,3.06,4.22,5.63
		c-0.14,1.52-0.8,2.77-2.02,3.66c-1.16,0.84-2.34,1.7-3.62,2.32c-2.91,1.41-4.12,3.86-4.54,6.87c-0.07,0.47-0.11,0.96-0.1,1.43
		c0.25,9.77-1.06,19.45-1.8,29.16c-0.18,2.38-0.18,4.79-0.07,7.18c0.32,7.36-0.13,14.68-0.76,22.02
		c-0.82,9.55-1.38,19.11-2.18,28.66c-0.17,2.03-0.71,4.08-1.4,6c-0.63,1.75-2.1,2.82-4.05,2.89c-2.15,0.08-3.76-1-4.55-2.91
		C395.89,385.23,395.66,383.46,395.46,382.64z"/>
	<path class="st0" d="M590.4,1886.9c-0.17,1.44-0.42,3.18-0.57,4.93c-0.29,3.26,0.64,6.03,3.48,7.9c2.26,1.49,3.72,3.42,4.13,6.15
		c0.48,3.24,0.4,6.41-1.22,9.32c-0.52,0.93-1.42,1.7-2.28,2.38c-0.74,0.58-1.68,0.91-2.52,1.37c-3.23,1.76-5.11,4.23-4.47,8.17
		c0.23,1.4,0.1,2.87,0.08,4.31c-0.04,2.68-1.38,4.52-3.77,5.61c-0.58,0.27-1.2,0.43-1.81,0.63c-1.93,0.66-3.25,1.94-4.03,3.83
		c-0.42,1.03-0.86,2.08-1.46,3.01c-1.37,2.11-3.55,2.89-5.81,2.23c-1.87-0.55-3.11-2.22-3.21-4.3c-0.11-2.4,1.12-4.31,3.47-5.17
		c1.19-0.43,2.48-0.62,3.68-1.04c1.35-0.47,2-1.53,1.98-2.96c-0.03-2.19-0.8-4.06-2.47-5.51c-0.97-0.84-2.06-1.54-2.94-2.46
		c-2.14-2.22-1.93-5.17,0.51-7.1c0.99-0.78,2.21-1.28,3.27-1.98c3.11-2.08,4.92-4.75,4.77-8.76c-0.22-5.9-0.13-11.82-0.01-17.73
		c0.04-2.04,0.34-4.16,0.98-6.09c1.02-3.1,3.14-4.39,5.72-3.99c2.39,0.37,4.17,2.55,4.5,5.52
		C590.44,1885.64,590.4,1886.12,590.4,1886.9z"/>
	<path class="st0" d="M728.83,545.91c0.61-5.96,1.19-11.51,1.74-17.07c0.22-2.22,0.38-4.45,0.52-6.68c0.16-2.54-0.71-4.7-2.5-6.49
		c-0.79-0.79-1.59-1.58-2.34-2.4c-4.46-4.86-4.2-12.87,0.79-17.15c2.67-2.29,5.43-4.4,7.4-7.41c1.24-1.89,3.24-2.55,5.49-2.03
		c2.32,0.54,3.52,2.24,3.78,4.44c0.2,1.71,0.19,3.53-0.19,5.2c-1.4,6.12-1.73,12.31-1.81,18.56c-0.07,5.74-0.48,11.48-0.74,17.22
		c-0.17,3.67-0.27,7.34-0.53,11c-0.16,2.22-0.34,4.48-0.91,6.61c-0.71,2.67-2.91,4.12-5.3,3.97c-2.61-0.16-4.69-2.06-5.17-4.83
		C728.87,547.76,728.88,546.63,728.83,545.91z"/>
	<path class="st0" d="M393.68,1172.02c0.49-4.77,0.97-8.72,1.3-12.69c0.51-6.2,0.86-12.41,1.39-18.6c0.25-3.01,0.84-6,1.1-9.02
		c0.23-2.69,0.2-5.4,0.31-8.1c0.09-2.22-0.12-4.53,0.41-6.64c1-3.99,5.08-5.14,8.26-2.53c0.61,0.5,1.13,1.12,1.64,1.73
		c0.3,0.36,0.57,0.78,0.75,1.22c1.04,2.59,2.91,4.49,4.9,6.38c3.19,3.03,2.92,6.07-0.59,8.88c-1.12,0.89-2.35,1.65-3.51,2.49
		c-1.92,1.39-3.03,3.24-3.18,5.63c-0.04,0.64-0.08,1.27-0.11,1.91c-0.5,9.71-0.98,19.42-1.5,29.13c-0.07,1.26-0.19,2.56-0.54,3.77
		c-0.75,2.54-2.62,4.04-4.77,3.98c-2.5-0.07-4.28-1.38-5.11-3.65C393.87,1174.44,393.82,1172.8,393.68,1172.02z"/>
	<path class="st0" d="M764.42,1998.45c-0.16,1.02-0.38,2.28-0.55,3.54c-0.43,3.16-0.84,6.32-1.24,9.48
		c-0.14,1.11-0.09,2.26-0.38,3.32c-0.96,3.52-3.2,5.37-6.48,5.25c-1.28-0.04-2.57,0.06-3.83-0.07c-3.19-0.32-5.6,0.79-7.25,3.59
		c-0.56,0.96-1.21,1.9-1.98,2.7c-2.84,2.96-6.25,2.57-8.35-0.9c-0.41-0.68-0.72-1.43-1.01-2.17c-0.67-1.68-1.8-3-3.2-4.11
		c-0.87-0.69-1.84-1.32-2.56-2.15c-2.78-3.17-1.29-7.72,2.83-8.49c1.37-0.26,2.9-0.21,4.26,0.1c3.85,0.89,6.79-0.27,9.38-3.21
		c3.37-3.83,7.55-6.91,10.43-11.2c0.35-0.52,0.88-0.94,1.39-1.31c3.26-2.38,7.32-0.92,8.24,2.99
		C764.29,1996.59,764.3,1997.4,764.42,1998.45z"/>
	<path class="st0" d="M848.96,2018.2c-2.63,0-4.35-0.63-5.29-2.61c-0.88-1.85-0.46-4.25,1.16-5.7c0.93-0.83,2.05-1.64,3.22-1.94
		c3.77-0.98,4.84-3.49,5.03-7.1c0.35-6.68,1.04-13.35,1.66-20.02c0.15-1.58,0.47-3.15,0.85-4.69c0.92-3.74,3.56-5.53,7.21-6
		c2.58-0.34,5.12,0.09,7.53,0.96c3.73,1.35,4.59,5.81,1.63,8.49c-0.92,0.84-2.13,1.38-3.23,2.01c-1.91,1.09-3.23,2.66-3.6,4.82
		c-0.35,2.03-0.58,4.09-0.67,6.15c-0.13,3.03-0.01,6.06-0.14,9.09c-0.15,3.31-1.71,5.91-4.81,7.1c-2.6,1-4.15,2.73-5.34,5.12
		c-0.62,1.24-1.6,2.4-2.68,3.29C850.69,2017.82,849.49,2017.99,848.96,2018.2z"/>
	<path class="st0" d="M517.41,2019.11c-0.16,0.97-0.3,2.57-0.71,4.11c-1.02,3.81-3.79,5.91-7.68,5.96c-0.32,0-0.65,0.03-0.95-0.05
		c-4.59-1.23-7.67,1.01-10.26,4.41c-0.68,0.89-1.31,1.84-2.13,2.57c-2.06,1.84-5.14,1.53-6.72-0.74c-0.71-1.02-1.34-2.28-1.46-3.48
		c-0.45-4.81,0.31-9.23,4.62-12.33c2.85-2.05,5.61-4.15,7.7-7.1c1.78-2.52,4.56-3.4,7.63-3.14c0.95,0.08,1.9,0.25,2.84,0.45
		C515.06,2010.78,517.45,2013.72,517.41,2019.11z"/>
	<path class="st0" d="M701.56,277.33c0.37,0.05,1.49,0.14,2.58,0.36c5.64,1.17,11.34,1.67,17.1,1.56c1.42-0.03,2.89,0.03,4.27,0.32
		c2.64,0.56,4.34,2.53,4.52,4.91c0.14,1.93-0.66,3.43-2.21,4.49c-3.17,2.15-6.1,4.57-8.79,7.32c-2,2.04-4.65,2.73-7.5,2.2
		c-1.41-0.26-2.79-0.65-4.17-1.04c-1.63-0.47-2.79-1.55-3.51-3.04c-1.15-2.37-2.98-4.1-5.01-5.68c-0.88-0.68-1.73-1.41-2.52-2.2
		c-1.73-1.73-2.35-3.85-1.46-6.13c0.85-2.19,2.85-2.85,5.02-3.06C700.18,277.3,700.5,277.33,701.56,277.33z"/>
	<path class="st0" d="M421.02,1072.17c0.13,2.53-0.48,4.82-1.39,7.06c-0.81,1.99-1.98,3.7-3.9,4.68c-2.52,1.29-4.24,3.32-5.7,5.64
		c-0.25,0.4-0.52,0.81-0.82,1.18c-2.69,3.25-6.56,2.73-8.4-1.12c-2.23-4.68-0.64-10.53,3.64-13.51c1.17-0.82,2.36-1.65,3.38-2.64
		c0.78-0.76,1.46-1.71,1.9-2.71c1.05-2.37,0.37-4.35-1.85-5.73c-1.08-0.67-2.3-1.14-3.32-1.88c-2.05-1.5-2.65-4.08-1.64-6.42
		c1.08-2.51,4.01-3.45,6.42-2.02c1.57,0.93,2.67,2.31,3.17,4.05c0.83,2.93,2.6,5.07,5.19,6.58
		C420.36,1066.9,421.16,1069.35,421.02,1072.17z"/>
	<path class="st0" d="M865.08,800.14c0.67-4.33,1.17-8.94,2.14-13.45c1.03-4.74,4.66-7.18,9.54-6.81c1.58,0.12,3.21,0.32,4.7,0.82
		c3.96,1.32,5.06,5.23,2.34,8.37c-0.91,1.06-2.15,1.9-3.38,2.6c-2.92,1.67-4.36,4.06-4.29,7.44c0.03,1.59-0.06,3.2-0.27,4.78
		c-0.38,2.87-2,4.61-4.41,4.92c-2.33,0.3-4.98-1.5-5.74-4.14C865.32,803.31,865.3,801.84,865.08,800.14z"/>
	<path class="st0" d="M494.86,270.49c0.61,0.12,2.24,0.25,3.71,0.79c3.92,1.43,5.81,4.23,5.79,8.42c-0.01,1.43-0.14,2.89-0.5,4.26
		c-0.32,1.21-0.86,2.44-1.6,3.44c-2.76,3.71-6.54,3.29-10.45,2.49c-3.5-0.71-5.92-2.63-6.54-6.12c-0.38-2.15-0.36-4.5,0.09-6.64
		C486.35,272.4,489.05,270.47,494.86,270.49z"/>
	<path class="st0" d="M796.16,909.22c-0.3,4.46-0.54,8.93-0.93,13.39c-0.11,1.24-0.46,2.56-1.07,3.63c-1.8,3.16-5.5,3.58-8.14,1.07
		c-1.63-1.56-2.22-3.54-2.03-5.68c0.44-5.09,1.01-10.17,1.56-15.26c0.07-0.63,0.28-1.25,0.52-1.84c0.97-2.36,2.96-3.81,5.08-3.73
		c2.26,0.08,4.28,1.92,4.84,4.61c0.26,1.24,0.24,2.54,0.34,3.81C796.27,909.22,796.21,909.22,796.16,909.22z"/>
	<path class="st0" d="M854.03,1559.89c-2.62-0.16-4.1-0.99-4.79-2.81c-0.78-2.06-0.68-4.15,0.82-5.83c0.81-0.91,1.96-1.76,3.11-2.06
		c2.71-0.71,4.41-2.36,5.57-4.78c0.27-0.57,0.67-1.08,1.06-1.58c1.27-1.66,2.91-2.45,5-1.99c2.06,0.45,3.35,1.79,3.79,3.83
		c0.48,2.23-0.26,4.08-2.09,5.44c-0.5,0.37-1.09,0.71-1.69,0.85c-3.06,0.72-4.86,2.8-6.25,5.44c-0.43,0.83-0.98,1.73-1.73,2.23
		C855.83,1559.32,854.58,1559.65,854.03,1559.89z"/>
	<path class="st0" d="M665.74,449.41c-0.1,2.47-0.5,4.82-1.55,7.03c-0.97,2.02-2.51,3.32-4.86,3.26c-2.35-0.05-3.81-1.4-4.72-3.47
		c-1.81-4.1-1.28-8.12,0.56-12.04c0.33-0.7,0.93-1.31,1.5-1.84c2.84-2.64,6.78-1.76,8.1,1.92
		C665.34,445.9,665.43,447.69,665.74,449.41z"/>
	<path class="st0" d="M593.84,1849.99c-0.46,1.76-0.82,3.97-1.61,6.01c-0.98,2.51-3.23,3.68-5.69,3.4c-1.9-0.22-3.33-1.2-3.98-2.97
		c-1.49-4.02-1.58-8.09,0.18-12.07c1.06-2.39,3.2-3.5,5.81-3.24c2.34,0.24,3.9,1.58,4.58,4.18
		C593.47,1846.67,593.56,1848.11,593.84,1849.99z"/>
	<path class="st0" d="M391.42,1201.25c-0.01-3.11,0.5-5.27,1.64-7.23c2.12-3.66,7.37-3.62,9.35,0.13c0.65,1.22,1.15,2.74,1.07,4.08
		c-0.16,2.51-0.58,5.05-1.31,7.45c-0.73,2.4-3.27,3.85-5.56,3.69c-2.14-0.14-3.87-1.66-4.54-4.25
		C391.66,1203.6,391.54,1202,391.42,1201.25z"/>
	<path class="st0" d="M405.95,1004.23c1.12,0.17,2.6,0.18,3.92,0.64c1.31,0.46,2.61,1.2,3.64,2.11c1.72,1.51,2,3.6,1.29,5.69
		c-0.73,2.15-2.42,3.37-4.67,3.46c-3.04,0.13-6.02-0.4-8.78-1.74c-2.42-1.18-3.54-3.11-3.28-5.28c0.27-2.33,2.13-4.2,4.74-4.66
		C403.73,1004.28,404.69,1004.3,405.95,1004.23z"/>
	<path class="st0" d="M548.79,959.28c-3.41,0.05-5.61-0.21-7.6-1.39c-2.28-1.35-3.41-3.39-3.01-5.5c0.47-2.5,2.18-3.86,4.53-4.34
		c3.2-0.66,6.38-0.29,9.4,0.86c2.5,0.96,3.62,3.16,3.25,5.75c-0.33,2.29-1.94,3.98-4.38,4.44
		C549.88,959.3,548.75,959.28,548.79,959.28z"/>
	<path class="st0" d="M401.47,960.5c0.1,3.1-2.12,5.71-5.03,5.91c-2.9,0.2-5.17-2.21-5.23-5.54c-0.05-3.04,1.94-5.45,4.67-5.64
		C398.82,955.02,401.37,957.42,401.47,960.5z"/>
	<path class="st0" d="M688.77,1648.21c-0.07,3.08-2.46,5.52-5.38,5.49c-2.85-0.03-5.02-2.58-4.96-5.83
		c0.05-2.94,2.23-5.17,5.07-5.18C686.48,1642.68,688.84,1645.16,688.77,1648.21z"/>
	<path class="st0" d="M742.05,447.56c-3.14-0.02-5.38-2.36-5.26-5.51c0.11-2.8,2.51-5.17,5.23-5.18c2.92,0,5.24,2.52,5.2,5.66
		C747.18,445.54,745.09,447.58,742.05,447.56z"/>
	<path class="st0" d="M869.49,1209.77c-3.04-0.06-4.99-2.06-5.02-5.14c-0.03-3.05,2.02-5.3,4.85-5.34c3.34-0.05,5.73,2.41,5.55,5.7
		C874.71,1207.97,872.6,1209.84,869.49,1209.77z"/>
	<path class="st0" d="M875.15,1712.35c-0.08,3.06-2.1,5.07-5.1,5.09c-3.1,0.02-5.49-2.34-5.44-5.35c0.05-2.86,2.28-5.04,5.19-5.06
		C873.05,1707,875.24,1709.17,875.15,1712.35z"/>
	<path class="st0" d="M693.43,1326.75c-0.11,3-2.34,5.07-5.3,4.91c-2.84-0.15-5.06-2.58-4.93-5.4c0.14-2.92,2.45-5.28,5.14-5.26
		C691.32,1321.02,693.55,1323.54,693.43,1326.75z"/>
	<path class="st0" d="M565.56,998.6c3.13-0.08,5.6,2.22,5.58,5.2c-0.02,2.88-2.16,5.14-5.02,5.3c-3.17,0.17-5.44-2-5.43-5.21
		C560.7,1000.77,562.62,998.68,565.56,998.6z"/>
	<path class="st0" d="M724.57,1080.88c-3.16,0.04-5.42-2.17-5.4-5.3c0.01-3.24,2.18-5.46,5.29-5.4c2.88,0.05,4.78,2.15,4.81,5.32
		C729.3,1078.68,727.42,1080.84,724.57,1080.88z"/>
	<path class="st0" d="M568.24,1169.83c-0.06,2.92-2.38,5.25-5.12,5.13c-2.77-0.12-4.99-2.55-4.92-5.38
		c0.07-2.87,2.37-5.16,5.17-5.13C566.08,1164.47,568.3,1166.92,568.24,1169.83z"/>
	<path class="st0" d="M846.14,1593.74c-0.09-3.06,1.93-5.21,4.87-5.2c2.9,0.01,5.18,2.26,5.14,5.07c-0.03,2.77-2.43,5.35-4.99,5.37
		C848.45,1598.99,846.22,1596.67,846.14,1593.74z"/>
	<path class="st0" d="M400.46,1025.03c2.96,0.15,5.14,2.53,4.91,5.35c-0.22,2.76-2.5,4.75-5.16,4.52c-2.83-0.25-4.79-2.68-4.58-5.68
		C395.82,1026.59,397.77,1024.89,400.46,1025.03z"/>
	<path class="st0" d="M1649.8,419.62c-0.1,0.95-0.19,1.91-0.3,2.86c-0.47,3.96-1.09,7.91-1.4,11.89
		c-0.82,10.51-1.53,21.03-2.22,31.55c-0.21,3.19-0.4,6.4-0.27,9.58c0.33,8.02-0.6,15.96-1.13,23.93
		c-0.42,6.22-0.93,12.43-1.45,18.64c-0.2,2.39-0.55,4.76-0.78,7.14c-0.16,1.74-0.34,3.5-0.32,5.25c0.03,2.5,0.93,4.67,2.8,6.4
		c0.82,0.76,1.58,1.59,2.41,2.33c4.29,3.82,3.83,10.63,0.64,14.9c-2.19,2.93-5.44,3.18-8.7,2.7c-3.43-0.5-6.65-1.69-7.85-5.38
		c-0.48-1.46-0.56-3.18-0.33-4.71c0.67-4.45,0.6-8.91,0.66-13.39c0.05-3.35,0.42-6.69,0.68-10.04c0.9-11.47,1.82-22.93,2.71-34.4
		c0.1-1.27,0.07-2.55,0.08-3.83c0.02-2.35-0.79-4.38-2.43-6.07c-0.67-0.69-1.29-1.44-2.04-2.02c-2.85-2.21-3.58-5.23-3.14-8.57
		c2.02-15.22,2.16-30.59,3.68-45.85c0.38-3.8,0.16-7.66,0.2-11.49c0.01-1.44-0.25-2.92,0.03-4.3c0.31-1.52,0.84-3.13,1.75-4.35
		c1.72-2.32,4.65-2.25,6.62-0.12c0.32,0.35,0.64,0.73,0.88,1.14c1.88,3.18,4.13,6.04,6.73,8.68
		C1649.28,414.11,1649.99,416.77,1649.8,419.62z"/>
	<path class="st0" d="M1348.32,1059.68c0.27-1.53,0.56-3.26,0.87-4.99c0.36-2.05,0.78-4.08,1.06-6.14c0.43-3.11-0.58-5.67-3.14-7.56
		c-0.64-0.48-1.29-0.94-1.92-1.44c-2.41-1.95-3.4-4.57-3.44-7.59c-0.01-0.79,0.13-1.59,0.25-2.38c1.53-9.81,2.03-19.7,2.19-29.62
		c0.04-2.55,0.32-5.1,0.49-7.65c0.11-1.59,0.29-3.18,0.33-4.78c0.07-2.62-0.88-4.61-3.48-5.71c-4.53-1.92-5.81-5.65-5.31-10.2
		c0.25-2.22,0.55-4.46,1.11-6.62c1.04-4.08,1.28-8.2,1.07-12.37c-0.06-1.27-0.06-2.56,0.03-3.83c0.1-1.5,0.82-2.74,1.93-3.75
		c1.68-1.53,3.89-1.7,5.68-0.27c0.99,0.79,1.79,1.82,2.65,2.76c1.61,1.77,3.2,3.56,4.8,5.33c0.43,0.48,0.89,0.92,1.27,1.43
		c2.36,3.14,1.93,6-1.25,8.23c-0.39,0.27-0.82,0.51-1.25,0.71c-3.68,1.64-4.99,4.74-5.26,8.47c-0.07,0.96,0.01,1.92-0.08,2.88
		c-0.3,3.5,0.71,6.19,4.05,7.94c2.26,1.18,3.34,3.39,3.52,5.94c0.11,1.59,0.1,3.19,0.19,4.79c0.08,1.43,0.09,2.88,0.36,4.28
		c0.45,2.39,1.93,4.04,4.27,4.72c1.36,0.4,2.82,0.45,4.23,0.74c1.55,0.32,3.2,0.48,4.6,1.13c3.38,1.59,3.8,4.87,1.09,7.36
		c-0.47,0.43-1.01,0.78-1.54,1.14c-0.79,0.54-1.6,1.06-2.41,1.57c-4.44,2.75-5.57,6.37-4.22,12.59c0.25,1.16,1.17,2.26,1.98,3.21
		c1.04,1.21,2.23,2.3,3.45,3.32c5.54,4.65,3.63,13.2-1.23,16.74c-1.03,0.75-2.21,1.3-3.22,2.08c-2.47,1.91-2.8,4.71-0.87,7.15
		c0.59,0.74,1.38,1.32,2.08,1.97c0.81,0.77,1.72,1.46,2.41,2.32c2.03,2.54,1.43,5.52-1.51,6.71c-4.47,1.8-8.79,1.29-12.68-1.67
		c-1.45-1.1-2.31-2.66-2.63-4.45C1348.63,1062.78,1348.52,1061.34,1348.32,1059.68z"/>
	<path class="st0" d="M1626.08,2021.64c0.28-4.14,0.61-8.28,0.84-12.42c0.21-3.69,1.95-6.33,5.18-8.05
		c0.28-0.15,0.54-0.35,0.84-0.46c3.77-1.33,4.85-4.34,4.98-7.94c0.04-1.28-0.07-2.57,0.06-3.83c0.43-4.04,2.88-6.34,6.96-6.47
		c1.42-0.05,2.86,0.19,4.29,0.37c2.34,0.29,4.15,1.44,5.58,3.35c3.42,4.6,6.92,9.15,10.39,13.72c0.1,0.13,0.17,0.28,0.28,0.39
		c3.56,3.69,6.61,7.76,9.4,12.06c0.67,1.04,1.73,1.88,2.76,2.62c2.71,1.97,3.82,4.71,3.75,7.89c-0.04,1.89-0.35,3.83-0.93,5.63
		c-1.19,3.72-4.15,5.65-8.05,5.46c-1.59-0.08-3.17-0.43-4.76-0.56c-8.75-0.74-17.51-1.45-26.27-2.16c-2.55-0.21-5.11-0.33-7.64-0.63
		C1628.23,2029.94,1625.78,2027.07,1626.08,2021.64z"/>
	<path class="st0" d="M1350,1165.04c0.84-6.98,1.73-13.95,2.49-20.93c0.27-2.53,0.34-5.1,0.3-7.64c-0.05-3.19-1.17-6.07-3.84-7.91
		c-4.22-2.9-4.75-6.88-3.91-11.42c1.03-5.53,1.32-11.1,0.97-16.71c-0.1-1.59-0.11-3.21,0.07-4.79c0.12-1.08,0.47-2.21,1.01-3.14
		c1.25-2.14,3.79-2.75,5.78-1.27c1.24,0.93,2.22,2.25,3.2,3.49c0.69,0.87,1.07,1.98,1.76,2.85c1.9,2.41,4.87,2.12,6.13-0.71
		c0.63-1.41,0.78-3.06,0.97-4.63c0.11-0.93-0.29-1.94-0.14-2.86c0.28-1.71,0.56-3.49,1.28-5.03c0.88-1.88,2.7-2.65,4.78-2.57
		c2.16,0.09,3.58,1.3,4.32,3.24c0.39,1.03,0.67,2.16,0.71,3.25c0.05,1.75,0.01,3.53-0.26,5.25c-0.91,5.84-1.98,11.65-1.99,17.6
		c0,1.26-0.29,2.55-0.67,3.75c-0.83,2.6-2.78,4.16-5.18,5.33c-3.91,1.9-5.45,5.25-5.2,9.44c0.09,1.58,0.49,3.15,0.91,4.68
		c0.75,2.72,2.54,4.36,5.4,4.75c1.58,0.22,3.19,0.36,4.74,0.73c1.22,0.28,2.51,0.65,3.52,1.34c1.7,1.15,2.49,2.89,2.09,5
		c-0.39,2.09-2.02,3.76-4.19,4.07c-1.57,0.22-3.21,0.31-4.78,0.12c-3.7-0.44-6.75,0.42-8.36,4.03c-1.65,3.7-1.84,7.45,0.67,10.92
		c0.84,1.16,1.94,2.12,2.87,3.22c0.82,0.97,1.74,1.92,2.32,3.03c1.6,3.09,0.16,6.36-3.2,7.11c-2.84,0.63-5.75,0.57-8.46-0.66
		c-3.46-1.57-5.63-4.17-5.81-8.11c-0.07-1.59-0.01-3.19-0.01-4.79C1350.18,1165.06,1350.09,1165.05,1350,1165.04z"/>
	<path class="st0" d="M1475.22,2037.17c-1.76,0-3.53,0.14-5.27-0.04c-1.57-0.16-3.21-0.42-4.63-1.06c-3.09-1.4-3.84-5.1-1.56-7.62
		c0.93-1.03,2.25-1.76,3.48-2.47c3.15-1.82,5.02-4.3,4.99-8.11c-0.01-1.73,0.28-3.51,0.71-5.2c0.67-2.57,2.49-4.1,5.13-4.37
		c1.74-0.18,3.51-0.14,5.26-0.02c4.62,0.33,9.24,0.75,13.86,1.18c1.75,0.16,3.52,0.27,5.22,0.65c4.58,1.04,6.21,3.16,6.11,7.75
		c-0.03,1.28-0.08,2.56-0.21,3.83c-0.3,2.98,0.75,5.29,3.18,7.05c1.16,0.84,2.28,1.77,3.29,2.78c1.63,1.64,1.97,3.68,1.15,5.77
		c-0.84,2.17-2.69,3.21-4.92,3.18c-2.07-0.02-4.13-0.4-6.19-0.67c-3.17-0.41-6.32-0.98-9.5-1.27c-6.69-0.6-13.39-1.07-20.09-1.59
		C1475.22,2037.03,1475.22,2037.1,1475.22,2037.17z"/>
	<path class="st0" d="M1547.51,1711.09c0.08-0.75,0.17-2.51,0.5-4.23c2.21-11.49,3.14-23.06,2.68-34.76
		c-0.07-1.87,0.14-3.88,0.79-5.62c1.51-4.05,5.57-4.56,8.22-1.19c0.49,0.62,0.87,1.34,1.24,2.04c1.21,2.27,2.66,4.34,4.53,6.13
		c2.99,2.86,4.04,6.32,3.47,10.44c-0.43,3.15-0.47,6.35-0.68,9.53c-0.05,0.8-0.07,1.6-0.19,2.38c-0.41,2.67-1.56,4.84-4.16,6.01
		c-4.14,1.86-5.78,5.26-5.92,9.59c-0.04,1.12-0.09,2.23-0.08,3.35c0.04,2.95,1.14,5.24,4,6.49c0.86,0.38,1.71,0.89,2.41,1.51
		c1.82,1.61,2.28,4.39,1.2,6.58c-1.46,2.97-5.46,3.45-7.54,0.74c-0.94-1.22-1.52-2.79-2.03-4.28c-0.59-1.76-1.57-3-3.17-3.99
		C1548.06,1718.9,1547.38,1717.52,1547.51,1711.09z"/>
	<path class="st0" d="M1349.92,286.94c-0.27,4.61-0.54,9.22-0.83,13.83c-0.15,2.42-1.5,4.26-3.34,5.58
		c-3.25,2.35-6.04,5.15-8.84,7.99c-3.44,3.48-10.47,3.27-13.95-0.1c-1.46-1.41-2.3-3.2-2.19-5.14c0.3-5.4,0.73-10.8,1.33-16.18
		c0.26-2.3,1.66-4.15,3.76-5.27c2.45-1.31,4.42-3.13,5.98-5.39c2.37-3.43,5.77-4.31,9.65-3.97c0.94,0.08,1.89,0.33,2.79,0.61
		C1348.79,280.3,1350.21,282.28,1349.92,286.94z"/>
	<path class="st0" d="M1482.11,1752.49c-0.09,4.61-0.11,9.23-0.32,13.84c-0.06,1.39-0.4,2.9-1.05,4.11
		c-1.81,3.33-6.13,3.46-8.28,0.35c-0.45-0.65-0.77-1.4-1.07-2.13c-1.1-2.71-2.83-4.93-4.99-6.91c-4.11-3.75-4.82-9.73-1.68-14.31
		c0.78-1.13,1.97-2.12,3.19-2.77c3.5-1.88,7.15-1.58,10.57,0.18C1481.46,1746.4,1482.47,1749.23,1482.11,1752.49z"/>
	<path class="st0" d="M1332.48,893.97c0.35-1.71,0.59-3.45,1.1-5.11c0.32-1.03,0.91-2.06,1.61-2.89c2.63-3.12,7.04-2.37,8.35,1.5
		c0.49,1.45,0.39,3.13,0.36,4.7c-0.04,1.91-0.43,3.81-0.41,5.71c0.03,2.58,0.98,3.81,3.47,4.5c1.67,0.46,3.46,0.51,5.17,0.86
		c1.55,0.31,3.16,0.56,4.57,1.21c2.45,1.13,3.44,3.38,2.96,5.92c-0.41,2.17-2.19,3.83-4.66,4.18c-0.93,0.13-1.92,0.1-2.84-0.08
		c-1.56-0.31-3.08-0.79-4.61-1.24c-2.63-0.77-4.52-2.41-5.32-5.04c-0.76-2.46-2.24-4.12-4.56-5.19
		C1333.84,901.24,1332.52,898.02,1332.48,893.97z"/>
	<path class="st0" d="M1670.72,767.99c0.09,3.08-1.41,5.09-3.68,5.7c-2.4,0.64-4.4-0.22-5.59-2.47c-0.37-0.7-0.64-1.46-0.91-2.21
		c-0.79-2.19-2.17-3.81-4.22-4.98c-1.22-0.7-2.4-1.62-3.27-2.71c-1.96-2.42-1.56-5.53,0.71-7.19c2.49-1.82,5.71-1.18,7.46,1.5
		c0.26,0.4,0.5,0.82,0.68,1.26c1.16,2.9,2.86,5.3,5.72,6.78c0.68,0.35,1.34,0.94,1.75,1.59
		C1670.02,766.31,1670.47,767.49,1670.72,767.99z"/>
	<path class="st0" d="M1734.58,1629.91c0.25-2.66,0.73-5.13,1.98-7.4c0.99-1.78,2.47-2.93,4.61-2.79c2.08,0.14,3.62,1.26,4.39,3.16
		c1.92,4.76,1.31,9.41-1.43,13.61c-2.13,3.26-6.35,2.88-8.07-0.68C1735.19,1634.03,1735.05,1631.89,1734.58,1629.91z"/>
	<path class="st0" d="M1459.64,1830.83c-0.05,0.34-0.2,1.77-0.5,3.17c-0.39,1.77-1.38,3.21-2.79,4.34c-2.24,1.8-4.96,1.5-6.72-0.79
		c-0.48-0.62-0.96-1.34-1.12-2.09c-0.89-4.16-0.87-8.27,1.36-12.06c1.84-3.12,5.75-3.3,8.02-0.44
		C1459.46,1824.96,1459.84,1827.29,1459.64,1830.83z"/>
	<path class="st0" d="M1609.26,1295.87c2.88-0.1,5.19,1.99,5.4,4.89c0.23,3.07-2.07,5.8-4.94,5.87c-3.04,0.08-5.28-2.22-5.33-5.46
		C1604.34,1298.07,1606.27,1295.97,1609.26,1295.87z"/>
	<path class="st0" d="M1572.57,1766.52c-0.13,3.1-2.65,5.29-5.79,5.04c-2.84-0.23-4.77-2.64-4.54-5.7c0.22-2.95,2.54-5,5.47-4.83
		C1570.55,1761.19,1572.69,1763.61,1572.57,1766.52z"/>
	<path class="st0" d="M1750.43,1674.08c0.1-2.97,2.27-4.98,5.34-4.92c2.96,0.05,5.06,2.21,5.07,5.22c0.01,2.89-2.25,5.23-5.09,5.26
		C1752.73,1679.67,1750.33,1677.17,1750.43,1674.08z"/>
	<path class="st0" d="M1645.48,610.69c-0.08,3.05-2.19,5-5.29,4.87c-3.09-0.13-5.14-2.19-5.11-5.15c0.03-3.07,2.54-5.43,5.6-5.25
		C1643.49,605.32,1645.57,607.7,1645.48,610.69z"/>
	<path class="st0" d="M1746.93,1542.46c-2.94-0.09-5.09-2.37-4.96-5.27c0.12-2.79,2.21-4.83,4.9-4.79c3.11,0.04,5.55,2.41,5.53,5.37
		C1752.37,1540.58,1750.07,1542.56,1746.93,1542.46z"/>
	<path class="st0" d="M1403.4,1459.57c0.02,2.94-2.23,5.4-4.94,5.41c-2.93,0-5.22-2.54-5.16-5.74c0.06-3.07,2.2-5.19,5.14-5.09
		C1401.22,1454.24,1403.38,1456.6,1403.4,1459.57z"/>
	<path class="st0" d="M1528.8,771.77c2.95,0.11,4.87,2.34,4.69,5.47c-0.18,3.16-2.28,5.28-5.12,5.16c-2.9-0.12-4.82-2.38-4.69-5.51
		C1523.81,773.75,1525.89,771.67,1528.8,771.77z"/>
	<path class="st0" d="M1748.47,1512.27c3-0.03,5.28,2.08,5.3,4.93c0.03,2.91-2.24,5.14-5.15,5.06c-2.79-0.08-5.08-2.46-5.07-5.27
		C1743.57,1514.25,1745.6,1512.3,1748.47,1512.27z"/>
	<path class="st0" d="M1368.73,993.15c-2.97-0.06-4.87-2.22-4.75-5.39c0.11-2.94,1.71-4.72,4.26-4.75c3.08-0.03,5.48,2.37,5.43,5.43
		C1373.63,991.19,1371.51,993.2,1368.73,993.15z"/>
	<path class="st0" d="M1340.39,927.6c0.01-2.7,1.8-4.4,4.57-4.32c2.92,0.08,4.98,2,4.99,4.66c0.01,2.77-2.08,4.76-4.9,4.66
		C1342.32,932.49,1340.38,930.41,1340.39,927.6z"/>
</g>
</svg>
