<?xml version="1.0" encoding="utf-8"?>
<!-- Generator: Adobe Illustrator 23.0.2, SVG Export Plug-In . SVG Version: 6.00 Build 0)  -->
<svg version="1.1" id="play_xA0_Image_1_" xmlns="http://www.w3.org/2000/svg" xmlns:xlink="http://www.w3.org/1999/xlink" x="0px"
	 y="0px" viewBox="0 0 2223.6 2409.84" style="enable-background:new 0 0 2223.6 2409.84;" xml:space="preserve">
<style type="text/css">
	.st0{fill:#FFFFFF;}
</style>
<g>
	<path d="M1714.47,1398.39c-3.24-0.33-6.28-0.55-9.29-0.98c-3.34-0.48-5.99,0.47-7.96,3.24c-0.19,0.26-0.41,0.5-0.57,0.77
		c-2.16,3.58-5.3,4.92-9.38,4.12c-0.63-0.12-1.27-0.14-1.91-0.21c-2.93-0.29-5.35,0.57-7.11,3.05c-0.74,1.04-1.54,2.06-2.46,2.94
		c-0.9,0.88-1.88,1.83-3.01,2.29c-2.51,1.02-4.29,2.75-5.63,5c-1.99,3.32-4.88,4.41-8.58,3.6c-0.31-0.07-0.64-0.07-0.95-0.16
		c-3.74-1.1-6.59,0.15-8.69,3.31c-1.27,1.91-2.89,3.39-4.87,4.53c-2.24,1.29-4.22,2.9-5.64,5.1c-1.85,2.86-4.58,3.82-7.83,3.72
		c-1.44-0.05-2.88-0.13-4.31-0.13c-2.38,0-4.35,0.92-5.82,2.83c-0.29,0.38-0.63,0.73-0.87,1.14c-2.06,3.49-5.21,4.47-9.02,3.99
		c-0.48-0.06-0.96-0.05-1.43-0.14c-3.75-0.72-6.58,0.65-8.6,3.81c-1.24,1.94-2.9,3.37-4.98,4.37c-2.21,1.07-3.95,2.66-5.26,4.77
		c-2.08,3.36-5.07,4.69-9.01,3.96c-1.24-0.23-2.55-0.27-3.81-0.19c-2.16,0.14-4.08,0.97-5.37,2.77c-2.09,2.9-4.72,5.15-7.7,7.11
		c-1.29,0.85-2.31,2.2-3.24,3.48c-1.99,2.75-4.61,4.12-7.89,3.3c-5.04-1.26-8.77,0.2-11.45,4.6c-0.95,1.56-2.38,2.55-4.09,3.19
		c-2.19,0.81-3.77,2.34-5.08,4.22c-1.66,2.38-3.53,4.49-6.36,5.65c-1.1,0.45-1.96,1.57-2.83,2.49c-0.88,0.92-1.59,2-2.44,2.95
		c-1.37,1.53-3.12,2.19-5.17,1.99c-1.43-0.15-2.87-0.29-4.28-0.53c-2.81-0.47-5.02,0.5-6.78,2.65c-0.2,0.25-0.42,0.49-0.58,0.77
		c-2.27,3.9-5.6,5.53-10.09,4.77c-0.78-0.13-1.6-0.02-2.4-0.07c-2.43-0.14-4.45,0.72-5.83,2.69c-1.97,2.83-4.35,4.96-7.6,6.34
		c-1.47,0.62-2.74,2.24-3.59,3.7c-1.98,3.4-4.87,4.59-8.51,3.86c-4.97-0.99-8.74,0.13-11.26,4.89c-1.29,2.44-3.81,3.29-6.57,3.16
		c-1.6-0.08-3.19-0.21-4.79-0.28c-2.59-0.1-4.71,0.87-6.19,3.01c-1.86,2.68-4.17,4.77-7.06,6.34c-1.21,0.66-2.12,1.9-3.09,2.95
		c-0.87,0.93-1.59,2.01-2.47,2.92c-1.17,1.21-2.65,1.76-4.36,1.57c-0.95-0.1-1.93-0.16-2.85-0.4c-3.97-1.06-6.9,0.46-9.09,3.67
		c-1.39,2.04-3.07,3.63-5.34,4.65c-2.25,1.01-3.91,2.77-5.31,4.75c-1.13,1.6-2.38,3.04-4.27,3.73c-2.05,0.75-3.52,2.14-4.68,3.94
		c-0.34,0.54-0.78,1.01-1.15,1.53c-1.85,2.61-4.37,3.84-7.49,3.08c-4.98-1.2-8.68,0.15-11.51,4.55c-0.98,1.52-2.82,2.56-4.4,3.6
		c-1.76,1.15-3.32,2.41-4.64,4.08c-1.07,1.34-2.42,2.59-3.89,3.45c-2.4,1.41-4.54,3.08-5.97,5.43c-2.05,3.36-5.02,4.21-8.64,3.75
		c-0.48-0.06-0.95-0.13-1.42-0.22c-3.73-0.69-6.59,0.53-8.55,3.82c-0.49,0.82-1.06,1.6-1.67,2.34c-1.3,1.58-3.01,2.37-5.06,2.25
		c-1.59-0.09-3.2-0.19-4.77-0.49c-2.88-0.55-4.98,0.59-6.7,2.75c-0.5,0.62-0.97,1.27-1.42,1.93c-1.11,1.61-2.46,2.94-4.29,3.72
		c-2.14,0.91-3.76,2.44-4.99,4.35c-2.05,3.2-5.02,4.27-8.65,3.96c-0.8-0.07-1.6-0.11-2.4-0.13c-3.08-0.07-5.63,0.97-7.5,3.5
		c-0.57,0.77-1.16,1.53-1.8,2.24c-1.49,1.63-3.35,2.42-5.57,2.26c-1.44-0.1-2.88-0.17-4.31-0.32c-2.8-0.3-5.09,0.64-6.66,2.94
		c-1.66,2.44-3.6,4.4-6.41,5.56c-1.11,0.46-1.98,1.58-2.85,2.49c-0.99,1.04-1.86,2.19-2.79,3.3c-1.32,1.58-3.02,2.34-5.06,2.29
		c-1.6-0.04-3.19-0.11-4.79-0.2c-3.29-0.19-5.98,0.78-7.71,3.78c-0.48,0.82-1.07,1.59-1.7,2.32c-1.45,1.69-3.28,2.52-5.53,2.24
		c-1.43-0.17-2.86-0.33-4.28-0.55c-2.83-0.43-5,0.61-6.62,2.92c-0.37,0.52-0.73,1.05-1.1,1.58c-2.05,2.89-4.9,3.97-8.35,3.65
		c-0.8-0.07-1.58-0.25-2.38-0.31c-3.28-0.25-5.99,0.76-7.84,3.61c-1.42,2.19-3.39,3.77-5.53,5.23c-1.43,0.97-2.77,2.19-3.86,3.52
		c-1.54,1.89-3.2,3.57-5.4,4.65c-2.06,1.01-3.73,2.47-4.97,4.4c-2.16,3.38-5.23,4.51-9.09,3.74c-0.47-0.09-0.96-0.09-1.43-0.17
		c-3.54-0.55-6.19,0.58-8.06,3.78c-1.3,2.21-3.08,4.01-5.6,5.06c-1.26,0.53-2.3,1.67-3.34,2.63c-0.69,0.65-1.19,1.5-1.82,2.23
		c-1.55,1.81-3.47,2.75-5.91,2.57c-3.19-0.23-6.39-0.37-9.58-0.58c-1.12-0.07-2.24-0.14-3.34-0.32c-3.17-0.52-5.68,0.5-7.48,3.16
		c-1.65,2.44-3.8,4.17-6.44,5.56c-1.61,0.84-2.95,2.47-3.99,4.03c-2.03,3.02-4.71,4.16-8.22,3.64c-0.16-0.02-0.32-0.01-0.48-0.04
		c-4.66-1.04-8.12,0.53-10.51,4.67c-0.9,1.56-2.34,2.61-3.97,3.37c-2.22,1.04-4.06,2.51-5.44,4.57c-2.17,3.22-5.19,4.6-9.08,4.07
		c-0.94-0.13-1.92-0.04-2.88-0.07c-2.58-0.07-4.71,0.85-6.21,2.99c-1.69,2.4-3.75,4.24-6.38,5.66c-1.6,0.86-2.95,2.45-4.02,3.98
		c-2.06,2.95-4.61,4.33-8.2,3.47c-0.62-0.15-1.27-0.17-1.9-0.29c-3.14-0.61-5.77,0.18-7.5,2.97c-2.8,4.52-6.61,6.11-11.85,4.89
		c-3.02-0.7-5.63,0.34-7.4,3.17c-1.71,2.74-3.84,5.07-6.97,6.37c-0.97,0.4-1.79,1.34-2.48,2.2c-1.92,2.41-4.2,4.34-6.86,5.91
		c-1.33,0.79-2.41,2.04-3.51,3.17c-0.66,0.68-1.11,1.57-1.73,2.29c-1.7,1.96-3.8,2.85-6.43,2.26c-0.93-0.21-1.89-0.36-2.83-0.5
		c-2.78-0.43-5.15,0.41-6.74,2.71c-1.86,2.7-4.13,4.72-7.05,6.29c-1.73,0.93-3.1,2.76-4.28,4.43c-1.57,2.2-3.55,3.1-6.15,2.95
		c-1.44-0.08-2.88-0.09-4.31-0.19c-2.94-0.21-5.34,0.74-7.08,3.19c-0.19,0.26-0.41,0.5-0.57,0.77c-2.19,3.53-5.21,4.85-9.39,4.06
		c-3.13-0.59-6.36-0.62-9.54-0.93c-3.92-0.38-7.24,0.33-9.42,4.14c-2.09,3.66-5.5,4.68-9.5,3.71c-3.77-0.91-6.61,0.41-8.66,3.53
		c-1.27,1.92-2.87,3.4-4.86,4.52c-2.12,1.19-3.89,2.79-5.27,4.81c-1.91,2.8-4.7,3.69-7.93,3.55c-0.64-0.03-1.27-0.15-1.91-0.22
		c-3.47-0.36-6.33,0.67-8.27,3.69c-1.43,2.22-3.27,3.92-5.77,4.84c-1.72,0.64-2.96,1.84-3.98,3.33c-0.63,0.92-1.34,1.79-2.07,2.63
		c-1.36,1.56-3.11,2.21-5.15,2.01c-1.59-0.15-3.17-0.41-4.77-0.56c-2.59-0.24-4.78,0.6-6.24,2.79c-1.64,2.45-3.77,4.24-6.22,5.87
		c-1.69,1.12-3.11,2.76-4.35,4.39c-1.93,2.56-4.39,3.8-7.48,3.31c-5.31-0.84-9.36,0.7-12.3,5.37c-0.79,1.26-2.39,2.08-3.73,2.92
		c-1.79,1.12-3.42,2.37-4.59,4.15c-1.08,1.64-2.48,2.9-4.26,3.76c-2.36,1.14-4.25,2.87-5.74,4.99c-2.06,2.95-4.84,4.01-8.32,3.55
		c-0.79-0.1-1.6-0.1-2.39-0.14c-3.3-0.19-5.97,0.81-7.65,3.86c-0.38,0.69-0.91,1.31-1.43,1.92c-1.33,1.57-3.04,2.32-5.1,2.14
		c-1.43-0.13-2.87-0.28-4.28-0.54c-2.24-0.42-4.12,0.2-5.67,1.83c-0.88,0.92-1.61,2-2.51,2.89c-1.12,1.11-2.24,2.3-3.56,3.12
		c-2.48,1.53-4.76,3.18-6.4,5.67c-1.54,2.33-3.9,3.23-6.6,3.27c-1.6,0.02-3.2-0.08-4.8-0.1c-2.21-0.02-4.09,0.71-5.42,2.55
		c-2,2.77-4.38,5.02-7.62,6.37c-1.09,0.45-1.91,1.63-2.74,2.57c-0.73,0.84-1.25,1.85-1.94,2.73c-1.39,1.79-3.25,2.54-5.5,2.25
		c-1.27-0.16-2.53-0.38-3.79-0.59c-2.97-0.49-5.35,0.47-7.12,2.91c-0.47,0.65-0.88,1.33-1.35,1.98c-1.86,2.56-4.4,3.61-7.52,3.27
		c-0.64-0.07-1.26-0.19-1.9-0.28c-3.48-0.5-6.37,0.52-8.35,3.48c-1.56,2.32-3.49,4.15-5.97,5.42c-1.76,0.9-3.08,2.26-4.11,3.92
		c-1.9,3.06-4.59,4.32-8.17,3.57c-0.62-0.13-1.27-0.14-1.9-0.26c-3.17-0.58-5.67,0.53-7.55,3.06c-1.74,2.34-3.71,4.26-6.52,5.43
		c-1.35,0.56-2.38,2.07-3.34,3.32c-1.67,2.19-3.44,4.12-6,5.37c-1.37,0.67-2.46,1.95-3.6,3.05c-0.68,0.66-1.19,1.5-1.81,2.23
		c-1.33,1.55-3.01,2.34-5.08,2.22c-1.6-0.1-3.2-0.15-4.79-0.3c-2.62-0.24-4.81,0.62-6.24,2.8c-1.54,2.34-3.47,4.1-5.97,5.38
		c-2.02,1.04-3.59,2.68-4.79,4.62c-1.84,2.97-4.65,3.71-7.87,3.51c-1.11-0.07-2.22-0.32-3.33-0.39c-2.75-0.16-5.05,0.72-6.62,3.08
		c-1.8,2.72-4.04,4.86-6.98,6.41c-1.32,0.7-2.35,2.14-3.23,3.44c-2.12,3.12-4.81,4.25-8.63,3.67c-4.09-0.62-8.28-0.63-12.43-0.89
		c-2.6-0.16-4.68,0.75-6.12,3.01c-1.58,2.48-3.68,4.34-6.33,5.71c-1.22,0.63-2.17,1.83-3.15,2.86c-0.76,0.81-1.32,1.81-2.07,2.64
		c-1.37,1.52-3.08,2.24-5.16,1.94c-1.27-0.18-2.54-0.32-3.8-0.52c-2.79-0.46-5.13,0.38-6.76,2.65c-1.81,2.52-4.04,4.38-6.76,5.93
		c-1.71,0.98-3.08,2.79-4.22,4.49c-1.72,2.56-3.96,3.57-6.92,3.38c-1.44-0.09-2.88-0.13-4.31-0.17c-2.75-0.06-5,0.84-6.52,3.27
		c-1.38,2.21-3.23,3.98-5.53,5.21c-1.88,1.01-3.4,2.34-4.61,4.09c-2.09,3.04-4.89,4.51-8.66,3.66c-0.62-0.14-1.27-0.09-1.91-0.16
		c-3.15-0.32-5.64,0.77-7.39,3.45c-0.35,0.54-0.71,1.07-1.09,1.58c-1.45,1.92-3.36,2.93-5.8,2.76c-1.27-0.09-2.55-0.21-3.82-0.37
		c-3.16-0.39-5.9,0.62-7.45,3.31c-2.56,4.43-6.03,5.81-10.87,4.5c-3.56-0.97-6.27,0.34-8.03,3.58c-1.27,2.32-2.96,4.05-5.57,4.99
		c-1.27,0.46-2.32,1.63-3.38,2.59c-0.7,0.64-1.26,1.45-1.83,2.22c-1.8,2.43-4.25,3.27-7.16,2.96c-0.64-0.07-1.27-0.19-1.9-0.25
		c-3.43-0.29-6.32,0.68-8.36,3.61c-0.09,0.13-0.19,0.26-0.27,0.39c-1.99,3.23-4.77,4.6-8.55,3.68c-0.62-0.15-1.27-0.13-1.9-0.23
		c-2.79-0.43-5.08,0.45-6.74,2.71c-1.84,2.5-4.09,4.4-6.87,5.83c-1.22,0.62-2.17,1.87-3.06,2.97c-1,1.24-1.93,2.58-2.64,4
		c-1.02,2.02-2.63,2.64-4.72,2.53c-0.8-0.04-1.6-0.01-2.4-0.08c-6.69-0.55-13.38-1.15-20.08-1.68c-4.94-0.39-9.89-0.71-14.84-1.06
		c-1.28-0.09-2.56-0.12-3.82-0.3c-1.82-0.26-3.32-1.1-4.32-2.71c-0.76-1.22-1.58-2.41-2.3-3.65c-1.46-2.53-3.19-4.77-5.8-6.24
		c-2.51-1.42-3.28-3.8-3.24-6.52c0.01-0.79,0.14-1.59,0.3-2.37c0.8-3.83-0.67-6.53-4.07-8.31c-0.71-0.37-1.39-0.79-2.06-1.23
		c-3.26-2.11-3.63-7.03,0.72-8.75c0.89-0.35,1.78-0.72,2.67-1.08c2.49-1.02,3.7-2.93,3.86-5.56c0.07-1.12,0.09-2.24,0.11-3.36
		c0.17-8.16,0.31-16.32,0.52-24.47c0.07-2.55,0.32-5.1,0.47-7.66c0.1-1.76,0.22-3.51,0.26-5.27c0.06-2.45-0.99-4.31-3.14-5.53
		c-1.11-0.63-2.25-1.22-3.32-1.92c-1.77-1.15-2.5-2.84-2.34-4.93c0.12-1.55,0.77-2.77,2.2-3.47c1.01-0.49,2.05-0.91,3.09-1.32
		c2.86-1.14,4.14-3.37,4.41-6.31c0.07-0.79,0.05-1.6,0.07-2.4c0.29-11.19,0.54-22.39,0.9-33.58c0.23-7.03,0.55-14.06,0.99-21.09
		c0.25-3.91-0.9-6.91-4.51-8.74c-0.28-0.14-0.54-0.34-0.82-0.5c-3.14-1.76-4.44-4.49-4.1-8.01c1.38-14.02,1.23-28.11,1.86-42.17
		c0.18-4.15,0.03-8.32,0.04-12.47c0-1.28-0.07-2.57,0.08-3.83c0.31-2.55,1.52-4.52,4.01-5.53c1.04-0.42,2.06-0.89,3.09-1.31
		c3.8-1.57,3.63-6.16,1.02-8.27c-0.86-0.7-1.82-1.34-2.83-1.79c-3.63-1.59-4.72-4.42-4.44-8.17c0.43-5.74,0.75-11.49,1-17.24
		c0.3-6.71,0.48-13.43,0.7-20.14c0.34-10.87,0.63-21.74,1.02-32.61c0.25-6.87,0.65-13.74,0.97-20.61c0.08-1.76,0.16-3.52,0.13-5.27
		c-0.03-2.27-1.1-3.93-3.12-5.02c-1.26-0.68-2.52-1.39-3.66-2.25c-2.76-2.08-3.28-6.72,1.24-8.33c1.05-0.37,2.12-0.72,3.17-1.1
		c3.66-1.32,3.57-5.92,1.08-7.79c-0.89-0.67-1.92-1.13-2.9-1.67c-3.07-1.68-4.65-4.1-4.66-7.75c-0.01-5.5,0.98-7.29,6.1-9.6
		c0.15-0.07,0.3-0.11,0.45-0.17c2.11-0.8,3.57-2.16,3.71-4.53c0.14-2.38-1.17-3.88-3.19-4.9c-0.29-0.14-0.56-0.31-0.86-0.43
		c-3.81-1.52-5.13-4.58-5.15-8.4c-0.01-1.27,0.16-2.55,0.35-3.81c0.41-2.73,1.79-4.89,4.43-5.81c4.99-1.74,6.2-5.49,5.99-10.24
		c-0.11-2.55,0.06-5.11,0.09-7.67c0.01-1.12,0.02-2.24,0-3.36c-0.06-2.75-1-5.08-3.6-6.31c-5.02-2.38-6.07-6.46-5.51-11.56
		c0.65-5.87,1.32-11.76,0.62-17.7c-0.52-4.37,1.33-7.52,5.5-9.01c3.71-1.33,5.14-4.14,5.41-7.72c0.3-3.97-0.17-7.73-4.02-10.09
		c-0.41-0.25-0.82-0.51-1.21-0.77c-3.01-2.04-4.61-4.77-4.39-8.5c0.22-3.83,0.33-7.67,0.51-11.5c0.19-3.99,0.46-7.98,0.6-11.97
		c0.34-9.27,0.62-18.55,0.92-27.82c0.04-1.28,0.12-2.56,0.16-3.84c0.33-11.03,0.65-22.06,0.97-33.09
		c0.39-13.27,0.56-26.55,1.27-39.81c0.42-7.82,0.02-15.69,1.32-23.46c0.21-1.25,0.18-2.56,0.06-3.83c-0.24-2.53-1.43-4.55-3.57-5.96
		c-0.67-0.44-1.4-0.76-2.1-1.17c-2.58-1.49-3.8-3.81-3.94-6.72c-0.05-1.11,0-2.24,0.13-3.35c1.09-9.56,0.99-19.16,1.23-28.75
		c0.16-6.39,0.29-12.78,0.44-19.18c0.08-3.5,1.4-6.28,4.84-7.55c4.73-1.74,6.01-5.43,5.78-9.94c-0.46-9.28,0.29-18.53,0.82-27.78
		c0.05-0.96,0.14-1.92,0.06-2.87c-0.26-3.03-1.34-5.56-4.3-6.98c-3.94-1.9-5.44-5.2-5.15-9.44c0.04-0.64-0.02-1.29,0.1-1.92
		c1.19-6.34,0.77-12.76,0.95-19.14c0.25-8.47,0.66-16.94,0.92-25.41c0.42-13.43,0.76-26.86,1.15-40.28
		c0.36-12.31,0.69-24.62,1.15-36.93c0.68-18.06,1.48-36.11,2.19-54.17c0.19-4.95,0.22-9.92,0.36-14.87
		c0.31-11.03,0.6-22.06,0.99-33.09c0.53-15.34,1.14-30.68,1.72-46.03c0.05-1.28,0.13-2.56,0.17-3.84
		c0.44-16.63,0.79-33.26,1.33-49.88c0.22-6.87,0.87-13.72,1.23-20.59c0.11-2.06,0.11-4.17-0.25-6.19c-0.44-2.5-1.88-4.36-4.57-4.99
		c-5.51-1.29-5.51-3.19-5.36-7.97c0.34-11.35,0.65-22.7,1.02-34.05c0.06-1.75,0.26-3.51,0.61-5.22c0.39-1.91,1.59-3.08,3.69-3.11
		c1.93-0.03,3.88-0.02,5.31-1.65c1.59-1.8,1.91-4,1.94-6.27c0.02-1.6-0.12-3.2-0.11-4.8c0.02-7.68-0.08-15.36,0.95-23
		c0.27-2.03,0.19-4.16-0.08-6.2c-0.35-2.59-1.91-4.34-4.57-4.94c-0.78-0.18-1.56-0.35-2.34-0.51c-2.22-0.47-3.2-1.94-3.3-4.1
		c-0.04-0.96-0.09-1.92-0.02-2.88c0.29-3.78,1.16-4.63,4.94-4.99c4.62-0.43,6.16-1.88,6.53-6.56c0.16-2.05,0.11-4.17-0.25-6.19
		c-0.44-2.51-1.97-4.22-4.59-4.99c-5.18-1.52-5.59-2.08-5.43-7.32c0.42-14.07,0.9-28.13,1.36-42.2c0.26-7.99,0.57-15.98,0.8-23.98
		c0.12-4.32,0.17-6.47,5.83-6.74c2.8-0.13,4.25-1.93,4.95-4.47c0.08-0.31,0.16-0.63,0.18-0.94c0.28-5.26,0.73-10.52,0.78-15.78
		c0.04-4.31-1.62-6.05-6.05-7.33c-3.47-1-4.18-1.76-4.26-5.36c-0.08-4.16-0.04-8.32,0.09-12.48c0.39-12.63,0.82-25.25,1.27-37.88
		c0.36-10.07,0.79-20.13,1.12-30.2c0.35-10.55,0.62-21.1,0.92-31.65c0.21-7.51,0.36-15.03,0.64-22.54
		c0.36-9.91,0.82-19.81,1.21-29.72c0.12-3.04,0.16-6.08,0.22-9.11c0.03-1.6-0.04-3.2,0.03-4.8c0.39-9.91,0.86-19.81,1.19-29.72
		c0.34-10.23,0.56-20.46,0.83-30.69c0.03-0.96,0-1.92,0.04-2.88c0.4-10.07,0.86-20.13,1.21-30.2c0.36-10.39,0.57-20.78,0.9-31.17
		c0.35-10.71,0.8-21.42,1.17-32.12c0.35-10.23,0.65-20.46,0.98-30.69c0.37-11.19,0.74-22.38,1.15-33.57
		c0.05-1.43,0.22-2.88,0.52-4.28c0.47-2.16,1.61-3.01,3.77-2.8c2.07,0.19,4.11,0.65,6.17,0.85c8.76,0.83,17.52,1.59,26.28,2.4
		c2.55,0.24,5.08,0.6,7.63,0.8c2.39,0.19,4.79,0.21,7.19,0.34c2.78,0.15,4.96-0.85,6.56-3.18c1.92-2.81,4.24-5.12,7.47-6.54
		c1.21-0.53,2.07-1.92,2.98-3.01c0.82-0.98,1.43-2.13,2.22-3.13c1.39-1.75,3.26-2.55,5.49-2.37c1.43,0.12,2.86,0.48,4.29,0.49
		c3.26,0.03,5.37,1.74,6.91,4.4c0.4,0.69,0.84,1.37,1.19,2.08c0.92,1.92,2.19,3.51,4.05,4.62c1.99,1.19,3.34,2.94,4.31,5.02
		c0.27,0.58,0.57,1.14,0.86,1.72c1.48,2.98,3.99,4.49,7.18,4.98c1.26,0.19,2.55,0.2,3.82,0.31c3.1,0.28,5.58,1.73,6.92,4.51
		c1.43,2.98,3.5,5.33,5.93,7.44c1.71,1.5,3.05,3.24,4.08,5.27c1.82,3.6,4.63,5.47,8.86,5.34c2.7-0.09,5.41,0.45,8.12,0.67
		c3.99,0.31,7.97,0.68,11.96,0.86c3.87,0.18,6.95,1.68,8.38,5.33c1.98,5.07,5.45,7.17,10.81,6.61c3.63-0.38,6.09,1.44,7.63,4.66
		c0.34,0.72,0.81,1.39,1.11,2.13c1.46,3.55,4.34,4.98,7.92,5.27c2.55,0.2,5.11,0.23,7.67,0.36c1.28,0.06,2.56,0.11,3.83,0.28
		c3.88,0.51,6.96,2.22,8.74,5.9c0.48,1,1.06,1.98,1.72,2.88c1.29,1.76,2.99,2.86,5.24,2.97c1.44,0.07,2.88,0.17,4.31,0.22
		c3,0.1,5.12,1.6,6.59,4.12c0.4,0.69,0.77,1.4,1.1,2.13c1.63,3.61,4.63,5.15,8.38,5.48c3.5,0.31,7.01,0.68,10.52,0.8
		c4.24,0.15,7.34,1.91,9.21,5.76c0.42,0.86,0.86,1.72,1.37,2.53c1.26,2.04,3.11,3.18,5.5,3.38c1.12,0.09,2.24,0.18,3.35,0.15
		c3.6-0.1,6.08,1.59,7.74,4.68c0.45,0.85,0.95,1.67,1.41,2.51c1.32,2.42,3.41,3.78,6.06,4.26c1.57,0.29,3.17,0.42,4.76,0.6
		c3.08,0.35,5.48,1.66,6.71,4.67c0.06,0.15,0.16,0.28,0.22,0.43c1.84,4.53,5.14,6.79,10.09,6.47c3.99-0.26,6.75,1.56,8.48,5.05
		c1.31,2.64,3.16,4.75,5.57,6.47c1.84,1.31,3.22,3.08,4.19,5.17c1.8,3.86,4.81,5.83,9.13,5.79c1.11-0.01,2.23,0.19,3.32,0.43
		c2.13,0.47,3.8,1.65,4.91,3.55c0.56,0.97,1.1,1.95,1.57,2.97c1.52,3.23,4.1,4.79,7.6,4.94c1.28,0.05,2.56,0.11,3.84,0.12
		c2.48,0.01,4.26,1.19,5.53,3.23c0.51,0.81,1,1.65,1.38,2.52c1.73,3.93,4.68,5.94,9,5.94c1.11,0,2.23,0.16,3.34,0.33
		c2.36,0.36,4.17,1.49,5.26,3.7c0.56,1.14,1.32,2.19,1.96,3.3c1.28,2.25,3.22,3.51,5.76,3.84c1.42,0.19,2.86,0.29,4.29,0.42
		c3.26,0.29,5.87,1.73,7.3,4.72c1.35,2.82,3.32,5.08,5.6,7.11c1.7,1.51,3.01,3.26,4,5.32c1.85,3.84,4.99,5.65,9.25,5.67
		c2.72,0.01,5.44,0.15,8.15,0.34c1.43,0.1,2.85,0.36,4.24,0.7c2.79,0.68,4.9,2.27,6.18,4.89c0.42,0.86,0.87,1.71,1.37,2.53
		c1.26,2.04,3.05,3.23,5.49,3.36c1.44,0.08,2.87,0.17,4.31,0.24c2.97,0.15,5.17,1.48,6.54,4.15c0.44,0.85,0.93,1.68,1.35,2.54
		c1.65,3.34,4.41,4.91,8.05,5.16c1.43,0.1,2.87,0.23,4.29,0.46c2.18,0.36,3.84,1.52,4.92,3.46c0.62,1.12,1.27,2.23,1.82,3.38
		c1.31,2.73,3.53,4.03,6.47,4.24c1.12,0.08,2.23,0.19,3.35,0.23c3.17,0.12,5.43,1.7,7.03,4.33c0.66,1.09,1.23,2.25,1.89,3.34
		c1.41,2.37,3.47,3.7,6.27,3.81c1.28,0.05,2.56,0.11,3.84,0.16c2.98,0.11,5.12,1.61,6.67,4.06c0.34,0.54,0.68,1.09,0.92,1.68
		c1.69,4.1,5.02,5.53,9.15,5.79c3.51,0.22,7.01,0.65,10.52,0.76c3.18,0.11,5.48,1.55,7.18,4.1c0.71,1.06,1.26,2.23,1.94,3.31
		c1.62,2.61,3.83,4.2,7.03,4.29c6.87,0.19,8.15,0.71,11.57,7.29c0.7,1.36,1.86,2.66,3.12,3.51c1.93,1.29,3.4,2.84,4.47,4.87
		c1.65,3.13,3.53,6.05,6.73,7.94c1.02,0.6,1.66,1.9,2.36,2.95c0.61,0.93,1.03,1.99,1.6,2.95c1.32,2.21,3.21,3.45,5.85,3.63
		c6.22,0.41,12.45,0.85,18.66,1.37c2.05,0.17,4.12,0.5,6.12,1c2.27,0.56,4.04,1.97,5.04,4.12c1.45,3.12,3.49,5.65,6.3,7.7
		c1.23,0.9,2.22,2.32,2.92,3.71c1.19,2.33,2.63,4.35,4.74,5.92c2.22,1.66,3.8,3.87,5,6.35c1.56,3.22,4.12,4.77,7.69,4.69
		c0.48-0.01,0.96,0.05,1.44,0.03c4.1-0.12,7.13,1.44,8.67,5.43c0.28,0.74,0.76,1.4,1.15,2.1c1.09,1.94,2.73,3.12,4.91,3.48
		c1.42,0.23,2.85,0.37,4.28,0.5c3.59,0.33,6.47,1.79,8,5.22c1.14,2.55,2.9,4.58,5.01,6.35c1.86,1.55,3.45,3.27,4.49,5.53
		c1.53,3.34,4.16,5.18,7.94,5.18c0.48,0,0.96,0.06,1.44,0.08c4.01,0.22,7.11,1.84,8.64,5.73c1.47,3.75,4.38,5.31,8.18,5.62
		c3.82,0.31,7.64,0.81,11.47,0.91c3.77,0.11,6.5,1.61,7.96,5.07c1.09,2.6,2.73,4.64,5.02,6.26c1.99,1.41,3.4,3.36,4.49,5.54
		c1.74,3.47,4.54,5.25,8.43,5.35c0.96,0.03,1.92,0.14,2.86,0.3c2.85,0.51,5.24,1.87,6.29,4.63c1.85,4.87,5.24,6.84,10.36,6.75
		c3.34-0.06,6.68,0.67,10.04,0.83c3.39,0.16,5.72,1.76,7.29,4.65c0.15,0.28,0.33,0.55,0.45,0.85c1.6,3.81,4.63,5.54,8.59,5.96
		c0.95,0.1,1.9,0.23,2.85,0.38c3.06,0.47,5.36,1.98,6.63,4.88c0.32,0.73,0.7,1.44,1.08,2.14c1.23,2.29,3.1,3.57,5.72,3.79
		c4.3,0.36,8.6,0.82,12.91,1.12c6.9,0.49,9.07,3.04,8.29,9.85c-0.16,1.43-0.3,2.87-0.33,4.3c-0.08,3.1,1.5,5.21,4.29,6.27
		c1.46,0.56,3.1,0.77,4.67,0.92c3.18,0.29,6.38,0.5,9.57,0.61c4.07,0.14,7.04,1.98,8.85,5.56c1.18,2.34,2.78,4.3,4.8,5.9
		c1.92,1.52,3.43,3.28,4.46,5.54c1.6,3.54,4.48,5.27,8.35,5.44c3.03,0.14,6.06,0.49,9.1,0.53c4.56,0.06,8.1,1.57,9.94,6.06
		c0.93,2.28,2.51,4.1,4.57,5.43c1.96,1.26,3.3,2.98,4.25,5.07c0.33,0.73,0.73,1.43,1.16,2.1c1.38,2.16,3.31,3.41,5.92,3.55
		c1.6,0.08,3.2,0.17,4.79,0.31c2.41,0.21,4.21,1.42,5.43,3.48c0.57,0.96,0.96,2.05,1.63,2.93c1.04,1.39,2.07,2.88,3.41,3.94
		c1.93,1.54,3.47,3.28,4.54,5.48c0.35,0.72,0.79,1.39,1.2,2.07c1.43,2.38,3.49,3.68,6.29,3.76c0.96,0.03,1.92,0.1,2.88,0.09
		c3.21-0.04,5.47,1.53,7.08,4.16c0.67,1.09,1.18,2.27,1.85,3.36c1.51,2.49,3.63,3.99,6.66,3.99c1.12,0,2.24,0.13,3.36,0.1
		c2.91-0.08,4.83,1.39,6.16,3.81c0.54,0.98,1.09,1.96,1.54,2.98c1.06,2.42,2.97,3.72,5.48,4.17c1.57,0.28,3.17,0.38,4.75,0.55
		c3.08,0.31,5.49,1.63,6.83,4.55c0.13,0.29,0.32,0.56,0.44,0.85c1.72,4.53,5.11,6.34,9.8,5.99c4.05-0.3,6.68,1.58,8.27,5.21
		c0.91,2.08,2.25,3.82,4.17,5.15c2.13,1.48,3.77,3.46,4.82,5.86c1.59,3.63,4.45,5.29,8.28,5.52c0.8,0.05,1.6,0.09,2.39,0.19
		c2.88,0.35,5.26,1.63,6.54,4.28c1.44,2.96,3.56,5.29,6.04,7.35c1.64,1.36,2.83,3.03,3.75,4.92c1.62,3.32,4.21,5.03,7.99,5.13
		c3.35,0.08,6.7,0.45,10.04,0.76c1.27,0.12,2.53,0.37,3.78,0.64c1.99,0.43,3.47,1.56,4.42,3.38c0.59,1.13,1.11,2.33,1.86,3.35
		c1.03,1.4,2.06,2.92,3.43,3.92c2.16,1.57,3.71,3.47,4.76,5.88c0.26,0.58,0.59,1.14,0.93,1.68c1.18,1.89,2.84,3.01,5.1,3.13
		c1.44,0.07,2.88,0.14,4.32,0.14c2.67-0.01,4.56,1.28,5.92,3.46c0.68,1.08,1.21,2.26,1.89,3.34c1.75,2.73,4.2,4.34,7.5,4.49
		c0.8,0.04,1.6,0.04,2.4,0.11c3.27,0.29,5.85,1.75,7.19,4.82c1.26,2.88,3.17,5.13,5.73,6.92c1.76,1.23,2.81,3.05,3.62,4.99
		c1.48,3.54,4.23,5.26,7.93,5.05c5.32-0.31,8.88,1.68,10.78,6.78c0.97,2.6,3.24,3.86,5.97,4.24c1.58,0.22,3.18,0.35,4.75,0.64
		c2.84,0.52,5.04,1.93,6.18,4.73c0.36,0.88,0.86,1.72,1.39,2.52c1.3,1.96,3.05,3.22,5.49,3.41c4.14,0.33,8.28,0.98,12.42,1.02
		c3.89,0.03,6.4,1.68,7.88,5.1c0.98,2.26,2.36,4.14,4.38,5.58c2,1.42,3.51,3.32,4.44,5.56c1.48,3.56,4.21,5.05,7.89,5.18
		c0.64,0.02,1.27,0.13,1.91,0.15c3.72,0.12,6.34,1.92,7.98,5.22c0.29,0.57,0.59,1.14,0.85,1.72c1.29,2.94,3.48,4.47,6.75,4.43
		c1.28-0.02,2.56,0.12,3.83,0.19c2.8,0.16,4.82,1.54,6.1,4.01c0.52,0.99,1.06,1.97,1.56,2.98c1.24,2.55,3.36,3.78,6.09,4.04
		c1.27,0.12,2.56,0.09,3.83,0.23c3.06,0.33,5.47,1.69,6.9,4.52c0.14,0.29,0.34,0.55,0.44,0.85c1.61,4.66,5.01,6.36,9.73,5.87
		c3.48-0.36,5.78,1.34,7.39,4.25c0.31,0.56,0.6,1.13,0.91,1.69c1.91,3.51,4.67,5.62,8.85,5.47c0.64-0.02,1.28,0.05,1.92,0.11
		c2.94,0.26,5.27,1.57,6.44,4.31c1.29,3.05,3.23,5.4,5.9,7.36c1.34,0.99,2.29,2.65,3.13,4.17c1.26,2.29,2.72,4.29,4.97,5.72
		c1.65,1.05,2.81,2.59,3.65,4.36c0.41,0.87,0.82,1.74,1.27,2.58c1.15,2.14,2.9,3.35,5.37,3.44c1.44,0.05,2.88,0.1,4.32,0.15
		c2.99,0.12,5.14,1.56,6.51,4.19c0.37,0.71,0.7,1.44,1.1,2.13c1.72,3.01,4.34,4.66,7.79,4.84c3.19,0.17,6.39,0.28,9.59,0.3
		c4.26,0.03,7.35,1.85,9.22,5.7c0.42,0.86,0.86,1.72,1.37,2.53c1.27,2.04,3.06,3.21,5.53,3.24c1.44,0.02,2.88,0.08,4.31,0.17
		c2.23,0.15,3.95,1.22,5.12,3.11c0.67,1.09,1.15,2.3,1.9,3.33c0.93,1.27,1.84,2.7,3.11,3.54c2.24,1.47,3.81,3.39,4.97,5.71
		c1.23,2.47,2.74,4.62,5.16,6.16c1.15,0.73,1.92,2.08,2.78,3.21c0.47,0.63,0.81,1.38,1.13,2.11c1.54,3.52,4.28,5.14,8.03,4.78
		c4.79-0.46,7.96,1.37,9.75,5.9c1.37,3.46,4.05,5.24,7.86,5.18c0.8-0.01,1.59,0.11,2.39,0.19c3.29,0.31,5.75,1.79,7.05,4.95
		c0.3,0.74,0.7,1.44,1.09,2.13c1.1,1.92,2.72,3.15,4.92,3.47c1.58,0.23,3.18,0.39,4.77,0.41c3.05,0.04,5.13,1.55,6.58,4.09
		c0.64,1.11,1.12,2.31,1.77,3.41c1.21,2.04,2.95,3.33,5.4,3.51c1.59,0.12,3.18,0.32,4.78,0.41c2.67,0.14,4.48,1.49,5.65,3.82
		c0.29,0.57,0.64,1.11,0.88,1.71c1.4,3.58,4.22,5.04,7.85,5.32c3.51,0.27,7.02,0.51,10.53,0.79c3.83,0.3,7.65,0.66,11.47,0.94
		c2.62,0.19,4.54,1.39,5.74,3.73c0.29,0.57,0.58,1.14,0.82,1.73c1.4,3.51,4.07,5.2,7.77,5.43c0.8,0.05,1.59,0.13,2.39,0.25
		c3.37,0.5,6.04,1.92,7.38,5.31c1.46,3.69,4.31,5.41,8.23,5.47c0.64,0.01,1.27,0.13,1.91,0.15c3.18,0.11,5.73,1.57,6.89,4.42
		c2.06,5.06,5.65,6.93,10.92,6.73c2.85-0.11,5.74,0.38,8.6,0.68c6.49,0.68,8.72,3.31,8.18,9.83c-0.22,2.7-0.89,5.37-1.12,8.07
		c-0.95,11.32-1.76,22.64-2.71,33.96c-0.44,5.26-1.08,10.49-0.93,15.79c0.12,4.43-1.7,7.74-6.08,9.31
		c-1.88,0.67-3.28,1.93-4.38,3.57c-1.54,2.3-3.49,4.16-6.02,5.36c-1.95,0.92-3.41,2.35-4.53,4.16c-2,3.23-4.86,4.47-8.58,3.83
		c-0.79-0.14-1.6-0.14-2.37-0.33c-2.83-0.71-5.18,0.19-6.76,2.47c-1.96,2.84-4.36,4.97-7.35,6.69c-1.58,0.91-2.73,2.66-3.89,4.17
		c-1.49,1.94-3.08,3.56-5.49,4.44c-1.27,0.46-2.31,1.62-3.39,2.54c-0.48,0.4-0.87,0.95-1.21,1.48c-2.24,3.55-5.4,4.83-9.46,3.87
		c-4.07-0.97-7.14,0.29-9.5,3.79c-0.95,1.42-2.47,2.45-3.76,3.63c-0.35,0.32-0.78,0.57-1.21,0.78c-3.44,1.69-4.8,5.69-7.98,7.48
		c-3.17,1.78-5.82,3.9-7.81,6.89c-1.38,2.06-3.36,2.88-5.75,2.86c-1.6-0.01-3.2-0.07-4.79-0.16c-2.92-0.16-5.39,0.69-7.07,3.2
		c-1.65,2.45-3.9,4.15-6.42,5.65c-1.47,0.88-2.71,2.19-3.96,3.4c-0.92,0.88-1.66,1.94-2.53,2.88c-1.41,1.5-3.17,2.08-5.21,1.88
		c-1.75-0.18-3.5-0.45-5.25-0.43c-3.87,0.05-6.24,2.25-6.67,6.1c-0.12,1.1,0.11,2.24,0.03,3.35c-0.09,1.26-0.19,2.57-0.57,3.76
		c-0.81,2.52-2.58,4.01-5.29,4.14C1717.78,1398.46,1716.02,1398.39,1714.47,1398.39z M942.12,1513.36c0,0.04-0.01,0.09-0.01,0.13
		c-1.76,0-3.53-0.11-5.27,0.02c-4.76,0.36-7.29,2.54-8.22,7.24c-0.34,1.7-0.43,3.52-0.22,5.23c0.17,1.37,0.74,2.81,1.52,3.96
		c1.77,2.61,5.37,2.74,7.43,0.4c0.63-0.71,1.14-1.55,1.62-2.37c1.56-2.64,4.01-3.53,6.89-3.55c0.95-0.01,1.91,0.17,2.86,0.25
		c4.98,0.42,6.41-0.28,8.65-4.9c1.13-2.33,2.79-3.43,5.27-3.34c2.23,0.08,4.46,0.32,6.69,0.47c3.05,0.2,4.44-0.58,5.68-3.32
		c0.52-1.16,0.82-2.42,1.29-3.61c0.54-1.35,1.63-1.91,3.04-1.86c2.44,0.09,4.27,1.22,5.42,3.38c0.68,1.27,1.14,2.66,1.94,3.84
		c1.85,2.72,5.25,2.9,7.36,0.48c0.42-0.48,0.79-1.02,1.08-1.58c1.22-2.35,3.15-3.94,5.26-5.46c1.53-1.1,3.02-2.45,4.05-4.01
		c2.13-3.23,4.92-4.15,8.64-3.7c6.35,0.75,12.73,1.17,19.09,1.83c4.13,0.43,7.61-0.3,9.85-4.25c1.3-2.3,3.28-3.88,5.81-4.77
		c1.76-0.62,3.02-1.84,3.56-3.63c0.36-1.21,0.59-2.49,0.69-3.75c0.16-1.91,0.09-3.84,0.24-5.75c0.21-2.58,0.95-3.31,3.63-3.47
		c2.23-0.13,4.49-0.22,6.71-0.06c3.35,0.24,5.99-0.9,7.86-3.61c2.35-3.4,5.7-4.5,9.58-4.34c3.35,0.13,6.71,0.32,10.02,0.76
		c3.48,0.46,6.3-0.4,8.52-3.17c0.9-1.12,1.86-2.2,2.82-3.27c1.37-1.53,3.08-2.24,5.14-2.03c1.11,0.11,2.22,0.3,3.34,0.39
		c3.82,0.29,7.65,0.76,11.47,0.76c4.41,0,6.31-2.21,6.23-6.67c-0.04-1.92-0.3-3.84-0.24-5.75c0.07-2.16,1.37-3.72,3.28-4.25
		c2.03-0.56,3.85-0.12,5.21,1.5c0.7,0.84,1.16,1.9,1.69,2.88c0.46,0.84,0.75,1.79,1.3,2.56c2,2.84,5.92,2.61,7.43-0.53
		c0.6-1.25,0.76-2.75,0.9-4.16c0.12-1.26-0.11-2.55-0.1-3.83c0.05-4.73,1.89-6.66,6.64-6.89c1.59-0.08,3.2,0.14,4.79,0.06
		c2.98-0.14,4.79,1.33,5.92,3.94c0.57,1.32,1.09,2.69,1.9,3.86c1.97,2.86,5.46,3.03,7.77,0.43c0.73-0.82,1.28-1.83,1.85-2.79
		c1.44-2.4,3.47-3.71,6.33-3.55c2.23,0.13,4.47,0.26,6.69,0.45c2.39,0.21,4.77,0.64,7.16,0.71c3.81,0.12,6.02-1.61,6.82-5.35
		c0.36-1.7,0.35-3.49,0.41-5.24c0.12-3.52,1.37-6.07,5.01-7.28c3.93-1.31,5.75-4.37,5.88-8.46c0.04-1.28,0.11-2.57,0-3.83
		c-0.35-3.99-2.62-6.44-6.55-7.1c-1.42-0.24-2.86-0.34-4.29-0.5c-2.6-0.3-4.7,0.62-6.35,2.63c-0.51,0.62-1.03,1.23-1.46,1.9
		c-2.12,3.39-5.14,4.68-9.02,3.88c-4.54-0.94-8.2,0.03-10.59,4.37c-1.66,3-4.4,4.28-7.7,3.53c-5.04-1.14-8.66,0.41-11.45,4.74
		c-1.46,2.27-3.92,3.2-6.68,3.05c-1.28-0.07-2.56-0.04-3.83-0.16c-3.15-0.29-5.8,0.74-7.42,3.42c-2.21,3.67-5.53,4.59-9.42,4.42
		c-3.03-0.14-6.09-0.18-9.08-0.61c-4.39-0.63-7.81,0.51-10.41,4.26c-0.97,1.4-2.37,2.63-3.83,3.53c-2.63,1.62-4.91,3.51-6.73,6.02
		c-1.84,2.53-4.44,3.51-7.57,3.19c-1.59-0.17-3.19-0.2-4.78-0.23c-1.7-0.03-3.11,0.63-4.18,1.98c-0.5,0.63-0.97,1.27-1.45,1.91
		c-2.08,2.8-4.87,4.04-8.33,3.78c-0.8-0.06-1.59-0.14-2.39-0.2c-3.11-0.26-5.73,0.73-7.52,3.31c-1.51,2.18-3.46,3.74-5.81,4.86
		c-2.42,1.16-4.18,2.87-4.97,5.52c-0.76,2.54-2.67,3.47-5.16,3.36c-3.99-0.18-8.04-0.08-11.96-0.72c-4.96-0.81-8.81,0.09-11.45,4.71
		c-1.16,2.02-3.1,3.25-5.53,3.32c-1.11,0.03-2.22-0.18-3.34-0.26c-3.98-0.29-7.97-0.57-11.95-0.87c-2.44-0.18-4.36,0.76-5.87,2.62
		c-0.6,0.74-1.21,1.49-1.74,2.29c-1,1.51-2.24,2.7-4,3.28c-1.76,0.58-2.98,1.81-4.01,3.27c-1.6,2.27-3.6,4.06-6.24,5.05
		c-2.24,0.85-3.71,2.45-4.49,4.69c-0.93,2.71-2.93,3.6-5.63,3.4c-2.23-0.17-4.47-0.31-6.7-0.42c-2.66-0.13-4.64,0.96-5.83,3.38
		c-0.28,0.57-0.6,1.14-0.81,1.74c-0.95,2.7-2.9,3.6-5.64,3.33C948.81,1513.85,945.46,1513.63,942.12,1513.36z M1003.11,1377.13
		c-5.68-0.34-8.04,0.29-10.62,4.11c-1.38,2.06-3.35,3.36-5.66,4.25c-2.47,0.96-3.7,2.94-3.96,5.54c-0.08,0.79-0.13,1.6-0.11,2.39
		c0.09,5.22,0.79,6.26-5.81,9.68c-1.24,0.64-2.85,1.46-3.3,2.6c-1.48,3.72-4.3,5.38-7.91,6.19c-0.3,0.07-0.59,0.24-0.86,0.41
		c-2.07,1.24-2.51,3.21-2.3,5.4c0.19,1.92,1.21,3.32,3.03,3.96c2,0.7,3.8,0.16,5.27-1.32c0.56-0.56,1.03-1.22,1.46-1.89
		c0.43-0.67,0.76-1.41,1.14-2.11c0.93-1.69,2.42-2.49,4.29-2.65c0.8-0.07,1.6-0.07,2.4-0.08c6.14-0.08,7.4,0.68,11.66-5.57
		c1.36-2,3.37-2.88,5.78-2.83c1.44,0.03,2.88,0.02,4.31,0.14c3.3,0.27,5.97-0.77,7.86-3.58c1.46-2.18,3.4-3.8,5.71-5.01
		c1.88-0.98,3.38-2.37,4.53-4.17c2.45-3.81,5.81-5.09,10.32-4.08c3.1,0.7,6.33,0.88,9.52,1.12c3.41,0.26,6.27-0.73,8.17-3.88
		c2.23-3.69,5.46-5.25,9.78-4.1c0.46,0.12,0.94,0.17,1.42,0.26c2.61,0.49,4.73-0.41,6.44-2.34c0.74-0.84,1.36-1.77,2.03-2.67
		c2-2.68,4.64-3.79,7.97-3.28c1.1,0.17,2.22,0.3,3.33,0.39c2.41,0.19,4.39-0.67,5.9-2.56c0.7-0.87,1.25-1.88,2.04-2.66
		c1.11-1.12,2.22-2.43,3.61-3.04c2.3-1.02,3.97-2.58,5.49-4.49c1.69-2.14,3.56-4.06,6.07-5.34c1.23-0.63,2.36-1.69,3.17-2.82
		c1.46-2.05,3.39-3.35,5.57-4.4c0.86-0.42,1.78-0.76,2.57-1.28c2.83-1.85,3.04-6.17,0.26-8.18c-1.11-0.8-2.58-1.28-3.95-1.52
		c-1.39-0.24-2.88,0.13-4.3,0.02c-3.41-0.27-5.83,1.28-7.73,3.92c-0.28,0.39-0.57,0.78-0.83,1.17c-1.35,2.01-3.33,2.97-5.65,3.19
		c-1.42,0.14-2.87,0.13-4.3,0.02c-3.35-0.26-6.69-0.6-10.02-0.96c-3.16-0.35-5.64,0.75-7.45,3.36c-0.36,0.53-0.73,1.05-1.08,1.58
		c-1.86,2.81-4.39,4.07-7.79,3.46c-1.25-0.22-2.54-0.28-3.81-0.39c-2.42-0.2-4.39,0.63-5.84,2.6c-0.57,0.77-1.22,1.49-1.73,2.3
		c-1.52,2.44-3.77,3.32-6.53,3.22c-1.44-0.05-2.88-0.16-4.31-0.15c-3.03,0.04-5.7,0.86-7.37,3.65c-2.45,4.12-5.99,5.54-10.61,4.32
		c-0.15-0.04-0.32-0.05-0.47-0.09c-3-0.7-5.33,0.36-7.14,2.74c-0.68,0.89-1.3,1.83-2.01,2.68c-1.4,1.68-3.24,2.58-5.41,2.75
		C1004.22,1377.2,1003.1,1377.13,1003.11,1377.13z M676.33,1387.91c-4.76-0.65-8.27,0.47-10.72,4.4c-1.27,2.05-3.21,3.51-5.4,4.64
		c-0.97,0.5-1.92,1.2-2.64,2.01c-2.44,2.76-3.08,9.96-1.28,13.27c1.68,3.08,5.72,3.54,8.04,0.88c0.63-0.72,1.1-1.56,1.64-2.36
		c2.15-3.22,5.07-4.77,8.99-4.18c0.63,0.1,1.27,0.19,1.9,0.21c3.08,0.13,5.65-0.77,7.36-3.54c1.54-2.5,3.76-4.29,6.22-5.86
		c1.19-0.76,2.5-1.64,3.21-2.8c2.64-4.29,6.25-5.61,11.04-4.34c3.17,0.84,5.62-0.46,7.49-3.01c0.57-0.77,1.02-1.64,1.67-2.33
		c0.86-0.91,1.74-2.04,2.84-2.46c2.7-1.02,4.41-3.06,6.22-5.1c1.26-1.42,2.5-3.12,4.13-3.9c2.59-1.24,4.46-3,5.93-5.35
		c2.01-3.24,4.82-4.52,8.58-3.41c0.15,0.05,0.32,0.05,0.47,0.09c3.89,1.2,6.87,0.11,9.01-3.4c1.27-2.08,3.07-3.64,5.22-4.83
		c2.12-1.18,3.83-2.83,5.33-4.75c0.97-1.23,2.08-2.57,3.43-3.25c2.68-1.36,4.68-3.29,6.29-5.74c1.17-1.77,2.65-3.2,4.67-3.97
		c1.71-0.65,2.96-1.84,3.98-3.33c1.75-2.54,3.91-4.58,6.7-6.03c1.23-0.64,2.38-1.67,3.2-2.79c1.58-2.13,3.55-3.64,5.91-4.74
		c0.72-0.34,1.46-0.68,2.1-1.14c2.87-2.05,3.01-5.96,0.32-8.23c-1.28-1.08-2.8-1.49-4.45-1.49c-2.4,0-4.8,0.04-7.19,0
		c-2.56-0.04-5.11-0.15-7.67-0.25c-2.06-0.08-3.75,0.69-5.08,2.23c-0.73,0.84-1.31,1.83-2.11,2.6c-1.24,1.21-2.46,2.57-3.95,3.37
		c-2.05,1.11-3.65,2.58-4.94,4.43c-1.5,2.15-3.28,3.9-5.76,4.87c-1.69,0.66-2.95,1.85-3.93,3.38c-0.6,0.94-1.26,1.85-1.96,2.72
		c-1.4,1.75-3.24,2.55-5.49,2.29c-1.59-0.19-3.17-0.43-4.75-0.62c-2.61-0.31-4.82,0.53-6.23,2.74c-1.76,2.78-4,4.87-6.96,6.35
		c-3,1.51-4.25,4.18-4.08,7.54c0.08,1.59,0.2,3.22-0.06,4.76c-0.53,3.14-2.41,4.77-5.55,4.96c-1.42,0.09-2.89,0.02-4.29-0.24
		c-3.76-0.69-6.6,0.66-8.67,3.72c-1.38,2.05-3.11,3.63-5.28,4.76c-2.02,1.06-3.65,2.51-4.98,4.39c-0.81,1.15-1.81,2.33-2.99,3.04
		c-2.93,1.76-5.39,3.92-7.33,6.75c-1.45,2.12-3.64,3.04-6.21,3.02C677.5,1387.91,676.7,1387.91,676.33,1387.91z M1158.21,1121.05
		c-0.41-6.11-2.89-9.42-8.78-10.53c-3.43-0.65-7-0.98-10.48-0.86c-4.39,0.15-7.48-1.5-9.29-5.37c-1.84-3.93-4.61-6.04-9.07-5.5
		c-0.16,0.02-0.32-0.01-0.48-0.01c-3.75,0.13-6.45-1.46-8.09-4.86c-0.35-0.72-0.75-1.41-1.11-2.13c-0.94-1.82-2.43-2.98-4.37-3.49
		c-1.54-0.41-3.11-0.71-4.69-0.88c-2.86-0.31-5.73-0.48-8.6-0.73c-4.14-0.36-8.27-0.79-12.42-1.08c-2.37-0.17-4.48,0.55-5.79,2.67
		c-2.34,3.8-3.19,12.78,2.35,16.06c2.36,1.4,4.11,3.52,5.28,6.07c1.56,3.4,4.3,4.96,8,5.11c3.51,0.15,7.02,0.49,10.53,0.73
		c3.77,0.25,6.83,1.59,8.36,5.35c0.3,0.74,0.73,1.42,1.11,2.13c1.14,2.12,2.9,3.43,5.3,3.64c5.1,0.45,10.2,0.83,15.3,1.2
		c2.12,0.16,3.67-0.8,4.83-2.54c0.79-1.19,1.54-2.47,2.57-3.43c2.77-2.55,6.23-1.88,7.94,1.45c0.58,1.13,0.93,2.39,1.49,3.53
		c0.84,1.73,2.25,2.69,4.22,2.61c1.93-0.08,3.48-0.99,4.14-2.77C1157.23,1125.38,1157.65,1123.19,1158.21,1121.05z M700.34,838.61
		c0,0.09,0,0.18,0,0.27c1.12,0,2.23,0.01,3.35-0.01c0.48-0.01,0.96-0.05,1.43-0.12c2.61-0.43,4.04-1.88,4.34-4.36
		c0.33-2.77-0.75-4.79-3.26-5.72c-1.18-0.44-2.47-0.64-3.72-0.85c-1.26-0.22-2.54-0.29-3.8-0.49c-3.33-0.53-5.96-2.03-7.6-5.16
		c-0.72-1.39-1.67-2.79-2.86-3.78c-2.87-2.39-5.22-5.06-6.84-8.48c-1.18-2.48-3.4-3.73-6.21-3.79c-1.6-0.03-3.19-0.05-4.79-0.1
		c-2.1-0.08-3.63-1.11-4.64-2.91c-0.47-0.83-0.85-1.72-1.28-2.57c-0.43-0.86-0.79-1.75-1.3-2.56c-1.37-2.2-3.38-3.09-5.68-2.59
		c-2.14,0.47-3.56,2.25-3.77,4.94c-0.09,1.11,0.04,2.23,0.07,3.35c0.04,1.44,0.12,2.87,0.09,4.31c-0.05,2.11-1.13,3.63-2.99,4.55
		c-1.14,0.56-2.4,0.9-3.52,1.5c-3.61,1.92-4.06,6.63-0.9,9.18c0.61,0.49,1.34,0.87,2.07,1.19c4.15,1.79,5.49,5.07,4.97,9.33
		c-0.13,1.11-0.43,2.19-0.57,3.3c-0.34,2.69-0.82,5.38-0.91,8.08c-0.18,5.76,1.84,8.16,7.42,9.24c0.16,0.03,0.32,0.05,0.47,0.09
		c5.06,1.35,9.12,0.33,11.72-4.66c1.78-3.42,4.68-4.62,8.44-3.65c0.31,0.08,0.63,0.09,0.94,0.16c4.14,0.86,7.63,0.16,9.66-4.04
		c0.07-0.14,0.18-0.27,0.27-0.4c1.45-2.15,3.49-3.21,6.07-3.24C698.1,838.6,699.22,838.61,700.34,838.61z M730.61,938.38
		c-0.9,0.11-1.71,0.15-2.48,0.32c-2.02,0.45-3.52,1.6-4.02,3.66c-0.53,2.21,0.17,4.1,1.89,5.59c0.36,0.31,0.77,0.58,1.2,0.79
		c3,1.45,5.02,3.86,6.77,6.6c0.68,1.06,1.44,2.23,2.46,2.87c2.69,1.69,4.5,4.01,5.78,6.85c1.46,3.25,4.04,4.82,7.55,4.97
		c1.12,0.05,2.23,0.11,3.35,0.19c3.19,0.24,6.37,0.53,9.56,0.71c2.3,0.13,3.91,1.24,5.02,3.17c0.47,0.83,0.77,1.76,1.27,2.57
		c0.67,1.08,1.33,2.2,2.21,3.09c2.37,2.38,5.13,2.43,6.91-0.35c2.04-3.18,4.48-5.74,7.69-7.64c0.13-0.08,0.24-0.21,0.34-0.33
		c2.73-3.37,5.64-6.42,9.91-8.01c1.85-0.69,2.69-2.67,2.47-4.8c-0.22-2.11-1.41-3.58-3.32-4.32c-1.17-0.45-2.47-0.6-3.73-0.73
		c-1.27-0.12-2.56,0.03-3.83-0.06c-3.08-0.21-5.54-1.41-6.83-4.43c-0.31-0.73-0.75-1.41-1.09-2.13c-1.45-3.03-3.8-4.47-7.21-4.62
		c-4.78-0.21-9.56-0.7-14.33-1.12c-6.68-0.58-13.37-1.15-20.04-1.81C735.56,939.18,733.04,938.72,730.61,938.38z M553.08,732.94
		c0.12-3.69,0.24-7.53,0.38-11.36c0.09-2.4,0.26-4.79,0.29-7.19c0.04-2.68-0.75-5.07-2.95-6.78c-2.71-2.11-4.65-4.77-6.15-7.85
		c-0.6-1.23-1.62-2.42-2.74-3.21c-2.59-1.83-5.4-0.98-6.78,1.85c-1.01,2.06-1.21,4.24-1.12,6.54c0.13,3.18,0.22,6.4-0.08,9.56
		c-0.41,4.3,0.29,7.97,4.23,10.41c0.13,0.08,0.23,0.22,0.36,0.32c2.83,2.26,4.12,5.17,3.97,8.81c-0.16,3.99-0.28,7.99-0.26,11.99
		c0.02,4.07-1.46,7.18-5.24,8.93c-3.69,1.71-4.95,4.76-5.04,8.55c-0.19,7.67-0.36,15.35-0.59,23.02c-0.09,2.91,0.68,5.35,3.22,7.05
		c2.18,1.46,3.67,3.49,4.92,5.78c0.68,1.24,1.62,2.38,2.62,3.39c1.46,1.47,3.32,1.91,5.31,1.28c2.07-0.65,3.05-2.28,3.28-4.32
		c0.17-1.58,0.1-3.19,0.13-4.79c0.2-10.07,0.18-20.15,0.67-30.2C552.03,754.16,553.54,743.67,553.08,732.94z M511.1,1553.09
		c-0.11-0.01-0.23-0.02-0.34-0.03c0.25-2.21,0.48-4.41,0.74-6.62c0.19-1.59,0.47-3.16,0.59-4.75c0.12-1.65-0.37-3.17-1.33-4.51
		c-2.07-2.9-5.34-3.07-7.67-0.34c-0.83,0.97-1.48,2.09-2.23,3.12c-1.73,2.39-4.06,3.54-7.02,3.35c-1.75-0.11-3.51-0.24-5.26-0.41
		c-2.39-0.23-4.76-0.61-7.15-0.75c-3.08-0.18-5.63,0.82-7.26,3.68c-1.37,2.43-3.45,4.14-5.84,5.55c-1.08,0.64-2.27,1.37-2.95,2.37
		c-1.87,2.74-4.38,4.64-7.26,6.1c-2.55,1.29-3.8,3.42-3.95,6.13c-0.12,2.05-0.16,4.18,0.24,6.18c0.76,3.85,2.64,5.5,6.51,5.92
		c3.97,0.43,7.97,0.58,11.95,0.98c4.15,0.42,7.63-0.43,9.71-4.44c0.14-0.28,0.4-0.5,0.6-0.75c1.51-1.88,3.46-2.76,5.87-2.67
		c1.6,0.07,3.19,0.18,4.79,0.15c2.52-0.03,4.85-0.82,6.26-2.96c1.83-2.77,4.22-4.74,7.14-6.2c2.52-1.27,3.63-3.5,3.85-6.22
		C511.16,1555.01,511.1,1554.05,511.1,1553.09z M683.99,1032.34c0,0.05-0.01,0.1-0.01,0.15c0.48,0,0.96-0.01,1.44,0
		c3.32,0.06,5.37-1.57,6.46-4.66c0.87-2.47,1.17-4.97,0.83-7.55c-0.51-3.92-2.48-6.03-6.33-6.77c-1.25-0.24-2.53-0.39-3.81-0.44
		c-3.91-0.12-6.67-2.02-8.41-5.41c-1.13-2.19-2.67-3.96-4.66-5.38c-2.12-1.51-3.85-3.35-4.93-5.75c-0.8-1.79-2.08-3.18-3.67-4.34
		c-1.97-1.45-3.38-3.35-4.38-5.6c-0.52-1.16-1.1-2.33-1.85-3.34c-2.32-3.14-6.48-2.86-8.2,0.58c-0.49,0.97-0.74,2.12-0.83,3.21
		c-0.12,1.42-0.07,2.88,0.09,4.3c0.33,2.88,0.35,5.72-0.24,8.58c-0.92,4.43,0.66,7.88,4.49,10.21c2.14,1.3,3.54,3.12,4.76,5.24
		c0.95,1.64,2.04,3.31,3.43,4.56c2.42,2.16,4.52,4.43,5.92,7.41c1.15,2.46,3.24,3.94,6.03,4.14
		C674.75,1031.8,679.37,1032.05,683.99,1032.34z M398.25,1573c-0.08,0-0.16,0-0.25,0c0,1.59-0.14,3.19,0.03,4.76
		c0.31,2.77,2.03,4.54,4.48,4.89c2.55,0.36,4.59-0.77,5.63-3.42c0.51-1.31,0.8-2.77,0.87-4.18c0.11-2.22-0.06-4.46-0.09-6.7
		c-0.06-5.26-0.22-10.52-0.14-15.78c0.08-5.25,0.04-10.51,0.93-15.74c0.75-4.4-0.35-8.26-4.6-10.64c-1.74-0.97-2.81-2.52-3.66-4.3
		c-0.62-1.29-1.28-2.59-2.16-3.7c-1.98-2.49-5.51-2.44-7.37,0.14c-0.71,0.99-1.14,2.29-1.31,3.51c-0.21,1.56-0.23,3.21,0.02,4.77
		c0.56,3.51,0.37,6.98,0.11,10.49c-0.23,3.18-0.16,6.38-0.29,9.57c-0.08,2.07-0.12,4.16-0.45,6.19c-0.77,4.72,0.21,8.57,4.83,10.86
		c0.28,0.14,0.53,0.36,0.78,0.55c1.59,1.25,2.5,2.89,2.62,4.91C398.31,1570.45,398.25,1571.73,398.25,1573z M686.59,1550.13
		c4.21,0.69,7.45-0.71,9.96-4.23c0.88-1.23,2.34-2.18,3.73-2.86c2.53-1.25,4.61-2.86,5.77-5.48c0.91-2.06,2.4-3.26,4.63-3.72
		c1.22-0.26,2.49-0.72,3.52-1.4c1.96-1.29,2.34-3.32,1.93-5.52c-0.38-2.05-1.84-3.47-3.8-3.82c-2.21-0.39-4.05,0.45-5.24,2.49
		c-0.48,0.82-0.77,1.75-1.17,2.62c-1.04,2.26-2.81,3.42-5.31,3.36c-1.43-0.04-2.89-0.04-4.29-0.28c-3.35-0.57-6.08,0.45-7.94,3.22
		c-2.6,3.87-6.08,5.47-10.66,4.81c-0.31-0.04-0.64,0.01-0.96-0.02c-3.16-0.3-5.61,0.89-7.38,3.5c-1.64,2.42-3.59,4.45-6.39,5.57
		c-0.85,0.34-1.61,1.05-2.24,1.75c-2.45,2.77-5.05,5.25-8.55,6.78c-2.1,0.92-2.8,3.09-2.32,5.27c0.46,2.1,1.89,3.45,3.85,3.84
		c2.16,0.44,4.42,0.38,6.63,0.57c3.19,0.27,5.49-1.07,7.24-3.71c1.51-2.28,3.37-4.19,6-5.33c1.1-0.48,2.13-1.46,2.83-2.46
		C678.92,1551.47,682.07,1549.47,686.59,1550.13z M1280.48,957.62c1.48,0,2.28,0.05,3.08-0.01c3.13-0.22,5.3-2.2,5.47-4.98
		c0.18-2.83-1.57-5.15-4.59-5.87c-1.23-0.29-2.55-0.52-3.8-0.43c-4.56,0.33-7.6-1.87-9.81-5.59c-0.24-0.41-0.55-0.79-0.8-1.19
		c-1.67-2.62-4.06-3.95-7.16-4.18c-1.59-0.12-3.15-0.52-4.72-0.78c-2.98-0.49-4.99-2.01-5.52-5.15c-0.08-0.47-0.28-0.92-0.45-1.37
		c-0.85-2.28-2.4-3.76-4.86-4.11c-1.9-0.27-3.81-0.43-5.71-0.63c-3.15-0.34-5.38-1.72-6.23-5.02c-0.35-1.36-1-2.71-1.8-3.87
		c-1.07-1.57-2.76-2.13-4.65-1.85c-1.94,0.29-3.11,1.54-3.74,3.32c-1.12,3.12-0.19,5.68,3.01,7.03c3.18,1.34,5.26,3.29,6.31,6.66
		c1,3.22,3.66,4.71,6.94,5.07c1.75,0.2,3.5,0.29,5.26,0.45c3.04,0.27,5.05,1.75,5.76,4.84c0.51,2.27,1.74,4.14,3.61,5.51
		c2.5,1.83,4.53,4.01,5.95,6.78c1.01,1.97,2.65,3.17,4.88,3.48C1271.64,956.39,1276.39,957.05,1280.48,957.62z M396,1885.27
		c0.03,0,0.05,0,0.08,0.01c-0.3,7.34-0.62,14.68-0.89,22.02c-0.07,1.75-0.14,3.53,0.08,5.26c0.34,2.69,2.3,4.63,4.56,4.87
		c2.28,0.24,4.55-1.26,5.53-3.77c0.34-0.88,0.54-1.84,0.65-2.79c0.12-1.11,0.09-2.23,0.09-3.35c-0.01-3.99-0.14-7.99-0.02-11.98
		c0.22-7.18,0.61-14.36,0.88-21.55c0.14-3.67,0.16-7.35,0.26-11.02c0.03-1.28,0.07-2.56,0.24-3.82c0.29-2.07,1.43-3.51,3.44-4.21
		c1.2-0.42,2.47-0.73,3.59-1.33c1.85-0.99,2.7-2.67,2.56-4.78c-0.14-2.11-1.68-3.98-3.74-4.48c-2.07-0.51-3.78,0.16-5.1,1.8
		c-0.4,0.49-0.79,1.04-1,1.62c-1.08,2.93-3.11,4.65-6.13,5.51c-2.95,0.85-4.35,3.12-4.46,6.14c-0.06,1.59,0.08,3.19,0.12,4.79
		c0.04,1.91,0.17,3.83,0.09,5.74C396.58,1875.06,396.27,1880.17,396,1885.27z M945.86,1054.97c-0.06-3.97-1.31-7.2-4.55-9.66
		c-2.3-1.75-4.12-3.96-5.51-6.56c-0.66-1.24-1.61-2.46-2.72-3.3c-2.76-2.07-4.89-4.57-6.38-7.65c-1.05-2.16-2.79-3.44-5.06-4.07
		c-1.39-0.39-2.74-1-4.15-1.17c-1.56-0.19-3.2-0.21-4.74,0.08c-2.03,0.37-3.42,1.72-3.82,3.83c-0.42,2.21,0.1,4.14,2.02,5.51
		c0.65,0.46,1.36,0.85,2.07,1.21c3.66,1.89,4.65,5.04,4.24,8.86c-0.14,1.27-0.46,2.53-0.44,3.8c0.06,3.49,1.8,5.73,5.16,6.6
		c1.38,0.35,2.84,0.48,4.27,0.52c3.57,0.1,6.01,1.89,7.68,4.91c0.62,1.12,1.13,2.3,1.79,3.39c1.07,1.75,2.59,2.84,4.74,2.7
		c2.41-0.16,3.75-1.73,4.39-3.84C945.36,1058.45,945.53,1056.69,945.86,1054.97z M1065.45,1277.1c-1.36,0-2.65,0.09-3.91-0.02
		c-2.99-0.25-5.3,0.84-6.95,3.32c-1.54,2.31-3.51,4.08-6.03,5.3c-1.9,0.92-3.49,2.28-4.37,4.26c-1.55,3.48-1.82,7.11-0.75,10.76
		c1.11,3.74,5.66,4.81,8.44,2.04c0.78-0.77,1.42-1.74,1.94-2.71c1.8-3.37,4.51-4.79,8.3-4.12c0.78,0.14,1.59,0.14,2.38,0.22
		c3.17,0.33,6.34,0.71,9.51,0.99c4.14,0.37,6.82-1.49,7.62-5.53c0.4-2.01,0.49-4.13,0.37-6.18c-0.26-4.67-2.01-6.58-6.65-7.26
		C1072.05,1277.68,1068.71,1277.45,1065.45,1277.1z M392.43,1736.48c-0.02,0-0.04,0-0.06,0c0,2.55,0.07,5.1-0.02,7.65
		c-0.09,2.7-0.38,5.4-0.46,8.1c-0.03,1.09,0.15,2.23,0.45,3.29c0.6,2.15,2.04,3.77,4.23,4.12c2.97,0.47,6,0.62,9.02,0.69
		c1.66,0.04,3.01-0.93,4.02-2.28c3.39-4.52,2.47-11.42-1.99-14.93c-0.63-0.49-1.26-0.97-1.87-1.49c-1.91-1.65-2.99-3.7-2.95-6.27
		c0.02-1.59,0.04-3.19,0.12-4.78c0.16-3.02,0.49-6.04,0.52-9.07c0.02-1.56-0.22-3.2-0.74-4.66c-0.76-2.13-2.5-3.28-4.8-3.3
		c-2.36-0.02-3.99,1.3-4.68,3.42c-0.53,1.63-0.71,3.42-0.74,5.15C392.37,1726.93,392.43,1731.71,392.43,1736.48z M846.26,1468.44
		c1.46,0,3.85,0.05,6.25-0.01c2.53-0.07,4.19-1.41,4.98-3.77c0.46-1.36,0.88-2.74,1.14-4.15c1.23-6.87-0.94-9.99-7.85-10.86
		c-4.43-0.56-8.89-0.82-13.35-1.06c-3.16-0.17-5.51,1.5-6.64,4.49c-0.92,2.42-1.34,4.91-0.83,7.52c0.87,4.43,3.21,6.67,7.74,7.16
		C840.23,1468.02,842.78,1468.16,846.26,1468.44z M925.73,1264.4c-0.33-1.5-0.59-3.74-1.34-5.8c-0.79-2.16-2.72-3.06-5-2.98
		c-2.13,0.08-3.67,1.25-4.38,3.17c-0.49,1.31-0.62,2.78-0.72,4.2c-0.11,1.43,0.1,2.87,0.03,4.3c-0.14,2.79-1.11,4.97-4.28,5.46
		c-2.21,0.34-3.93,1.58-4.82,3.56c-1.48,3.32-3.69,5.53-7.44,5.92c-0.3,0.03-0.59,0.24-0.86,0.4c-1.72,1.03-2.59,3.14-2.24,5.42
		c0.32,2.09,1.92,3.88,3.92,4.39c2.16,0.55,4.1-0.21,5.36-2.18c0.43-0.67,0.75-1.41,1.05-2.15c0.84-2.06,2.27-3.4,4.46-3.97
		c2.31-0.6,4-2.08,4.82-4.3c1.09-2.96,3.06-4.68,6.13-5.45c2.74-0.69,4.25-2.71,4.72-5.47
		C925.35,1267.67,925.47,1266.4,925.73,1264.4z M467.16,1729.05c-0.43,0.04,0.05-0.06,0.52-0.04c3.6,0.11,6.52-0.94,8.43-4.3
		c1.04-1.83,2.8-3.03,4.84-3.71c0.6-0.2,1.22-0.41,1.77-0.73c1.93-1.12,3.12-2.71,2.96-5.06c-0.15-2.18-1.75-4.11-4.24-4.56
		c-2.17-0.39-4.44-0.46-6.65-0.41c-2.31,0.05-4.37,0.99-5.91,2.76c-2.23,2.57-4.89,4.44-7.96,5.97c-3.87,1.93-3.83,6.53-0.14,8.8
		C462.45,1728.81,464.28,1729.28,467.16,1729.05z M548,870.37c0.27-2.56,0.46-4.3,0.62-6.04c0.23-2.44-0.13-4.79-1.3-6.94
		c-1.07-1.98-2.77-3.06-5.09-2.88c-2.32,0.18-3.79,1.53-4.54,3.66c-0.26,0.74-0.47,1.55-0.46,2.33c0.06,4.94-0.25,9.85-0.86,14.75
		c-0.1,0.77-0.09,1.66,0.19,2.36c0.58,1.45,1.11,3.06,2.13,4.16c2.66,2.85,6.62,2.14,8.18-1.41c0.62-1.42,0.94-3.04,1.07-4.6
		C548.13,873.7,548,871.62,548,870.37z M896.37,1443.6c-6.95,0.26-9.52,1.53-10.67,8.93c-0.15,0.94-0.18,1.92-0.12,2.87
		c0.07,1.11,0.14,2.26,0.49,3.3c1.34,3.92,5.41,4.87,8.35,1.99c0.57-0.55,1.11-1.17,1.52-1.84c1.13-1.84,2.65-3.13,4.67-3.94
		c1.02-0.41,1.99-1.04,2.83-1.75c1.61-1.35,2.1-3.16,1.6-5.2c-0.46-1.88-1.68-3.11-3.54-3.52
		C899.65,1444.02,897.74,1443.81,896.37,1443.6z M478.7,434.69c-0.03-1.68-0.64-3.14-1.93-4.2c-0.97-0.8-2.05-1.52-3.18-2.07
		c-1.99-0.96-3.21-2.45-3.99-4.5c-0.56-1.46-1.29-2.92-2.26-4.14c-1.3-1.63-3.2-2-5.2-1.41c-1.87,0.55-2.84,1.96-3.23,3.78
		c-0.62,2.87,0.43,5.37,3.35,6.59c3.21,1.35,5.17,3.49,6.14,6.78c0.3,1.02,0.96,2.02,1.69,2.82c1.48,1.64,3.84,2.13,5.67,1.36
		C477.6,438.95,478.76,436.95,478.7,434.69z M538.24,823.92c0.01,3.23,0.24,5.62,1.5,7.73c1.14,1.92,2.91,2.93,5.18,2.79
		c1.95-0.11,3.17-1.31,4-2.98c1.89-3.76,2.03-7.65,0.74-11.6c-0.92-2.81-3.04-4.27-5.72-4.13c-2.48,0.12-4.37,1.62-5.08,4.29
		C538.45,821.55,538.35,823.16,538.24,823.92z M1196.33,901.73c0.52,1.97,0.84,4.02,1.63,5.88c0.78,1.83,2.37,2.99,4.51,3.01
		c2.16,0.02,3.53-1.25,4.53-2.99c0.31-0.55,0.64-1.15,0.71-1.76c0.33-2.83,0.65-5.67,0.8-8.51c0.05-0.9-0.31-1.89-0.7-2.74
		c-0.95-2.03-2.57-3.18-4.89-3.21c-2.15-0.03-3.61,1.04-4.59,2.86C1197.09,896.57,1196.68,899.06,1196.33,901.73z M754.62,1516.98
		c-0.18-2.26-0.15-4.49-1.3-6.52c-1.68-2.96-5.22-3.52-7.64-1.17c-0.56,0.54-1.11,1.18-1.43,1.88c-1.79,3.97-1.9,7.99-0.04,11.96
		c0.95,2.02,2.57,3.21,4.92,3.1c2.39-0.11,3.82-1.6,4.48-3.67C754.17,1520.77,754.3,1518.84,754.62,1516.98z M1142.18,1202.13
		c-0.14,3.13,1.64,5.18,4.69,5.39c3.26,0.23,5.5-1.68,5.76-4.91c0.25-3.08-1.9-5.54-5-5.73
		C1144.52,1196.71,1142.33,1198.81,1142.18,1202.13z M1154.49,1327.17c-0.05-3.04-2.49-5.37-5.54-5.29c-2.7,0.07-4.8,2.48-4.79,5.47
		c0.02,3.07,2.36,5.28,5.55,5.22C1152.53,1332.53,1154.54,1330.25,1154.49,1327.17z M948.18,1419.38c-3,0.03-4.92,2.06-4.92,5.18
		c0,3.19,2.14,5.29,5.4,5.31c2.89,0.02,4.99-2.17,4.97-5.18C953.6,1421.58,951.32,1419.35,948.18,1419.38z M1280.25,1546.45
		c0.07-2.92-1.98-5.12-4.92-5.26c-3.22-0.16-5.41,1.92-5.44,5.17c-0.03,2.99,2.02,5.27,4.84,5.37
		C1277.73,1551.82,1280.17,1549.49,1280.25,1546.45z M1129.66,1330.05c-2.8,0.06-4.67,2.04-4.66,4.95c0,3.35,2.5,5.76,5.8,5.56
		c2.72-0.16,4.56-2.31,4.42-5.2C1135.07,1332.18,1132.78,1329.98,1129.66,1330.05z M877.22,1466.31c0.11-3.2-2.07-5.7-5-5.74
		c-2.65-0.04-4.55,2.05-4.55,4.98c0,3.08,1.99,5.4,4.72,5.49C875.09,1471.14,877.13,1469.14,877.22,1466.31z"/>
	<path class="st0" d="M942.12,1513.36c3.34,0.27,6.69,0.49,10.03,0.82c2.74,0.27,4.68-0.63,5.64-3.33c0.21-0.6,0.52-1.17,0.81-1.74
		c1.2-2.42,3.17-3.51,5.83-3.38c2.24,0.11,4.47,0.25,6.7,0.42c2.69,0.2,4.69-0.69,5.63-3.4c0.77-2.24,2.25-3.84,4.49-4.69
		c2.64-1,4.64-2.79,6.24-5.05c1.04-1.47,2.25-2.7,4.01-3.27c1.75-0.57,3-1.76,4-3.28c0.53-0.8,1.13-1.55,1.74-2.29
		c1.51-1.86,3.43-2.81,5.87-2.62c3.98,0.3,7.97,0.57,11.95,0.87c1.11,0.08,2.23,0.3,3.34,0.26c2.43-0.07,4.37-1.3,5.53-3.32
		c2.64-4.61,6.49-5.52,11.45-4.71c3.92,0.64,7.96,0.54,11.96,0.72c2.49,0.11,4.4-0.82,5.16-3.36c0.79-2.65,2.55-4.36,4.97-5.52
		c2.35-1.12,4.3-2.67,5.81-4.86c1.79-2.58,4.41-3.57,7.52-3.31c0.8,0.07,1.59,0.14,2.39,0.2c3.47,0.26,6.25-0.98,8.33-3.78
		c0.48-0.64,0.95-1.29,1.45-1.91c1.07-1.34,2.48-2,4.18-1.98c1.6,0.02,3.2,0.06,4.78,0.23c3.13,0.33,5.73-0.65,7.57-3.19
		c1.83-2.51,4.1-4.4,6.73-6.02c1.46-0.9,2.86-2.13,3.83-3.53c2.6-3.75,6.02-4.89,10.41-4.26c3,0.43,6.05,0.47,9.08,0.61
		c3.89,0.18,7.21-0.75,9.42-4.42c1.62-2.69,4.27-3.72,7.42-3.42c1.27,0.12,2.56,0.1,3.83,0.16c2.76,0.14,5.22-0.78,6.68-3.05
		c2.79-4.33,6.41-5.87,11.45-4.74c3.3,0.74,6.04-0.53,7.7-3.53c2.4-4.33,6.05-5.31,10.59-4.37c3.88,0.8,6.9-0.49,9.02-3.88
		c0.42-0.67,0.95-1.28,1.46-1.9c1.64-2.01,3.74-2.93,6.35-2.63c1.43,0.16,2.87,0.26,4.29,0.5c3.93,0.67,6.2,3.12,6.55,7.1
		c0.11,1.27,0.04,2.56,0,3.83c-0.13,4.08-1.95,7.15-5.88,8.46c-3.64,1.21-4.9,3.77-5.01,7.28c-0.06,1.75-0.05,3.54-0.41,5.24
		c-0.8,3.74-3,5.47-6.82,5.35c-2.39-0.07-4.77-0.5-7.16-0.71c-2.23-0.19-4.46-0.32-6.69-0.45c-2.86-0.17-4.89,1.15-6.33,3.55
		c-0.57,0.96-1.11,1.96-1.85,2.79c-2.32,2.6-5.8,2.43-7.77-0.43c-0.81-1.17-1.33-2.54-1.9-3.86c-1.13-2.62-2.94-4.09-5.92-3.94
		c-1.59,0.08-3.2-0.14-4.79-0.06c-4.75,0.23-6.59,2.16-6.64,6.89c-0.01,1.28,0.22,2.57,0.1,3.83c-0.14,1.41-0.3,2.91-0.9,4.16
		c-1.51,3.14-5.43,3.37-7.43,0.53c-0.54-0.77-0.84-1.72-1.3-2.56c-0.53-0.98-0.99-2.04-1.69-2.88c-1.36-1.62-3.18-2.06-5.21-1.5
		c-1.91,0.53-3.2,2.09-3.28,4.25c-0.07,1.91,0.2,3.83,0.24,5.75c0.08,4.46-1.82,6.67-6.23,6.67c-3.82,0-7.65-0.47-11.47-0.76
		c-1.12-0.08-2.22-0.27-3.34-0.39c-2.06-0.21-3.77,0.51-5.14,2.03c-0.96,1.07-1.92,2.14-2.82,3.27c-2.22,2.77-5.04,3.63-8.52,3.17
		c-3.32-0.44-6.68-0.62-10.02-0.76c-3.88-0.16-7.23,0.94-9.58,4.34c-1.87,2.71-4.52,3.86-7.86,3.61c-2.23-0.16-4.48-0.07-6.71,0.06
		c-2.68,0.15-3.42,0.88-3.63,3.47c-0.15,1.91-0.08,3.84-0.24,5.75c-0.1,1.26-0.33,2.54-0.69,3.75c-0.54,1.79-1.8,3.01-3.56,3.63
		c-2.53,0.89-4.51,2.47-5.81,4.77c-2.24,3.95-5.72,4.68-9.85,4.25c-6.36-0.66-12.74-1.08-19.09-1.83c-3.72-0.44-6.51,0.48-8.64,3.7
		c-1.03,1.56-2.52,2.91-4.05,4.01c-2.11,1.52-4.04,3.12-5.26,5.46c-0.29,0.56-0.66,1.1-1.08,1.58c-2.12,2.41-5.51,2.23-7.36-0.48
		c-0.8-1.18-1.27-2.57-1.94-3.84c-1.15-2.15-2.97-3.28-5.42-3.38c-1.42-0.05-2.51,0.5-3.04,1.86c-0.47,1.19-0.77,2.45-1.29,3.61
		c-1.24,2.74-2.63,3.53-5.68,3.32c-2.23-0.15-4.46-0.39-6.69-0.47c-2.48-0.09-4.14,1.01-5.27,3.34c-2.24,4.62-3.67,5.32-8.65,4.9
		c-0.95-0.08-1.91-0.26-2.86-0.25c-2.88,0.02-5.33,0.92-6.89,3.55c-0.49,0.82-1,1.65-1.62,2.37c-2.06,2.34-5.67,2.21-7.43-0.4
		c-0.78-1.15-1.35-2.59-1.52-3.96c-0.21-1.71-0.12-3.53,0.22-5.23c0.94-4.7,3.46-6.88,8.22-7.24c1.75-0.13,3.52-0.02,5.27-0.02
		C942.11,1513.44,942.12,1513.4,942.12,1513.36z"/>
	<path class="st0" d="M1003.11,1377.13c-0.02,0,1.11,0.07,2.22-0.01c2.17-0.16,4.01-1.07,5.41-2.75c0.72-0.86,1.34-1.79,2.01-2.68
		c1.82-2.38,4.14-3.44,7.14-2.74c0.16,0.04,0.32,0.05,0.47,0.09c4.62,1.22,8.16-0.2,10.61-4.32c1.66-2.79,4.34-3.62,7.37-3.65
		c1.44-0.02,2.88,0.09,4.31,0.15c2.75,0.1,5.01-0.79,6.53-3.22c0.51-0.81,1.16-1.53,1.73-2.3c1.46-1.98,3.42-2.81,5.84-2.6
		c1.27,0.11,2.56,0.17,3.81,0.39c3.4,0.6,5.93-0.66,7.79-3.46c0.35-0.53,0.72-1.06,1.08-1.58c1.81-2.61,4.29-3.7,7.45-3.36
		c3.34,0.36,6.68,0.7,10.02,0.96c1.42,0.11,2.88,0.12,4.3-0.02c2.32-0.23,4.3-1.19,5.65-3.19c0.27-0.4,0.55-0.78,0.83-1.17
		c1.9-2.64,4.31-4.19,7.73-3.92c1.43,0.11,2.91-0.26,4.3-0.02c1.37,0.23,2.84,0.71,3.95,1.52c2.77,2.01,2.57,6.33-0.26,8.18
		c-0.8,0.52-1.71,0.87-2.57,1.28c-2.19,1.05-4.12,2.35-5.57,4.4c-0.81,1.13-1.94,2.2-3.17,2.82c-2.51,1.28-4.38,3.2-6.07,5.34
		c-1.51,1.91-3.18,3.47-5.49,4.49c-1.38,0.61-2.49,1.93-3.61,3.04c-0.78,0.79-1.34,1.79-2.04,2.66c-1.51,1.89-3.49,2.74-5.9,2.56
		c-1.11-0.09-2.23-0.22-3.33-0.39c-3.32-0.51-5.97,0.6-7.97,3.28c-0.67,0.9-1.29,1.83-2.03,2.67c-1.71,1.93-3.83,2.83-6.44,2.34
		c-0.47-0.09-0.95-0.14-1.42-0.26c-4.32-1.15-7.55,0.42-9.78,4.1c-1.91,3.14-4.77,4.14-8.17,3.88c-3.19-0.24-6.42-0.42-9.52-1.12
		c-4.51-1.01-7.87,0.27-10.32,4.08c-1.16,1.8-2.65,3.19-4.53,4.17c-2.31,1.2-4.25,2.83-5.71,5.01c-1.88,2.81-4.55,3.85-7.86,3.58
		c-1.43-0.12-2.87-0.11-4.31-0.14c-2.41-0.05-4.41,0.83-5.78,2.83c-4.26,6.25-5.52,5.49-11.66,5.57c-0.8,0.01-1.6,0.02-2.4,0.08
		c-1.87,0.16-3.36,0.96-4.29,2.65c-0.38,0.7-0.71,1.44-1.14,2.11c-0.43,0.67-0.9,1.33-1.46,1.89c-1.48,1.48-3.28,2.02-5.27,1.32
		c-1.82-0.64-2.84-2.05-3.03-3.96c-0.21-2.19,0.23-4.16,2.3-5.4c0.27-0.16,0.56-0.34,0.86-0.41c3.62-0.81,6.43-2.47,7.91-6.19
		c0.45-1.13,2.06-1.95,3.3-2.6c6.6-3.42,5.9-4.46,5.81-9.68c-0.01-0.8,0.03-1.6,0.11-2.39c0.27-2.59,1.49-4.58,3.96-5.54
		c2.31-0.9,4.27-2.2,5.66-4.25C995.07,1377.42,997.43,1376.79,1003.11,1377.13z"/>
	<path class="st0" d="M676.33,1387.91c0.37,0,1.17-0.01,1.97,0c2.57,0.02,4.76-0.9,6.21-3.02c1.94-2.83,4.4-4.99,7.33-6.75
		c1.18-0.71,2.18-1.89,2.99-3.04c1.33-1.88,2.96-3.33,4.98-4.39c2.16-1.14,3.9-2.72,5.28-4.76c2.06-3.07,4.91-4.41,8.67-3.72
		c1.4,0.26,2.87,0.33,4.29,0.24c3.14-0.2,5.02-1.83,5.55-4.96c0.26-1.55,0.13-3.18,0.06-4.76c-0.16-3.36,1.08-6.03,4.08-7.54
		c2.96-1.49,5.2-3.57,6.96-6.35c1.4-2.22,3.62-3.05,6.23-2.74c1.59,0.19,3.17,0.43,4.75,0.62c2.25,0.26,4.09-0.53,5.49-2.29
		c0.7-0.87,1.35-1.78,1.96-2.72c0.98-1.53,2.24-2.72,3.93-3.38c2.48-0.97,4.27-2.72,5.76-4.87c1.29-1.85,2.89-3.32,4.94-4.43
		c1.49-0.81,2.71-2.16,3.95-3.37c0.79-0.77,1.38-1.76,2.11-2.6c1.33-1.54,3.01-2.31,5.08-2.23c2.55,0.1,5.11,0.21,7.67,0.25
		c2.4,0.04,4.79,0,7.19,0c1.65,0,3.17,0.41,4.45,1.49c2.69,2.27,2.55,6.18-0.32,8.23c-0.64,0.46-1.38,0.81-2.1,1.14
		c-2.36,1.1-4.34,2.61-5.91,4.74c-0.83,1.12-1.98,2.15-3.2,2.79c-2.78,1.45-4.95,3.49-6.7,6.03c-1.02,1.48-2.27,2.67-3.98,3.33
		c-2.02,0.77-3.51,2.19-4.67,3.97c-1.61,2.45-3.61,4.38-6.29,5.74c-1.35,0.68-2.46,2.02-3.43,3.25c-1.51,1.92-3.21,3.57-5.33,4.75
		c-2.15,1.19-3.95,2.75-5.22,4.83c-2.14,3.51-5.12,4.6-9.01,3.4c-0.15-0.05-0.32-0.05-0.47-0.09c-3.75-1.12-6.56,0.16-8.58,3.41
		c-1.46,2.36-3.33,4.11-5.93,5.35c-1.63,0.78-2.87,2.48-4.13,3.9c-1.81,2.04-3.52,4.08-6.22,5.1c-1.1,0.42-1.98,1.55-2.84,2.46
		c-0.65,0.69-1.11,1.56-1.67,2.33c-1.87,2.55-4.31,3.86-7.49,3.01c-4.79-1.27-8.4,0.05-11.04,4.34c-0.71,1.16-2.02,2.04-3.21,2.8
		c-2.46,1.57-4.68,3.36-6.22,5.86c-1.71,2.78-4.29,3.67-7.36,3.54c-0.64-0.03-1.27-0.12-1.9-0.21c-3.92-0.59-6.84,0.97-8.99,4.18
		c-0.53,0.8-1.01,1.64-1.64,2.36c-2.33,2.67-6.37,2.21-8.04-0.88c-1.8-3.31-1.16-10.52,1.28-13.27c0.72-0.82,1.67-1.51,2.64-2.01
		c2.19-1.12,4.13-2.59,5.4-4.64C668.06,1388.38,671.58,1387.26,676.33,1387.91z"/>
	<path class="st0" d="M1158.21,1121.05c-0.57,2.14-0.98,4.34-1.75,6.4c-0.66,1.78-2.21,2.69-4.14,2.77
		c-1.97,0.08-3.37-0.88-4.22-2.61c-0.56-1.15-0.91-2.4-1.49-3.53c-1.71-3.33-5.17-4-7.94-1.45c-1.03,0.95-1.78,2.24-2.57,3.43
		c-1.16,1.75-2.71,2.7-4.83,2.54c-5.1-0.38-10.21-0.75-15.3-1.2c-2.4-0.21-4.16-1.52-5.3-3.64c-0.38-0.7-0.81-1.39-1.11-2.13
		c-1.53-3.76-4.59-5.1-8.36-5.35c-3.51-0.23-7.01-0.58-10.53-0.73c-3.71-0.16-6.44-1.71-8-5.11c-1.17-2.55-2.92-4.67-5.28-6.07
		c-5.54-3.29-4.69-12.26-2.35-16.06c1.31-2.13,3.43-2.84,5.79-2.67c4.14,0.29,8.28,0.72,12.42,1.08c2.87,0.25,5.74,0.42,8.6,0.73
		c1.58,0.17,3.16,0.47,4.69,0.88c1.93,0.51,3.43,1.67,4.37,3.49c0.37,0.71,0.77,1.4,1.11,2.13c1.63,3.4,4.34,4.99,8.09,4.86
		c0.16-0.01,0.32,0.03,0.48,0.01c4.47-0.54,7.24,1.57,9.07,5.5c1.81,3.87,4.89,5.53,9.29,5.37c3.48-0.12,7.05,0.21,10.48,0.86
		C1155.32,1111.63,1157.81,1114.94,1158.21,1121.05z"/>
	<path class="st0" d="M700.34,838.61c-1.12,0-2.23-0.01-3.35,0c-2.58,0.03-4.62,1.09-6.07,3.24c-0.09,0.13-0.2,0.26-0.27,0.4
		c-2.03,4.2-5.52,4.9-9.66,4.04c-0.31-0.07-0.64-0.08-0.94-0.16c-3.76-0.97-6.67,0.23-8.44,3.65c-2.59,4.99-6.65,6.01-11.72,4.66
		c-0.15-0.04-0.31-0.06-0.47-0.09c-5.58-1.08-7.6-3.49-7.42-9.24c0.09-2.7,0.57-5.39,0.91-8.08c0.14-1.11,0.44-2.19,0.57-3.3
		c0.52-4.26-0.82-7.54-4.97-9.33c-0.73-0.31-1.45-0.69-2.07-1.19c-3.16-2.54-2.71-7.26,0.9-9.18c1.12-0.6,2.38-0.94,3.52-1.5
		c1.86-0.92,2.94-2.44,2.99-4.55c0.03-1.43-0.05-2.87-0.09-4.31c-0.03-1.12-0.16-2.24-0.07-3.35c0.22-2.69,1.63-4.48,3.77-4.94
		c2.3-0.5,4.31,0.39,5.68,2.59c0.5,0.81,0.87,1.7,1.3,2.56c0.43,0.86,0.81,1.74,1.28,2.57c1.01,1.8,2.54,2.83,4.64,2.91
		c1.59,0.06,3.19,0.07,4.79,0.1c2.81,0.05,5.03,1.3,6.21,3.79c1.62,3.41,3.97,6.09,6.84,8.48c1.19,0.99,2.14,2.39,2.86,3.78
		c1.64,3.13,4.27,4.63,7.6,5.16c1.26,0.2,2.54,0.27,3.8,0.49c1.25,0.22,2.54,0.41,3.72,0.85c2.51,0.93,3.59,2.95,3.26,5.72
		c-0.3,2.48-1.73,3.93-4.34,4.36c-0.47,0.08-0.95,0.12-1.43,0.12c-1.11,0.02-2.23,0.01-3.35,0.01
		C700.34,838.79,700.34,838.7,700.34,838.61z"/>
	<path class="st0" d="M730.61,938.38c2.43,0.35,4.95,0.8,7.49,1.05c6.68,0.65,13.36,1.23,20.04,1.81c4.77,0.41,9.55,0.91,14.33,1.12
		c3.42,0.15,5.76,1.59,7.21,4.62c0.35,0.72,0.78,1.4,1.09,2.13c1.29,3.01,3.75,4.22,6.83,4.43c1.27,0.09,2.56-0.06,3.83,0.06
		c1.26,0.12,2.57,0.27,3.73,0.73c1.91,0.74,3.1,2.22,3.32,4.32c0.22,2.13-0.62,4.11-2.47,4.8c-4.27,1.59-7.17,4.64-9.91,8.01
		c-0.1,0.12-0.21,0.25-0.34,0.33c-3.21,1.9-5.65,4.45-7.69,7.64c-1.78,2.78-4.54,2.73-6.91,0.35c-0.88-0.89-1.55-2.01-2.21-3.09
		c-0.5-0.81-0.8-1.74-1.27-2.57c-1.1-1.93-2.72-3.04-5.02-3.17c-3.19-0.18-6.37-0.48-9.56-0.71c-1.11-0.08-2.23-0.15-3.35-0.19
		c-3.51-0.15-6.09-1.72-7.55-4.97c-1.27-2.84-3.09-5.15-5.78-6.85c-1.02-0.64-1.79-1.81-2.46-2.87c-1.75-2.74-3.77-5.15-6.77-6.6
		c-0.43-0.21-0.84-0.48-1.2-0.79c-1.72-1.49-2.42-3.38-1.89-5.59c0.5-2.07,1.99-3.21,4.02-3.66
		C728.9,938.53,729.7,938.49,730.61,938.38z"/>
	<path class="st0" d="M553.08,732.94c0.47,10.73-1.04,21.21-1.55,31.75c-0.49,10.05-0.47,20.13-0.67,30.2
		c-0.03,1.6,0.04,3.21-0.13,4.79c-0.22,2.04-1.21,3.67-3.28,4.32c-1.99,0.63-3.85,0.2-5.31-1.28c-1-1.01-1.95-2.15-2.62-3.39
		c-1.25-2.29-2.74-4.33-4.92-5.78c-2.54-1.69-3.31-4.13-3.22-7.05c0.23-7.67,0.4-15.35,0.59-23.02c0.09-3.78,1.36-6.84,5.04-8.55
		c3.78-1.75,5.26-4.86,5.24-8.93c-0.02-4,0.1-8,0.26-11.99c0.15-3.64-1.15-6.55-3.97-8.81c-0.12-0.1-0.23-0.23-0.36-0.32
		c-3.95-2.44-4.64-6.11-4.23-10.41c0.3-3.16,0.21-6.38,0.08-9.56c-0.09-2.29,0.11-4.47,1.12-6.54c1.38-2.83,4.19-3.68,6.78-1.85
		c1.12,0.79,2.14,1.98,2.74,3.21c1.5,3.08,3.44,5.74,6.15,7.85c2.2,1.71,2.98,4.11,2.95,6.78c-0.03,2.4-0.21,4.79-0.29,7.19
		C553.32,725.41,553.2,729.25,553.08,732.94z"/>
	<path class="st0" d="M511.1,1553.09c0,0.96,0.06,1.92-0.01,2.87c-0.22,2.72-1.33,4.96-3.85,6.22c-2.92,1.47-5.31,3.43-7.14,6.2
		c-1.41,2.14-3.74,2.93-6.26,2.96c-1.6,0.02-3.19-0.09-4.79-0.15c-2.41-0.1-4.36,0.79-5.87,2.67c-0.2,0.25-0.45,0.47-0.6,0.75
		c-2.08,4.02-5.56,4.86-9.71,4.44c-3.97-0.4-7.98-0.55-11.95-0.98c-3.87-0.42-5.75-2.07-6.51-5.92c-0.4-2-0.36-4.12-0.24-6.18
		c0.16-2.72,1.4-4.84,3.95-6.13c2.88-1.46,5.39-3.36,7.26-6.1c0.68-1,1.87-1.73,2.95-2.37c2.39-1.41,4.46-3.13,5.84-5.55
		c1.62-2.86,4.17-3.86,7.26-3.68c2.39,0.14,4.77,0.51,7.15,0.75c1.75,0.17,3.5,0.3,5.26,0.41c2.95,0.19,5.29-0.96,7.02-3.35
		c0.75-1.04,1.4-2.15,2.23-3.12c2.32-2.73,5.6-2.56,7.67,0.34c0.96,1.35,1.45,2.87,1.33,4.51c-0.12,1.59-0.4,3.17-0.59,4.75
		c-0.26,2.2-0.5,4.41-0.74,6.62C510.87,1553.07,510.98,1553.08,511.1,1553.09z"/>
	<path class="st0" d="M683.99,1032.34c-4.62-0.29-9.24-0.54-13.86-0.87c-2.79-0.2-4.88-1.68-6.03-4.14c-1.4-2.98-3.5-5.26-5.92-7.41
		c-1.4-1.24-2.48-2.92-3.43-4.56c-1.23-2.12-2.63-3.94-4.76-5.24c-3.83-2.33-5.41-5.78-4.49-10.21c0.6-2.86,0.57-5.7,0.24-8.58
		c-0.16-1.42-0.21-2.88-0.09-4.3c0.09-1.09,0.34-2.24,0.83-3.21c1.72-3.43,5.88-3.72,8.2-0.58c0.75,1.02,1.34,2.18,1.85,3.34
		c1,2.25,2.41,4.15,4.38,5.6c1.58,1.17,2.86,2.55,3.67,4.34c1.08,2.41,2.81,4.24,4.93,5.75c1.99,1.42,3.53,3.19,4.66,5.38
		c1.75,3.39,4.51,5.29,8.41,5.41c1.27,0.04,2.56,0.19,3.81,0.44c3.85,0.74,5.82,2.86,6.33,6.77c0.34,2.58,0.04,5.08-0.83,7.55
		c-1.09,3.09-3.14,4.72-6.46,4.66c-0.48-0.01-0.96,0-1.44,0C683.98,1032.44,683.99,1032.39,683.99,1032.34z"/>
	<path class="st0" d="M398.25,1573c0-1.28,0.06-2.55-0.01-3.83c-0.12-2.02-1.03-3.66-2.62-4.91c-0.25-0.2-0.5-0.41-0.78-0.55
		c-4.62-2.29-5.6-6.13-4.83-10.86c0.33-2.03,0.37-4.12,0.45-6.19c0.13-3.19,0.06-6.39,0.29-9.57c0.26-3.51,0.45-6.99-0.11-10.49
		c-0.25-1.56-0.24-3.2-0.02-4.77c0.17-1.21,0.6-2.52,1.31-3.51c1.85-2.59,5.39-2.63,7.37-0.14c0.88,1.11,1.55,2.42,2.16,3.7
		c0.85,1.77,1.93,3.32,3.66,4.3c4.25,2.38,5.35,6.24,4.6,10.64c-0.89,5.23-0.85,10.49-0.93,15.74c-0.08,5.26,0.07,10.52,0.14,15.78
		c0.03,2.23,0.2,4.47,0.09,6.7c-0.07,1.41-0.36,2.87-0.87,4.18c-1.04,2.65-3.08,3.78-5.63,3.42c-2.45-0.35-4.17-2.11-4.48-4.89
		c-0.17-1.57-0.03-3.17-0.03-4.76C398.09,1573,398.17,1573,398.25,1573z"/>
	<path class="st0" d="M686.59,1550.13c-4.51-0.67-7.67,1.34-10.15,4.94c-0.69,1.01-1.73,1.99-2.83,2.46c-2.63,1.14-4.49,3.06-6,5.33
		c-1.75,2.64-4.05,3.98-7.24,3.71c-2.21-0.18-4.47-0.13-6.63-0.57c-1.96-0.4-3.39-1.74-3.85-3.84c-0.47-2.18,0.22-4.36,2.32-5.27
		c3.5-1.53,6.1-4,8.55-6.78c0.62-0.7,1.39-1.41,2.24-1.75c2.81-1.12,4.75-3.15,6.39-5.57c1.77-2.61,4.22-3.8,7.38-3.5
		c0.32,0.03,0.64-0.03,0.96,0.02c4.58,0.65,8.06-0.95,10.66-4.81c1.86-2.77,4.59-3.79,7.94-3.22c1.41,0.24,2.86,0.24,4.29,0.28
		c2.5,0.06,4.27-1.1,5.31-3.36c0.4-0.87,0.7-1.8,1.17-2.62c1.19-2.04,3.03-2.88,5.24-2.49c1.96,0.35,3.42,1.77,3.8,3.82
		c0.41,2.19,0.03,4.22-1.93,5.52c-1.04,0.68-2.3,1.14-3.52,1.4c-2.23,0.47-3.72,1.66-4.63,3.72c-1.16,2.62-3.24,4.22-5.77,5.48
		c-1.39,0.69-2.85,1.64-3.73,2.86C694.03,1549.42,690.8,1550.82,686.59,1550.13z"/>
	<path class="st0" d="M1280.48,957.62c-4.09-0.57-8.84-1.22-13.59-1.89c-2.23-0.31-3.87-1.51-4.88-3.48
		c-1.42-2.77-3.45-4.96-5.95-6.78c-1.87-1.37-3.1-3.24-3.61-5.51c-0.7-3.1-2.71-4.57-5.76-4.84c-1.75-0.16-3.51-0.26-5.26-0.45
		c-3.27-0.37-5.93-1.85-6.94-5.07c-1.05-3.37-3.14-5.32-6.31-6.66c-3.21-1.35-4.13-3.91-3.01-7.03c0.64-1.78,1.81-3.02,3.74-3.32
		c1.89-0.28,3.57,0.28,4.65,1.85c0.8,1.16,1.45,2.51,1.8,3.87c0.85,3.3,3.08,4.68,6.23,5.02c1.91,0.2,3.82,0.37,5.71,0.63
		c2.46,0.35,4.01,1.83,4.86,4.11c0.17,0.45,0.37,0.9,0.45,1.37c0.53,3.13,2.54,4.65,5.52,5.15c1.58,0.26,3.14,0.66,4.72,0.78
		c3.1,0.23,5.49,1.56,7.16,4.18c0.26,0.4,0.56,0.78,0.8,1.19c2.21,3.72,5.25,5.92,9.81,5.59c1.25-0.09,2.56,0.14,3.8,0.43
		c3.02,0.72,4.77,3.03,4.59,5.87c-0.18,2.78-2.34,4.76-5.47,4.98C1282.76,957.66,1281.96,957.62,1280.48,957.62z"/>
	<path class="st0" d="M396,1885.27c0.27-5.1,0.58-10.21,0.8-15.31c0.08-1.91-0.04-3.83-0.09-5.74c-0.04-1.6-0.17-3.19-0.12-4.79
		c0.11-3.01,1.51-5.29,4.46-6.14c3.02-0.86,5.05-2.58,6.13-5.51c0.22-0.59,0.6-1.13,1-1.62c1.32-1.64,3.03-2.31,5.1-1.8
		c2.06,0.51,3.6,2.37,3.74,4.48c0.14,2.11-0.71,3.79-2.56,4.78c-1.11,0.59-2.38,0.9-3.59,1.33c-2,0.71-3.15,2.14-3.44,4.21
		c-0.17,1.26-0.21,2.55-0.24,3.82c-0.1,3.67-0.12,7.35-0.26,11.02c-0.27,7.18-0.66,14.36-0.88,21.55
		c-0.12,3.99,0.01,7.98,0.02,11.98c0,1.12,0.04,2.24-0.09,3.35c-0.1,0.94-0.3,1.91-0.65,2.79c-0.98,2.51-3.25,4.01-5.53,3.77
		c-2.26-0.24-4.22-2.18-4.56-4.87c-0.22-1.73-0.14-3.51-0.08-5.26c0.27-7.34,0.59-14.68,0.89-22.02
		C396.05,1885.27,396.02,1885.27,396,1885.27z"/>
	<path class="st0" d="M945.86,1054.97c-0.32,1.72-0.5,3.48-1.01,5.14c-0.65,2.11-1.99,3.68-4.39,3.84c-2.14,0.14-3.67-0.95-4.74-2.7
		c-0.67-1.09-1.17-2.27-1.79-3.39c-1.67-3.01-4.1-4.81-7.68-4.91c-1.43-0.04-2.89-0.17-4.27-0.52c-3.36-0.87-5.1-3.11-5.16-6.6
		c-0.02-1.26,0.3-2.53,0.44-3.8c0.41-3.82-0.58-6.97-4.24-8.86c-0.71-0.37-1.42-0.75-2.07-1.21c-1.92-1.36-2.44-3.3-2.02-5.51
		c0.4-2.11,1.78-3.46,3.82-3.83c1.54-0.28,3.18-0.27,4.74-0.08c1.41,0.17,2.76,0.78,4.15,1.17c2.27,0.64,4.02,1.92,5.06,4.07
		c1.49,3.08,3.63,5.59,6.38,7.65c1.11,0.83,2.06,2.06,2.72,3.3c1.39,2.6,3.21,4.82,5.51,6.56
		C944.55,1047.77,945.8,1051,945.86,1054.97z"/>
	<path class="st0" d="M1065.45,1277.1c3.25,0.34,6.6,0.58,9.91,1.07c4.64,0.69,6.4,2.6,6.65,7.26c0.11,2.05,0.02,4.17-0.37,6.18
		c-0.8,4.04-3.48,5.9-7.62,5.53c-3.18-0.28-6.34-0.66-9.51-0.99c-0.79-0.08-1.6-0.08-2.38-0.22c-3.79-0.67-6.5,0.75-8.3,4.12
		c-0.52,0.97-1.16,1.93-1.94,2.71c-2.78,2.77-7.34,1.7-8.44-2.04c-1.08-3.64-0.8-7.27,0.75-10.76c0.88-1.98,2.48-3.34,4.37-4.26
		c2.52-1.22,4.49-2.98,6.03-5.3c1.65-2.48,3.96-3.58,6.95-3.32C1062.81,1277.19,1064.09,1277.1,1065.45,1277.1z"/>
	<path class="st0" d="M392.43,1736.48c0-4.78-0.06-9.56,0.03-14.34c0.03-1.73,0.21-3.52,0.74-5.15c0.69-2.12,2.32-3.44,4.68-3.42
		c2.3,0.02,4.04,1.17,4.8,3.3c0.52,1.46,0.76,3.1,0.74,4.66c-0.03,3.02-0.36,6.04-0.52,9.07c-0.09,1.59-0.1,3.18-0.12,4.78
		c-0.04,2.57,1.04,4.62,2.95,6.27c0.6,0.52,1.24,0.99,1.87,1.49c4.46,3.51,5.38,10.41,1.99,14.93c-1.01,1.35-2.35,2.32-4.02,2.28
		c-3.01-0.07-6.05-0.22-9.02-0.69c-2.18-0.35-3.62-1.97-4.23-4.12c-0.3-1.06-0.48-2.19-0.45-3.29c0.08-2.7,0.37-5.4,0.46-8.1
		c0.08-2.55,0.02-5.1,0.02-7.65C392.39,1736.48,392.41,1736.48,392.43,1736.48z"/>
	<path class="st0" d="M846.26,1468.44c-3.48-0.28-6.03-0.42-8.57-0.7c-4.52-0.49-6.87-2.73-7.74-7.16c-0.51-2.6-0.09-5.1,0.83-7.52
		c1.13-2.99,3.48-4.65,6.64-4.49c4.46,0.24,8.93,0.5,13.35,1.06c6.92,0.88,9.09,3.99,7.85,10.86c-0.25,1.41-0.68,2.79-1.14,4.15
		c-0.8,2.36-2.46,3.7-4.98,3.77C850.12,1468.49,847.73,1468.44,846.26,1468.44z"/>
	<path class="st0" d="M925.73,1264.4c-0.26,2.01-0.37,3.28-0.59,4.53c-0.48,2.75-1.99,4.78-4.72,5.47
		c-3.07,0.77-5.04,2.49-6.13,5.45c-0.82,2.22-2.51,3.7-4.82,4.3c-2.19,0.57-3.62,1.9-4.46,3.97c-0.3,0.74-0.63,1.48-1.05,2.15
		c-1.25,1.97-3.2,2.73-5.36,2.18c-2-0.51-3.6-2.3-3.92-4.39c-0.35-2.28,0.51-4.4,2.24-5.42c0.27-0.16,0.56-0.37,0.86-0.4
		c3.75-0.39,5.96-2.59,7.44-5.92c0.88-1.98,2.61-3.23,4.82-3.56c3.17-0.48,4.14-2.66,4.28-5.46c0.07-1.43-0.13-2.88-0.03-4.3
		c0.1-1.41,0.23-2.89,0.72-4.2c0.72-1.93,2.25-3.1,4.38-3.17c2.27-0.08,4.21,0.83,5,2.98C925.14,1260.66,925.4,1262.9,925.73,1264.4
		z"/>
	<path class="st0" d="M467.16,1729.05c-2.88,0.23-4.71-0.24-6.39-1.27c-3.69-2.27-3.73-6.87,0.14-8.8c3.07-1.53,5.72-3.4,7.96-5.97
		c1.54-1.77,3.61-2.7,5.91-2.76c2.22-0.05,4.48,0.02,6.65,0.41c2.5,0.45,4.09,2.38,4.24,4.56c0.17,2.34-1.03,3.94-2.96,5.06
		c-0.55,0.32-1.16,0.53-1.77,0.73c-2.05,0.68-3.8,1.88-4.84,3.71c-1.91,3.36-4.83,4.4-8.43,4.3
		C467.21,1729,466.73,1729.09,467.16,1729.05z"/>
	<path class="st0" d="M548,870.37c0,1.26,0.13,3.34-0.04,5.39c-0.14,1.56-0.45,3.18-1.07,4.6c-1.56,3.55-5.52,4.26-8.18,1.41
		c-1.03-1.1-1.55-2.71-2.13-4.16c-0.28-0.7-0.29-1.59-0.19-2.36c0.61-4.9,0.92-9.81,0.86-14.75c-0.01-0.78,0.2-1.59,0.46-2.33
		c0.75-2.13,2.22-3.48,4.54-3.66c2.32-0.18,4.01,0.9,5.09,2.88c1.17,2.15,1.53,4.51,1.3,6.94
		C548.46,866.07,548.26,867.81,548,870.37z"/>
	<path class="st0" d="M896.37,1443.6c1.37,0.21,3.28,0.42,5.14,0.84c1.86,0.41,3.09,1.64,3.54,3.52c0.49,2.03,0.01,3.84-1.6,5.2
		c-0.84,0.71-1.82,1.34-2.83,1.75c-2.02,0.81-3.54,2.1-4.67,3.94c-0.41,0.67-0.95,1.29-1.52,1.84c-2.94,2.88-7.02,1.93-8.35-1.99
		c-0.35-1.04-0.42-2.19-0.49-3.3c-0.06-0.95-0.03-1.93,0.12-2.87C886.85,1445.13,889.42,1443.86,896.37,1443.6z"/>
	<path class="st0" d="M478.7,434.69c0.06,2.27-1.1,4.26-2.94,5.03c-1.83,0.76-4.19,0.28-5.67-1.36c-0.72-0.81-1.39-1.8-1.69-2.82
		c-0.97-3.29-2.93-5.43-6.14-6.78c-2.91-1.22-3.96-3.72-3.35-6.59c0.39-1.83,1.36-3.23,3.23-3.78c2-0.59,3.89-0.22,5.2,1.41
		c0.97,1.21,1.71,2.68,2.26,4.14c0.78,2.05,2,3.54,3.99,4.5c1.13,0.55,2.21,1.27,3.18,2.07
		C478.06,431.55,478.67,433.01,478.7,434.69z"/>
	<path class="st0" d="M538.24,823.92c0.12-0.77,0.21-2.37,0.62-3.9c0.71-2.67,2.61-4.16,5.08-4.29c2.68-0.13,4.8,1.32,5.72,4.13
		c1.29,3.94,1.14,7.84-0.74,11.6c-0.83,1.66-2.06,2.86-4,2.98c-2.27,0.13-4.03-0.87-5.18-2.79
		C538.48,829.54,538.24,827.16,538.24,823.92z"/>
	<path class="st0" d="M1196.33,901.73c0.35-2.67,0.75-5.16,2-7.46c0.98-1.82,2.44-2.89,4.59-2.86c2.31,0.03,3.93,1.17,4.89,3.21
		c0.4,0.84,0.75,1.84,0.7,2.74c-0.15,2.84-0.47,5.68-0.8,8.51c-0.07,0.61-0.4,1.21-0.71,1.76c-1,1.75-2.37,3.01-4.53,2.99
		c-2.14-0.02-3.73-1.17-4.51-3.01C1197.17,905.76,1196.85,903.7,1196.33,901.73z"/>
	<path class="st0" d="M754.62,1516.98c-0.32,1.86-0.44,3.79-1.01,5.58c-0.66,2.07-2.09,3.56-4.48,3.67
		c-2.34,0.11-3.97-1.07-4.92-3.1c-1.86-3.97-1.75-8,0.04-11.96c0.32-0.7,0.87-1.34,1.43-1.88c2.42-2.35,5.96-1.8,7.64,1.17
		C754.47,1512.48,754.44,1514.71,754.62,1516.98z"/>
	<path class="st0" d="M1142.18,1202.13c0.15-3.32,2.34-5.43,5.45-5.24c3.1,0.19,5.25,2.65,5,5.73c-0.26,3.23-2.5,5.14-5.76,4.91
		C1143.82,1207.31,1142.03,1205.26,1142.18,1202.13z"/>
	<path class="st0" d="M1154.49,1327.17c0.05,3.07-1.96,5.35-4.78,5.4c-3.18,0.06-5.53-2.15-5.55-5.22c-0.02-3,2.09-5.4,4.79-5.47
		C1152,1321.8,1154.44,1324.13,1154.49,1327.17z"/>
	<path class="st0" d="M948.18,1419.38c3.14-0.03,5.42,2.2,5.45,5.32c0.02,3.01-2.08,5.2-4.97,5.18c-3.26-0.02-5.4-2.12-5.4-5.31
		C943.25,1421.44,945.18,1419.41,948.18,1419.38z"/>
	<path class="st0" d="M1280.25,1546.45c-0.08,3.04-2.52,5.37-5.53,5.27c-2.82-0.1-4.87-2.38-4.84-5.37
		c0.04-3.25,2.22-5.32,5.44-5.17C1278.27,1541.33,1280.32,1543.53,1280.25,1546.45z"/>
	<path class="st0" d="M1129.66,1330.05c3.12-0.07,5.41,2.13,5.55,5.32c0.13,2.89-1.7,5.04-4.42,5.2c-3.29,0.19-5.79-2.21-5.8-5.56
		C1125,1332.09,1126.86,1330.11,1129.66,1330.05z"/>
	<path class="st0" d="M877.22,1466.31c-0.1,2.83-2.14,4.83-4.83,4.73c-2.72-0.09-4.71-2.41-4.72-5.49c0-2.93,1.9-5.02,4.55-4.98
		C875.15,1460.61,877.33,1463.12,877.22,1466.31z"/>
</g>
</svg>
