<?xml version="1.0" encoding="utf-8"?>
<!-- Generator: Adobe Illustrator 23.0.2, SVG Export Plug-In . SVG Version: 6.00 Build 0)  -->
<svg version="1.1" id="récrée_2_" xmlns="http://www.w3.org/2000/svg" xmlns:xlink="http://www.w3.org/1999/xlink" x="0px"
	 y="0px" viewBox="0 0 1602.48 3061.44" style="enable-background:new 0 0 1602.48 3061.44;" xml:space="preserve">
<style type="text/css">
	.st0{fill:#D71818;}
	.st1{fill:#FFFDFD;}
</style>
<g id="couleur_xA0_Image_1_">
	<g>
		<path class="st0" d="M695.54,158.26c4.18,0.28,8.23-0.26,12.34-1.22c4.01-0.93,8.23-1.27,12.36-1.31
			c4.5-0.04,8.89-0.21,13.29-1.37c4.64-1.22,9.42-1.81,14.26-1.54c3.22,0.18,6.4-0.1,9.5-1.02c6.87-2.04,13.88-2.23,20.92-1.38
			c4.17,0.5,8.27,0.41,12.43-0.07c6.4-0.74,12.81-0.6,19.06,1.09c3.46,0.93,6.91,1.2,10.45,1.03c5.14-0.24,10.22,0.2,15.22,1.55
			c3.41,0.92,6.88,1.29,10.45,1.04c5.47-0.38,10.89,0.41,16.15,1.82c3.45,0.93,6.88,1.39,10.42,1.25
			c7.14-0.29,14.02,1.01,20.65,3.61c3.3,1.29,6.66,2.08,10.24,2.29c5.79,0.34,11.38,1.83,16.64,4.27c3.81,1.77,7.7,2.97,11.89,3.5
			c5.43,0.68,10.61,2.41,15.43,5.05c3.41,1.87,6.97,3.23,10.78,3.89c5.75,0.99,11.08,3.11,16.08,6.03c2.79,1.63,5.68,2.97,8.85,3.57
			c6.06,1.13,11.61,3.55,16.84,6.72c2.76,1.68,5.61,2.96,8.77,3.75c6.58,1.64,12.65,4.5,18.1,8.57c2.59,1.94,5.4,3.38,8.48,4.39
			c6.46,2.12,12.3,5.39,17.4,9.9c2.44,2.16,5.21,3.68,8.18,4.91c4.76,1.97,9.17,4.56,13.13,7.85c2.49,2.07,5.25,3.54,8.28,4.72
			c6.62,2.59,12.61,6.25,17.62,11.36c2.27,2.31,4.85,4.13,7.74,5.58c8.18,4.12,14.81,10.02,19.85,17.66
			c1.97,2.98,4.39,5.45,7.14,7.7c4.24,3.46,7.88,7.5,10.76,12.17c1.69,2.75,3.72,5.16,6.23,7.23c5.24,4.32,9.48,9.51,12.66,15.52
			c1.51,2.86,3.39,5.4,5.77,7.6c5.5,5.07,9.57,11.14,12.38,18.06c1.1,2.7,2.64,5.08,4.56,7.27c3.61,4.12,6.47,8.74,8.59,13.79
			c1.37,3.27,3.16,6.24,5.53,8.92c4.51,5.1,7.7,10.97,9.8,17.45c0.99,3.05,2.2,5.98,4.16,8.59c3.89,5.18,6.58,10.98,8.25,17.2
			c0.76,2.84,1.93,5.4,3.57,7.8c3.85,5.62,6.41,11.81,7.81,18.44c0.68,3.18,1.86,6.08,3.47,8.88c2.4,4.18,4.26,8.59,5.33,13.31
			c0.79,3.46,2.33,6.59,4.2,9.62c3.57,5.78,5.95,12.04,6.82,18.8c0.42,3.23,1.44,6.21,2.9,9.08c2.78,5.46,4.51,11.23,5.33,17.33
			c0.38,2.81,1.49,5.53,2.32,8.27c0.18,0.61,0.53,1.16,0.81,1.74c2.24,4.66,2.82,9.84,4.61,14.61c1.67,4.47,4.41,8.55,6.04,13.03
			c1.41,3.87,2.18,8.02,2.77,12.11c0.46,3.19,0.91,6.31,2.2,9.28c2.71,6.24,4.2,12.76,4.19,19.57c0,3.26,0.75,6.35,1.76,9.39
			c2.14,6.44,3.06,13.03,3.01,19.82c-0.02,2.85,0.21,5.8,0.93,8.54c1.41,5.32,2.04,10.69,1.79,16.15c-0.16,3.57,0.46,6.96,1.33,10.4
			c1.83,7.19,2.63,14.47,1,21.85c-0.63,2.85-0.58,5.71,0.04,8.57c1.31,6.03,1.23,12.07-0.07,18.09c-0.55,2.54-0.5,5.09,0.04,7.62
			c1.27,6.03,1.32,12.06,0,18.1c-0.62,2.86-0.47,5.71,0.12,8.57c1.19,5.71,1.15,11.44-0.07,17.15c-0.61,2.86-0.58,5.71,0.02,8.57
			c1.2,5.71,1.23,11.44,0.04,17.15c-0.59,2.86-0.7,5.7-0.08,8.57c1.3,6.03,1.23,12.07-0.06,18.1c-0.54,2.54-0.52,5.08,0,7.62
			c0.13,0.63,0.33,1.25,0.36,1.88c0.24,4.78,0.19,9.6,0.73,14.35c0.5,4.43,1.9,8.76,2.36,13.19c0.4,3.79,0.28,7.68-0.07,11.48
			c-0.41,4.49-0.43,8.9-0.03,13.39c0.36,4.12,0.36,8.32,0.03,12.44c-0.36,4.48-0.61,8.91,0.01,13.39c0.62,4.46,0.54,8.94-0.04,13.4
			c-0.5,3.83-0.62,7.64-0.08,11.48c0.72,5.1,0.69,10.21-0.02,15.31c-0.49,3.51-0.48,7.01,0,10.52c0.7,5.1,0.71,10.21,0.02,15.31
			c-0.48,3.51-0.55,7.01-0.03,10.52c0.14,0.95,0.31,1.91,0.29,2.86c-0.13,7.72,0.94,15.26,2.72,22.77c1.18,5,0.97,10.2,0.13,15.28
			c-0.58,3.51-0.61,6.93-0.16,10.47c0.53,4.1,0.74,8.31,0.46,12.43c-0.31,4.51-0.24,8.93,0.51,13.37c0.26,1.58,0.51,3.17,0.55,4.77
			c0.15,5.15,1.1,10.1,2.53,15.07c1.95,6.8,2.71,13.81,1.27,20.89c-0.78,3.81-0.71,7.63,0.01,11.45c0.91,4.77,0.95,9.54,0.02,14.31
			c-0.75,3.82-0.76,7.63-0.03,11.45c0.97,5.09,0.95,10.18-0.11,15.26c-0.93,4.45-0.76,8.87,0.03,13.34
			c3.91,22.02-9.11,48.98-36.52,56.9c-5.9,1.7-11.95,2.53-18.03,1.79c-6.41-0.78-12.73-0.77-19.12,0.06
			c-2.81,0.36-5.76,0.11-8.6-0.23c-4.79-0.57-9.55-0.82-14.34-0.05c-4.46,0.71-8.93,0.61-13.39-0.09
			c-3.82-0.61-7.65-0.64-11.47-0.01c-4.78,0.78-9.56,0.72-14.34,0.02c-3.82-0.56-7.63-0.64-11.48-0.12
			c-7.38,0.99-14.66,0.57-21.88-1.39c-2.43-0.66-5.04-0.68-7.58-0.95c-0.63-0.07-1.28-0.01-1.92,0.03
			c-4.84,0.33-9.55-1.03-14.32-1.11c-4.44-0.07-8.9,1.04-13.35,1.04c-4.45,0-8.9-1.04-13.36-1.05c-4.13-0.01-8.26,0.96-12.4,1.07
			c-3.17,0.09-6.38-0.37-9.54-0.8c-2.57-0.35-5.08-0.46-7.63,0.04c-6.04,1.17-12.09,1.18-18.12,0c-2.88-0.56-5.71-0.43-8.58,0.1
			c-5.72,1.06-11.46,1.06-17.18-0.04c-2.87-0.55-5.7-0.52-8.57,0.02c-5.72,1.09-11.46,1.08-17.18-0.01
			c-3.2-0.61-6.33-0.47-9.52,0.11c-5.4,0.98-10.84,1-16.23-0.06c-3.2-0.63-6.32-0.53-9.52,0.05c-5.4,0.98-10.84,1-16.23-0.02
			c-3.19-0.6-6.33-0.65-9.52-0.04c-5.72,1.09-11.46,1.03-17.18-0.07c-2.87-0.55-5.7-0.52-8.58,0.03c-5.72,1.1-11.46,1.1-17.17,0
			c-2.87-0.55-5.71-0.58-8.57-0.02c-5.72,1.12-11.46,1.13-17.18,0.06c-3.2-0.6-6.33-0.56-9.52,0.05
			c-5.39,1.03-10.84,1.02-16.23-0.02c-3.2-0.62-6.33-0.59-9.52,0c-5.72,1.06-11.46,0.99-17.18-0.1c-2.87-0.55-5.7-0.52-8.57,0.05
			c-5.39,1.07-10.83,1.1-16.23,0.11c-3.19-0.58-6.33-0.81-9.52-0.11c-3.18,0.7-6.33,0.44-9.51-0.23
			c-5.66-1.19-11.41-1.63-17.18-1.36c-2.93,0.13-5.75-0.19-8.5-1.14c-5.49-1.89-11.18-2.78-16.93-3.23
			c-3.87-0.3-7.54-1.08-11.14-2.57c-7.79-3.22-15.95-4.77-24.38-4.34c-4.56,0.23-8.85-0.63-13.21-1.81
			c-16.8-4.55-32.95-2.82-48.33,5.44c-1.13,0.6-2.21,1.29-3.33,1.9c-2.86,1.57-5.91,2.37-9.19,2.38c-4.17,0.02-8.32-0.03-12.39-1.09
			c-2.48-0.64-4.97-1.25-7.47-1.78c-3.99-0.86-7.64-0.35-10.57,2.83c-0.22,0.23-0.49,0.41-0.71,0.64
			c-4.79,4.84-11.65,6.79-16.45,11.51c-4.84,4.75-10.03,8.88-15.92,12.23c-2.18,1.24-4.12,3.04-5.88,4.86
			c-3.38,3.49-7.17,6.38-11.48,8.58c-4.6,2.35-8.76,5.22-12.3,9.03c-3.3,3.56-7.36,6.16-11.7,8.27c-3.21,1.56-6.03,3.55-8.55,6.08
			c-3.87,3.89-8.38,6.95-13.35,9.24c-3.23,1.49-6.21,3.25-8.77,5.75c-4.17,4.07-9.04,7.15-14.37,9.42c-3.58,1.53-6.71,3.6-9.69,6.09
			c-2.44,2.04-5.09,3.92-7.9,5.41c-3.45,1.83-6.34,4.23-9.1,6.93c-2.5,2.45-5.2,4.77-8.07,6.76c-3.19,2.22-5.97,4.76-8.43,7.76
			c-3.68,4.48-8.06,8.2-13.06,11.19c-2.19,1.31-4.39,2.66-6.41,4.21c-9.11,7.03-19.28,11.26-30.81,12.03
			c-1.75,0.12-3.04,0.92-3.66,2.58c-2.12,5.73-4.9,11.09-8.41,16.12c-1.25,1.79-2,3.99-2.7,6.09c-2.25,6.75-5.61,12.85-9.98,18.47
			c-2.33,3-3.91,6.61-6.34,9.51c-2.23,2.67-5.19,4.72-7.74,7.14c-1.15,1.09-2.18,2.36-3.08,3.67c-2.01,2.94-4.46,5.39-7.29,7.56
			c-2.27,1.75-4.4,3.73-6.35,5.83c-2.74,2.94-6.12,4.56-9.92,5.49c-23.58,5.73-47.42-6.54-57.02-25.5
			c-9.68-19.12-8.36-37.61,3.73-55.32c7.05-7.7,9.09-17.42,10.94-27.2c0.24-1.24,0.21-2.55,0.13-3.82
			c-0.29-4.18-0.03-8.31,0.67-12.43c0.55-3.18,0.62-6.38,0.03-9.56c-1-5.41-1.07-10.8-0.06-16.22c0.66-3.49,0.48-7-0.01-10.51
			c-0.36-2.53-0.96-5.14-0.65-7.62c0.8-6.47-0.31-12.73-1.41-19.02c-0.67-3.81-0.85-7.64-0.25-11.47c0.55-3.52,0.45-6.96-0.31-10.47
			c-1.31-5.99-1.32-12.08-0.52-18.15c0.46-3.52,0.52-6.99,0.03-10.51c-0.75-5.42-0.71-10.85,0.06-16.27c0.46-3.2,0.4-6.36-0.04-9.56
			c-0.75-5.42-0.77-10.85,0.02-16.27c0.47-3.2,0.4-6.36-0.03-9.56c-0.74-5.42-0.75-10.85,0-16.27c0.44-3.19,0.49-6.36,0.04-9.56
			c-0.77-5.41-0.83-10.85-0.04-16.27c0.51-3.52,0.38-7-0.07-10.51c-0.67-5.1-0.67-10.22,0.05-15.32c0.5-3.52,0.47-6.99-0.02-10.51
			c-0.71-5.09-0.7-10.22,0.01-15.31c0.5-3.52,0.48-6.99,0-10.51c-0.7-5.09-0.73-10.22-0.03-15.31c0.48-3.51,0.45-6.98,0.07-10.51
			c-0.4-3.81-0.47-7.66-0.53-11.49c-0.04-2.59-0.4-5.05-1.43-7.47c-2.52-5.93-4.17-12.1-4.25-18.6c-0.04-3.3-1.26-6.25-2.4-9.23
			c-2.65-6.99-3.77-14.23-3.15-21.66c0.29-3.49,1.02-6.95,1.78-10.38c0.83-3.75,1.63-7.46,2.02-11.31
			c1.19-11.86,6.03-22.12,14.32-30.71c0.22-0.23,0.42-0.5,0.68-0.67c5.07-3.38,5.62-8.36,4.41-13.63c-1.36-5.95-2.43-11.89-2.66-18
			c-0.06-1.55-0.68-3.12-1.22-4.62c-2.61-7.3-4.03-14.77-3.76-22.58c0.09-2.52-0.21-5.15-0.89-7.57c-1.5-5.3-2.13-10.67-1.93-16.13
			c0.13-3.57-0.29-7-1.25-10.42c-1.56-5.59-2.22-11.3-1.81-17.1c0.23-3.22,0.12-6.41-0.75-9.52c-1.83-6.59-1.93-13.3-1.06-20
			c0.5-3.85,0.53-7.61-0.04-11.45c-0.75-5.09-0.65-10.22,0.13-15.31c0.49-3.2,0.46-6.34-0.01-9.54c-0.8-5.41-0.81-10.85-0.02-16.27
			c0.47-3.19,0.55-6.34,0.05-9.54c-0.84-5.41-0.87-10.86-0.05-16.26c0.53-3.53,0.42-6.98-0.04-10.5
			c-0.96-7.37-0.69-14.68,1.46-21.87c0.82-2.77,1.22-5.59,1.11-8.52c-0.28-7.76,0.86-15.32,3.87-22.52c1-2.4,1.46-4.87,1.73-7.43
			c0.52-4.77,1.16-9.51,2.62-14.13c0.67-2.1,0.98-4.4,0.99-6.61c0.02-7.44,1.16-14.67,3.76-21.63c0.86-2.29,0.58-4.35-0.37-6.47
			c-5.36-11.85-6.01-24.04-2.75-36.56c0.56-2.13,0.71-4.43,0.66-6.64c-0.15-6.11,0.2-12.12,1.78-18.08
			c0.65-2.43,0.84-5.07,0.72-7.59c-0.3-6.47,0.49-12.79,2.29-18.96c0.73-2.5,1.14-4.99,1.01-7.56c-0.41-8.13,1.05-15.94,4.2-23.42
			c1.01-2.4,1.54-4.85,1.69-7.43c0.36-6.13,1.78-12.03,4.31-17.61c1.61-3.55,2.49-7.25,2.89-11.09c0.76-7.13,3.2-13.7,6.91-19.77
			c2.19-3.57,4.01-7.22,5.13-11.29c1.62-5.91,4.43-11.32,8.17-16.19c2.55-3.32,4.72-6.75,6.24-10.71
			c3.54-9.18,9.46-16.65,17.47-22.38c3.15-2.25,5.93-4.8,8.32-7.87c4.57-5.89,10.24-10.57,16.89-13.95c3.18-1.61,6.06-3.54,8.5-6.14
			c3.54-3.78,8.28-6.01,12.13-9.36c3.61-3.14,6.6-6.97,10.2-10.12c2.62-2.29,5.7-4.12,8.73-5.88c2.8-1.62,5.38-3.43,7.59-5.79
			c3.75-4,8.02-7.35,12.88-9.9c2.88-1.51,5.29-3.56,7.52-5.89c7.29-7.63,16.13-12.53,26.42-14.7c3.2-0.67,6.12-1.74,8.85-3.48
			c3.8-2.42,7.83-4.4,12.14-5.66c3.13-0.91,5.92-2.35,8.57-4.19c5.58-3.86,11.62-6.73,18.29-8.12c2.86-0.6,5.45-1.75,7.94-3.26
			c4.95-2.99,10.17-5.38,15.89-6.54c1.95-0.4,3.52-1.44,4.72-3.06c1.14-1.54,2.25-3.12,3.5-4.57
			c10.42-12.07,23.69-18.22,39.57-18.52c4.82-0.09,9.49-0.44,14.22-1.61c3.99-0.99,8.24-0.92,12.37-1.26
			c1.91-0.16,3.91,0.14,5.73-0.32c6.21-1.55,12.39-3.09,18.84-3.43c1.85-0.1,3.7-0.97,5.48-1.67c5.09-2.03,10.3-3.51,15.79-3.8
			c2.93-0.16,5.68-1.01,8.3-2.2c6.52-2.95,13.4-4.27,20.48-4.53c3.57-0.13,6.93-0.9,10.32-1.95
			C684.05,159.02,689.69,157.86,695.54,158.26z M357.4,822.5c-0.19,8.89,1.04,15.44,3.67,21.72c1.11,2.65,2.19,5.33,3.4,7.93
			c1.91,4.11,3.23,8.41,3.34,12.92c0.21,8.65,1,17.19,3.04,25.61c0.44,1.83,0.22,3.82,0.33,5.73c0.05,0.96,0.14,1.91,0.24,2.86
			c0.1,1,1.62,2.27,2.77,2.17c2.22-0.2,4.5-0.23,6.61-0.84c5.61-1.62,11.3-2.19,17.08-1.88c3.57,0.19,6.97-0.31,10.42-1.14
			c6.88-1.65,13.83-2.4,20.92-1.07c2.14,0.4,4.5,0.37,6.65-0.05c7.9-1.56,15.39-4.3,21.83-9.29c5.36-4.16,11.09-7.48,17.55-9.65
			c2.38-0.8,4.68-2.09,6.73-3.57c5.77-4.16,11.99-7.28,18.8-9.32c2.1-0.63,4.14-1.71,5.99-2.92c4.03-2.64,8.16-5.03,12.66-6.77
			c4.58-1.77,8.1-5.08,11.56-8.4c0.8-0.77,1.13-2.28,1.23-3.49c0.12-1.57-0.02-3.21-0.37-4.76c-0.99-4.41-1.3-8.87-0.92-13.35
			c0.34-3.89-0.13-7.66-1.03-11.41c-1.53-6.32-1.65-12.67-0.49-19.04c0.52-2.87,0.7-5.66,0.11-8.55
			c-1.23-6.02-1.18-12.08,0.02-18.11c0.51-2.55,0.58-5.06,0.05-7.61c-1.25-6.02-1.3-12.08-0.1-18.1c0.57-2.88,0.48-5.68-0.06-8.55
			c-1.08-5.71-1.12-11.45,0.02-17.16c0.57-2.87,0.63-5.68,0.05-8.55c-1.22-6.03-1.15-12.08,0.07-18.1c0.52-2.56,0.42-5.06-0.06-7.61
			c-1.15-6.03-1.21-12.08,0.02-18.11c0.52-2.55,0.58-5.06,0.05-7.61c-1.24-6.02-1.29-12.08-0.1-18.1c0.57-2.88,0.5-5.68-0.04-8.56
			c-1.25-6.69-1.05-13.35,0.61-19.98c0.93-3.74,1.25-7.51,1.06-11.4c-0.17-3.48,0.04-7.06,0.67-10.48
			c1.38-7.53,3.15-14.96,2.83-22.73c-0.1-2.49,0.75-5.04,1.29-7.53c0.82-3.76,1.42-7.49,1.07-11.4c-0.46-5.15,0.47-10.24,1.74-15.19
			c0.97-3.77,1.46-7.5,1.35-11.36c-0.13-4.5,0.28-8.93,1.46-13.3c0.83-3.09,1.38-6.25,1.12-9.48c-0.48-5.81,0.35-11.51,1.72-17.11
			c0.85-3.47,1.17-6.89,1.02-10.43c-0.2-5.13,0.1-10.24,1.59-15.2c0.93-3.11,1.23-6.26,1.08-9.48c-0.4-8.79,1.24-17.17,5-25.14
			c1.24-2.62,1.95-5.4,2.16-8.31c0.39-5.49,1.94-10.69,4.2-15.67c1.21-2.66,1.89-5.38,2.24-8.27c0.73-6.05,2.07-11.96,4.81-17.48
			c1.44-2.88,2.17-5.96,2.5-9.2c0.63-6.1,2.44-11.91,5.39-17.29c2.03-3.7,3.23-7.62,4-11.74c1.01-5.4,3.19-10.37,5.94-15.1
			c0.96-1.66,2.1-3.22,3.05-4.88c1.61-2.8,2.71-5.78,3.07-9.02c0.08-0.7-0.91-2-1.59-1.99c-7.32,0.1-14.67-0.44-21.84,1.86
			c-2.41,0.77-5.01,1.18-7.54,1.26c-3.91,0.12-7.56,1-11.14,2.5c-1.76,0.74-3.62,1.31-5.49,1.68c-3.19,0.62-6.1,1.83-8.83,3.56
			c-3.53,2.24-7.31,3.98-11.3,5.18c-3.42,1.03-6.52,2.53-9.39,4.65c-1.54,1.13-3.2,2.13-4.9,3c-2.88,1.47-5.44,3.33-7.66,5.68
			c-3.99,4.22-8.59,7.67-13.79,10.24c-2.63,1.3-4.85,3.05-6.88,5.12c-1.34,1.37-2.71,2.73-4.21,3.91c-2.54,2.01-4.67,4.34-6.31,7.14
			c-2.29,3.88-5.14,7.33-8.42,10.41c-2.36,2.21-4.22,4.74-5.77,7.59c-1.37,2.52-3.03,4.9-4.75,7.19c-1.75,2.32-3.26,4.74-4.2,7.49
			c-1.66,4.88-4.05,9.39-7.09,13.54c-1.91,2.61-3.43,5.4-4.38,8.48c-1.53,4.94-3.87,9.47-6.84,13.66c-1.87,2.64-3.32,5.44-4.24,8.54
			c-1.28,4.32-3.09,8.41-5.5,12.2c-1.91,3-3.34,6.17-4.19,9.62c-1.31,5.33-3.48,10.29-6.46,14.89c-1.58,2.44-2.86,5.01-3.48,7.85
			c-1.18,5.37-3.37,10.32-6.19,15c-1.5,2.49-2.73,5.08-3.28,7.93c-1.06,5.4-3.16,10.38-5.82,15.15c-1.25,2.25-2.06,4.64-2.47,7.21
			c-0.81,5.08-2.48,9.91-4.82,14.5c-1.46,2.86-2.53,5.82-2.91,9.07c-0.57,4.79-2.16,9.32-3.98,13.78c-0.96,2.35-1.77,4.8-2.26,7.28
			c-0.99,5.01-1.4,10.17-3.46,14.91c-2.24,5.17-1.11,10.77-2.37,16.05c-0.44,1.87-0.73,3.79-1.38,5.58
			c-1.33,3.68-1.7,7.45-1.61,11.32c0.13,5.51-0.84,10.89-2.81,15.97c-1.88,4.84-2.77,9.75-3.28,14.88c-0.4,4.1-1.94,8.09-2.48,12.19
			c-0.58,4.42,0.33,8.93-0.59,13.38c-0.85,4.11-0.81,8.27-0.05,12.4c0.82,4.45,0.83,8.91,0.06,13.36
			c-0.72,4.13-0.81,8.26-0.07,12.41c0.85,4.77,0.85,9.54-0.03,14.31c-0.76,4.14-0.62,8.28,0.12,12.4c0.75,4.14,0.74,8.28,0.02,12.41
			c-0.78,4.46-0.68,8.88-0.11,13.36c0.44,3.46,0.5,7.01,0.38,10.5c-0.09,2.59,0.08,5.08,0.64,7.6c1.31,5.94,2.36,11.92,1.86,18.06
			c-0.08,0.95-0.14,1.97,0.12,2.86c1.77,6.01,1.01,12.01,0.13,18.03C357.32,821.36,357.38,822.98,357.4,822.5z"/>
		<path class="st1" d="M357.4,822.5c-0.02,0.48-0.08-1.14,0.15-2.71c0.88-6.02,1.64-12.02-0.13-18.03c-0.26-0.89-0.2-1.92-0.12-2.86
			c0.51-6.14-0.55-12.12-1.86-18.06c-0.55-2.52-0.73-5.01-0.64-7.6c0.12-3.5,0.06-7.04-0.38-10.5c-0.57-4.49-0.67-8.91,0.11-13.36
			c0.72-4.13,0.72-8.27-0.02-12.41c-0.74-4.13-0.89-8.27-0.12-12.4c0.88-4.77,0.87-9.54,0.03-14.31c-0.74-4.14-0.64-8.27,0.07-12.41
			c0.77-4.45,0.76-8.91-0.06-13.36c-0.76-4.13-0.8-8.29,0.05-12.4c0.92-4.45,0.01-8.96,0.59-13.38c0.54-4.1,2.07-8.09,2.48-12.19
			c0.51-5.13,1.4-10.04,3.28-14.88c1.97-5.08,2.94-10.47,2.81-15.97c-0.09-3.87,0.27-7.64,1.61-11.32c0.65-1.79,0.94-3.72,1.38-5.58
			c1.26-5.28,0.12-10.89,2.37-16.05c2.06-4.74,2.47-9.9,3.46-14.91c0.49-2.48,1.31-4.93,2.26-7.28c1.82-4.46,3.41-8.99,3.98-13.78
			c0.38-3.25,1.45-6.21,2.91-9.07c2.34-4.59,4.01-9.42,4.82-14.5c0.41-2.57,1.21-4.96,2.47-7.21c2.66-4.78,4.76-9.75,5.82-15.15
			c0.56-2.85,1.78-5.44,3.28-7.93c2.82-4.68,5.01-9.63,6.19-15c0.62-2.84,1.9-5.4,3.48-7.85c2.98-4.6,5.14-9.56,6.46-14.89
			c0.85-3.45,2.27-6.62,4.19-9.62c2.41-3.79,4.22-7.89,5.5-12.2c0.92-3.09,2.37-5.89,4.24-8.54c2.97-4.19,5.31-8.73,6.84-13.66
			c0.96-3.08,2.47-5.87,4.38-8.48c3.04-4.15,5.43-8.66,7.09-13.54c0.94-2.75,2.45-5.17,4.2-7.49c1.73-2.29,3.39-4.67,4.75-7.19
			c1.55-2.85,3.41-5.38,5.77-7.59c3.28-3.08,6.14-6.52,8.42-10.41c1.65-2.8,3.77-5.13,6.31-7.14c1.5-1.18,2.87-2.55,4.21-3.91
			c2.04-2.07,4.26-3.82,6.88-5.12c5.21-2.57,9.8-6.02,13.79-10.24c2.22-2.35,4.78-4.21,7.66-5.68c1.7-0.87,3.37-1.87,4.9-3
			c2.87-2.11,5.97-3.62,9.39-4.65c3.99-1.2,7.77-2.94,11.3-5.18c2.73-1.73,5.64-2.94,8.83-3.56c1.87-0.36,3.73-0.94,5.49-1.68
			c3.58-1.5,7.23-2.38,11.14-2.5c2.53-0.08,5.14-0.48,7.54-1.26c7.16-2.3,14.52-1.76,21.84-1.86c0.68-0.01,1.67,1.29,1.59,1.99
			c-0.36,3.23-1.45,6.22-3.07,9.02c-0.96,1.66-2.09,3.22-3.05,4.88c-2.74,4.73-4.93,9.7-5.94,15.1c-0.77,4.12-1.97,8.03-4,11.74
			c-2.95,5.38-4.76,11.19-5.39,17.29c-0.33,3.23-1.07,6.31-2.5,9.2c-2.75,5.52-4.08,11.43-4.81,17.48
			c-0.35,2.89-1.03,5.61-2.24,8.27c-2.26,4.98-3.81,10.18-4.2,15.67c-0.21,2.91-0.92,5.7-2.16,8.31c-3.77,7.97-5.41,16.35-5,25.14
			c0.15,3.22-0.15,6.37-1.08,9.48c-1.48,4.96-1.79,10.07-1.59,15.2c0.14,3.55-0.17,6.97-1.02,10.43c-1.37,5.6-2.2,11.3-1.72,17.11
			c0.26,3.24-0.29,6.39-1.12,9.48c-1.17,4.37-1.59,8.81-1.46,13.3c0.11,3.86-0.38,7.59-1.35,11.36c-1.27,4.94-2.2,10.04-1.74,15.19
			c0.35,3.9-0.26,7.64-1.07,11.4c-0.54,2.49-1.4,5.04-1.29,7.53c0.32,7.76-1.45,15.2-2.83,22.73c-0.63,3.43-0.84,7-0.67,10.48
			c0.19,3.89-0.13,7.66-1.06,11.4c-1.66,6.62-1.86,13.29-0.61,19.98c0.54,2.87,0.61,5.67,0.04,8.56c-1.19,6.03-1.15,12.08,0.1,18.1
			c0.53,2.55,0.47,5.07-0.05,7.61c-1.23,6.03-1.17,12.08-0.02,18.11c0.49,2.55,0.58,5.05,0.06,7.61c-1.23,6.02-1.29,12.08-0.07,18.1
			c0.58,2.88,0.52,5.69-0.05,8.55c-1.14,5.71-1.1,11.46-0.02,17.16c0.54,2.87,0.63,5.67,0.06,8.55c-1.2,6.03-1.15,12.08,0.1,18.1
			c0.53,2.55,0.46,5.06-0.05,7.61c-1.2,6.03-1.25,12.08-0.02,18.11c0.59,2.89,0.41,5.68-0.11,8.55c-1.16,6.36-1.04,12.72,0.49,19.04
			c0.91,3.74,1.37,7.52,1.03,11.41c-0.39,4.48-0.08,8.93,0.92,13.35c0.35,1.54,0.49,3.19,0.37,4.76c-0.1,1.21-0.42,2.72-1.23,3.49
			c-3.46,3.31-6.98,6.62-11.56,8.4c-4.5,1.74-8.63,4.13-12.66,6.77c-1.85,1.21-3.88,2.29-5.99,2.92c-6.82,2.04-13.04,5.16-18.8,9.32
			c-2.04,1.48-4.35,2.77-6.73,3.57c-6.46,2.17-12.19,5.49-17.55,9.65c-6.43,4.99-13.92,7.73-21.83,9.29
			c-2.14,0.42-4.5,0.46-6.65,0.05c-7.09-1.34-14.03-0.59-20.92,1.07c-3.45,0.83-6.86,1.33-10.42,1.14
			c-5.78-0.31-11.47,0.26-17.08,1.88c-2.11,0.61-4.4,0.64-6.61,0.84c-1.15,0.1-2.67-1.17-2.77-2.17c-0.1-0.95-0.18-1.91-0.24-2.86
			c-0.11-1.91,0.12-3.9-0.33-5.73c-2.04-8.43-2.83-16.97-3.04-25.61c-0.11-4.51-1.43-8.81-3.34-12.92c-1.21-2.61-2.29-5.28-3.4-7.93
			C358.45,837.94,357.21,831.39,357.4,822.5z"/>
	</g>
</g>
<g id="récrée_xA0_Image_1_">
	<g>
		<path d="M560.52,3065.04c-0.37-3.5-0.55-7.03-1.14-10.49c-0.92-5.4-1.16-10.82-0.75-16.26c0.78-10.53,1.11-21.06,0.96-31.64
			c-0.12-8.61,0.71-17.26,1.45-25.86c0.27-3.14,1.3-6.25,2.3-9.27c1.25-3.79,1.41-7.51,0.32-11.31c-0.18-0.61-0.34-1.23-0.55-1.84
			c-1.6-4.74-1.61-9.53,0.44-14.06c2.36-5.21,2.5-10.52,1.65-15.98c-0.59-3.81-0.63-7.62-0.56-11.48c0.07-3.82-0.11-7.7-0.75-11.45
			c-0.77-4.52-0.77-8.88,0.41-13.29c0.41-1.54,0.59-3.14,0.81-4.73c0.52-3.84,1.48-7.5,3.69-10.79c1.83-2.72,2.43-5.87,2.72-9.1
			c0.99-10.91,0.83-21.8-2.03-32.41c-3.05-11.31-2.67-22.83-2.87-34.32c-0.06-3.84,0.68-7.68,2.15-11.26
			c3.32-8.09,2.67-16.28,0.94-24.53c-0.13-0.63-0.29-1.25-0.5-1.85c-2.44-7.01-2.12-13.78,1.41-20.42c1.04-1.95,1.6-4.17,2.24-6.31
			c1.29-4.28,2.41-8.62,3.75-12.89c1.02-3.25,0.91-6.36-0.91-9.23c-4.97-7.86-4.8-16.35-3.26-25.04c0.39-2.2,1.06-4.38,1.19-6.59
			c0.2-3.34-0.79-6.41-3.65-8.42c-2.39-1.68-4.49-3.52-6.05-6.04c-1.55-2.51-2.65-5.1-2.76-8.06c-0.23-6.39-0.52-12.78-0.65-19.17
			c-0.07-3.52,0.18-7.04,0.17-10.55c-0.01-4.51,0.3-8.95,1.92-13.22c1.05-2.77,1.08-5.59,0.44-8.49c-1.07-4.76-0.89-9.58,0.07-14.3
			c1.32-6.42,1.39-12.65-0.93-18.89c-1.58-4.25-1.83-8.7-1.19-13.25c0.4-2.83,0.43-5.74,0.36-8.6c-0.09-3.89,0.14-7.72,1.75-11.28
			c2.47-5.45,2.7-11.12,2.06-16.93c-0.53-4.77-1.03-9.52-2.5-14.14c-2.07-6.5-2.46-13.18-1.52-19.94
			c1.15-8.23,1.26-16.56,3.06-24.74c1.17-5.32,0.69-10.83-0.31-16.22c-0.35-1.89-0.89-3.73-1.29-5.61
			c-0.75-3.5-0.89-7.06,0.45-10.41c2.08-5.21,2.04-10.61,2.1-16.06c0.06-5.11,0.45-10.22,0.65-15.33c0.16-3.83,0.43-7.67,0.36-11.5
			c-0.16-8.31-0.5-16.63-0.77-24.94c-0.05-1.6,0.03-3.22-0.23-4.79c-1.35-8.3-0.69-16.55,0.05-24.87
			c0.59-6.67,0.49-13.42,0.46-20.13c-0.03-5.78-0.8-11.46-2.79-16.97c-2.33-6.45-2.41-13.22-1.77-19.93
			c0.48-5.07,1.38-10.15,2.58-15.11c1.98-8.17,2.66-16.38,2.28-24.75c-0.24-5.43-0.19-10.87-0.19-16.3
			c0.01-7.68,0.1-15.35,0.15-23.03c0.03-5.44,0-10.88,0.09-16.32c0.09-6.09,0.55-12.12,2.29-18.03c1.84-6.27,1.94-12.61-0.03-18.93
			c-0.38-1.22-0.56-2.5-0.83-3.75c-0.63-2.9-0.45-5.72,0.87-8.43c0.56-1.15,1.11-2.3,1.7-3.44c2.15-4.2,2.36-8.58,1.15-13.07
			c-0.33-1.23-0.75-2.45-1.19-3.65c-1.11-3.05-1.48-6.21-1.37-9.44c0.29-8.37-0.81-16.6-2.56-24.75c-0.27-1.25-0.57-2.5-0.74-3.77
			c-0.81-6.19-0.32-12.15,3.37-17.46c2.07-2.98,2.93-6.33,3.37-9.88c0.75-6.07,0.97-12.15-0.15-18.17
			c-1.11-5.97-2.29-11.95-3.88-17.8c-1.31-4.82-1.88-9.35,0.7-13.92c1.47-2.6,1.46-5.52,1.09-8.43c-0.08-0.63-0.14-1.28-0.3-1.9
			c-1.32-5.2-0.57-10.05,1.85-14.87c2.67-5.31,3.23-11,1.74-16.83c-2.01-7.86-1.62-15.88-1.45-23.87c0.08-3.85,0.83-7.63,2.11-11.28
			c1.44-4.07,1.41-8.15,0.26-12.27c-0.35-1.23-0.67-2.47-0.96-3.72c-1.28-5.52-0.88-10.79,2.3-15.68c0.87-1.34,1.69-2.73,2.32-4.19
			c2.81-6.43,2.03-12.48-2.12-18.1c-0.76-1.03-1.77-1.87-2.49-2.92c-3.14-4.59-5.26-9.53-4.64-15.26c0.45-4.13,0.97-8.25,1.51-12.38
			c0.45-3.49,1.29-6.95,1.4-10.45c0.21-6.72,0.46-13.42,1.52-20.08c0.3-1.87,0.14-3.83,0.05-5.74c-0.11-2.56-0.31-5.11-0.54-7.66
			c-0.54-6.12-0.3-12.15,1.88-17.98c1.16-3.11,1.21-6.24,0.1-9.39c-2.39-6.74-2.89-13.72-2.8-20.81c0.12-9.6-0.05-19.2,0.05-28.79
			c0.12-11.51,0.42-23.02,0.55-34.53c0.03-2.87-0.25-5.75-0.38-8.62c-0.24-5.16,0.02-10.24,2.19-15.05c0.39-0.87,0.68-1.79,0.99-2.7
			c1.04-3.16,1.13-6.36-0.34-9.36c-3.68-7.48-3.93-15.42-3.3-23.45c0.57-7.37,0.64-14.67-0.65-22c-0.49-2.79-0.24-5.73-0.18-8.6
			c0.2-9.91,0.47-19.83,0.7-29.74c0.17-7.08-0.48-14.03-2.49-20.88c-1.63-5.55-2.32-11.28-1.89-17.09
			c0.47-6.43-0.24-12.78-1.19-19.12c-0.76-5.06-1.48-10.13-2.27-15.19c-1.29-8.29-1.42-16.55,0.5-24.79
			c1.33-5.72,1.49-11.37-0.88-16.95c-1.93-4.54-2.16-9.36-1.41-14.16c0.71-4.53,0.72-8.9-1.29-13.14c-0.27-0.57-0.45-1.23-0.47-1.85
			c-0.19-7.98-0.85-16.05,2.05-23.7c1.39-3.66,2.24-7.3,2.23-11.19c-0.01-1.91,0.02-3.87,0.41-5.73c0.98-4.73,1.37-9.49,1.38-14.3
			c0.01-4.61,0.97-8.77,4.33-12.31c2.43-2.56,2.28-5.84,0.83-8.99c-0.4-0.86-0.93-1.68-1.51-2.44c-2.52-3.32-3.17-6.99-1.84-10.88
			c1.69-4.96,0.41-9.45-1.8-13.85c-0.57-1.14-1.22-2.25-1.84-3.37c-1.68-3.06-3.82-5.87-3.77-9.68c0.08-6.04-1.07-12.2,1.99-17.89
			c2.17-4.05,3.01-8.44,3.19-12.94c0.28-6.71,0.41-13.43,0.5-20.15c0.02-1.58-0.24-3.19-0.59-4.74c-0.73-3.18-4.01-5.35-7.26-4.97
			c-2.61,0.31-5.1,1.12-6.97,2.93c-2.55,2.48-5.45,4.35-8.45,6.21c-2.67,1.66-4.52,4.51-7.6,5.73c-4.4,4.64-9.92,8-14.25,12.78
			c-5.14,5.67-9.8,11.83-16.07,16.42c-1,0.73-1.65,1.94-2.44,2.94c-2.42,3.07-5.42,5.68-8.9,7.15c-3.93,1.67-7.06,4.28-10.41,6.69
			c-1.03,0.74-2.2,1.48-2.85,2.51c-2.46,3.92-6.24,6.36-9.78,9.08c-2.02,1.56-4.05,3.13-5.96,4.82c-6.7,5.9-14.22,10.9-19.86,17.97
			c-5.29,3.56-9.3,8.62-14.77,12.09c-6.72,4.26-13.02,9.25-19.21,14.27c-2.42,1.96-3.83,5.13-6.13,7.28
			c-2.06,1.92-4.73,3.2-7.13,4.76c-4.44,6.05-11.03,9.68-16.73,14.22c-6.51,5.19-12.31,11.07-18.49,16.57
			c-6.41,5.71-12.16,12.17-19.58,16.74c-2.41,1.48-4.38,3.71-6.46,5.7c-4.17,3.97-8.34,7.93-13.3,10.93
			c-0.55,0.33-1.22,0.6-1.57,1.08c-3.69,5.22-9.59,7.27-14.81,10.22c-2.3,1.3-4.26,2.71-5.73,4.89c-1.61,2.39-3.46,4.56-5.75,6.39
			c-1.47,1.18-2.61,2.76-3.91,4.15c-2.83,3.03-5.55,6.18-8.54,9.04c-3.7,3.53-7.58,6.86-10.63,11.02c-1.13,1.53-2.47,3.02-4.01,4.11
			c-6.58,4.67-11.51,11.05-17.37,16.46c-4.21,3.88-8.55,7.55-13.54,10.42c-1.64,0.94-3.21,2.09-4.6,3.38
			c-9.62,8.89-19.55,17.42-29.69,25.7c-4.68,5.37-10.64,9.07-16.47,13c-3.4,2.29-6.59,4.9-9.3,8.2c-2.59,3.15-5.91,5.92-9.39,8.08
			c-5.02,3.12-8.96,7.22-12.41,11.83c-2.16,2.89-4.52,5.29-7.81,6.87c-1.37,0.66-2.5,1.95-3.56,3.12c-1.29,1.42-2.27,3.11-3.58,4.5
			c-2.59,2.72-3.54,5.95-3.61,9.62c-0.27,13.43-0.71,26.86-0.89,40.29c-0.14,10.87,0,21.75,0.03,32.62c0,1.28-0.05,2.57,0.09,3.84
			c1.27,11.82,0.41,23.66,0.3,35.49c-0.06,6.4-0.5,12.8-1.95,19.06c-1.33,5.71-1.48,11.39-0.12,17.12
			c1.79,7.53,2.22,15.15,1.8,22.87c-0.25,4.46,0.1,8.95,0.17,13.43c0.09,5.45-0.05,10.85-1.25,16.22
			c-1.33,5.96-1.44,12.06-1.36,18.15c0.06,4.16,0.16,8.32,0.3,12.47c0.18,5.13-0.09,10.21-1.06,15.28
			c-1.46,7.59-1.62,15.23-0.51,22.92c0.86,6,1.75,12.02,0.84,18.15c-0.27,1.85,0.22,3.81,0.4,5.72c0.35,3.5,0.67,7,1.11,10.49
			c0.85,6.69,0.65,13.37,0.35,20.1c-0.48,10.54-0.28,21.1-0.36,31.66c-0.04,6.08-0.08,12.15-0.05,18.23
			c0.02,3.83,0.18,7.67,0.24,11.5c0.1,6.07,0.24,12.15,0.25,18.22c0,7.03-0.15,14.07-0.2,21.1c-0.11,16.63,0.72,33.28-1.13,49.86
			c-0.43,3.88,0.06,7.68,0.95,11.42c1.52,6.37,1.38,12.7-0.28,19c-1.65,6.26-1.88,12.57-1.5,19.03c0.32,5.43,0.45,10.84,1.3,16.23
			c0.8,5.08,0.99,10.19-0.23,15.26c-0.68,2.83-0.76,5.7-0.47,8.59c0.49,4.77,0.69,9.59,1.53,14.3c1.04,5.76,1.16,11.44-0.01,17.15
			c-0.78,3.79-0.81,7.6-0.63,11.46c0.15,3.18-0.07,6.39-0.16,9.58c-0.03,0.96-0.27,1.91-0.26,2.87c0.29,14.44-2.03,28.7-2.82,43.06
			c-0.21,3.83-0.26,7.66-0.33,11.5c-0.14,7.35-0.26,14.71-0.35,22.06c-0.1,8.95-0.46,17.92-0.14,26.86
			c0.29,8.01-0.2,15.99-0.22,23.98c0,2.55-0.25,5.14-0.77,7.63c-1.33,6.32-1.35,12.7-1.24,19.11c0.15,8.32,0.23,16.64,0.34,24.95
			c0.09,6.4,0.19,12.77-0.68,19.16c-0.73,5.39-0.47,10.86,0.18,16.28c0.34,2.86,0.62,5.73,1.12,8.56c0.84,4.8,0.57,9.42-0.59,14.22
			c-1.12,4.61-1.42,9.49-1.56,14.26c-0.25,8.63-0.23,17.27-1.31,25.86c-0.2,1.58-0.23,3.19-0.23,4.79
			c-0.07,15.68-0.19,31.35-0.15,47.03c0.01,4.79,0.4,9.59,0.71,14.37c0.25,3.84,0.82,7.64,2.29,11.24c2.3,5.61,2.05,11.24,0.21,16.9
			c-0.4,1.22-0.77,2.44-1.17,3.66c-0.9,2.77-1.2,5.61-1.06,8.52c0.17,3.51,0.39,7.03,0.4,10.55c0.01,4.52,0.53,8.92,2.2,13.16
			c1.79,4.54,2.39,9.31,2.03,14.15c-0.43,5.82,0.01,11.51,1.87,17.05c1.15,3.43,1.22,6.89,0.48,10.41c-0.39,1.88-0.87,3.8-0.83,5.69
			c0.21,8.34-0.85,16.58-1.46,24.86c-0.59,7.97-0.51,15.99-0.77,23.98c-0.18,5.43-0.5,10.86-0.64,16.29
			c-0.06,2.55,0.18,5.1,0.24,7.65c0.13,5.75,0.41,11.51,0.28,17.26c-0.07,3.17-0.68,6.36-1.37,9.47c-0.93,4.13-1.23,8.2-0.36,12.36
			c0.33,1.56,0.64,3.15,0.72,4.74c0.61,11.82,1.15,23.64,1.74,35.46c0.14,2.87,0.17,5.77,0.58,8.6c0.8,5.43,0.94,10.82,0.05,16.24
			c-0.78,4.78-0.92,9.62,0.07,14.33c2.14,10.15,1.32,20.39,1.31,30.61c-0.01,6.07-0.23,12.14-0.31,18.22
			c-0.05,3.52,0.06,7.04,0,10.56c-0.07,3.85-0.06,7.69,0.79,11.46c0.86,3.81,0.81,7.6-0.01,11.42c-0.82,3.81-0.77,7.63,0.23,11.41
			c0.92,3.49,0.84,6.96-0.15,10.42c-0.98,3.42-1.2,6.93-1.16,10.46c0.07,5.44,0.14,10.88,0.27,16.31
			c0.15,6.08,0.35,12.15,0.58,18.22c0.1,2.55,0.03,5.17,0.58,7.63c0.91,4.14,0.83,8.24,0.47,12.4c-0.34,3.82-0.41,7.67-0.69,11.49
			c-0.14,1.9-0.48,3.79-0.73,5.68c-19.2,0-38.4,0-57.6,0c-0.01-8.32-0.05-16.64-0.03-24.95c0.01-3.25,0.76-6.27,2.53-9.11
			c2.02-3.26,3.76-6.7,5.48-10.13c1.91-3.81,1.3-7.42-1.16-10.82c-1.74-2.41-3.98-4.24-6.72-5.24c-4.62-1.68-6.11-5.23-6.42-9.71
			c-0.29-4.15-0.7-8.29-1.05-12.43c-0.5-5.92,0.26-11.51,4.3-16.23c0.41-0.48,0.76-1.03,1.05-1.6c0.92-1.78,1.13-3.65,0.48-5.57
			c-0.2-0.6-0.42-1.24-0.79-1.74c-4.41-6.03-4.75-13.09-5.06-20.14c-0.09-1.91,0.08-3.84,0.12-5.76c0.13-5.5-0.44-10.89-2.88-15.9
			c-2.34-4.8-2.89-9.84-1.92-14.98c1.71-8.95,0.76-17.85-0.07-26.76c-0.18-1.91-0.46-3.82-0.45-5.73c0.04-6.4,0.15-12.79,0.31-19.19
			c0.21-7.99,0.52-15.99,0.74-23.98c0.09-3.23,0.51-6.4,1.72-9.39c3.06-7.56,3.68-15.54,3.9-23.54c0.15-5.45,0.02-10.84,1.78-16.14
			c0.57-1.73,0.26-3.79,0.18-5.69c-0.06-1.27-0.46-2.51-0.66-3.78c-0.67-4.21-0.38-8.3,1.65-12.14c1.84-3.49,2.35-7.26,2.44-11.14
			c0.31-12.47,0.72-24.94,1-37.41c0.06-2.55-0.22-5.11-0.49-7.65c-0.24-2.25-0.91-4.46-2.4-6.19c-3.02-3.53-4.47-7.66-5.34-12.14
			c-0.42-2.16-1.27-4.3-2.25-6.29c-1.75-3.54-2.44-7.25-2.47-11.14c-0.04-6.72-0.06-13.44-0.11-20.16
			c-0.05-5.82,0.63-11.5,3.06-16.86c2.75-6.07,3.3-12.3,1.46-18.72c-0.99-3.45-1.13-6.89-0.28-10.42c0.85-3.55,0.43-7.05-1.51-10.19
			c-2.32-3.73-2.59-7.8-2.48-12.02c0.09-3.51,0.15-7.05-0.13-10.54c-0.35-4.3,0.18-8.28,2.77-11.86c2.26-3.13,2.25-6.56,1.2-10.09
			c-0.36-1.22-0.78-2.44-1.27-3.62c-1.15-2.75-1.38-5.59-0.76-8.47c0.98-4.48,0.72-8.89-0.49-13.29c-1.65-6.02-1.44-12.12,0.2-18.04
			c2.18-7.91,2.21-15.8,0.76-23.76c-0.98-5.41-1.04-10.74-0.11-16.21c0.7-4.07,0.82-8.28,0.72-12.42
			c-0.24-9.61-0.25-19.17,1.13-28.73c0.82-5.71,0.77-11.5-0.64-17.17c-1.04-4.17-0.54-8.2,0.6-12.3c1.28-4.61,2.12-9.35,3.3-13.99
			c0.82-3.26,0.43-6.35-0.77-9.39c-1.06-2.68-2.16-5.34-3.33-7.97c-1.34-3.01-1.92-6.09-1.17-9.34c0.07-0.31,0.11-0.63,0.18-0.94
			c2.65-12.6,2.89-25.39,3.13-38.18c0.07-3.52,0.16-7.04,0.37-10.55c0.26-4.17,0.92-8.25,2.88-12.05c0.73-1.41,1.21-2.96,1.65-4.49
			c0.91-3.15,0.93-6.32-0.12-9.45c-0.51-1.52-1.06-3.02-1.63-4.51c-1.51-3.98-1.84-8.09-1.41-12.28c0.23-2.23,0.57-4.44,0.86-6.66
			c1.53-11.79,1.51-23.63,1.02-35.46c-0.21-5.08-1.14-10.19-2.34-15.14c-2.2-9.03-1.61-17.83,1.61-26.4
			c3.4-9.04,3.19-18.16,1.51-27.41c-0.28-1.57-0.83-3.09-1.17-4.65c-0.48-2.19-1.16-4.37-1.28-6.59
			c-0.73-13.09-1.77-26.22,1.32-39.16c1.21-5.05,1.59-10.03,1.2-15.2c-0.45-6.05-0.16-12.14-2.15-18.03
			c-0.95-2.81-0.57-5.75,0.61-8.46c2.78-6.37,3.01-12.96,2.45-19.77c-0.57-7.01-0.71-14.04-1.95-21c-0.55-3.08-0.33-6.4,0.06-9.54
			c0.53-4.22,0.32-8.32-0.86-12.35c-2.28-7.79-2.86-15.7-2.06-23.76c0.13-1.27,0.17-2.56,0.09-3.84
			c-0.41-6.72-0.62-13.41,1.54-19.93c0.26-11.24,2.19-22.25,4.3-33.25c0.9-4.7,1.24-9.51,1.89-14.26c0.4-2.9,0.23-5.77-0.49-8.57
			c-1.63-6.35-1.54-12.62,0.05-18.98c0.61-2.44,0.49-5.07,0.64-7.62c0.09-1.59-0.29-3.3,0.17-4.76c1.31-4.15,1.17-8.09-0.35-12.18
			c-1.24-3.36-1.04-6.94-0.31-10.43c0.59-2.82,1.44-5.59,1.9-8.42c0.62-3.78,1.06-7.59,1.42-11.4c0.27-2.89,0.03-5.8-1.14-8.49
			c-1.99-4.58-1.99-9.35-1.5-14.15c0.52-5.11,0.89-10.19,0.14-15.31c-0.42-2.92,0.17-5.75,1.28-8.45c1.63-3.95,1.75-8.04,1.67-12.25
			c-0.12-6.07,0.07-12.15,0.31-18.22c0.23-6.08,0.23-12.13-0.27-18.22c-0.48-5.73-0.6-11.5-0.57-17.26
			c0.01-2.85,0.33-5.81,1.15-8.52c2.17-7.18,2.6-14.39,1.86-21.82c-0.37-3.79-0.16-7.69,0.24-11.49c0.48-4.53,0.35-8.92-1.07-13.27
			c-1.1-3.38-1.43-6.86-1.34-10.42c0.25-10.23,0.47-20.47,0.58-30.71c0.05-4.54,0.55-8.92,2.5-13.08c0.68-1.44,1.3-2.96,1.62-4.51
			c0.82-3.97,3.1-7.03,5.98-9.62c4.02-3.62,7.99-7.27,13.58-8.65c3.74-0.92,7.03-3.25,9.81-5.86c2.8-2.63,5.18-5.57,9.13-6.65
			c1.11-0.3,2.07-1.47,2.9-2.42c2.73-3.12,5.7-6.05,7.53-9.89c0.84-1.76,2.29-3.06,4-4.03c0.83-0.47,1.68-0.93,2.51-1.42
			c5.22-3.13,10.1-6.66,14.06-11.37c3.51-4.18,8.02-7.28,12.06-10.9c3.41-3.05,7.15-5.18,11.83-5.77c3.53-0.44,6.7-2.06,9.35-4.56
			c0.93-0.87,1.88-1.8,3-2.38c4.17-2.18,6.92-5.45,8.57-9.88c1.14-3.04,3.42-5.37,6.01-7.34c2.04-1.55,4.17-2.99,6.07-4.7
			c4.98-4.45,10.12-8.73,14.33-13.98c1.71-2.13,2.45-4.47,2.27-7.12c-1.77-27.48-0.88-55.01-1.26-82.52
			c-0.38-27.52-0.38-55.04-0.56-82.55c-0.35-51.83-0.79-103.67-1.05-155.51c-0.3-57.28-0.44-114.55-0.66-171.83
			c-0.02-5.12-0.22-10.24-0.25-15.36c-0.24-43.19-0.42-86.39-0.69-129.58c-0.14-22.4-0.53-44.79-0.59-67.19
			c-0.05-16.63,0.24-33.27,0.36-49.91c0.05-6.72,0.05-13.44,0.05-20.15c0-5.78,0.31-11.52,2.03-17.09c0.86-2.78,0.93-5.65,1.01-8.54
			c0.14-5.11,0.5-10.21,0.78-15.32c0.07-1.28,0.33-2.56,0.26-3.83c-0.77-13.13,1.04-26.2,0.93-39.31
			c-0.06-7.35-0.14-14.7-0.27-22.05c-0.24-14.08,0.08-28.14,1.68-42.14c0.33-2.86,0.92-5.68,1.3-8.54
			c1.41-10.78,3.69-21.4,5.8-32.06c1.55-7.83,2.24-15.83,3.08-23.78c0.44-4.18,1.24-8.17,3.02-12.02c1.21-2.6,1.62-5.59,3-8.07
			c3.12-5.6,5.73-11.36,7.16-17.63c0.21-0.9,0.81-1.74,1.35-2.52c1.86-2.69,2.73-5.72,3.5-8.86c2.44-9.94,5.35-19.74,9.58-29.09
			c0.79-1.74,1.42-3.57,1.9-5.42c0.97-3.73,2.07-7.4,4.26-10.63c0.36-0.53,0.72-1.1,0.87-1.7c1.44-5.62,4.56-10.52,6.69-15.82
			c2.07-5.15,5.22-9.47,8.42-13.84c1.51-2.06,2.98-4.14,4.56-6.13c3.66-4.61,6.01-9.69,6.63-15.65c0.22-2.13,1.44-4.19,2.34-6.22
			c0.77-1.75,1.8-3.39,2.6-5.13c1.5-3.25,3.64-5.97,6.28-8.39c4.72-4.32,9.33-8.76,13.01-14.06c1.08-1.56,2.54-2.87,3.89-4.23
			c2.72-2.72,5.27-5.52,7.3-8.85c2.34-3.83,5.46-7.08,8.79-10.1c2.6-2.36,5.01-4.94,7.64-7.27c6.22-5.51,12.13-11.35,18.06-17.17
			c1.34-1.32,3-2.47,4.73-3.19c4.18-1.75,7.8-4.37,11.57-6.78c5.39-3.44,10.87-6.73,16.22-10.22c10.7-6.98,22.1-12.84,32.42-20.41
			c2.35-1.72,4.73-3.22,7.56-4.03c1.52-0.44,3.06-1.06,4.38-1.91c2.51-1.61,5.29-2.18,8.13-2.72c1.89-0.36,3.76-0.78,5.63-1.21
			c2.52-0.57,4.83-1.55,6.95-3.11c6.78-4.97,14.36-8.04,22.45-10.42c10.39-3.05,20.69-6.66,29.71-13.01
			c1.04-0.73,2.09-1.59,3.27-1.95c8-2.45,15.21-6.58,22.59-10.37c3.77-1.93,7.92-2.52,12.13-2.38c2.88,0.1,5.75,0.35,8.62,0.61
			c5.5,0.49,10.91,0.1,16.06-1.94c3.64-1.44,7.38-2.03,11.24-2.18c5.78-0.23,11.46-1.12,17.01-2.78c3.71-1.11,7.48-1.7,11.36-1.44
			c3.9,0.26,7.66-0.38,11.25-1.93c4.57-1.98,9.22-2.41,14.06-1.06c4.1,1.15,8.18,1.09,12.27-0.35c4.89-1.73,10.08-1.82,15.17-2.07
			c6.41-0.32,12.74-0.99,19.05-2.15c7.88-1.44,15.87-1.77,23.88-2.01c13.43-0.4,26.87-0.85,40.25-1.94
			c8.04-0.65,15.98-0.57,23.92,0.43c5.12,0.65,10.16,0.8,15.3,0.41c3.48-0.26,7.04-0.13,10.51,0.31c6.69,0.85,13.32,1.28,20.08,0.43
			c6.69-0.85,13.42-0.6,19.95,1.54c0.61,0.2,1.24,0.36,1.87,0.44c13.33,1.52,26.5,4.52,40.02,4.35c2.24-0.03,4.48,0.07,6.72,0.09
			c5.19,0.05,10.15,0.92,14.76,3.53c3.41,1.93,7.21,2.59,11.08,2.81c4.48,0.25,8.88,0.94,13.29,1.81c3.75,0.74,7.62,1.07,11.44,1.11
			c4.62,0.05,8.91,0.94,12.78,3.44c3,1.94,6.26,3.09,9.68,4.06c6.81,1.92,13.09,5.09,19.21,8.61c6.12,3.52,12.58,6.23,19.35,8.23
			c2.45,0.72,5.07,1.21,7.24,2.45c3.95,2.25,7.98,3.95,12.49,4.64c1.51,0.23,3,1.1,4.31,1.96c2.94,1.93,5.78,4.01,8.62,6.09
			c7.46,5.48,14.84,11.06,22.96,15.62c3.85,2.16,7.14,5.32,10.17,8.68c5.58,6.17,11.9,11.58,18.1,17.12
			c2.43,2.18,5.1,3.75,8.33,4.49c5.78,1.34,10.53,4.42,14.49,8.86c1.69,1.9,3.63,3.64,5.68,5.14c6.58,4.79,11.57,11.12,16.1,17.64
			c3.92,5.63,8.55,10.35,13.9,14.42c2.61,1.99,4.66,4.2,6.2,7.13c2.26,4.29,5.62,7.83,9.4,10.78c3.62,2.83,6.41,6.16,8.68,10.1
			c1.91,3.31,4.14,6.38,5.32,10.14c0.74,2.36,3.1,4.23,3.76,6.6c1.56,5.6,5.53,9.16,9.48,12.92c5.59,5.32,9.71,11.86,14.37,17.95
			c1.74,2.28,2.68,5.07,3.26,7.94c0.58,2.9,1.88,5.51,4.27,7.31c4.41,3.34,6.79,8.48,10.85,12.12c0.89,0.8,1.46,2.13,1.8,3.32
			c0.88,3.11,2.73,5.81,3.76,8.79c2.05,5.92,5.71,10.68,9.79,15.18c1.99,2.19,3.21,4.65,4.35,7.34c2.6,6.17,4.51,12.65,8.16,18.37
			c0.82,1.28,1.19,2.98,1.34,4.54c0.52,5.2,2.22,9.79,5.22,14.19c3.22,4.73,5.81,9.94,7.19,15.61c0.84,3.46,2.28,6.63,4.38,9.53
			c1.91,2.64,3.05,5.55,3.14,8.9c0.12,4.54,1.33,8.84,3.55,12.83c1.43,2.58,2.03,5.36,2.03,8.3c0,1.6,0.03,3.2,0.11,4.8
			c0.13,2.62,0.84,5.1,2.5,7.14c2.47,3.03,3.82,6.62,5.55,10.04c1.94,3.83,2.86,7.72,2.64,12c-0.31,6.07-0.27,12.15-0.62,18.21
			c-0.3,5.04,0.84,9.41,4.16,13.34c1.83,2.17,3.12,4.81,4.51,7.31c1.1,1.97,1.7,4.15,1.75,6.43c0.3,14.47,3.75,28.52,5.75,42.77
			c1.02,7.29,2.25,14.54,1.94,21.95c-0.05,1.27-0.13,2.61,0.16,3.83c1.5,6.3,1.29,12.67,1.25,19.08c-0.02,3.49,0.61,7.01,1.27,10.46
			c0.85,4.42,1.26,8.85,1.44,13.34c0.18,4.47,0.58,8.94,0.86,13.4c0.56,8.95,0.91,17.9-0.49,26.81c-0.45,2.88-0.26,5.71-0.06,8.6
			c0.5,7.01,0.94,14.04,1.07,21.07c0.15,7.99-0.16,15.99-0.1,23.98c0.02,3.18,0.23,6.41,0.83,9.53c0.97,5.09,1.37,10.12,0.36,15.24
			c-0.82,4.12-0.7,8.28-0.17,12.43c1.41,11.17,1.45,22.33,0.15,33.51c-0.94,8.04-0.43,15.99,2.3,23.68
			c1.31,3.69,1.7,7.45,1.47,11.33c-0.66,10.92,0.11,21.74,2.14,32.48c1.38,7.27,1.63,14.6,1.05,21.98c-0.81,10.23,0,20.47,0.3,30.69
			c0.14,4.81,1.35,9.49,2.76,14.09c2.39,7.74,2.92,15.67,2.48,23.72c-0.78,14.08-0.5,28.14,0.98,42.17
			c0.61,5.74,1.1,11.44,0.03,17.2c-0.89,4.79-0.58,9.62,1.25,14.18c4.03,10.07,4.51,20.61,3.96,31.18
			c-0.46,8.97,0.01,17.91,0.11,26.86c0.08,7.36,0.3,14.71,0.46,22.07c0.02,0.96,0.01,1.92,0.01,2.88c-0.01,8.87,3.78,9.58,9.83,9.71
			c31.99,0.71,63.98,1.44,95.96,2.22c9.27,0.23,18.55,0.62,27.82,0.98c5.79,0.22,11.43,1.3,16.94,3.12
			c3.65,1.21,7.24,2.62,10.96,3.53c5.13,1.27,8.9,4.98,13.57,7.04c0.82,0.36,1.44,1.25,2.07,1.96c5.86,6.5,10.53,13.63,11.99,22.5
			c0.31,1.86,0.94,3.77,1.89,5.39c1.82,3.14,2.59,6.52,3.04,10.02c1.03,7.93,1.63,15.82,1.05,23.9c-0.71,9.87-0.37,19.82-0.31,29.74
			c0.05,9.6,0.1,19.2-0.77,28.77c-0.12,1.27-0.31,2.58-0.13,3.83c1.04,7.09-0.27,14.07-1.24,21.01c-1.56,11.12-2.05,22.3-2.56,33.48
			c-0.64,14.06-1.18,28.12-2.09,42.16c-0.54,8.31-0.92,16.59-2.26,24.82c-0.41,2.51-0.57,5.11-0.45,7.65
			c0.41,8.94,0.43,17.89,1.22,26.83c0.9,10.19,1.31,20.44-0.94,30.58c-0.91,4.1-0.82,8.27-0.26,12.42c0.35,2.54,0.71,5.07,1.12,7.6
			c0.82,5.11,0.91,10.21-0.36,15.25c-1.58,6.3-1.65,12.66-1.02,19.07c0.28,2.87,0.48,5.74,0.69,8.61c0.33,4.49,0.07,8.93-0.93,13.35
			c-1.92,8.45-2.9,17-2.52,25.71c0.09,2.19-0.36,4.45-0.8,6.62c-0.76,3.76-1.82,7.46-2.55,11.23c-0.61,3.13-1.17,6.31-1.34,9.49
			c-0.52,10.22-0.92,20.45-1.19,30.69c-0.1,3.86-0.32,7.67-1.28,11.41c-0.96,3.74-1.39,7.53-1.49,11.39
			c-0.07,2.54-0.45,5.09-0.89,7.61c-1.43,8.2-2.59,16.42-2.96,24.76c-0.17,3.82-0.8,7.64-1.51,11.4
			c-1.19,6.34-1.71,12.62-0.39,19.05c0.98,4.72,0.57,9.55-0.13,14.33c-0.84,5.7-1.65,11.4-2.22,17.13
			c-0.45,4.45-0.62,8.93-0.74,13.41c-0.19,6.72-0.35,13.44-0.29,20.15c0.06,6.47-0.9,12.77-2.87,18.89
			c-1.2,3.72-1.64,7.48-1.52,11.35c0.32,10.87,0.16,21.79,1.14,32.6c0.7,7.74,0.13,15.23-0.72,22.87
			c-1.41,12.72-1.82,25.53-1.2,38.34c0.14,2.88,0.32,5.76,0.27,8.63c-0.25,12.79-0.54,25.58-0.91,38.37
			c-0.18,6.08-0.8,12.08-2.7,17.96c-1.98,6.12-2.69,12.5-2.61,18.94c0.09,7.68,0.07,15.36-0.76,23.01c-0.1,0.95-0.18,1.92-0.14,2.87
			c0.41,9.27,0.83,18.53,0.02,27.8c-0.11,1.26,0.11,2.56,0.29,3.82c0.96,6.72,0.7,13.38-0.72,20.03c-0.53,2.48-0.67,5.07-0.77,7.62
			c-0.25,6.39-0.37,12.79-0.55,19.19c-0.15,5.45-0.03,10.86,1.16,16.23c1.32,6,1.16,12.1,0.71,18.17
			c-0.64,8.63-0.81,17.25-0.43,25.9c0.13,2.86,0.11,5.8-0.36,8.61c-0.91,5.39-1.35,10.79-1.2,16.24c0.1,3.87-0.5,7.66-1.41,11.4
			c-1.38,5.63-1.78,11.36-1.81,17.14c-0.1,18.24-0.27,36.47-0.39,54.71c-0.07,10.88-0.09,21.75-0.11,32.63
			c-0.01,4.82-0.33,9.61-1.88,14.21c-1.79,5.3-2.23,10.61-0.53,16.02c0.98,3.11,1.06,6.29,0.75,9.5c-1,10.23-0.13,20.45,0.05,30.67
			c0.05,2.55,0.28,5.13-0.01,7.65c-0.8,6.99-1.9,13.94-2.75,20.93c-0.46,3.8-0.84,7.63-0.91,11.45c-0.18,10.23-0.13,20.47-0.27,30.7
			c-0.08,6.09,0.04,12.14,1.21,18.16c0.54,2.8,0.8,5.73,0.66,8.58c-0.35,6.71-0.85,13.41-1.61,20.08
			c-0.72,6.38-1.01,12.75-0.59,19.16c1.26,19.17,1.51,38.36,1.49,57.56c0,3.51-0.14,7.04-0.53,10.53
			c-0.72,6.38-0.84,12.76-0.87,19.16c-0.05,8.64-0.28,17.27-0.43,25.9c-0.04,2.24-0.17,4.48-0.09,6.71
			c0.53,15.04,0.27,30.05-1.2,45.04c-0.28,2.85-0.22,5.75-0.26,8.62c-0.04,2.56,0.28,5.15-0.04,7.67
			c-0.89,7.08-0.36,14.04,1.15,20.98c0.2,0.94,0.36,1.9,0.4,2.85c0.37,11.18,1.34,22.36,0.62,33.56c-0.27,4.16-0.38,8.29-0.06,12.46
			c0.34,4.46,0.3,8.95,0.5,13.43c0.25,5.85-0.78,11.47-3.01,16.87c-0.49,1.18-1.07,2.33-1.48,3.54c-1.61,4.72-2.06,9.37,0.87,13.82
			c1.46,2.22,1.86,4.77,1.93,7.34c0.24,8.95,1.33,17.87,0.62,26.85c-0.22,2.86-0.03,5.76-0.15,8.63c-0.12,2.87-0.37,5.74-0.63,8.6
			c-0.26,2.86-0.59,5.72-0.94,8.58c-0.31,2.54-0.41,5.14-1.07,7.58c-1.6,5.94-2.03,11.97-2.07,18.06c-0.01,2.56,0,5.12-0.1,7.68
			c-0.23,5.79-0.95,11.48-3.59,16.76c-1.46,2.93-2.03,6.07-1.96,9.31c0.1,4.47,0.05,8.98,0.61,13.4c1.25,9.91,1.3,19.77-0.15,29.66
			c-0.83,5.71-0.92,11.46-0.74,17.24c0.39,12.15,0.84,24.3-0.19,36.44c-18.56,0-37.12,0-55.68,0c1.1-1.95,2.17-3.92,3.32-5.84
			c1.71-2.85,2.32-5.94,2.12-9.21c-0.15-2.55-0.47-5.1-0.66-7.65c-0.28-3.61,0.34-6.94,2.58-9.97c3.52-4.76,4.78-10.48,5.8-16.11
			c0.94-5.2-1.09-10.07-3.32-14.73c-0.27-0.57-0.65-1.12-1.08-1.58c-4.07-4.25-4.25-9.22-2.23-14.28c1.61-4.04,1.85-7.97,1.15-12.2
			c-0.63-3.77-0.81-7.63-1.08-11.46c-0.16-2.27,0.21-4.49,1.62-6.38c2.21-2.95,2.86-6.34,3.06-9.92c0.14-2.55,0.34-5.14,0.91-7.62
			c1.3-5.71,1.69-11.35,0.16-17.08c-0.59-2.2-0.2-4.44,0.91-6.51c0.61-1.12,1.27-2.25,1.67-3.45c1.67-5.07,1.92-10.19-1.12-14.78
			c-3.37-5.1-4.11-10.66-3.93-16.5c0.3-9.91,0.48-19.83,1.04-29.73c0.58-10.21,1.61-20.4,4.13-30.36c1.13-4.45,1.5-8.92,0.01-13.25
			c-1.63-4.74-1.61-9.33-0.34-14.13c0.99-3.74,0.54-7.63,0.32-11.47c-0.52-9.3-0.12-18.58,1.7-27.7c1.24-6.24,0.8-12.21-2.05-17.76
			c-2.44-4.74-3.19-9.6-3.19-14.8c0-4.47-0.44-8.94-0.68-13.41c-0.15-2.87-0.47-5.75-0.4-8.61c0.11-4.55-0.48-8.97-2.27-13.14
			c-1.95-4.54-2.29-9.27-2.28-14.1c0.01-2.59,0.3-5.2,1.58-7.44c4.34-7.59,4.3-15.94,4.39-24.26c0.03-2.87-0.32-5.75-0.41-8.63
			c-0.23-7.37-0.16-14.68,2.48-21.77c0.75-2.03,0.74-4.39,0.81-6.61c0.22-6.39,0.15-12.8,0.48-19.18
			c0.26-5.18-0.04-10.24-1.76-15.14c-1.96-5.6-2.27-11.22-0.8-16.99c0.88-3.45,1.15-7.02,0.23-10.47
			c-2.36-8.82-1.54-17.79-1.54-26.73c0-1.92,0.21-3.83,0.37-5.75c0.46-5.76,0.46-11.51-0.18-17.25c-0.71-6.4-0.46-12.75,0.5-19.13
			c0.95-6.32,1.72-12.67,2.3-19.03c0.23-2.51-0.12-5.1-0.48-7.62c-0.27-1.89-0.95-3.71-1.46-5.57c-1.13-4.16-0.83-8.23,0.81-12.22
			c0.49-1.18,0.91-2.39,1.44-3.56c1.33-2.95,2.23-6.01,2.32-9.25c0.12-4.31,1.46-8.13,4.07-11.56c1.47-1.94,1.63-4.21,0.64-6.38
			c-2.08-4.56-2.18-9.16-1.36-14.06c1.26-7.58,2.25-15.18,5.42-22.29c1.09-2.44,0.73-5.02-0.31-7.47c-1.37-3.24-2.6-6.54-4.12-9.72
			c-2.03-4.24-2.14-8.63-1.44-13.13c0.2-1.26,0.51-2.51,0.84-3.74c0.84-3.18,0.83-6.36-0.16-9.47c-1.99-6.26-2-12.59-1.03-18.99
			c0.58-3.83,0.54-7.65,0-11.48c-0.64-4.49-0.4-8.92,0.71-13.33c1.02-4.06,1.08-8.22,1.2-12.39c0.11-4.15,0.37-8.31,0.95-12.41
			c0.82-5.75,1.04-11.45,0.3-17.21c-0.61-4.76-0.96-9.55-0.27-14.35c0.5-3.5,1.01-6.96,3.08-9.99c0.71-1.05,1.2-2.26,1.71-3.43
			c2.19-5.03,2.09-9.94-0.83-14.68c-0.33-0.55-0.68-1.08-1.03-1.62c-1.91-2.9-1.93-6.04-1-9.22c0.44-1.52,1.06-3.03,1.8-4.43
			c2.89-5.46,2.74-11.07,0.96-16.76c-0.57-1.83-1.24-3.64-1.96-5.41c-1.26-3.09-1.28-6.23-0.48-9.42c0.39-1.55,0.82-3.09,1.27-4.63
			c1.72-5.9,2.35-11.94,1.94-18.04c-0.32-4.81-0.17-9.58,0.4-14.36c0.72-6.04,1.18-12.09,0.62-18.19c-0.3-3.25,0.22-6.38,2.26-9.11
			c3.33-4.46,3.42-9.5,2.51-14.68c-0.28-1.57-0.71-3.12-1.16-4.66c-0.91-3.13-1.13-6.28-0.45-9.48c0.26-1.25,0.45-2.52,0.58-3.79
			c0.42-3.88,0.23-7.72-1.55-11.26c-1.95-3.87-2.3-7.93-1.94-12.14c0.75-8.92,1.52-17.84,2.13-26.77c0.22-3.22,0.54-6.38,1.66-9.41
			c2.48-6.73,3.49-13.55,2.2-20.73c-0.86-4.78-0.3-9.55,1.29-14.19c1.58-4.6,1.98-9.34,1.51-14.2c-0.25-2.53-0.07-5.1-0.06-7.65
			c0.04-7.35,0.23-14.69,0.09-22.04c-0.17-8.94-0.25-17.87,0.03-26.8c0.02-0.64,0.12-1.29,0.04-1.92c-0.9-7.7,0.3-15.32,0.98-22.95
			c0.37-4.16,0.55-8.3-0.03-12.45c-0.71-5.12-0.22-10.15,0.41-15.27c1.4-11.44,2.15-22.93,0.36-34.43
			c-0.59-3.82-0.62-7.63-0.12-11.48c0.54-4.12,0.83-8.28,1.44-12.39c0.47-3.15,0.85-6.42,2.01-9.34c2.7-6.77,3.05-13.72,2.32-20.77
			c-0.77-7.38-0.39-14.69,0.53-22.01c0.36-2.88,0.88-5.71,2.32-8.26c2.64-4.68,3.2-9.78,2.37-14.89c-0.89-5.49-0.6-10.77,0.59-16.16
			c0.61-2.77,0.48-5.72,0.58-8.59c0.16-4.48,0.18-8.95,0.34-13.43c0.16-4.52,0.67-8.97,3.8-12.6c3.42-8.6,7.39-17.01,7.71-26.55
			c0.13-3.93-0.12-7.66-2.1-11.13c-0.47-0.83-0.91-1.69-1.31-2.56c-2.07-4.45-3.12-9.11-2.25-14c1.21-6.74,0.8-13.38-0.87-19.98
			c-0.72-2.84-0.94-5.69-0.09-8.53c2.32-7.73,2.62-15.75,3.57-23.68c1.3-10.86,0.69-21.72,0.45-32.58
			c-0.11-4.83,0.05-9.57,1.13-14.29c0.57-2.48,0.95-5.05,1.03-7.6c0.32-9.27,0.65-18.54,0.63-27.81c-0.01-4.81,0.02-9.58,0.73-14.35
			c0.95-6.35,1.27-12.7,0.14-19.1c-1.08-6.14,0.4-12.1,2.08-17.96c0.79-2.76,1.89-5.44,2.78-8.18c2.04-6.29,2.39-12.58-0.44-18.72
			c-1.27-2.75-1.49-5.44-0.84-8.38c0.62-2.8,0.83-5.69,1.27-8.54c1.34-8.58,1.63-17.2,0.63-25.83c-0.9-7.77-0.22-15.32,2.61-22.65
			c1.68-4.35,1.63-8.76,0.21-13.17c-0.39-1.22-0.7-2.47-1.2-3.64c-2.23-5.17-2.66-10.49-1.63-15.98c0.71-3.81,0.63-7.62,0.21-11.47
			c-0.35-3.17-0.35-6.37-0.48-9.56c-0.09-2.28-0.67-4.41-1.81-6.39c-1.88-3.26-4.61-5.25-8.38-5.71c-0.32-0.04-0.64-0.12-0.95-0.1
			c-7.18,0.54-13.93-1.44-20.7-3.41c-2.75-0.8-5.62-1.33-8.47-1.65c-6.36-0.71-12.65-1.52-18.8-3.52c-2.67-0.87-5.68-0.9-8.54-0.92
			c-7.36-0.06-14.72,0.13-22.07,0.15c-3.27,0.01-6.33,0.73-9.28,2.08c-5.83,2.68-11.81,2.37-17.84,0.8
			c-3.71-0.97-7.4-2.03-11.13-2.92c-4.17-1-8.27-0.81-12.14,1.25c-4.49,2.39-9.11,2.66-13.94,1.15c-3.78-1.19-7.57-0.9-11.35,0.18
			c-2.46,0.7-5.05,1.02-7.43,1.91c-3.91,1.46-7.56,0.67-11.2-0.75c-1.18-0.46-2.4-0.99-3.39-1.75c-3.46-2.66-7.46-3.53-11.67-3.85
			c-3.19-0.25-6.37-0.59-9.56-0.84c-4.17-0.33-8.19-1.07-12.05-2.87c-4.12-1.92-8.59-2.48-13.12-2.39
			c-3.52,0.07-7.03,0.21-10.55,0.34c-5.75,0.21-11.51,0.36-17.26,0.68c-4.15,0.23-8.29,0.57-12.41,1.06
			c-3.84,0.46-7.62,0.6-11.45-0.16c-2.82-0.56-5.7-0.78-8.55-1.16c-5.07-0.67-10.17-1.09-14.97-3.15c-2.75-1.18-5.67-1.1-8.43,0.04
			c-8.56,3.54-17.5,3.58-26.46,2.7c-7.02-0.69-14.01-1.21-21.07-0.97c-2.85,0.1-5.76-0.28-8.57-0.82c-4.44-0.85-8.87-1.2-13.36-0.79
			c-6.14,0.56-12.13-0.02-17.94-2.18c-7.06-2.63-14.45-3.14-21.77-2.16c-7.44,1-14.67,0.71-21.87-1.14
			c-3.18-0.82-6.31-0.85-9.48-0.06c-1.55,0.38-3.14,0.61-4.7,0.98c-5.95,1.43-11.9,2.25-18.05,1.22c-2.48-0.42-5.12-0.19-7.65,0.06
			c-5.13,0.51-10.21,0.36-15.32-0.29c-4.45-0.57-8.91-0.84-13.4-0.31c-5.26,0.62-10.32-0.38-14.8-3.02
			c-4.4-2.59-8.95-3.33-13.83-2.62c-5.46,0.8-10.87,0.43-16.23-0.62c-4.15-0.81-8.22-0.88-12.37-0.08c-2.5,0.48-5.1,0.43-7.63,0.76
			c-3.81,0.49-7.56,1.2-10.96,3.22c-3.36,1.99-7.19,2.67-10.97,3.29c-5.05,0.83-10.12,1.51-15.2,2.14
			c-5.12,0.63-10.21,0.59-15.22-0.91c-8.34-2.51-16.45-1.82-24.28,1.94c-3.27,1.57-6.7,2-10.26,1.96
			c-5.12-0.07-10.24-0.12-15.36-0.04c-5.17,0.08-10.22-0.49-15.11-2.2c-7.36-2.58-14.92-3.28-22.69-3.04
			c-5.42,0.16-10.87-0.18-16.29-0.62c-2.51-0.2-4.99-1.06-7.42-1.85c-4.7-1.53-9.41-1.82-14.17-0.46c-4.03,1.15-8.12,1.78-12.3,1.8
			c-2.59,0.01-5.09,0.54-7.45,1.61c-3.29,1.5-6.77,1.77-10.32,1.73c-3.52-0.04-7.04-0.09-10.56,0.06
			c-8.04,0.35-15.91-0.2-23.72-2.51c-7.8-2.31-15.85-1.64-23.83-0.69c-6.27,0.75-11.54,3.68-16.17,7.79
			c-3.53,3.13-5.3,7.16-5.23,11.91c0.02,1.59,0.32,3.18,0.4,4.78c0.43,8.63,0.86,17.25,0.26,25.89c-0.59,8.63-0.71,17.26,0.07,25.89
			c0.23,2.54,0.1,5.11,0.15,7.67c0.05,2.56-0.05,5.13,0.21,7.67c1.45,13.7,1.38,27.47,1.87,41.22c0.16,4.49,0.38,8.95,1.36,13.35
			c1.27,5.69,1.17,11.41,0.61,17.18c-0.81,8.27-1.41,16.57-2.06,24.86c-0.33,4.19,0.17,8.31,1.55,12.3
			c1.27,3.66,1.91,7.38,1.92,11.28c0.01,3.18,0.42,6.39,0.89,9.54c0.67,4.46,0.83,8.91,0.27,13.39c-1,7.96-1.28,15.93-0.72,23.95
			c0.2,2.86,0.01,5.75-0.02,8.63c-0.04,4.79-0.1,9.59-0.14,14.38c-0.02,1.92,0.18,3.86-0.02,5.75c-1.28,12.24,0.49,24.28,2.48,36.27
			c0.9,5.43,1.54,10.71,0.19,16.15c-0.45,1.8-0.31,3.83-0.08,5.7c0.47,3.8,0.94,7.64,1.87,11.35c1.27,5.04,1.54,10.1,1.26,15.23
			c-0.62,11.19-0.53,22.37,0.4,33.55c0.67,8.03-0.09,16-1.6,23.87c-0.79,4.15-1.12,8.16-0.19,12.34c0.47,2.12,0.44,4.5,0,6.63
			c-1.63,7.9-1.86,15.87-1.9,23.88c-0.01,2.56-0.2,5.11-0.25,7.67c-0.04,1.92-0.33,3.92,0.1,5.73c1.34,5.65,1.11,11.46,2.03,17.14
			c0.73,4.45,0.95,8.91,0.16,13.37c-0.57,3.19-0.58,6.37-0.02,9.55c0.62,3.5,0.48,6.96,0.13,10.5c-0.85,8.62-0.34,17.26,0.23,25.87
			c1,15.01,1.44,30.01,0.56,45.05c-0.28,4.77-0.17,9.6,0.15,14.37c0.51,7.67,0.73,15.32,0.22,23.01c-0.27,4.13-0.02,8.31,0.14,12.46
			c0.26,6.43,0.16,12.8-2.3,18.9c-0.97,2.41-1.22,4.96-1.08,7.55c0.25,4.51-0.31,8.95-1.11,13.36c-0.86,4.75-1.11,9.52-1.07,14.33
			c0.14,13.76,0.47,27.51-0.42,41.26c-0.21,3.17-0.09,6.43,0.39,9.57c0.78,5.14,0.55,10.18-0.19,15.28
			c-0.51,3.48-0.64,7.01-1.04,10.5c-0.41,3.52-0.27,7.01,0.02,10.53c0.47,5.73,0.74,11.49,0.99,17.23
			c0.21,4.79,0.36,9.59,0.36,14.38c0,4.15-0.13,8.31-0.44,12.45c-0.45,6.08-0.47,12.12,0.33,18.19c0.5,3.8,0.85,7.66,0.77,11.48
			c-0.22,10.23-0.81,20.44-1.07,30.67c-0.15,5.75-0.11,11.51,0.16,17.26c0.39,8.32,0.63,16.62-0.49,24.91
			c-0.79,5.82-0.27,11.53,1.93,16.98c1.38,3.4,1.59,6.8,1.03,10.35c-0.15,0.95-0.12,1.93-0.31,2.86c-1.78,8.56-1.65,17.17-0.7,25.8
			c0.39,3.52,0.37,7.01-0.13,10.52c-0.81,5.72-0.69,11.47-0.57,17.24c0.21,9.91,0.09,19.83,0.24,29.75
			c0.06,4.15,0.26,8.32,0.7,12.45c0.55,5.11,0.5,10.21,0.32,15.33c-0.21,6.07-0.15,12.15-0.18,18.22c-0.02,2.56,0.16,5.13-0.02,7.67
			c-0.44,6.4-0.42,12.77,0,19.17c0.23,3.48,0.02,7.05-0.52,10.5c-0.85,5.42-0.92,10.81-0.65,16.26c0.2,4.14,0,8.3-0.08,12.45
			c-0.07,3.2-0.34,6.39-0.33,9.59c0.01,6.08,0.24,12.15,0.23,18.23c-0.01,5.17,0.46,10.22,2.73,14.97c0.55,1.15,0.98,2.37,1.28,3.61
			c0.87,3.5,1.08,7.09-0.75,10.29c-4.01,7.02-4.35,14.65-3.96,22.36c1.1,21.75,0.56,43.48-0.34,65.22
			c-0.21,5.11-0.25,10.24-0.38,15.35c-0.09,3.53-0.32,7.02-1.94,10.28c-1.99,4-1.51,8.08-0.18,12.14c0.5,1.52,1.24,2.96,1.72,4.48
			c0.48,1.52,1.07,3.09,1.1,4.65c0.11,6.07,0.1,12.14-0.03,18.21c-0.06,2.6-1.06,4.97-2.61,7.11c-2.45,3.39-2.54,7.13-1.45,11
			c0.26,0.92,0.39,1.95,0.89,2.73c3.27,5.14,3.35,10.9,3.47,16.68c0.03,1.6,0.23,3.2,0.14,4.79c-0.76,14.39,0.02,28.77,0.31,43.15
			c0.31,15.39-1.39,30.67-3.77,45.85c-1.14,7.29-1.85,14.58-1.88,21.96c-0.05,16.96-0.21,33.91-0.35,50.87
			c-0.04,5.12,0.14,10.21,0.92,15.3c0.48,3.12,0.63,6.42,0.19,9.54c-1.18,8.29-0.94,16.59-0.92,24.91
			c0.05,17.27,0.11,34.55-0.02,51.82c-0.03,4.13-0.67,8.28-1.29,12.39c-0.63,4.14-0.89,8.24-0.35,12.41
			c0.74,5.74,0.47,11.47-0.21,17.22c-1.3,11.12-2.44,22.26-3.58,33.39c-0.49,4.79-0.44,9.59,0.25,14.36
			c0.65,4.45,0.73,8.91,0.53,13.4c-0.16,3.51,0.01,7.03-0.04,10.55c-0.04,3.2,0.06,6.42-0.32,9.58c-0.76,6.37-0.9,12.76-0.95,19.16
			c-0.04,5.44-0.24,10.87-0.37,16.31C589.96,3065.04,575.24,3065.04,560.52,3065.04z M936.7,1179.02c0,0.05,0,0.11,0,0.16
			c20.8,0.33,41.6,0.49,62.39,1.02c38.7,0.98,77.4,2.22,116.1,3.28c28.15,0.77,56.29,1.46,84.44,2.14
			c9.28,0.23,18.56,0.3,27.83,0.52c13.75,0.32,27.51,0.72,41.26,1.06c2.24,0.06,4.48,0.03,6.72-0.06c0.95-0.04,1.93-0.2,2.81-0.53
			c1.55-0.58,2.82-1.68,3.25-3.29c0.4-1.52,0.6-3.16,0.54-4.73c-0.2-4.79-0.69-9.58-0.83-14.37c-0.18-6.11-0.89-12.07-2.9-17.91
			c-2.06-6.02-1.78-11.96,1.81-17.5c2.37-3.65,2.93-7.77,2.57-11.99c-0.35-4.14-1.06-8.25-1.45-12.39
			c-0.39-4.13-0.75-8.28-0.82-12.42c-0.06-3.51,0.24-7.03,0.52-10.54c0.36-4.5,0.22-8.97-0.99-13.33c-1.3-4.69-1.66-9.5-1.29-14.28
			c0.91-11.84,0.07-23.67,0-35.5c-0.02-3.5-0.27-7.06-0.99-10.47c-1.34-6.35-1.54-12.69-0.92-19.09c0.8-8.33,0.67-16.62-0.68-24.88
			c-0.73-4.45-0.76-8.89-0.48-13.39c0.35-5.75,0.51-11.51,0.52-17.27c0.01-2.53-0.13-5.2-0.93-7.57c-1.86-5.53-2.56-11.2-2.92-16.96
			c-0.48-7.68-1.39-15.28-3.85-22.65c-1.43-4.28-1.65-8.77-1.77-13.27c-0.11-4.47-0.29-8.95-0.7-13.41
			c-0.36-3.87-0.17-7.62,0.7-11.42c0.85-3.73,1.48-7.54,1.81-11.35c0.84-9.88,1.34-19.79,2.19-29.67c1-11.57,0.43-23.02-2.05-34.36
			c-1.09-5.01-1.88-10.06-2.17-15.19c-0.26-4.49-0.93-8.93-2.56-13.14c-2.99-7.72-3.18-15.56-1.48-23.59
			c0.59-2.8,0.91-5.7,0.97-8.56c0.17-7.67,0.38-15.35-1.15-22.96c-0.5-2.49-0.68-5.08-0.71-7.63c-0.13-10.58-1.57-21.05-2.46-31.56
			c-0.59-7.02-1.65-13.98-0.33-21.02c0.23-1.24,0.1-2.55,0.11-3.83c0.02-2.6-0.26-5.19-1.74-7.37c-2.26-3.33-2.77-7.11-3.27-10.92
			c-0.33-2.55-0.61-5.18-2.1-7.32c-2.85-4.1-3.73-8.76-4.35-13.56c-0.49-3.81-1.13-7.59-1.67-11.39
			c-1.09-7.61-1.58-15.27-1.64-22.96c-0.04-4.92-1.19-9.54-4.25-13.49c-3.4-4.39-5.62-9.2-6.28-14.78
			c-0.22-1.86-1.21-3.62-1.85-5.43c-0.75-2.11-1.69-4.17-2.2-6.34c-0.82-3.46-2.06-6.69-3.74-9.83c-1.05-1.95-1.68-4.14-2.46-6.23
			c-0.67-1.8-1.09-3.71-1.95-5.4c-1.6-3.16-3.15-6.31-3.63-9.86c-0.49-3.66-3.26-6.19-4.52-9.46c-0.11-0.3-0.24-0.6-0.28-0.92
			c-0.85-6.57-5.65-11.4-7.67-17.46c-4.54-4.75-4.89-11.79-9.16-16.69c-1.28-3.98-2.92-7.76-5.55-11.08
			c-0.57-0.72-0.87-1.72-1.11-2.63c-0.74-2.83-2.18-5.29-3.75-7.73c-1.03-1.59-1.88-3.35-2.51-5.14c-1.17-3.36-2.91-6.37-4.78-9.37
			c-2.37-3.79-4.72-7.64-6.62-11.67c-5.48-11.62-13.24-21.87-19.55-32.99c-0.93-1.64-2.36-3.02-3.66-4.42
			c-4.55-4.93-8.5-10.4-13.46-14.96c-4.87-7.53-10.99-14.1-16.33-21.24c-4.77-6.4-9.37-12.94-14.74-18.83
			c-4.71-5.18-9.79-10.04-14.64-15.1c-0.44-0.46-0.97-0.83-1.47-1.24c-2.96-2.43-5.89-4.91-8.89-7.29c-3-2.38-6.01-4.77-9.15-6.96
			c-2.14-1.49-3.82-3.35-5.55-5.24c-4.11-4.47-8.2-8.99-14.19-11.1c-1.16-0.41-2.13-1.37-3.19-2.07c-2.13-1.4-4.26-2.79-6.4-4.18
			c-2.94-1.92-6.2-3.51-8.76-5.85c-4.78-4.36-10.34-7.49-15.66-11.01c-1.07-0.7-2.22-1.32-3.16-2.16c-2.19-1.95-4.69-3.28-7.42-4.3
			c-1.79-0.67-3.6-1.42-5.17-2.47c-3.28-2.21-7.25-2.51-10.7-4.14c-3.44-1.63-6.16-4.55-10.02-5.54c-1.83-0.47-3.61-1.34-5.25-2.3
			c-3.66-2.15-7.53-3.5-11.76-3.81c-2.58-0.19-5.08-0.78-7.36-2.02c-5.49-2.99-11.44-4.03-17.58-4.13
			c-4.56-0.07-8.87-0.99-13.04-2.79c-4.16-1.8-8.54-2.64-13.04-2.92c-4.47-0.28-8.93-0.66-13.4-0.98c-3.85-0.27-7.65-0.86-11.2-2.44
			c-5.7-2.53-11.61-3.41-17.8-2.74c-4.2,0.45-8.34-0.03-12.24-1.7c-4.18-1.79-8.58-2.53-13.03-3.05
			c-6.67-0.79-13.35-1.47-20.09-1.43c-3.5,0.02-7.03-0.33-10.49-0.85c-4.8-0.73-9.53-0.67-14.32,0.08
			c-11.76,1.84-23.56,1.87-35.39,0.63c-2.53-0.27-5.15-0.6-7.63-0.24c-7.64,1.1-15.31,1.1-22.99,1.16
			c-6.75,0.05-13.4,0.6-19.86,2.81c-2.07,0.71-4.39,0.91-6.6,0.91c-7.35,0-14.71-0.07-22.06-0.35c-5.48-0.21-10.85,0.03-16.16,1.56
			c-2.76,0.79-5.62,1.68-8.44,1.7c-7.67,0.04-15.32,1.24-23,0.56c-5.51-0.49-10.86,0.06-15.92,2.5c-2.93,1.41-6.09,1.91-9.32,2.02
			c-1.6,0.05-3.2,0.12-4.8,0.13c-4.89,0.01-9.39,1.16-13.8,3.43c-4.81,2.48-9.95,4.32-14.98,6.33c-1.16,0.46-2.49,0.55-3.76,0.68
			c-9.23,0.9-18.47,1.71-27.7,2.67c-2.53,0.26-5.17,0.56-7.49,1.51c-5.91,2.43-11.76,5.04-17.43,7.97
			c-2.84,1.47-5.62,3.03-8.65,4.08c-7.6,2.62-14.73,6.31-21.44,10.61c-4.78,3.06-9.61,4.83-15.21,5.01
			c-1.86,0.06-3.89,0.54-5.49,1.44c-3.37,1.91-6.89,3.32-10.58,4.45c-1.8,0.55-3.45,1.62-5.15,2.51c-1.69,0.88-3.28,2.04-5.05,2.7
			c-3.03,1.11-5.79,2.61-8.46,4.43c-2.9,1.98-5.9,3.94-9.11,5.3c-6.6,2.81-11.79,7.58-17.46,11.7c-1.81,1.31-3.47,2.83-5.25,4.17
			c-4.38,3.3-8.25,7.04-11.31,11.64c-1.04,1.57-2.43,2.94-3.81,4.24c-7.2,6.77-15.16,12.75-21.33,20.6
			c-0.78,0.98-2.02,1.59-2.87,2.53c-2.77,3.08-6.06,5.91-8.01,9.46c-2.14,3.91-4.43,7.7-6.7,11.53c-2.3,3.89-4.88,7.52-7.89,10.83
			c-2.39,2.62-4.36,5.49-6.35,8.4c-3.63,5.31-6.53,11-9.38,16.72c-4.71,9.44-9.25,18.96-13.77,28.5c-1.23,2.59-2.62,5.26-3.05,8.03
			c-0.9,5.82-3.42,11-5.72,16.25c-2.81,6.43-6.44,12.52-7.66,19.58c-2.64,5.13-5,10.35-5.91,16.14c-0.19,1.21-0.96,2.36-1.6,3.46
			c-2.31,3.96-3.43,8.27-3.8,12.78c-1.1,13.2-5.41,25.62-9.37,38.1c-1.47,4.62-2.66,9.2-2.95,14.02
			c-0.54,8.94-1.13,17.88-1.55,26.83c-0.18,3.87-0.58,7.66-1.91,11.3c-1.68,4.58-2.16,9.31-2.19,14.15
			c-0.04,7.68,0.09,15.35,0.94,23c0.85,7.65,0.91,15.29-0.46,22.95c-0.73,4.07-0.85,8.28-0.92,12.43
			c-0.16,10.26-1.46,20.43-2.62,30.59c-1.43,12.48-1.62,24.88,0.45,37.28c0.64,3.81,1.02,7.62,0.42,11.46
			c-0.75,4.78-0.6,9.57-0.23,14.36c0.32,4.16,0.31,8.32-0.56,12.43c-0.94,4.46-0.8,8.89,0.21,13.33c1.22,5.35,1.31,10.79,1.05,16.24
			c-0.15,3.19-0.38,6.39-0.71,9.57c-0.7,6.73-0.5,13.4,0.81,20.06c1.62,8.21,1.71,16.52,1.23,24.86c-0.26,4.46-0.27,8.94-0.2,13.41
			c0.06,4.16,0.3,8.32-0.65,12.42c-0.59,2.54-0.42,5.05-0.17,7.62c0.46,4.77,0.81,9.56,0.93,14.35c0.18,7.35,0.18,14.72,0.13,22.07
			c-0.02,3.19-0.09,6.42-0.58,9.56c-1.13,7.34-1.16,14.65-0.22,22c0.7,5.43,0.69,10.85-0.35,16.25c-1.85,9.53-1.76,19.13-0.29,28.66
			c1.19,7.66,1.29,15.27,0.78,22.96c-0.25,3.82-0.33,7.67-0.25,11.5c0.25,11.83,0.97,23.66,0.87,35.49
			c-0.16,18.55-0.84,37.1-1.32,55.65c-0.2,7.67-0.74,15.35-0.64,23.02c0.14,10.55,0.68,21.1,1.15,31.65
			c0.51,11.19,1.42,22.36,1.67,33.55c0.38,17.27,0.28,34.55,0.52,51.82c0.22,15.35,0.6,30.71,0.99,46.06
			c0.15,6.07,0.61,12.14,0.76,18.22c0.54,21.1,1.31,42.21,0.15,63.32c-0.04,0.64-0.01,1.28-0.02,1.92
			c-0.29,17.59-0.59,35.18-0.88,52.78c-0.02,0.96-0.12,1.96,0.11,2.86c0.22,0.85,0.67,1.78,1.31,2.36c0.77,0.69,1.78,0.39,2.61-0.22
			c3.85-2.85,7.75-5.63,11.52-8.58c4.26-3.34,8.61-6.6,11.33-11.53c1.07-1.94,2.6-3.65,4.07-5.33c1.04-1.19,2.17-2.45,3.54-3.16
			c3.23-1.67,5.49-4.33,7.95-6.84c3.12-3.19,6-6.61,10.19-8.64c1.65-0.8,2.98-2.38,4.23-3.81c1.69-1.92,3.11-4.06,4.73-6.05
			c1.87-2.3,2.95-4.9,3.33-7.84c0.32-2.54,0.69-5.07,1.2-7.58c0.53-2.6,1.88-4.74,4.12-6.25c2.65-1.79,5.36-3.5,7.97-5.35
			c11.52-8.16,22.03-17.5,31.97-27.51c3.47-3.49,4.95-5.07,9.79-1.65c0.76,0.54,1.73,0.86,2.65,1.08c2.61,0.63,5.07,0.36,7.2-1.5
			c3.13-2.72,6.22-5.49,9.43-8.11c3.21-2.62,6.4-5.34,9.9-7.52c2.49-1.55,4.62-3.32,6.63-5.41c4.88-5.07,10.18-9.61,16.05-13.59
			c5.25-3.57,10.64-7.1,14.75-12.16c1.19-1.47,2.69-2.78,4.28-3.81c5.41-3.49,9.92-8.02,14.62-12.34c1.17-1.07,2.39-2.2,3.17-3.55
			c2.46-4.26,5.92-7.5,9.87-10.32c8.61-6.16,16.41-13.26,23.97-20.65c2.05-2.01,4.22-3.95,6.57-5.58c2.38-1.66,4.47-3.55,6.6-5.5
			c4.91-4.52,9.91-8.89,17.12-9.72c3.42-0.4,6.65-2.22,10.01-3.26c1.82-0.56,3.74-1.22,5.59-1.15c4.75,0.18,8.71-1.3,12.3-4.36
			c1.68-1.43,3.95-2.15,5.71-3.5c6.18-4.7,13.34-6.04,20.8-5.83c5.14,0.14,10.22,0.03,15.33-0.47c5.74-0.56,11.47-0.61,17.25-0.33
			c6.06,0.3,12.15,0.06,18.23,0c11.84-0.12,23.67-0.54,35.51-0.39c31.67,0.39,63.34,1.02,95.02,1.55c3.84,0.06,7.68,0.02,11.52,0.14
			c25.26,0.79,50.53,1.66,75.79,2.41C892.56,1177.87,914.63,1178.42,936.7,1179.02z"/>
		<path d="M388.65,912.69c-11.24,0.73-20.42-0.02-29.46-2.61c-3.99-1.14-8.13-1.74-12.21-2.54c-2.57-0.5-4.86-1.51-6.84-3.26
			c-1.68-1.48-3.51-2.79-5.11-4.35c-2.83-2.77-4.62-6.08-4.78-10.15c-0.09-2.23-0.1-4.51-0.54-6.68c-1.11-5.4-1.05-10.77-0.44-16.23
			c0.36-3.15,0.18-6.39-0.12-9.56c-0.36-3.88-0.34-7.68,0.98-11.37c1.56-4.35,1.87-8.73,0.66-13.2c-1.03-3.81-0.9-7.59,0.09-11.38
			c0.99-3.8,0.77-7.59-0.07-11.4c-1.59-7.25-1.65-14.6-1.14-21.97c0.2-2.87,0.65-5.75,0.58-8.61c-0.25-10.34,2.06-20.33,3.9-30.39
			c0.29-1.56,0.7-3.15,1.34-4.59c1.91-4.31,1.63-8.64,0.89-13.16c-0.88-5.35-1.25-10.79-1.76-16.2c-0.25-2.58,0-5.12,1.29-7.45
			c2.27-4.09,2.94-8.41,1.97-12.99c-0.68-3.2-0.55-6.36,0.41-9.48c1.24-4.02,1.58-8.16,1.63-12.33c0.04-3.89,0.72-7.66,2.3-11.21
			c1.86-4.17,2.57-8.55,2.83-13.05c0.11-1.92,0.43-3.82,0.47-5.74c0.15-7.42,1.08-14.63,4.24-21.48c1.65-3.57,1.7-7.5,0.98-11.32
			c-0.86-4.58-0.08-8.81,1.54-13.12c1.58-4.17,2.76-8.53,3.75-12.88c1.51-6.62,3.75-12.88,7.76-18.42c1.94-2.68,3.09-5.64,2.93-8.95
			c-0.44-9.41,2.68-18.32,3.79-27.51c2.22-5.64,4.34-11.32,7.84-16.35c4.02-5.77,7.86-11.66,11.93-17.39
			c3.48-4.91,4.54-10.49,4.94-16.29c0.09-1.27,0.01-2.56-0.13-3.83c-0.55-4.9-0.3-9.61,3.06-13.62c1.74-5.87,6.13-10.49,7.7-16.44
			c0.16-0.61,0.35-1.36,0.78-1.73c4.6-3.91,5.21-10.16,8.73-14.71c0.77-0.99,1.51-2.2,1.72-3.4c0.74-4.32,3.46-7.46,5.95-10.76
			c5.39-7.14,10.67-14.36,16.15-21.44c7.22-9.33,14.81-18.4,21.31-28.3c3.68-5.6,8.03-10.71,13.21-15.12
			c4.38-3.73,8.19-8,10.79-13.32c1.82-3.71,4.27-7.12,6.53-10.6c1.91-2.95,3.95-5.79,6.63-8.16c3.57-3.16,6.1-7.39,10.14-10.11
			c0.78-0.53,1.31-1.47,2.11-1.94c4.51-2.63,7.98-6.13,10.8-10.61c2.01-3.19,5.22-5.68,8.89-7.07c5.19-1.97,9.35-5.49,13.73-8.69
			c5.42-3.96,10.71-8.09,16.04-12.18c3.38-2.59,7.17-4.24,11.37-4.75c3.55-0.43,6.86-1.39,9.96-3.2c2.53-1.47,5.36-2.04,8.27-2.25
			c1.28-0.09,2.55-0.33,3.83-0.29c7.03,0.2,14.06,0.34,21.08,0.76c3.55,0.21,5.89,2.39,6.78,5.84c1.54,6.05,1.33,12.08-1,17.89
			c-3.93,9.79-8.57,19.23-13.85,28.37c-2.07,3.59-3.78,7.41-5.37,11.24c-2.68,6.5-4.98,13.17-8.69,19.2
			c-2.73,8.2-6.81,15.83-10.15,23.78c-3.88,9.24-6.49,18.62-6.31,28.81c0.1,5.41-1.32,10.76-3.7,15.77
			c-0.95,2.01-1.55,4.19-2.32,6.29c-0.89,2.39-1.56,4.89-2.74,7.13c-2.14,4.05-3.32,8.31-3.58,12.84
			c-0.35,6.08-1.14,12.07-2.68,17.99c-0.88,3.39-1.22,6.93-1.67,10.42c-0.95,7.3-1.85,14.6-2.71,21.91
			c-0.64,5.42-1.81,10.69-3.34,15.94c-2.77,9.52-5.24,19.1-5.59,29.13c-0.13,3.8-0.88,7.63-1.73,11.35
			c-1.09,4.71-1.79,9.41-1.48,14.25c0.34,5.45-0.33,10.81-1.27,16.2c-1.53,8.82-2,17.79-1.89,26.75c0.07,5.14-0.21,10.2-0.79,15.3
			c-1.01,8.9-1.75,17.83-2.52,26.75c-0.19,2.23-0.23,4.48-0.12,6.71c0.39,7.37,0.23,14.7-0.97,22.01
			c-0.58,3.51-0.33,7.02,0.51,10.48c1,4.08,1.12,8.21,0.84,12.39c-0.2,2.87-0.26,5.76-0.13,8.63c0.25,5.46-0.38,10.79-1.29,16.19
			c-1.44,8.51-2.12,17.15-0.11,25.73c0.74,3.15,1.18,6.32,0.5,9.51c-1.4,6.65-1.23,13.37-0.98,20.08c0.21,5.77,0.31,11.49-0.7,17.22
			c-0.73,4.15-0.41,8.32,1.02,12.31c1.64,4.59,2.05,9.31,2.23,14.14c0.4,10.24,1.3,20.44,3.79,30.42c0.95,3.8,1.07,7.57,0.21,11.4
			c-0.99,4.36-1.84,8.76-2.88,13.11c-0.61,2.55-1.94,4.7-4.18,6.23c-1.32,0.9-2.58,1.89-3.81,2.91c-2.84,2.34-6.13,3.35-9.76,3.42
			c-2.88,0.06-5.76,0.13-8.63,0.27c-3.87,0.19-7.61,0.89-11.06,2.81c-1.11,0.62-2.36,1-3.48,1.61c-8.8,4.77-18.59,6.72-28.01,9.68
			c-2.72,0.85-5.63,1.18-8.48,1.49c-4.78,0.52-9.51,1.18-14.07,2.84c-1.79,0.65-3.71,1.18-5.59,1.25
			c-4.24,0.15-8.19,1.27-12.07,2.85c-2.98,1.21-6.04,2.08-9.3,2.12c-3.23,0.04-6.38,0.68-9.37,1.87c-5.16,2.05-10.53,2.59-16,2.58
			C392.51,912.68,389.63,912.69,388.65,912.69z M372.18,801.96c0.65,9.46,0.61,17.11-0.31,24.77c-0.34,2.83-0.39,5.8,0.06,8.6
			c1.13,6.94,2.52,13.84,2.59,20.91c0.01,0.63,0.18,1.26,0.31,1.89c1.52,7.54,6.23,11.73,13.83,12.34
			c3.55,0.28,7.06-0.05,10.47-0.92c4.98-1.26,10.02-2.02,15.15-2.32c1.91-0.11,3.86-0.28,5.7-0.77c7.14-1.91,14.46-2.65,21.75-3.64
			c4.47-0.61,8.82-1.53,12.82-3.72c2.59-1.42,5.42-1.87,8.32-1.97c1.6-0.06,3.2-0.09,4.79-0.23c3.85-0.34,7.55-1.07,10.88-3.3
			c1.56-1.04,3.45-1.62,5.25-2.24c6.45-2.23,9.89-7.04,10.79-13.47c0.98-6.98,1.23-14.06-0.97-20.92
			c-1.39-4.37-1.54-8.75-0.96-13.26c1.19-9.23,1.47-18.5,0.3-27.75c-1.06-8.34-0.41-16.6,0.77-24.85c0.32-2.22,0.65-4.43,0.88-6.66
			c0.48-4.8,0.69-9.67-0.64-14.31c-2.23-7.76-2.5-15.77-3.71-23.66c-0.93-6.07-0.62-12.08,0.73-18.1
			c1.12-4.98,1.81-10.06,2.62-15.11c0.56-3.51,0.49-7.04-0.44-10.48c-2.31-8.5-2.19-17.16-1.09-25.73
			c0.94-7.31,1.36-14.63,1.95-21.95c0.56-7.02,1.04-14.02,0.65-21.07c-0.34-6.14,0.52-12.16,2.71-17.91
			c2.79-7.31,3.63-14.87,3.59-22.6c-0.02-3.52-0.06-7.04,0.09-10.55c0.14-3.19,0.21-6.43,0.85-9.53c1.63-7.92,1.87-15.85,1.06-23.86
			c-0.42-4.15-0.26-8.3,0.64-12.41c1.64-7.5,3.15-15.02,4.92-22.49c1.04-4.38,1.86-8.74,1.6-13.27c-0.25-4.5,0.36-8.95,1.46-13.31
			c1.17-4.65,2.5-9.26,3.73-13.89c0.82-3.09,2.01-6.15,2.28-9.29c0.76-8.65,2.8-16.95,5.1-25.31c1.86-6.77,3.49-13.61,5.61-20.32
			c0.58-1.83,1.28-3.68,1.46-5.56c0.52-5.5,2.2-10.58,4.57-15.53c1.52-3.18,2.52-6.6,2.45-10.18c-0.03-1.57-0.34-3.17-0.79-4.68
			c-0.61-2.05-3.59-3.21-5.6-2.31c-0.86,0.39-1.81,0.76-2.48,1.39c-3.01,2.85-6.01,5.72-8.87,8.73c-1.3,1.37-2.36,3.02-3.33,4.65
			c-3.27,5.48-5.99,11.29-10.06,16.29c-0.99,1.21-1.61,2.75-2.23,4.22c-2.27,5.35-5.5,10.04-9.29,14.45
			c-4.57,5.32-9.44,10.48-12.72,16.76c-2.99,5.73-6.72,10.86-11.21,15.47c-2.76,2.83-4.45,6.21-5.45,9.99
			c-0.41,1.55-0.83,3.09-1.19,4.65c-0.8,3.53-2.63,6.5-4.96,9.19c-1.25,1.45-2.58,2.84-3.97,4.17c-2.34,2.24-4.23,4.81-5.66,7.69
			c-3.12,6.3-6.34,12.56-9.16,18.99c-1.55,3.53-3.08,6.96-5.33,10.13c-3.52,4.97-6.58,10.21-7.86,16.31
			c-0.32,1.54-0.96,3.06-1.72,4.45c-1.71,3.11-2.8,6.41-3.88,9.77c-1.07,3.32-3.01,6.35-4.23,9.63c-1.33,3.58-1.96,7.44-3.47,10.92
			c-1.92,4.42-3.75,8.81-4.8,13.53c-0.34,1.54-0.97,3.09-1.8,4.42c-2.63,4.22-3.52,8.89-3.89,13.71c-0.32,4.19-1.18,8.24-2.95,12.05
			c-2.05,4.41-3.14,9.05-3.59,13.86c-0.59,6.39-1.83,12.62-3.58,18.81c-1.92,6.76-3.25,13.67-3.51,20.77
			c-0.11,3.16-0.71,6.37-1.54,9.43c-1.51,5.55-3.23,11.05-5.13,16.47c-1.4,4-2.41,8.06-1.68,12.22c1.3,7.42,0.36,14.66-1.06,21.91
			c-1.42,7.24-2.05,14.49-1.76,21.92c0.28,7.32,0.26,14.74-2.05,21.87c-2.01,6.19-2.39,12.52-1.91,18.96
			c0.24,3.18,0.43,6.4,0.24,9.57c-0.47,7.98-1.21,15.94-1.75,23.91C372.29,796.07,372.25,799.9,372.18,801.96z"/>
	</g>
</g>
</svg>
