<?xml version="1.0" encoding="utf-8"?>
<!-- Generator: Adobe Illustrator 23.0.2, SVG Export Plug-In . SVG Version: 6.00 Build 0)  -->
<svg version="1.1" id="send_xA0_Image_1_" xmlns="http://www.w3.org/2000/svg" xmlns:xlink="http://www.w3.org/1999/xlink" x="0px"
	 y="0px" viewBox="0 0 2854.08 1728.24" style="enable-background:new 0 0 2854.08 1728.24;" xml:space="preserve">
<style type="text/css">
	.st0{fill:#FFFFFF;}
</style>
<g>
	<path d="M1546.76,1525.06c-1.5-3.77-3.34-7.24-6.99-9.45c-2.05-1.24-3.13-3.15-3.15-5.6c0-0.48-0.07-0.96-0.05-1.44
		c0.08-2.98-0.99-5.24-3.79-6.62c-3.67-1.8-4.52-4.96-0.04-8.07c0.39-0.27,0.81-0.51,1.21-0.78c2.36-1.58,3.26-3.79,3.05-6.6
		c-0.67-8.95-0.64-17.9-0.01-26.85c0.25-3.48-0.67-6.31-3.91-8.1c-0.83-0.46-1.59-1.09-2.25-1.77c-1.56-1.63-1.52-3.55,0.11-5.07
		c0.69-0.65,1.5-1.22,2.34-1.65c2.59-1.33,3.53-3.57,3.66-6.3c0.04-0.8-0.01-1.6-0.01-2.4c0-13.11-0.01-26.22-0.01-39.34
		c0-0.64,0.02-1.28,0.06-1.92c0.16-2.61-0.69-4.87-2.96-6.16c-4.22-2.41-4.95-5.98-4.85-10.55c0.29-12.79,0.11-25.59,0.11-38.39
		c0-0.8-0.07-1.6-0.1-2.4c-0.08-2.6,0.93-4.66,3.09-6.14c0.79-0.54,1.65-1,2.39-1.6c2.25-1.84,2.25-4.32,0.02-6.07
		c-0.5-0.39-1.06-0.72-1.63-1.01c-3.31-1.7-4.19-4.6-4.04-8.04c0.14-3.19,0.36-6.39,0.36-9.58c0.03-17.28-0.02-34.56,0-51.84
		c0-3.04,0.12-6.08,0.28-9.11c0.15-2.81-0.85-4.97-3.19-6.55c-1.05-0.71-2.14-1.43-3.03-2.33c-1.57-1.59-1.31-3.62,0.55-4.92
		c0.91-0.64,1.99-1.04,2.91-1.66c1.94-1.32,2.35-3.61,0.85-5.38c-0.81-0.95-1.83-1.85-2.94-2.4c-4.66-2.29-4.77-9.51,0.17-12.21
		c0.84-0.46,1.66-0.98,2.38-1.6c2.35-2.03,2.21-4.54-0.34-6.43c-0.64-0.47-1.34-0.9-2.08-1.19c-4.17-1.61-4.84-9.6-0.7-12.19
		c0.27-0.17,0.53-0.36,0.81-0.52c3.41-1.97,4.77-4.98,4.57-8.85c-0.11-2.07-0.03-4.16-0.03-6.24c0.01-3.09-0.98-5.69-3.8-7.26
		c-3.37-1.88-4.34-4.75-4.14-8.46c0.22-4.14,0.13-8.31,0-12.46c-0.12-3.68,1.03-6.39,4.4-8.34c3.5-2.02,4.58-5.66,3.45-9.55
		c-0.48-1.64-1.52-2.8-2.99-3.58c-4.95-2.62-9.88-4.86-15.78-5.03c-10.55-0.29-21.07-1.25-31.61-1.97
		c-2.07-0.14-4.13-0.51-6.19-0.76c-3.76-0.46-6.96,0.31-9.14,3.79c-2.03,3.25-5.11,4-8.76,3.58c-5.24-0.6-10.49-1.05-15.75-1.5
		c-8.6-0.74-17.21-1.42-25.82-2.13c-0.32-0.03-0.64-0.06-0.96-0.09c-3.59-0.25-6.62,0.61-8.6,3.97c-1.73,2.95-4.52,3.88-7.81,3.57
		c-0.32-0.03-0.64-0.06-0.95-0.1c-10.15-1.43-20.38-1.78-30.59-2.54c-10.53-0.78-21.06-1.57-31.59-2.3
		c-12.61-0.88-25.22-1.68-37.82-2.59c-5.58-0.4-11.18-0.78-16.72-1.55c-4.37-0.6-7.93,0.16-10.47,4c-1.92,2.89-4.76,3.57-7.99,3.22
		c-20.68-2.23-41.45-3.21-62.18-4.79c-7.97-0.61-15.96-1.09-23.93-1.68c-2.07-0.15-4.13-0.45-6.19-0.75
		c-3.81-0.56-6.99,0.31-9.08,3.82c-0.33,0.55-0.7,1.08-1.14,1.54c-2.13,2.19-5.2,1.95-6.99-0.57c-0.65-0.91-1.1-1.95-1.7-2.89
		c-3.09-4.84-10.5-5.71-14.61-1.72c-0.57,0.56-1.11,1.16-1.57,1.81c-2.23,3.09-5.26,3.84-8.89,3.35c-3.64-0.49-7.31-0.79-10.98-1.04
		c-4.63-0.31-9.26-0.59-13.89-0.69c-3.38-0.07-5.91-1.2-7.12-4.54c-0.05-0.15-0.13-0.29-0.21-0.43c-2.68-4.76-6.62-5.33-9.74-0.88
		c-2.65,3.79-5.81,4.29-9.96,3.81c-6.83-0.8-13.7-1.16-20.55-1.74c-3.5-0.3-7-0.67-10.5-0.98c-1.11-0.1-2.23-0.15-3.35-0.15
		c-2.02-0.01-3.76,0.66-5.13,2.19c-0.53,0.6-1.1,1.17-1.59,1.79c-2.44,3.12-5.61,3.89-9.42,3.24c-3.3-0.56-6.66-0.9-10.01-1.13
		c-7.5-0.52-15.01-0.88-22.51-1.36c-2.55-0.17-5.09-0.56-7.64-0.76c-1.59-0.13-3.19-0.21-4.78-0.12c-1.66,0.09-3.07,0.87-4.1,2.21
		c-0.58,0.76-1.08,1.59-1.7,2.32c-1.64,1.96-3.7,2.92-6.33,2.72c-8.45-0.65-16.91-1.24-25.37-1.86
		c-11.49-0.84-22.97-1.73-34.46-2.54c-14.36-1.02-28.73-1.96-43.09-2.99c-2.71-0.19-5.4-0.68-8.11-0.92
		c-1.42-0.13-2.88-0.12-4.3-0.01c-1.84,0.14-3.35,1.01-4.44,2.52c-0.56,0.78-1.06,1.61-1.68,2.33c-1.43,1.67-3.24,2.56-5.48,2.48
		c-0.64-0.02-1.28-0.07-1.92-0.12c-19.14-1.45-38.28-2.9-57.41-4.38c-3.19-0.25-6.37-0.64-9.55-0.92c-1.27-0.11-2.56-0.16-3.83-0.11
		c-1.83,0.07-3.41,0.78-4.63,2.2c-0.83,0.97-1.66,1.95-2.57,2.85c-1.41,1.41-3.12,2.22-5.16,2.17c-1.28-0.03-2.56-0.07-3.83-0.17
		c-8.29-0.65-16.57-1.37-24.87-1.97c-11.01-0.8-22.02-1.48-33.03-2.28c-2.39-0.17-4.78-0.55-7.11-1.06
		c-3.77-0.83-6.57,0.43-8.69,3.54c-0.54,0.79-1.05,1.63-1.73,2.29c-1.96,1.94-5.05,1.71-6.73-0.51c-0.67-0.89-1.12-1.94-1.73-2.87
		c-3.57-5.49-10.61-6.26-15.18-1.67c-0.34,0.34-0.68,0.68-0.96,1.07c-2.37,3.21-5.66,4-9.38,3.45c-9.04-1.33-18.18-1.27-27.26-2.04
		c-6.69-0.56-13.38-1.2-20.07-1.81c-1.11-0.1-2.22-0.26-3.34-0.35c-3.08-0.26-5.68,0.65-7.6,3.19c-0.39,0.51-0.8,1-1.2,1.5
		c-1.74,2.18-4.04,3.09-6.77,2.89c-2.23-0.17-4.45-0.52-6.68-0.7c-7.33-0.59-14.68-1.1-22.01-1.71c-7.17-0.6-14.33-1.29-21.5-1.93
		c-0.95-0.09-1.91-0.11-2.87-0.17c-2.56-0.15-4.7,0.68-6.36,2.69c-0.61,0.74-1.31,1.41-1.91,2.15c-2.02,2.49-4.7,3.15-7.74,2.87
		c-8.12-0.74-16.24-1.53-24.37-2.18c-7.65-0.61-15.32-1.01-22.98-1.57c-15-1.09-29.99-2.23-44.98-3.34
		c-6.06-0.45-12.13-0.86-18.19-1.32c-4.78-0.36-9.56-0.77-14.34-1.14c-1.27-0.1-2.55-0.24-3.83-0.22c-2.52,0.03-4.72,0.82-6.22,2.99
		c-0.18,0.26-0.38,0.52-0.57,0.77c-2.35,3.13-5.45,4.12-9.3,3.64c-4.92-0.62-9.86-1.05-14.8-1.41c-3.03-0.22-6.07-0.25-9.11-0.22
		c-3.51,0.04-6.22-1.08-7.81-4.43c-0.54-1.14-1.31-2.21-2.16-3.16c-1.85-2.06-4.24-2.15-6.34-0.24c-0.94,0.86-1.78,1.84-2.57,2.84
		c-2.08,2.63-4.66,3.44-8.03,3.1c-10.66-1.08-21.34-1.96-32.02-2.79c-15.47-1.2-30.94-2.35-46.42-3.39
		c-9.57-0.65-19.16-1.04-28.74-1.58c-1.59-0.09-3.21-0.17-4.75-0.55c-3.19-0.79-4.81-2.92-4.94-6.22c-0.04-1.12,0.07-2.24,0.12-3.35
		c0.13-2.77-0.83-5.01-3.15-6.6c-0.53-0.36-1.06-0.72-1.57-1.1c-1.96-1.42-2.9-3.4-2.88-5.78c0.02-1.43,0.25-2.86,0.42-4.28
		c0.19-1.59,0.45-3.16,0.63-4.75c0.43-3.82-0.71-6.91-4.13-9.01c-2.96-1.82-3.96-4.62-3.18-7.87c0.84-3.48-0.49-5.89-3.09-7.92
		c-0.25-0.2-0.49-0.41-0.75-0.6c-2.85-2.09-3.9-4.83-3.45-8.37c0.61-4.76,0.95-9.55,1.37-14.33c0.73-8.29,1.41-16.58,2.14-24.86
		c0.24-2.74-0.5-5.06-2.68-6.83c-0.37-0.3-0.7-0.66-1.08-0.95c-3.03-2.23-3.88-5.31-3.53-8.9c0.5-5.09,0.96-10.19,1.4-15.29
		c0.24-2.71,0.43-5.42,0.63-8.13c0.21-2.92-0.71-5.35-3.07-7.16c-0.63-0.49-1.22-1.03-1.82-1.56c-1.54-1.35-2.27-3.06-2.22-5.1
		c0.04-1.44,0.02-2.88,0.14-4.31c0.82-9.56,1.63-19.12,2.55-28.67c0.34-3.53-0.61-6.41-3.72-8.2c-4.38-2.52-4.07-6.48-3.49-10.54
		c0.22-1.5,1.24-2.56,2.57-3.29c1.4-0.77,2.87-1.44,4.18-2.35c2.88-1.99,2.95-4.9,0.27-7.18c-0.36-0.31-0.76-0.59-1.18-0.83
		c-3.56-1.99-4.45-5.16-4.12-8.97c0.43-4.94,0.76-9.88,1.09-14.83c0.19-2.82,1.54-4.79,4.04-6.06c1.28-0.65,2.62-1.25,3.74-2.11
		c1.97-1.52,1.93-3.66-0.01-5.28c-0.98-0.81-2.15-1.39-3.16-2.17c-2.6-2.03-2.36-4.98,0.53-6.58c0.98-0.54,2.07-0.86,3.05-1.4
		c2.74-1.5,3.14-4.07,0.92-6.3c-0.89-0.9-2-1.59-3.03-2.34c-1.82-1.32-2.83-2.99-2.5-5.33c0.11-0.79,0.09-1.6,0.14-2.39
		c0.19-2.79-0.73-5.08-3.19-6.51c-4.06-2.36-4.87-6.02-4.44-10.31c0.89-8.91,1.73-17.83,2.59-26.74c0.05-0.48,0.07-0.96,0.15-1.43
		c0.67-4.29-0.25-7.86-4.13-10.43c-2.79-1.85-3.61-4.74-3.29-8.01c1.18-12.26,2.21-24.53,3.57-36.76c0.51-4.59-0.64-8.02-4.31-10.92
		c-4.86-3.84-4.56-9.65,0.42-13.23c1.17-0.84,2.48-1.47,3.64-2.32c2.36-1.73,2.57-4.62,0.47-6.61c-0.92-0.87-2.07-1.5-3.05-2.32
		c-4.31-3.58-3.83-9.58,1.02-12.47c0.95-0.57,2.09-0.85,3.01-1.45c2.98-1.95,3.25-5.2,0.68-7.71c-0.45-0.44-0.94-0.89-1.49-1.19
		c-3.47-1.87-4.29-4.92-3.89-8.55c0.39-3.5,0.78-6.99,1.11-10.49c0.59-6.21,1.15-12.42,1.7-18.63c0.08-0.95,0.06-1.92,0.06-2.88
		c-0.01-2.7-1.2-4.7-3.83-5.45c-3.76-1.08-5.02-3.75-4.85-7.28c0.19-3.83,0.52-7.66,0.98-11.46c0.3-2.54,1.7-4.44,4.13-5.49
		c0.59-0.25,1.14-0.61,1.74-0.8c3.56-1.14,5.09-3.8,5.13-7.29c0.04-3.27,1.78-5.23,4.21-7.07c5.08-3.84,10.28-7.57,14.76-12.14
		c2.1-2.15,4.61-2.73,7.45-2.41c3.49,0.4,6.98,0.93,10.48,1.19c4.94,0.36,9.9,0.7,14.85,0.7c3.9,0,6.79,1.17,8.63,4.79
		c1.75,3.46,4.68,5.06,8.61,4.93c8.18-0.27,16.31,0.46,24.4,1.54c3.79,0.51,6.94-0.16,9.29-3.48c2.27-3.21,5.43-4.04,9.29-3.52
		c4.27,0.57,8.6,0.67,12.9,0.95c1.44,0.09,2.88,0.05,4.32,0.1c2.62,0.09,4.54,1.38,5.95,3.51c0.79,1.2,1.39,2.55,2.32,3.62
		c1.86,2.16,4.23,2.26,6.27,0.31c0.92-0.88,1.72-1.9,2.44-2.95c1.63-2.39,3.87-3.18,6.65-2.86c5.08,0.6,10.16,1.18,15.25,1.75
		c1.27,0.14,2.54,0.29,3.82,0.35c2.72,0.13,5.02-0.8,6.83-2.86c0.32-0.36,0.66-0.71,0.92-1.11c2.46-3.82,6.08-4.3,10.14-3.58
		c2.49,0.44,4.7,1.56,5.72,3.91c2.04,4.69,5.73,6.05,10.45,5.99c2.55-0.03,5.11,0.3,7.66,0.48c3.26,0.24,5.8-0.78,7.89-3.52
		c3.27-4.28,8.59-5.23,13.28-2.76c1.46,0.77,2.61,1.88,3.28,3.39c1.88,4.28,5.35,5.51,9.72,5.55c4.47,0.05,8.93,0.47,13.4,0.73
		c1.44,0.08,2.87,0.2,4.31,0.26c2.41,0.1,4.37-0.77,5.79-2.77c0.19-0.26,0.41-0.49,0.59-0.76c2.32-3.52,5.56-4.34,9.61-3.75
		c5.22,0.76,10.5,1.06,15.74,1.7c3.99,0.49,7.31-0.42,9.64-3.88c2.27-3.37,5.41-3.89,9.24-3.49c9.23,0.96,18.48,1.63,27.73,2.34
		c7.97,0.61,15.96,1.13,23.94,1.64c2.23,0.14,4.48,0.18,6.71,0.18c3.48,0.01,6.23,1.21,7.87,4.46c0.36,0.71,0.82,1.37,1.24,2.05
		c1.08,1.73,2.67,2.78,4.63,3.13c1.41,0.25,2.86,0.4,4.29,0.34c4.58-0.2,6.64-2.15,7.25-6.7c0.19-1.42,0.28-2.87,0.6-4.26
		c0.65-2.86,2.6-4.31,5.44-4.58c0.95-0.09,1.92-0.01,2.87,0.06c11.64,0.94,23.27,1.95,34.9,2.84c15.15,1.16,30.31,2.23,45.47,3.33
		c2.07,0.15,4.16,0.19,6.23,0.37c4.77,0.42,9.57,0.75,14.31,1.41c3.85,0.54,7.05-0.24,9.25-3.55c2.13-3.19,5.05-4.15,8.7-3.78
		c2.7,0.27,5.42,0.37,8.14,0.46c3.5,0.11,6.15,1.44,7.67,4.75c0.46,1,1.07,1.99,1.81,2.8c1.8,1.96,4.45,2.03,6.41,0.21
		c0.81-0.75,1.48-1.68,2.1-2.6c1.69-2.53,4.1-3.51,7.02-3.25c5.25,0.48,10.49,1.07,15.73,1.61c1.11,0.11,2.22,0.26,3.34,0.33
		c2.6,0.15,4.68-0.7,6.08-3.03c0.57-0.95,1.26-1.88,2.09-2.6c2-1.73,4.73-1.41,6.3,0.75c0.74,1.02,1.18,2.26,1.84,3.35
		c1.66,2.77,4.52,3.07,6.76,0.65c0.86-0.93,1.43-2.12,2.27-3.08c2.04-2.33,4.5-2.29,6.54,0.09c0.62,0.72,1.12,1.56,1.55,2.41
		c1.61,3.22,4.28,4.6,7.77,4.66c1.6,0.02,3.2-0.02,4.8,0.08c3.51,0.22,7.01,0.51,10.52,0.78c0.64,0.05,1.27,0.19,1.9,0.24
		c2.89,0.22,5.56-0.45,7.21-2.93c3.23-4.85,7.75-5.02,12.74-3.95c1.72,0.37,3.44,0.77,5.17,1.03c3.24,0.49,6.02-0.38,8.09-3.07
		c0.29-0.38,0.63-0.73,0.92-1.11c1.99-2.7,4.72-3.72,7.98-3.42c7.96,0.73,15.92,1.48,23.87,2.22c1.11,0.1,2.22,0.3,3.34,0.35
		c2.73,0.13,5.21-0.69,6.71-2.99c2.89-4.42,6.78-4.9,11.69-4.36c9.69,1.06,19.45,1.47,29.18,2.14c0.48,0.03,0.96,0.03,1.44,0.02
		c4.23-0.14,7.47,1.41,9.34,5.38c1.19,2.53,3.34,3.74,5.93,4.44c3.98,1.08,7.25,0.24,9.74-3.2c0.74-1.03,1.52-2.08,2.46-2.92
		c1.55-1.38,3.82-1.16,5.09,0.52c0.86,1.14,1.51,2.44,2.18,3.72c1.93,3.68,6.13,3.42,7.79,0.67c2.81-4.67,6.87-5.46,11.98-4.75
		c7.12,0.99,14.33,1.27,21.49,2.04c4.32,0.46,7.66-0.58,10.54-4.13c3.26-4.03,8.2-4.49,12.54-1.9c1.73,1.03,2.73,2.65,3.74,4.29
		c1.81,2.96,4.45,4.46,7.92,4.65c3.25,0.18,6.19-0.61,8.05-3.34c2.97-4.34,6.97-5.1,11.78-4.31c4.57,0.75,9.2,1.15,13.79,1.82
		c3.84,0.56,6.97-0.4,9.13-3.79c0.17-0.27,0.38-0.52,0.59-0.75c2.86-3.13,5.41-2.9,7.71,0.71c0.51,0.81,0.86,1.73,1.4,2.51
		c1.9,2.74,4.58,3,6.85,0.64c0.77-0.8,1.42-1.73,2.12-2.61c2.09-2.63,4.68-3.47,8.06-2.89c5.51,0.93,11.08,1.48,16.63,2.19
		c3.11,0.4,5.67-0.53,7.57-3.11c0.57-0.77,1.2-1.51,1.89-2.16c3.2-3,6.92-2.95,10.76-1.66c1.57,0.53,2.56,1.84,3.39,3.26
		c0.72,1.24,1.37,2.57,2.31,3.62c1.84,2.07,4.41,2.04,6.29,0.02c0.75-0.81,1.27-1.84,1.98-2.7c2.61-3.17,5.63-2.96,7.71,0.53
		c0.49,0.82,0.81,1.75,1.33,2.55c1.53,2.36,4.01,2.75,6.12,0.9c0.83-0.73,1.52-1.65,2.16-2.56c1.86-2.65,4.37-3.57,7.52-3.11
		c10.94,1.61,21.98,1.98,33,2.4c4.03,0.15,7.14,1.45,9.12,5.06c1.81,3.3,4.71,4.54,8.36,4.62c2.87,0.07,5.74,0.32,8.61,0.59
		c3.1,0.29,5.68-0.59,7.66-3.04c0.4-0.5,0.81-0.99,1.23-1.48c1.67-1.97,3.82-2.82,6.37-2.73c0.8,0.03,1.6,0.07,2.39,0.15
		c5.25,0.52,10.49,1.06,15.74,1.58c0.64,0.06,1.28,0.06,1.92,0.07c3.07,0.05,5.69-0.87,7.42-3.57c2.18-3.41,5.36-4.24,9.16-3.77
		c2.69,0.34,5.4,0.65,8.11,0.71c3.5,0.08,6.3,1.28,7.87,4.49c1.94,3.96,5.12,5.4,9.36,5.35c2.55-0.03,5.1,0.32,7.65,0.56
		c3.44,0.32,6.31-0.63,8.42-3.51c0.56-0.77,1.23-1.47,1.88-2.18c1.14-1.24,2.59-1.86,4.27-1.88c1.12-0.01,2.24,0.01,3.35,0.1
		c10.83,0.93,21.66,1.88,32.49,2.81c1.11,0.1,2.24,0.12,3.35,0.06c2.18-0.11,4.02-0.97,5.41-2.7c0.7-0.87,1.34-1.8,2.12-2.6
		c1.4-1.43,3.13-2.2,5.17-2.13c0.8,0.03,1.61,0.05,2.39,0.19c9.33,1.65,18.82,1.33,28.21,2.22c4.29,0.41,8.6,0.72,12.9,1.06
		c1.11,0.09,2.23,0.16,3.35,0.18c2.22,0.04,4.04-0.83,5.48-2.5c0.52-0.61,1.03-1.23,1.49-1.88c1.43-2.03,3.46-2.75,5.83-2.69
		c1.12,0.03,2.23,0.14,3.35,0.21c7.18,0.41,14.37,0.82,21.55,1.22c1.12,0.06,2.24,0.04,3.35,0.15c2.86,0.29,5.42,1.42,6.72,4.03
		c2.26,4.55,5.91,5.7,10.67,5.61c3.97-0.08,7.96,0.6,11.94,0.96c1.27,0.12,2.54,0.3,3.81,0.45c2.93,0.36,5.35-0.66,7.33-2.77
		c1.42-1.51,2.84-3.04,4.19-4.62c1.17-1.37,0.97-2.54-0.56-3.63c-0.78-0.56-1.67-0.96-2.44-1.53c-2.8-2.09-3.33-7.28,1.18-8.85
		c0.3-0.11,0.6-0.24,0.9-0.32c2.94-0.77,4.11-2.81,4.1-5.7c-0.01-2.92-0.76-5.56-3.83-6.52c-3.99-1.24-4.89-4.11-4.88-7.8
		c0.04-14.56,0.01-29.12,0.02-43.68c0-0.48,0.02-0.96,0.05-1.44c0.17-2.77,1.19-5.01,3.98-5.98c3.26-1.13,4.25-3.62,4.27-6.75
		c0.02-2.56,0.02-5.12,0-7.67c-0.03-2.96-1.06-5.3-4.07-6.4c-3.17-1.17-4.23-3.68-4.21-6.82c0.02-3.36,0.06-6.72,0.06-10.08
		c0-88.16,0-176.31,0-264.47c0-2.24-0.08-4.48-0.06-6.72c0.01-1.28,0.01-2.57,0.23-3.82c0.57-3.22,1.94-4.37,5.25-4.36
		c8.8,0.01,17.6,0.08,26.4,0.13c0.48,0,0.96,0.02,1.44,0.02c6.6,0.04,6.69,0.55,11.27-4.59c0.74-0.83,1.56-1.63,2.46-2.27
		c1.85-1.32,3.28-2.96,4.66-4.77c3.09-4.07,9.88-4.43,12.99-0.4c2.67,3.47,6.29,5.9,9.02,9.25c1.48,1.81,3.5,2.84,5.9,2.7
		c3.18-0.18,5.59,1.18,7.5,3.53c2.52,3.11,6.06,5.19,8.34,8.58c1.34,2,3.73,2.37,6.03,2.37c3.52-0.01,7.04-0.13,10.56-0.18
		c1.6-0.02,3.2-0.01,4.8,0c2.23,0.01,4.07,0.77,5.28,2.73c2.07,3.34,5.11,4.66,8.95,4.46c2.82-0.15,4.96,1.05,6.42,3.44
		c1.99,3.25,5.06,4.21,8.63,4.11c1.92-0.05,3.84-0.22,5.75-0.21c3.01,0.01,5.7,0.78,7.39,3.59c1.56,2.59,3.91,3.57,6.89,3.47
		c3.25-0.12,5.98,1.1,7.83,3.84c2.03,3,4.88,3.93,8.31,3.67c1.28-0.1,2.57,0.02,3.84-0.14c3.81-0.47,6.95,0.62,9.31,3.72
		c0.19,0.25,0.44,0.47,0.65,0.71c1.58,1.8,3.56,2.79,5.94,2.54c3.42-0.37,5.84,1.04,7.74,3.76c1.76,2.53,4.18,3.9,7.35,3.7
		c2.79-0.17,4.94,1.01,6.65,3.14c0.5,0.62,1.06,1.19,1.6,1.79c1.46,1.63,3.19,2.63,5.48,2.38c0.63-0.07,1.28-0.04,1.92,0.01
		c2.18,0.15,3.93,1.11,5.42,2.73c2.7,2.93,5.5,5.76,8.22,8.67c1.26,1.35,2.77,2.14,4.56,2.43c0.95,0.15,1.9,0.25,2.86,0.31
		c2.38,0.16,4.34,1.09,5.66,3.12c2.02,3.11,4.91,4.46,8.56,4.27c2.81-0.14,5.02,0.92,6.48,3.32c1.68,2.76,4.22,3.92,7.26,3.83
		c3.22-0.1,5.49,1.26,7.34,3.74c1.84,2.46,4.3,3.79,7.44,3.62c2.99-0.16,5.14,1.3,7.06,3.42c2.68,2.95,5.5,5.78,8.23,8.69
		c1.27,1.35,2.77,2.17,4.64,2.17c2.4,0,4.81,0.07,7.19-0.11c3.47-0.27,6.28,0.81,8.47,3.51c0.4,0.5,0.85,0.95,1.29,1.42
		c1.49,1.61,3.24,2.63,5.52,2.27c3.22-0.51,5.57,0.87,7.5,3.29c0.6,0.75,1.25,1.46,1.91,2.15c1.15,1.21,2.56,1.89,4.25,1.93
		c0.8,0.02,1.6,0.02,2.4,0.09c2.5,0.22,4.74,1.08,6.15,3.24c1.83,2.8,4.24,4.19,7.62,4.03c2.93-0.14,5.32,1.06,6.96,3.51
		c1.77,2.64,4.17,3.76,7.34,3.63c3.09-0.13,5.65,1.18,7.39,3.74c1.93,2.83,4.57,3.82,7.85,3.61c2.07-0.13,4.16-0.12,6.23-0.22
		c2.57-0.13,4.79,0.61,6.29,2.77c2.09,3.02,4.86,4.53,8.56,4.28c2.24-0.15,3.94,0.83,5.49,2.43c5.55,5.74,11.19,11.39,16.76,17.11
		c1.79,1.84,3.88,2.67,6.45,2.58c4.32-0.15,8.64-0.09,12.95-0.26c3.08-0.12,5.66,0.78,7.79,3c2.88,3,5.75,5.99,8.65,8.97
		c0.78,0.8,1.63,1.53,2.44,2.3c1.27,1.2,2.74,2.24,3.76,3.62c1.76,2.38,3.9,3.71,6.89,3.62c3.46-0.1,6.26,1.18,8.19,4.09
		c1.66,2.5,3.94,3.56,6.91,3.5c3.06-0.06,5.43,1.28,7.45,3.66c2.47,2.91,5.25,5.57,7.93,8.3c1.55,1.58,3.58,2.28,5.68,2.16
		c3.23-0.19,5.55,1.19,7.43,3.57c2.31,2.92,5.34,3.85,8.92,3.59c2.07-0.15,4.16-0.14,6.23-0.16c2.57-0.03,4.7,0.9,6.17,3.07
		c1.45,2.15,3.26,3.9,5.32,5.47c1.13,0.85,2.01,2.05,2.94,3.14c1.64,1.93,3.65,3.19,6.21,3.15c3.51-0.06,6.17,1.47,8.29,4.08
		c1.99,2.46,4.49,3.4,7.61,3.15c2.23-0.18,4.48-0.05,6.72-0.15c2.62-0.11,4.82,0.8,6.17,2.99c1.8,2.93,4.48,4.07,7.65,4.18
		c2.93,0.1,5.19,1.03,6.9,3.53c1.86,2.72,4.69,3.75,7.92,3.69c1.76-0.03,3.52-0.17,5.28-0.15c1.59,0.02,3.21,0.06,4.77,0.36
		c2.46,0.47,3.92,2.08,4.23,4.59c0.16,1.27,0.12,2.56,0.22,3.83c0.32,4.16,1.79,5.62,6.03,5.85c1.59,0.09,3.2-0.01,4.8-0.03
		c1.28-0.02,2.56-0.06,3.84-0.08c2.03-0.03,3.73,0.72,5.15,2.17c3.13,3.2,6.35,6.31,9.37,9.6c1.52,1.65,3.2,2.62,5.41,2.62
		c2.4,0,4.8,0.03,7.19-0.14c3.31-0.24,5.83,0.95,8.01,3.44c2.83,3.24,5.9,6.27,8.85,9.4c1.04,1.11,2.32,1.68,3.81,1.8
		c0.96,0.08,1.92,0.15,2.88,0.12c2.81-0.09,4.83,1.11,6.5,3.36c1.22,1.64,2.83,2.99,4.26,4.47c1.11,1.15,2.25,2.27,3.33,3.44
		c1.7,1.83,3.61,3.1,6.27,2.92c3.33-0.22,5.91,1.26,7.79,3.91c1.83,2.58,4.22,3.73,7.38,3.59c3.1-0.14,5.63,1.14,7.35,3.75
		c1.47,2.23,3.49,3.18,6.09,3.14c3.65-0.05,6.46,1.35,8.41,4.56c1.24,2.04,3.2,3.06,5.67,2.97c0.8-0.03,1.6,0.06,2.4,0.1
		c2.36,0.13,4.23,1.07,5.81,2.91c2.28,2.67,4.81,5.13,7.15,7.75c2.02,2.27,4.37,3.74,7.5,3.59c2.8-0.13,4.85,1.16,6.68,3.15
		c2.8,3.07,5.74,6.01,8.57,9.04c1.27,1.36,2.77,2.18,4.63,2.2c2.4,0.03,4.81,0.11,7.19-0.08c3.82-0.3,6.8,0.97,9.27,3.94
		c2.35,2.82,5,5.38,7.49,8.08c1.75,1.9,3.99,2.8,6.46,2.62c3.44-0.24,5.88,1.11,7.68,3.9c1.23,1.9,3.04,2.77,5.2,3.03
		c0.95,0.12,1.91,0.21,2.87,0.27c1.85,0.1,3.41,0.76,4.59,2.24c3,3.75,7.35,6.19,10.03,10.27c0.73,1.12,2.02,1.54,3.35,1.63
		c0.8,0.05,1.6,0.1,2.4,0.08c3.1-0.06,5.62,1.03,7.39,3.65c0.36,0.53,0.81,0.99,1.19,1.5c1.03,1.38,2.43,2.02,4.12,2.11
		c0.8,0.04,1.6,0.11,2.4,0.15c2.89,0.13,5.22,1.12,6.8,3.74c1.55,2.56,4.03,3.48,6.98,3.36c2.24-0.1,4.48-0.03,6.72-0.14
		c2.55-0.12,4.69,0.63,6.48,2.5c2.98,3.12,6.08,6.13,9.01,9.29c1.39,1.5,2.9,2.46,4.96,2.5c0.8,0.02,1.59,0.14,2.39,0.16
		c2.58,0.07,4.58,1.06,5.98,3.35c1.74,2.84,4.4,4.13,7.7,3.98c3.14-0.14,5.61,0.86,7.31,3.63c1.54,2.53,3.97,3.6,6.84,3.84
		c0.64,0.05,1.28,0.1,1.92,0.1c2.08,0.02,3.84,0.85,4.91,2.55c2.13,3.38,5.2,4.53,8.99,4.3c2.27-0.13,4.03,0.74,5.33,2.61
		c2.05,2.97,4.77,4.66,8.49,4.5c2.43-0.11,4.23,1.01,5.8,2.82c1.35,1.56,2.99,2.87,4.46,4.32c1.02,1,2,2.06,2.99,3.1
		c1.32,1.38,2.64,2.77,3.97,4.13c1.33,1.37,2.79,2.63,4,4.09c1.85,2.24,4.04,3.74,7.01,3.4c3.06-0.34,5.34,0.94,7.08,3.2
		c2.76,3.6,6.34,4.61,10.63,3.94c1.1-0.17,2.23-0.14,3.35-0.2c3.29-0.19,5.99,0.94,7.81,3.75c1.74,2.68,4.21,3.79,7.32,3.72
		c0.64-0.01,1.28,0.07,1.92,0.09c1.7,0.05,2.99,0.77,4.13,2.07c1.68,1.91,3.57,3.64,5.35,5.47c3.33,3.43,6.82,6.73,9.9,10.38
		c1.93,2.29,4.11,3.44,6.98,3.55c0.48,0.02,0.96,0.03,1.44-0.02c2.5-0.26,4.32,0.85,5.73,2.8c0.19,0.26,0.4,0.5,0.58,0.77
		c1.67,2.41,4,3.76,6.9,3.69c3.16-0.08,5.54,1.01,7.4,3.58c1.71,2.37,4.18,3.43,7.1,3.28c3.16-0.16,5.51,1.02,7.27,3.71
		c1.8,2.74,4.48,4.07,7.8,3.79c2.46-0.21,4.35,0.74,5.91,2.54c0.42,0.48,0.85,0.95,1.26,1.45c1.97,2.39,4.49,3.48,7.59,3.38
		c3.68-0.12,7.36-0.15,11.03-0.23c1.12-0.03,2.24-0.15,3.35-0.12c2.18,0.06,4.05,0.87,5.5,2.53c0.63,0.72,1.18,1.51,1.8,2.25
		c1.52,1.81,3.4,2.94,5.83,2.78c3.51-0.23,6.2,1.21,8.33,3.89c1.72,2.16,3.93,3.19,6.71,2.99c2.61-0.18,4.73,0.92,6.3,2.88
		c4.34,5.43,6.15,4.71,11.27,4.51c1.92-0.08,3.85-0.14,5.75,0.05c3.31,0.33,5.22,2.25,5.65,5.52c0.15,1.1,0.22,2.25,0.09,3.35
		c-0.88,7.34-0.47,14.7-0.47,22.06c0,5.91,0.23,11.83,0.53,17.73c0.19,3.6-0.71,6.53-3.54,8.96c-3.15,2.7-6.1,5.63-9.09,8.52
		c-0.91,0.88-1.7,1.92-2.46,2.94c-1.35,1.8-3.12,2.68-5.35,2.7c-0.8,0.01-1.6,0.06-2.4,0.09c-2.38,0.07-4.26,1.05-5.82,2.87
		c-3.84,4.49-7.89,8.78-12.37,12.65c-0.96,0.83-1.73,1.88-2.52,2.88c-1.67,2.13-3.73,3.46-6.53,3.46c-0.64,0-1.27,0.13-1.91,0.14
		c-2.42,0.05-4.08,1.26-5.71,3.01c-3.7,3.97-7.66,7.69-11.5,11.52c-1.13,1.13-2.34,2.2-3.28,3.47c-1.44,1.95-3.31,2.93-5.67,3.14
		c-0.64,0.06-1.27,0.2-1.91,0.2c-2.8-0.01-4.73,1.42-6.54,3.43c-2.99,3.31-6.2,6.42-9.36,9.58c-1.06,1.06-2.47,1.4-3.96,1.48
		c-1.43,0.08-2.9,0.08-4.29,0.39c-2.67,0.59-4.12,2.3-4.39,5.02c-0.11,1.11,0.08,2.24,0.02,3.35c-0.19,3.31-2.07,5.38-5.39,5.61
		c-2.71,0.18-5.45,0.17-8.15-0.04c-3.16-0.25-5.73,0.63-7.51,3.26c-2.11,3.12-5.03,4.28-8.65,4.09c-2.05-0.11-3.68,0.7-5.08,2.22
		c-3.25,3.52-6.58,6.95-9.86,10.44c-1.04,1.11-2.28,1.89-3.79,1.74c-4.82-0.48-8.2,1.59-10.97,5.41c-1.58,2.17-3.8,3.87-5.68,5.84
		c-1.85,1.93-3.98,3.22-6.74,3.12c-3.16-0.11-5.52,1.33-7.4,3.74c-0.3,0.38-0.59,0.76-0.9,1.12c-1.56,1.76-3.39,2.89-5.88,2.57
		c-3.33-0.43-5.71,0.91-7.86,3.53c-2.62,3.19-5.65,6.08-8.67,8.91c-0.99,0.92-2.47,1.42-3.81,1.83c-1.2,0.37-2.56,0.2-3.79,0.52
		c-1.2,0.32-2.57,0.68-3.43,1.49c-3.02,2.84-5.96,5.77-8.7,8.87c-1.91,2.16-3.87,3.72-6.94,3.47c-3.3-0.27-5.68,1.32-7.89,3.72
		c-3.9,4.21-8.12,8.13-12.18,12.21c-1.01,1.02-1.91,2.15-2.83,3.25c-1.3,1.56-2.9,2.47-4.97,2.46c-0.8,0-1.6,0.05-2.4,0.08
		c-2.38,0.09-4.31,1.07-5.82,2.9c-0.61,0.74-1.18,1.52-1.8,2.24c-1.09,1.26-2.45,2.04-4.13,2.18c-1.12,0.1-2.23,0.25-3.35,0.29
		c-2.04,0.07-3.61,0.91-5,2.43c-2.79,3.07-5.77,5.97-8.59,9.02c-1.76,1.9-3.8,2.88-6.4,2.57c-3.02-0.37-5.24,0.99-7.11,3.18
		c-0.62,0.73-1.29,1.42-1.94,2.13c-1.14,1.24-2.55,1.99-4.23,1.94c-4.2-0.13-7.27,1.66-9.8,4.99c-1.82,2.4-4.21,4.37-6.28,6.59
		c-1.73,1.86-3.79,2.88-6.35,2.87c-0.8,0-1.6,0.06-2.4,0.08c-1.53,0.04-2.73,0.72-3.78,1.81c-3.77,3.89-7.59,7.74-11.38,11.62
		c-1.56,1.6-3.17,3.16-4.6,4.88c-1.75,2.11-3.94,3.46-6.62,3.32c-3.61-0.2-5.97,1.48-8.23,4.01c-2.98,3.32-6.27,6.36-9.41,9.53
		c-1.58,1.59-3.15,3.18-4.7,4.79c-1.85,1.92-4,3.23-6.75,3.13c-3.37-0.12-5.85,1.37-7.69,4.06c-1.72,2.5-4.1,3.47-7.04,3.17
		c-3.03-0.31-5.11,1.16-7.04,3.31c-2.77,3.09-5.66,6.08-8.67,8.94c-0.98,0.94-2.43,1.46-3.75,1.95c-0.87,0.32-1.89,0.34-2.84,0.35
		c-2.6,0.01-4.79,0.96-6.1,3.18c-1.87,3.17-4.68,4.21-8.09,4.02c-2.62-0.14-4.49,0.86-6.23,2.85c-2.93,3.36-6.17,6.46-9.28,9.66
		c-1.04,1.07-2.31,1.7-3.8,1.85c-0.8,0.08-1.6,0.12-2.39,0.15c-2.89,0.13-5.33,1.19-6.89,3.71c-1.61,2.61-3.9,3.55-6.88,3.44
		c-3.23-0.12-5.87,1.02-7.74,3.89c-1.37,2.11-3.44,3.26-6.08,3.27c-3.78,0.01-6.48,1.72-8.95,4.69c-2.94,3.53-6.59,6.46-9.92,9.67
		c-1.15,1.11-2.49,2.11-3.31,3.43c-1.8,2.91-4.34,4.1-7.63,4.05c-0.48-0.01-0.96,0.08-1.44,0.09c-2.07,0.03-3.59,1.06-4.97,2.53
		c-3.06,3.25-6.2,6.43-9.32,9.62c-1.55,1.58-3.47,2.21-5.65,2.17c-2.4-0.05-4.8-0.02-7.2-0.15c-2.95-0.16-5.23,0.8-7.06,3.21
		c-1.24,1.63-2.89,2.96-4.36,4.42c-1.02,1.01-2.2,1.91-3.03,3.06c-1.83,2.53-4.09,3.97-7.3,3.75c-0.78-0.05-1.6,0.08-2.37,0.26
		c-1.59,0.37-3.07,0.99-4.04,2.39c-1.47,2.14-3.44,3.75-5.41,5.4c-1.09,0.91-1.98,2.08-2.88,3.2c-1.71,2.11-3.84,3.52-6.59,3.33
		c-3.44-0.25-5.78,1.34-7.78,3.88c-0.69,0.87-1.5,1.7-2.4,2.33c-1.88,1.29-3.41,2.86-4.7,4.73c-1.46,2.1-3.48,3.25-6.12,3.14
		c-0.8-0.03-1.6,0.06-2.39,0.12c-2.02,0.14-3.87,0.84-4.94,2.56c-2.18,3.49-5.34,4.82-9.29,4.86c-2.59,0.02-4.54,1.31-6,3.43
		c-0.63,0.92-1.32,1.83-2.11,2.6c-2.98,2.88-6.04,5.68-9.03,8.55c-1.15,1.11-2.27,2.27-3.24,3.53c-1.78,2.31-4,3.61-6.98,3.51
		c-0.8-0.03-1.6,0.07-2.4,0.13c-1.69,0.11-3,0.91-4.14,2.14c-2.72,2.92-5.55,5.74-8.23,8.7c-1.93,2.12-4.04,3.48-7.08,3.28
		c-3.09-0.2-5.67,1.07-7.34,3.72c-1.94,3.08-4.7,4.11-8.19,3.77c-1.91-0.19-3.84-0.15-5.75-0.28c-2.75-0.18-5.1,0.61-6.72,2.91
		c-2.22,3.16-5.17,4.63-9.03,4.38c-2.07-0.14-3.69,0.83-5.09,2.26c-3.01,3.09-6.08,6.12-9.03,9.27c-1.62,1.73-3.41,2.82-5.86,2.75
		c-1.11-0.03-2.23,0.18-3.33,0.35c-1.48,0.23-2.86,0.9-3.64,2.14c-2.25,3.59-5.99,5.73-8.52,9.04c-1.64,2.15-3.81,3.35-6.65,3.08
		c-2.94-0.27-5.21,1-7.18,3.13c-2.71,2.93-5.57,5.72-8.31,8.62c-1.16,1.22-2.52,1.94-4.17,2.15c-1.11,0.14-2.23,0.22-3.34,0.32
		c-2.19,0.19-3.87,1.16-5.29,2.9c-1.29,1.6-2.91,2.93-4.37,4.39c-1.13,1.13-2.24,2.28-3.37,3.4c-1.24,1.24-2.52,2.44-3.75,3.69
		c-1.23,1.24-2.64,2.38-3.61,3.8c-1.59,2.33-3.74,3.39-6.41,3.68c-0.64,0.07-1.28,0.14-1.91,0.12c-2.07-0.06-3.72,0.76-5.08,2.27
		c-0.32,0.36-0.69,0.68-0.98,1.06c-1.98,2.64-4.57,3.89-7.89,3.65c-2.62-0.19-4.54,0.99-6.2,2.99c-1.41,1.71-3.12,3.17-4.71,4.73
		c-0.91,0.9-1.96,1.69-2.71,2.7c-1.84,2.48-4.09,4.01-7.28,3.87c-0.47-0.02-0.95,0.14-1.42,0.2c-2.33,0.28-4.09,1.4-5.68,3.19
		c-2.86,3.22-5.96,6.22-8.99,9.29c-1.17,1.18-2.63,1.8-4.3,1.88c-0.8,0.04-1.6,0.06-2.4,0.06c-2.04,0-3.73,0.74-5.05,2.32
		c-0.61,0.74-1.24,1.47-1.92,2.14c-1.64,1.63-3.52,2.82-5.92,2.74c-3.31-0.11-5.82,1.34-7.97,3.71c-2.36,2.6-4.88,5.06-7.21,7.69
		c-1.59,1.79-3.45,2.8-5.84,2.84c-0.32,0.01-0.64,0.07-0.96,0.05c-3.32-0.2-5.93,0.9-7.6,3.93c-0.38,0.68-1,1.25-1.57,1.8
		c-3.44,3.33-6.91,6.63-10.35,9.97c-0.8,0.78-1.65,1.55-2.24,2.48c-1.74,2.73-4.34,3.91-7.35,3.67c-3.11-0.25-5.08,1.11-7.01,3.26
		c-2.77,3.08-5.78,5.95-8.68,8.91c-1.17,1.2-2.57,1.86-4.24,2c-1.27,0.11-2.55,0.24-3.81,0.42c-1.64,0.24-2.94,1.01-4.09,2.26
		c-3.13,3.4-6.35,6.72-9.59,10.02c-1.78,1.82-4.02,2.54-6.56,2.34c-1.91-0.15-3.83-0.35-5.74-0.37c-3.54-0.04-6.36,1.12-8.66,4.15
		c-2.3,3.02-5.26,5.54-7.99,8.22c-1.3,1.28-2.96,2.04-4.8,1.8c-3.62-0.47-6.04,1.27-8.26,3.85c-2.6,3.02-5.99,5.27-8.32,8.59
		c-0.96,1.36-2.57,2.03-4.22,1.97c-4.58-0.17-7.77,1.83-10.48,5.46c-1.98,2.66-4.71,4.75-7.07,7.13c-1.29,1.31-2.74,2.18-4.64,2.14
		c-0.64-0.01-1.28,0.03-1.92,0.04c-2.72,0.06-5.02,1-6.61,3.28c-1.68,2.4-3.86,3.7-6.86,3.68c-3.24-0.01-5.91,1.19-7.69,4.05
		c-1.41,2.27-3.58,3.13-6.16,2.93c-3.92-0.31-6.61,1.47-8.97,4.49c-2.25,2.88-4.97,5.4-7.51,8.04c-1.54,1.6-3.55,2.29-5.67,2.1
		c-3.27-0.28-5.5,1.19-7.36,3.64c-1.96,2.59-4.44,4.1-7.83,3.7c-2.26-0.27-3.98,0.73-5.53,2.3c-2.02,2.04-4.15,3.98-6.26,5.93
		c-2.41,2.23-3.85,5.05-5.06,8.03C1571.72,1525.06,1559.24,1525.06,1546.76,1525.06z M2138.48,968c0-0.01,0-0.03,0-0.04
		c2.08,0,4.18,0.22,6.22-0.05c3.23-0.42,4.71-2.31,4.7-5.58c0-1.27-0.26-2.55-0.27-3.82c-0.01-2.16,1.35-3.56,3.52-3.78
		c1.57-0.16,2.81,0.48,3.8,1.63c0.84,0.97,1.53,2.06,2.41,2.98c1.07,1.12,2.67,1.09,3.89,0.07c1.18-0.99,1.8-2.24,1.75-3.78
		c-0.03-1.12-0.25-2.23-0.22-3.34c0.04-1.83,0.65-3.44,2.16-4.61c3.4-2.65,7.93-2.17,10.67,1.11c0.92,1.1,1.77,2.29,2.87,3.19
		c1.66,1.36,3.67,1.08,5.16-0.49c0.44-0.46,0.87-0.96,1.15-1.53c1.44-2.99,3.95-4.01,7.07-3.95c1.6,0.03,3.2,0.08,4.8,0.1
		c1.28,0.02,2.57,0.12,3.83-0.02c3.4-0.38,5.06-2.18,5.36-5.64c0.04-0.48,0.05-0.96,0.04-1.44c-0.11-3.33,1.18-5.91,4.07-7.62
		c3.22-1.9,3.91-4.86,3.53-8.27c-0.41-3.64-2.59-5.81-6.23-6.16c-3.59-0.34-6.77,0.52-8.67,3.84c-1.53,2.68-3.84,3.68-6.72,3.86
		c-0.96,0.06-1.91,0.18-2.87,0.27c-1.5,0.15-2.75,0.78-3.71,1.96c-0.5,0.62-1.01,1.24-1.49,1.88c-1.33,1.79-3.11,2.7-5.33,2.78
		c-0.8,0.03-1.59,0.14-2.39,0.19c-2.35,0.14-4.38,0.91-5.8,2.89c-2.01,2.81-4.79,4.14-8.19,4.28c-2.54,0.1-4.72,1.02-6.27,3.04
		c-2.27,2.96-5.47,3.75-8.89,3.97c-2.07,0.13-4.16,0-6.24,0.03c-2.34,0.03-4.35,0.81-5.99,2.56c-2.84,3.01-5.76,5.95-8.63,8.94
		c-1.85,1.93-3.99,3.27-6.75,3.12c-2.81-0.15-4.98,0.93-6.67,3.08c-1.89,2.42-4.43,3.83-7.38,4.01c-3.29,0.2-5.79,1.53-7.92,3.89
		c-0.53,0.59-1.15,1.13-1.81,1.57c-2.45,1.64-4.41,3.66-5.47,6.49c-0.78,2.06-2.4,2.86-4.55,2.8c-2.4-0.06-4.83,0.15-7.19-0.15
		c-4.03-0.51-7.24,0.57-9.66,3.91c-1.86,2.57-4.52,3.38-7.58,3.27c-2.56-0.09-5.12-0.13-7.67-0.1c-2.38,0.03-4.25,0.95-5.69,2.98
		c-1.09,1.54-2.5,2.88-3.9,4.18c-2.57,2.4-5.27,4.67-7.84,7.07c-0.92,0.86-2,1.83-2.38,2.96c-1.13,3.39-3.49,4.28-6.7,3.94
		c-0.79-0.08-1.6,0.02-2.4-0.02c-2.46-0.11-4.49,0.69-5.54,2.99c-1.39,3.05-3.75,4.15-6.93,4.11c-1.76-0.02-3.52,0.15-5.27,0.27
		c-1.59,0.11-3.2,0.2-4.77,0.44c-5.56,0.87-7.51,7.6-5.54,11.71c1.07,2.24,3.5,3.01,5.67,1.72c0.94-0.55,1.88-1.32,2.45-2.22
		c1.64-2.58,3.94-3.59,6.89-3.52c0.95,0.02,1.97-0.04,2.84-0.38c1.01-0.39,2.33-0.9,2.74-1.74c1.88-3.84,4.88-5.07,8.98-4.9
		c2.93,0.12,5.23-1.32,6.23-4.32c0.1-0.3,0.2-0.61,0.34-0.9c1.15-2.33,2.9-2.78,5.01-1.21c0.76,0.56,1.35,1.34,2.01,2.03
		c0.55,0.58,1.03,1.24,1.64,1.74c2.08,1.68,4.45,1.64,5.83-0.57c2-3.18,5.08-5.31,7.27-8.25c2.13-2.85,4.85-3.88,8.33-3.71
		c4.31,0.21,8.64,0.11,12.95,0.22c2.74,0.07,4.94-0.89,6.82-2.89c1.75-1.86,3.61-3.62,5.55-5.28c1.57-1.35,2.38-2.96,2.46-4.99
		c0.05-1.44,0.02-2.88,0.11-4.32c0.15-2.26,0.91-3.11,3.21-3.46c1.58-0.24,3.18-0.33,4.78-0.43c1.67-0.1,3.1-0.71,4.31-1.85
		c0.7-0.66,1.42-1.3,2.07-2c2.46-2.63,5.57-3.64,9.06-3.7c1.6-0.03,3.2,0.01,4.8,0.05c3.07,0.07,5.78-0.81,7.52-3.43
		c2.14-3.23,5.1-4.12,8.72-3.68C2137.19,968.06,2137.84,968,2138.48,968z M1437.78,700.59c1.79,0,2.91,0.02,4.02-0.01
		c0.47-0.01,0.96-0.1,1.42-0.22c2.15-0.54,3.44-1.92,3.69-3.91c0.29-2.23-0.69-4.18-2.88-4.98c-1.47-0.54-3.1-0.81-4.67-0.84
		c-13.59-0.28-27.11-2.16-40.74-1.78c-0.8,0.02-1.6-0.06-2.4-0.12c-16.42-1.28-32.85-2.53-49.27-3.89
		c-3.74-0.31-6.97,0.26-9.45,3.36c-1.72,2.16-4.09,2.89-6.82,2.82c-5.59-0.13-11.2,0.11-16.78-0.26
		c-11.33-0.75-22.64-1.7-33.94-2.81c-4.28-0.42-7.87,0.18-10.83,3.56c-2.16,2.46-5.06,3.23-8.29,2.81
		c-0.48-0.06-0.95-0.14-1.43-0.19c-5.09-0.51-10.18-1.03-15.28-1.51c-2.08-0.19-4.18-0.27-6.11,0.73c-1.53,0.79-2.48,2-2.48,3.8
		c0,1.59,0.79,2.72,2.1,3.53c1.83,1.13,3.85,1.48,5.96,1.59c3.51,0.17,7.02,0.43,10.54,0.6c4.79,0.23,9.58,0.47,14.37,0.61
		c2.88,0.09,5.79-0.26,8.63,0.05c11.13,1.22,22.37,1.16,33.44,2.96c3.41,0.56,6.34-0.26,8.65-2.95c0.21-0.24,0.46-0.44,0.68-0.68
		c1.86-2.03,4.2-2.79,6.9-2.75c3.67,0.05,7.35,0.07,11.02,0.04c2.85-0.02,4.91,1.15,6.16,3.73c0.42,0.86,0.82,1.75,1.39,2.51
		c1.7,2.26,4.57,2.63,6.76,0.85c0.86-0.7,1.62-1.57,2.23-2.49c2.04-3.09,4.91-3.88,8.36-3.24c6.79,1.26,13.67,1.45,20.53,1.91
		c3.5,0.24,7.02,0.56,10.47,1.2c4.11,0.76,7.58,0.14,10.42-3.15c2.77-3.21,6.26-3.86,10.42-3.3
		C1422.5,699.26,1430.48,699.86,1437.78,700.59z M2073.71,917.07c0,0.02,0,0.05,0,0.07c0.64,0.03,1.28,0.03,1.91,0.1
		c3.77,0.39,6.92-0.76,9.37-3.72c0.41-0.49,0.9-0.91,1.32-1.39c1.25-1.41,2.79-2.13,4.68-1.92c3.53,0.4,6.19-0.92,8.21-3.81
		c1.66-2.37,3.93-3.63,6.95-3.45c2.91,0.18,5.17-1.13,7.16-3.22c6.16-6.47,12.29-12.98,19.29-18.6c0.72-0.58,1.36-1.37,1.79-2.19
		c0.8-1.5,0.42-3.3-0.97-4.28c-0.88-0.62-1.97-1.17-3.02-1.26c-2.96-0.26-5.73,0.44-8.01,2.46c-0.95,0.84-1.87,1.76-2.68,2.74
		c-1.55,1.89-3.54,2.64-5.91,2.59c-2.39-0.06-4.79-0.06-7.18-0.18c-2.58-0.13-4.67,0.81-6.4,2.67c-0.43,0.47-0.82,0.98-1.22,1.48
		c-1.69,2.15-3.88,3.39-6.63,3.16c-3.37-0.28-5.84,0.98-7.75,3.73c-1.65,2.38-3.98,3.66-6.94,3.58c-2.94-0.08-5.23,1.19-7.09,3.37
		c-0.41,0.49-0.85,0.95-1.27,1.44c-1.55,1.83-3.5,2.75-5.92,2.49c-3.16-0.34-5.68,0.83-7.46,3.38c-1.91,2.74-4.47,3.98-7.75,3.94
		c-2.38-0.03-4.29,0.92-5.94,2.64c-1.66,1.73-3.41,3.37-5.2,4.96c-1.66,1.47-2.57,3.21-2.54,5.44c0.01,0.8-0.1,1.6-0.08,2.39
		c0.04,2.13-0.88,3.71-2.72,4.71c-1.72,0.94-3.27,2.06-4.17,3.83c-1.07,2.1-2.64,3.56-4.81,4.45c-0.58,0.24-1.12,0.62-1.62,1.01
		c-1.8,1.41-2.13,3.43-0.85,5.02c1.39,1.73,3.9,2,5.54,0.56c0.47-0.42,0.91-0.92,1.21-1.47c1.53-2.8,3.97-4.1,7.05-4.22
		c2.76-0.11,4.96-1.24,6.56-3.41c2.25-3.06,5.13-4.67,8.99-4.52c1.63,0.06,3.22-0.42,4.41-1.59c2.95-2.91,6.09-5.68,8.64-8.91
		c2.45-3.1,5.31-4.4,9.11-4.09C2072.43,917.11,2073.07,917.07,2073.71,917.07z M2106.51,686.3c0-0.01,0-0.01,0-0.02
		c-1.91,0-3.83-0.07-5.74,0.02c-1.74,0.08-3.51,0.2-5.21,0.57c-1.82,0.4-3.04,1.66-3.7,3.44c-1.35,3.65-0.39,7.51,2.73,9.85
		c1.81,1.36,3.42,2.83,4.76,4.66c1.84,2.51,4.35,3.59,7.49,3.36c2.23-0.16,4.47-0.05,6.7-0.18c2.79-0.16,5.04,0.8,6.56,3.14
		c2.27,3.48,5.61,4.49,9.5,4.37c0.8-0.02,1.6-0.05,2.39,0.01c4.38,0.32,8.09-0.53,10.86-4.51c1.73-2.49,3.84-2.22,6.04,0.05
		c0.99,1.03,1.85,2.23,2.98,3.08c1.81,1.36,4.22,0.63,5.25-1.4c2.27-4.48-0.43-10.6-5.27-11.92c-2.66-0.73-5.38-0.72-8.08-0.35
		c-3.63,0.49-6.63-0.41-8.82-3.49c-1.61-2.27-3.84-3.28-6.6-3.14c-0.32,0.02-0.64-0.02-0.96-0.03c-2.36-0.09-4.32-1-5.88-2.78
		c-0.63-0.72-1.32-1.39-1.92-2.13c-1.53-1.88-3.51-2.64-5.9-2.59C2111.29,686.34,2108.9,686.3,2106.51,686.3z M1759.78,506.13
		c0.36,3.73,0.22,4.02-2.87,6.42c-0.63,0.49-1.33,0.91-1.89,1.47c-2.17,2.18-1.98,4.74,0.45,6.53c0.51,0.38,1.07,0.71,1.64,0.99
		c2.83,1.37,3.78,3.76,3.59,6.71c-0.09,1.43-0.4,2.85-0.53,4.27c-0.12,1.27-0.3,2.56-0.17,3.81c0.42,3.94,3.18,6.35,7.15,6.22
		c3.01-0.1,5.62-1.11,7.32-3.83c1.55-2.48,3.66-3.89,6.74-3.71c3.39,0.19,6.23-0.91,8.35-3.75c1.4-1.88,3.41-2.8,5.82-2.84
		c1.27-0.02,2.55-0.19,3.8-0.46c2.69-0.58,3.97-1.98,3.87-4.08c-0.09-2.01-1.53-3.29-4.31-3.67c-1.42-0.2-2.87-0.2-4.3-0.28
		c-1.67-0.09-3.1-0.77-4.27-1.93c-2.71-2.7-5.53-5.3-8.06-8.16c-2.04-2.31-4.25-3.65-7.45-3.53c-2.89,0.12-5.26-1.13-6.77-3.75
		c-0.4-0.69-0.83-1.37-1.33-1.99c-0.85-1.06-1.95-1.7-3.34-1.47c-1.58,0.26-2.61,1.3-2.96,2.79
		C1759.93,503.26,1759.93,504.71,1759.78,506.13z M1681.83,475.34c-0.19-9.26-0.38-18.52-0.57-27.77c-0.04-2.2-0.95-3.95-2.55-5.47
		c-1.84-1.76-3.5-3.69-5.26-5.54c-0.44-0.46-0.89-0.93-1.41-1.28c-2.09-1.38-4.65-0.68-5.55,1.66c-0.45,1.16-0.61,2.48-0.62,3.73
		c-0.02,2.55,0.23,5.11,0.22,7.66c-0.02,2.93,0.91,5.29,3.41,6.97c2.63,1.77,3.55,4.43,3.65,7.44c0.07,2.08,0,4.15,0.04,6.23
		c0.06,3.72-0.9,6.93-4.17,9.15c-2.17,1.47-3.02,3.63-2.93,6.21c0.02,0.64,0.03,1.28,0.03,1.92c0,3.83-0.02,7.65,0,11.48
		c0.01,1.27-0.04,2.59,0.25,3.81c0.24,1.04,0.76,2.13,1.46,2.94c1.78,2.04,3.71,3.95,5.61,5.88c1.94,1.97,4.17,2.55,6.02,1.51
		c2.13-1.2,2.42-3.22,2.19-5.4C1680.55,496.1,1681.17,485.73,1681.83,475.34z M1844.66,916.97c4.45,0.93,7.41-0.8,10.02-3.8
		c2.72-3.12,5.5-6.23,8.58-8.99c4.65-4.15,8.99-8.58,13.05-13.3c0.72-0.84,1.58-1.58,2.42-2.31c3.01-2.6,6.05-5.17,9.07-7.77
		c0.36-0.31,0.71-0.66,0.98-1.04c1.68-2.31,0.65-5.35-2.15-6.07c-1.05-0.27-2.21-0.24-3.32-0.2c-2.55,0.1-5.09,0.43-7.64,0.41
		c-2.58-0.01-4.59,0.91-6.37,2.74c-5.45,5.58-10.98,11.07-16.44,16.63c-1.53,1.56-3.21,2.57-5.47,2.47
		c-0.95-0.04-1.94-0.05-2.85,0.17c-2.41,0.58-3.29,3.31-1.76,5.27c0.39,0.5,0.9,0.9,1.33,1.38c2.33,2.64,2.19,4.19-0.58,6.27
		c-0.63,0.48-1.35,0.85-2.04,1.25c-0.55,0.32-1.15,0.57-1.67,0.94c-1.23,0.87-2.17,1.93-1.88,3.58c0.22,1.27,1.43,2.17,3.24,2.33
		C1842.47,917.06,1843.75,916.97,1844.66,916.97z M326.74,802.8c4.08-1.17,6.63,0.85,8.41,4.37c0.14,0.29,0.32,0.55,0.48,0.83
		c1.45,2.66,3.82,3.78,6.7,3.96c3.51,0.21,6.72-0.39,8.84-3.63c0.26-0.4,0.64-0.71,0.97-1.06c1.52-1.62,3.41-2.34,5.61-2.19
		c1.28,0.09,2.54,0.29,3.82,0.35c1.11,0.05,2.25,0.14,3.33-0.06c2.34-0.43,3.89-2.12,4.02-4.15c0.12-1.9-0.89-3.38-3.09-4.39
		c-0.72-0.33-1.49-0.65-2.27-0.76c-1.58-0.21-3.18-0.36-4.77-0.38c-4.8-0.04-9.6-0.05-14.4,0.03c-2.99,0.05-5.27-1-6.84-3.59
		c-0.66-1.09-1.35-2.18-2.16-3.17c-1.8-2.22-4.21-2.39-6.23-0.46c-0.81,0.77-1.38,1.79-2.24,2.49c-0.97,0.79-2.06,1.54-3.22,1.94
		c-1.99,0.68-3.39-0.13-4.14-2.12c-0.39-1.04-0.56-2.18-1.03-3.18c-0.84-1.81-2.41-2.47-4.33-2.35c-1.79,0.11-3.13,1.11-3.62,2.66
		c-0.6,1.93,0.07,3.81,1.82,5.02c0.39,0.27,0.81,0.56,1.25,0.7c2.84,0.87,4.49,2.73,5.38,5.59c0.74,2.37,2.73,3.45,5.2,3.54
		C325.04,802.82,325.84,802.8,326.74,802.8z M983.94,634.59c-0.42,0.06-1.55,0.1-2.61,0.4c-2.19,0.62-3.54,2.44-3.55,4.58
		c-0.01,1.97,1.09,3.56,3.33,4.14c1.84,0.47,3.77,0.66,5.68,0.76c7.82,0.42,15.65,0.81,23.48,1.1c2.8,0.1,4.91,1.18,6.49,3.44
		c0.73,1.05,1.42,2.15,2.29,3.08c1.8,1.9,4.63,2.26,6.47,0.48c2.32-2.25,4.77-4.22,7.6-5.75c0.41-0.22,0.72-0.63,1.04-0.99
		c2.54-2.88,1.52-6.51-2.23-7.41c-1.67-0.4-3.49-0.25-5.24-0.31c-2.55-0.09-5.12-0.02-7.66-0.24
		C1007.56,636.83,996.1,635.73,983.94,634.59z M1853.93,599.84c-5.92,0.05-7.95,1.87-8.52,7.29c-0.25,2.38-0.4,4.78-0.71,7.16
		c-0.4,3.05,0.46,5.36,3.47,6.59c2.14,0.87,3.78,2.33,5.13,4.19c0.65,0.89,1.44,1.73,2.31,2.41c1.39,1.08,3.1,0.99,4.4-0.18
		c0.7-0.64,1.22-1.47,1.86-2.18c1.28-1.42,2.5-2.9,3.89-4.2c2.33-2.18,4.77-4.23,7.15-6.35c0.36-0.32,0.71-0.65,1.02-1.01
		c1.12-1.35,1.38-2.88,0.7-4.49c-0.61-1.45-1.8-2.24-3.34-2.38c-1.11-0.1-2.24-0.08-3.35-0.05c-2.91,0.08-5.31-0.77-6.99-3.34
		C1859.21,600.65,1856.67,599.53,1853.93,599.84z M257.19,929.62c0.14-2.55-0.58-4.39-2.64-5.5c-1.76-0.96-3.92-0.59-5.56,1.4
		c-1.87,2.26-3.95,3.98-6.61,5.3c-2.99,1.49-3.26,4.81-0.89,7.16c0.67,0.67,1.45,1.27,2.27,1.74c2.51,1.46,3.37,3.66,3.16,6.45
		c-0.08,1.11-0.06,2.23-0.02,3.34c0.1,2.5,1.46,4.18,3.68,5.12c1.01,0.43,2.13,0.65,3.22,0.8c3.46,0.47,6.94,0.86,10.41,1.27
		c0.47,0.06,0.95,0.09,1.43,0.09c2.35,0.01,4.48-0.51,5.61-2.85c0.89-1.84,0.12-3.75-2.12-5.82c-3.15-2.91-6.25-5.88-9.43-8.76
		c-2.45-2.22-3.51-4.85-2.76-8.14C257.09,930.6,257.14,929.96,257.19,929.62z M1593.78,1339.12c-0.09,0-0.18,0-0.27,0
		c0,5.6-0.04,11.2,0.02,16.79c0.02,1.74,0.12,3.53,0.54,5.21c0.45,1.8,2.21,2.88,3.99,2.88c1.79,0,3.27-1.1,3.75-3.11
		c0.33-1.38,0.46-2.85,0.45-4.27c-0.07-11.52-0.19-23.03-0.29-34.55c-0.01-0.96,0.01-1.92,0.13-2.87c0.25-2.01,1.07-3.64,3.08-4.51
		c0.87-0.37,1.71-0.89,2.44-1.5c1.86-1.55,2.02-3.98,0.46-5.46c-1.8-1.71-4.38-1.6-5.93,0.28c-0.4,0.49-0.75,1.05-1,1.63
		c-0.83,1.99-2.08,3.49-4.06,4.52c-3.08,1.59-3.9,4.44-3.8,7.69C1593.47,1327.61,1593.62,1333.36,1593.78,1339.12z M290.24,1045.4
		c0.23-6.37-2.01-9.03-7.6-9.82c-0.16-0.02-0.32-0.03-0.48-0.05c-4.14-0.35-8.28-0.7-12.42-1.04c-2.39-0.2-4.78-0.4-7.17-0.57
		c-2.48-0.18-4.19-1.3-4.97-3.77c-0.33-1.04-0.81-2.11-1.49-2.96c-1.53-1.92-4.74-2.14-6.46-0.59c-1.65,1.49-1.81,4.23-0.2,6.06
		c0.72,0.82,1.63,1.58,2.6,2.08c2.08,1.06,3.63,2.5,4.58,4.67c1.29,2.93,3.73,4.28,6.86,4.41c1.76,0.08,3.51,0.08,5.27,0.09
		c1.44,0.01,2.88-0.07,4.31,0.01c3.38,0.18,6.26,1.26,7.78,4.63c0.26,0.58,0.59,1.15,1,1.63c2.3,2.78,6.43,2.1,7.67-1.33
		C290,1047.53,290.11,1046.06,290.24,1045.4z M2240.66,578.87c0-0.02,0-0.05,0-0.07c1.44,0,2.88,0.1,4.31-0.03
		c1.1-0.1,2.2-0.39,3.24-0.78c1.29-0.49,2.05-1.55,2.18-2.92c0.15-1.58-0.59-2.82-1.97-3.54c-0.83-0.43-1.79-0.69-2.72-0.84
		c-0.94-0.16-1.91-0.14-2.87-0.11c-2.21,0.07-4.17-0.59-5.54-2.33c-2.76-3.53-6.21-5.34-10.76-5.15c-2.05,0.09-3.74-0.88-4.7-2.77
		c-1.66-3.27-4.44-4.42-7.9-4.3c-2.46,0.09-4.33-0.77-5.5-3.04c-0.43-0.84-1.06-1.61-1.72-2.29c-1.89-1.95-4.43-2.17-5.95-0.6
		c-1.64,1.7-1.19,4.46,1.04,6.26c0.37,0.3,0.76,0.61,1.2,0.79c2.33,0.92,3.97,2.55,5.33,4.62c1.11,1.71,2.87,2.47,4.92,2.51
		c1.28,0.03,2.56,0.07,3.83,0.16c2.05,0.14,3.7,0.99,4.67,2.88c1.28,2.48,3.21,4.34,5.45,5.95c0.77,0.55,1.52,1.21,2.08,1.97
		c1.78,2.39,4.26,3.25,7.08,3.42C2237.79,578.76,2239.22,578.81,2240.66,578.87z M1968.01,649.85c-0.77,0.21-1.91,0.35-2.9,0.81
		c-2.85,1.33-3.22,4.59-0.81,6.62c0.6,0.51,1.31,0.9,2.01,1.28c2.02,1.11,2.89,2.87,2.98,5.1c0.05,1.27,0.04,2.56,0.19,3.82
		c0.27,2.24,1.34,3.36,3.58,3.9c0.46,0.11,0.95,0.21,1.42,0.2c4.17-0.05,7.32,1.48,9.45,5.29c1.1,1.96,3.24,2.43,4.99,1.82
		c1.9-0.66,2.65-2.21,2.94-4.03c0.56-3.59-0.55-6.61-3.27-9.02c-1.31-1.16-2.71-2.23-3.94-3.47c-3.04-3.05-5.99-6.18-9-9.24
		C1973.66,650.92,1971.16,650,1968.01,649.85z M2095.96,830.92c0-0.04,0-0.08,0-0.12c-1.28,0-2.56,0.06-3.83-0.01
		c-2.54-0.14-4.66,0.63-6.47,2.5c-1.99,2.07-4.11,4.02-6.21,5.98c-2.76,2.57-3.33,5.75-2.49,9.22c0.8,3.3,4.03,4.39,6.7,2.27
		c0.99-0.78,1.83-1.79,2.56-2.83c1.53-2.2,3.61-3.01,6.2-2.85c1.28,0.08,2.56,0.1,3.83,0.11c1.76,0.01,3.52,0.09,5.27-0.06
		c2.47-0.21,4.21-1.63,4.89-3.97c0.43-1.5,0.61-3.16,0.47-4.71c-0.27-3.12-2.53-5.26-5.65-5.51
		C2099.49,830.8,2097.72,830.92,2095.96,830.92z M256.21,733.77c0.07-3.48-1.02-5.55-2.98-7.13c-2.25-1.82-4.15-3.9-5.8-6.3
		c-2.65-3.84-6.63-4.68-10.98-4.24c-0.91,0.09-1.84,0.55-2.63,1.06c-2.34,1.5-2.65,4.09-0.82,6.14c0.32,0.35,0.66,0.72,1.06,0.96
		c3.99,2.37,5.71,5.77,5.07,10.44c-0.27,1.98,0.55,3.76,2.02,5.17c2.71,2.59,8.58,3.16,11.6,0.95c1.09-0.8,2.05-2.04,2.59-3.29
		C255.96,736.11,256.07,734.45,256.21,733.77z M1586.15,1223.47c0.13,0,0.27,0,0.4,0c0.07,3.66,0.16,7.31,0.22,10.97
		c0.09,5.67,1.87,7.46,7.46,7.44c1.11-0.01,2.25-0.07,3.31-0.34c1.99-0.5,3.48-1.76,3.89-3.8c0.72-3.55,0.83-7.02-2.51-9.55
		c-0.38-0.29-0.7-0.65-1.07-0.96c-2.39-2-3.34-4.6-3.14-7.64c0.1-1.59,0.31-3.17,0.5-4.75c0.23-1.93,0.16-3.82-0.62-5.63
		c-0.87-2.02-2.52-3.08-4.47-2.92c-1.71,0.14-3.07,1.32-3.56,3.36c-0.29,1.22-0.38,2.52-0.4,3.78
		C1586.12,1216.78,1586.15,1220.13,1586.15,1223.47z M1071.5,658.37c1.86,0.12,4.19-0.57,5.62-3.13c1.23-2.2,3.07-3.57,5.5-4.26
		c1.41-0.4,2.58-1.22,3.39-2.49c1.82-2.83,0.3-5.96-3.07-6.26c-1.72-0.15-3.13,0.45-4.13,1.88c-0.45,0.65-0.76,1.4-1.19,2.07
		c-1.77,2.8-4.14,3.42-6.79,1.46c-1.23-0.91-2.12-2.31-3.04-3.59c-2.55-3.57-7.32-5.08-11.41-3.53c-1.57,0.6-2.79,1.55-3.13,3.3
		c-0.37,1.95,0.35,3.48,2.01,4.47c2.24,1.34,3.99,3.16,5.45,5.26C1063.15,657.01,1066.61,658.23,1071.5,658.37z M1929.74,975.09
		c0-0.07,0-0.14,0-0.21c-1.59,0-3.18-0.1-4.76,0.02c-4.31,0.33-6.58,2.82-6.67,7.15c-0.09,4.32,2.14,6.99,6.46,7.26
		c3.16,0.2,6.36,0.12,9.52-0.1c3.64-0.25,5.12-1.58,5.99-5.04c0.27-1.06,0.41-2.2,0.37-3.29c-0.11-3.32-1.89-5.36-5.19-5.75
		C1933.57,974.91,1931.64,975.09,1929.74,975.09z M1307.16,1044.42c-1.08,0.24-2.84,0.44-4.44,1.05c-1.91,0.72-2.88,2.73-2.6,4.64
		c0.25,1.74,1.47,3.1,3.45,3.49c1.39,0.27,2.85,0.37,4.27,0.36c3.15-0.03,5.53,1.17,7.13,3.93c0.55,0.95,1.25,1.87,2.04,2.62
		c2.67,2.52,5.96,1.87,7.26-1.53c0.55-1.45,0.79-3.09,0.82-4.66c0.08-4.55-2.01-7.3-6.4-8.19
		C1315.12,1045.41,1311.46,1045.05,1307.16,1044.42z M1984.7,831.54c-0.09-2.67-0.27-4.57-1.47-6.19c-1.59-2.15-4.59-2.16-6.1,0.04
		c-0.52,0.76-0.87,1.72-1.05,2.63c-0.22,1.08-0.28,2.22-0.22,3.33c0.13,2.46-0.64,4.36-2.89,5.57c-1.88,1.01-3.12,2.63-4.27,4.41
		c-0.75,1.16-1.91,2.07-2.98,2.98c-0.72,0.61-1.67,0.95-2.4,1.56c-1.84,1.54-1.9,3.82-0.22,5.41c1.72,1.63,4.17,1.74,5.42-0.22
		c1.77-2.76,4-4.9,6.68-6.68c0.51-0.34,0.96-0.9,1.2-1.47c1.06-2.47,2.96-4.06,5.13-5.51
		C1983.83,835.86,1984.83,833.58,1984.7,831.54z M1212.75,984.54c0,0.03,0,0.06-0.01,0.09c0.48,0,0.96,0.02,1.44,0
		c3.38-0.18,5.79-2.07,5.81-4.53c0.02-2.33-1.99-4.47-5.07-4.87c-4.27-0.56-8.58-0.89-12.88-1.23c-1.62-0.13-3.18,0.19-4.52,1.24
		c-2.83,2.25-2.35,6.41,0.97,7.81c0.87,0.37,1.84,0.58,2.78,0.66C1205.1,984.02,1208.93,984.27,1212.75,984.54z M1653.17,1197.96
		c-2.49,0.2-4.67,0.54-6.46,2.1c-2.27,1.97-4.58,3.9-6.85,5.88c-1.66,1.45-2.18,3.32-1.47,5.13c0.74,1.88,2.31,2.62,4.15,2.65
		c3.09,0.06,6.01-0.6,8.37-2.79c2.1-1.94,4.13-3.96,6.26-5.85c2.89-2.57,1.56-5.84-1.91-6.8
		C1654.51,1198.07,1653.71,1198.04,1653.17,1197.96z M1681.72,560.35c0.03,0,0.06,0,0.09,0c0-1.43,0.05-2.87-0.02-4.3
		c-0.04-0.95-0.14-1.92-0.39-2.83c-0.5-1.85-1.7-3.04-3.66-3.29c-1.91-0.24-3.78,0.89-4.49,2.84c-0.37,1.03-0.56,2.16-0.6,3.26
		c-0.09,2.7-0.06,5.41-0.03,8.11c0.01,0.79,0.1,1.6,0.3,2.36c0.68,2.58,2.49,4.13,4.64,4.06c2.14-0.07,3.77-1.68,4.12-4.51
		C1681.91,564.19,1681.72,562.26,1681.72,560.35z M1961.31,976.05c0.1,0.46,0.18,1.6,0.58,2.62c1.33,3.32,4.69,3.88,7.19,1.31
		c1.54-1.59,3.18-3.09,4.76-4.65c0.57-0.56,1.16-1.1,1.62-1.74c1.53-2.13,0.86-4.44-1.58-5.44c-2.14-0.88-4.35-0.84-6.57-0.29
		C1963.47,968.8,1961.38,971.45,1961.31,976.05z M651.72,1030.41c-2.02-0.17-3.62,0.71-4.29,2.36c-0.69,1.69-0.34,3.64,0.98,4.86
		c0.58,0.53,1.27,0.98,1.98,1.33c2.13,1.05,3.54,2.67,4.26,4.94c0.19,0.6,0.48,1.2,0.85,1.71c1.14,1.55,2.73,2.22,4.62,1.9
		c1.71-0.29,2.92-1.3,3.35-3.03c0.47-1.89-0.12-3.47-1.66-4.67c-0.25-0.2-0.5-0.41-0.79-0.55c-2.44-1.17-3.97-3.05-4.91-5.61
		C655.41,1031.73,653.83,1030.61,651.72,1030.41z M395.31,808.43c1.48-0.23,2.76-0.31,3.99-0.64c1.88-0.5,2.94-1.84,3.21-3.76
		c0.3-2.2-0.71-4.2-2.8-5.05c-3.38-1.38-6.91-1.38-10.34-0.31c-3.02,0.95-3.92,4.68-1.78,7.03c0.72,0.79,1.74,1.48,2.75,1.78
		C391.99,807.99,393.75,808.15,395.31,808.43z M960.8,643.23c1.17-0.26,2.47-0.36,3.61-0.83c1.92-0.79,2.95-2.35,3.02-4.45
		c0.06-1.98-0.99-3.37-2.67-4.14c-3.49-1.6-7.11-1.69-10.62-0.14c-2.92,1.29-3.39,4.94-0.98,7.09c0.8,0.72,1.83,1.3,2.86,1.6
		C957.53,642.8,959.12,642.94,960.8,643.23z M1130.17,645.61c-0.15-1.61-0.16-2.41-0.32-3.18c-0.47-2.27-2.11-3.93-4.06-4.1
		c-2.22-0.19-3.58,1.11-4.47,2.91c-1.14,2.31-1.64,4.81-1.52,7.37c0.11,2.4,1.51,4.05,3.56,4.47c2.12,0.44,4.26-0.35,5.21-2.39
		C1129.42,648.88,1129.8,646.84,1130.17,645.61z M1179.3,767.45c-0.15-1.29-0.15-2.43-0.43-3.5c-0.52-1.98-1.66-3.45-3.86-3.74
		c-1.96-0.26-3.54,0.64-4.64,2.68c-1.44,2.66-1.46,5.54-0.97,8.4c0.4,2.32,2.11,3.8,4.19,3.94c2.12,0.15,3.93-0.98,4.74-3.28
		C1178.84,770.47,1179,768.86,1179.3,767.45z M1760.03,646.81c0,0.13-0.02,0.92,0.01,1.72c0.02,0.8-0.06,1.64,0.17,2.37
		c0.38,1.18,0.82,2.41,1.53,3.41c0.9,1.28,2.84,0.91,3.52-0.53c0.14-0.29,0.25-0.59,0.35-0.89c0.87-2.55,1.79-5.09,2.57-7.67
		c0.32-1.04,0.53-2.19,0.43-3.26c-0.24-2.67-2.81-4.71-5.3-4.43c-2.22,0.25-3.7,2.11-3.69,4.8
		C1759.63,643.61,1759.85,644.87,1760.03,646.81z M1601.37,241.58c-0.15,1.95-0.07,3.42,1.06,4.1c3.17,1.89,5.66,4.39,8.02,7.2
		c1.37,1.63,3.82,1.2,5.03-0.34c1.25-1.59,1.28-4-0.41-5.11c-2.98-1.95-5.32-4.44-7.49-7.18c-0.28-0.36-0.74-0.59-1.15-0.83
		C1604,238.05,1601.57,239.38,1601.37,241.58z M2177.3,542.38c-0.01,1.98,0.46,3.79,1.87,5.27c2.18,2.29,5.39,1.91,6.72-0.94
		c1.35-2.88,1.33-5.93,0.11-8.84c-1.18-2.81-4.55-3.33-6.75-1.2C2177.64,538.24,2177.27,540.24,2177.3,542.38z M1672.28,528.08
		c0.22,1.1,0.32,2.23,0.68,3.26c0.76,2.19,2.67,3.39,4.77,3.18c1.93-0.19,3.55-1.47,3.88-3.64c0.28-1.85,0.28-3.81,0.01-5.66
		c-0.32-2.17-1.88-3.37-3.92-3.54c-2.23-0.18-4.13,0.98-4.81,3.1C1672.55,525.84,1672.48,526.96,1672.28,528.08z M1862.2,1033.1
		c-0.3-1.65-0.38-3.27-0.92-4.72c-1.09-2.9-4.4-3.39-6.54-1.11c-2.37,2.53-2.49,7.87-0.24,10.6c1.93,2.34,5.37,2.05,6.67-0.7
		C1861.77,1035.92,1861.88,1034.45,1862.2,1033.1z M570.16,882.14c-2.71,0.1-4.65,1.97-4.63,4.46c0.02,2.67,2.27,4.71,5.05,4.59
		c2.48-0.11,4.5-2.28,4.39-4.74C574.86,883.99,572.7,882.05,570.16,882.14z M1168.11,641.19c2.67-0.06,4.73-2.02,4.67-4.44
		c-0.06-2.43-2.15-4.31-4.81-4.34c-2.8-0.04-4.81,1.7-4.86,4.19C1163.06,639.31,1165.18,641.25,1168.11,641.19z M1067.93,926.3
		c2.8,0.1,4.89-1.55,5.03-3.94c0.15-2.57-2.07-4.82-4.79-4.84c-2.6-0.02-4.57,1.79-4.72,4.35
		C1063.32,924.44,1065.1,926.21,1067.93,926.3z M518.89,1048.68c0.03-2.79-1.75-4.68-4.36-4.64c-2.59,0.04-4.53,2-4.54,4.59
		c0,2.67,1.88,4.65,4.44,4.65C517.07,1053.29,518.86,1051.44,518.89,1048.68z M849.64,895.19c2.62,0.2,4.82-1.56,5-3.99
		c0.18-2.46-1.68-4.52-4.3-4.75c-2.6-0.23-4.76,1.51-4.97,4C845.16,892.94,847.01,894.99,849.64,895.19z M1130.54,779.81
		c-2.77-0.06-4.52,1.61-4.56,4.34c-0.03,2.68,1.71,4.52,4.38,4.6c2.56,0.08,4.48-1.77,4.59-4.43
		C1135.07,781.68,1133.3,779.87,1130.54,779.81z M617.69,1036.58c2.4-0.01,4.31-1.75,4.43-4.04c0.13-2.54-1.77-4.52-4.38-4.56
		c-2.66-0.04-4.68,1.79-4.7,4.27C613.02,1034.69,615.06,1036.59,617.69,1036.58z M955.55,1052.9c2.82,0.11,4.88-1.86,4.87-4.67
		c-0.01-2.45-1.68-4.15-4.19-4.25c-2.67-0.11-4.66,1.61-4.84,4.18C951.2,1050.87,952.89,1052.79,955.55,1052.9z M986.01,786.14
		c2.71,0.11,4.8-1.68,4.8-4.13c0.01-2.26-1.86-4.25-4.14-4.41c-2.69-0.19-5.13,1.95-5.09,4.48
		C981.63,784.31,983.52,786.04,986.01,786.14z M1112.02,640.27c0.01-2.16-1.66-3.95-3.78-4.06c-2.46-0.13-4.67,1.81-4.78,4.21
		c-0.11,2.31,1.68,4.22,4.05,4.32C1109.9,644.84,1112.01,642.75,1112.02,640.27z M2157.23,769.32c0.06-2.12-1.35-3.59-3.53-3.71
		c-2.41-0.13-4.19,1.34-4.26,3.52c-0.07,2.21,1.58,3.96,3.83,4.06C2155.48,773.29,2157.16,771.65,2157.23,769.32z M2268.79,1025.73
		c2.25-0.09,3.92-1.92,3.75-4.11c-0.17-2.18-2.07-3.78-4.28-3.59c-2.01,0.17-3.47,1.8-3.48,3.89
		C2264.78,1024.15,2266.52,1025.81,2268.79,1025.73z M2008.87,945.61c-1.97,0-3.54,1.97-3.47,4.34c0.06,2.16,1.47,3.7,3.48,3.81
		c2.19,0.12,3.81-1.62,3.72-3.98C2012.51,947.44,2010.87,945.61,2008.87,945.61z M2160.1,859.37c-2.08,0.1-3.66,1.74-3.55,3.68
		c0.12,2.12,2.01,4.07,3.92,4.07c2.05-0.01,3.8-1.92,3.75-4.09C2164.18,860.88,2162.36,859.27,2160.1,859.37z M2149.69,870.95
		c0.08-2.21-1.48-4.18-3.49-4.4c-1.97-0.22-3.8,1.68-3.81,3.96c-0.01,1.99,1.51,3.64,3.5,3.79
		C2147.94,874.46,2149.61,872.99,2149.69,870.95z M1952.05,989.46c1.86-0.11,3.37-1.93,3.27-3.92c-0.1-2.02-1.77-3.64-3.65-3.56
		c-1.94,0.09-3.61,1.79-3.59,3.67C1948.09,987.75,1950.01,989.59,1952.05,989.46z M1832.54,1043.84c0.04-2.06-0.94-3.37-2.3-3.5
		c-1.34-0.13-2.62,0.96-2.9,2.57c-0.11,0.61-0.1,1.26-0.01,1.87c0.15,1,0.71,1.73,1.72,2.05c1.04,0.32,2.26-0.13,2.83-1.18
		C1832.23,1044.97,1832.41,1044.2,1832.54,1043.84z"/>
	<path class="st0" d="M2138.48,968c-0.64,0-1.29,0.07-1.92-0.01c-3.62-0.44-6.58,0.45-8.72,3.68c-1.74,2.62-4.45,3.5-7.52,3.43
		c-1.6-0.04-3.2-0.08-4.8-0.05c-3.49,0.06-6.6,1.08-9.06,3.7c-0.65,0.7-1.38,1.34-2.07,2c-1.21,1.15-2.64,1.75-4.31,1.85
		c-1.6,0.1-3.2,0.18-4.78,0.43c-2.29,0.35-3.05,1.2-3.21,3.46c-0.1,1.43-0.06,2.88-0.11,4.32c-0.07,2.03-0.88,3.64-2.46,4.99
		c-1.94,1.66-3.8,3.42-5.55,5.28c-1.88,2-4.08,2.96-6.82,2.89c-4.32-0.11-8.64-0.01-12.95-0.22c-3.48-0.17-6.2,0.86-8.33,3.71
		c-2.19,2.93-5.27,5.07-7.27,8.25c-1.39,2.21-3.76,2.24-5.83,0.57c-0.61-0.5-1.09-1.16-1.64-1.74c-0.66-0.69-1.26-1.47-2.01-2.03
		c-2.11-1.57-3.86-1.11-5.01,1.21c-0.14,0.29-0.24,0.59-0.34,0.9c-1,2.99-3.31,4.44-6.23,4.32c-4.11-0.17-7.1,1.06-8.98,4.9
		c-0.41,0.84-1.73,1.35-2.74,1.74c-0.87,0.33-1.89,0.4-2.84,0.38c-2.95-0.07-5.25,0.94-6.89,3.52c-0.57,0.9-1.52,1.67-2.45,2.22
		c-2.17,1.28-4.59,0.51-5.67-1.72c-1.97-4.11-0.03-10.83,5.54-11.71c1.57-0.25,3.18-0.33,4.77-0.44c1.75-0.13,3.51-0.29,5.27-0.27
		c3.18,0.03,5.54-1.06,6.93-4.11c1.04-2.3,3.08-3.11,5.54-2.99c0.8,0.04,1.61-0.06,2.4,0.02c3.22,0.34,5.58-0.55,6.7-3.94
		c0.38-1.13,1.45-2.1,2.38-2.96c2.57-2.4,5.27-4.67,7.84-7.07c1.39-1.3,2.8-2.64,3.9-4.18c1.44-2.03,3.31-2.96,5.69-2.98
		c2.56-0.03,5.12,0.01,7.67,0.1c3.07,0.11,5.72-0.7,7.58-3.27c2.42-3.33,5.63-4.42,9.66-3.91c2.37,0.3,4.79,0.09,7.19,0.15
		c2.15,0.06,3.77-0.74,4.55-2.8c1.06-2.83,3.02-4.85,5.47-6.49c0.66-0.44,1.28-0.98,1.81-1.57c2.13-2.36,4.63-3.7,7.92-3.89
		c2.95-0.18,5.49-1.6,7.38-4.01c1.68-2.15,3.85-3.24,6.67-3.08c2.75,0.15,4.9-1.19,6.75-3.12c2.87-2.99,5.79-5.93,8.63-8.94
		c1.65-1.74,3.65-2.53,5.99-2.56c2.08-0.02,4.17,0.11,6.24-0.03c3.42-0.22,6.62-1.01,8.89-3.97c1.55-2.02,3.73-2.93,6.27-3.04
		c3.4-0.14,6.18-1.47,8.19-4.28c1.42-1.98,3.46-2.74,5.8-2.89c0.8-0.05,1.59-0.16,2.39-0.19c2.22-0.08,4-0.99,5.33-2.78
		c0.48-0.64,0.99-1.26,1.49-1.88c0.96-1.18,2.21-1.81,3.71-1.96c0.96-0.09,1.91-0.21,2.87-0.27c2.88-0.18,5.19-1.18,6.72-3.86
		c1.9-3.32,5.08-4.19,8.67-3.84c3.64,0.35,5.82,2.52,6.23,6.16c0.38,3.41-0.31,6.37-3.53,8.27c-2.89,1.71-4.19,4.29-4.07,7.62
		c0.02,0.48,0.01,0.96-0.04,1.44c-0.3,3.46-1.96,5.25-5.36,5.64c-1.26,0.14-2.55,0.04-3.83,0.02c-1.6-0.02-3.2-0.07-4.8-0.1
		c-3.13-0.07-5.63,0.96-7.07,3.95c-0.27,0.56-0.71,1.07-1.15,1.53c-1.49,1.57-3.5,1.85-5.16,0.49c-1.1-0.89-1.95-2.09-2.87-3.19
		c-2.74-3.28-7.27-3.76-10.67-1.11c-1.51,1.17-2.12,2.78-2.16,4.61c-0.02,1.11,0.19,2.23,0.22,3.34c0.05,1.53-0.57,2.79-1.75,3.78
		c-1.22,1.02-2.82,1.06-3.89-0.07c-0.88-0.92-1.58-2.01-2.41-2.98c-0.99-1.14-2.23-1.79-3.8-1.63c-2.17,0.22-3.53,1.62-3.52,3.78
		c0.01,1.27,0.27,2.55,0.27,3.82c0,3.27-1.47,5.16-4.7,5.58c-2.04,0.27-4.15,0.05-6.22,0.05
		C2138.48,967.97,2138.48,967.98,2138.48,968z"/>
	<path class="st0" d="M1437.78,700.59c-7.3-0.73-15.28-1.34-23.2-2.39c-4.17-0.56-7.65,0.09-10.42,3.3
		c-2.84,3.29-6.31,3.91-10.42,3.15c-3.44-0.64-6.96-0.96-10.47-1.2c-6.86-0.47-13.74-0.65-20.53-1.91
		c-3.45-0.64-6.32,0.15-8.36,3.24c-0.61,0.92-1.37,1.79-2.23,2.49c-2.19,1.78-5.06,1.41-6.76-0.85c-0.57-0.76-0.97-1.65-1.39-2.51
		c-1.25-2.58-3.31-3.75-6.16-3.73c-3.67,0.03-7.35,0.02-11.02-0.04c-2.7-0.04-5.04,0.71-6.9,2.75c-0.22,0.24-0.47,0.44-0.68,0.68
		c-2.31,2.68-5.25,3.5-8.65,2.95c-11.07-1.8-22.31-1.74-33.44-2.96c-2.84-0.31-5.75,0.04-8.63-0.05c-4.79-0.15-9.58-0.38-14.37-0.61
		c-3.51-0.17-7.02-0.42-10.54-0.6c-2.11-0.1-4.13-0.46-5.96-1.59c-1.31-0.81-2.11-1.95-2.1-3.53c0.01-1.79,0.95-3.01,2.48-3.8
		c1.94-0.99,4.03-0.92,6.11-0.73c5.09,0.47,10.19,1,15.28,1.51c0.48,0.05,0.95,0.13,1.43,0.19c3.22,0.42,6.13-0.35,8.29-2.81
		c2.96-3.38,6.56-3.98,10.83-3.56c11.3,1.11,22.61,2.05,33.94,2.81c5.57,0.37,11.19,0.13,16.78,0.26c2.74,0.06,5.1-0.67,6.82-2.82
		c2.48-3.11,5.72-3.67,9.45-3.36c16.42,1.35,32.85,2.6,49.27,3.89c0.8,0.06,1.6,0.15,2.4,0.12c13.62-0.39,27.14,1.5,40.74,1.78
		c1.57,0.03,3.21,0.3,4.67,0.84c2.19,0.81,3.16,2.75,2.88,4.98c-0.26,1.99-1.54,3.36-3.69,3.91c-0.46,0.12-0.94,0.21-1.42,0.22
		C1440.68,700.61,1439.56,700.59,1437.78,700.59z"/>
	<path class="st0" d="M2073.71,917.07c-0.64,0-1.28,0.05-1.91-0.01c-3.79-0.31-6.66,0.99-9.11,4.09c-2.55,3.23-5.7,6-8.64,8.91
		c-1.19,1.17-2.78,1.65-4.41,1.59c-3.86-0.15-6.74,1.46-8.99,4.52c-1.6,2.17-3.8,3.3-6.56,3.41c-3.08,0.12-5.52,1.42-7.05,4.22
		c-0.3,0.55-0.74,1.05-1.21,1.47c-1.64,1.44-4.15,1.17-5.54-0.56c-1.28-1.59-0.95-3.6,0.85-5.02c0.5-0.39,1.04-0.77,1.62-1.01
		c2.16-0.89,3.74-2.36,4.81-4.45c0.9-1.77,2.45-2.89,4.17-3.83c1.84-1,2.76-2.58,2.72-4.71c-0.02-0.8,0.1-1.6,0.08-2.39
		c-0.03-2.23,0.88-3.97,2.54-5.44c1.79-1.59,3.54-3.23,5.2-4.96c1.65-1.71,3.56-2.67,5.94-2.64c3.28,0.05,5.84-1.2,7.75-3.94
		c1.78-2.55,4.3-3.72,7.46-3.38c2.42,0.26,4.37-0.66,5.92-2.49c0.41-0.49,0.85-0.95,1.27-1.44c1.86-2.18,4.15-3.45,7.09-3.37
		c2.96,0.08,5.29-1.2,6.94-3.58c1.91-2.75,4.38-4.01,7.75-3.73c2.76,0.23,4.94-1.01,6.63-3.16c0.39-0.5,0.78-1.01,1.22-1.48
		c1.73-1.85,3.82-2.8,6.4-2.67c2.39,0.12,4.79,0.12,7.18,0.18c2.37,0.06,4.36-0.7,5.91-2.59c0.81-0.98,1.72-1.9,2.68-2.74
		c2.29-2.02,5.05-2.73,8.01-2.46c1.04,0.09,2.14,0.64,3.02,1.26c1.39,0.98,1.77,2.78,0.97,4.28c-0.43,0.82-1.07,1.61-1.79,2.19
		c-6.99,5.61-13.12,12.13-19.29,18.6c-1.99,2.09-4.25,3.4-7.16,3.22c-3.02-0.18-5.29,1.07-6.95,3.45c-2.03,2.89-4.68,4.21-8.21,3.81
		c-1.89-0.22-3.43,0.51-4.68,1.92c-0.42,0.48-0.91,0.9-1.32,1.39c-2.45,2.95-5.6,4.1-9.37,3.72c-0.64-0.07-1.28-0.07-1.91-0.1
		C2073.71,917.11,2073.71,917.09,2073.71,917.07z"/>
	<path class="st0" d="M2106.51,686.3c2.39,0,4.79,0.04,7.18-0.01c2.39-0.05,4.37,0.71,5.9,2.59c0.6,0.74,1.29,1.42,1.92,2.13
		c1.56,1.77,3.52,2.69,5.88,2.78c0.32,0.01,0.64,0.05,0.96,0.03c2.77-0.15,4.99,0.87,6.6,3.14c2.19,3.08,5.19,3.98,8.82,3.49
		c2.7-0.36,5.42-0.38,8.08,0.35c4.84,1.32,7.54,7.44,5.27,11.92c-1.03,2.04-3.44,2.77-5.25,1.4c-1.13-0.85-1.99-2.05-2.98-3.08
		c-2.2-2.27-4.31-2.54-6.04-0.05c-2.76,3.98-6.48,4.83-10.86,4.51c-0.79-0.06-1.6-0.03-2.39-0.01c-3.9,0.12-7.24-0.89-9.5-4.37
		c-1.52-2.34-3.77-3.29-6.56-3.14c-2.23,0.12-4.47,0.01-6.7,0.18c-3.14,0.23-5.65-0.84-7.49-3.36c-1.34-1.83-2.95-3.29-4.76-4.66
		c-3.12-2.35-4.08-6.2-2.73-9.85c0.65-1.78,1.88-3.04,3.7-3.44c1.7-0.37,3.46-0.49,5.21-0.57c1.91-0.09,3.83-0.02,5.74-0.02
		C2106.51,686.28,2106.51,686.29,2106.51,686.3z"/>
	<path class="st0" d="M1759.78,506.13c0.15-1.42,0.15-2.87,0.48-4.24c0.35-1.49,1.38-2.53,2.96-2.79c1.39-0.23,2.49,0.41,3.34,1.47
		c0.5,0.62,0.93,1.3,1.33,1.99c1.51,2.61,3.88,3.86,6.77,3.75c3.2-0.13,5.4,1.22,7.45,3.53c2.53,2.86,5.35,5.47,8.06,8.16
		c1.17,1.17,2.59,1.84,4.27,1.93c1.43,0.08,2.88,0.08,4.3,0.28c2.78,0.39,4.22,1.67,4.31,3.67c0.1,2.1-1.18,3.5-3.87,4.08
		c-1.24,0.27-2.53,0.43-3.8,0.46c-2.41,0.04-4.41,0.96-5.82,2.84c-2.12,2.84-4.96,3.95-8.35,3.75c-3.08-0.18-5.19,1.23-6.74,3.71
		c-1.7,2.72-4.31,3.72-7.32,3.83c-3.96,0.13-6.73-2.28-7.15-6.22c-0.13-1.25,0.05-2.54,0.17-3.81c0.14-1.43,0.44-2.84,0.53-4.27
		c0.19-2.95-0.76-5.34-3.59-6.71c-0.57-0.28-1.13-0.61-1.64-0.99c-2.43-1.79-2.62-4.35-0.45-6.53c0.56-0.56,1.26-0.98,1.89-1.47
		C1760,510.15,1760.14,509.86,1759.78,506.13z"/>
	<path class="st0" d="M1681.83,475.34c-0.65,10.38-1.28,20.76-0.19,31.13c0.23,2.19-0.06,4.2-2.19,5.4
		c-1.84,1.04-4.08,0.46-6.02-1.51c-1.9-1.93-3.83-3.84-5.61-5.88c-0.7-0.8-1.21-1.89-1.46-2.94c-0.29-1.22-0.24-2.54-0.25-3.81
		c-0.02-3.83,0-7.65,0-11.48c0-0.64-0.01-1.28-0.03-1.92c-0.09-2.58,0.77-4.73,2.93-6.21c3.27-2.22,4.23-5.44,4.17-9.15
		c-0.03-2.08,0.03-4.16-0.04-6.23c-0.1-3.01-1.02-5.68-3.65-7.44c-2.5-1.68-3.43-4.04-3.41-6.97c0.01-2.55-0.24-5.11-0.22-7.66
		c0.01-1.25,0.17-2.58,0.62-3.73c0.9-2.33,3.47-3.04,5.55-1.66c0.52,0.35,0.97,0.82,1.41,1.28c1.76,1.84,3.42,3.78,5.26,5.54
		c1.6,1.53,2.5,3.27,2.55,5.47C1681.45,456.83,1681.64,466.08,1681.83,475.34z"/>
	<path class="st0" d="M1844.66,916.97c-0.91,0-2.19,0.09-3.46-0.02c-1.81-0.16-3.02-1.07-3.24-2.33c-0.29-1.65,0.65-2.72,1.88-3.58
		c0.52-0.37,1.12-0.61,1.67-0.94c0.69-0.4,1.4-0.77,2.04-1.25c2.77-2.08,2.91-3.63,0.58-6.27c-0.42-0.48-0.94-0.88-1.33-1.38
		c-1.53-1.96-0.65-4.69,1.76-5.27c0.91-0.22,1.9-0.21,2.85-0.17c2.26,0.09,3.95-0.92,5.47-2.47c5.46-5.56,10.99-11.06,16.44-16.63
		c1.78-1.82,3.79-2.75,6.37-2.74c2.54,0.01,5.09-0.31,7.64-0.41c1.1-0.04,2.26-0.07,3.32,0.2c2.79,0.72,3.83,3.76,2.15,6.07
		c-0.28,0.38-0.62,0.73-0.98,1.04c-3.02,2.59-6.06,5.17-9.07,7.77c-0.84,0.73-1.7,1.47-2.42,2.31c-4.06,4.72-8.39,9.14-13.05,13.3
		c-3.08,2.75-5.86,5.86-8.58,8.99C1852.08,916.17,1849.11,917.91,1844.66,916.97z"/>
	<path class="st0" d="M326.74,802.8c-0.9,0-1.7,0.02-2.5,0c-2.47-0.09-4.46-1.17-5.2-3.54c-0.89-2.86-2.54-4.72-5.38-5.59
		c-0.45-0.14-0.86-0.42-1.25-0.7c-1.75-1.22-2.42-3.09-1.82-5.02c0.48-1.55,1.82-2.56,3.62-2.66c1.92-0.12,3.5,0.54,4.33,2.35
		c0.46,1,0.64,2.14,1.03,3.18c0.75,1.99,2.16,2.8,4.14,2.12c1.16-0.4,2.26-1.15,3.22-1.94c0.85-0.7,1.43-1.72,2.24-2.49
		c2.02-1.93,4.43-1.76,6.23,0.46c0.8,0.99,1.5,2.08,2.16,3.17c1.57,2.59,3.85,3.64,6.84,3.59c4.8-0.09,9.6-0.07,14.4-0.03
		c1.59,0.01,3.19,0.17,4.77,0.38c0.78,0.1,1.54,0.43,2.27,0.76c2.2,1,3.22,2.49,3.09,4.39c-0.13,2.03-1.68,3.72-4.02,4.15
		c-1.08,0.2-2.22,0.11-3.33,0.06c-1.28-0.06-2.54-0.26-3.82-0.35c-2.2-0.15-4.09,0.57-5.61,2.19c-0.33,0.35-0.71,0.66-0.97,1.06
		c-2.12,3.24-5.33,3.84-8.84,3.63c-2.88-0.17-5.26-1.3-6.7-3.96c-0.15-0.28-0.33-0.55-0.48-0.83
		C333.37,803.65,330.82,801.63,326.74,802.8z"/>
	<path class="st0" d="M983.94,634.59c12.16,1.14,23.62,2.24,35.09,3.26c2.54,0.23,5.1,0.15,7.66,0.24c1.75,0.06,3.56-0.09,5.24,0.31
		c3.75,0.91,4.77,4.53,2.23,7.41c-0.32,0.36-0.63,0.77-1.04,0.99c-2.83,1.53-5.28,3.5-7.6,5.75c-1.84,1.79-4.68,1.43-6.47-0.48
		c-0.87-0.92-1.56-2.03-2.29-3.08c-1.58-2.26-3.69-3.34-6.49-3.44c-7.83-0.28-15.65-0.68-23.48-1.1c-1.9-0.1-3.84-0.29-5.68-0.76
		c-2.24-0.57-3.34-2.16-3.33-4.14c0.01-2.14,1.36-3.96,3.55-4.58C982.39,634.69,983.52,634.65,983.94,634.59z"/>
	<path class="st0" d="M1853.93,599.84c2.74-0.31,5.27,0.8,7,3.45c1.68,2.57,4.08,3.42,6.99,3.34c1.12-0.03,2.24-0.05,3.35,0.05
		c1.54,0.14,2.73,0.93,3.34,2.38c0.68,1.61,0.42,3.13-0.7,4.49c-0.3,0.37-0.66,0.7-1.02,1.01c-2.39,2.11-4.83,4.17-7.15,6.35
		c-1.39,1.3-2.61,2.78-3.89,4.2c-0.64,0.71-1.16,1.54-1.86,2.18c-1.29,1.17-3.01,1.26-4.4,0.18c-0.87-0.68-1.66-1.51-2.31-2.41
		c-1.35-1.86-2.99-3.32-5.13-4.19c-3.01-1.23-3.86-3.54-3.47-6.59c0.31-2.38,0.46-4.77,0.71-7.16
		C1845.99,601.71,1848.01,599.9,1853.93,599.84z"/>
	<path class="st0" d="M257.19,929.62c-0.05,0.34-0.1,0.98-0.24,1.59c-0.75,3.29,0.31,5.91,2.76,8.14c3.17,2.89,6.27,5.86,9.43,8.76
		c2.24,2.06,3.01,3.98,2.12,5.82c-1.13,2.33-3.25,2.85-5.61,2.85c-0.48,0-0.96-0.03-1.43-0.09c-3.47-0.41-6.94-0.81-10.41-1.27
		c-1.09-0.15-2.22-0.37-3.22-0.8c-2.22-0.94-3.57-2.62-3.68-5.12c-0.05-1.11-0.07-2.23,0.02-3.34c0.21-2.79-0.64-4.99-3.16-6.45
		c-0.82-0.48-1.59-1.08-2.27-1.74c-2.38-2.35-2.11-5.68,0.89-7.16c2.65-1.32,4.74-3.04,6.61-5.3c1.64-1.99,3.8-2.35,5.56-1.4
		C256.61,925.23,257.34,927.07,257.19,929.62z"/>
	<path class="st0" d="M1593.78,1339.12c-0.16-5.75-0.31-11.51-0.49-17.26c-0.1-3.25,0.72-6.11,3.8-7.69
		c1.98-1.02,3.23-2.53,4.06-4.52c0.24-0.58,0.6-1.14,1-1.63c1.55-1.88,4.14-1.99,5.93-0.28c1.56,1.48,1.4,3.91-0.46,5.46
		c-0.73,0.61-1.57,1.13-2.44,1.5c-2.01,0.87-2.83,2.49-3.08,4.51c-0.12,0.95-0.13,1.91-0.13,2.87c0.1,11.52,0.22,23.03,0.29,34.55
		c0.01,1.43-0.12,2.89-0.45,4.27c-0.48,2.01-1.96,3.11-3.75,3.11c-1.78,0-3.54-1.08-3.99-2.88c-0.42-1.68-0.52-3.47-0.54-5.21
		c-0.06-5.6-0.02-11.2-0.02-16.79C1593.6,1339.12,1593.69,1339.12,1593.78,1339.12z"/>
	<path class="st0" d="M290.24,1045.4c-0.13,0.66-0.24,2.12-0.72,3.45c-1.24,3.43-5.36,4.11-7.67,1.33c-0.4-0.49-0.74-1.05-1-1.63
		c-1.52-3.36-4.4-4.44-7.78-4.63c-1.43-0.08-2.88,0.01-4.31-0.01c-1.76-0.02-3.52-0.02-5.27-0.09c-3.13-0.14-5.57-1.48-6.86-4.41
		c-0.96-2.17-2.51-3.61-4.58-4.67c-0.97-0.5-1.87-1.25-2.6-2.08c-1.61-1.84-1.45-4.57,0.2-6.06c1.72-1.55,4.92-1.33,6.46,0.59
		c0.68,0.85,1.16,1.92,1.49,2.96c0.79,2.47,2.49,3.59,4.97,3.77c2.39,0.17,4.78,0.37,7.17,0.57c4.14,0.34,8.28,0.69,12.42,1.04
		c0.16,0.01,0.32,0.02,0.48,0.05C288.23,1036.37,290.47,1039.03,290.24,1045.4z"/>
	<path class="st0" d="M2240.66,578.87c-1.44-0.07-2.87-0.11-4.31-0.2c-2.82-0.18-5.3-1.03-7.08-3.42c-0.56-0.76-1.31-1.41-2.08-1.97
		c-2.24-1.61-4.17-3.46-5.45-5.95c-0.97-1.88-2.62-2.73-4.67-2.88c-1.27-0.09-2.55-0.13-3.83-0.16c-2.05-0.05-3.81-0.8-4.92-2.51
		c-1.35-2.08-3-3.7-5.33-4.62c-0.44-0.17-0.83-0.49-1.2-0.79c-2.22-1.8-2.68-4.56-1.04-6.26c1.52-1.57,4.06-1.35,5.95,0.6
		c0.66,0.68,1.29,1.45,1.72,2.29c1.17,2.28,3.04,3.13,5.5,3.04c3.47-0.13,6.24,1.02,7.9,4.3c0.96,1.89,2.65,2.86,4.7,2.77
		c4.55-0.2,8,1.62,10.76,5.15c1.36,1.74,3.32,2.4,5.54,2.33c0.96-0.03,1.93-0.05,2.87,0.11c0.93,0.15,1.89,0.41,2.72,0.84
		c1.38,0.72,2.13,1.96,1.97,3.54c-0.13,1.36-0.9,2.43-2.18,2.92c-1.03,0.39-2.14,0.68-3.24,0.78c-1.43,0.13-2.87,0.03-4.31,0.03
		C2240.66,578.82,2240.66,578.85,2240.66,578.87z"/>
	<path class="st0" d="M1968.01,649.85c3.15,0.15,5.65,1.06,7.65,3.1c3.02,3.07,5.97,6.2,9,9.24c1.23,1.24,2.63,2.31,3.94,3.47
		c2.72,2.41,3.83,5.43,3.27,9.02c-0.29,1.81-1.04,3.37-2.94,4.03c-1.75,0.61-3.9,0.13-4.99-1.82c-2.13-3.81-5.28-5.34-9.45-5.29
		c-0.47,0.01-0.96-0.09-1.42-0.2c-2.24-0.54-3.31-1.66-3.58-3.9c-0.15-1.26-0.14-2.55-0.19-3.82c-0.09-2.23-0.96-3.99-2.98-5.1
		c-0.7-0.38-1.41-0.77-2.01-1.28c-2.41-2.03-2.04-5.29,0.81-6.62C1966.1,650.2,1967.24,650.06,1968.01,649.85z"/>
	<path class="st0" d="M2095.96,830.92c1.76,0,3.52-0.12,5.27,0.03c3.12,0.26,5.38,2.39,5.65,5.51c0.14,1.55-0.04,3.21-0.47,4.71
		c-0.68,2.34-2.42,3.76-4.89,3.97c-1.75,0.15-3.51,0.07-5.27,0.06c-1.28-0.01-2.56-0.03-3.83-0.11c-2.59-0.16-4.67,0.64-6.2,2.85
		c-0.72,1.04-1.57,2.05-2.56,2.83c-2.67,2.11-5.9,1.03-6.7-2.27c-0.84-3.47-0.27-6.65,2.49-9.22c2.1-1.96,4.22-3.91,6.21-5.98
		c1.8-1.87,3.92-2.64,6.47-2.5c1.27,0.07,2.56,0.01,3.83,0.01C2095.96,830.83,2095.96,830.87,2095.96,830.92z"/>
	<path class="st0" d="M256.21,733.77c-0.15,0.68-0.25,2.34-0.87,3.76c-0.55,1.25-1.5,2.48-2.59,3.29c-3.02,2.22-8.89,1.64-11.6-0.95
		c-1.47-1.4-2.29-3.19-2.02-5.17c0.64-4.67-1.09-8.07-5.07-10.44c-0.4-0.24-0.74-0.61-1.06-0.96c-1.83-2.04-1.52-4.63,0.82-6.14
		c0.79-0.51,1.72-0.97,2.63-1.06c4.35-0.45,8.33,0.39,10.98,4.24c1.65,2.4,3.55,4.48,5.8,6.3
		C255.19,728.22,256.28,730.29,256.21,733.77z"/>
	<path class="st0" d="M1586.15,1223.47c0-3.34-0.03-6.69,0.02-10.03c0.02-1.27,0.11-2.56,0.4-3.78c0.49-2.04,1.85-3.22,3.56-3.36
		c1.95-0.16,3.6,0.9,4.47,2.92c0.78,1.81,0.85,3.7,0.62,5.63c-0.19,1.58-0.4,3.16-0.5,4.75c-0.2,3.04,0.75,5.65,3.14,7.64
		c0.37,0.31,0.69,0.67,1.07,0.96c3.34,2.53,3.23,6,2.51,9.55c-0.42,2.04-1.9,3.3-3.89,3.8c-1.07,0.27-2.2,0.33-3.31,0.34
		c-5.6,0.03-7.37-1.77-7.46-7.44c-0.06-3.66-0.14-7.32-0.22-10.97C1586.42,1223.47,1586.29,1223.47,1586.15,1223.47z"/>
	<path class="st0" d="M1071.5,658.37c-4.89-0.13-8.36-1.35-10.77-4.82c-1.46-2.1-3.21-3.92-5.45-5.26
		c-1.66-0.99-2.38-2.53-2.01-4.47c0.34-1.75,1.56-2.7,3.13-3.3c4.09-1.55,8.86-0.04,11.41,3.53c0.91,1.28,1.81,2.68,3.04,3.59
		c2.65,1.96,5.03,1.35,6.79-1.46c0.42-0.67,0.74-1.42,1.19-2.07c0.99-1.43,2.4-2.03,4.13-1.88c3.36,0.3,4.89,3.43,3.07,6.26
		c-0.82,1.27-1.99,2.09-3.39,2.49c-2.43,0.69-4.27,2.06-5.5,4.26C1075.69,657.8,1073.36,658.48,1071.5,658.37z"/>
	<path class="st0" d="M1929.74,975.09c1.9,0,3.83-0.18,5.71,0.04c3.3,0.39,5.08,2.43,5.19,5.75c0.04,1.09-0.1,2.23-0.37,3.29
		c-0.88,3.46-2.35,4.8-5.99,5.04c-3.16,0.21-6.36,0.3-9.52,0.1c-4.31-0.27-6.54-2.94-6.46-7.26c0.09-4.33,2.37-6.82,6.67-7.15
		c1.58-0.12,3.17-0.02,4.76-0.02C1929.74,974.96,1929.74,975.03,1929.74,975.09z"/>
	<path class="st0" d="M1307.16,1044.42c4.3,0.63,7.95,0.99,11.54,1.72c4.39,0.89,6.47,3.64,6.4,8.19c-0.03,1.56-0.27,3.21-0.82,4.66
		c-1.3,3.4-4.58,4.06-7.26,1.53c-0.8-0.75-1.49-1.67-2.04-2.62c-1.61-2.76-3.98-3.96-7.13-3.93c-1.42,0.01-2.87-0.09-4.27-0.36
		c-1.98-0.39-3.2-1.74-3.45-3.49c-0.27-1.91,0.69-3.92,2.6-4.64C1304.32,1044.86,1306.08,1044.66,1307.16,1044.42z"/>
	<path class="st0" d="M1984.7,831.54c0.14,2.04-0.87,4.32-3.17,5.86c-2.17,1.44-4.07,3.04-5.13,5.51c-0.24,0.56-0.69,1.13-1.2,1.47
		c-2.68,1.78-4.91,3.92-6.68,6.68c-1.26,1.96-3.7,1.85-5.42,0.22c-1.68-1.59-1.62-3.87,0.22-5.41c0.73-0.61,1.68-0.94,2.4-1.56
		c1.07-0.91,2.24-1.83,2.98-2.98c1.15-1.78,2.39-3.39,4.27-4.41c2.25-1.21,3.02-3.12,2.89-5.57c-0.06-1.11,0-2.25,0.22-3.33
		c0.18-0.91,0.53-1.87,1.05-2.63c1.51-2.2,4.51-2.18,6.1-0.04C1984.43,826.97,1984.61,828.88,1984.7,831.54z"/>
	<path class="st0" d="M1212.75,984.54c-3.82-0.27-7.65-0.51-11.47-0.84c-0.94-0.08-1.91-0.29-2.78-0.66
		c-3.32-1.4-3.81-5.57-0.97-7.81c1.34-1.06,2.9-1.38,4.52-1.24c4.3,0.35,8.6,0.67,12.88,1.23c3.08,0.4,5.09,2.54,5.07,4.87
		c-0.02,2.46-2.43,4.35-5.81,4.53c-0.48,0.03-0.96,0-1.44,0C1212.75,984.6,1212.75,984.57,1212.75,984.54z"/>
	<path class="st0" d="M1653.17,1197.96c0.54,0.08,1.35,0.11,2.1,0.32c3.46,0.95,4.8,4.22,1.91,6.8c-2.13,1.9-4.17,3.91-6.26,5.85
		c-2.36,2.19-5.28,2.85-8.37,2.79c-1.84-0.04-3.41-0.77-4.15-2.65c-0.71-1.81-0.19-3.68,1.47-5.13c2.27-1.98,4.58-3.9,6.85-5.88
		C1648.5,1198.5,1650.68,1198.16,1653.17,1197.96z"/>
	<path class="st0" d="M1681.72,560.35c0,1.91,0.19,3.84-0.04,5.71c-0.35,2.82-1.98,4.44-4.12,4.51c-2.15,0.07-3.96-1.48-4.64-4.06
		c-0.2-0.76-0.29-1.57-0.3-2.36c-0.03-2.7-0.05-5.41,0.03-8.11c0.04-1.09,0.23-2.23,0.6-3.26c0.7-1.95,2.58-3.08,4.49-2.84
		c1.96,0.25,3.16,1.44,3.66,3.29c0.25,0.91,0.35,1.88,0.39,2.83c0.06,1.43,0.02,2.86,0.02,4.3
		C1681.78,560.35,1681.75,560.35,1681.72,560.35z"/>
	<path class="st0" d="M1961.31,976.05c0.07-4.61,2.16-7.25,6-8.2c2.21-0.55,4.43-0.59,6.57,0.29c2.44,1,3.11,3.32,1.58,5.44
		c-0.46,0.64-1.05,1.19-1.62,1.74c-1.58,1.56-3.22,3.06-4.76,4.65c-2.49,2.57-5.86,2.02-7.19-1.31
		C1961.49,977.66,1961.41,976.52,1961.31,976.05z"/>
	<path class="st0" d="M651.72,1030.41c2.12,0.19,3.69,1.32,4.39,3.24c0.94,2.56,2.47,4.44,4.91,5.61c0.28,0.14,0.53,0.35,0.79,0.55
		c1.54,1.21,2.13,2.78,1.66,4.67c-0.43,1.73-1.64,2.74-3.35,3.03c-1.89,0.32-3.48-0.35-4.62-1.9c-0.37-0.5-0.66-1.11-0.85-1.71
		c-0.72-2.27-2.13-3.88-4.26-4.94c-0.71-0.35-1.4-0.8-1.98-1.33c-1.32-1.22-1.67-3.17-0.98-4.86
		C648.1,1031.12,649.7,1030.24,651.72,1030.41z"/>
	<path class="st0" d="M395.31,808.43c-1.56-0.28-3.32-0.44-4.98-0.94c-1.01-0.31-2.03-1-2.75-1.78c-2.14-2.35-1.24-6.09,1.78-7.03
		c3.43-1.07,6.96-1.07,10.34,0.31c2.09,0.85,3.11,2.85,2.8,5.05c-0.27,1.92-1.33,3.26-3.21,3.76
		C398.07,808.11,396.79,808.2,395.31,808.43z"/>
	<path class="st0" d="M960.8,643.23c-1.68-0.29-3.27-0.43-4.78-0.87c-1.03-0.3-2.06-0.88-2.86-1.6c-2.41-2.15-1.94-5.8,0.98-7.09
		c3.5-1.55,7.13-1.46,10.62,0.14c1.68,0.77,2.74,2.16,2.67,4.14c-0.07,2.11-1.1,3.67-3.02,4.45
		C963.27,642.87,961.97,642.97,960.8,643.23z"/>
	<path class="st0" d="M1130.17,645.61c-0.37,1.22-0.75,3.26-1.6,5.08c-0.95,2.04-3.09,2.83-5.21,2.39
		c-2.05-0.42-3.45-2.07-3.56-4.47c-0.12-2.57,0.38-5.07,1.52-7.37c0.89-1.8,2.25-3.1,4.47-2.91c1.94,0.17,3.59,1.83,4.06,4.1
		C1130.02,643.2,1130.02,644,1130.17,645.61z"/>
	<path class="st0" d="M1179.3,767.45c-0.29,1.41-0.45,3.02-0.97,4.51c-0.8,2.3-2.61,3.43-4.74,3.28c-2.09-0.15-3.8-1.62-4.19-3.94
		c-0.49-2.87-0.47-5.74,0.97-8.4c1.1-2.04,2.68-2.94,4.64-2.68c2.2,0.29,3.34,1.76,3.86,3.74
		C1179.15,765.02,1179.15,766.16,1179.3,767.45z"/>
	<path class="st0" d="M1760.03,646.81c-0.19-1.94-0.4-3.2-0.41-4.47c-0.01-2.7,1.47-4.55,3.69-4.8c2.5-0.28,5.06,1.76,5.3,4.43
		c0.1,1.07-0.12,2.22-0.43,3.26c-0.78,2.58-1.7,5.12-2.57,7.67c-0.1,0.3-0.21,0.6-0.35,0.89c-0.68,1.44-2.62,1.81-3.52,0.53
		c-0.71-1-1.15-2.23-1.53-3.41c-0.23-0.74-0.15-1.58-0.17-2.37C1760.02,647.73,1760.03,646.94,1760.03,646.81z"/>
	<path class="st0" d="M1601.37,241.58c0.2-2.2,2.63-3.53,5.06-2.16c0.41,0.23,0.87,0.47,1.15,0.83c2.17,2.74,4.51,5.24,7.49,7.18
		c1.69,1.1,1.66,3.51,0.41,5.11c-1.21,1.55-3.67,1.98-5.03,0.34c-2.35-2.81-4.85-5.31-8.02-7.2
		C1601.3,245,1601.22,243.52,1601.37,241.58z"/>
	<path class="st0" d="M2177.3,542.38c-0.03-2.14,0.34-4.14,1.96-5.71c2.2-2.13,5.57-1.62,6.75,1.2c1.22,2.91,1.24,5.96-0.11,8.84
		c-1.34,2.85-4.54,3.23-6.72,0.94C2177.77,546.17,2177.29,544.36,2177.3,542.38z"/>
	<path class="st0" d="M1672.28,528.08c0.2-1.12,0.28-2.24,0.61-3.29c0.68-2.12,2.58-3.28,4.81-3.1c2.04,0.17,3.61,1.36,3.92,3.54
		c0.27,1.85,0.27,3.81-0.01,5.66c-0.33,2.16-1.94,3.45-3.88,3.64c-2.11,0.21-4.01-0.99-4.77-3.18
		C1672.6,530.31,1672.5,529.18,1672.28,528.08z"/>
	<path class="st0" d="M1862.2,1033.1c-0.32,1.35-0.43,2.82-1.02,4.06c-1.3,2.75-4.74,3.04-6.67,0.7c-2.26-2.73-2.14-8.07,0.24-10.6
		c2.14-2.28,5.44-1.79,6.54,1.11C1861.83,1029.83,1861.9,1031.46,1862.2,1033.1z"/>
	<path class="st0" d="M570.16,882.14c2.54-0.09,4.7,1.84,4.81,4.31c0.1,2.46-1.91,4.64-4.39,4.74c-2.78,0.12-5.03-1.93-5.05-4.59
		C565.51,884.11,567.45,882.24,570.16,882.14z"/>
	<path class="st0" d="M1168.11,641.19c-2.93,0.06-5.05-1.88-5-4.59c0.04-2.49,2.06-4.23,4.86-4.19c2.67,0.04,4.75,1.91,4.81,4.34
		C1172.84,639.17,1170.78,641.13,1168.11,641.19z"/>
	<path class="st0" d="M1067.93,926.3c-2.84-0.1-4.62-1.86-4.47-4.44c0.14-2.56,2.11-4.37,4.72-4.35c2.71,0.03,4.93,2.27,4.79,4.84
		C1072.83,924.76,1070.73,926.4,1067.93,926.3z"/>
	<path class="st0" d="M518.89,1048.68c-0.03,2.76-1.82,4.61-4.45,4.6c-2.56,0-4.44-1.98-4.44-4.65c0-2.59,1.94-4.55,4.54-4.59
		C517.14,1044,518.92,1045.9,518.89,1048.68z"/>
	<path class="st0" d="M849.64,895.19c-2.63-0.2-4.48-2.25-4.27-4.73c0.21-2.49,2.37-4.23,4.97-4c2.61,0.23,4.48,2.29,4.3,4.75
		C854.46,893.63,852.25,895.39,849.64,895.19z"/>
	<path class="st0" d="M1130.54,779.81c2.75,0.06,4.52,1.87,4.41,4.52c-0.11,2.66-2.03,4.51-4.59,4.43c-2.67-0.09-4.41-1.92-4.38-4.6
		C1126.02,781.42,1127.77,779.74,1130.54,779.81z"/>
	<path class="st0" d="M617.69,1036.58c-2.63,0.01-4.67-1.89-4.65-4.33c0.02-2.48,2.03-4.31,4.7-4.27c2.61,0.04,4.51,2.02,4.38,4.56
		C622,1034.83,620.1,1036.57,617.69,1036.58z"/>
	<path class="st0" d="M955.55,1052.9c-2.66-0.11-4.35-2.03-4.16-4.74c0.18-2.57,2.17-4.29,4.84-4.18c2.51,0.11,4.18,1.81,4.19,4.25
		C960.43,1051.04,958.37,1053.01,955.55,1052.9z"/>
	<path class="st0" d="M986.01,786.14c-2.5-0.1-4.38-1.83-4.42-4.06c-0.04-2.53,2.39-4.68,5.09-4.48c2.28,0.16,4.14,2.15,4.14,4.41
		C990.81,784.46,988.73,786.25,986.01,786.14z"/>
	<path class="st0" d="M1112.02,640.27c-0.01,2.48-2.11,4.57-4.51,4.47c-2.37-0.1-4.15-2.01-4.05-4.32c0.11-2.4,2.32-4.34,4.78-4.21
		C1110.36,636.32,1112.02,638.11,1112.02,640.27z"/>
	<path class="st0" d="M2157.23,769.32c-0.06,2.33-1.74,3.98-3.96,3.87c-2.25-0.1-3.9-1.85-3.83-4.06c0.07-2.18,1.85-3.65,4.26-3.52
		C2155.88,765.72,2157.28,767.2,2157.23,769.32z"/>
	<path class="st0" d="M2268.79,1025.73c-2.27,0.09-4.02-1.57-4.01-3.82c0-2.09,1.47-3.72,3.48-3.89c2.22-0.19,4.12,1.41,4.28,3.59
		C2272.71,1023.8,2271.04,1025.64,2268.79,1025.73z"/>
	<path class="st0" d="M2008.87,945.61c2.01,0,3.64,1.83,3.73,4.18c0.09,2.36-1.53,4.1-3.72,3.98c-2.01-0.11-3.42-1.66-3.48-3.81
		C2005.33,947.58,2006.9,945.61,2008.87,945.61z"/>
	<path class="st0" d="M2160.1,859.37c2.26-0.1,4.08,1.51,4.13,3.66c0.05,2.17-1.71,4.08-3.75,4.09c-1.91,0.01-3.8-1.95-3.92-4.07
		C2156.44,861.11,2158.02,859.47,2160.1,859.37z"/>
	<path class="st0" d="M2149.69,870.95c-0.07,2.04-1.74,3.51-3.8,3.35c-1.99-0.16-3.51-1.81-3.5-3.79c0.01-2.28,1.84-4.18,3.81-3.96
		C2148.21,866.77,2149.77,868.74,2149.69,870.95z"/>
	<path class="st0" d="M1952.05,989.46c-2.04,0.12-3.96-1.71-3.97-3.81c-0.01-1.88,1.65-3.58,3.59-3.67
		c1.88-0.09,3.55,1.54,3.65,3.56C1955.42,987.53,1953.91,989.35,1952.05,989.46z"/>
	<path class="st0" d="M1832.54,1043.84c-0.13,0.36-0.31,1.14-0.67,1.81c-0.57,1.05-1.79,1.5-2.83,1.18
		c-1.01-0.31-1.57-1.05-1.72-2.05c-0.09-0.61-0.1-1.27,0.01-1.87c0.29-1.61,1.56-2.69,2.9-2.57
		C1831.6,1040.46,1832.58,1041.78,1832.54,1043.84z"/>
</g>
</svg>
