<?xml version="1.0" encoding="utf-8"?>
<!-- Generator: Adobe Illustrator 23.0.2, SVG Export Plug-In . SVG Version: 6.00 Build 0)  -->
<svg version="1.1" id="son_xA0_Image_1_" xmlns="http://www.w3.org/2000/svg" xmlns:xlink="http://www.w3.org/1999/xlink" x="0px"
	 y="0px" viewBox="0 0 3169.68 2264.4" style="enable-background:new 0 0 3169.68 2264.4;" xml:space="preserve">
<style type="text/css">
	.st0{fill:#FFFFFF;}
</style>
<g>
	<path d="M2368.97,1424.14c-0.12-7.04-0.19-14.08-0.4-21.11c-0.12-4.26,0.3-8.28,2.98-11.83c2.43-3.22,3.03-6.94,2.82-10.9
		c-0.31-6.07-0.28-12.16-0.72-18.22c-0.33-4.6,0.06-8.91,2.54-12.93c1.63-2.64,1.8-5.53,0.34-8.25c-2.83-5.27-3.55-10.87-3.27-16.73
		c0.12-2.55,0.03-5.12-0.05-7.68c-0.14-4.21,0.32-8.3,2.08-12.19c0.39-0.87,0.68-1.8,0.96-2.71c0.66-2.21,0.66-4.43-0.17-6.59
		c-0.57-1.49-1.25-2.94-1.91-4.4c-1.08-2.38-1.43-4.88-1.43-7.48c0-9.28,0.04-18.55-0.12-27.83c-0.09-5.24,0.43-10.22,3.81-14.52
		c0.58-0.74,0.99-1.65,1.36-2.53c0.92-2.16,0.98-4.38-0.04-6.51c-0.69-1.43-1.54-2.81-2.45-4.11c-2.31-3.27-3.14-6.89-3.08-10.86
		c0.11-8,0.08-16,0.03-23.99c-0.03-3.84-0.08-7.69-0.4-11.51c-0.33-3.93-0.12-7.67,2.01-11.11c0.33-0.54,0.58-1.14,0.87-1.71
		c1.56-3.09,1.4-6.16-0.08-9.23c-0.7-1.44-1.41-2.88-1.96-4.38c-2.36-6.36-2.54-12.59,1.8-18.22c3.88-5.04,3.84-9.93,0.1-14.94
		c-0.57-0.77-1.08-1.59-1.6-2.39c-2.29-3.52-2.68-7.12-0.45-10.83c0.5-0.82,0.95-1.67,1.41-2.51c1.66-3.07,1.5-6.14-0.1-9.17
		c-0.75-1.41-1.6-2.78-2.27-4.23c-1.31-2.86-1.03-5.68,0.85-8.16c1.34-1.77,3.05-3.26,4.51-4.95c1.03-1.2,2.02-2.47,2.85-3.81
		c1.15-1.86,0.61-4.83-1.07-6.12c-1.77-1.36-3.66-2.55-5.43-3.9c-1.08-0.81-1.64-3.2-1.03-4.43c0.86-1.7,1.79-3.38,2.82-4.98
		c2.18-3.41,1.8-6.66-0.44-9.83c-0.92-1.31-1.93-2.55-2.87-3.84c-2.11-2.87-2.69-6.16-0.45-8.91c4.1-5.02,4.27-9.71,0.18-14.68
		c-0.59-0.72-0.97-1.66-1.3-2.55c-0.71-1.86-0.71-3.78,0.1-5.61c0.51-1.16,1.12-2.32,1.89-3.32c3.1-4.04,4.14-8.58,3.5-13.56
		c-0.58-4.47-0.64-8.92-0.04-13.4c0.57-4.3-0.37-8.26-2.86-11.84c-0.55-0.79-1.04-1.61-1.54-2.43c-2.17-3.53-2.78-7.28-0.53-10.89
		c3.24-5.2,3.09-10.2,0.12-15.38c-1.46-2.55-1.85-5.42-1.87-8.34c-0.04-5.76-0.09-11.51-0.2-17.27c-0.07-3.83,1.15-6.89,4.74-8.7
		c0.85-0.43,1.69-0.93,2.47-1.48c2.27-1.61,2.89-4.04,1.76-6.79c-0.36-0.89-0.75-1.78-1.23-2.6c-2.03-3.44-2.41-7.2-2.36-11.11
		c0.09-7.04,0.1-14.08,0.01-21.12c-0.06-4.79-0.26-9.59-0.58-14.38c-0.26-3.92-0.03-7.74,2.15-11.1c3.32-5.11,3.88-10.69,3.43-16.58
		c-0.24-3.18-0.31-6.42,0.06-9.58c0.89-7.53-1.53-13.85-6.35-19.45c-0.83-0.97-1.69-1.93-2.42-2.98c-2.01-2.85-2.72-6.13-0.67-8.98
		c3.62-5.03,4.57-10.37,3.58-16.35c-0.41-2.5-0.27-5.11-0.29-7.66c-0.2-21.76-0.4-43.52-0.55-65.27c-0.02-3.51,0.15-7.04,0.38-10.55
		c0.26-3.98-0.57-7.6-2.84-10.92c-1.08-1.58-2.09-3.22-2.97-4.93c-1.41-2.75-1.66-5.87,0.14-8.26c3.99-5.29,5.66-11.36,7-17.62
		c0.2-0.93,0.67-1.8,0.95-2.71c0.49-1.62,0.28-3.2-0.61-4.61c-1.19-1.89-2.58-3.66-3.76-5.56c-2.07-3.36-3.3-6.99-2.48-10.97
		c0.8-3.86,0.6-7.6-0.51-11.37c-0.85-2.88-0.46-5.69,1.14-8.31c0.83-1.36,1.64-2.75,2.31-4.2c0.99-2.15,0.9-4.41-0.03-6.53
		c-0.76-1.75-1.77-3.4-2.76-5.04c-2.92-4.87-3.63-10.18-3.24-15.72c0.16-2.27,0.72-4.42,1.89-6.38c0.99-1.65,2.06-3.24,3-4.91
		c1.69-3,1.75-6.13,0.28-9.21c-0.96-2.02-2.14-3.93-3.23-5.88c-1.27-2.27-2.07-4.68-2.13-7.29c-0.11-4.8-0.33-9.6-0.22-14.39
		c0.04-1.86,0.65-3.76,1.32-5.52c0.55-1.47,1.63-2.75,2.36-4.17c0.92-1.8,0.91-3.71,0.23-5.58c-0.44-1.2-0.98-2.36-1.58-3.49
		c-3.86-7.3-3.99-14.8-0.6-22.17c3.29-7.16,4.65-14.56,4.45-22.36c-0.16-6.4-0.03-12.8-0.24-19.19c-0.14-4.06,0.6-7.6,3.94-10.28
		c2.43-1.95,3.32-4.6,3.17-7.66c-0.06-1.28-0.04-2.56-0.07-3.84c-0.05-1.98-0.61-3.77-2.05-5.22c-0.9-0.91-1.85-1.78-2.69-2.74
		c-1.3-1.49-2.08-3.28-2.1-5.24c-0.07-6.08-0.06-12.15-0.02-18.23c0.01-2.02,0.99-3.64,2.5-4.98c0.94-0.84,1.96-1.71,2.55-2.79
		c0.38-0.69,0.26-1.87-0.04-2.67c-0.32-0.85-1.03-1.61-1.74-2.23c-4.19-3.71-4.07-8.41-3.07-13.28c0.4-1.93,1.56-3.52,3-4.82
		c2.25-2.03,3.54-4.48,3.71-7.52c0.1-1.65,0.75-3.12,1.92-4.28c3.42-3.37,6.86-6.71,10.32-10.03c1.77-1.7,3.95-1.98,6.26-1.56
		c0.94,0.17,1.97,0.28,2.77,0.74c3.88,2.27,7.94,4,12.32,5.16c1.74,0.46,3.21,2.01,4.73,3.17c1.6,1.21,3.38,1.77,5.35,1.83
		c0.96,0.03,1.92,0.01,2.88,0.01c24.96,0.01,49.92,0,74.87,0.07c3.05,0.01,5.68-0.58,7.66-3.09c1.97-2.49,4.71-3.09,7.72-3.04
		c3.52,0.05,7.04,0.04,10.56,0.04c44.16,0.02,88.32,0.02,132.47,0.11c3.66,0.01,6.81-0.58,9.81-2.91c4.29-3.32,8.9-3.02,13.34,0.02
		c0.26,0.18,0.5,0.4,0.77,0.58c5.11,3.31,5.56,3.28,10.88-0.66c0.51-0.38,1.01-0.88,1.59-1.03c0.89-0.22,1.85-0.3,2.76-0.21
		c0.59,0.06,1.23,0.44,1.68,0.86c2.73,2.61,6,3.41,9.69,3.3c4.16-0.13,8.32-0.14,12.48,0c3.68,0.12,6.86-0.58,9.6-3.34
		c1.64-1.65,3.47-1.65,5.18-0.05c2.79,2.6,5.93,3.59,9.63,3.39c1.91-0.1,3.84-0.07,5.76-0.02c3.96,0.11,7.61-0.66,10.79-3.21
		c1.82-1.46,4.03-1.89,6.31-1.92c2.56-0.03,5.12,0,7.68-0.06c3.94-0.1,7.58,0.66,10.89,3c4.27,3.02,9.12,2.61,13.88,1.71
		c1.45-0.28,2.79-1.49,4.03-2.45c1.85-1.44,3.91-2.19,6.21-2.22c3.52-0.05,7.04,0.02,10.56,0.02c4.06-0.01,7.51,1.51,10.36,4.32
		c4.78,4.72,9.5,9.49,14.19,14.3c1.74,1.78,2.02,5.05,0.69,7.18c-1.18,1.89-2.62,3.62-3.8,5.51c-1.23,1.96,0.11,4.97,2.28,5.31
		c0.63,0.1,1.27,0.09,1.91,0.12c0.95,0.04,1.92-0.02,2.86,0.1c1.38,0.17,3.05,1.77,3.33,3.1c0.19,0.93,0.42,1.88,0.44,2.82
		c0.05,2.24-0.23,4.5-0.01,6.71c0.47,4.73-0.48,8.82-4.11,12.2c-1.98,1.85-2.31,4.49-2.29,7.11c0.05,6.4,0.14,12.8,0.15,19.2
		c0.01,6.08,0.05,12.16-0.13,18.24c-0.13,4.38,0.67,8.16,4.36,11.09c1.7,1.35,1.39,3.38-0.22,5.02c-0.45,0.45-0.98,0.83-1.47,1.24
		c-0.25,0.2-0.49,0.4-0.73,0.61c-1.28,1.13-1.91,2.59-1.85,4.25c0.11,3.2,0.39,6.38,0.55,9.58c0.09,1.91,0.26,3.85,0.05,5.74
		c-0.14,1.2-0.72,2.46-1.43,3.46c-0.72,1.02-1.83,1.77-2.79,2.61c-2.76,2.42-3.11,5.47-2.13,8.76c0.55,1.83,1.31,3.61,2.09,5.36
		c1.6,3.58,2.17,7.31,2.1,11.21c-0.54,30.39-1.03,60.78-1.52,91.18c-0.05,2.88,0.05,5.76,0.14,8.64c0.11,3.61-0.59,7-2.63,10.04
		c-0.35,0.53-0.68,1.08-1.05,1.61c-2.45,3.49-2.69,7.08-0.53,10.8c0.64,1.1,1.26,2.24,1.76,3.41c0.93,2.14,1.02,4.34,0.1,6.52
		c-0.37,0.88-0.76,1.77-1.22,2.6c-1.94,3.46-2.53,7.22-2.53,11.11c0.01,6.08-0.12,12.17,0.16,18.23c0.23,4.93-0.19,9.57-2.97,13.8
		c-0.7,1.06-1.2,2.26-1.73,3.42c-1.11,2.44-1.45,5.1-0.31,7.47c3.94,8.14,3.05,10.73-0.34,17.19c-1.25,2.38-0.89,4.99,0.18,7.44
		c0.38,0.88,0.78,1.77,1.31,2.56c2.79,4.21,3.68,8.77,2.83,13.75c-0.32,1.88-0.36,3.82-0.4,5.74c-0.44,22.71-0.84,45.43-1.31,68.14
		c-0.07,3.29,0.46,6.4,2.07,9.24c2.8,4.93,3.47,10.19,3.08,15.76c-0.24,3.5-0.1,7.03-0.03,10.55c0.07,3.26-0.4,6.37-2,9.26
		c-0.46,0.84-0.86,1.71-1.27,2.58c-1.46,3.09-1.46,6.17,0.02,9.26c0.55,1.15,1.09,2.32,1.61,3.49c1.05,2.39,1.46,4.91,1.22,7.5
		c-1.1,12.13-0.72,24.3-0.93,36.45c-0.21,11.83-0.25,23.67-0.21,35.51c0.01,3.97-0.71,7.59-3.03,10.87c-2.05,2.9-1.89,5.99-0.39,9.1
		c0.69,1.44,1.42,2.87,2,4.36c1.82,4.7,1.83,9.37-0.51,13.93c-0.58,1.14-1.2,2.26-1.83,3.38c-1.61,2.86-2.29,5.95-2.32,9.21
		c-0.03,4.16-0.01,8.32-0.07,12.48c-0.58,38.71-1.17,77.43-1.78,116.14c-0.05,3.2-0.29,6.39-0.49,9.58
		c-0.22,3.58,0.13,7.09,1.97,10.22c2.72,4.63,3.09,9.58,2.93,14.81c-0.4,12.79-0.56,25.59-0.72,38.39
		c-0.13,10.56-0.16,21.11-0.17,31.67c0,3.62-0.67,6.99-2.74,10.01c-2.26,3.31-3.18,6.95-2.68,10.93c0.51,4.01-0.71,7.48-2.81,10.89
		c-3.82,6.2-3.97,12.92-0.74,19.25c2.6,5.11,3.34,10.19,2.85,15.75c-0.51,5.74-0.64,11.5,0.2,17.24c0.43,2.93-0.22,5.73-1.55,8.37
		c-0.43,0.86-0.87,1.71-1.34,2.55c-1.92,3.44-2.66,7.15-2.69,11.06c-0.12,13.12-0.38,26.23-0.41,39.35
		c-0.01,4.57-0.41,8.91-2.9,12.89c-2.1,3.36-2.64,7.08-2.6,11.03c0.09,8.63-0.08,17.27-0.16,25.91c-0.09,8.32-0.37,16.64-0.25,24.95
		c0.07,4.9-0.25,9.55-2.94,13.83c-1.46,2.33-1.56,4.98-0.27,7.35c2.72,5.02,2.88,10.32,2.67,15.84
		c-0.38,10.23-0.38,20.47-0.55,30.71c-0.05,3.2,0,6.41-0.27,9.59c-0.39,4.56,0.02,8.91,2.14,13.06c1.55,3.04,1.49,6.22-0.14,9.23
		c-1.72,3.17-2.68,6.48-2.5,10.1c0.17,3.31-0.78,6.3-2.62,9.06c-0.71,1.06-1.33,2.19-1.86,3.35c-0.99,2.13-1.02,4.35-0.16,6.53
		c0.46,1.18,1.03,2.36,1.74,3.41c2.26,3.34,2.8,7.02,2.69,10.97c-0.31,10.55-0.45,21.11-0.67,31.67
		c-0.14,6.72-0.23,13.44-0.47,20.15c-0.13,3.58,0.16,7.05,1.83,10.27c1.92,3.69,2.02,7.29-0.11,10.96
		c-1.91,3.28-1.86,6.69-0.37,10.15c0.5,1.17,0.95,2.38,1.31,3.6c0.46,1.58,0.36,3.17-0.23,4.7c-0.34,0.89-0.71,1.8-1.22,2.6
		c-2.26,3.65-2.24,7.35,0.08,10.85c2.82,4.25,3.33,8.81,3.02,13.76c-0.34,5.42-0.25,10.87-0.23,16.31c0.01,3.26-0.35,6.36-2.15,9.19
		c-1.66,2.59-2.01,5.38-0.77,8.24c1.4,3.23,0.92,6.22-0.91,9.12c-1.41,2.24-1.73,4.77-1.76,7.37c-0.08,6.72-0.18,13.44-0.29,20.15
		c-0.05,2.94,0.44,5.75,1.89,8.32c2.09,3.7,1.67,7.33-0.05,11.02c-1.49,3.19-2.83,6.45-4.23,9.67c-1.34,3.08-1.65,6.24-0.12,9.29
		c2.41,4.8,2.45,9.8,2.03,14.99c-0.39,4.78-0.32,9.59-0.47,14.39c-0.11,3.26,0.35,6.43,1.99,9.27c2.69,4.66,3.24,9.53,2.46,14.81
		c-0.46,3.12-0.06,6.38,0.06,9.57c0.14,3.65-0.8,6.97-2.89,9.95c-2.94,4.19-5.69,8.56-10.14,11.39c-3.58,2.27-6.45,5.18-8.66,8.81
		c-1.05,1.73-2.82,2.74-4.82,2.71c-4.25-0.05-8.19,0.83-11.99,2.78c-1.35,0.69-3.09,0.79-4.67,0.85c-3.2,0.12-6.4,0.07-9.6,0.03
		c-2.65-0.03-5-0.89-7.05-2.6c-1.71-1.43-3.4-2.9-5.25-4.15c-1.4-0.94-3.05-0.81-4.6-0.17c-0.58,0.24-1.21,0.53-1.64,0.96
		c-3.96,4.05-7.72,3.44-11.73-0.09c-2.2-1.94-4.77-1.42-7.05,0.29c-0.51,0.38-1,0.8-1.5,1.2c-3.26,2.6-6.21,2.22-8.47-2.11
		c-0.59-1.12-1.29-2.19-2.05-3.21c-1.04-1.4-3.8-1.67-5.23-0.49c-0.97,0.8-2.03,1.63-2.68,2.68c-1.33,2.18-2.5,4.46-3.57,6.78
		c-1.22,2.65-3.32,3.81-6.08,3.92c-5.11,0.19-10.23,0.37-15.34,0.44c-5.44,0.08-10.88-0.01-16.32,0.04
		c-3.87,0.03-7.67-0.17-11.27-1.8c-1.51-0.68-3.13-0.77-4.66-0.1c-6.13,2.67-12.58,1.92-18.94,1.68c-1.83-0.07-3.73-0.88-5.42-1.7
		c-2.59-1.25-5.06-2.75-7.51-4.26c-3.61-2.23-7.11-2.68-10.67,0.12c-0.99,0.78-2.14,1.41-3.31,1.9c-1.9,0.8-3.84,0.6-5.44-0.68
		c-1.98-1.59-3.7-3.52-5.72-5.05c-1.32-1-3.09-1.06-4.53-0.12c-1.59,1.04-3.04,2.31-4.48,3.57c-2.02,1.76-4.32,2.71-6.99,2.72
		c-8.96,0.02-17.92,0.1-26.87-0.04c-1.84-0.03-3.71-0.8-5.48-1.47c-1.17-0.44-2.17-1.34-3.28-1.97c-2.09-1.17-4.44-1.64-6.34-0.09
		c-4.03,3.29-8.52,3.9-13.51,3.53c-4.13-0.31-8.31-0.05-12.47,0.05c-3.29,0.08-6.35-0.47-9.11-2.39c-1.04-0.73-2.19-1.35-3.36-1.82
		c-1.55-0.63-3.13-0.53-4.57,0.41c-0.53,0.35-1.04,0.75-1.52,1.17c-2.78,2.4-4.93,2.43-7.47-0.26c-1.09-1.16-2.19-2.35-3.43-3.32
		c-1.04-0.81-2.42-1.02-3.64-0.48c-1.45,0.64-2.77,1.58-4.16,2.35c-1.8,1-3.64,1.14-5.46,0.04c-1.09-0.66-2.1-1.48-3.23-2.07
		c-1.5-0.79-3.1-0.81-4.55,0.14c-1.06,0.7-2.1,1.48-2.98,2.39c-2.88,3-6.45,3.99-10.46,3.85c-1.6-0.05-3.2-0.01-4.8-0.08
		c-2.97-0.12-5.76-0.94-7.9-3.02c-4.8-4.65-11.36-5.67-17.06-8.47c-0.76-0.38-1.93-0.22-2.82,0.02c-1.22,0.32-2.42,0.85-3.52,1.48
		c-3.47,1.98-7.18,2.48-11.11,2.33c-3.51-0.14-7.04-0.09-10.56,0.03c-4.33,0.16-8.2-0.7-11.47-3.82c-1.36-1.3-3.05-2.37-4.77-3.15
		c-3.66-1.66-6.1-4.6-8.57-7.53c-1.72-2.04-2.45-4.47-2.37-7.12c0.04-1.28,0.16-2.55,0.25-3.83c0.25-3.32-0.67-6.21-2.52-9.03
		c-4.24-6.43-3.65-13.33-1.36-20.26c0.4-1.2,1.19-2.26,1.8-3.39c1.08-2.02,1.6-4.19,1.62-6.46c0.04-3.52-0.01-7.04-0.04-10.56
		c-0.02-2.28-0.52-4.44-1.73-6.4c-0.67-1.09-1.36-2.17-1.99-3.28c-1.69-2.93-2.15-6.11-1.03-9.26c3.02-8.51,2.83-8.47-0.31-17.36
		c-1.64-4.65-1-9.49,0.58-14.14c0.41-1.2,1.07-2.33,1.74-3.41c1.94-3.15,2.25-6.56,2.06-10.16c-0.26-5.11-0.33-10.23-0.44-15.35
		c-0.06-2.95,0.64-5.71,2.29-8.19c0.53-0.8,1.03-1.62,1.53-2.44c1.2-1.98,1.65-4.15,1.56-6.43c-0.14-3.51-0.39-7.03-0.42-10.54
		c-0.03-3.32-0.94-6.28-2.84-8.99c-0.91-1.3-1.75-2.69-2.45-4.11c-1.39-2.82-0.18-6.9,2.51-8.45c1.38-0.79,2.95-1.25,4.31-2.06
		c1.63-0.97,3.35-1.94,4.66-3.28c2.69-2.75,3.81-6.27,1.73-9.65c-3.22-5.24-3.53-10.84-3.3-16.65c0.1-2.56,0-5.13,0.17-7.68
		c0.32-4.95-0.63-9.54-3.46-13.69c-2.25-3.3-3.26-6.97-2.81-10.92c0.25-2.2,0.82-4.39,1.53-6.49c0.5-1.5,1.47-2.83,2.21-4.25
		c3.36-6.49,2.81-12.96-0.19-19.39c-0.4-0.86-0.98-1.65-1.46-2.48c-3.89-6.71-3.78-13.36,0.29-19.96c0.5-0.82,1.07-1.6,1.53-2.44
		c2.03-3.71,1.82-7.36-0.44-10.9c-1.03-1.62-2.21-3.14-3.17-4.8c-0.98-1.71-1.24-3.63-0.9-5.57c0.28-1.63,1.04-3.05,2.6-3.79
		c1.44-0.68,3-1.1,4.42-1.81c1.97-0.99,3-3.84,2.08-5.79c-0.67-1.43-1.48-2.83-2.43-4.09c-1.74-2.29-3.76-4.37-5.42-6.71
		c-2.52-3.55-2.24-8.2,0.58-11.57c1.64-1.96,3.51-3.73,5.16-5.68c2.26-2.67,2.86-5.66,1.3-8.91c-0.42-0.86-0.85-1.72-1.34-2.55
		c-1.49-2.56-2.09-5.33-2.12-8.27c-0.11-12.8-0.22-25.6-0.38-38.4c-0.04-3.59,0.42-7.05,2.45-10.1c2.8-4.23,3.26-8.8,2.87-13.77
		c-0.52-6.69-0.45-13.42-0.64-20.13C2368.86,1424.14,2368.91,1424.14,2368.97,1424.14z M2474.31,1586.28
		c-0.28-3.91-3.95-5.79-6.45-4.19c-0.53,0.34-1.11,0.63-1.56,1.06c-2.96,2.89-5.33,6.24-7.28,9.87c-0.29,0.54-0.37,1.2-0.52,1.81
		c-0.62,2.43,1.73,5.24,4.3,4.97c1.21-0.13,2.55-0.47,3.53-1.14c3.48-2.38,5.9-5.69,7.47-9.58
		C2474.25,1587.95,2474.25,1586.63,2474.31,1586.28z M2403.25,1851.3c0.01-3.15-1.09-5.99-3.72-8.11c-1.56-1.26-3.4-1.67-5.29-0.83
		c-3.1,1.38-5.13,4.86-4.84,8.46c0.28,3.44,2.19,5.81,5.4,7.05c1.54,0.6,3.12,0.44,4.56-0.32
		C2401.78,1856.28,2402.98,1854.16,2403.25,1851.3z M2653.44,452.89c3.2,0,4.78,0.07,6.3-1.45c2.95-2.94,6.69-3.26,10.36-4.1
		c0.85-0.19,1.59-0.93,2.33-1.48c0.61-0.46,0.67-2.05,0.12-2.59c-0.44-0.44-0.81-1.03-1.34-1.29c-3.34-1.67-6.37-1.5-8.57,1.19
		c-2.22,2.73-4.79,3.86-8.16,3.83c-0.89-0.01-1.94,0.32-2.65,0.86c-0.69,0.53-1.38,1.5-1.43,2.31c-0.04,0.75,0.64,1.67,1.25,2.28
		C2652.01,452.84,2652.83,452.77,2653.44,452.89z M2458.52,857.71c0.26-4.44-3.06-8.85-7.31-9.71c-1.81-0.37-3.93,1.04-4.28,2.85
		c-0.86,4.4,1.87,9.12,6.08,10.49C2455.51,862.15,2458.37,860.27,2458.52,857.71z M2684,441.09c1.36-0.12,2.42-1.16,2.44-2.39
		c0.03-1.74-1.33-3.19-2.83-3.01c-1.68,0.2-2.75,1.73-2.35,3.35C2681.59,440.36,2682.71,441.2,2684,441.09z"/>
	<path d="M2105.92,931.49c-3.75,9.47-3.75,9.47-3.61,19.91c0.03,1.92-0.07,3.86,0.16,5.75c0.48,4.03-0.28,7.62-3.07,10.7
		c-0.63,0.69-1.04,1.61-1.45,2.47c-0.71,1.51-0.76,3.1-0.24,4.67c0.3,0.9,0.65,1.85,1.22,2.59c2.58,3.35,2.27,6.31-0.65,9.38
		c-1.74,1.83-1.73,4.48,0.04,6.12c3.98,3.69,4.23,8.11,4.14,13.11c-0.3,16.63-0.18,33.27-0.28,49.91c-0.02,2.96,0.34,5.8,2.21,8.16
		c2.77,3.49,3.5,7.43,3.1,11.73c-0.15,1.59-0.23,3.22-0.04,4.79c0.48,4.01-0.38,7.55-2.83,10.82c-1.47,1.96-1.16,4.23,0.05,6.33
		c0.16,0.28,0.33,0.55,0.54,0.79c2.17,2.64,2.41,5.69,2.38,9.01c-0.16,16.31-0.25,32.63-0.05,48.94c0.05,4.01-0.04,7.55-3.13,10.56
		c-1.5,1.46-1.38,3.47-0.2,5.3c1.03,1.6,2.46,3.1,2.95,4.85c1.06,3.79,1.09,7.59-1.84,10.84c-2.51,2.78-3.13,6.21-3.09,9.83
		c0.04,3.2,0.07,6.4,0.06,9.6c-0.01,29.43-0.02,58.87-0.04,88.3c0,1.6-0.02,3.2,0,4.8c0.03,2.29,0.49,4.5,2.02,6.27
		c2.7,3.13,3.24,6.8,3.22,10.75c-0.07,16.96-0.05,33.91-0.06,50.87c0,0.96-0.02,1.92-0.03,2.88c-0.01,2.32-0.65,4.41-2.25,6.15
		c-2.04,2.23-3.14,4.83-2.84,7.87c0.36,3.73-0.89,6.71-3.26,9.65c-3.2,3.97-3.18,10.18,0.07,14.2c2.4,2.96,3.31,6.05,3.3,9.7
		c-0.01,5.43,0.14,10.87,0.28,16.3c0.05,2-0.37,3.79-1.61,5.38c-0.39,0.51-0.78,1.01-1.18,1.51c-2.12,2.61-2.91,5.63-2.88,8.94
		c0.08,8.96,0.13,17.91,0.2,26.87c0.01,1.28,0.09,2.56,0.15,3.84c0.16,3.62-0.5,7.04-2.82,9.93c-1.93,2.4-2.37,5.09-2.35,8.08
		c0.11,13.12-0.02,26.24,0.22,39.35c0.08,4.31-0.21,8.22-3.15,11.66c-1.09,1.27-1.14,3.16-0.07,4.48c2.83,3.47,3.29,7.42,3.21,11.71
		c-0.19,10.55-0.05,21.12-0.18,31.67c-0.05,4.23,0.28,8.27,2.62,11.98c1.32,2.09,1.1,4.3-0.44,6.26c-1.65,2.11-2.5,4.4-2.16,7.12
		c0.38,3.03-0.48,5.69-2.64,7.89c-0.45,0.45-0.84,0.97-1.2,1.49c-1.64,2.33-1.75,4.73-0.27,7.18c0.33,0.54,0.7,1.09,1.16,1.52
		c2.82,2.66,3.24,6,3.13,9.67c-0.19,6.39-0.1,12.8-0.12,19.19c-0.02,6.72,0.06,13.44-0.07,20.16c-0.07,3.27,0.16,6.35,2,9.19
		c1.74,2.68,1.49,5.44-0.12,8.15c-0.49,0.82-0.99,1.72-1.12,2.63c-0.17,1.22-0.19,2.55,0.12,3.73c0.32,1.21,1.11,2.29,1.7,3.42
		c1.14,2.19,0.97,4.29-0.41,6.33c-0.53,0.79-1.06,1.61-1.44,2.48c-0.83,1.88-0.59,3.75,0.37,5.53c0.3,0.56,0.63,1.14,1.06,1.59
		c2.92,3.03,3.36,6.59,2.96,10.66c-0.4,4.12-0.25,8.31,0.01,12.46c0.21,3.36-0.29,6.29-2.61,8.88c-1.42,1.59-1.36,3.49-0.37,5.37
		c0.44,0.84,0.97,1.71,1.12,2.62c0.15,0.89,0.22,2.22-0.29,2.71c-3.17,3.03-3.1,6.8-2.95,10.71c0.12,3.19,0.2,6.41-0.03,9.59
		c-0.33,4.61,0.23,8.9,2.92,12.8c0.76,1.09,0.67,2.49,0.13,3.69c-1.69,3.77-2.71,7.84-5.33,11.21c-1.75,2.25-1.61,4.88-0.02,7.18
		c2.34,3.37,2.78,7.03,2.47,10.98c-0.23,2.86,0.02,5.76-0.15,8.63c-0.32,5.25,0.19,10.19,3.86,14.4c1.28,1.46,1.7,3.45,1.41,5.43
		c-0.59,4.15-0.44,8.29-0.14,12.45c0.19,2.7-0.76,4.99-2.66,6.93c-2.68,2.75-5.3,5.55-7.94,8.34c-1.13,1.19-2.45,2.14-4.08,2.34
		c-2.76,0.35-4.66,1.9-6.32,3.96c-0.8,1-1.71,1.9-2.58,2.84c-2.72,2.95-2.85,2.98-6.44,1.35c-0.29-0.13-0.53-0.37-0.81-0.5
		c-1.52-0.7-3.24-1.11-4.52,0.06c-3.14,2.86-6.82,3.15-10.76,2.98c-3.51-0.15-7.04-0.05-10.56-0.03c-3.28,0.02-6.39-0.41-8.87-2.88
		c-0.45-0.45-0.99-0.83-1.55-1.13c-3.02-1.65-6.09-1.81-9.17-0.19c-1.13,0.59-2.15,1.39-3.26,2.01c-1.49,0.84-3.07,0.87-4.59,0.11
		c-1.14-0.57-2.19-1.31-3.31-1.94c-3.04-1.72-6.21-1.98-9.02,0.21c-4.5,3.51-6.6,3.5-10.11-1.6c-0.72-1.05-1.54-2.04-2.37-3.01
		c-0.98-1.14-3.21-1.23-4.3-0.05c-2.82,3.04-5.69,6.06-8.28,9.29c-2.13,2.65-4.48,3.38-7.54,1.94c-1.83-0.86-3.71-1.06-5.5,0.04
		c-2.57,1.57-5.37,1.87-8.3,1.84c-6.08-0.07-12.16-0.05-18.24-0.03c-3.28,0.01-6.35-0.54-8.97-2.73c-2.22-1.87-4.71-2.18-7.02-0.37
		c-5.37,4.22-11.45,3.2-17.49,2.67c-0.31-0.03-0.65-0.11-0.92-0.27c-4.16-2.46-8.53-4.24-13.45-4.52c-0.82-0.05-1.68-0.88-2.38-1.52
		c-2.3-2.08-4.56-1.79-6.95-0.16c-1.05,0.71-2.21,1.37-3.42,1.69c-3.87,1.05-7.6,1.03-10.76-1.99c-0.69-0.66-1.46-1.25-2.26-1.76
		c-1.91-1.22-4.93-1.42-6.25,0.21c-3.25,4.01-7.47,4.28-12.08,4.2c-8-0.15-16-0.08-23.99-0.04c-3.58,0.02-7-0.4-10.11-2.4
		c-2.4-1.55-4.86-1.38-7.17,0.31c-2.46,1.81-5.27,2.13-8.2,2.11c-6.72-0.04-13.44-0.09-20.16-0.02c-3.33,0.04-6.28-0.66-8.77-3.06
		c-1.32-1.27-2.92-0.99-4.36,0.02c-0.52,0.37-0.97,0.84-1.5,1.19c-3.23,2.13-5.05,2.18-7.85,0.13c-1.03-0.75-1.9-1.73-2.95-2.43
		c-2.06-1.37-4.24-1.35-6.31-0.03c-1.07,0.68-1.95,1.65-2.97,2.41c-1.52,1.13-2.65,1.03-4.3-0.35c-0.49-0.41-0.84-0.97-1.33-1.38
		c-2.88-2.41-4.64-2.43-7.62-0.11c-0.5,0.39-0.93,0.87-1.38,1.33c-1.41,1.46-3.17,2.15-5.16,2.19c-3.52,0.06-7.04,0.02-10.55,0.08
		c-3.64,0.06-6.89-0.78-9.76-3.24c-1.14-0.98-2.8-1.69-4.3-1.87c-3.24-0.39-6.21-1.37-9.09-2.82c-1.79-0.9-3.8-1.02-5.54,0.02
		c-4.04,2.42-8.39,2.79-12.95,2.64c-4.47-0.15-8.96-0.01-13.44-0.01c-2.63,0-5.07-0.58-7.11-2.37c-1.46-1.28-3.06-2.34-4.98-2.77
		c-3.7-0.82-6.04-3.45-8.25-6.21c-1.22-1.53-1.98-3.29-2.04-5.28c-0.03-0.96,0-1.92,0.08-2.88c0.25-2.7-0.6-4.89-2.36-7.01
		c-3.97-4.78-3.66-10.3-0.76-15.19c2.43-4.1,3.32-8.12,3.22-12.72c-0.08-3.93-0.32-7.57-3.1-10.75c-2.07-2.36-2.04-5.27-0.74-8.12
		c0.13-0.29,0.27-0.58,0.45-0.85c1.93-2.97,2.12-5.92,0.03-8.93c-1.53-2.2-1.81-4.73-1.68-7.34c0.13-2.61,0.58-5.1,2.38-7.13
		c2.28-2.58,2.75-5.64,2.63-8.95c-0.14-3.83-0.12-7.68-0.14-11.51c-0.01-2.31,0.52-4.46,2.33-6.07c2.07-1.85,2.79-4.19,2.74-6.88
		c-0.04-2.24-0.04-4.48,0.06-6.71c0.15-3.36-0.63-6.31-3.2-8.69c-0.68-0.63-1.17-1.51-1.63-2.35c-1.17-2.1-0.04-5.75,2.08-6.7
		c0.87-0.39,1.78-0.72,2.71-0.9c3.37-0.67,5.57-3,7.7-5.38c0.91-1.01,1.19-2.53,0.45-3.59c-3.51-5.07-3.8-10.71-3.35-16.54
		c0.07-0.96,0.01-1.92,0.11-2.88c0.36-3.65-0.42-6.92-2.61-9.95c-3.85-5.34-3.48-10.81,0.19-16.03c2.15-3.07,2.86-6.32,2.53-9.97
		c-0.24-2.67-1.43-4.78-2.97-6.92c-3.59-4.98-3.27-10.12,0.03-15.16c0.35-0.53,0.82-0.98,1.21-1.49c2.32-3.05,2.51-6.05-0.67-9.42
		c-0.87-0.92-1.78-1.88-2.35-2.98c-1.28-2.48-0.53-6.04,2.66-7.09c1.49-0.49,3.02-0.9,4.48-1.48c0.95-0.38,1.51-2.54,0.96-3.39
		c-0.51-0.8-0.98-1.66-1.62-2.34c-1.54-1.63-3.22-3.12-4.75-4.75c-3.1-3.31-3.02-6.72,0.24-10.15c1.54-1.62,3.24-3.09,4.82-4.67
		c1.42-1.43,1.9-3.47,0.71-5.27c-2.61-3.94-3.16-8.21-3.06-12.81c0.17-7.35,0.06-14.72,0.01-22.07c-0.03-3.94,0.61-7.64,3.23-10.78
		c1.75-2.1,2.04-4.56,2-7.2c-0.14-10.56-0.13-21.11-0.29-31.67c-0.04-2.98,0.22-5.75,2.35-8.03c2.33-2.5,3.05-5.48,2.91-8.84
		c-0.19-4.47-0.01-8.97-0.31-13.43c-0.23-3.33,0.06-6.32,2.27-9c1.84-2.24,1.76-4.72,0.22-7.12c-1.98-3.09-2.61-6.48-2.41-10.09
		c0.07-1.28,0.15-2.57,0.04-3.84c-0.38-4.57,0.2-8.89,2.57-12.95c1.21-2.06,0.99-4.31-0.24-6.4c-0.49-0.83-1.15-1.59-1.44-2.48
		c-0.49-1.49-1.03-3.06-1.04-4.6c-0.05-7.04,0.15-14.07,0.11-21.11c-0.02-3.68,0.69-6.96,3.47-9.6c0.68-0.64,1.22-1.49,1.64-2.33
		c0.58-1.18,0.68-2.48,0.1-3.7c-0.41-0.85-0.85-1.79-1.54-2.39c-2.9-2.53-3.75-5.68-3.71-9.43c0.1-8.95-0.02-17.91-0.14-26.87
		c-0.04-2.74,1.12-4.92,2.6-7.05c1.4-2.03,1.6-4.23,0.24-6.31c-4.25-6.53-3.8-12.51,1.46-18.35c1.99-2.21,1.72-4.6,0.06-7.08
		c-0.36-0.53-0.73-1.06-1.18-1.51c-3.59-3.56-3.44-7.29-0.57-11.18c0.38-0.51,0.66-1.1,0.91-1.68c0.55-1.25,0.37-2.49-0.23-3.68
		c-0.14-0.28-0.38-0.51-0.55-0.78c-3.67-5.75-3.56-6.47,1.29-11.3c1.35-1.34,2.66-2.75,3.83-4.25c1.28-1.63,0.69-3.96-1.16-4.85
		c-1.15-0.55-2.41-0.87-3.55-1.43c-1.91-0.95-2.16-2.99-0.68-4.78c4.35-5.25,4.37-5.59,0.34-10.31c-0.62-0.73-1.31-1.4-1.89-2.16
		c-1.14-1.49-1.26-3.85-0.22-5.42c0.88-1.32,1.95-2.52,2.84-3.84c0.79-1.17,0.52-2.44-0.02-3.65c-0.13-0.29-0.27-0.61-0.49-0.82
		c-3.67-3.52-3.82-7.12-0.36-10.91c2.05-2.24,2.7-5.03,2.75-7.99c0.05-2.88-0.15-5.78,0.15-8.63c0.43-4.05-0.24-7.63-3.1-10.66
		c-0.43-0.46-0.73-1.05-1.03-1.61c-0.96-1.77-1.55-3.84-0.45-5.5c3.02-4.55,3.16-8.81-0.15-13.27c-0.69-0.92-0.8-2.44-0.79-3.69
		c0.01-4.48,0.15-8.95,0.31-13.43c0.09-2.43,1.27-4.21,3.45-5.35c1.39-0.73,2.79-1.49,4.05-2.41c0.4-0.29,0.64-1.21,0.51-1.73
		c-0.3-1.21-0.72-2.45-1.36-3.51c-1.36-2.27-1.9-4.64-1.87-7.3c0.12-8.32,0.11-16.63,0.07-24.95c-0.02-3.29,0.45-6.38,2.66-8.97
		c1.98-2.33,2.51-5.08,2.5-8.05c-0.01-3.52,0.03-7.04,0.19-10.55c0.15-3.43-1.1-6.25-3.38-8.68c-1.32-1.39-2.77-2.66-4.09-4.05
		c-2.03-2.13-2.17-4.16-0.51-6.96c0.49-0.82,1.1-1.57,1.64-2.36c1.12-1.65,1.45-3.52,1.44-5.47c-0.11-15.67-0.23-31.35-0.3-47.02
		c-0.02-4.15,0.07-8.32,0.3-12.46c0.15-2.72-0.4-5.06-2.38-7c-0.46-0.45-0.92-0.9-1.31-1.4c-2.48-3.22-2.59-5.65-0.35-8.7
		c0.56-0.77,1.27-1.44,1.87-2.19c2.49-3.07,3.23-6.18,0.35-9.48c-0.89-1.02-1.12-2.25-0.4-3.53c0.82-1.45,1.16-2.9,0.46-4.55
		c-0.62-1.46-1.5-3.03-1.43-4.51c0.2-4.16,0.11-8.27-0.49-12.39c-0.12-0.86,0.35-1.87,0.76-2.71c0.41-0.85,1.06-1.59,1.64-2.36
		c1.53-2.03,1.64-4.1,0.16-6.19c-0.92-1.3-2.03-2.49-2.85-3.85c-2.51-4.21-2.41-8.56-0.13-12.79c1.05-1.95,2.59-3.63,3.74-5.53
		c0.68-1.14,0.55-2.49-0.04-3.69c-0.42-0.85-0.88-1.76-1.55-2.4c-2.76-2.62-3.79-5.82-3.56-9.54c0.1-1.59,0.03-3.2,0.01-4.8
		c-0.04-2.97,0.59-5.7,2.6-8.02c1.7-1.96,1.96-4.03,0-5.94c-1.97-1.92-2.77-4.21-2.76-6.9c0.01-1.6-0.12-3.2-0.17-4.79
		c-0.11-3.32,0.55-6.28,3.26-8.61c2.07-1.78,2.65-4.31,2.52-6.98c-0.14-2.87-0.4-5.74-0.48-8.62c-0.07-2.32,0.65-4.41,2.31-6.11
		c0.67-0.68,1.31-1.4,1.96-2.11c1.58-1.75,2.23-3.86,2.29-6.16c0.06-2.24,0.03-4.48,0.04-6.72c0.03-11.2-0.02-22.39,0.15-33.59
		c0.05-3.36-0.38-6.35-2.88-8.79c-0.45-0.44-0.81-0.99-1.14-1.54c-1.11-1.81-1.12-3.61,0.13-5.36c0.55-0.78,1.17-1.52,1.68-2.33
		c0.76-1.2,0.69-2.53-0.09-3.6c-1.12-1.54-2.62-2.82-3.69-4.39c-1.14-1.68-1.21-3.63-0.26-5.47c0.43-0.84,0.98-1.67,1.65-2.34
		c2.31-2.36,3.64-5.22,4.53-8.34c0.26-0.92,0.63-1.82,1.07-2.66c0.94-1.8,2.43-3,4.46-3.26c1.9-0.24,3.82-0.29,5.74-0.35
		c2.66-0.08,5.01-0.92,7.02-2.68c0.24-0.21,0.5-0.4,0.72-0.63c4.57-4.84,7.93-4.48,11.8,0.49c1.72,2.21,4.08,2.83,6.73,3.08
		c4.35,0.42,8.25-0.42,11.62-3.35c1.7-1.48,3.63-2.65,5.87-3.14c2.88-0.62,5.35-2.04,7.7-3.75c2.69-1.95,5.76-2.68,9.06-2.58
		c2.24,0.07,4.48,0.12,6.72,0.1c3.3-0.03,6.38-0.83,8.79-3.21c2.98-2.94,6.57-3.69,10.59-3.38c2.23,0.17,4.48,0.1,6.72,0.07
		c2.71-0.03,5.03,0.8,6.8,2.91c2.49,2.97,5.85,3.73,9.49,3.68c4.48-0.06,8.96-0.14,13.43-0.29c2.4-0.08,4.36,0.68,5.95,2.5
		c0.63,0.71,1.34,1.39,2.12,1.93c1.41,0.98,2.99,0.99,4.58,0.46c0.6-0.2,1.23-0.46,1.71-0.84c3.65-2.89,7.77-4.27,12.45-4.25
		c2.65,0.01,4.98-1.2,6.95-2.92c3.12-2.71,6.76-3.27,10.73-3.21c9.6,0.14,19.2,0.03,28.79,0.2c3.36,0.06,6.16-0.53,8.67-3.04
		c2.16-2.15,4.51-2.08,6.99-0.62c0.27,0.16,0.55,0.34,0.78,0.56c3.65,3.58,7.15,3.44,10.9-0.02c2.42-2.23,5.38-2.05,7.94-0.14
		c2.97,2.21,6.18,3.18,9.84,3.14c2.98-0.04,5.67,0.96,7.92,2.95c3.34,2.95,7.33,3.64,11.61,3.63c23.68-0.05,47.35-0.08,71.03-0.03
		c4.65,0.01,8.82-0.86,12.44-4.03c1.6-1.4,3.57-1.15,5.31,0.11c0.77,0.56,1.48,1.22,2.23,1.81c2.7,2.12,5.85,2.37,9.11,2.14
		c2.99-0.21,5.58-1.2,7.55-3.62c0.58-0.72,1.42-1.3,2.26-1.72c0.5-0.25,1.26-0.19,1.83-0.01c0.58,0.18,1.17,0.57,1.57,1.03
		c1.43,1.68,2.43,3.86,4.98,4.18c3.19,0.39,6.42,0.7,9.47-0.55c1.44-0.59,2.79-1.59,3.92-2.68c3.6-3.49,7.96-3.79,12.53-3.16
		c1.23,0.17,2.64,0.54,3.53,1.32c2.96,2.6,6.29,4.3,10.08,5.3c2.3,0.6,3.82,2.24,4.57,4.54c0.3,0.91,0.63,1.81,0.99,2.7
		c0.89,2.2,2.52,3.65,4.69,4.53c0.3,0.12,0.59,0.26,0.9,0.34c4.06,1.04,6.71,3.5,7.8,7.62c0.86,3.22,3.02,5.56,5.47,7.7
		c1.79,1.56,2.54,3.64,2.55,5.99c0,9.6,0,19.19-0.02,28.79c0,2.38-0.92,4.33-2.81,5.82c-1.5,1.19-3.02,2.36-4.41,3.68
		c-1.9,1.8-2,5.09-0.25,6.96c1.31,1.39,2.8,2.62,4.12,4c1.35,1.42,1.49,3.86,0.3,5.3c-1.22,1.47-2.55,2.85-3.85,4.26
		c-1.37,1.48-2.06,3.22-2.02,5.22c0.04,1.6,0.16,3.19,0.29,4.79c0.38,4.55-0.06,8.86-2.53,12.93c-2.14,3.54-1.87,7.35,0.1,10.99
		c0.61,1.13,1.31,2.2,1.89,3.34c0.92,1.84,1.02,3.68-0.28,5.41c-0.38,0.51-0.79,1.01-1.23,1.48c-1.88,1.97-2.54,4.39-2.55,7.03
		c-0.02,5.76-0.04,11.52-0.02,17.28c0,1.6,0.13,3.2,0.19,4.79c0.1,2.65-0.38,5.09-2.37,7.04c-0.45,0.45-0.85,0.95-1.24,1.46
		c-1.94,2.54-2.45,5.1-0.33,7.87C2104.61,928.94,2105.27,930.38,2105.92,931.49z M1675.45,1860.92c-0.56-2.25-1.6-4.53-4.15-5.64
		c-0.81-0.35-1.88-0.46-2.74-0.27c-2.67,0.6-4.52,2.37-5.28,4.93c-0.33,1.1-0.08,2.51,0.32,3.65c0.53,1.53,1.81,2.55,3.26,3.29
		c1.81,0.92,3.62,1.04,5.39-0.14C1674.2,1865.43,1675.38,1863.66,1675.45,1860.92z M1735.57,1669.66c0.71-0.24,2.04-0.41,3.01-1.09
		c2.87-2,5.32-4.48,7.15-7.48c0.47-0.77,0.62-1.76,0.82-2.68c0.24-1.1-0.53-2.56-1.58-3.21c-0.99-0.61-2.87-0.66-3.59,0.04
		c-2.95,2.85-5.9,5.69-8.75,8.64c-0.91,0.94-1.06,2.25-0.53,3.53C1732.64,1668.71,1733.73,1669.26,1735.57,1669.66z
		 M1734.81,1132.92c0-0.15,0.07-0.49-0.01-0.78c-0.95-3.27-2.99-5.58-6.29-6.49c-0.61-0.17-1.94,0.61-2.24,1.27
		c-1.74,3.76,0.38,8.08,4.26,8.99C1732.35,1136.34,1734.69,1134.79,1734.81,1132.92z M1661.06,987.05c-0.17-0.23-0.3-0.6-0.53-0.67
		c-0.72-0.23-1.18,0.1-1.17,0.83c0,0.23,0.28,0.58,0.5,0.65C1660.61,988.06,1661.02,987.74,1661.06,987.05z M1664.89,1715.93
		l0.27,0.55l0.28-0.55L1664.89,1715.93z"/>
	<path d="M991.3,1059.48c7.45-3.36,7.45-3.36,15.75-3.34c1.6,0,3.2,0.03,4.8-0.01c3.63-0.1,6.87,0.69,9.79,3.11
		c3.01,2.49,6.47,2.43,9.88,0.58c0.84-0.46,1.63-1.01,2.48-1.45c1.51-0.78,3.23-1,4.57-0.01c4.45,3.28,8.63,3.51,13.11-0.08
		c1.89-1.52,4.1-0.76,5.89,1.33c1.24,1.45,2.39,2.99,3.63,4.44c0.67,0.78,2.69,0.71,3.57,0.04c3.37-2.56,5.54-6.17,8.25-9.31
		c1.39-1.6,3.13-2.3,5.13-1.45c2.49,1.07,4.85,1.42,7.31-0.09c1.98-1.22,4.26-1.26,6.51-1.26c4.8,0,9.6,0.08,14.4-0.01
		c4.26-0.09,8.25,0.43,11.76,3.19c1.32,1.03,3.2,1.05,4.52,0.03c4.12-3.17,8.81-3.41,13.68-3.14c2.28,0.12,4.46,0.55,6.39,1.79
		c2.2,1.43,4.56,2.28,7.2,2.34c2.38,0.05,4.13,1.56,6.02,2.73c1.19,0.74,2.47,0.66,3.67,0.16c1.17-0.5,2.22-1.3,3.39-1.79
		c3.78-1.6,7.45-1.72,10.79,1.12c0.24,0.21,0.49,0.41,0.73,0.62c3.12,2.69,5.73,2.62,8.48,0.08c0.47-0.43,0.92-0.89,1.41-1.3
		c1.28-1.06,2.76-1.61,4.41-1.61c9.28-0.01,18.56,0,27.84,0c2.63,0,5.03,0.8,7.29,2.1c2.12,1.22,4.29,1.31,6.35-0.04
		c2.52-1.65,5.24-2.18,8.21-2.13c5.44,0.09,10.88,0.1,16.32,0.01c3.61-0.06,6.97,0.41,9.89,2.81c1.41,1.16,2.99,0.7,4.39-0.32
		c0.78-0.56,1.54-1.15,2.37-1.62c1.87-1.07,3.69-0.78,5.39,0.4c0.78,0.55,1.49,1.2,2.22,1.83c2.3,2,4.99,2.35,7.77,0
		c0.72-0.61,1.54-1.18,2.4-1.55c0.52-0.22,1.31-0.21,1.83,0.02c0.86,0.38,1.6,1.01,2.38,1.55c3.51,2.43,4.19,2.6,7.53-0.19
		c2.35-1.97,4.77-3.08,7.82-2.95c2.56,0.1,5.12,0.06,7.68,0.08c2.95,0.03,5.73,0.57,8.04,2.58c1.77,1.54,3.88,2.07,6.15,2.38
		c1.56,0.21,3.28,0.51,4.55,1.34c3.42,2.25,6.48,1.8,9.86-0.12c1.58-0.89,3.67-1.16,5.54-1.21c5.43-0.16,10.88-0.08,16.32-0.05
		c0.95,0.01,2.02,0.01,2.83,0.42c4.23,2.17,8.61,4.16,12.53,6.8c3.6,2.42,5.65,6.03,4.93,10.73c-0.36,2.35,0.53,4.34,2.1,6.13
		c3.65,4.17,2.97,8.83,1.23,13.51c-0.33,0.88-0.92,1.68-1.47,2.47c-1.54,2.2-1.95,4.69-1.92,7.3c0.01,0.96,0.06,1.92,0.01,2.88
		c-0.16,3.29,0.43,6.3,2.64,8.95c2.05,2.45,2.1,5.25,0.75,8.1c-0.41,0.87-0.84,1.73-1.2,2.61c-0.64,1.56-0.56,3.11,0.17,4.63
		c0.56,1.15,1.26,2.26,1.64,3.46c1.12,3.49,1.34,7.24-0.95,10.13c-3.11,3.93-3.37,8.13-2.78,12.68c0.17,1.27,0.43,2.53,0.53,3.8
		c0.16,2.02-0.43,3.8-2.09,5.08c-1.01,0.78-2.2,1.38-3.07,2.28c-0.86,0.89-1.76,1.98-2.04,3.13c-0.54,2.22-1.18,4.27-2.97,5.84
		c-2.08,1.82-1.85,3.86-0.31,5.93c0.57,0.77,1.26,1.53,1.57,2.4c1.4,4.02,3.68,7.37,6.99,10.1c1.26,1.04,1.58,2.73,1.65,4.37
		c0.1,2.38-1.33,4.56-3.48,5.15c-1.84,0.5-3.74,0.8-5.57,1.33c-1.72,0.5-2.63,3.45-1.51,4.82c0.8,0.98,1.65,1.94,2.62,2.74
		c1.98,1.61,4.14,3.01,6.09,4.66c2.61,2.21,2.62,5.8,0.12,8.44c-0.87,0.93-1.9,1.71-2.77,2.64c-1.06,1.13-0.81,3.1,0.51,4.2
		c0.73,0.61,1.54,1.14,2.33,1.67c1.15,0.77,1.77,1.93,1.81,3.22c0.12,3.83,0.14,7.67,0.08,11.5c-0.03,1.63-0.64,3.15-1.79,4.34
		c-1.11,1.15-2.38,2.14-3.48,3.3c-2.34,2.46-2.45,5.33-0.3,7.72c1.28,1.42,2.76,2.67,4,4.12c1.8,2.1,1.72,5.95-0.04,8.02
		c-0.21,0.24-0.37,0.56-0.63,0.72c-4.75,2.92-5.69,7.3-5.11,12.47c0.32,2.85,0.08,5.75,0.13,8.63c0.05,2.87,0.45,5.76,0.17,8.59
		c-0.31,3.07-3.4,4.5-4.96,6.89c-1.18,1.81-1.36,4.53-0.13,6.36c0.89,1.32,1.86,2.61,2.92,3.79c3.36,3.71,3.44,10.35,0.27,14.22
		c-0.8,0.98-1.54,2.05-2.15,3.16c-0.66,1.2-0.52,2.51,0.14,3.66c0.47,0.82,1.2,1.49,1.77,2.25c3.59,4.81,3.66,10.16-0.49,14.77
		c-2.36,2.62-3.26,5.34-3.22,8.67c0.06,4.8,0.04,9.6,0.04,14.4c0,25.6-0.01,51.2,0.01,76.79c0.01,5.44,0.07,10.88,0.27,16.31
		c0.13,3.39-0.58,6.34-3.3,8.57c-0.24,0.2-0.42,0.47-0.61,0.73c-0.79,1.08-0.89,2.6-0.23,3.58c0.36,0.53,0.71,1.09,1.18,1.51
		c2.35,2.11,2.93,4.85,2.86,7.83c-0.07,3.52-0.17,7.04-0.16,10.56c0.05,26.24,0.09,52.47,0.21,78.71c0.02,3.62-0.15,7.04-3,9.72
		c-0.23,0.21-0.4,0.51-0.54,0.79c-0.6,1.19-0.83,2.41-0.23,3.67c0.81,1.71,1.65,3.4,2.58,5.3c-1.11,1.34-2.07,2.59-3.12,3.75
		c-1.12,1.25-1.69,2.69-1.68,4.35c0,1.28-0.1,2.59,0.15,3.83c0.96,4.67,0.13,8.78-3.02,12.52c-1.29,1.53-1.11,3.62-0.03,5.43
		c0.49,0.82,1.01,1.64,1.61,2.38c2.5,3.07,1.77,6.65,1.69,10.13c-0.07,3.18,0.32,6.47-2.3,9c-0.45,0.44-0.8,0.99-1.17,1.51
		c-0.82,1.15-0.77,2.41-0.31,3.65c0.33,0.89,0.83,1.73,1.28,2.57c0.84,1.56,0.64,3.06-0.18,4.55c-0.61,1.1-1.18,2.23-1.76,3.33
		c0.54,1.01,0.8,2.06,1.46,2.62c2.75,2.32,3.08,5.46,3.26,8.7c0.13,2.32-0.4,4.46-1.85,6.3c-0.79,1-1.71,1.91-2.5,2.91
		c-2.93,3.69-2.87,5.55,0.28,9.23c0.83,0.97,1.79,1.84,2.57,2.84c1.68,2.15,1.7,4.97,0.27,7.16c-1.55,2.39-4.52,3.92-4.89,6.96
		c-0.34,2.83-0.09,5.74-0.11,8.61c0,0.64-0.05,1.28-0.09,1.92c-0.16,2.37,0.58,4.4,2.23,6.11c0.66,0.69,1.47,1.32,1.9,2.15
		c0.72,1.39,1.3,2.88,1.73,4.38c0.26,0.9,0.13,1.91,0.13,2.86c0.01,9.6-0.04,19.2,0.04,28.8c0.03,3.36-0.66,6.31-3.24,8.66
		c-2.6,2.37-3.18,5.42-2.8,8.77c0.18,1.59,0.33,3.18,0.41,4.78c0.15,2.96-0.28,5.77-2.6,7.92c-2.55,2.36-3.26,5.38-3.25,8.7
		c0.04,7.68,0.05,15.36,0.06,23.04c0,3.2,0.21,6.43-0.14,9.59c-0.41,3.74,0.24,6.9,2.93,9.68c1.82,1.88,1.56,4.05,0,6.08
		c-0.2,0.25-0.41,0.49-0.59,0.76c-0.98,1.46-1.16,2.92,0.04,4.37c1.01,1.23,2.13,2.4,2.96,3.74c0.89,1.43,0.95,3.13,0.07,4.57
		c-1.15,1.9-2.62,3.62-3.84,5.48c-1.73,2.63-1.76,6.3-4.79,8.11c-2.61,1.56-5.67,0.73-8.44,1.39c-1.51,0.36-3,1.09-4.3,1.96
		c-1.32,0.87-2.35,2.16-3.58,3.17c-1.52,1.25-3.91,1.23-5.32,0.02c-0.72-0.62-1.45-1.26-2.04-2.01c-1.66-2.14-3.7-3.38-6.49-3.54
		c-3.26-0.19-6.44-0.21-9.13,1.98c-2.5,2.04-5.12,3.76-8.26,4.72c-1.49,0.46-2.92,1.33-4.17,2.29c-2.97,2.28-6.31,2.98-9.93,2.83
		c-0.96-0.04-1.92-0.01-2.88-0.05c-3.97-0.2-7.61,0.51-10.63,3.41c-1.95,1.88-4.47,2.38-7.12,2.29c-1.6-0.05-3.21-0.24-4.79-0.12
		c-4.02,0.29-7.58-0.39-10.41-3.64c-1.3-1.49-3.34-1.88-5.29-1.89c-4.16-0.03-8.32-0.03-12.47,0.12c-2.73,0.1-4.99-0.53-6.84-2.67
		c-2.39-2.75-4.83-2.55-7.63-0.52c-2.68,1.94-5.53,3.18-8.85,3.25c-2.63,0.06-5.1,0.71-7.15,2.38c-3.2,2.6-6.9,3.03-10.84,2.97
		c-8.32-0.12-16.64,0.03-24.96-0.17c-3.07-0.07-5.59,0.53-7.8,2.77c-1.8,1.82-4,1.8-6.14,0.43c-1.07-0.69-2.06-1.52-3.15-2.18
		c-1.48-0.89-3.09-0.87-4.57-0.07c-1.12,0.6-2.06,1.52-3.14,2.19c-1.74,1.09-3.69,1.43-5.44,0.27c-3.3-2.2-6.82-3.37-10.81-3.32
		c-2.3,0.03-4.39-0.9-6.13-2.41c-3.12-2.71-6.8-3.17-10.76-3.15c-20.48,0.1-40.96,0.09-61.43,0.13c-1.28,0-2.56-0.02-3.84,0.02
		c-2.29,0.06-4.59,0.43-6.28,2c-3.32,3.07-5.94,2.03-9.27-0.34c-4.27-3.05-9.03-2.59-13.43,0.38c-1.05,0.71-1.98,1.61-3.08,2.22
		c-0.46,0.25-1.26,0.1-1.82-0.12c-0.57-0.22-1.11-0.66-1.51-1.14c-1.48-1.79-3.16-3.12-5.63-3.21c-2.9-0.1-5.78-0.14-8.35,1.49
		c-0.54,0.34-1.03,0.76-1.54,1.14c-5.48,4.14-11.09,4.64-16.73,0.41c-2.11-1.59-4.55-2.28-6.95-3.15c-1.91-0.69-3.25-1.97-3.96-3.89
		c-0.33-0.9-0.63-1.81-1-2.7c-0.76-1.85-2.05-3.22-3.86-4.08c-0.87-0.41-1.77-0.74-2.65-1.13c-2.14-0.93-3.66-2.43-4.68-4.58
		c-0.95-2-1.88-4.15-3.33-5.76c-2.54-2.82-3.47-5.89-3.39-9.63c0.17-7.35,0.07-14.72,0-22.07c-0.03-3.38,0.64-6.34,3.61-8.41
		c0.77-0.54,1.42-1.29,2.04-2.01c1.18-1.36,1.33-4.01,0.22-5.38c-1-1.24-2.21-2.3-3.23-3.53c-1.52-1.83-1.85-4.66-0.1-6.13
		c4.23-3.56,4.93-7.97,4.09-13c-0.1-0.62-0.01-1.28-0.03-1.92c-0.08-3.01,0.76-5.63,2.99-7.8c3.56-3.47,4.41-6.6,0.17-10.62
		c-2.55-2.42-3.35-5.31-3.21-8.67c0.08-1.91-0.02-3.84-0.13-5.75c-0.13-2.34,0.42-4.42,1.89-6.27c0.6-0.75,1.11-1.56,1.59-2.39
		c1.04-1.82,0.94-3.68-0.03-5.48c-0.45-0.84-1.05-1.61-1.61-2.38c-1.37-1.89-1.89-3.98-1.87-6.31c0.16-16.31,0.24-32.63,0.45-48.94
		c0.05-3.67-0.47-7.01-3.35-9.6c-0.24-0.21-0.43-0.48-0.65-0.71c-2.13-2.2-2.88-4.87-2.86-7.88c0.06-9.92,0.07-19.84,0.06-29.75
		c0-2.69,0.66-5.1,2.78-6.87c3.26-2.72,4.04-6.3,4.01-10.32c-0.18-24-0.29-47.99-0.4-71.99c-0.01-1.26,0.07-2.6,0.51-3.75
		c0.29-0.75,1.3-1.71,2.01-1.72c1.88-0.03,3.75,0.43,5.64,0.64c1.38,0.15,2.5-0.49,3.32-1.52c0.84-1.05,0.77-3.35,0.01-4.54
		c-1.5-2.35-3.75-3.47-6.44-3.59c-2.85-0.14-5.72,0-8.57-0.07c-1.08-0.02-2.13-1.97-1.71-2.98c0.12-0.29,0.09-0.72,0.29-0.88
		c4.18-3.3,5.39-8.55,8.31-12.67c0.99-1.4,1.05-2.98,0.17-4.51c-0.32-0.55-0.66-1.09-1.01-1.63c-1.2-1.89-0.91-3.73,0.5-5.27
		c1.5-1.65,3.17-3.16,4.88-4.59c5.94-4.99,4.96-14.67,0.11-18.78c-2.91-2.47-6.48-4.78-7.45-8.55c-0.85-3.3-0.31-6.97-0.3-10.47
		c0.02-27.84,0.03-55.68,0.12-83.51c0.01-3.06-0.58-5.67-3.01-7.72c-0.71-0.6-1.23-1.46-1.75-2.26c-1.16-1.76-0.61-4.75,1.17-6.06
		c1.28-0.94,2.74-1.66,4.01-2.62c1.01-0.76,1.91-1.67,2.76-2.61c0.94-1.05,1.16-3.44,0.42-4.51c-0.72-1.05-1.54-2.03-2.37-2.99
		c-1.09-1.27-1.66-2.72-1.6-4.39c0.05-1.28,0.4-2.59,0.21-3.82c-0.83-5.41,0.39-9.98,4.46-13.92c2.09-2.02,1.83-4.7,0.1-7
		c-0.77-1.02-1.7-1.92-2.48-2.92c-2.99-3.82-3.06-5.73-0.31-9.39c0.96-1.28,2.06-2.45,2.94-3.78c1.35-2.05,1.36-4.25,0.14-6.35
		c-0.64-1.09-1.45-2.11-2.31-3.04c-2.09-2.24-2.86-4.82-2.82-7.88c0.14-9.27,0.17-18.55,0.11-27.82c-0.02-3,0.48-5.73,2.53-8.01
		c2.73-3.04,3.55-6.63,3.52-10.64c-0.07-11.2,0.04-22.39,0.08-33.59c0.01-1.65-0.46-3.14-1.42-4.48c-0.93-1.29-1.98-2.53-2.67-3.94
		c-0.37-0.76-0.34-1.93-0.05-2.76c0.42-1.17,1.24-2.21,1.92-3.28c3.23-5.16,3.16-10.23-0.42-15.19c-0.56-0.78-1.25-1.46-1.86-2.2
		c-1.69-2.07-2.62-4.5-2.31-7.12c0.68-5.74,0.59-11.49,0.43-17.24c-0.08-2.68,0.82-5,2.71-6.94c0.89-0.91,1.78-1.88,2.42-2.97
		c0.63-1.08,1.23-2.32,1.34-3.53c0.25-2.86,0.25-5.75,0.27-8.62c0.02-2.35-1.2-4.27-2.41-6.16c-0.94-1.47-1.01-3.06-0.32-4.58
		c1.46-3.19,2.58-6.54,4.73-9.4c1.73-2.3,1.7-4.79,0.13-7.16c-2.05-3.1-2.53-6.45-2.25-10.08c0.22-2.86-0.01-5.76,0.14-8.63
		c0.22-4.29-0.43-8.24-3.22-11.73c-1.44-1.81-1.69-4.08-1.58-6.38c0.12-2.55,0.44-5.16,0.1-7.66c-0.68-4.99,1.19-8.67,4.87-11.8
		c1.7-1.45,3.11-3.23,4.77-4.73c0.93-0.84,2.01-1.76,3.17-2.04c3.32-0.8,5.66-2.8,7.73-5.34c0.8-0.98,1.66-2,2.7-2.69
		c0.71-0.47,1.85-0.72,2.67-0.52C988.52,1058.18,989.95,1058.94,991.3,1059.48z M1341.96,1332.85c0.03,0,0.07,0,0.1,0
		c0-2.83,0.11-5.67-0.05-8.5c-0.07-1.2-0.49-2.49-1.1-3.52c-0.42-0.71-1.45-1.43-2.22-1.45c-0.75-0.01-1.61,0.77-2.25,1.39
		c-0.41,0.4-0.67,1.11-0.72,1.7c-0.5,6.59-0.67,13.18,0.13,19.76c0.04,0.31,0.09,0.7,0.29,0.88c0.66,0.61,1.31,1.33,2.11,1.67
		c0.92,0.39,2.75-0.72,3.02-1.65c0.26-0.9,0.62-1.82,0.66-2.74C1342.01,1337.88,1341.96,1335.37,1341.96,1332.85z M1359.04,1102.72
		c-0.1-2.63-2.96-5.23-5.83-5.31c-2.8-0.08-5.62,2.69-5.53,5.45c0.09,3,2.52,5.76,5.2,5.92
		C1355.89,1108.96,1359.16,1105.75,1359.04,1102.72z M1026.77,1363.07c-0.12-0.48-0.2-1.45-0.58-2.28c-0.55-1.2-1.59-1.9-2.94-2.1
		c-1.07-0.16-2.71,0.68-3.22,1.63c-1.11,2.1-0.87,4.72,0.62,6.17c1,0.97,2.21,1.11,3.5,0.67c0.3-0.1,0.61-0.22,0.85-0.41
		C1026.08,1365.95,1026.66,1364.87,1026.77,1363.07z M1339.01,1384.54c1.19-0.27,2.04-1.57,1.84-2.81c-0.21-1.28-1.4-2.18-2.62-1.97
		c-1.23,0.22-2.02,1.45-1.79,2.78C1336.67,1383.85,1337.88,1384.79,1339.01,1384.54z M1025.11,1376.34
		c-0.47-0.38-1.06-1.17-1.81-1.39c-1.28-0.37-2.45,0.74-2.4,2.02c0.04,0.92,0.84,1.77,1.75,1.85
		C1024,1378.94,1025.13,1377.98,1025.11,1376.34z"/>
	<path d="M708.3,1692.15c0.43,0.74,0.77,1.7,1.42,2.34c2.22,2.18,2.93,4.84,2.94,7.84c0.03,10.56,0.1,21.11,0.16,31.67
		c0.01,1.98-0.51,3.77-1.75,5.35c-0.79,1-1.63,2-2.22,3.12c-0.62,1.19-0.66,2.66,0.37,3.56c2.88,2.53,4.34,5.37,3.27,9.31
		c-0.43,1.58,0.25,3.14,1.36,4.42c0.83,0.96,1.82,1.85,2.38,2.96c0.38,0.75,0.17,1.81,0.14,2.74c-0.01,0.29-0.19,0.64-0.4,0.86
		c-3.17,3.23-3.6,7.11-3.53,11.48c0.23,14.08,0.09,28.16,0.11,42.24c0,2.88-0.18,5.78,0.14,8.63c0.52,4.73-0.16,8.88-4.01,12.15
		c-1.26,1.07-1.59,2.74-1.62,4.38c-0.03,1.28,0.03,2.56,0,3.84c-0.05,2.02,0.48,3.86,2.05,5.17c3,2.51,3.79,5.74,3.59,9.46
		c-0.14,2.55-0.22,5.13-0.02,7.67c0.3,4,0.06,7.65-3.66,10.23c-0.97,0.67-0.83,2.47-0.05,3.52c0.57,0.77,1.32,1.4,1.87,2.18
		c2.94,4.18,3.03,9.26-0.15,13.34c-1.81,2.32-3.56,4.43-3.75,7.55c-0.07,1.16-0.82,2.47-1.65,3.34c-2.43,2.54-5.07,4.88-7.61,7.32
		c-2.33,2.24-5.34,2.98-7.97,1.57c-4.78-2.56-10.42-3.19-14.69-6.79c-1.55-1.3-3.44-1.62-5.39-1.62
		c-6.72,0.01-13.44,0.04-20.16,0.04c-14.4-0.01-28.8,0.01-43.2-0.08c-3.03-0.02-5.66,0.51-7.78,2.87c-1.34,1.5-3.19,2.08-5.18,2.13
		c-2.56,0.06-5.12,0.09-7.68,0.09c-37.12,0-74.24,0.01-111.35-0.05c-3.59-0.01-6.88,0.2-9.99,2.45c-3.09,2.23-6.64,1.93-10.04,0.29
		c-0.57-0.28-1.11-0.65-1.61-1.03c-2.94-2.24-5.77-2.43-8.6,0.27c-1.89,1.8-4.04,1.87-6.05,0.21c-2.12-1.74-4.57-2.16-7.18-2.15
		c-2.24,0.01-4.49,0.15-6.72-0.03c-4.9-0.39-9.48,0.36-13.61,3.2c-0.23,0.16-0.62,0.1-1.23,0.18c-0.89-0.52-1.95-1.23-3.09-1.78
		c-1.13-0.55-2.33-1.3-3.52-1.35c-3.83-0.16-7.68-0.19-11.5,0.07c-1.5,0.1-3.05,0.94-4.38,1.77c-2.27,1.42-4.68,1.97-7.3,1.92
		c-1.6-0.03-3.2-0.04-4.8,0c-3.58,0.08-6.97-0.44-10.13-2.35c-1.33-0.8-2.95-1.29-4.5-1.51c-3.21-0.46-6.44-0.42-9.18,1.69
		c-2.44,1.88-5.22,2.15-8.16,2.2c-11.9,0.19-11.9,0.22-20.2-8.17c-1.8-1.82-3.59-3.65-5.43-5.43c-2.65-2.56-3.94-5.58-1.2-9.34
		c0.75-1.02,1.39-2.13,1.98-3.26c0.68-1.29-0.35-3.35-1.84-3.83c-0.3-0.1-0.6-0.26-0.91-0.29c-1.92-0.19-3.87-0.3-5.06-2.16
		c-0.91-1.41-0.96-3.01-0.96-4.62c-0.01-1.6,0.08-3.2,0.01-4.8c-0.14-3.31,0.38-6.32,2.89-8.82c2.21-2.19,2.4-5.08,2.39-8.04
		c-0.06-9.92-0.08-19.84-0.01-29.76c0.03-3.32-0.51-6.22-2.92-8.79c-1.89-2.01-1.84-3.2-0.04-4.93c1.98-1.9,3.06-3.87,2.95-6.72
		c-0.21-5.43-0.07-10.88-0.17-16.32c-0.06-3.32,0.47-6.3,3.06-8.73c0.85-0.8,1.44-2.17,1.59-3.36c0.3-2.34,1.27-4.12,2.88-5.85
		c2.24-2.4,1.95-4.2-0.54-6.51c-1.63-1.52-3.34-2.97-4.91-4.56c-1.37-1.39-1.56-3.77,0.02-5.18c2.72-2.42,3.41-5.19,2.8-8.61
		c-0.42-2.34,0.44-4.35,2.11-6.09c1.09-1.14,2.16-2.39,2.88-3.77c0.76-1.45,0.62-3.08-0.28-4.57c-0.43-0.7-1.73-1.4-2.43-1.07
		c-1.13,0.55-2.21,1.21-3.29,1.85c-1.22,0.72-3.02,0.38-3.23-0.69c-0.73-3.84-2.12-7.3-4.78-10.28c-0.74-0.83-0.88-2.39-0.91-3.63
		c-0.11-4.16-0.05-8.32-0.06-12.48c0-2.64,0.57-5.11,2.48-7.05c2.44-2.49,3.11-5.46,2.77-8.82c-0.16-1.59-0.08-3.2-0.2-4.79
		c-0.2-2.69,0.41-5.05,2.38-7.01c2.21-2.19,2.7-4.99,2.67-7.96c-0.05-5.44,0.04-10.88-0.19-16.31c-0.12-2.81,0.65-5.01,2.82-6.75
		c0.25-0.2,0.46-0.45,0.65-0.7c0.84-1.12,0.98-2.56,0.34-3.57c-0.34-0.54-0.65-1.12-1.1-1.56c-2.82-2.74-3.12-6.14-2.66-9.77
		c0.35-2.77,1.46-4.82,4.41-5.57c1.53-0.39,3.02-1,4.46-1.66c1.11-0.5,1.92-2.77,1.7-4.22c-0.21-1.35-0.9-2.52-2.08-3.03
		c-1.44-0.62-3.06-0.83-4.58-1.26c-2.74-0.77-3.25-2.43-1.59-5.07c0.17-0.27,0.36-0.53,0.58-0.77c2.92-3.16,2.64-6.28-0.06-9.41
		c-2.09-2.43-1.57-4.62,0.55-6.75c0.41-0.41,0.7-1.15,0.67-1.72c-0.02-0.55-0.39-1.31-0.84-1.58c-0.78-0.47-1.73-0.72-2.64-0.9
		c-0.93-0.19-1.9-0.12-2.84-0.28c-1.25-0.21-2.09-1.94-1.49-2.97c0.32-0.55,0.58-1.18,1.04-1.58c2.41-2.1,2.88-4.85,2.87-7.82
		c-0.03-7.04-0.01-14.08-0.03-21.12c-0.02-4.8-0.08-9.6-0.11-14.4c-0.02-3.6-0.62-6.99-3.16-9.8c-1.35-1.49-1.74-3.38-1.74-5.35
		c-0.01-1.92,0.09-3.84-0.01-5.76c-0.16-3,0.4-5.71,2.46-8.01c2.04-2.28,2.74-5.06,2.44-8.03c-0.4-4.06,1.03-7.43,3.18-10.78
		c2.06-3.22,3.67-6.74,5.42-10.15c1.38-2.69,1.75-5.54,0.45-8.33c-1.95-4.21-2.32-8.57-1.9-13.12c0.26-2.86,0.14-5.76,0.28-8.63
		c0.25-4.86-0.11-9.57-2.48-13.98c-1.23-2.3-1.55-4.84-1.47-7.45c0.12-3.83,0.22-7.67,0.22-11.5c0-3.31,0.85-6.32,2.78-9.01
		c2.05-2.85,3.75-6.11,6.8-7.99c4.43-2.73,7.95-6.35,11.05-10.5c4.52-0.65,8.84-1.4,13.08-2.99c4.5-1.69,9.47-0.99,14.24-0.38
		c0.9,0.12,1.79,0.68,2.58,1.18c0.8,0.51,1.52,1.17,2.22,1.83c3.89,3.67,6.26,4.34,10.75,0.48c1.93-1.66,4.11-1.5,6.16,0.04
		c0.77,0.58,1.53,1.17,2.34,1.67c1.47,0.92,3.01,0.92,4.56,0.17c0.29-0.14,0.6-0.26,0.83-0.47c4.21-3.76,7.03-3.47,9.69,1.81
		c0.28,0.56,0.76,1.02,1.19,1.49c0.91,1.02,3.36,1.22,4.42,0.28c0.94-0.84,1.96-1.69,2.6-2.75c1.17-1.9,2.06-3.97,3.11-5.95
		c0.97-1.83,2.56-2.94,4.6-2.99c9.91-0.24,19.83-0.29,29.74-0.64c3.66-0.13,6.72,2.4,10.23,2.05c3.14-0.31,5.99-2.23,9.3-2.04
		c1.59,0.09,3.2,0.04,4.8-0.01c3.64-0.13,6.92,0.8,9.96,2.85c2.12,1.42,4.39,2.63,6.67,3.79c1.81,0.92,3.71,0.83,5.53-0.11
		c0.28-0.15,0.55-0.33,0.83-0.47c5.95-3.09,5.95-3.09,11.49,1.59c0.49,0.41,1,0.79,1.52,1.17c1.19,0.86,3.43,0.99,4.55,0.23
		c0.79-0.54,1.65-1.04,2.27-1.74c2.81-3.21,6.42-3.83,10.44-3.71c5.11,0.16,10.24,0.2,15.36,0.02c4.26-0.15,8.25,0.2,11.9,2.74
		c1.97,1.37,4.33,1.46,6.33,0.03c3.32-2.37,6.89-3.09,10.9-2.7c2.54,0.25,5.13,0.21,7.67,0.02c4.6-0.35,8.88,0.17,12.78,2.95
		c1.69,1.2,3.66,0.87,5.46-0.13c1.11-0.62,2.15-1.47,3.34-1.82c0.81-0.24,2.04-0.08,2.71,0.41c1.53,1.12,2.78,2.62,4.26,3.82
		c1.04,0.85,2.34,0.94,3.62,0.45c0.3-0.11,0.64-0.2,0.87-0.4c3.19-2.79,6.26-2.46,9.5,0.04c1.35,1.04,3.03,0.8,4.48-0.19
		c0.26-0.18,0.56-0.33,0.77-0.57c3.48-3.96,8-4.9,13.03-4.71c3.32,0.13,6.33,0.77,8.81,3.12c4.12,3.92,9.69,4.75,14.69,6.77
		c1.02,0.41,2.66,0.08,3.68-0.49c4.4-2.46,9.08-2.84,13.95-2.48c1.27,0.09,2.57,0.11,3.84-0.03c5.35-0.59,9.95,0.63,14.16,4.33
		c2.58,2.27,6.03,3.51,8.36,6.3c2.15,2.58,3.54,5.3,3.17,8.73c-0.07,0.64-0.08,1.28-0.15,1.91c-0.3,2.98,0.41,5.65,2.08,8.18
		c3.89,5.91,3.79,12.28,0.67,18.24c-3.22,6.15-2.41,12.41-2.01,18.75c0.15,2.31,1.61,4.14,2.74,6.07c1.74,2.96,1.87,6.06,0.75,9.24
		c-0.42,1.21-0.95,2.38-1.4,3.57c-0.71,1.87-0.71,3.75,0.04,5.61c0.36,0.89,0.79,1.75,1.14,2.64c2.1,5.34,2.24,10.76-0.6,15.76
		c-2.56,4.5-3.12,9.16-1.86,13.89c1.69,6.34,0.4,12.06-2.67,17.51c-1.79,3.18-2.62,6.52-2.72,10.07c-0.12,4.47-0.25,8.97,0.01,13.43
		c0.2,3.41-0.3,6.35-3.01,8.65c-0.48,0.41-0.92,0.89-1.31,1.4c-1.78,2.31-1.84,4.74-0.1,7.04c0.77,1.01,1.74,1.87,2.54,2.87
		c0.77,0.95,0.66,2.17-0.25,3.49c-0.36,0.52-0.83,0.97-1.24,1.46c-0.93,1.1-1.01,2.29-0.21,3.47c0.54,0.79,1.22,1.47,1.79,2.24
		c0.64,0.88,0.52,1.85-0.03,2.67c-0.71,1.06-1.71,1.92-2.36,3.01c-2.53,4.25-2.13,9.48,0.97,13.42c0.39,0.5,0.89,0.92,1.34,1.37
		c1.44,1.45,1.98,3.22,1.93,5.23c-0.11,4.48-0.25,8.95-0.25,13.43c-0.01,14.4-0.05,28.8,0.12,43.2c0.05,4.04-0.54,7.59-3.74,10.37
		C708.54,1690.6,708.53,1691.42,708.3,1692.15z M360.66,1792.81c0.15-4.2,0.14-8.26-3.39-11.47c-0.81-0.74-0.83-2.33-1.28-3.5
		c-0.44-1.16-0.91-2.32-1.47-3.43c-0.48-0.95-2.72-1.04-3.36-0.12c-0.53,0.76-1.22,1.63-1.24,2.47c-0.05,2.53,0.05,5.08,0.36,7.59
		c0.37,3.02,0,5.57-2.45,7.77c-2.43,2.17-1.88,4.31,0.29,6.61c1.3,1.38,2.76,2.62,4.24,3.8c1.32,1.05,3.83,0.87,5.4-0.18
		c1.39-0.93,2.36-2.2,2.58-3.83C360.58,1796.63,360.57,1794.71,360.66,1792.81z M494.03,1811.57c-0.17-0.58-0.17-1.35-0.55-1.69
		c-0.69-0.61-1.56-1.27-2.43-1.39c-4.47-0.63-8.93-1.19-12.14,3.24c-0.98,1.35-2.75,1.49-4.34,1.66c-2,0.2-3.64,1.03-4.9,2.61
		c-1.05,1.32-2.48,1.89-4.12,2.14c-1.25,0.19-2.59,0.32-3.68,0.87c-0.7,0.35-1.45,1.45-1.41,2.18c0.03,0.75,0.85,1.71,1.58,2.13
		c1.76,1,3.92,1.2,5.4-0.14c2.65-2.4,5.27-4.49,9.06-4.66c0.82-0.04,1.83-0.76,2.35-1.46c1.72-2.31,4.04-2.86,6.72-2.86
		c1.9,0,3.81-0.17,5.71-0.37c0.6-0.06,1.24-0.38,1.71-0.76C493.42,1812.69,493.68,1812.08,494.03,1811.57z M349.77,1610.44
		c0.32,3.08,0.45,5.63,0.89,8.13c0.29,1.65,1.49,2.82,3.14,3.27c2.19,0.6,4.65-0.33,5.9-2.12c1.22-1.75,1.33-3.77,0.13-5.37
		c-2.33-3.11-4.2-6.35-4.8-10.23c-0.05-0.3-0.19-0.67-0.42-0.84c-0.48-0.37-1.02-0.76-1.59-0.9c-1.04-0.25-1.88,0.31-2.34,1.18
		c-0.43,0.82-0.79,1.75-0.87,2.66C349.66,1607.8,349.77,1609.4,349.77,1610.44z M689.92,1453.4c-0.09-2.74-1.54-4.7-3.78-6.16
		c-2.5-1.62-5.88-0.61-7.24,2.12c-1.75,3.51-0.84,7.64,2.26,10.27c1.36,1.16,3.86,1.27,5.32,0.23
		C688.68,1458.3,689.82,1456.15,689.92,1453.4z M347.6,1644.01c-0.74,0.47-1.4,0.68-1.71,1.14c-1.13,1.64-1.25,3.46-0.51,5.28
		c0.35,0.85,0.89,1.6,1.96,1.75c1.17,0.16,2.49-0.6,2.92-1.73c0.69-1.85,0.71-3.68-0.55-5.24
		C349.21,1644.59,348.24,1644.36,347.6,1644.01z M357.51,1585.4c1.35-0.02,2.17-0.99,2.02-1.95c-0.15-0.95-0.96-1.64-1.92-1.63
		c-0.96,0.01-1.94,1.05-1.57,1.92C356.35,1584.46,357.12,1584.98,357.51,1585.4z M451.09,1828.54c0.7-0.98,1.44-1.6,1.59-2.34
		c0.23-1.13-1.45-2.3-2.46-1.81c-0.89,0.44-1.36,1.35-1.01,2.22C449.49,1827.29,450.3,1827.76,451.09,1828.54z M561.77,1697.1
		c0.25-0.7,0.04-1.22-0.63-1.54c-0.94-0.45-2-0.2-2.34,0.53c-0.33,0.72,0.16,1.92,0.93,2.23
		C560.5,1698.63,561.41,1698.09,561.77,1697.1z"/>
	<path d="M2158.67,1061.22c-0.06,0.74-0.47,1.1-1.2,0.91c-0.21-0.05-0.45-0.46-0.46-0.71c-0.01-0.74,0.45-1.1,1.18-0.91
		C2158.4,1060.56,2158.52,1060.97,2158.67,1061.22z"/>
	<polygon points="2890.24,817.13 2890.5,817.83 2889.82,817.73 	"/>
	<path class="st0" d="M2474.31,1586.28c-0.06,0.35-0.06,1.67-0.51,2.8c-1.56,3.89-3.99,7.2-7.47,9.58
		c-0.98,0.67-2.32,1.01-3.53,1.14c-2.58,0.28-4.93-2.54-4.3-4.97c0.16-0.61,0.23-1.27,0.52-1.81c1.95-3.64,4.32-6.98,7.28-9.87
		c0.44-0.43,1.03-0.72,1.56-1.06C2470.36,1580.49,2474.03,1582.37,2474.31,1586.28z"/>
	<path class="st0" d="M2403.25,1851.3c-0.28,2.86-1.47,4.97-3.88,6.26c-1.44,0.76-3.02,0.92-4.56,0.32
		c-3.21-1.25-5.12-3.61-5.4-7.05c-0.3-3.59,1.74-7.07,4.84-8.46c1.89-0.84,3.72-0.44,5.29,0.83
		C2402.16,1845.31,2403.27,1848.15,2403.25,1851.3z"/>
	<path class="st0" d="M2653.44,452.89c-0.62-0.13-1.43-0.06-1.8-0.43c-0.6-0.61-1.29-1.53-1.25-2.28c0.05-0.82,0.74-1.78,1.43-2.31
		c0.7-0.54,1.75-0.87,2.65-0.86c3.37,0.03,5.94-1.1,8.16-3.83c2.2-2.7,5.24-2.86,8.57-1.19c0.53,0.26,0.9,0.85,1.34,1.29
		c0.54,0.54,0.49,2.14-0.12,2.59c-0.74,0.55-1.48,1.29-2.33,1.48c-3.66,0.84-7.41,1.16-10.36,4.1
		C2658.22,452.96,2656.64,452.9,2653.44,452.89z"/>
	<path class="st0" d="M2458.52,857.71c-0.15,2.56-3.01,4.44-5.52,3.62c-4.21-1.37-6.94-6.08-6.08-10.49
		c0.35-1.81,2.48-3.22,4.28-2.85C2455.46,848.86,2458.78,853.26,2458.52,857.71z"/>
	<path class="st0" d="M2684,441.09c-1.28,0.12-2.41-0.73-2.74-2.04c-0.4-1.62,0.67-3.16,2.35-3.35c1.5-0.18,2.85,1.27,2.83,3.01
		C2686.42,439.92,2685.36,440.96,2684,441.09z"/>
	<path class="st0" d="M1675.45,1860.92c-0.07,2.74-1.25,4.51-3.21,5.82c-1.76,1.17-3.57,1.06-5.39,0.14
		c-1.45-0.74-2.73-1.76-3.26-3.29c-0.39-1.13-0.64-2.55-0.32-3.65c0.77-2.57,2.61-4.33,5.28-4.93c0.86-0.19,1.93-0.08,2.74,0.27
		C1673.85,1856.39,1674.89,1858.67,1675.45,1860.92z"/>
	<path class="st0" d="M1735.57,1669.66c-1.84-0.4-2.93-0.95-3.47-2.24c-0.53-1.28-0.38-2.59,0.53-3.53c2.85-2.94,5.8-5.79,8.75-8.64
		c0.73-0.7,2.6-0.65,3.59-0.04c1.05,0.65,1.82,2.1,1.58,3.21c-0.2,0.91-0.35,1.9-0.82,2.68c-1.83,3-4.29,5.48-7.15,7.48
		C1737.61,1669.25,1736.28,1669.42,1735.57,1669.66z"/>
	<path class="st0" d="M1734.81,1132.92c-0.12,1.87-2.46,3.42-4.28,2.99c-3.88-0.92-6-5.23-4.26-8.99c0.31-0.66,1.63-1.43,2.24-1.27
		c3.29,0.91,5.34,3.22,6.29,6.49C1734.88,1132.43,1734.81,1132.77,1734.81,1132.92z"/>
	<path class="st0" d="M1661.06,987.05c-0.04,0.69-0.45,1.01-1.19,0.8c-0.22-0.06-0.5-0.42-0.5-0.65c-0.01-0.73,0.45-1.05,1.17-0.83
		C1660.76,986.45,1660.89,986.82,1661.06,987.05z"/>
	<polygon class="st0" points="1664.89,1715.93 1665.44,1715.94 1665.16,1716.49 	"/>
	<path class="st0" d="M1341.96,1332.85c0,2.52,0.06,5.04-0.03,7.55c-0.03,0.92-0.4,1.83-0.66,2.74c-0.26,0.93-2.09,2.05-3.02,1.65
		c-0.8-0.34-1.45-1.06-2.11-1.67c-0.2-0.19-0.25-0.58-0.29-0.88c-0.81-6.58-0.63-13.17-0.13-19.76c0.04-0.59,0.31-1.3,0.72-1.7
		c0.64-0.62,1.5-1.4,2.25-1.39c0.77,0.01,1.8,0.74,2.22,1.45c0.62,1.04,1.04,2.32,1.1,3.52c0.15,2.82,0.05,5.66,0.05,8.5
		C1342.02,1332.85,1341.99,1332.85,1341.96,1332.85z"/>
	<path class="st0" d="M1359.04,1102.72c0.12,3.03-3.15,6.24-6.16,6.05c-2.69-0.16-5.11-2.92-5.2-5.92
		c-0.09-2.75,2.73-5.52,5.53-5.45C1356.08,1097.49,1358.94,1100.09,1359.04,1102.72z"/>
	<path class="st0" d="M1026.77,1363.07c-0.11,1.8-0.69,2.88-1.76,3.68c-0.25,0.19-0.56,0.31-0.85,0.41c-1.29,0.44-2.5,0.3-3.5-0.67
		c-1.49-1.44-1.74-4.07-0.62-6.17c0.5-0.95,2.14-1.79,3.22-1.63c1.35,0.2,2.39,0.9,2.94,2.1
		C1026.57,1361.62,1026.66,1362.59,1026.77,1363.07z"/>
	<path class="st0" d="M1339.01,1384.54c-1.13,0.25-2.34-0.69-2.57-2c-0.23-1.33,0.56-2.57,1.79-2.78c1.21-0.21,2.4,0.68,2.62,1.97
		C1341.05,1382.97,1340.21,1384.27,1339.01,1384.54z"/>
	<path class="st0" d="M1025.11,1376.34c0.02,1.64-1.11,2.61-2.46,2.48c-0.91-0.08-1.72-0.93-1.75-1.85
		c-0.05-1.28,1.12-2.39,2.4-2.02C1024.05,1375.17,1024.64,1375.96,1025.11,1376.34z"/>
	<path class="st0" d="M360.66,1792.81c-0.1,1.9-0.08,3.81-0.32,5.69c-0.21,1.63-1.18,2.9-2.58,3.83c-1.57,1.05-4.08,1.23-5.4,0.18
		c-1.49-1.18-2.95-2.42-4.24-3.8c-2.16-2.29-2.71-4.43-0.29-6.61c2.46-2.2,2.83-4.74,2.45-7.77c-0.31-2.51-0.41-5.06-0.36-7.59
		c0.02-0.83,0.71-1.71,1.24-2.47c0.64-0.92,2.89-0.83,3.36,0.12c0.56,1.11,1.03,2.27,1.47,3.43c0.45,1.17,0.46,2.77,1.28,3.5
		C360.81,1784.55,360.81,1788.61,360.66,1792.81z"/>
	<path class="st0" d="M494.03,1811.57c-0.35,0.51-0.61,1.12-1.06,1.5c-0.47,0.38-1.11,0.7-1.71,0.76c-1.89,0.2-3.8,0.38-5.71,0.37
		c-2.68,0-5,0.55-6.72,2.86c-0.52,0.7-1.53,1.43-2.35,1.46c-3.79,0.17-6.41,2.26-9.06,4.66c-1.48,1.34-3.64,1.14-5.4,0.14
		c-0.73-0.42-1.54-1.38-1.58-2.13c-0.03-0.73,0.72-1.83,1.41-2.18c1.1-0.55,2.43-0.69,3.68-0.87c1.64-0.24,3.07-0.82,4.12-2.14
		c1.26-1.59,2.9-2.41,4.9-2.61c1.6-0.16,3.37-0.3,4.34-1.66c3.21-4.43,7.67-3.88,12.14-3.24c0.87,0.12,1.74,0.78,2.43,1.39
		C493.86,1810.22,493.86,1810.99,494.03,1811.57z"/>
	<path class="st0" d="M349.77,1610.44c0-1.04-0.1-2.64,0.04-4.22c0.08-0.91,0.43-1.85,0.87-2.66c0.46-0.87,1.3-1.43,2.34-1.18
		c0.57,0.14,1.1,0.53,1.59,0.9c0.23,0.17,0.37,0.54,0.42,0.84c0.6,3.88,2.48,7.12,4.8,10.23c1.2,1.6,1.09,3.62-0.13,5.37
		c-1.25,1.79-3.71,2.71-5.9,2.12c-1.65-0.45-2.85-1.62-3.14-3.27C350.22,1616.07,350.09,1613.52,349.77,1610.44z"/>
	<path class="st0" d="M689.92,1453.4c-0.1,2.75-1.24,4.89-3.44,6.47c-1.45,1.04-3.96,0.92-5.32-0.23c-3.1-2.64-4.01-6.76-2.26-10.27
		c1.36-2.73,4.74-3.74,7.24-2.12C688.39,1448.7,689.83,1450.67,689.92,1453.4z"/>
	<path class="st0" d="M347.6,1644.01c0.64,0.34,1.61,0.58,2.11,1.2c1.26,1.56,1.25,3.4,0.55,5.24c-0.42,1.13-1.75,1.89-2.92,1.73
		c-1.07-0.15-1.62-0.91-1.96-1.75c-0.74-1.82-0.62-3.65,0.51-5.28C346.2,1644.7,346.86,1644.49,347.6,1644.01z"/>
	<path class="st0" d="M357.51,1585.4c-0.39-0.42-1.16-0.94-1.47-1.66c-0.37-0.87,0.61-1.91,1.57-1.92c0.96-0.01,1.77,0.68,1.92,1.63
		C359.68,1584.4,358.86,1585.37,357.51,1585.4z"/>
	<path class="st0" d="M451.09,1828.54c-0.8-0.78-1.61-1.25-1.88-1.93c-0.35-0.87,0.12-1.78,1.01-2.22c1.01-0.49,2.69,0.68,2.46,1.81
		C452.53,1826.94,451.79,1827.56,451.09,1828.54z"/>
	<path class="st0" d="M561.77,1697.1c-0.36,0.99-1.27,1.52-2.04,1.21c-0.76-0.31-1.26-1.5-0.93-2.23c0.34-0.73,1.4-0.97,2.34-0.53
		C561.81,1695.88,562.02,1696.4,561.77,1697.1z"/>
</g>
</svg>
